<svg id="Layer_1" data-name="Layer 1" xmlns="http://www.w3.org/2000/svg" viewBox="0 0 1200 1200"><defs><style>.cls-1{fill:#2a273d;}</style></defs><path class="cls-1" d="M795.27,624.67a6.19,6.19,0,0,1,6.71-5.2,5.85,5.85,0,0,1,5.11,6.83,6.25,6.25,0,0,1-2.34,4.1,5.76,5.76,0,0,1-4.47,1.08,5.94,5.94,0,0,1-3.86-2.41A6.1,6.1,0,0,1,795.27,624.67Zm2.23.28c-.58,4.73,6.63,6.07,7.36,1.07S798.27,620.25,797.5,625Z"/><path class="cls-1" d="M802.66,606.25a6,6,0,0,0,6.19-6V600h-2.27c0,.09,0,.17,0,.27-.21,5-7.53,4.61-7.43-.15l0-.12h-2.26l0,.12A6,6,0,0,0,802.66,606.25Z"/><path class="cls-1" d="M745.74,637.74c.74-2.36,3.64-3.75,6.93-3a6.61,6.61,0,0,1,3.77,2.34,4.1,4.1,0,0,1,.82,3.74c-.81,2.58-4,3.91-7.13,2.93S745.06,640.13,745.74,637.74Zm2.18.56c-1,3.51,6,5.71,7.16,2,.58-1.86-1-3.27-2.81-3.71S748.5,636.56,747.92,638.3Z"/><path class="cls-1" d="M749.39,619.1c.43-2.43,3.27-4.17,6.57-3.84s5.65,2.76,5.26,5.45a4.36,4.36,0,0,1-2.2,3.13,6.67,6.67,0,0,1-4.43.69,6.89,6.89,0,0,1-3.91-2A4.23,4.23,0,0,1,749.39,619.1Zm2.24.29c-.43,3.62,6.78,4.92,7.36,1S752.26,615.78,751.63,619.39Z"/><path class="cls-1" d="M756.46,604.85c3.31.15,6-1.93,6.17-4.64V600h-2.26a1.41,1.41,0,0,1,0,.21c-.19,3.94-7.51,3.55-7.43-.12a.29.29,0,0,0,0-.09H750.7v.09C750.63,602.59,753.12,604.69,756.46,604.85Z"/><path class="cls-1" d="M749.62,716c-.21-1.56-.43-3.11-.67-4.65l-.36-2.29-.44-2.31q-.92-4.6-2-9c-.72-2.94-1.6-5.91-2.45-8.75-.43-1.43-.88-2.84-1.33-4.24s-1-2.82-1.53-4.21a1,1,0,0,1-.07-.67l0,.05s0-.1-.06-.09l0,0,0,0h0l.07.05,0,0a1.22,1.22,0,0,1,.58-.23,170.41,170.41,0,0,0,17.85-4c3-.86,5.89-1.82,8.9-2.83,1.49-.52,3-1,4.5-1.59s2.93-1.15,4.41-1.76a1.18,1.18,0,0,1,1.49.56q1,2.17,1.95,4.4c.63,1.49,1.18,3,1.77,4.46,1.14,3,2.27,6.08,3.32,9.21a196.63,196.63,0,0,1,5.18,19.32,1.94,1.94,0,0,1-.11.82,2.24,2.24,0,0,1-.71.58c-1.64.52-3.27,1-4.89,1.53s-3.32.91-5,1.34c-3.31.85-6.51,1.67-9.79,2.34s-6.56,1.26-9.77,1.79l-2.4.38-2.45.31c-1.63.2-3.24.39-4.84.56A1.17,1.17,0,0,1,749.62,716Zm3.2-2.73c2.82-.32,5.54-.79,8.37-1.25l4.24-.75,2.13-.41,2.1-.46c5.58-1.27,11.39-2.68,17-4.51-.66-2.87-1.29-5.66-2-8.46s-1.62-5.55-2.47-8.24c-.43-1.35-.85-2.68-1.31-4l-1.47-4q-1.5-3.94-3.06-7.74c-2.65,1-5.28,1.91-7.89,2.78l-3.88,1.26c-1.31.39-2.65.76-4,1.12-2.63.71-5.23,1.38-7.8,2s-5.26,1.1-7.84,1.58c1.84,4.93,3.26,9.9,4.64,15.13l.51,2,.44,2,.83,4C751.87,707.86,752.43,710.61,752.82,713.31Z"/><path class="cls-1" d="M726.61,763.15a6.06,6.06,0,0,1-4.62,1.3,5.8,5.8,0,0,1-4-2.28,5.64,5.64,0,0,1-1.06-4.36,6.6,6.6,0,0,1,2.32-3.9,6.21,6.21,0,0,1,8.49.82A5.85,5.85,0,0,1,726.61,763.15Zm-1.36-1.76c4-3.18-.79-8.64-4.62-5.72a3.68,3.68,0,1,0,4.62,5.72Z"/><path class="cls-1" d="M706.72,769.43a5.87,5.87,0,0,0-3.7-2.57,6.28,6.28,0,0,0-4.54.64l0,0,1.13,1.93a.23.23,0,0,1,.07-.06c4.21-2.35,8.22,3.68,3.81,6.27l-.17.08,1.13,1.92a.91.91,0,0,0,.17-.08,6.09,6.09,0,0,0,2.9-3.69A5.6,5.6,0,0,0,706.72,769.43Z"/><path class="cls-1" d="M714.47,713.46c-2,1.91-5.39,1.51-7.65-.84s-2.58-5.64-.83-7.42,5-1.52,7.51.72S716.39,711.52,714.47,713.46Zm-1.58-1.57c1.39-1.39.68-3.38-.65-4.61s-3.3-1.77-4.66-.5C705,709.41,710,714.66,712.89,711.89Z"/><path class="cls-1" d="M698.71,726.94a4,4,0,0,1-1.79.83,5,5,0,0,1-2-.1,6.61,6.61,0,0,1-3.65-2.52,6.55,6.55,0,0,1-1.39-4.13,4.48,4.48,0,0,1,.43-1.84,4.23,4.23,0,0,1,1.09-1.49c2-1.53,5.22-.83,7.38,1.68S700.84,725.23,698.71,726.94Zm-1.37-1.76c3.1-2.49-1.66-8-4.6-5.73-1.4,1.23-1.07,3.19,0,4.65S695.82,726.45,697.34,725.18Z"/><path class="cls-1" d="M682.36,730.83a6.81,6.81,0,0,0-3.35-2.77,4.32,4.32,0,0,0-3.69.13l0,0,1.14,1.92a.11.11,0,0,1,0,0c3.24-1.78,7.22,4.27,3.79,6.29a.35.35,0,0,1-.13,0l1.13,1.92a.53.53,0,0,0,.13-.06,4.23,4.23,0,0,0,2.06-3.19A6.57,6.57,0,0,0,682.36,730.83Z"/><path class="cls-1" d="M775.09,699.32a2,2,0,0,1-.67.52c-4.36,1.25-8.87,2.22-13.24,3.1a1.17,1.17,0,0,1-1.34-.86c-1-4.3-2-8.43-3.39-12.57a1.17,1.17,0,0,1-.05-.73s0,0,0,.07-.05-.11-.05-.1l0,0,0-.05h0l.07.05h0a1.48,1.48,0,0,1,.61-.26q3.2-.72,6.44-1.54t6.36-1.84a1.18,1.18,0,0,1,1.43.69q1.07,3.13,2.09,6.34c.63,2.12,1.21,4.26,1.79,6.45A1.82,1.82,0,0,1,775.09,699.32Zm-2.4-1.33c-1-3.62-2-7-3.17-10.54-3.48,1.08-7.11,1.9-10.62,2.71q.79,2.57,1.55,5.19c.47,1.73.89,3.46,1.32,5.23,1.82-.37,3.66-.76,5.49-1.18S770.86,698.49,772.69,698Z"/><path class="cls-1" d="M720.73,799.7c2.22-1.21,4.36-2.65,6.58-4l3.33-2.11,1.69-1.07,1.65-1.14c-1-.09-2-.17-3-.28l-3-.38c-2-.27-3.94-.56-5.88-.85s-3.87-.6-5.8-.94l-5.89-1.09-1.6-2.71c2.3.47,4.63,1,7,1.37s4.63.76,7,1.1,4.74.69,7.14,1,4.78.46,7.23.64c4.23-2.86,8.31-6.11,12.52-9.36q-4.08-.06-8.06-.23c-2.66-.12-5.25-.23-7.9-.49s-5.23-.5-7.8-.79l-3.82-.46-3.84-.6c-.05,0-.05,0-.1-.06L713,780.41c-.84.54-1.71,1.05-2.58,1.53l-2.6,1.46-1.12-1.91,3.35-1.9c1.12-.62,2.19-1.34,3.29-2,2.17-1.38,4.38-2.72,6.54-4.15l6.38-4.45c.53-.37,1.07-.73,1.59-1.12l1.55-1.18,3.09-2.38a205.52,205.52,0,0,0,23.15-20.85c-2.58.18-5.14.32-7.66.43s-5.12.1-7.62.1-5-.05-7.46-.13-5-.31-7.41-.51A193.13,193.13,0,0,1,696.2,763.7l-1.13-1.92,3.41-1.92c0-.11-.07-.19,0-.31,1-4.73,2-9.28,2.75-13.85.36-2.32.69-4.6,1-6.86l.41-3.37c.12-1.12.2-2.28.29-3.4-1.45,1.16-3,2.18-4.51,3.24l-2.28,1.59c-.76.53-1.5,1.08-2.3,1.55,0,0,0,.06,0,.11-.8,5.18-2.17,10.8-3.1,15.79l-1.57-2.67c.31-1.89.76-3.82,1.2-5.8s.84-4,1.16-6l-2.41,1.52c-1.45,1-3.12,1.84-4.45,2.64l-1.15-2,2-1.15c.35-.19.7-.38,1-.58l1-.64,4.12-2.58,1.52-1c.5-.32,1-.68,1.47-1l2.92-2c1-.69,2-1.32,2.9-2l2.83-2.18a.18.18,0,0,1,.07,0,167.34,167.34,0,0,0,19.78-17.93c-.57-4.45-1.36-8.85-2.2-13.06-1-4.33-2-8.46-3.26-12.52a148.66,148.66,0,0,1-36.28,34.07c-2.8,1.71-5.37,3.5-8.33,5.06l-1.35-2.29a150.76,150.76,0,0,0,14.38-9.3l3.58-2.77c.6-.47,1.22-.92,1.81-1.41l1.75-1.5c1.17-1,2.39-2,3.56-3l3.45-3.24c1.19-1,2.27-2.23,3.38-3.37l1.68-1.73c.57-.57,1.14-1.15,1.65-1.77l3.22-3.64c.56-.6,1-1.24,1.55-1.88l1.53-1.91,1.53-1.91c.52-.63,1-1.32,1.45-2l2.88-4c1.73-2.77,3.66-5.43,5.21-8.28a139.52,139.52,0,0,0,14.82-35.65A145.79,145.79,0,0,0,743.6,600h2.7l-.14,4.9,0,2.45-.19,2.44-.24,3.09c-.07,1-.13,2.06-.3,3.08l-.79,6.13-1.11,6.08c-.15,1-.45,2-.67,3l-.71,3a144.49,144.49,0,0,1-8,23.36c1.06-.24,2.14-.48,3.19-.74l3.13-.84q3.14-.88,6.34-1.87c2.17-.65,4.19-1.4,6.3-2.17s4.21-1.59,6.34-2.45a172,172,0,0,0,5.92-25.74.19.19,0,0,1,0-.08l.88-7,.53-7.08c.08-.79.11-1.58.12-2.38l0-2.39L767,600h2.31c-.08,1.73-.15,3.47-.19,5.19l-.06,2.78c3.07-2.51,6.15-5.18,9.23-8h3.14q-3.09,2.84-6.17,5.51c-2,1.77-4.08,3.49-6.27,5.12a.41.41,0,0,1-.11.07l-.41,5.49c-.14,1.83-.44,3.64-.65,5.46,1.88-1.28,3.78-2.6,5.68-4s3.64-2.8,5.47-4.27,3.69-3,5.49-4.51,3.53-3.14,5.31-4.77a1.13,1.13,0,0,1,.31-.19l.09-3.94h2.26a188.72,188.72,0,0,1-3.32,35.17,185.37,185.37,0,0,1,15.21,25.56l2.13-7.41c.67-2.49,1.2-5,1.8-7.5l.86-3.76.69-3.8.68-3.79c.22-1.27.48-2.52.62-3.8l1-7.64c.18-1.27.28-2.55.37-3.83l.29-3.84.29-3.83c.11-1.28.09-2.57.14-3.85l.18-7.68h2.25c-.11,4-.13,8-.34,12l.1.1q2.37,2.93,4.73,6c1.55,2,3.19,4.12,4.62,6.24s2.93,4.29,4.38,6.5,2.91,4.46,4.22,6.74c.52-2.59.77-5.18,1.12-7.74.17-1.28.33-2.55.49-3.81s.33-2.53.41-3.78c-2.84-4-5.64-7.83-8.58-11.53s-6.08-7.25-9.14-10.66h3.19a218.65,218.65,0,0,1,14.83,18.43c.18-2.64.45-5.25.53-7.82s.13-5.1.2-7.59l-2.5-3h5.27c-.06,2.65-.13,5.3-.19,8l-.12,4-.28,4a233.83,233.83,0,0,1-9.78,52.64,230.68,230.68,0,0,1-21.71,49,237.88,237.88,0,0,1-73.86,77.64c-4.54,2.85-8.79,5.68-13.6,8.29L717,798.93C718.31,799.13,719.4,799.48,720.73,799.7Zm83.81-83.64h0Zm9.06-86.56,2.19,3.15,2.05,3.21q2.05,3.24,4.06,6.61c1.37,2.25,2.6,4.52,3.83,6.83s2.44,4.68,3.64,7.08q.9-3.82,1.79-7.6l.43-1.88L832,645l.69-3.76c-1.34-2.33-2.68-4.6-4.06-6.84s-2.9-4.45-4.37-6.6-2.92-4.27-4.47-6.35-3.15-4.1-4.74-6.09c-.19,2.35-.32,4.7-.58,7l-.89,7Zm-3.13,17.42q1.88,3.27,3.71,6.66c1.2,2.26,2.29,4.54,3.41,6.87s2.21,4.7,3.28,7.11,2,4.82,2.94,7.29l1.26-3.7c.43-1.22.85-2.45,1.19-3.7.72-2.48,1.43-5,2.14-7.42-1.07-2.4-2.32-4.8-3.53-7.15s-2.46-4.66-3.71-6.92c-.61-1.13-1.28-2.26-2-3.38l-2-3.32c-1.36-2.19-2.73-4.33-4.11-6.44l-1.25,7c-.22,1.16-.4,2.33-.66,3.48l-.8,3.46Zm-4.71,16.79q1.56,3.42,3.08,7c1,2.36,2,4.79,2.9,7.19s1.76,4.88,2.61,7.38l1.26,3.77c.41,1.27.76,2.52,1.13,3.8,1.12-2.35,2-4.77,3-7.17l1.44-3.6c.48-1.2,1-2.39,1.37-3.62-1-2.51-1.93-5-2.92-7.41s-2-4.81-3.12-7.2-2.23-4.69-3.37-7c-.57-1.14-1.14-2.27-1.73-3.4l-1.86-3.36c-.28,1.14-.52,2.3-.84,3.44l-1,3.4C807.09,659.18,806.48,661.46,805.76,663.71Zm-40.16-29c1.94-1,3.74-2,5.63-3.08l5.71-3.21c2-1.08,3.83-2.18,5.73-3.3l5.82-3.35a1.36,1.36,0,0,1,.41-.15c.37-2.44.49-4.91.69-7.37s.41-4.92.42-7.39l-2.7,2.42c-.92.8-1.87,1.58-2.8,2.35q-2.81,2.33-5.59,4.52c-1.81,1.47-3.77,2.88-5.69,4.24s-3.85,2.68-5.76,4c-.08.87-.26,1.74-.41,2.6l-.47,2.59-.46,2.6-.23,1.29Zm-3.53,13.58A173.67,173.67,0,0,0,786.86,635l1-5.34c.18-.89.3-1.78.41-2.68l.34-2.69-5.89,3.4L776.75,631,771,634.21c-1.94,1-3.92,2.07-5.85,3.07a.59.59,0,0,1-.14.06l-.64,2.77-.32,1.38-.39,1.37ZM727.65,670.2l3.48-.46,3.4-.58c2.29-.4,4.6-.86,6.94-1.35s4.58-1.1,6.92-1.71,4.67-1.28,7-2,4.59-1.54,6.91-2.38,4.71-1.72,7-2.7c4.53-2,9.3-4,13.75-6.44a1.18,1.18,0,0,1,1.53.44c2.63,4.45,4.82,9,7.1,13.74,1.15,2.39,2.14,4.78,3.14,7.22s2,4.93,2.93,7.47,1.74,5,2.57,7.65,1.67,5.25,2.36,7.9,1.37,5.33,2,8.06l.93,4.13c.29,1.38.54,2.74.79,4.13,1.66-2.73,3.07-5.61,4.57-8.44l2.2-4.26,2-4.36c-.77-2.78-1.56-5.51-2.4-8.2s-1.84-5.4-2.8-8c-1.84-5.22-4.1-10.38-6.34-15.3a1,1,0,0,1-.26-.56c-1.07-2.41-2.35-4.83-3.57-7.17s-2.48-4.65-3.75-6.91-2.71-4.49-4.08-6.66-2.73-4.3-4.22-6.39a164.88,164.88,0,0,1-54.65,22.64l-1.23,2.69L730.48,665C729.55,666.73,728.71,668.52,727.65,670.2Zm-.53,1.88a152.92,152.92,0,0,1,8.79,26.82c.55,2.36,1,4.7,1.43,7.13s.88,4.89,1.19,7.33.58,4.92.82,7.44l.33,3.81.19,3.79,4-.1,3.91-.23c2.62-.18,5.27-.39,8-.65s5.3-.64,8-1,5.42-.81,8.11-1.33a212.51,212.51,0,0,0,32.68-9,192.18,192.18,0,0,0-21.33-61.14A166.09,166.09,0,0,1,727.12,672.08ZM713.35,749.6c0-4.49,0-8.9.06-13.18s-.07-8.65-.13-12.8c-2.74,2.26-5.36,4.66-8.23,6.76-.15,2.28-.33,4.59-.56,6.93s-.57,4.58-.92,6.92l-.54,3.52c-.18,1.19-.38,2.37-.62,3.52-.45,2.32-.94,4.67-1.45,7.05l3.17-2c1-.68,2.14-1.3,3.14-2l6.15-4.28A1.35,1.35,0,0,1,713.35,749.6Zm10.75-8q.21-3.57.31-7.05t0-7c-.06-2.33-.09-4.57-.28-6.88s-.37-4.58-.6-6.82c-1.34,1.36-2.65,2.76-4,4.1l-4.2,3.92a.68.68,0,0,1,0,.15c0,1.07.1,2.17.13,3.25l0,3.22.08,6.57c.05,2.25,0,4.44,0,6.66s0,4.5,0,6.75l4.35-3.34,1.09-.83,1-.89Zm34-.51a1,1,0,0,1,.62-.06,194.6,194.6,0,0,0,33.53-5.88c3.83-5.14,7.31-10.54,10.69-16-1.32.49-2.67,1-4,1.39l-4.06,1.28c-2.71.83-5.38,1.62-8.07,2.34s-5.45,1.32-8.14,1.92-5.33,1.16-8.07,1.59c-5.44.88-10.67,1.68-16,2.1q-4,.35-7.86.59c-2.63.12-5.26.17-7.82.21a1.17,1.17,0,0,1-1.15-1.09c-.11-2.54-.22-5-.42-7.51s-.51-5-.82-7.45c-.55-4.84-1.53-9.76-2.5-14.41-.47-2.31-1.1-4.68-1.71-7s-1.25-4.54-1.91-6.73-1.48-4.44-2.24-6.58-1.5-4.21-2.4-6.32c-.47.87-1,1.69-1.58,2.52l-1.63,2.49c-1,1.69-2.25,3.27-3.41,4.88a144.49,144.49,0,0,1,6.29,27.87c.3,2.41.51,4.81.71,7.28l.27,3.73.11,1.88.06,1.86c.06,2.48.09,5,.07,7.55,0,1.28,0,2.59-.06,3.85l-.18,3.83,3.89.28c1.3.09,2.57.11,3.87.15q3.89.1,7.89.11c2.69,0,5.29-.12,8-.24S755.36,741.28,758.1,741.07Zm-9.34,12.27c2.56-.06,5.17-.14,7.75-.31s5.14-.43,7.75-.69c5.28-.48,10.49-1.26,16-2.06.84-1,1.72-1.93,2.54-2.93l2.43-3c1.61-2,3.28-4,4.83-6.13-5.39,1.16-10.66,2.18-15.75,3.11s-10.29,1.55-15.4,2C755.56,746.71,752.3,750.16,748.76,753.34Zm-13.44,11.58c1.28.08,2.6.17,3.87.2l3.85.07c2.58,0,5.19,0,7.84,0q2,0,4-.12l4-.18,8.17-.46c1.82-1.82,3.61-3.68,5.42-5.55l2.71-2.81c.86-1,1.73-2,2.6-2.93a257.81,257.81,0,0,1-31.25,2.58l-.22,0-1.31,1.22-1.36,1.15-2.73,2.32C739,761.91,737.24,763.5,735.32,764.92Zm17.24,12.47,5.9-5c1.94-1.73,3.83-3.55,5.76-5.34-2.7.19-5.38.35-8,.47s-5.34.11-8,.12-5.23,0-7.81-.1-5.21-.28-7.76-.47h-.1c-3.72,3-7.72,5.59-11.62,8.34,2.53.33,5.1.63,7.69.9s5.27.56,7.87.68,5.27.26,8,.35l4.06.11C749.87,777.43,751.21,777.41,752.56,777.39Z"/><path class="cls-1" d="M675.91,778.54a6.14,6.14,0,0,1,7.91,3,5.9,5.9,0,0,1-3.44,7.83,6.08,6.08,0,0,1-8-3.27A5.94,5.94,0,0,1,675.91,778.54Zm.87,2a3.66,3.66,0,1,0,2.73,6.79,3.48,3.48,0,0,0,2.1-4.79A3.64,3.64,0,0,0,676.78,780.58Z"/><path class="cls-1" d="M695.86,775.61a6,6,0,0,0,8.33,2.19l.23-.14-1.13-1.92c-.08,0-.14.1-.23.15-4.5,2.44-7.78-4-3.59-6.4l.11,0-1.13-1.93-.11.06A6,6,0,0,0,695.86,775.61Z"/><path class="cls-1" d="M639.64,742.83c2.45-.58,5.16,1.3,6.12,4.46s-.42,6.19-3.09,6.89a4.38,4.38,0,0,1-2,.05,4.94,4.94,0,0,1-1.83-.89,6.9,6.9,0,0,1-2-8.07,5.07,5.07,0,0,1,1.13-1.52A4,4,0,0,1,639.64,742.83Zm.6,2.14a2.6,2.6,0,0,0-1.76,1.68,4.72,4.72,0,0,0,1.18,4.85,2.57,2.57,0,0,0,2.42.54C645.94,751,643.85,744.12,640.24,745Z"/><path class="cls-1" d="M657.91,736.7c2.36-.84,5.26.57,6.63,3.6a6.38,6.38,0,0,1,.4,4.36,4.84,4.84,0,0,1-.93,1.77,3.5,3.5,0,0,1-1.61,1.14c-2.58.94-5.57-.73-6.69-3.78S655.57,737.62,657.91,736.7Zm.87,2c-3.44,1.35-1,8.14,2.76,6.78a2.45,2.45,0,0,0,1.62-1.86,4.35,4.35,0,0,0-.32-2.59C662.11,739.39,660.54,738.14,658.78,738.75Z"/><path class="cls-1" d="M674,735.61c1.54,2.92,4.71,4.17,7.11,2.86l.18-.12-1.13-1.92-.17.12c-3.5,1.89-6.83-4.53-3.63-6.38l.1,0-1.14-1.92-.08,0C673,729.51,672.47,732.73,674,735.61Z"/><path class="cls-1" d="M572.5,785.36q3.82-2.94,7.41-5.92c1.19-1,2.37-2,3.53-3.07s2.31-2.1,3.43-3.15a170,170,0,0,0,12.5-13.07,1.12,1.12,0,0,1,.56-.38h-.07s.06-.1,0-.1,0-.14,0-.14,0-.15,0-.15h0v.42a1.1,1.1,0,0,1,.49.37A170,170,0,0,0,613,773.23q1.68,1.57,3.42,3.15c1.16,1,2.35,2.11,3.54,3.08q3.57,3,7.4,5.92a1.12,1.12,0,0,1,.25,1.54q-2.86,3.78-6,7.59c-1,1.29-2.09,2.49-3.17,3.7s-2.18,2.44-3.29,3.66A201.09,201.09,0,0,1,600.77,816a2.12,2.12,0,0,1-.77.34,2.33,2.33,0,0,1-.86-.34,201.54,201.54,0,0,1-14.43-14.16q-1.68-1.83-3.3-3.65c-1.08-1.22-2.14-2.43-3.17-3.72q-3.11-3.79-6-7.58A1.14,1.14,0,0,1,572.5,785.36Zm4,1.29c3.39,4.49,7.07,8.62,11,12.89,2,2.17,4,4.14,6,6.18s4.22,4,6.42,6.07c2.21-2,4.34-4,6.42-6.07s4.08-4,6-6.17c3.89-4.27,7.55-8.39,10.94-12.89-4.36-3.34-8.51-7.11-12.4-10.75-1.94-1.78-3.83-3.78-5.67-5.69s-3.6-3.86-5.32-5.78c-1.71,1.92-3.49,3.85-5.33,5.77s-3.73,3.91-5.68,5.69C585.05,779.54,580.89,783.3,576.52,786.65Z"/><path class="cls-1" d="M519.45,789.35A5.92,5.92,0,0,1,516,781.5a6.14,6.14,0,0,1,7.91-3,6,6,0,0,1,3.53,7.6A6.11,6.11,0,0,1,519.45,789.35Zm.87-2.05a3.66,3.66,0,1,0-2.1-4.79A3.49,3.49,0,0,0,520.32,787.3Z"/><path class="cls-1" d="M504,775.53a6,6,0,0,0-2.4-8h0l-1.13,1.93a.14.14,0,0,1,.07,0,3.67,3.67,0,1,1-3.63,6.37.55.55,0,0,1-.15-.1l-1.13,1.92.15.1A5.91,5.91,0,0,0,504,775.53Z"/><path class="cls-1" d="M557.19,754.14c-2.66-.7-4-3.78-3.08-6.88s3.68-5,6.12-4.47c2.4.76,3.84,3.53,3.1,6.77a6.5,6.5,0,0,1-2.34,3.75A4.29,4.29,0,0,1,557.19,754.14Zm.59-2.14a2.61,2.61,0,0,0,2.42-.53,4.7,4.7,0,0,0,1.19-4.86,2.61,2.61,0,0,0-1.75-1.68C556,744.08,553.92,751,557.78,752Z"/><path class="cls-1" d="M537.46,747.52c-2.56-1-3.46-4.33-2.13-7.27s4.28-4.46,6.63-3.59,3.35,4,2.2,7.08S540,748.46,537.46,747.52Zm.87-2c3.75,1.36,6.21-5.43,2.76-6.78-1.75-.62-3.33.64-4.06,2.33S536.47,744.78,538.33,745.48Z"/><path class="cls-1" d="M525.9,735.55c1.51-2.88,1-6.08-1.18-7.33h0l-1.14,1.92a.14.14,0,0,1,.07,0c3.2,1.84-.16,8.25-3.66,6.36l-.11-.09-1.13,1.92a.49.49,0,0,0,.11.08C521.25,739.74,524.36,738.47,525.9,735.55Z"/><path class="cls-1" d="M600,798.65a2.11,2.11,0,0,1-.8-.34c-3.28-3.23-6.39-6.44-9.36-9.69a1.12,1.12,0,0,1,.09-1.56c3.28-3,6.41-6.13,9.38-9.2a1.13,1.13,0,0,1,.61-.38l-.08,0s.07-.09.06-.09,0-.15,0-.15.06-.14.06-.14h0v.42a1.22,1.22,0,0,1,.54.37c3,3.06,6.11,6.15,9.38,9.2a1.13,1.13,0,0,1,.11,1.56c-3,3.24-6,6.46-9.32,9.69A2,2,0,0,1,600,798.65Zm0-2.71c2.69-2.67,5.2-5.35,7.69-8-2.69-2.54-5.22-5.08-7.7-7.63-2.48,2.54-5.06,5.09-7.75,7.62C594.7,790.59,597.27,793.26,600,795.94Z"/><path class="cls-1" d="M484.26,802.52c1.11.61,2.21,1.26,3.35,1.86l3.47,1.76c2.35,1.16,4.7,2.4,7.15,3.54-3.37-7.37-6-14.37-8.64-21.86l1.6-2.71q1.1,3.28,2.26,6.6c.78,2.19,1.64,4.32,2.5,6.5s1.78,4.35,2.72,6.55,2,4.3,3.05,6.48c2.35,1,4.7,2.12,7.13,3.11l7.41,2.87c-1.33-2.33-2.61-4.64-3.84-7-.61-1.16-1.23-2.28-1.81-3.46l-1.7-3.54c-2.22-4.7-4.3-9.29-6.09-14.07,0-.05,0-.08,0-.12l-5.41-2.74-5.21-2.94,1.12-1.91,3.35,1.89,1.69,1,1.72.87,6.93,3.5c2.35,1.11,4.74,2.14,7.12,3.21,1.19.51,2.37,1.09,3.59,1.55l3.65,1.43c4.84,2,9.85,3.57,14.82,5.23,2.51.75,5,1.43,7.56,2.15,1.27.33,2.51.74,3.79,1l3.83.88c-1.45-2.11-2.88-4.14-4.23-6.29s-2.65-4.3-3.9-6.43c-2.54-4.2-4.79-8.66-6.88-13A193,193,0,0,1,503.8,763.7l1.13-1.92,3.4,1.93c.1-.06.13-.16.26-.19,4.64-1.39,9.21-3,13.57-4.52,4.46-1.74,8.71-3.45,12.85-5.39-1.73-.67-3.39-1.5-5.1-2.23s-3.4-1.48-5-2.36c0,0,0,.06-.08.08-2.49,1-5.14,1.84-7.8,2.73s-5.22,1.61-7.68,2.52l1.57-2.67c1.82-.68,3.77-1.28,5.72-1.88s4-1.3,5.87-2l-2.55-1.29c-1.55-.8-3.17-1.75-4.54-2.48l1.15-2c1.34.74,2.71,1.55,4.12,2.33l4.34,2.18c1.08.53,2.12,1.12,3.21,1.59l3.26,1.45,3.25,1.46c1.1.46,2.22.87,3.34,1.31l.07,0c4.13,1.71,8.4,3.06,12.65,4.46l6.47,1.82c1.07.33,2.17.53,3.26.79l3.27.75a155.46,155.46,0,0,0,19.77-17.46,139.93,139.93,0,0,1-24.63-4.85A150.19,150.19,0,0,1,535.52,729l-4.34-2.18c-.73-.34-1.43-.75-2.13-1.16l-2.15-1.22,1.35-2.29c1.19.65,2.37,1.36,3.59,2l3.79,1.9,1.92,1c.66.31,1.33.58,2,.88l4.05,1.81a145.65,145.65,0,0,0,17.54,6,145.9,145.9,0,0,0,77.79,0,145.07,145.07,0,0,0,17.54-6l4-1.8c.67-.31,1.35-.57,2-.89l1.92-1,3.76-1.88c1.22-.67,2.39-1.36,3.57-2l1.35,2.29L671,725.7c-.71.41-1.43.82-2.18,1.17l-4.41,2.22A149.84,149.84,0,0,1,641,738a141.37,141.37,0,0,1-24.63,4.83,156.1,156.1,0,0,0,19.75,17.47c2.18-.52,4.38-.95,6.54-1.53l6.47-1.82c4.25-1.39,8.52-2.74,12.65-4.44l.08,0,3.34-1.31,3.28-1.47,3.28-1.46c1.11-.47,2.15-1.07,3.22-1.59l4.32-2.18c1.42-.77,2.8-1.59,4.21-2.37l1.15,2c-1.55.83-3,1.72-4.6,2.51l-2.52,1.27c1.89.7,3.83,1.43,5.76,2.06s3.88,1.22,5.86,1.8l1.57,2.67c-2.68-.79-5.28-1.52-7.89-2.42s-5.16-1.84-7.66-2.8a.6.6,0,0,1-.11-.06c-1.64.89-3.36,1.59-5,2.36l-2.55,1.13c-.84.39-1.69.78-2.56,1.09l1.56.75,1.57.68,3.17,1.35q3.2,1.34,6.54,2.62c4.36,1.57,8.92,3.14,13.56,4.54a1.27,1.27,0,0,1,.33.16l3.47-2,1.13,1.92a193.81,193.81,0,0,1-32.64,14.8c-2.09,4.31-4.34,8.76-6.86,13-1.25,2.14-2.55,4.28-3.89,6.44s-2.77,4.17-4.22,6.28c2.55-.58,5.1-1.14,7.6-1.89s5-1.4,7.54-2.13c4.95-1.66,9.94-3.23,14.76-5.21,2.44-1,4.88-1.87,7.24-3s4.77-2.11,7.13-3.21l7-3.52,1.74-.88,1.7-1,3.4-1.92,1.12,1.91c-1.76,1-3.51,2-5.29,3l-5.42,2.74a.7.7,0,0,1,0,.14c-1.8,4.79-3.89,9.37-6.13,14.08l-1.71,3.54c-.59,1.17-1.2,2.31-1.82,3.46-1.24,2.31-2.53,4.63-3.85,7l7.41-2.88c2.43-1,4.78-2.07,7.13-3.09,1.06-2.18,2.12-4.3,3.09-6.5s1.9-4.4,2.79-6.59,1.77-4.32,2.57-6.52,1.55-4.42,2.27-6.61l1.6,2.71a206.9,206.9,0,0,1-8.83,21.94c2.45-1.12,4.81-2.37,7.15-3.53l3.48-1.76c1.14-.58,2.24-1.24,3.34-1.85l1.4-3.69,2.64,4.48-3.53,2c-1.17.66-2.35,1.32-3.56,1.91L705.28,811a243.15,243.15,0,0,1-210.75-.1l-7.1-3.57c-1.18-.58-2.33-1.23-3.49-1.88l-3.53-2,2.64-4.48C483.55,800.19,483.79,801.29,484.26,802.52ZM600,832.07h0Zm80.79-35.57c-1.12,2.26-2.29,4.53-3.49,6.82l-.92,1.71-1,1.67L673.48,810q-2,3.36-4.11,6.73c-1.42,2.22-2.92,4.37-4.44,6.57,5.15-1.35,10.11-3.08,15-4.71.71-1.12,1.38-2.29,2-3.46l1.94-3.49q1.91-3.49,3.69-6.93c2.31-4.73,4.44-9.4,6.38-14.06-2.16,1-4.36,2-6.54,3l-3.29,1.45c-1.1.46-2.23.88-3.34,1.32Zm-16.92,6.09c-2.62,4.23-5.4,8.57-8.39,12.8q-2.26,3.12-4.66,6.26c-1.6,2.06-3.23,4.23-4.94,6.21,1.3-.21,2.59-.49,3.88-.79l3.85-.87c2.56-.6,5.12-1.11,7.62-1.84a204,204,0,0,0,16.34-26.68l-3.36,1.3-3.41,1.15L664,802.4A.82.82,0,0,1,663.87,802.59Zm-17.19,4.29a206.29,206.29,0,0,1-20.16,23.9l7.83-1c1.3-.15,2.59-.37,3.88-.6l3.87-.67c1.74-2,3.45-4,5.09-6.11s3.23-4.21,4.78-6.3l2.28-3.14c.75-1,1.49-2.09,2.2-3.18,1.44-2.16,2.83-4.32,4.17-6.46l-6.93,1.93Zm5.52-48.62,5.53,3.28,2.83,1.66,2.84,1.59L675,771.32a1,1,0,0,1,.33.27l6.86-3.06,6.71-3.38c-4.73-1.54-9.24-3-13.74-4.81q-3.35-1.32-6.56-2.69c-2.14-.91-4.3-2-6.38-3l-2.48,1c-.83.33-1.66.67-2.51.93ZM638.46,762c1.85,1.32,3.76,2.69,5.69,4s3.9,2.46,5.92,3.68c4,2.5,8.2,4.67,12.55,6.84l2.61-.87c.86-.32,1.71-.66,2.57-1l5.12-2-11.82-6.7c-3.9-2.3-7.67-4.47-11.36-6.74l-.12-.1C645.91,760.1,642.23,761.24,638.46,762Zm-36.55-18.34A164.93,164.93,0,0,0,645.17,782a1.14,1.14,0,0,1,.37,1.52,198.91,198.91,0,0,1-42.22,48.69c3.23-.09,6.46-.13,9.7-.3l9.69-.72c1-1,2-2,3-3.08l3-3.14c1.95-2.1,3.85-4.18,5.69-6.28s3.61-4.35,5.33-6.52,3.4-4.28,5-6.56a1,1,0,0,1,.36-.51c1.57-2.21,3.08-4.41,4.55-6.6.73-1.11,1.45-2.17,2.15-3.3l2.05-3.39q2-3.39,3.87-6.73c1.24-2.23,2.38-4.58,3.5-6.84-2.35-1.2-4.61-2.32-6.88-3.62s-4.48-2.6-6.63-3.92l-3.2-2c-1.06-.69-2.12-1.41-3.15-2.12q-3.12-2.15-6.07-4.32l-1.46-1.08L632.37,760l-2.86-2.32q-2.82-2.33-5.47-4.66t-5.19-5l-2.48-2.48-1.2-1.24-1.2-1.3-6,.45C605.94,743.59,603.92,743.6,601.91,743.67Zm-1.93.54a165.91,165.91,0,0,1-43.24,39A199.29,199.29,0,0,0,600,832a198.89,198.89,0,0,0,43.18-48.79A165.53,165.53,0,0,1,600,744.21Zm-75.18,27c7.89-4.44,15.57-8.61,22.86-13l-5.07-1.7c-1.69-.56-3.33-1.27-5-1.9-2.08,1-4.24,2.08-6.38,3s-4.34,1.81-6.57,2.69l-3.38,1.31c-1.13.42-2.25.79-3.4,1.19-2.28.78-4.6,1.54-7,2.3l6.7,3.38,6.86,3.06A1.49,1.49,0,0,1,524.8,771.25Zm12.43,5.18c4.34-2.18,8.49-4.34,12.55-6.83,2-1.22,4-2.44,5.92-3.68s3.85-2.62,5.7-3.94c-3.78-.77-7.45-1.93-11.17-2.94a1.27,1.27,0,0,1-.12.1c-3.68,2.25-7.46,4.44-11.36,6.73l-11.83,6.69,5.13,2,2.56,1Zm17.49,28.62a1,1,0,0,1,.36.51c1.59,2.28,3.27,4.39,5,6.6s3.49,4.39,5.32,6.58,3.73,4.21,5.68,6.3,4,4.19,6,6.13l9.69.72c3.23.19,6.46.21,9.69.3a193.09,193.09,0,0,1-42.18-48.72,1.13,1.13,0,0,1,.38-1.52A171.12,171.12,0,0,0,598,743.67c-2-.07-4-.07-6-.17l-6-.45c-.79.9-1.59,1.75-2.41,2.58L581,748.14c-1.68,1.67-3.42,3.34-5.2,5s-3.6,3.12-5.48,4.67-3.83,3.14-5.79,4.53-4,2.87-6.06,4.29c-1,.7-2.1,1.43-3.15,2.1l-3.2,2q-3.24,1.95-6.63,3.89c-2.26,1.27-4.53,2.4-6.88,3.59,1.11,2.27,2.26,4.61,3.49,6.86s2.53,4.47,3.87,6.72C548.64,796.33,551.59,800.6,554.72,805.05Zm-15.53-1.76q2,3.21,4.18,6.42l1.09,1.6,1.11,1.55,2.29,3.11q2.32,3.1,4.78,6.28c1.63,2.11,3.33,4.13,5.06,6.24l3.86.68c1.29.22,2.58.46,3.89.6l7.82,1a240.63,240.63,0,0,1-20.14-23.93l-7-1.6Zm-16.94-5.68c2.27,4.61,4.86,8.91,7.57,13.37l2.07,3.36c.72,1.09,1.44,2.18,2.17,3.27l4.51,6.69c2.5.74,5.06,1.26,7.62,1.86L550,827c1.28.29,2.57.59,3.88.8l-1.26-1.57-1.23-1.61L549,821.46c-1.59-2.11-3.14-4.18-4.65-6.24-3-4.2-5.8-8.45-8.41-12.68a1.86,1.86,0,0,1-.1-.2L529,800.07c-1.14-.39-2.28-.76-3.41-1.16Zm-2.39,20.94c4.9,1.63,9.86,3.38,15,4.72-1.52-2.2-3-4.34-4.44-6.57s-2.78-4.5-4.1-6.73c-2.67-4.39-5.06-9-7.29-13.53a.42.42,0,0,1,0-.1c-1.11-.44-2.24-.85-3.34-1.32l-3.28-1.46c-2.18-1-4.39-1.92-6.54-3,1.93,4.67,4.07,9.32,6.37,14.06C514.58,809.24,517.1,814,519.86,818.55Z"/><path class="cls-1" d="M480.6,753.8a6.86,6.86,0,0,1,1.53,1.81,5.84,5.84,0,0,1,.79,2.1,5.62,5.62,0,0,1-1.07,4.36,5.8,5.8,0,0,1-4,2.28,6,6,0,0,1-4.62-1.31,5.84,5.84,0,0,1-1.13-8.42A6.21,6.21,0,0,1,480.6,753.8Zm-1.36,1.76c-3.83-2.92-8.62,2.54-4.63,5.72a3.55,3.55,0,0,0,5.25-.57A3.6,3.6,0,0,0,479.24,755.56Z"/><path class="cls-1" d="M493.13,769.33a5.61,5.61,0,0,0-.74,4.49,6.21,6.21,0,0,0,2.94,3.71l.25.13,1.13-1.92c-.08,0-.16-.07-.25-.12-4.41-2.59-.36-8.6,3.86-6.25l.1.08,1.13-1.93-.11-.07a6.52,6.52,0,0,0-4.57-.66A5.81,5.81,0,0,0,493.13,769.33Z"/><path class="cls-1" d="M493.91,705.11c1.76,1.78,1.48,5-.83,7.41s-5.68,2.75-7.66.85-1.44-5.36,1-7.55S492.11,703.37,493.91,705.11Zm-1.59,1.58c-1.34-1.28-3.29-.75-4.65.49s-2.05,3.21-.66,4.62C489.86,714.56,494.91,709.32,492.32,706.69Z"/><path class="cls-1" d="M508.52,717.61a4,4,0,0,1,1.09,1.49,4.52,4.52,0,0,1,.43,1.84,7,7,0,0,1-5.05,6.65,5,5,0,0,1-2,.1,4.21,4.21,0,0,1-1.78-.83c-2.14-1.72-2.17-5.09,0-7.57S506.53,716.08,508.52,717.61Zm-1.37,1.76c-2.93-2.24-7.7,3.24-4.6,5.73,1.52,1.26,3.44.37,4.55-1.08S508.55,720.59,507.15,719.37Z"/><path class="cls-1" d="M517.52,730.76a6.48,6.48,0,0,0-1.07,4.28,4.34,4.34,0,0,0,2.08,3.22l.2.09,1.13-1.92a1.11,1.11,0,0,1-.19-.09c-3.43-2,.58-8.05,3.82-6.26l.07.06,1.14-1.92-.08-.06a4.47,4.47,0,0,0-3.71-.16A6.77,6.77,0,0,0,517.52,730.76Z"/><path class="cls-1" d="M422.85,669.29c1.48.6,2.95,1.19,4.42,1.75s3,1.08,4.49,1.6c3,1,5.95,2,8.9,2.84a172.88,172.88,0,0,0,17.84,4,1.11,1.11,0,0,1,.63.27l0-.07h.11l0,0,0,0h0l-.08,0,0,0a1.17,1.17,0,0,1-.1.61q-.78,2.07-1.53,4.2c-.46,1.41-.9,2.81-1.34,4.24-.85,2.85-1.72,5.81-2.45,8.76s-1.35,5.94-2,9l-.44,2.31-.37,2.29c-.24,1.54-.46,3.09-.68,4.65a1.15,1.15,0,0,1-1.23,1c-1.6-.17-3.21-.35-4.84-.55l-2.44-.32-2.4-.38c-3.21-.53-6.47-1.12-9.76-1.78s-6.48-1.49-9.79-2.34c-1.64-.42-3.3-.87-5-1.33s-3.25-1-4.89-1.54a2,2,0,0,1-.66-.49,2.34,2.34,0,0,1-.16-.9A197.78,197.78,0,0,1,414.33,688c1.06-3.14,2.18-6.22,3.32-9.22.59-1.51,1.13-3,1.77-4.46s1.29-3,1.95-4.41A1.17,1.17,0,0,1,422.85,669.29Zm.8,4.09c-1,2.53-2.06,5.11-3.06,7.74l-1.46,4c-.47,1.33-.88,2.66-1.31,4-.85,2.7-1.67,5.46-2.46,8.26s-1.4,5.59-2.05,8.47c5.61,1.83,11.4,3.23,17,4.49,2.76.64,5.67,1.12,8.45,1.6s5.55.92,8.36,1.26c.4-2.71.95-5.45,1.48-8.1s1.07-5.23,1.8-7.86c1.38-5.21,2.81-10.17,4.65-15.11-2.57-.48-5.25-1-7.84-1.58s-5.17-1.29-7.81-2c-1.31-.36-2.65-.73-4-1.13l-3.88-1.27Q427.63,674.86,423.65,673.38Z"/><path class="cls-1" d="M392.88,626.12a6.19,6.19,0,0,1,1.12-4.58,5.79,5.79,0,0,1,4-2.25,6,6,0,0,1,4.38,1.29,6.25,6.25,0,0,1,2.32,3.93,6.13,6.13,0,0,1-5,6.8,5.72,5.72,0,0,1-4.46-1.09A6.26,6.26,0,0,1,392.88,626.12Zm2.24-.28c.73,5,7.94,3.67,7.35-1.06C401.7,620.07,394.39,620.84,395.12,625.84Z"/><path class="cls-1" d="M397.33,606.07a5.89,5.89,0,0,0,5.75-6s0,0,0,0h-2.26a.21.21,0,0,1,0,.08c.1,4.76-7.23,5.14-7.43.1a.83.83,0,0,1,0-.18h-2.27a.93.93,0,0,0,0,.18A5.94,5.94,0,0,0,397.33,606.07Z"/><path class="cls-1" d="M442.7,640.69c-.74-2.61,1.41-5.33,4.6-6.07s6.19.64,6.92,3-1.19,5-4.39,6S443.51,643.28,442.7,640.69Zm2.18-.56c1.18,3.75,8.16,1.55,7.16-2-.56-1.75-2.53-2.21-4.34-1.76S444.32,638.26,444.88,640.13Z"/><path class="cls-1" d="M438.76,620.57c-.4-2.69,1.95-5.11,5.27-5.44s6.13,1.41,6.56,3.84a4.22,4.22,0,0,1-1.28,3.43,7,7,0,0,1-3.93,2,6.72,6.72,0,0,1-4.41-.69A4.41,4.41,0,0,1,438.76,620.57Zm2.23-.28c.58,3.88,7.8,2.59,7.37-1C447.72,615.65,440.41,616.4,441,620.29Z"/><path class="cls-1" d="M443.54,604.71c3.34-.15,5.83-2.19,5.77-4.68,0,0,0,0,0,0H447l0,.06c.08,3.67-7.24,4-7.44.08a.49.49,0,0,1,0-.14h-2.26a1.13,1.13,0,0,0,0,.14C437.5,602.85,440.23,604.86,443.54,604.71Z"/><path class="cls-1" d="M424.91,699.32a1.87,1.87,0,0,1-.12-.84c.57-2.19,1.15-4.33,1.78-6.46s1.37-4.27,2.08-6.36a1.18,1.18,0,0,1,1.43-.71q3.19,1,6.35,1.84c2.15.56,4.31,1.06,6.43,1.54a1.21,1.21,0,0,1,.66.32s0,0,0-.07.12,0,.11,0l0,0,0,0h0l-.08,0,0,0a1.38,1.38,0,0,1-.07.65l-1,3.1c-.32,1-.62,2.1-.88,3.13-.54,2.09-1.06,4.2-1.56,6.35a1.16,1.16,0,0,1-1.32.87c-4.38-.88-8.86-1.81-13.22-3.07A1.73,1.73,0,0,1,424.91,699.32Zm2.37-1.39c1.82.5,3.62,1,5.41,1.39s3.66.78,5.47,1.16c.43-1.77.86-3.49,1.34-5.22l1.56-5.17c-3.52-.81-7.16-1.67-10.63-2.75C429.21,690.85,428.24,694.32,427.28,697.93Z"/><path class="cls-1" d="M363.64,602.82q.09,3.72.2,7.59c0,1.28.12,2.57.22,3.88s.19,2.62.3,3.94c4.61-6.53,9.79-12,14.84-18.23h3.19c-3.06,3.54-6.11,6.94-9.14,10.58s-5.76,7.42-8.6,11.4c.06.63.1,1.26.16,1.89l.24,1.89c.16,1.27.33,2.54.49,3.82s.34,2.56.51,3.86c.08.64.17,1.29.26,1.94s.23,1.29.34,1.94c1.31-2.28,2.8-4.53,4.24-6.73s2.91-4.37,4.38-6.48l1.11-1.58,1.17-1.56,2.35-3.08q2.36-3.06,4.73-6s.07,0,.1-.06c-.19-4-.23-8.31-.33-11.85h2.25c.06,2.66.12,5,.18,7.59.05,1.27,0,2.54.13,3.82s.19,2.54.28,3.81l.3,3.83c.09,1.28.18,2.56.36,3.83.33,2.54.66,5.1,1,7.65.14,1.28.39,2.54.62,3.81l.68,3.81.69,3.81c.27,1.26.58,2.52.86,3.77.6,2.51,1.14,5,1.81,7.53l2.13,7.43a184.61,184.61,0,0,1,15.2-25.6,189.23,189.23,0,0,1-3.3-35.09h2.26c0,.89.06,2.55.09,3.86.1,0,.2,0,.3.12q2.67,2.44,5.31,4.77c1.79,1.55,3.67,3,5.49,4.52s3.65,2.89,5.46,4.27,3.8,2.7,5.69,4l-.35-2.72c-.12-.91-.26-1.81-.3-2.73-.14-1.82-.28-3.65-.41-5.48,0,0-.07,0-.11,0-2.19-1.64-4.21-3.46-6.26-5.28s-4.12-3.64-6.17-5.28h3.14c3.07,2.42,6.16,5.42,9.23,7.94l-.07-2.83c0-1.72-.11-3.58-.18-5.11H433c0,1.51.08,3.09.12,4.68,0,.8,0,1.6.05,2.4s0,1.61.11,2.4c.18,2.36.35,4.7.53,7s.58,4.65.88,7c0,0,0,.06,0,.08a171,171,0,0,0,5.89,25.76c2.13.86,4.24,1.67,6.34,2.45s4.12,1.52,6.29,2.17,4.25,1.29,6.34,1.87l3.13.85c1,.27,2.13.5,3.19.74a143.45,143.45,0,0,1-8-23.36l-.7-3c-.23-1-.52-2-.67-3L455.39,622l-.79-6.14c-.16-1-.21-2.05-.29-3.08l-.24-3.09c-.06-.81-.14-1.61-.18-2.41s0-1.59-.05-2.39c0-1.6-.09-3.2-.14-4.86h2.7a145.63,145.63,0,0,0,4.43,34.91,139.84,139.84,0,0,0,14.81,35.58c1.55,2.85,3.48,5.51,5.21,8.28l2.89,4c.49.66.93,1.35,1.45,2l1.54,1.91,1.53,1.91c.5.64,1,1.29,1.56,1.88,1.07,1.23,2.15,2.44,3.22,3.66.52.62,1.09,1.2,1.65,1.77l1.69,1.73c1.12,1.15,2.2,2.33,3.39,3.38l3.46,3.25c1.18,1,2.39,2,3.56,3l1.75,1.51c.6.48,1.22.93,1.82,1.4l3.57,2.77a150.45,150.45,0,0,0,14.32,9.25l-1.35,2.29c-2.92-1.54-5.63-3.42-8.44-5.12a149.12,149.12,0,0,1-36.25-34.12c-.33,1-.63,2.06-.9,3.07l-.83,3.09q-.81,3.14-1.54,6.36c-.85,4.22-1.62,8.6-2.21,13.06a167.41,167.41,0,0,0,19.77,18l.06,0L499.4,731c.93.76,2,1.38,2.92,2.08l2.94,2,1.48,1,1.52,1,4.09,2.57,1,.64,1.06.59,2.1,1.19-1.15,2c-1.51-.9-3.06-1.72-4.51-2.68l-2.38-1.5c.32,2,.67,3.93,1.05,5.93s.87,3.91,1.34,5.89l-1.57,2.67c-1.37-5.24-2.35-10.66-3.16-15.83a.62.62,0,0,1,0-.13c-1.57-1-3.06-2.1-4.59-3.14s-3.07-2.1-4.51-3.26c.09,1.13.17,2.28.28,3.41l.41,3.36q.42,3.39,1,6.85c.17,1.17.37,2.31.59,3.44l.67,3.43q.71,3.45,1.48,7a1.11,1.11,0,0,1,0,.36l3.48,1.95-1.13,1.92a193.34,193.34,0,0,1-29.33-20.41q-3.66.3-7.41.5t-7.45.14c-2.5,0-5.09,0-7.6-.09s-5.08-.25-7.66-.42a204.12,204.12,0,0,0,23.07,20.79l3.08,2.37c1,.8,2.05,1.59,3.13,2.32l6.4,4.45c2.15,1.44,4.38,2.78,6.58,4.18,1.1.67,2.18,1.4,3.32,2l3.39,1.92-1.12,1.91-2.65-1.49-1.32-.75-1.28-.8-5.14-3.22-.14,0-3.84.59-3.83.45c-2.56.29-5.17.55-7.81.78s-5.25.35-7.91.47-5.35.18-8.07.22c4.21,3.25,8.28,6.52,12.51,9.37,2.45-.18,4.88-.38,7.27-.61s4.83-.59,7.2-.91,4.72-.69,7-1.07,4.67-.88,7-1.36l-1.6,2.71q-2.88.58-5.83,1.13c-1.95.33-3.89.61-5.87.89s-4,.54-6,.78l-3,.36-3,.26c2.18,1.57,4.47,2.92,6.67,4.33l3.29,2.07,1.63,1,1.65,1,4-.67-2.64,4.48c-4.74-2.57-9.24-5.55-13.78-8.4A238,238,0,0,1,393,717.48c-1.13-1.93-2.27-3.85-3.37-5.8l-3.11-5.95c-2.14-3.94-3.92-8.06-5.81-12.12-1-2-1.77-4.12-2.62-6.2l-2.49-6.25c-.78-2.11-1.49-4.23-2.23-6.35l-1.09-3.19c-.37-1.06-.72-2.12-1-3.2a233.5,233.5,0,0,1-9.76-52.74c-.1-1.32-.21-2.62-.28-3.92s-.07-2.59-.11-3.88Q361,604,360.87,600h5.27C365.3,600.89,364.47,601.8,363.64,602.82Zm31.82,113.24h0Zm71.72,50.88c-2.55.18-5.14.34-7.76.46s-5.17.09-7.81.09-5.33,0-8-.13-5.32-.28-8-.47c1.93,1.8,3.83,3.6,5.76,5.34l5.89,5,4,0,4.06-.1q4-.13,8-.35c2.6-.12,5.28-.41,7.87-.67s5.16-.57,7.69-.9c-3.9-2.74-7.89-5.37-11.61-8.35ZM453.4,755.58c-2.53,0-5.1-.11-7.69-.21-1.3-.06-2.61-.11-3.91-.19l-3.87-.31c-5.18-.47-10.54-1-15.77-1.9.86,1,1.73,2,2.6,2.93s1.8,1.89,2.69,2.82l5.42,5.56c5.46.42,10.75.76,16,.85q4,0,7.88,0c2.6-.05,5.15-.11,7.75-.3-1.92-1.42-3.69-3-5.52-4.54l-2.72-2.32-1.36-1.16-1.31-1.22A.78.78,0,0,1,453.4,755.58ZM441,743.17c-5.1-.47-10.22-1.16-15.48-1.95s-10.41-1.93-15.66-3.19c1.54,2.09,3.21,4.09,4.82,6.13l2.43,3c.81,1,1.69,1.95,2.54,2.93,5.36.89,10.56,1.69,15.87,2.15q3.94.38,7.8.65c2.59.17,5.22.23,7.78.3C447.56,750,444.31,746.57,441,743.17Zm45.61-19.65c-.07,4.15-.14,8.47-.15,12.8s.07,8.69.05,13.18a1.16,1.16,0,0,1-.07.42l6.15,4.28c1,.73,2.08,1.37,3.14,2l3.17,2c-.51-2.38-1-4.73-1.45-7.05s-.8-4.73-1.15-7-.66-4.62-.92-6.92-.4-4.65-.54-6.93l-2.12-1.62c-.71-.53-1.36-1.14-2.05-1.71Zm-10.2-9.83q-.35,3.34-.6,6.81c-.1,1.16-.15,2.3-.19,3.43l-.1,3.45c0,2.32-.07,4.66,0,7s.17,4.67.3,7.05l2.09,1.78c.69.59,1.39,1.18,2.13,1.72l4.34,3.34c0-9.06-.07-17.88.27-26.45a1,1,0,0,0,0-.16l-4.2-3.91Zm-2.17-40.26c-.94,2.13-1.7,4.21-2.5,6.37s-1.55,4.36-2.29,6.61-1.3,4.45-1.92,6.74-1.24,4.65-1.69,7-.95,4.69-1.37,7.1c-.21,1.2-.44,2.44-.6,3.63l-.47,3.62q-.45,3.66-.8,7.43c-.2,2.49-.31,5-.41,7.5a1.17,1.17,0,0,1-1.15,1.09c-2.57,0-5.21-.09-7.81-.23s-5.2-.37-7.84-.61c-5.35-.43-10.55-1.26-16-2.16-2.73-.43-5.35-1-8.05-1.6s-5.4-1.24-8.14-1.92-5.37-1.5-8.1-2.32L401,720.36,399,719.7l-2-.71c.78,1.39,1.67,2.72,2.54,4.07l2.63,4c1.71,2.71,3.63,5.28,5.5,7.88a214.07,214.07,0,0,0,33.53,5.91,1,1,0,0,1,.62.06c2.73.22,5.45.39,8.12.52l4,.18,2,.06h2q4,0,7.89-.11c1.3,0,2.58-.07,3.87-.14l3.9-.28-.19-3.82c0-1.29,0-2.59,0-3.87q0-3.84.09-7.57c0-1.23.1-2.49.19-3.75l.28-3.73c.22-2.48.42-4.88.74-7.31a153.16,153.16,0,0,1,6.24-27.8c-1.16-1.6-2.36-3.19-3.4-4.88L475.81,676C475.26,675.13,474.71,674.3,474.24,673.43ZM472.86,672c-2.3-.28-4.66-.58-7-.95s-4.6-.84-6.95-1.32c-4.76-.94-9.31-2.21-14.07-3.61-2.41-.69-4.68-1.49-7-2.33s-4.7-1.71-7.07-2.64-4.62-2-6.95-3l-3.51-1.63c-1.18-.55-2.36-1.12-3.48-1.72-.66,1.14-1.26,2.26-1.84,3.4l-1.76,3.44c-1.16,2.33-2.34,4.71-3.43,7.12s-2.08,4.83-3.08,7.31-2,5-2.86,7.57c-1.73,5.08-3.48,10.41-4.8,15.76-.69,2.7-1.35,5.43-2,8.22s-1.09,5.52-1.59,8.35A201.05,201.05,0,0,0,460,728.31,158.75,158.75,0,0,1,472.86,672Zm-61.37-50.4,5.82,3.36c1.91,1.12,3.76,2.23,5.72,3.31l5.71,3.21c1.9,1.05,3.68,2.1,5.63,3.09-.22-.86-.37-1.72-.52-2.59l-.46-2.59-.47-2.59c-.17-.87-.32-1.73-.41-2.61A186.45,186.45,0,0,1,410,606.74c.05,1.23,0,2.47.13,3.7l.28,3.69c.2,2.46.31,4.93.68,7.37A1.33,1.33,0,0,1,411.49,621.64Zm1.62,13.17a172.65,172.65,0,0,0,24.78,13.37l-1.57-5.46c-.29-.91-.5-1.83-.7-2.75L435,637.2l-.15-.06c-1.92-1-3.91-2-5.84-3.08l-5.77-3.23-5.92-3.33-5.89-3.4c.25,1.79.41,3.59.74,5.37ZM396.58,664a1,1,0,0,1-.26.56c-2.23,4.92-4.58,10.1-6.45,15.34-1,2.63-1.91,5.31-2.81,8s-1.59,5.41-2.31,8.17l2,4.35c.71,1.43,1.46,2.85,2.2,4.27,1.5,2.83,2.89,5.71,4.55,8.44a186.22,186.22,0,0,1,21.89-60.28,1.18,1.18,0,0,1,1.53-.44c4.46,2.41,9.23,4.5,13.8,6.43,2.27,1,4.65,1.86,7,2.69s4.66,1.63,6.95,2.37,4.71,1.38,7,2,4.56,1.21,6.9,1.71,4.64,1,6.9,1.38l3.37.6c1.13.18,2.29.34,3.41.49-1-1.68-1.88-3.47-2.82-5.22l-1.38-2.62-1.22-2.7a160.9,160.9,0,0,1-54.63-22.68c-1.51,2.09-2.83,4.2-4.23,6.38s-2.76,4.4-4.09,6.66-2.52,4.56-3.75,6.9S397.65,661.58,396.58,664Zm-6.19-14.09a236.55,236.55,0,0,0-13,28.34c.41,1.22.88,2.42,1.36,3.62l1.44,3.6c1,2.4,1.89,4.83,3,7.17.77-2.56,1.65-5.11,2.52-7.62s1.73-5,2.6-7.36l.67-1.8.72-1.8,1.46-3.56q1.49-3.53,3-7c-.71-2.25-1.33-4.53-2-6.8l-1-3.4C390.91,652.19,390.67,651,390.39,649.89Zm-3.49-17.25c-2.74,4.2-5.46,8.58-8,13.11-1.23,2.25-2.46,4.56-3.7,6.91s-2.52,4.76-3.66,7.18q1.06,3.69,2.14,7.41l.55,1.87.63,1.84c.42,1.23.84,2.46,1.27,3.69l3.08-7.32c1.1-2.42,2.18-4.78,3.27-7.1s2.15-4.59,3.34-6.84,2.41-4.48,3.66-6.65a1.4,1.4,0,0,1,.13-.18l-.8-3.46c-.25-1.15-.43-2.32-.65-3.48ZM367.32,641l.69,3.76.35,1.89.44,1.89q.88,3.78,1.78,7.6a205.47,205.47,0,0,1,15.8-26.87l.06-.07-.89-7c-.24-2.35-.38-4.7-.57-7.05q-2.37,3-4.74,6.09c-1.56,2.08-3,4.18-4.47,6.34s-2.93,4.36-4.38,6.6S368.67,638.71,367.32,641Z"/><path class="cls-1" d="M404.73,575.33a6.19,6.19,0,0,1-6.71,5.2,5.85,5.85,0,0,1-5.11-6.83,6.25,6.25,0,0,1,2.34-4.1,5.76,5.76,0,0,1,4.47-1.08,5.94,5.94,0,0,1,3.86,2.41A6.1,6.1,0,0,1,404.73,575.33Zm-2.23-.28c.58-4.73-6.63-6.07-7.36-1.07S401.73,579.75,402.5,575.05Z"/><path class="cls-1" d="M397.34,593.75a6,6,0,0,0-6.19,6V600h2.27c0-.09,0-.17,0-.27.21-5,7.53-4.61,7.43.15l0,.12h2.26l0-.12A6,6,0,0,0,397.34,593.75Z"/><path class="cls-1" d="M454.26,562.26c-.74,2.36-3.64,3.75-6.93,3a6.61,6.61,0,0,1-3.77-2.34,4.1,4.1,0,0,1-.82-3.74c.81-2.58,4-3.9,7.13-2.93S454.94,559.87,454.26,562.26Zm-2.18-.56c1-3.51-6-5.71-7.16-2-.58,1.86,1,3.27,2.81,3.71S451.5,563.44,452.08,561.7Z"/><path class="cls-1" d="M450.61,580.9c-.43,2.43-3.27,4.17-6.57,3.84s-5.65-2.76-5.26-5.45a4.36,4.36,0,0,1,2.2-3.13,6.67,6.67,0,0,1,4.43-.69,6.89,6.89,0,0,1,3.91,2A4.23,4.23,0,0,1,450.61,580.9Zm-2.24-.29c.43-3.62-6.78-4.92-7.36-1S447.74,584.22,448.37,580.61Z"/><path class="cls-1" d="M443.54,595.15c-3.31-.15-6,1.93-6.17,4.64V600h2.26a1.41,1.41,0,0,1,0-.21c.19-3.94,7.51-3.55,7.43.12a.29.29,0,0,0,0,.09h2.26v-.09C449.37,597.41,446.88,595.31,443.54,595.15Z"/><path class="cls-1" d="M450.38,484c.21,1.56.43,3.11.67,4.65l.36,2.29.44,2.31q.91,4.6,2,9c.72,2.94,1.6,5.91,2.45,8.75.43,1.43.88,2.84,1.33,4.24s1,2.82,1.53,4.21a1,1,0,0,1,.07.67l.05-.05s.05.1.06.09l0,0,0,0h0l-.07-.05,0,0a1.22,1.22,0,0,1-.58.23,170.41,170.41,0,0,0-17.85,4c-3,.86-5.89,1.82-8.9,2.83-1.49.52-3,1-4.5,1.59s-2.93,1.15-4.41,1.76a1.18,1.18,0,0,1-1.49-.56q-1-2.17-1.95-4.4c-.63-1.49-1.18-3-1.77-4.46-1.14-3-2.27-6.08-3.32-9.21a196.63,196.63,0,0,1-5.18-19.32,1.94,1.94,0,0,1,.11-.82,2.24,2.24,0,0,1,.71-.58c1.64-.52,3.27-1,4.89-1.53s3.32-.91,5-1.34c3.31-.85,6.51-1.67,9.79-2.34s6.56-1.26,9.77-1.79l2.4-.38,2.45-.31c1.63-.2,3.24-.39,4.84-.56A1.17,1.17,0,0,1,450.38,484Zm-3.2,2.73c-2.82.32-5.54.79-8.37,1.25l-4.24.75-2.13.41-2.1.46c-5.58,1.27-11.39,2.68-17,4.51.66,2.87,1.29,5.66,2.05,8.46s1.62,5.55,2.47,8.24c.43,1.35.85,2.68,1.31,4l1.47,4q1.5,3.94,3.06,7.74c2.65-1,5.28-1.91,7.89-2.78l3.88-1.26c1.31-.39,2.65-.76,4-1.12,2.63-.71,5.23-1.38,7.8-2s5.26-1.1,7.84-1.58c-1.84-4.93-3.26-9.9-4.64-15.13l-.51-2-.44-1.95-.83-3.95C448.13,492.14,447.57,489.39,447.18,486.69Z"/><path class="cls-1" d="M473.39,436.85a6.06,6.06,0,0,1,4.62-1.3,5.8,5.8,0,0,1,4,2.28,5.64,5.64,0,0,1,1.06,4.36,6.6,6.6,0,0,1-2.32,3.9,6.21,6.21,0,0,1-8.49-.82A5.85,5.85,0,0,1,473.39,436.85Zm1.36,1.76c-4,3.18.79,8.64,4.62,5.72a3.68,3.68,0,1,0-4.62-5.72Z"/><path class="cls-1" d="M493.28,430.57a5.83,5.83,0,0,0,3.7,2.57,6.28,6.28,0,0,0,4.54-.64l0,0-1.13-1.92-.07.05c-4.21,2.35-8.22-3.68-3.81-6.27l.17-.08-1.13-1.92a.91.91,0,0,0-.17.08,6.09,6.09,0,0,0-2.9,3.69A5.6,5.6,0,0,0,493.28,430.57Z"/><path class="cls-1" d="M485.53,486.54c2-1.91,5.39-1.51,7.65.84s2.58,5.64.83,7.42-5,1.52-7.51-.72S483.61,488.48,485.53,486.54Zm1.58,1.57c-1.39,1.39-.68,3.38.65,4.61s3.3,1.77,4.66.5C495,490.59,490,485.34,487.11,488.11Z"/><path class="cls-1" d="M501.29,473.06a4,4,0,0,1,1.79-.83,5,5,0,0,1,2,.1,6.61,6.61,0,0,1,3.65,2.52,6.55,6.55,0,0,1,1.39,4.13,4.48,4.48,0,0,1-.43,1.84,4.23,4.23,0,0,1-1.09,1.49c-2,1.53-5.22.83-7.38-1.68S499.16,474.77,501.29,473.06Zm1.37,1.76c-3.1,2.49,1.66,8,4.6,5.73,1.4-1.23,1.07-3.19,0-4.65S504.18,473.55,502.66,474.82Z"/><path class="cls-1" d="M517.64,469.17a6.81,6.81,0,0,0,3.35,2.77,4.32,4.32,0,0,0,3.69-.13s0,0,0,0l-1.14-1.92a.11.11,0,0,1,0,.05c-3.24,1.78-7.22-4.27-3.79-6.29a.35.35,0,0,1,.13-.05l-1.13-1.92a.53.53,0,0,0-.13.06,4.23,4.23,0,0,0-2.06,3.19A6.57,6.57,0,0,0,517.64,469.17Z"/><path class="cls-1" d="M424.91,500.68a2,2,0,0,1,.67-.52c4.36-1.25,8.87-2.22,13.24-3.1a1.17,1.17,0,0,1,1.34.86c1,4.3,2,8.43,3.39,12.57a1.17,1.17,0,0,1,.05.73s0,0,0-.07.05.11.05.1l0,0,0,0h0l-.07,0h0a1.64,1.64,0,0,1-.61.27q-3.19.7-6.44,1.53t-6.36,1.84a1.18,1.18,0,0,1-1.43-.69q-1.06-3.14-2.09-6.34c-.63-2.12-1.21-4.26-1.79-6.45A1.82,1.82,0,0,1,424.91,500.68Zm2.4,1.33c1,3.62,2,7,3.17,10.54,3.48-1.08,7.11-1.9,10.62-2.71q-.8-2.56-1.55-5.19c-.47-1.73-.89-3.46-1.32-5.23-1.82.37-3.66.76-5.49,1.18S429.14,501.51,427.31,502Z"/><path class="cls-1" d="M479.27,400.3c-2.22,1.21-4.36,2.65-6.58,4l-3.33,2.11-1.69,1.07L466,408.64c1,.09,2,.17,3,.28l3,.38c2,.27,3.94.56,5.88.85s3.87.6,5.8.94l5.89,1.09,1.6,2.71c-2.3-.47-4.63-1-6.95-1.37s-4.63-.76-7-1.1-4.74-.69-7.14-1-4.78-.46-7.23-.64c-4.23,2.86-8.31,6.11-12.52,9.36q4.08.06,8.06.23c2.66.12,5.25.23,7.9.49s5.23.5,7.8.79l3.82.46,3.84.6s0,.05.1.06l5.13-3.22c.84-.54,1.71-1,2.58-1.53l2.6-1.46,1.12,1.91-3.35,1.9c-1.12.62-2.19,1.34-3.29,2-2.17,1.38-4.38,2.72-6.54,4.15L473.76,431c-.53.37-1.07.73-1.59,1.12l-1.55,1.18-3.09,2.38a205.52,205.52,0,0,0-23.15,20.85c2.58-.18,5.14-.32,7.66-.43s5.12-.1,7.62-.1,5,.05,7.46.13,5,.31,7.41.51A193.85,193.85,0,0,1,503.8,436.3l1.13,1.92-3.41,1.92c0,.11.07.19,0,.31-1,4.73-2,9.28-2.75,13.85-.36,2.32-.69,4.6-1,6.86l-.41,3.37c-.12,1.12-.2,2.28-.29,3.4,1.45-1.16,3-2.18,4.51-3.24l2.28-1.59c.76-.53,1.5-1.08,2.3-1.55,0,0,0-.06,0-.11.8-5.18,2.17-10.8,3.1-15.79l1.57,2.67c-.31,1.89-.76,3.82-1.2,5.8s-.84,4-1.16,6l2.41-1.52c1.45-1,3.12-1.84,4.45-2.64l1.15,2-2,1.15c-.35.19-.7.38-1,.58l-1,.64-4.12,2.58-1.52.95c-.5.32-1,.68-1.47,1l-2.92,2c-1,.69-2,1.32-2.9,2.05l-2.83,2.18a.18.18,0,0,1-.07,0,167.34,167.34,0,0,0-19.78,17.93c.57,4.45,1.36,8.85,2.2,13.06,1,4.33,2,8.46,3.26,12.52a148.66,148.66,0,0,1,36.28-34.07c2.8-1.71,5.37-3.5,8.33-5.06l1.35,2.29a150.76,150.76,0,0,0-14.38,9.3l-3.58,2.77c-.6.47-1.22.92-1.81,1.41l-1.75,1.5c-1.17,1-2.39,2-3.56,3l-3.45,3.24c-1.19,1.05-2.27,2.23-3.38,3.37l-1.68,1.73c-.57.57-1.14,1.15-1.65,1.77l-3.22,3.64c-.56.6-1.05,1.24-1.55,1.88l-1.53,1.91-1.53,1.91c-.52.63-1,1.32-1.45,2l-2.88,4c-1.73,2.77-3.66,5.43-5.21,8.28a139.52,139.52,0,0,0-14.82,35.65A145.79,145.79,0,0,0,456.4,600h-2.7l.14-4.9.05-2.45.19-2.44.24-3.09c.07-1,.13-2.06.3-3.08l.79-6.13,1.11-6.08c.15-1,.45-2,.67-3l.71-3a144.49,144.49,0,0,1,8-23.36c-1.06.24-2.14.48-3.19.74l-3.13.84q-3.14.88-6.34,1.87c-2.17.65-4.19,1.4-6.3,2.17s-4.21,1.59-6.34,2.45a172,172,0,0,0-5.92,25.74.19.19,0,0,1,0,.08l-.88,7-.53,7.08c-.08.79-.11,1.58-.12,2.38l-.05,2.39L433,600h-2.31c.08-1.73.15-3.47.19-5.19l.06-2.78c-3.07,2.51-6.15,5.18-9.23,8h-3.14q3.09-2.84,6.17-5.51c2.05-1.77,4.08-3.49,6.27-5.12a.41.41,0,0,1,.11-.07l.41-5.49c.14-1.83.44-3.64.65-5.46-1.88,1.28-3.78,2.6-5.68,4s-3.64,2.8-5.47,4.27-3.69,3-5.49,4.51-3.53,3.14-5.31,4.77a1.13,1.13,0,0,1-.31.19l-.09,3.94h-2.26a188.72,188.72,0,0,1,3.32-35.17,185.37,185.37,0,0,1-15.21-25.56l-2.13,7.42c-.67,2.48-1.2,5-1.8,7.5l-.86,3.75-.69,3.8-.68,3.79c-.22,1.27-.48,2.53-.62,3.8l-1,7.64c-.18,1.27-.28,2.55-.37,3.83l-.29,3.84-.29,3.83c-.11,1.28-.09,2.57-.14,3.85l-.18,7.68H384.4c.11-4,.13-8,.34-12l-.1-.1q-2.37-2.93-4.73-6c-1.55-2-3.19-4.12-4.62-6.24s-2.93-4.29-4.38-6.5-2.91-4.46-4.22-6.74c-.52,2.59-.77,5.18-1.12,7.74-.17,1.28-.33,2.55-.49,3.81s-.33,2.53-.41,3.78c2.84,4,5.64,7.83,8.58,11.53s6.08,7.25,9.14,10.66H379.2a218.65,218.65,0,0,1-14.83-18.43c-.18,2.64-.45,5.25-.53,7.82s-.13,5.1-.2,7.59l2.5,3h-5.27c.06-2.65.13-5.3.19-8l.12-4,.28-4a233.83,233.83,0,0,1,9.78-52.64,230.68,230.68,0,0,1,21.71-49,237.88,237.88,0,0,1,73.86-77.64c4.54-2.85,8.79-5.67,13.6-8.29l2.64,4.48C481.69,400.87,480.6,400.52,479.27,400.3Zm-83.81,83.64h0ZM386.4,570.5l-2.19-3.15-2-3.21q-2.06-3.24-4.06-6.61c-1.37-2.25-2.6-4.52-3.83-6.83s-2.44-4.68-3.64-7.08q-.9,3.82-1.79,7.6l-.43,1.88-.36,1.9-.69,3.76c1.34,2.33,2.68,4.6,4.06,6.84s2.9,4.45,4.37,6.6,2.92,4.27,4.47,6.35,3.15,4.1,4.74,6.09c.19-2.35.32-4.7.58-7l.89-7Zm3.13-17.42q-1.87-3.27-3.71-6.66c-1.2-2.26-2.29-4.54-3.41-6.87s-2.21-4.7-3.28-7.11-2-4.82-2.94-7.29l-1.26,3.7c-.43,1.22-.85,2.45-1.19,3.7-.72,2.48-1.43,5-2.14,7.42,1.07,2.4,2.32,4.8,3.53,7.15s2.46,4.66,3.71,6.92c.61,1.13,1.28,2.26,2,3.38l2,3.32c1.36,2.19,2.73,4.33,4.11,6.44l1.25-7c.22-1.16.4-2.33.66-3.48l.8-3.46Zm4.71-16.79q-1.56-3.42-3.08-7c-1-2.36-2.05-4.79-2.9-7.19s-1.76-4.88-2.61-7.38L384.39,511c-.41-1.27-.76-2.52-1.13-3.8-1.12,2.35-2.05,4.77-3,7.17L378.8,518c-.48,1.2-1,2.39-1.37,3.62.95,2.51,1.93,5,2.92,7.41s2,4.81,3.12,7.2,2.23,4.69,3.37,7c.57,1.14,1.14,2.27,1.73,3.4l1.86,3.36c.28-1.14.52-2.3.84-3.44l1-3.4C392.91,540.82,393.52,538.54,394.24,536.29Zm40.16,29c-1.94,1-3.74,2-5.63,3.08l-5.71,3.21c-2,1.08-3.83,2.18-5.73,3.3l-5.82,3.35a1.36,1.36,0,0,1-.41.15c-.37,2.44-.49,4.91-.69,7.37s-.41,4.92-.42,7.39l2.7-2.42c.92-.8,1.87-1.58,2.8-2.35q2.81-2.33,5.59-4.52c1.81-1.47,3.77-2.88,5.69-4.24s3.85-2.68,5.76-4c.08-.87.26-1.74.41-2.6l.47-2.59.46-2.6.23-1.29Zm3.53-13.58A173.67,173.67,0,0,0,413.14,565l-1,5.34c-.18.89-.3,1.78-.41,2.68l-.34,2.69,5.89-3.4,5.93-3.32,5.77-3.23c1.94-1,3.92-2.07,5.85-3.07a.59.59,0,0,1,.14-.06l.64-2.77.32-1.38.39-1.37Zm34.42-21.87-3.48.46-3.4.58c-2.29.4-4.6.86-6.94,1.35s-4.58,1.1-6.92,1.71-4.67,1.28-7,2-4.59,1.54-6.91,2.38-4.71,1.72-7,2.7c-4.53,2-9.3,4-13.75,6.44a1.18,1.18,0,0,1-1.53-.44c-2.63-4.45-4.82-9-7.1-13.74-1.15-2.39-2.14-4.78-3.14-7.22s-2-4.93-2.93-7.47-1.74-5-2.57-7.65-1.67-5.25-2.36-7.9-1.37-5.33-2-8.06l-.93-4.13c-.29-1.37-.54-2.74-.79-4.13-1.66,2.73-3.07,5.61-4.57,8.44l-2.2,4.26-2,4.36c.77,2.78,1.56,5.51,2.4,8.2s1.84,5.4,2.8,8c1.84,5.22,4.1,10.38,6.34,15.3a1,1,0,0,1,.26.56c1.07,2.41,2.35,4.83,3.57,7.17s2.48,4.65,3.75,6.91,2.71,4.49,4.08,6.66,2.73,4.3,4.22,6.39a164.88,164.88,0,0,1,54.65-22.64l1.23-2.69,1.38-2.63C470.45,533.27,471.29,531.48,472.35,529.8Zm.53-1.88a152.92,152.92,0,0,1-8.79-26.82c-.55-2.36-1-4.7-1.43-7.13s-.88-4.89-1.19-7.33-.58-4.92-.82-7.44l-.33-3.81-.19-3.79-3.95.1-3.91.23c-2.62.18-5.27.39-8,.65s-5.3.64-8,1-5.42.81-8.11,1.33a212.51,212.51,0,0,0-32.68,9,192.18,192.18,0,0,0,21.33,61.14A166.09,166.09,0,0,1,472.88,527.92Zm13.77-77.52c0,4.49,0,8.9-.06,13.18s.07,8.65.13,12.8c2.74-2.26,5.36-4.66,8.23-6.76.15-2.28.33-4.59.56-6.93s.57-4.58.92-6.92l.54-3.52c.18-1.19.38-2.37.62-3.52.45-2.32.94-4.67,1.45-7.05l-3.17,2c-1.05.68-2.14,1.3-3.14,2L486.58,450A1.35,1.35,0,0,1,486.65,450.4Zm-10.75,8q-.21,3.57-.31,7.05t.05,7c.06,2.33.09,4.57.28,6.88s.37,4.58.6,6.82c1.34-1.36,2.65-2.76,4-4.1l4.2-3.92a.68.68,0,0,1,0-.15c0-1.07-.1-2.17-.13-3.25l0-3.22-.08-6.57c0-2.25,0-4.44,0-6.66s0-4.5,0-6.75l-4.35,3.34-1.09.83-1,.89Zm-34,.51a1,1,0,0,1-.62.06,194.6,194.6,0,0,0-33.53,5.88c-3.83,5.14-7.31,10.54-10.69,16,1.32-.49,2.67-.95,4-1.39l4.06-1.28c2.71-.83,5.38-1.62,8.07-2.34s5.45-1.32,8.14-1.92,5.33-1.16,8.07-1.59c5.44-.88,10.67-1.68,16-2.1q4-.34,7.86-.59c2.63-.12,5.26-.17,7.82-.21a1.17,1.17,0,0,1,1.15,1.09c.11,2.54.22,5,.42,7.51s.51,5,.82,7.45c.55,4.84,1.53,9.76,2.5,14.41.47,2.31,1.1,4.68,1.71,7s1.25,4.54,1.91,6.73,1.48,4.44,2.24,6.58,1.5,4.21,2.4,6.32c.47-.87,1-1.69,1.58-2.52l1.63-2.49c1-1.69,2.25-3.27,3.41-4.88a144.49,144.49,0,0,1-6.29-27.87c-.3-2.41-.51-4.81-.71-7.28l-.27-3.73-.11-1.88-.06-1.86c-.06-2.48-.09-5-.07-7.55,0-1.28,0-2.59.06-3.85l.18-3.83-3.89-.28c-1.3-.09-2.57-.11-3.87-.15q-3.88-.1-7.89-.11c-2.69,0-5.29.12-8,.24S444.64,458.72,441.9,458.93Zm9.34-12.27c-2.56.06-5.17.14-7.75.31s-5.14.43-7.75.69c-5.28.48-10.49,1.26-16,2.06-.84,1-1.72,1.93-2.54,2.93l-2.43,3c-1.61,2-3.28,4-4.83,6.13,5.39-1.16,10.66-2.18,15.75-3.11s10.29-1.55,15.4-2C444.44,453.29,447.7,449.84,451.24,446.66Zm13.44-11.58c-1.28-.08-2.6-.17-3.87-.2l-3.85-.07c-2.58,0-5.19,0-7.84,0q-2,0-4,.12l-4,.18-8.17.46c-1.82,1.82-3.61,3.68-5.42,5.55l-2.71,2.81c-.86,1-1.73,2-2.6,2.93a257.81,257.81,0,0,1,31.25-2.58l.22,0,1.31-1.22,1.36-1.15,2.73-2.32C461,438.09,462.76,436.5,464.68,435.08Zm-17.24-12.47-5.9,5c-1.94,1.73-3.83,3.55-5.76,5.34,2.7-.19,5.38-.35,8-.47s5.34-.11,8-.12,5.23,0,7.81.1,5.21.28,7.76.47h.1c3.72-3,7.72-5.59,11.62-8.34-2.53-.33-5.1-.63-7.69-.9s-5.27-.56-7.87-.68-5.27-.26-8-.35l-4.06-.11C450.13,422.57,448.79,422.59,447.44,422.61Z"/><path class="cls-1" d="M524.09,421.46a6.14,6.14,0,0,1-7.91-3,5.9,5.9,0,0,1,3.44-7.83,6.08,6.08,0,0,1,8,3.27A5.94,5.94,0,0,1,524.09,421.46Zm-.87-2a3.66,3.66,0,1,0-2.73-6.79,3.48,3.48,0,0,0-2.1,4.79A3.64,3.64,0,0,0,523.22,419.42Z"/><path class="cls-1" d="M504.14,424.39a6,6,0,0,0-8.33-2.19l-.23.14,1.13,1.92c.08,0,.14-.1.23-.15,4.5-2.44,7.78,4,3.59,6.4l-.11,0,1.13,1.93.11-.06A6,6,0,0,0,504.14,424.39Z"/><path class="cls-1" d="M560.36,457.17c-2.45.58-5.16-1.3-6.12-4.46s.42-6.19,3.09-6.89a4.38,4.38,0,0,1,2-.05,4.94,4.94,0,0,1,1.83.89,6.9,6.9,0,0,1,2,8.07,5.07,5.07,0,0,1-1.13,1.52A4,4,0,0,1,560.36,457.17Zm-.6-2.13a2.64,2.64,0,0,0,1.76-1.69,4.72,4.72,0,0,0-1.18-4.85,2.57,2.57,0,0,0-2.42-.54C554.06,449,556.15,455.88,559.76,455Z"/><path class="cls-1" d="M542.09,463.3c-2.36.84-5.26-.57-6.63-3.6a6.38,6.38,0,0,1-.4-4.36,4.84,4.84,0,0,1,.93-1.77,3.5,3.5,0,0,1,1.61-1.14c2.58-.94,5.57.73,6.69,3.78S544.43,462.38,542.09,463.3Zm-.87-2.05c3.44-1.35,1-8.14-2.76-6.78a2.45,2.45,0,0,0-1.62,1.86,4.35,4.35,0,0,0,.32,2.59C537.89,460.61,539.46,461.86,541.22,461.25Z"/><path class="cls-1" d="M526,464.39c-1.54-2.92-4.71-4.17-7.11-2.86l-.18.12,1.13,1.92.17-.12c3.5-1.89,6.83,4.53,3.63,6.38l-.1,0,1.14,1.92.08,0C527,470.49,527.53,467.27,526,464.39Z"/><path class="cls-1" d="M627.5,414.64q-3.82,2.94-7.41,5.92c-1.19,1-2.37,2-3.53,3.07s-2.31,2.1-3.43,3.15a170,170,0,0,0-12.5,13.07,1.12,1.12,0,0,1-.56.38h.07s-.06.1,0,.1,0,.14,0,.14,0,.15,0,.15h0v-.42a1.1,1.1,0,0,1-.49-.37A170,170,0,0,0,587,426.77q-1.68-1.57-3.42-3.15c-1.16-1-2.35-2.11-3.54-3.08q-3.57-3-7.4-5.92a1.12,1.12,0,0,1-.25-1.54q2.86-3.78,6-7.59c1-1.29,2.09-2.49,3.17-3.7s2.18-2.44,3.29-3.66A201.09,201.09,0,0,1,599.23,384a2.12,2.12,0,0,1,.77-.34,2.33,2.33,0,0,1,.86.34,201.54,201.54,0,0,1,14.43,14.16q1.68,1.83,3.3,3.65c1.08,1.22,2.14,2.43,3.17,3.72q3.11,3.8,6,7.58A1.14,1.14,0,0,1,627.5,414.64Zm-4-1.29c-3.39-4.49-7.07-8.62-11-12.89-2-2.17-4-4.14-6-6.18s-4.22-4-6.42-6.07c-2.21,2-4.34,4-6.42,6.07s-4.08,4-6,6.17c-3.89,4.27-7.55,8.39-10.94,12.89,4.36,3.34,8.51,7.11,12.4,10.75,1.94,1.79,3.83,3.78,5.67,5.69s3.6,3.86,5.32,5.78c1.71-1.92,3.49-3.85,5.33-5.77s3.73-3.91,5.68-5.69C615,420.46,619.11,416.7,623.48,413.35Z"/><path class="cls-1" d="M680.55,410.65A5.92,5.92,0,0,1,684,418.5a6.14,6.14,0,0,1-7.91,3,6,6,0,0,1-3.53-7.6A6.11,6.11,0,0,1,680.55,410.65Zm-.87,2.05a3.66,3.66,0,1,0,2.1,4.79A3.49,3.49,0,0,0,679.68,412.7Z"/><path class="cls-1" d="M696,424.47a6,6,0,0,0,2.4,8h0l1.13-1.93a.14.14,0,0,1-.07,0,3.67,3.67,0,1,1,3.63-6.37.55.55,0,0,1,.15.1l1.13-1.92-.15-.1A5.91,5.91,0,0,0,696,424.47Z"/><path class="cls-1" d="M642.81,445.86c2.66.7,4,3.78,3.08,6.88s-3.68,5-6.12,4.47c-2.4-.76-3.84-3.53-3.1-6.77a6.5,6.5,0,0,1,2.34-3.75A4.29,4.29,0,0,1,642.81,445.86Zm-.59,2.14a2.61,2.61,0,0,0-2.42.53,4.7,4.7,0,0,0-1.19,4.86,2.61,2.61,0,0,0,1.75,1.68C644,455.92,646.08,449,642.22,448Z"/><path class="cls-1" d="M662.54,452.48c2.56,1,3.46,4.33,2.13,7.27s-4.28,4.46-6.63,3.59-3.35-4-2.2-7.08S660,451.54,662.54,452.48Zm-.87,2c-3.75-1.36-6.21,5.43-2.76,6.78,1.75.62,3.33-.64,4.06-2.33S663.53,455.22,661.67,454.52Z"/><path class="cls-1" d="M674.1,464.45c-1.51,2.88-1,6.08,1.18,7.33,0,0,0,0,0,0l1.14-1.92a.14.14,0,0,1-.07,0c-3.2-1.84.16-8.25,3.66-6.36l.11.09,1.13-1.92a.49.49,0,0,0-.11-.08C678.75,460.26,675.64,461.53,674.1,464.45Z"/><path class="cls-1" d="M600,401.35a2.11,2.11,0,0,1,.8.34c3.28,3.23,6.39,6.44,9.36,9.69a1.12,1.12,0,0,1-.09,1.56c-3.28,3-6.41,6.13-9.38,9.2a1.13,1.13,0,0,1-.61.38l.08,0s-.07.09-.06.09,0,.15,0,.15-.06.14-.06.14h0v-.42a1.22,1.22,0,0,1-.54-.37c-3-3.06-6.11-6.15-9.38-9.2a1.13,1.13,0,0,1-.11-1.56c3-3.24,6-6.46,9.32-9.69A2,2,0,0,1,600,401.35Zm0,2.71c-2.69,2.67-5.2,5.35-7.69,8,2.69,2.54,5.22,5.08,7.7,7.63q3.72-3.81,7.75-7.62C605.3,409.41,602.73,406.74,600,404.06Z"/><path class="cls-1" d="M715.74,397.48c-1.11-.61-2.21-1.26-3.35-1.86l-3.47-1.76c-2.35-1.16-4.7-2.4-7.15-3.54,3.37,7.37,6,14.37,8.64,21.86l-1.6,2.71q-1.09-3.28-2.26-6.6c-.78-2.19-1.64-4.32-2.5-6.5s-1.78-4.35-2.72-6.55-2-4.3-3.05-6.48c-2.35-1-4.7-2.12-7.13-3.11l-7.41-2.87c1.33,2.33,2.61,4.64,3.84,7,.61,1.16,1.23,2.28,1.81,3.46l1.7,3.54c2.22,4.7,4.3,9.29,6.09,14.07,0,.05,0,.08,0,.12l5.41,2.74,5.21,2.94-1.12,1.91-3.35-1.89-1.69-.95-1.72-.87L693,411.3c-2.35-1.11-4.74-2.14-7.12-3.21-1.19-.51-2.37-1.09-3.59-1.55l-3.65-1.43c-4.84-2-9.85-3.57-14.82-5.23-2.51-.75-5-1.43-7.56-2.15-1.27-.33-2.51-.74-3.79-1l-3.83-.88c1.45,2.11,2.88,4.14,4.23,6.29s2.65,4.3,3.9,6.43c2.54,4.2,4.79,8.66,6.88,13A193,193,0,0,1,696.2,436.3l-1.13,1.92-3.4-1.93c-.1.06-.13.16-.26.19-4.64,1.39-9.21,3-13.57,4.52-4.46,1.74-8.71,3.45-12.85,5.39,1.73.67,3.39,1.5,5.1,2.23s3.4,1.48,5,2.36c0,0,0-.06.08-.08,2.49-1,5.14-1.84,7.8-2.73s5.22-1.61,7.68-2.52l-1.57,2.67c-1.82.68-3.77,1.28-5.72,1.88s-4,1.3-5.87,2l2.55,1.29c1.55.8,3.17,1.75,4.54,2.48l-1.15,2c-1.34-.74-2.71-1.55-4.12-2.33L675,453.41c-1.08-.53-2.12-1.12-3.21-1.59l-3.26-1.45-3.25-1.46c-1.1-.46-2.22-.87-3.34-1.31l-.07,0c-4.13-1.71-8.4-3.06-12.65-4.46l-6.47-1.82c-1.07-.33-2.17-.53-3.26-.79l-3.27-.75a155.46,155.46,0,0,0-19.77,17.46,139.93,139.93,0,0,1,24.63,4.85A150.19,150.19,0,0,1,664.48,471l4.34,2.18c.73.34,1.43.75,2.13,1.16l2.15,1.22-1.35,2.29c-1.19-.65-2.37-1.36-3.59-2l-3.79-1.9-1.92-1c-.66-.32-1.33-.59-2-.89l-4.05-1.81a145.65,145.65,0,0,0-17.54-6,145.9,145.9,0,0,0-77.79,0,145.07,145.07,0,0,0-17.54,6l-4,1.8c-.67.31-1.35.57-2,.89l-1.92,1-3.76,1.88c-1.22.67-2.39,1.36-3.57,2l-1.35-2.29,2.15-1.23c.71-.41,1.43-.82,2.18-1.17l4.41-2.22A149.8,149.8,0,0,1,559,462a140.47,140.47,0,0,1,24.63-4.84,156.1,156.1,0,0,0-19.75-17.47c-2.18.52-4.38.95-6.54,1.53l-6.47,1.82c-4.25,1.39-8.52,2.74-12.65,4.45l-.08,0-3.34,1.31-3.28,1.47-3.28,1.46c-1.11.47-2.15,1.07-3.22,1.59l-4.32,2.18c-1.42.77-2.8,1.59-4.21,2.37l-1.15-2c1.55-.83,3-1.72,4.6-2.51l2.52-1.27c-1.89-.7-3.83-1.43-5.76-2.06s-3.88-1.21-5.86-1.8l-1.57-2.67c2.68.79,5.28,1.52,7.89,2.42s5.16,1.84,7.66,2.8a.6.6,0,0,1,.11.06c1.64-.89,3.36-1.59,5-2.36l2.55-1.13c.84-.39,1.69-.78,2.56-1.09l-1.56-.75-1.57-.68-3.17-1.35q-3.2-1.33-6.54-2.62c-4.36-1.57-8.92-3.14-13.56-4.54a1.27,1.27,0,0,1-.33-.16l-3.47,2-1.13-1.92a193.81,193.81,0,0,1,32.64-14.8c2.09-4.31,4.34-8.76,6.86-12.95,1.25-2.14,2.55-4.28,3.89-6.44s2.77-4.17,4.22-6.28c-2.55.58-5.1,1.14-7.6,1.89s-5,1.4-7.54,2.13c-4.95,1.66-9.94,3.23-14.76,5.21-2.44.95-4.88,1.87-7.24,3s-4.77,2.11-7.13,3.21l-7,3.52-1.74.88-1.7.95-3.4,1.92-1.12-1.91c1.76-1,3.51-2,5.29-3l5.42-2.74a.7.7,0,0,1,0-.14c1.8-4.79,3.89-9.37,6.13-14.08l1.71-3.54c.59-1.17,1.2-2.31,1.82-3.46,1.24-2.31,2.53-4.63,3.85-7L509,385.58c-2.43,1-4.78,2.07-7.13,3.09-1.06,2.18-2.12,4.3-3.09,6.5s-1.9,4.4-2.79,6.59-1.77,4.32-2.57,6.52-1.55,4.42-2.27,6.61l-1.6-2.71a206.9,206.9,0,0,1,8.83-21.94c-2.45,1.12-4.81,2.37-7.15,3.53l-3.48,1.76c-1.14.58-2.24,1.24-3.34,1.85l-1.4,3.69-2.64-4.48,3.53-2c1.17-.66,2.35-1.32,3.56-1.91l7.22-3.64a243.15,243.15,0,0,1,210.75.1l7.1,3.57c1.18.58,2.33,1.23,3.49,1.88l3.53,2L717,401.07C716.45,399.81,716.21,398.71,715.74,397.48ZM600,367.93h0ZM519.21,403.5c1.12-2.26,2.29-4.53,3.49-6.82l.92-1.71,1-1.67,1.95-3.33q2-3.36,4.11-6.73c1.42-2.22,2.92-4.37,4.44-6.57-5.15,1.35-10.11,3.08-15,4.71-.71,1.12-1.38,2.29-2,3.46l-1.94,3.49q-1.91,3.5-3.69,6.93c-2.31,4.73-4.44,9.4-6.38,14.06,2.16-1,4.36-2,6.54-3l3.29-1.45c1.1-.46,2.23-.88,3.34-1.32Zm16.92-6.09c2.62-4.23,5.4-8.57,8.39-12.8,1.51-2.08,3.06-4.17,4.66-6.25s3.23-4.24,4.94-6.22c-1.3.21-2.59.49-3.88.79l-3.85.87c-2.56.6-5.12,1.11-7.62,1.84a204,204,0,0,0-16.34,26.68l3.36-1.3,3.41-1.15L536,397.6A.82.82,0,0,1,536.13,397.41Zm17.19-4.29a206.29,206.29,0,0,1,20.16-23.9l-7.83,1c-1.3.15-2.59.37-3.88.6l-3.87.67c-1.74,2-3.45,4-5.09,6.11s-3.23,4.21-4.78,6.3L545.75,387c-.75,1-1.49,2.09-2.2,3.18-1.44,2.16-2.83,4.32-4.17,6.46l6.93-1.93Zm-5.52,48.62-5.53-3.28-2.83-1.66-2.84-1.59L525,428.68a1,1,0,0,1-.33-.27l-6.86,3.06-6.71,3.38c4.73,1.54,9.24,3,13.74,4.81q3.35,1.32,6.56,2.69c2.14.91,4.3,2,6.38,3l2.48-1c.83-.33,1.66-.67,2.51-.93ZM561.54,438c-1.85-1.32-3.76-2.69-5.69-3.95s-3.9-2.46-5.92-3.68c-4-2.49-8.2-4.67-12.55-6.84l-2.61.87c-.86.32-1.71.67-2.57,1l-5.12,2,11.82,6.7c3.9,2.3,7.67,4.47,11.36,6.74l.12.1C554.09,439.9,557.77,438.76,561.54,438Zm36.55,18.34A164.93,164.93,0,0,0,554.83,418a1.14,1.14,0,0,1-.37-1.52,198.91,198.91,0,0,1,42.22-48.69c-3.23.09-6.46.13-9.7.3l-9.69.72c-1,1-2,2-3,3.08l-3,3.14c-1.95,2.1-3.85,4.18-5.69,6.28s-3.61,4.35-5.33,6.52-3.4,4.28-5,6.56a1,1,0,0,1-.36.51c-1.57,2.21-3.08,4.41-4.55,6.6-.73,1.11-1.45,2.17-2.15,3.3l-2.05,3.39q-2,3.39-3.87,6.73c-1.24,2.23-2.38,4.58-3.5,6.84,2.35,1.2,4.61,2.32,6.88,3.62s4.48,2.6,6.63,3.92l3.2,2c1.06.69,2.12,1.41,3.15,2.12q3.12,2.15,6.07,4.32l1.46,1.08,1.46,1.16,2.86,2.32q2.82,2.32,5.47,4.66t5.19,5l2.48,2.48,1.2,1.24,1.2,1.3,6-.45C594.06,456.41,596.08,456.4,598.09,456.33Zm1.93-.54a165.91,165.91,0,0,1,43.24-39A199.29,199.29,0,0,0,600.05,368a198.89,198.89,0,0,0-43.18,48.79A165.53,165.53,0,0,1,600,455.79Zm75.18-27c-7.89,4.44-15.57,8.61-22.86,13l5.07,1.7c1.69.56,3.33,1.27,5,1.9,2.08-1,4.24-2.08,6.38-3s4.34-1.81,6.57-2.69l3.38-1.31c1.13-.42,2.25-.79,3.4-1.19,2.28-.78,4.6-1.54,7-2.3l-6.7-3.38-6.86-3.06A1.49,1.49,0,0,1,675.2,428.75Zm-12.43-5.18c-4.34,2.18-8.49,4.34-12.55,6.83-2,1.22-4,2.44-5.92,3.68s-3.85,2.62-5.7,3.94c3.78.77,7.45,1.93,11.17,2.94a1.27,1.27,0,0,1,.12-.1c3.68-2.25,7.46-4.44,11.36-6.73l11.83-6.69-5.13-2-2.56-1ZM645.28,395a1,1,0,0,1-.36-.51c-1.59-2.28-3.27-4.39-5-6.6s-3.49-4.39-5.32-6.58-3.73-4.21-5.68-6.3-4-4.19-6-6.13l-9.69-.72c-3.23-.19-6.46-.21-9.69-.3a193.09,193.09,0,0,1,42.18,48.72,1.13,1.13,0,0,1-.38,1.52A171.12,171.12,0,0,0,602,456.33c2,.07,4,.07,6,.17l6,.45c.79-.9,1.59-1.75,2.41-2.58l2.48-2.51c1.68-1.67,3.42-3.34,5.2-5s3.6-3.12,5.48-4.67,3.83-3.14,5.79-4.53,4-2.87,6.06-4.29c1-.7,2.1-1.43,3.15-2.1l3.2-2q3.24-1.95,6.63-3.89c2.26-1.27,4.53-2.4,6.88-3.59-1.11-2.27-2.26-4.61-3.49-6.86s-2.53-4.47-3.87-6.72C651.36,403.67,648.41,399.4,645.28,395Zm15.53,1.76q-2-3.21-4.18-6.42l-1.09-1.6-1.11-1.55L652.14,384q-2.32-3.11-4.78-6.28c-1.63-2.11-3.33-4.12-5.06-6.24l-3.86-.68c-1.29-.22-2.58-.46-3.89-.6l-7.82-1a240.63,240.63,0,0,1,20.14,23.93l7,1.6Zm16.94,5.68c-2.27-4.61-4.86-8.91-7.57-13.37l-2.07-3.36c-.72-1.09-1.44-2.18-2.17-3.27l-4.51-6.69c-2.5-.74-5.06-1.26-7.62-1.85L650,373c-1.28-.29-2.57-.59-3.88-.8l1.26,1.57,1.23,1.61,2.42,3.18c1.59,2.11,3.14,4.18,4.65,6.24,3,4.2,5.8,8.45,8.41,12.68a1.86,1.86,0,0,1,.1.2l6.83,2.27c1.14.39,2.28.76,3.41,1.16Zm2.39-20.94c-4.9-1.63-9.86-3.38-15-4.72,1.52,2.2,3,4.34,4.44,6.57s2.78,4.5,4.1,6.73c2.67,4.39,5.06,9,7.29,13.53l0,.1c1.11.44,2.24.85,3.34,1.32l3.28,1.46c2.18,1,4.39,1.92,6.54,3-1.93-4.67-4.07-9.32-6.37-14.06C685.42,390.76,682.9,386.05,680.14,381.45Z"/><path class="cls-1" d="M719.4,446.2a6.86,6.86,0,0,1-1.53-1.81,5.84,5.84,0,0,1-.79-2.1,5.62,5.62,0,0,1,1.07-4.36,5.8,5.8,0,0,1,4-2.28,6.46,6.46,0,0,1,2.39.16,6.25,6.25,0,0,1,2.23,1.15,5.84,5.84,0,0,1,1.13,8.42A6.21,6.21,0,0,1,719.4,446.2Zm1.36-1.76c3.83,2.92,8.62-2.54,4.63-5.72a3.55,3.55,0,0,0-5.25.57A3.6,3.6,0,0,0,720.76,444.44Z"/><path class="cls-1" d="M706.87,430.67a5.61,5.61,0,0,0,.74-4.49,6.21,6.21,0,0,0-2.94-3.71l-.25-.13-1.13,1.92c.08.05.16.07.25.12,4.41,2.59.36,8.6-3.86,6.25l-.1-.08-1.13,1.93.11.07a6.52,6.52,0,0,0,4.57.66A5.81,5.81,0,0,0,706.87,430.67Z"/><path class="cls-1" d="M706.09,494.89c-1.76-1.78-1.48-5,.83-7.41s5.68-2.75,7.66-.85,1.44,5.36-1,7.55S707.89,496.63,706.09,494.89Zm1.59-1.58c1.34,1.28,3.29.75,4.65-.49s2-3.21.66-4.62C710.14,485.44,705.09,490.68,707.68,493.31Z"/><path class="cls-1" d="M691.48,482.39a4,4,0,0,1-1.09-1.49,4.52,4.52,0,0,1-.43-1.84,7,7,0,0,1,5-6.65,5,5,0,0,1,2-.1,4.12,4.12,0,0,1,1.78.84c2.14,1.71,2.17,5.08,0,7.56S693.47,483.92,691.48,482.39Zm1.37-1.76c2.93,2.24,7.7-3.24,4.6-5.73-1.52-1.26-3.44-.37-4.55,1.08S691.45,479.41,692.85,480.63Z"/><path class="cls-1" d="M682.48,469.24a6.48,6.48,0,0,0,1.07-4.28,4.34,4.34,0,0,0-2.08-3.22l-.2-.09-1.13,1.92a1.11,1.11,0,0,1,.19.09c3.43,2-.58,8-3.82,6.26l-.07-.06-1.14,1.92.08.06a4.47,4.47,0,0,0,3.71.16A6.77,6.77,0,0,0,682.48,469.24Z"/><path class="cls-1" d="M777.15,530.71c-1.48-.6-2.95-1.19-4.42-1.75s-3-1.08-4.49-1.6c-3-1-6-2-8.9-2.84a172.88,172.88,0,0,0-17.84-4,1.11,1.11,0,0,1-.63-.27l0,.07h-.11l0,0,0,0h0l.08,0,0,0a1.17,1.17,0,0,1,.1-.61q.78-2.07,1.53-4.2c.46-1.41.9-2.81,1.34-4.24.85-2.85,1.72-5.81,2.45-8.76s1.35-5.94,2-9l.44-2.31.37-2.29c.24-1.54.46-3.09.68-4.65a1.15,1.15,0,0,1,1.23-1c1.6.17,3.21.35,4.84.55l2.44.32,2.4.38c3.21.53,6.47,1.12,9.76,1.78s6.48,1.49,9.79,2.34c1.64.42,3.3.87,5,1.33s3.25,1,4.89,1.54a2,2,0,0,1,.66.49,2.34,2.34,0,0,1,.16.9,197.78,197.78,0,0,1-5.18,19.34c-1.06,3.14-2.18,6.22-3.32,9.22-.59,1.51-1.13,3-1.77,4.46s-1.29,3-2,4.41A1.17,1.17,0,0,1,777.15,530.71Zm-.8-4.09c1-2.53,2.06-5.11,3.06-7.74l1.46-4c.47-1.33.88-2.66,1.31-4,.85-2.7,1.67-5.46,2.46-8.26s1.4-5.59,2.05-8.47c-5.61-1.83-11.4-3.23-17-4.49-2.76-.64-5.67-1.12-8.45-1.6s-5.55-.92-8.36-1.26c-.4,2.71-.95,5.45-1.48,8.1s-1.07,5.23-1.8,7.86c-1.38,5.21-2.81,10.17-4.65,15.11,2.57.48,5.25,1,7.84,1.58s5.17,1.29,7.81,2c1.31.36,2.65.73,4,1.13l3.88,1.27Q772.38,525.15,776.35,526.62Z"/><path class="cls-1" d="M807.12,573.88a6.19,6.19,0,0,1-1.12,4.58,5.79,5.79,0,0,1-4,2.25,6,6,0,0,1-4.38-1.29,6.25,6.25,0,0,1-2.32-3.93,6.13,6.13,0,0,1,5-6.8,5.72,5.72,0,0,1,4.46,1.09A6.26,6.26,0,0,1,807.12,573.88Zm-2.24.28c-.73-5-7.94-3.67-7.35,1.06C798.3,579.93,805.61,579.16,804.88,574.16Z"/><path class="cls-1" d="M802.67,593.93a5.89,5.89,0,0,0-5.75,6s0,0,0,0h2.26a.21.21,0,0,1,0-.08c-.1-4.76,7.23-5.14,7.43-.1a.83.83,0,0,1,0,.18h2.27a.93.93,0,0,0,0-.18A6,6,0,0,0,802.67,593.93Z"/><path class="cls-1" d="M757.3,559.31c.74,2.61-1.41,5.33-4.6,6.07s-6.19-.64-6.92-3,1.19-5,4.39-6S756.49,556.72,757.3,559.31Zm-2.18.56c-1.18-3.75-8.16-1.55-7.16,2,.56,1.75,2.53,2.21,4.34,1.76S755.68,561.74,755.12,559.87Z"/><path class="cls-1" d="M761.24,579.43c.4,2.69-2,5.11-5.27,5.44s-6.13-1.41-6.56-3.84a4.22,4.22,0,0,1,1.28-3.43,7,7,0,0,1,3.93-2,6.72,6.72,0,0,1,4.41.69A4.41,4.41,0,0,1,761.24,579.43Zm-2.23.28c-.58-3.88-7.8-2.59-7.37,1C752.28,584.35,759.59,583.6,759,579.71Z"/><path class="cls-1" d="M756.46,595.29c-3.34.15-5.83,2.19-5.77,4.68,0,0,0,0,0,0H753l0-.06c-.08-3.67,7.24-4,7.44-.08a.49.49,0,0,1,0,.14h2.26a1.13,1.13,0,0,0,0-.14C762.5,597.15,759.77,595.14,756.46,595.29Z"/><path class="cls-1" d="M775.09,500.68a1.87,1.87,0,0,1,.12.84c-.57,2.19-1.15,4.33-1.78,6.46s-1.37,4.27-2.08,6.36a1.18,1.18,0,0,1-1.43.71q-3.2-1-6.35-1.84c-2.15-.56-4.31-1.06-6.43-1.54a1.21,1.21,0,0,1-.66-.32s0,0,0,.07-.12,0-.11,0l0,0,0-.05h0l.08,0h0a1.41,1.41,0,0,1,.07-.66l1-3.1c.32-1,.62-2.1.88-3.13.54-2.09,1.06-4.2,1.56-6.35a1.16,1.16,0,0,1,1.32-.87c4.38.88,8.86,1.81,13.22,3.07A1.73,1.73,0,0,1,775.09,500.68Zm-2.37,1.39c-1.82-.5-3.62-.95-5.41-1.39s-3.66-.78-5.47-1.16c-.43,1.77-.86,3.49-1.34,5.22l-1.56,5.17c3.52.81,7.16,1.67,10.63,2.75C770.79,509.15,771.76,505.68,772.72,502.07Z"/><path class="cls-1" d="M836.36,597.18q-.09-3.72-.2-7.59c0-1.28-.12-2.57-.22-3.88s-.19-2.62-.3-3.94c-4.61,6.53-9.79,12-14.84,18.23h-3.19c3.06-3.54,6.11-6.94,9.14-10.58s5.76-7.42,8.6-11.4c-.06-.63-.1-1.26-.16-1.89l-.24-1.89c-.16-1.27-.33-2.54-.49-3.82s-.34-2.56-.51-3.86c-.08-.64-.17-1.29-.26-1.94s-.23-1.29-.34-1.94c-1.31,2.28-2.8,4.53-4.24,6.73s-2.91,4.37-4.38,6.48l-1.11,1.58L822.45,579l-2.35,3.08q-2.36,3.06-4.73,6s-.07,0-.1.06c.19,4,.23,8.31.33,11.85h-2.25c-.06-2.66-.12-5-.18-7.59,0-1.27,0-2.54-.13-3.81s-.19-2.55-.28-3.82l-.3-3.83c-.09-1.28-.18-2.55-.36-3.83q-.5-3.81-1-7.65c-.14-1.28-.39-2.54-.62-3.81l-.68-3.81-.69-3.81c-.27-1.26-.58-2.52-.86-3.77-.6-2.51-1.14-5-1.81-7.53l-2.13-7.43a184.61,184.61,0,0,1-15.2,25.6,189.23,189.23,0,0,1,3.3,35.09h-2.26c0-.89-.06-2.55-.09-3.86-.1,0-.2,0-.3-.12q-2.67-2.44-5.31-4.77c-1.79-1.55-3.67-3-5.49-4.52s-3.65-2.89-5.46-4.27-3.8-2.7-5.69-4l.35,2.72c.12.91.26,1.81.3,2.73.14,1.82.28,3.65.41,5.48,0,0,.07,0,.11,0,2.19,1.64,4.21,3.46,6.26,5.28s4.12,3.51,6.17,5.28h-3.14c-3.07-2.66-6.16-5.42-9.23-7.94l.07,2.83c0,1.72.11,3.34.18,5.11H767c0-1.77-.08-3.08-.12-4.68,0-.8,0-1.6,0-2.4s0-1.61-.11-2.4c-.18-2.36-.35-4.7-.53-7s-.58-4.65-.88-7c0,0,0-.06,0-.08a171,171,0,0,0-5.89-25.76c-2.13-.86-4.24-1.67-6.34-2.45s-4.12-1.52-6.29-2.17-4.25-1.29-6.34-1.87l-3.13-.85c-1-.27-2.13-.5-3.19-.74a143.45,143.45,0,0,1,8,23.36l.7,3c.23,1,.52,2,.67,3l1.11,6.08.79,6.14c.16,1,.21,2.05.29,3.08l.24,3.09c.06.81.14,1.61.18,2.41s0,1.59,0,2.39c.05,1.6.09,3.09.14,4.86h-2.7a146.56,146.56,0,0,0-4.43-34.91,139.84,139.84,0,0,0-14.81-35.58c-1.55-2.85-3.48-5.51-5.21-8.28l-2.89-4c-.49-.66-.93-1.35-1.45-2l-1.54-1.91-1.53-1.91c-.5-.64-1-1.29-1.56-1.88-1.07-1.23-2.15-2.44-3.22-3.66-.52-.62-1.09-1.2-1.65-1.77l-1.69-1.73c-1.12-1.15-2.2-2.33-3.39-3.38l-3.46-3.25c-1.18-1-2.39-2-3.56-3l-1.75-1.51c-.6-.48-1.22-.93-1.82-1.4l-3.57-2.77a150.45,150.45,0,0,0-14.32-9.25l1.35-2.29c2.92,1.54,5.63,3.42,8.44,5.12a149.12,149.12,0,0,1,36.25,34.12c.33-1,.63-2.06.9-3.07l.83-3.09q.81-3.14,1.54-6.36c.85-4.22,1.62-8.6,2.21-13.06a167.41,167.41,0,0,0-19.77-17.95l-.06-.05L700.6,469c-.93-.76-2-1.38-2.92-2.08l-2.94-2.05-1.48-1-1.52-.95-4.09-2.57-1-.64-1.06-.59-2.1-1.19,1.15-2c1.51.9,3.06,1.72,4.51,2.68l2.38,1.5c-.32-2-.67-3.93-1-5.93s-.87-3.91-1.34-5.89l1.57-2.67c1.37,5.24,2.35,10.66,3.16,15.83a.62.62,0,0,1,0,.13c1.57,1,3.06,2.1,4.59,3.14s3.07,2.1,4.51,3.26c-.09-1.13-.17-2.28-.28-3.41l-.41-3.36q-.42-3.39-1-6.85c-.17-1.17-.37-2.31-.59-3.44l-.67-3.43q-.7-3.45-1.48-7a1.11,1.11,0,0,1,0-.36l-3.48-1.95,1.13-1.92a193.34,193.34,0,0,1,29.33,20.41q3.66-.3,7.41-.5t7.45-.14c2.5,0,5.09,0,7.6.09s5.08.25,7.66.42a204.12,204.12,0,0,0-23.07-20.79l-3.08-2.37c-1-.8-2-1.59-3.13-2.32l-6.4-4.45c-2.15-1.44-4.38-2.78-6.58-4.18-1.1-.67-2.18-1.4-3.32-2l-3.39-1.92,1.12-1.91,2.65,1.49,1.32.75,1.28.8,5.14,3.22.14,0,3.84-.59,3.83-.45c2.56-.29,5.17-.55,7.81-.78s5.25-.35,7.91-.47,5.35-.18,8.07-.22c-4.21-3.25-8.28-6.52-12.51-9.37-2.45.18-4.88.38-7.27.61s-4.83.59-7.2.91-4.72.69-7,1.07-4.67.88-7,1.36l1.6-2.71q2.88-.58,5.83-1.13c2-.33,3.89-.61,5.87-.89s4-.54,6-.78l3-.36,3-.26c-2.18-1.57-4.47-2.92-6.67-4.33l-3.29-2.07-1.63-1-1.65-1-4,.67,2.64-4.48c4.74,2.58,9.24,5.55,13.78,8.41a237.86,237.86,0,0,1,73.68,77.52c1.13,1.93,2.27,3.85,3.37,5.8l3.11,5.95c2.14,3.94,3.92,8.06,5.81,12.12,1,2,1.77,4.12,2.62,6.2l2.49,6.25c.78,2.11,1.49,4.23,2.23,6.35l1.09,3.19c.37,1.06.72,2.12,1,3.2a233.5,233.5,0,0,1,9.76,52.74c.1,1.32.21,2.62.28,3.92s.07,2.59.11,3.88q.09,3.89.19,7.88h-5.27C834.7,599.11,835.53,598.2,836.36,597.18ZM804.54,483.94h0Zm-71.72-50.88c2.55-.18,5.14-.34,7.76-.46s5.17-.09,7.81-.09,5.33,0,8,.13,5.32.28,8,.47c-1.93-1.8-3.83-3.6-5.76-5.34l-5.89-5-4,0-4.06.1q-4,.13-8,.35c-2.6.12-5.28.41-7.87.67s-5.16.57-7.69.9c3.9,2.74,7.89,5.37,11.61,8.35Zm13.78,11.36c2.53,0,5.1.11,7.69.21,1.3.06,2.61.11,3.91.19l3.87.31c5.18.47,10.54,1,15.77,1.9-.86-1-1.73-2-2.6-2.93s-1.8-1.89-2.69-2.82l-5.42-5.56c-5.46-.42-10.75-.76-16-.85q-4,0-7.88,0c-2.6.05-5.15.11-7.75.3,1.92,1.42,3.69,3,5.52,4.54l2.72,2.32,1.36,1.16,1.31,1.22ZM759,456.83c5.1.47,10.22,1.16,15.48,1.95s10.41,1.93,15.66,3.19c-1.54-2.09-3.21-4.09-4.82-6.13l-2.43-3c-.81-1-1.69-1.95-2.54-2.93-5.36-.89-10.56-1.69-15.87-2.15q-3.94-.37-7.8-.65c-2.59-.17-5.22-.23-7.78-.3C752.44,450,755.69,453.43,759,456.83Zm-45.61,19.65c.07-4.15.14-8.47.15-12.8s-.07-8.69,0-13.18a1.16,1.16,0,0,1,.07-.42l-6.15-4.27c-1-.74-2.08-1.38-3.14-2.05l-3.17-2c.51,2.38,1,4.73,1.45,7.05s.8,4.73,1.15,7,.66,4.62.92,6.92.4,4.65.54,6.93l2.12,1.62c.71.54,1.36,1.14,2.05,1.71Zm10.2,9.83q.35-3.35.6-6.81c.1-1.16.15-2.3.19-3.43l.1-3.45c0-2.32.07-4.66,0-7s-.17-4.67-.3-7.05l-2.09-1.78c-.69-.59-1.39-1.18-2.13-1.72l-4.34-3.34c0,9.06.07,17.88-.27,26.45a1,1,0,0,0,0,.16l4.2,3.91Zm2.17,40.26c.94-2.13,1.7-4.21,2.5-6.37s1.55-4.36,2.29-6.61,1.3-4.45,1.92-6.74,1.24-4.65,1.69-7,1-4.69,1.37-7.1c.21-1.2.44-2.44.6-3.63l.47-3.62q.45-3.66.8-7.43c.2-2.49.31-5,.41-7.5a1.17,1.17,0,0,1,1.15-1.09c2.57,0,5.21.09,7.81.23s5.2.37,7.84.61c5.35.43,10.55,1.26,16,2.16,2.73.43,5.35,1,8,1.6s5.4,1.24,8.14,1.92,5.37,1.5,8.1,2.32l4.09,1.27,2.06.66,2,.71c-.78-1.39-1.67-2.72-2.54-4.07l-2.63-4c-1.71-2.71-3.63-5.28-5.5-7.88a214.07,214.07,0,0,0-33.53-5.91,1,1,0,0,1-.62-.06c-2.73-.22-5.45-.39-8.12-.52l-4-.18-2-.06h-2q-4,0-7.89.11c-1.3,0-2.58.07-3.87.14l-3.9.28.19,3.82c0,1.29,0,2.59,0,3.87q0,3.84-.09,7.57c0,1.23-.1,2.49-.19,3.75l-.28,3.73c-.22,2.48-.42,4.88-.74,7.31a153.16,153.16,0,0,1-6.24,27.8c1.16,1.6,2.36,3.19,3.4,4.88l1.63,2.49C724.74,524.87,725.29,525.7,725.76,526.57Zm1.38,1.39c2.3.28,4.66.58,7,.95s4.6.84,7,1.32c4.76.94,9.31,2.21,14.07,3.61,2.41.69,4.68,1.49,7,2.33s4.7,1.71,7.07,2.64,4.62,2,7,3l3.51,1.63c1.18.55,2.36,1.12,3.48,1.72.66-1.14,1.26-2.26,1.84-3.4l1.76-3.44c1.16-2.33,2.34-4.71,3.43-7.12s2.08-4.83,3.08-7.31,2-5,2.86-7.57c1.73-5.08,3.48-10.41,4.8-15.76.69-2.7,1.35-5.43,2-8.22s1.09-5.52,1.59-8.35A201.05,201.05,0,0,0,740,471.69,158.75,158.75,0,0,1,727.14,528Zm61.37,50.4L782.69,575c-1.91-1.12-3.76-2.23-5.72-3.31l-5.71-3.21c-1.9-1.05-3.68-2.1-5.63-3.09.22.86.37,1.72.52,2.59l.46,2.59.47,2.59c.17.87.32,1.73.41,2.61A186.45,186.45,0,0,1,790,593.26c0-1.23,0-2.47-.13-3.7l-.28-3.69c-.2-2.46-.31-4.93-.68-7.37A1.33,1.33,0,0,1,788.51,578.36Zm-1.62-13.16a171.74,171.74,0,0,0-24.78-13.38l1.57,5.46c.29.91.5,1.83.7,2.75l.64,2.77.15.06c1.92,1,3.91,2,5.84,3.08l5.77,3.23,5.92,3.33,5.89,3.4c-.25-1.79-.41-3.59-.74-5.37ZM803.42,536a1,1,0,0,1,.26-.56c2.23-4.92,4.58-10.1,6.45-15.34,1-2.63,1.91-5.31,2.81-8s1.59-5.41,2.31-8.16l-2-4.36c-.71-1.43-1.46-2.85-2.2-4.27-1.5-2.83-2.89-5.71-4.55-8.44a186.22,186.22,0,0,1-21.89,60.28,1.18,1.18,0,0,1-1.53.44c-4.46-2.41-9.23-4.5-13.8-6.43-2.27-1-4.65-1.85-7-2.69s-4.66-1.63-6.95-2.37-4.71-1.38-7-2-4.56-1.21-6.9-1.71-4.64-1-6.9-1.38l-3.37-.6c-1.13-.18-2.29-.34-3.41-.49,1,1.68,1.88,3.47,2.82,5.22l1.38,2.62,1.22,2.7a160.9,160.9,0,0,1,54.63,22.68c1.51-2.09,2.83-4.2,4.23-6.38s2.76-4.4,4.09-6.66,2.52-4.56,3.75-6.9S802.35,538.42,803.42,536Zm6.19,14.09a236.55,236.55,0,0,0,13-28.34c-.41-1.22-.88-2.42-1.36-3.62l-1.44-3.6c-1-2.4-1.89-4.83-3-7.17-.77,2.56-1.65,5.11-2.52,7.62s-1.73,5-2.6,7.36l-.67,1.8-.72,1.8-1.46,3.56q-1.49,3.53-3,7c.71,2.25,1.33,4.53,2,6.8l1,3.4C809.09,547.81,809.33,549,809.61,550.11Zm3.49,17.25c2.74-4.2,5.46-8.58,8-13.11,1.23-2.25,2.46-4.56,3.7-6.91s2.52-4.76,3.66-7.18q-1.07-3.69-2.14-7.41l-.55-1.87-.63-1.84c-.42-1.23-.84-2.46-1.27-3.69l-3.08,7.32c-1.1,2.42-2.18,4.78-3.27,7.1s-2.15,4.59-3.34,6.84-2.41,4.48-3.66,6.65a1.4,1.4,0,0,1-.13.18l.8,3.46c.25,1.15.43,2.32.65,3.48Zm19.58-8.4L832,555.2l-.35-1.89-.44-1.89q-.88-3.78-1.78-7.6a205.47,205.47,0,0,1-15.8,26.87l-.06.07.89,7c.24,2.35.38,4.7.57,7.05q2.37-3,4.74-6.09c1.56-2.08,3-4.18,4.47-6.34s2.93-4.36,4.38-6.6S831.33,561.29,832.68,559Z"/></svg>