<svg id="Layer_1" data-name="Layer 1" xmlns="http://www.w3.org/2000/svg" viewBox="0 0 1200 1200"><path d="M700.89,499.11a144.35,144.35,0,0,0-201.78,0,144.35,144.35,0,0,0,0,201.78,144.35,144.35,0,0,0,201.78,0,144.35,144.35,0,0,0,0-201.78ZM683.78,683.78a125.08,125.08,0,0,1-51.49,29.52,111.23,111.23,0,0,1-64.58,0,113.38,113.38,0,0,1-81-81,111.23,111.23,0,0,1,0-64.58,113.38,113.38,0,0,1,81-81,111.23,111.23,0,0,1,64.58,0,113.38,113.38,0,0,1,81,81,111.23,111.23,0,0,1,0,64.58A125.08,125.08,0,0,1,683.78,683.78Z"/><path d="M583.6,573.15a63.55,63.55,0,0,0,10.8,14.45,13,13,0,0,1,11.2,0,63.55,63.55,0,0,0,10.8-14.45c8.68-16.48,5.06-33-7-52.06l-1.52-2.42A68.85,68.85,0,0,1,600,501.85a68.85,68.85,0,0,1-7.86,16.82c-.49.79-1,1.6-1.53,2.42C578.54,540.13,574.92,556.67,583.6,573.15ZM600,526.36c4.84-.05,5.44,7.32.68,8.08a11.57,11.57,0,0,0-1.36,0C594.56,533.68,595.16,526.31,600,526.36Zm0,15c4.84,0,5.44,7.32.68,8.11a7.72,7.72,0,0,0-1.36,0C594.56,548.67,595.16,541.33,600,541.35Zm0,15c4.84-.06,5.44,7.32.68,8.08a7.72,7.72,0,0,0-1.36,0C594.56,563.69,595.16,556.31,600,556.37Zm0,15c4.84,0,5.44,7.31.68,8.1a11.57,11.57,0,0,0-1.36,0C594.56,578.67,595.16,571.33,600,571.36Z"/><path d="M626.85,616.4c16.48,8.68,33,5.06,52.06-7l2.42-1.52A69,69,0,0,1,698.14,600a69,69,0,0,1-16.81-7.86l-2.42-1.52c-19-12.08-35.58-15.7-52.06-7a63.55,63.55,0,0,0-14.45,10.8,13,13,0,0,1,0,11.2A63.55,63.55,0,0,0,626.85,616.4Zm38.71-17.08c.76-4.76,8.13-4.16,8.08.68s-7.32,5.44-8.08.68a11.57,11.57,0,0,0,0-1.36Zm-15,0c.79-4.76,8.13-4.16,8.11.68s-7.32,5.44-8.11.68a7.72,7.72,0,0,0,0-1.36Zm-15,0c.76-4.76,8.14-4.16,8.08.68s-7.32,5.44-8.08.68a7.72,7.72,0,0,0,0-1.36Zm-15,0c.79-4.76,8.13-4.16,8.1.68s-7.31,5.44-8.1.68a11.57,11.57,0,0,0,0-1.36Z"/><path d="M573.15,583.6c-16.48-8.68-33-5.06-52.06,7l-2.42,1.52A69,69,0,0,1,501.86,600a69,69,0,0,1,16.81,7.86l2.42,1.52c19,12.08,35.58,15.7,52.06,7a63.55,63.55,0,0,0,14.45-10.8,13,13,0,0,1,0-11.2A63.55,63.55,0,0,0,573.15,583.6Zm-38.71,17.08c-.76,4.76-8.13,4.16-8.08-.68s7.32-5.44,8.08-.68a11.57,11.57,0,0,0,0,1.36Zm15,0c-.79,4.76-8.13,4.16-8.11-.68s7.32-5.44,8.11-.68a7.72,7.72,0,0,0,0,1.36Zm15,0c-.76,4.76-8.14,4.16-8.08-.68s7.32-5.44,8.08-.68a7.72,7.72,0,0,0,0,1.36Zm15,0c-.79,4.76-8.13,4.16-8.1-.68s7.31-5.44,8.1-.68a11.57,11.57,0,0,0,0,1.36Z"/><path d="M616.4,626.85a63.55,63.55,0,0,0-10.8-14.45,13,13,0,0,1-11.2,0,63.55,63.55,0,0,0-10.8,14.45c-8.68,16.48-5.06,33,7,52.06.52.82,1,1.63,1.53,2.42A69,69,0,0,1,600,698.14a69,69,0,0,1,7.86-16.81l1.52-2.42C621.46,659.87,625.08,643.33,616.4,626.85ZM600,673.64c-4.84.05-5.44-7.32-.68-8.08a11.57,11.57,0,0,0,1.36,0C605.44,666.32,604.84,673.69,600,673.64Zm0-15c-4.84,0-5.44-7.32-.68-8.11a7.72,7.72,0,0,0,1.36,0C605.44,651.33,604.84,658.67,600,658.65Zm0-15c-4.84.06-5.44-7.32-.68-8.08a7.72,7.72,0,0,0,1.36,0C605.44,636.31,604.84,643.69,600,643.63Zm0-15c-4.84,0-5.44-7.31-.68-8.1a11.57,11.57,0,0,0,1.36,0C605.44,621.33,604.84,628.67,600,628.64Z"/><path d="M603.26,592.06a9.61,9.61,0,0,0-6.52,0,7.43,7.43,0,0,0-4.68,4.68,9.61,9.61,0,0,0,0,6.52,7.43,7.43,0,0,0,4.68,4.68,9.61,9.61,0,0,0,6.52,0,7.43,7.43,0,0,0,4.68-4.68,9.61,9.61,0,0,0,0-6.52,7.43,7.43,0,0,0-4.68-4.68Z"/><path d="M585,516.76a14.82,14.82,0,0,0,4.13-9.93,16.6,16.6,0,0,0-.38-2.44v-.11c-2-9.61-11.51-13.47-19.28-11.46-5.74,1.47-10.5,6.12-10.5,14C558.93,522.07,576.69,525.28,585,516.76Z"/><path d="M516.76,615a14.82,14.82,0,0,0-9.93-4.13,16.6,16.6,0,0,0-2.44.38h-.11c-9.61,2-13.47,11.51-11.46,19.28,1.47,5.74,6.13,10.5,14,10.5C522.07,641.07,525.28,623.31,516.76,615Z"/><path d="M506.83,588.23c15.24,0,18.45-17.76,9.93-26a14.82,14.82,0,0,0-9.93-4.13,16.6,16.6,0,0,0-2.44.38h-.11c-9.61,2-13.47,11.51-11.46,19.28C494.29,583.47,499,588.23,506.83,588.23Z"/><path d="M574,678.35a17,17,0,0,0-2.45.38h-.11c-9.6,2-13.47,11.51-11.45,19.29,1.47,5.73,6.12,10.5,14,10.5,15.23,0,18.44-17.77,9.92-26A14.81,14.81,0,0,0,574,678.35Z"/><path d="M626,678.35a17,17,0,0,0-2.45.38h-.11c-9.6,2-13.46,11.51-11.45,19.29,1.47,5.73,6.12,10.5,14,10.5,15.23,0,18.44-17.77,9.93-26A14.86,14.86,0,0,0,626,678.35Z"/><path d="M693.17,558.92c-15.24,0-18.45,17.77-9.93,26a14.82,14.82,0,0,0,9.93,4.13,16.6,16.6,0,0,0,2.44-.38h.11c9.61-2,13.47-11.51,11.46-19.29C705.71,563.69,701.05,558.92,693.17,558.92Z"/><path d="M641.07,506.83c0-7.89-4.76-12.54-10.5-14-7.77-2-17.32,1.85-19.28,11.46v.11a16.6,16.6,0,0,0-.38,2.44,14.82,14.82,0,0,0,4.13,9.93C623.31,525.28,641.07,522.07,641.07,506.83Z"/><path d="M695.72,611.29h-.11a16.6,16.6,0,0,0-2.44-.38,14.82,14.82,0,0,0-9.93,4.13c-8.52,8.27-5.31,26,9.93,26,7.88,0,12.54-4.76,14-10.5C709.19,622.8,705.33,613.25,695.72,611.29Z"/><path d="M650.4,627.8c-9.16.82-17.49-1.58-25-5.74a71.82,71.82,0,0,1-11.13-7.78,71.82,71.82,0,0,1,7.78,11.13c4.16,7.5,6.56,15.83,5.74,25,1.77,10.23,5.39,20.16,13.17,27.45,10.39,9.71,27.8,12.6,38.62,1.74s8-28.23-1.74-38.62C670.56,633.19,660.63,629.57,650.4,627.8Z"/><path d="M549.59,572.2c9.17-.82,17.5,1.58,25,5.74a71.82,71.82,0,0,1,11.13,7.78,71.82,71.82,0,0,1-7.78-11.13c-4.16-7.5-6.56-15.83-5.74-25-1.77-10.23-5.39-20.16-13.17-27.45-10.39-9.71-27.8-12.6-38.62-1.74s-8,28.23,1.74,38.62C529.44,566.81,539.37,570.43,549.59,572.2Z"/><path d="M572.2,650.4c-.82-9.16,1.58-17.49,5.74-25a71.82,71.82,0,0,1,7.78-11.13,71.82,71.82,0,0,1-11.13,7.78c-7.5,4.16-15.83,6.56-25,5.74-10.22,1.77-20.15,5.39-27.44,13.17-9.71,10.39-12.6,27.8-1.74,38.62s28.23,8,38.62-1.74C566.81,670.56,570.43,660.63,572.2,650.4Z"/><path d="M627.8,549.6c.82,9.16-1.58,17.49-5.74,25a71.82,71.82,0,0,1-7.78,11.13,71.82,71.82,0,0,1,11.13-7.78c7.5-4.16,15.83-6.56,25-5.74,10.23-1.77,20.16-5.39,27.45-13.17,9.71-10.39,12.6-27.8,1.74-38.62s-28.23-8-38.62,1.74C633.19,529.44,629.57,539.37,627.8,549.6Zm29.67-24.29a16.86,16.86,0,0,1,11.84,4.38,17.54,17.54,0,0,1,0,25.26,16.86,16.86,0,0,1-11.84,4.38A16.39,16.39,0,0,1,645.05,554a16.74,16.74,0,0,1-4.37-11.14c0-.16,0-.33,0-.49s0-.32,0-.48a16.76,16.76,0,0,1,4.37-11.15A16.43,16.43,0,0,1,657.47,525.31Z"/><path d="M644.87,529.52a18.5,18.5,0,0,0-5.28,12.29c0,.17,0,.34,0,.51s0,.35,0,.52a18.06,18.06,0,0,0,17.87,17.58,18.1,18.1,0,1,0,0-36.2A18.55,18.55,0,0,0,644.87,529.52Zm25.34,12.8a12.58,12.58,0,0,1-3.54,9,14,14,0,0,1-4.29,2.72c-4.16,1.94-9.28,1.62-13.66-2.75a12.3,12.3,0,0,1,0-17.91c4.38-4.38,9.5-4.7,13.66-2.75a13.8,13.8,0,0,1,4.29,2.71A12.6,12.6,0,0,1,670.21,542.32Z"/><path d="M647.72,530.37a16.52,16.52,0,0,0-4.19,10.54c0,.15,0,.29,0,.44s0,.3,0,.45a16.54,16.54,0,0,0,4.19,10.54,14.12,14.12,0,0,0,10,4.54A15,15,0,0,0,668,552.37a16.66,16.66,0,0,0,0-22,15,15,0,0,0-10.35-4.52A14.09,14.09,0,0,0,647.72,530.37Z"/></svg>