<svg id="Layer_1" data-name="Layer 1" xmlns="http://www.w3.org/2000/svg" viewBox="0 0 1200 1200"><defs><style>.cls-1{fill:#2a273d;}</style></defs><path class="cls-1" d="M732.06,600c-3.15,15.63-11.25,16.37-14.25,15.94a11.36,11.36,0,0,1-7.64-4.82A16.79,16.79,0,0,1,707.05,600l0,.58-4.52,0,0-.55a20.07,20.07,0,0,0,1,6.85,32.82,32.82,0,0,0,2.84,6.14c2.29,3.75,5.61,6.85,9.34,8,4.52,1.45,8.9.22,12.58-3.33s6.46-9.2,7.44-16.06a9.84,9.84,0,0,0,.17-1.63"/><path class="cls-1" d="M683.23,660.72a21.36,21.36,0,0,1,2.46-2.73,22.88,22.88,0,0,1,2.63-2.4,23.34,23.34,0,0,1,6.11-3.39c4.2-1.68,8.69-2.21,12.5-.64,4.2,1.72,6.77,5.41,7.53,10.41a24.06,24.06,0,0,1-.57,8,28.79,28.79,0,0,1-3.45,8.76,7.1,7.1,0,0,1-1.76,2.37,27,27,0,0,1-15.31,9,12.94,12.94,0,0,1-6.9-.66,11.72,11.72,0,0,1-5.23-4.09,13.8,13.8,0,0,1-2.32-5.45,23.79,23.79,0,0,1-.41-6.47,22.44,22.44,0,0,1,1.49-6.53A23.18,23.18,0,0,1,683.23,660.72Zm3,2.23a19.47,19.47,0,0,0-3,5.64,13.79,13.79,0,0,0-1,5.14,11.61,11.61,0,0,0,3.51,8.41,11,11,0,0,0,9.1,2.78,16.51,16.51,0,0,0,5.9-2,25.48,25.48,0,0,0,5.86-5.09,28.31,28.31,0,0,0,2-3.64,17.36,17.36,0,0,0,1.07-3.54,16.43,16.43,0,0,0,.17-6.21,10.72,10.72,0,0,0-5.37-7.79,11.76,11.76,0,0,0-9.13-.79,14,14,0,0,0-4.66,2.49,27.15,27.15,0,0,0-2.2,2A21.79,21.79,0,0,0,686.27,663Z"/><path class="cls-1" d="M746.61,600a65,65,0,0,1-1.23,8.83,40.28,40.28,0,0,1-2.06,8.14,50.56,50.56,0,0,1-3.29,7.1,28.53,28.53,0,0,1-4.12,5.77c-6.22,6.69-13.47,9-20.49,6.32-4.26-1.6-8.1-4.78-11.85-8.17s-7.37-7-11.4-10a38.27,38.27,0,0,0-12.56-6.52,28,28,0,0,0-13.64-.25,12.52,12.52,0,0,1-2.11,2.6,16.61,16.61,0,0,1-2.76,2,14.23,14.23,0,0,1-3.09,1.36,13.68,13.68,0,0,1-1.68.4c-.62.09-1.24.15-1.88.18a14.13,14.13,0,0,1,5.45,12.1,28.57,28.57,0,0,0,11.53,8,38.58,38.58,0,0,0,14.31,2c2.56-.06,5.23-.26,7.85-.54s5.15-.65,7.72-.92c5.12-.52,10.15-.75,14.61.8a16,16,0,0,1,8.17,6.36,21.48,21.48,0,0,1,2.49,5.16,21.46,21.46,0,0,1,1.2,6.22,40,40,0,0,1-.2,7,34.74,34.74,0,0,1-1.6,7.52,49.76,49.76,0,0,1-7.6,14.93,63.82,63.82,0,0,1-5.78,6.78,60.77,60.77,0,0,1-6.61,5.27,36.54,36.54,0,0,1-13.61,6,25.75,25.75,0,0,1-6.3.59,20.53,20.53,0,0,1-5.68-1.11,16.39,16.39,0,0,1-8.36-6.57c-2.52-3.82-3.7-8.59-4.7-13.5-.47-2.42-1-5-1.54-7.54s-1.16-5-1.88-7.4a36.93,36.93,0,0,0-6.26-12.65,27.09,27.09,0,0,0-4.84-4.73,32,32,0,0,0-6.05-3.54,17.6,17.6,0,0,1-6.65.9,15.62,15.62,0,0,1-6.61-2.45,16.26,16.26,0,0,1,.6,3.65,12.06,12.06,0,0,1-.35,3.37,16.14,16.14,0,0,1-1.11,3.17,11.26,11.26,0,0,1-1.81,2.87,28,28,0,0,0,4.59,13.15,38.76,38.76,0,0,0,10.48,10.1c4.18,2.84,9,5.32,13.47,8a66.39,66.39,0,0,1,6.32,4.14,22.62,22.62,0,0,1,5,5.07,16.3,16.3,0,0,1,2.92,10,24.46,24.46,0,0,1-3.73,11.25c-4.53,7.64-13.64,14.71-24.59,18.35l-1.71-5.24a51,51,0,0,0,11.23-5.52,39.09,39.09,0,0,0,8.08-7.79c.52-.68,1-1.37,1.42-2.06a21.35,21.35,0,0,0,1.1-2.19,20.14,20.14,0,0,0,1.35-4.33,13.92,13.92,0,0,0-.86-8.13c-1.89-4.31-5.41-7.35-9.28-10s-8.08-4.87-12-7.6A44,44,0,0,1,633.55,676,32.48,32.48,0,0,1,628,662.31a14.19,14.19,0,0,1-1.53,1.18c-.55.32-1.1.62-1.67.91a36.51,36.51,0,0,1-3.35,1.61l-1.86-5.74a23.36,23.36,0,0,0,3.21-1.09c.51-.28,1-.58,1.5-.89a10.76,10.76,0,0,0,1.35-1.18,18.79,18.79,0,0,0,2.29-2.71,10.65,10.65,0,0,0,.87-1.5,13.24,13.24,0,0,0,.58-1.71,12.23,12.23,0,0,0-.26-7.31,25.06,25.06,0,0,0-5.14-8.11,52.72,52.72,0,0,0-6.15-6c-1-.79-1.87-1.49-2.72-2.09s-1.72-1.29-2.48-1.77a29.4,29.4,0,0,1,2.45,4c1.7,3.31,2.13,5.89,1.67,7.94a4.37,4.37,0,0,1-1.27,2.41,6.14,6.14,0,0,1-2,1.39l-1.4-4.3c1-.42,2.19-.56,2.55-1.9s-.09-3.48-1.59-6.14a19.24,19.24,0,0,0-2.94-4.06c-.93-1-1.74-1.44-2.39-1.37l-1.58-4.35.64.36c.12,0,.2.12.33.14s.32.2.34.2.06.12.29.21l.06,0c.35.13.77.42,1.17.61a11,11,0,0,1,1.31.71c.93.54,2.12,1.48,3.26,2.2s2.53,1.81,4,3l2.23,1.77q1.13.91,2.31,2c-.93-2.14-1.7-4.17-2.33-6q-.46-1.34-.93-2.7c-.3-.87-.56-1.68-.79-2.43s-.4-1.43-.55-2.07-.48-1.32-.6-1.88a12.25,12.25,0,0,1-.35-2.73h0c0-.11.27-.18.31-.32s.18,0,.25-.08a.19.19,0,0,1,.21-.1l.4-.17s0,0,0,0a4.35,4.35,0,0,0,.63-.25s0,0,0,0a10.23,10.23,0,0,1,2.86-.39,32,32,0,0,1,3.84-.18c1.6,0,3.13,0,4.93,0s3.8.17,5.94.38c-1.9-1.13-3.87-2.36-5.51-3.46s-3-2.12-4.32-3.07a28.38,28.38,0,0,1-3.2-2.53c-.82-.75-1.88-1.45-1.88-2.07h0a1.7,1.7,0,0,0,0-.39c-.07-.06.08-.12.09-.2l0,.12,3.89,0-.17-.07c.11.61.9,1.34,2.3,2.06a15.84,15.84,0,0,0,2.53,1,16.39,16.39,0,0,0,3.21.68,11.17,11.17,0,0,0,3.26,0,3.91,3.91,0,0,0,1.85-.9,4.44,4.44,0,0,0,1.23-2.88l0,.22,4.52,0,0-.24a5.81,5.81,0,0,1-2.79,4.52c-2,1.06-4.78,1.37-8.62.64a31.51,31.51,0,0,1-3.92-1,57.4,57.4,0,0,0,12.77,7.71,23.93,23.93,0,0,0,9.66,2.11,16.66,16.66,0,0,0,4.5-.69,14.91,14.91,0,0,0,2-.78,7.69,7.69,0,0,0,1.77-1.09,10.56,10.56,0,0,0,3.57-5.24,45.41,45.41,0,0,0,.6-6.19l0,.35,6,0,.28,0a25.66,25.66,0,0,1-1.62,7.16,33.35,33.35,0,0,1,7.71-.27,32.94,32.94,0,0,1,7.56,1.58,46.71,46.71,0,0,1,13.87,7.92c1.83,1.46,3.77,3.08,5.67,4.69s3.77,3.23,5.76,4.68c4,2.89,8.28,5.16,13.23,4.82a15.23,15.23,0,0,0,7.55-2.77,22,22,0,0,0,1.78-1.35c.54-.49,1.07-1,1.59-1.6a30.57,30.57,0,0,0,2.94-3.88,38.65,38.65,0,0,0,2.52-4.65c.38-.83.75-1.68,1.08-2.55s.54-1.77.78-2.69c.95-3.65.92-7.58,1-11.51M624.62,622.66c2,1.8,3.55,2.44,4.89,2.42a2.6,2.6,0,0,0,1.65-.52,4.79,4.79,0,0,0,1.09-1.06A3.41,3.41,0,0,0,633,622a4,4,0,0,0-.3-2c-.56-1.37-2-2.71-4.86-4a17.05,17.05,0,0,0-4.88-1.51,6.12,6.12,0,0,0-1.6,0,2.48,2.48,0,0,0-1.13.29,2.22,2.22,0,0,0,.07,1.28,15.53,15.53,0,0,0,.73,1.88A16,16,0,0,0,624.62,622.66Zm34.67,11.23a20.65,20.65,0,0,1-3.35,6.91,31.72,31.72,0,0,1-2.44,2.92,23.29,23.29,0,0,1-3.12,2.37,32,32,0,0,1,11.53,10,40.7,40.7,0,0,1,3.9,6.94,49,49,0,0,1,2.71,7.7c1.21,4.45,2.15,9.52,3.68,14.24s3.64,9,7.84,11.67c4.35,2.75,10.31,2.71,16.71.35a41.64,41.64,0,0,0,9.19-5.49c.75-.58,1.49-1.19,2.21-1.82s1.37-1.35,2-2.06a56.05,56.05,0,0,0,3.74-4.52,38.14,38.14,0,0,0,3.44-5.4,51,51,0,0,0,2.45-5.7,43.53,43.53,0,0,0,1.6-5.63,32.56,32.56,0,0,0,.48-5.47,22.25,22.25,0,0,0-1.79-9.27,13.86,13.86,0,0,0-5.54-6.15c-4.08-2.38-8.67-2.78-13.31-2.66s-9.66.67-14.24.81a50,50,0,0,1-7.75-.32,39.73,39.73,0,0,1-7.48-1.72A32.21,32.21,0,0,1,659.29,633.89Zm-18.94-19.14a50.05,50.05,0,0,0-8.28-1.16,41.63,41.63,0,0,0-6.51-.1,29.61,29.61,0,0,1,4.26,1.75c3.32,1.68,5.38,3.63,6,5.48a5,5,0,0,1-.54,5,5.8,5.8,0,0,1-1.93,1.64,6.16,6.16,0,0,1-2.94.36c-2.15-.23-4.51-1.55-7.21-4.42a32.23,32.23,0,0,1-2.57-3.12A54.93,54.93,0,0,0,626.34,634a24.19,24.19,0,0,0,6.63,7.46,14,14,0,0,0,8.23,2.79,8.7,8.7,0,0,0,3.37-.57,12.55,12.55,0,0,0,2.66-1.54,12.9,12.9,0,0,0,2.28-2.09l1.92-2.51a14.7,14.7,0,0,0,2.41-13.24,12.09,12.09,0,0,0-.66-1.63,10.77,10.77,0,0,0-1-1.56,13.6,13.6,0,0,0-2.84-2.71A24.64,24.64,0,0,0,640.35,614.75Z"/><path class="cls-1" d="M656.21,704.66c-2.14-3.46-6.33-5.7-10.78-6.78-4.42-.92-9.54-1.83-13.76-.35l1.4,4.3a19.14,19.14,0,0,1,6.06-1.29,17.42,17.42,0,0,1,5.15.82,11.47,11.47,0,0,1,6.8,5.86,11.07,11.07,0,0,1-.09,9.48,13.69,13.69,0,0,1-3.69,4.83,25.33,25.33,0,0,1-6.51,4.09l1.17,3.6a6.61,6.61,0,0,0,1.07-.53,37.32,37.32,0,0,0,8-5,22.66,22.66,0,0,0,5.12-6.32C658.49,713,658.6,708.54,656.21,704.66Z"/><path class="cls-1" d="M615.68,716.51c0,4.75,2.53,8.55,7,11a21.42,21.42,0,0,0,3.7,1.56,25.2,25.2,0,0,0,4.26.74,36.25,36.25,0,0,0,9.76-.44,4.38,4.38,0,0,0,1.52-.13l-.14-.44-1-3,0-.12c-5.73,1.31-10.77.76-14-.93a10.78,10.78,0,0,1-5.62-7.66,11.59,11.59,0,0,1,2.24-8.79,14.87,14.87,0,0,1,3.84-3.73,17.24,17.24,0,0,1,2.66-1.46c1-.43,2-.78,3.15-1.22l-.06-.18-1.16-3.58-.18-.54c-1.11.44-2.22.81-3.26,1.31a22,22,0,0,0-3,1.74,28.93,28.93,0,0,0-5,4.63C617.59,708.51,615.66,712.61,615.68,716.51Z"/><path class="cls-1" d="M568,698c1.17.47,2.32.88,3.41,1.39a22.7,22.7,0,0,1,3.09,1.81,23.57,23.57,0,0,1,2.74,2.25c.42.4.84.82,1.23,1.26s.79.81,1.15,1.24c2.92,3.4,4.79,7.62,4.49,11.7-.33,4.54-3,8.1-7.54,10.33a19.35,19.35,0,0,1-3.67,1.39,28.14,28.14,0,0,1-4.18.64,36.57,36.57,0,0,1-9.45-.52,4,4,0,0,1-1.44-.34,4,4,0,0,1-1.35-.64,37.23,37.23,0,0,1-8.23-5.25,23.75,23.75,0,0,1-5.07-6.63c-2.26-4.54-2.08-9,.71-12.91,2.29-3.17,6.26-5.34,10.55-6.33A25.25,25.25,0,0,1,568,698Zm-1.16,3.58a19.67,19.67,0,0,0-6.27-1.21,19.56,19.56,0,0,0-5.25.74,11.33,11.33,0,0,0-6.89,5.87,11.1,11.1,0,0,0,.14,9.58,13.51,13.51,0,0,0,1.52,2.55,17.7,17.7,0,0,0,2.26,2.35,25.88,25.88,0,0,0,6.65,4.11,18,18,0,0,0,4.1.66,25.12,25.12,0,0,0,3.71-.07,16.39,16.39,0,0,0,6-1.7,10.89,10.89,0,0,0,3.91-3.35,10.55,10.55,0,0,0,1.85-4.28,10.72,10.72,0,0,0-.13-4.51,13.15,13.15,0,0,0-2-4.31,14.23,14.23,0,0,0-3.8-3.73,16.9,16.9,0,0,0-2.63-1.46C569,702.39,567.94,702,566.83,701.58Z"/><path class="cls-1" d="M582.82,612.21a2.55,2.55,0,0,1,0,.41,2.3,2.3,0,0,1,0,.39s0,0,0,0a4.39,4.39,0,0,1,0,.72s0,0,0,0a12.34,12.34,0,0,1-.42,2.79c-.35,1.19-.59,2.35-1,3.77-.22.71-.47,1.47-.74,2.28s-.57,1.65-.86,2.47c-.57,1.67-1.28,3.51-2.13,5.46.87-.76,1.72-1.47,2.54-2.13l2.44-1.92c1.6-1.26,3.06-2.34,4.31-3.19.61-.38,1.26-.89,1.83-1.28s1.1-.89,1.58-1.15c.91-.44,1.8-1.29,2.46-1.29h0c.12,0,.22.29.35.29s.07.21.13.27.12.1.15.2.19.17.28.27l.05,0a3,3,0,0,1,.42.49s0,0,.05,0a9.49,9.49,0,0,1,.6,1.16l.3.73c.11.21.22.44.33.68a35,35,0,0,1,1.36,3.71A81.85,81.85,0,0,1,600,637.91c.51-2.3,1.09-4.46,1.66-6.36.28-.95.56-1.84.84-2.66l.42-1.18.38-1.23a33.23,33.23,0,0,1,1.43-4.11c.42-1.14,1-1.33,1.48-2.84l.05.14c.12,0,.14.37.07.18s0,.24.1.2l.05.16,1.31,3.67-.13.08a3.64,3.64,0,0,0-1.16,2.56,18.16,18.16,0,0,0,.19,6c.54,2.65,1.4,3.92,2.43,4.53a3.49,3.49,0,0,0,1.58.48,2.8,2.8,0,0,0,1.46-.2l.09.2,1.31,4.1h0a2.5,2.5,0,0,1-1.22.21,6.61,6.61,0,0,1-1.32-.16,5.76,5.76,0,0,1-2.52-1.28c-1.62-1.55-2.77-4.16-3.26-8a30.92,30.92,0,0,1-.26-4c-.33.81-.66,1.76-1,2.82s-.65,2.25-1,3.37a49.48,49.48,0,0,0-1.52,8.3,23.67,23.67,0,0,0,1,9.85,16.85,16.85,0,0,0,2,4.09,14.82,14.82,0,0,0,1.39,1.73,11.16,11.16,0,0,0,1.57,1.3,10.64,10.64,0,0,0,3,1.42,7.48,7.48,0,0,0,3,.36,22.76,22.76,0,0,0,3-.5l1.51-.36.77-.19.74-.29.11.34,1.72,5.31,0,.09a8.59,8.59,0,0,1-1.82.5c-.63.12-1.26.23-1.9.31a29.52,29.52,0,0,1-3.87.29,32,32,0,0,1,3.44,14.9A45.84,45.84,0,0,1,614,697.63c-.82,2.2-1.78,4.49-2.73,6.84s-1.9,4.58-2.66,6.94c-1.52,4.67-2.34,9.44-.51,14.06a15.49,15.49,0,0,0,4.92,6.37,24.7,24.7,0,0,0,8.44,3.87,32.36,32.36,0,0,0,10.77,1.11,50.32,50.32,0,0,0,5.78-.64,31.75,31.75,0,0,0,5.56-2l.28.85,1.21,3.74.22.65a28.68,28.68,0,0,1-4.48.82c-1.46.32-2.91.58-4.35.79a47.89,47.89,0,0,1-8.43.58,42,42,0,0,1-14.51-3.1c-8.23-3.91-12.63-10.15-12.26-17.61.2-4.58,2-9.17,4.1-13.78l3.19-6.9c.52-1.16,1-2.29,1.5-3.46s.92-2.39,1.33-3.58a38.21,38.21,0,0,0,2.36-13.92,28.21,28.21,0,0,0-4-13.07,18.35,18.35,0,0,1-3.13-1.18,17.54,17.54,0,0,1-2.78-2,14.67,14.67,0,0,1-3.91-5.69A14.55,14.55,0,0,1,596,663a16.34,16.34,0,0,1-2.79,2,18.91,18.91,0,0,1-3.14,1.15,28.31,28.31,0,0,0-4,13.4,39.27,39.27,0,0,0,2.56,14.29c.43,1.22.89,2.45,1.39,3.67s1,2.36,1.56,3.54c1.08,2.36,2.21,4.73,3.25,7.1,2.07,4.73,3.83,9.46,3.74,14.18-.11,7.15-4.85,13.14-13.12,16.8A45.08,45.08,0,0,1,571.1,742a57,57,0,0,1-8.21-.66c-1.4-.21-2.8-.47-4.21-.78l-2.12-.5c-.69-.2-1.38-.44-2.07-.68-5.74-2.07-11.13-4.6-15.36-8.13a48.7,48.7,0,0,1-5.77-5.31,30.73,30.73,0,0,1-4.13-5.82A22.67,22.67,0,0,1,526,708.61a16.63,16.63,0,0,1,3.71-10,25.32,25.32,0,0,1,5.12-4.7c1.93-1.38,4.05-2.64,6.29-3.94,4.44-2.56,9.09-5,13.15-7.8a43.11,43.11,0,0,0,5.67-4.62,31.45,31.45,0,0,0,4.47-5.33,28,28,0,0,0,4.5-12.86,11.65,11.65,0,0,1-1.76-2.92,16,16,0,0,1-1.1-3.18,13.68,13.68,0,0,1,.27-7,15.29,15.29,0,0,1-6.65,2.45,17.81,17.81,0,0,1-6.64-1,27.89,27.89,0,0,0-11.1,8.43,32.62,32.62,0,0,0-3.74,6.07,48.75,48.75,0,0,0-2.58,6.94c-.72,2.45-1.32,5-1.87,7.59s-1.08,5.17-1.6,7.71c-1.07,5-2.4,9.82-5.26,13.57a16.25,16.25,0,0,1-8.58,5.82,19.63,19.63,0,0,1-5.65.78,28.27,28.27,0,0,1-6.2-.82,39.65,39.65,0,0,1-6.64-2.24,41.45,41.45,0,0,1-6.53-3.83,55.25,55.25,0,0,1-6.31-5.12,80,80,0,0,1-5.62-7.32l3.67-2.64a42.35,42.35,0,0,0,19.44,14.48c6.68,2.06,12.68,1.4,16.78-2.27,3.51-3.11,5.34-7.41,6.73-11.94s2.28-9.34,3.53-13.7a44.19,44.19,0,0,1,6.72-13.9,32.28,32.28,0,0,1,11.26-9.49,20.2,20.2,0,0,1-3.05-2.34c-.87-.92-2-2.12-2.72-3.07l4.9-3.52a28.43,28.43,0,0,0,2.16,3.07,15.87,15.87,0,0,0,2.93,2,15.33,15.33,0,0,0,3.23,1.4,14.47,14.47,0,0,0,3.57.35,11.91,11.91,0,0,0,3.48-.62,12.55,12.55,0,0,0,3.4-1.89,25.2,25.2,0,0,0,6.16-7.41c.8-1.33,1.48-2.64,2.08-3.9s1.17-2.54,1.63-3.71.88-2.3,1.2-3.31.54-1.9.83-2.84a30,30,0,0,1-3,3.57c-2.63,2.64-4.93,3.8-7,4a5.36,5.36,0,0,1-2.76-.42,7.24,7.24,0,0,1-2-1.7l3.67-2.64c.33.41.7,1.21,1.21,1.49.26.15.32.27.62.35s.54.24.92.2c1.51-.15,3.25-1.12,5.35-3.39,1.41-1.52,1.67-5.61,2.19-6.73m7.65,15.69c-1.1,2.39-1.27,4.23-.81,5.4a4,4,0,0,0,2.3,2.13,2.67,2.67,0,0,0,1.71.11,3.78,3.78,0,0,0,1.77-.83c1.11-.92,1.93-2.69,2.3-5.82a18.54,18.54,0,0,0-.05-5.18,6.22,6.22,0,0,0-.46-1.56,3.71,3.71,0,0,0-.64-.88c-.59-.06-1.55.54-2.7,1.72A16.79,16.79,0,0,0,586.09,630.47Zm0,36.47a31.32,31.32,0,0,1-3.87-.27c-.65-.08-1.28-.18-1.91-.29l-.93-.19-.89-.31a31.17,31.17,0,0,1-3.49-1.51c-.57-.29-1.14-.6-1.7-.92s-1-.81-1.54-1.23a32.06,32.06,0,0,1-6,14.07,47.35,47.35,0,0,1-11.89,10.8c-3.91,2.61-8.37,4.92-12.39,7.82s-7.46,6.25-8.68,11a14.65,14.65,0,0,0,.32,7.93,21.7,21.7,0,0,0,4.51,8.09,41.83,41.83,0,0,0,8,7.18,53.85,53.85,0,0,0,10.52,5c8.28,2.6,17,2.9,23.63.64a20.29,20.29,0,0,0,8.25-4.58,14.13,14.13,0,0,0,4.1-7.19c1-4.61,0-9.11-1.58-13.51s-3.63-8.93-5.18-13.24a42.61,42.61,0,0,1-2.81-15A32.11,32.11,0,0,1,586.08,666.94Zm12.37-24a49,49,0,0,0-1.5-8.3c-.32-1.12-.64-2.25-1-3.39s-.65-2-1-2.82a29.81,29.81,0,0,1-.34,4.61c-.56,3.68-1.78,6.17-3.35,7.51a6,6,0,0,1-2.46,1.14,6.91,6.91,0,0,1-1.27.12c-.2,0-.41,0-.61,0a5.14,5.14,0,0,1-.55-.2,5.92,5.92,0,0,1-2.1-1.42,5.82,5.82,0,0,1-.8-1.08,7,7,0,0,1-.45-1.51c-.42-2.16.15-4.86,2-8.29a31.35,31.35,0,0,1,2.16-3.4c-.75.47-1.64,1.17-2.48,1.75s-1.77,1.3-2.74,2.09a54.32,54.32,0,0,0-6.17,5.95,23.76,23.76,0,0,0-5,8.56,14.81,14.81,0,0,0-.15,8.71,10.51,10.51,0,0,0,3.86,5.07,10.33,10.33,0,0,0,2.71,1.43l2.94,1.14a11.31,11.31,0,0,0,3.25.66,23.9,23.9,0,0,0,3.49.06,15.5,15.5,0,0,0,6.59-2.54,12.61,12.61,0,0,0,4.24-6.19A24.12,24.12,0,0,0,598.45,642.94Z"/><path class="cls-1" d="M517.88,685.75a12.52,12.52,0,0,0,2.61-5.55,23.76,23.76,0,0,0,.5-6.74,24.45,24.45,0,0,0-1.11-6.75,25.87,25.87,0,0,0-3.09-6.89l-3.67,2.64a22.72,22.72,0,0,1,3.35,5.88,14.43,14.43,0,0,1,.89,5.07,11.65,11.65,0,0,1-3.53,8.31,10.87,10.87,0,0,1-9,2.81,15.51,15.51,0,0,1-5.81-1.92,30.5,30.5,0,0,1-6.24-5.53l-2.91,2.09a10.51,10.51,0,0,0,1.11,1.55,39.37,39.37,0,0,0,3.48,3.38c.6.51,1.2,1,1.81,1.44s1.27.82,1.92,1.19a24.32,24.32,0,0,0,7.54,2.92A12.2,12.2,0,0,0,517.88,685.75Z"/><path class="cls-1" d="M494.09,651c-4.5,1.48-7.36,5.07-8.31,10.14a22,22,0,0,0,.35,8.24,28.55,28.55,0,0,0,3.4,9.07,2.45,2.45,0,0,0,.52.95l-.16-.22,2.91-2.09.26.29a29.45,29.45,0,0,1-2.08-3.59,21.51,21.51,0,0,1-1-3.54,16.33,16.33,0,0,1-.14-6.16,10.5,10.5,0,0,1,5.43-7.66,11.94,11.94,0,0,1,9.15-.66,14.19,14.19,0,0,1,4.67,2.53,22.06,22.06,0,0,1,2.19,2.07,22.82,22.82,0,0,1,2.22,2.56l-.35-.46,3.67-2.64.33.44a19,19,0,0,0-2.35-2.62,21.19,21.19,0,0,0-2.53-2.31,23.47,23.47,0,0,0-5.93-3.3C502.18,650.38,497.82,649.75,494.09,651Z"/><path class="cls-1" d="M496.92,599.86a21.69,21.69,0,0,1-1,7.14,22.82,22.82,0,0,1-1.32,3.29,33.34,33.34,0,0,1-1.6,3c-2.36,3.83-5.83,6.91-9.8,7.87-4.42,1.07-8.62-.41-12.11-4a22.54,22.54,0,0,1-2.46-3.06,21.63,21.63,0,0,1-1.91-3.75,37.8,37.8,0,0,1-2.38-9.09,3.59,3.59,0,0,1-.18-1.46,4,4,0,0,1,.2-1.47c1-6.88,3.38-12.72,7.19-16.24,3.66-3.55,8-4.78,12.56-3.33,3.72,1.19,7,4.29,9.2,8.05.58.95,1,1.93,1.5,3A23.8,23.8,0,0,1,496,593,20.47,20.47,0,0,1,496.92,599.86Zm-3.77,0A16.48,16.48,0,0,0,490,588.8a10.92,10.92,0,0,0-16.77-1.61c-2.62,2.55-4.69,6.81-5.32,12.63.59,5.83,2.68,10.09,5.29,12.66a11.15,11.15,0,0,0,9.08,3.13,11.36,11.36,0,0,0,7.7-4.7A16.61,16.61,0,0,0,493.15,599.86Z"/><path class="cls-1" d="M578.44,614.78c-1.49.23-5.17.31-7.3,1.52-2.32,1.31-3.31,2.56-3.59,3.75a3.76,3.76,0,0,0,0,1.7,5,5,0,0,0,.75,1.28l-.13-.17-3.67,2.64.15.19c-1.12-1.23-1.2-3.33-.41-5.23a6.9,6.9,0,0,1,.85-1.43,9.93,9.93,0,0,1,1.4-1.45,19.84,19.84,0,0,1,4.29-2.66,30,30,0,0,1,3.72-1.49,43.6,43.6,0,0,0-6.49.08,50.22,50.22,0,0,0-8.29,1.14,24.24,24.24,0,0,0-9.08,4,17.38,17.38,0,0,0-3.3,3.22,11.75,11.75,0,0,0-1.89,3.71,8.84,8.84,0,0,0,.21,6.32,19.81,19.81,0,0,0,3.15,5.32l-.2-.27-4.9,3.52.23.3a20.17,20.17,0,0,1-3.39-6.89,31.9,31.9,0,0,1-13.1,7.9,39.75,39.75,0,0,1-7.85,1.61,55.68,55.68,0,0,1-8.08.16c-4.62-.21-9.91-.81-14.81-.84s-9.68.68-13.52,3.87c-4.11,3.37-5.88,9.06-5.56,15.91A33,33,0,0,0,479.93,673a55,55,0,0,0,2.33,5.32,39.32,39.32,0,0,0,3.19,4.95l-.45-.62-3.67,2.64.47.64c-.9-1.22-1.75-2.46-2.55-3.7a41.7,41.7,0,0,1-2.07-3.9,60.25,60.25,0,0,1-3.13-7.83c-.2-.65-.4-1.29-.57-1.93s-.27-1.3-.39-2c-.23-1.29-.41-2.57-.53-3.81a37.52,37.52,0,0,1-.07-7.09,22.83,22.83,0,0,1,1.44-6.21,20.15,20.15,0,0,1,2.73-5,16.12,16.12,0,0,1,8.76-5.91c4.41-1.22,9.34-.88,14.33-.33l7.52.92c2.58.25,5.15.44,7.65.48a37.69,37.69,0,0,0,13.89-2,28.52,28.52,0,0,0,11.24-7.84,14.35,14.35,0,0,1,5.47-12.07,12.78,12.78,0,0,1-3.58-.57,14.61,14.61,0,0,1-3.1-1.37,15.79,15.79,0,0,1-2.74-2,12.88,12.88,0,0,1-2.09-2.62,28.1,28.1,0,0,0-14,.3,39.35,39.35,0,0,0-12.86,6.83c-4.1,3.1-7.78,6.84-11.69,10.31s-7.85,6.6-12.36,8c-6.85,2.11-14-.6-20-7.41a42.8,42.8,0,0,1-9-20.77,62.89,62.89,0,0,1-.77-8.53,65.19,65.19,0,0,1,.87-8.85,39.23,39.23,0,0,1,2.1-8.16,50.77,50.77,0,0,1,3.33-7.11,28.63,28.63,0,0,1,4.17-5.76c6.28-6.69,13.55-9,20.59-6.29,4.23,1.6,8.1,4.8,11.86,8.21s7.42,7.07,11.44,10.07a38.8,38.8,0,0,0,12.63,6.56,28.22,28.22,0,0,0,13.66.27,13.56,13.56,0,0,1,4.88-4.6,13.71,13.71,0,0,1,6.66-1.92,15,15,0,0,1-4.31-5.52c-.23-.52-.44-1.06-.63-1.6a12.92,12.92,0,0,1-.33-1.62,19.65,19.65,0,0,1-.18-3.36,28.37,28.37,0,0,0-11.52-8,38.35,38.35,0,0,0-14.3-2c-2.57.06-5.22.26-7.86.53s-5.16.65-7.72.92c-5.13.52-10.15.75-14.61-.8a16,16,0,0,1-8.13-6.35,21.46,21.46,0,0,1-2.48-5.16,26.84,26.84,0,0,1-.82-3,32,32,0,0,1-.38-3.19,39.45,39.45,0,0,1,.18-7,34.66,34.66,0,0,1,1.56-7.47,49.52,49.52,0,0,1,7.43-14.76l4.46,3.24a36.64,36.64,0,0,0-3.39,5.37,52,52,0,0,0-2.4,5.67,44.73,44.73,0,0,0-1.57,5.58,31.92,31.92,0,0,0-.44,5.42,22.07,22.07,0,0,0,1.81,9.2,13.83,13.83,0,0,0,5.51,6.1c4.08,2.39,8.66,2.76,13.33,2.64s9.66-.68,14.24-.81a46.58,46.58,0,0,1,7.75.33,38.82,38.82,0,0,1,7.48,1.74,32.13,32.13,0,0,1,12.48,7.78,20.63,20.63,0,0,1,3.25-6.77l4.52,3.28c-2.72,3.52-4,8.9-2.38,13.31a11.18,11.18,0,0,0,.68,1.59,12,12,0,0,0,1.05,1.54,14,14,0,0,0,2.86,2.65,25.31,25.31,0,0,0,8.94,3.55,50,50,0,0,0,8.29,1.17,42.6,42.6,0,0,0,6.5.09,29.61,29.61,0,0,1-4.26-1.75c-3.3-1.67-5.33-3.61-6-5.44a5.34,5.34,0,0,1,.56-5.17l3.64,2.68c-.29.43-1.32.66-1.38,1.27a4.09,4.09,0,0,0,.32,2c.56,1.37,2,2.71,4.82,4a18.34,18.34,0,0,0,4.8,1.56,5,5,0,0,0,1.58,0,3.9,3.9,0,0,0,1.41-.33l3.25,2.36a2.85,2.85,0,0,1-.5.14,4.15,4.15,0,0,1-.45.12l-.68.15c-.24.05.23-.13,0,0,0,0,0,0,0,0a10.59,10.59,0,0,1-2.85.38,32.45,32.45,0,0,1-3.84.17c-1.59,0-3.14,0-4.94-.06s-3.79-.17-5.92-.39c1.9,1.15,3.84,2.37,5.49,3.48s3,2.13,4.31,3.07a28.86,28.86,0,0,1,3.21,2.53c.32.36.84.75,1.14,1.09s.73.68.73,1h0c0,.13-.09.26,0,.39s-.11.12-.16.2a.17.17,0,0,1-.05.2,3.3,3.3,0,0,1-.13.37s0,0,0,0a3.4,3.4,0,0,1-.36.58s0,0,0,0a9.45,9.45,0,0,1-.95,1c-.43.35-.66.67-1.1,1A39.58,39.58,0,0,1,573,605.7c-1.1.86-2.43,1.82-4,2.84s-3.3,2.14-5,3.18c2.35-.24,4.54-.36,6.5-.43l5.35-.08c.8,0,1.53,0,2.18,0l.92.08.94,0a7.05,7.05,0,0,1,2.65.58h0a1.21,1.21,0,0,0,.3.25c.11,0,0,.13.08.18l-.07-.08m-16.09-16.19a11.26,11.26,0,0,0-3.32,0A4,4,0,0,0,560,600a4.15,4.15,0,0,0,1.79,3.15c1.15.8,3.23,1,6.27.42a17.9,17.9,0,0,0,4.9-1.68c1.18-.64,1.82-1.28,1.94-1.87-.1-.61-.93-1.36-2.38-2.11a17.5,17.5,0,0,0-2.57-1.06A17,17,0,0,0,566.74,596.12ZM532.1,607.5a29,29,0,0,1-1.4-7.58,26.6,26.6,0,0,1,1.4-7.57,32.81,32.81,0,0,1-7.71.26,32.38,32.38,0,0,1-7.53-1.59A46.7,46.7,0,0,1,503,583.09c-1.83-1.46-3.78-3.08-5.63-4.69s-3.74-3.22-5.71-4.67c-4-2.89-8.21-5.15-13.16-4.83-5.16.34-10.25,3.84-13.71,9.59a36.15,36.15,0,0,0-2.47,4.63c-.38.82-.73,1.67-1.06,2.54s-.54,1.77-.77,2.68a53.31,53.31,0,0,0-1.59,11.46,51.67,51.67,0,0,0,1.8,12.39,27.47,27.47,0,0,0,2.12,5.47,34.66,34.66,0,0,0,2.77,4.72,19.78,19.78,0,0,0,6.92,6.44,14,14,0,0,0,8.09,1.72c4.68-.46,8.66-2.84,12.37-5.68,1.88-1.42,3.61-3,5.46-4.5s3.69-3.08,5.53-4.49a43.28,43.28,0,0,1,13.44-7.29A32.27,32.27,0,0,1,532.1,607.5Zm26.58,4.37a58.09,58.09,0,0,0,12.8-7.7,29,29,0,0,1-4.51,1.09c-3.7.6-6.33.2-8.19-.88a6,6,0,0,1-2.52-4.42,5.76,5.76,0,0,1,2.78-4.51c2-1.06,4.75-1.36,8.6-.63a30.2,30.2,0,0,1,3.87,1c-1.37-1.13-3.31-2.45-5.29-3.76a53.87,53.87,0,0,0-7.51-4,23.9,23.9,0,0,0-9.7-2.13,16.8,16.8,0,0,0-4.52.67,15.4,15.4,0,0,0-2.06.79,7.67,7.67,0,0,0-1.79,1.08,11.26,11.26,0,0,0-3.66,5.24,41.23,41.23,0,0,0-.7,6.22,21.89,21.89,0,0,0,1.41,6.67,16.15,16.15,0,0,0,4.45,5.5,12.89,12.89,0,0,0,7.18,2.1A24.62,24.62,0,0,0,558.68,611.87Z"/><path class="cls-1" d="M493.12,548.41c3.79,1.56,8.31.82,12.59-.88a25.21,25.21,0,0,0,6.09-3.35,24.88,24.88,0,0,0,2.56-2.24c.85-.76,2.08-1.25,2.76-2.14l-3.5-2.54a21.19,21.19,0,0,1-2.18,2.46,22.81,22.81,0,0,1-2.16,2,13.71,13.71,0,0,1-4.6,2.39,11.91,11.91,0,0,1-9.06-.83,10.71,10.71,0,0,1-5.38-7.65,16.41,16.41,0,0,1,.1-6.11,18.13,18.13,0,0,1,1-3.48,27.07,27.07,0,0,1,1.89-3.58l-3.07-2.23a7.11,7.11,0,0,0-.58,1,28.43,28.43,0,0,0-3.45,8.74,24.24,24.24,0,0,0-.57,8C486.35,543,488.92,546.68,493.12,548.41Z"/><path class="cls-1" d="M513.62,537.26l3,2.21.46.33a21.58,21.58,0,0,0,3.14-6.2,22.56,22.56,0,0,0,1.4-6.57,23.69,23.69,0,0,0-.49-6.52,14.08,14.08,0,0,0-2.36-5.48,11.8,11.8,0,0,0-5.24-4.08,12.9,12.9,0,0,0-3.32-.8,14.49,14.49,0,0,0-3.58.14A26.69,26.69,0,0,0,491.25,519a4.86,4.86,0,0,0-1,1.06l-.1.11,2.93,2.13.14.1a28,28,0,0,1,6-5.46,16.43,16.43,0,0,1,5.88-2,10.7,10.7,0,0,1,9,2.84,11.7,11.7,0,0,1,3.41,8.46,14.44,14.44,0,0,1-1,5.17"/><path class="cls-1" d="M568.31,502a25.83,25.83,0,0,1-14,.45c-4.4-1.11-8.41-3.47-10.57-6.95-2.39-3.87-2.28-8.3.1-12.7a22.84,22.84,0,0,1,5.12-6.33,37.79,37.79,0,0,1,8-5,3.77,3.77,0,0,1,1.35-.63,3.63,3.63,0,0,1,1.45-.34,37.27,37.27,0,0,1,9.78-.44,24.51,24.51,0,0,1,4.27.75,20.65,20.65,0,0,1,3.7,1.55c4.51,2.42,7,6.21,7,11,0,3.9-1.94,7.94-4.84,11.18-.37.41-.75.8-1.14,1.19s-.8.81-1.22,1.2a23,23,0,0,1-2.67,2.14A24.69,24.69,0,0,1,568.31,502Zm-1.15-3.59c4.55-1.41,7.67-3.58,9.59-6.39a11.48,11.48,0,0,0,2.13-8.8,11,11,0,0,0-5.74-7.66,16.4,16.4,0,0,0-5.94-1.71,22.5,22.5,0,0,0-7.8.55,26,26,0,0,0-6.67,4.11,14.17,14.17,0,0,0-3.81,4.88,11.1,11.1,0,0,0-.16,9.58,11.31,11.31,0,0,0,6.87,5.88,17.84,17.84,0,0,0,5.26.77A19.4,19.4,0,0,0,567.16,498.36Z"/><path class="cls-1" d="M481.48,513.87a65.54,65.54,0,0,1,6.06-6.55,59.7,59.7,0,0,1,6.57-5.29,36.27,36.27,0,0,1,13.53-6,26.13,26.13,0,0,1,6.26-.63,20.45,20.45,0,0,1,5.67,1.09,16.3,16.3,0,0,1,8.35,6.54c2.53,3.81,3.72,8.57,4.71,13.46s2,10.18,3.41,14.88a45.18,45.18,0,0,0,2.57,6.72,31.69,31.69,0,0,0,3.67,5.87,28.15,28.15,0,0,0,10.87,8.23,17.85,17.85,0,0,1,6.65-.92,15.53,15.53,0,0,1,6.62,2.45,13.56,13.56,0,0,1-.26-7,16.86,16.86,0,0,1,1.12-3.17,11.47,11.47,0,0,1,1.8-2.88,28,28,0,0,0-4.6-13.15,32.49,32.49,0,0,0-4.63-5.4A44.68,44.68,0,0,0,554,517.4c-4.18-2.83-9-5.31-13.47-7.95a65.11,65.11,0,0,1-6.32-4.13,22.79,22.79,0,0,1-5-5.06,16.38,16.38,0,0,1-3-10A24.47,24.47,0,0,1,530,479c4.55-7.68,13.77-14.78,24.93-18.44a49.69,49.69,0,0,1,8.74-1.95,46.16,46.16,0,0,1,8.45-.54,41.9,41.9,0,0,1,14.55,3.18c8.24,4,12.63,10.25,12.25,17.71-.21,4.58-2,9.18-4.13,13.81-1.06,2.28-2.13,4.61-3.2,6.93-.53,1.16-1,2.31-1.51,3.46s-.93,2.41-1.33,3.6a38.22,38.22,0,0,0-2.38,14,28.27,28.27,0,0,0,3.93,13.11,17.29,17.29,0,0,1,3.13,1.19,17,17,0,0,1,2.77,2,14.63,14.63,0,0,1,3.91,5.7,14.66,14.66,0,0,1,3.94-5.73,16.29,16.29,0,0,1,2.79-2,19.36,19.36,0,0,1,3.13-1.14,28.37,28.37,0,0,0,4-13.4,39.06,39.06,0,0,0-2.56-14.29c-.42-1.22-.89-2.45-1.38-3.68s-1-2.36-1.57-3.54c-1.07-2.36-2.2-4.73-3.25-7.1-2.07-4.73-3.82-9.46-3.72-14.18.11-7.12,4.87-13.1,13.09-16.74a45.15,45.15,0,0,1,14.28-2.84,55.45,55.45,0,0,1,8.11.62c1.38.2,2.77.45,4.16.75a28.72,28.72,0,0,1,4.13,1.13l-1.71,5.24c-8.23-2.52-16.85-2.79-23.43-.52a20,20,0,0,0-8.16,4.58,14.1,14.1,0,0,0-4.07,7.15c-1,4.61.05,9.11,1.6,13.51.39,1.1.82,2.19,1.26,3.27l1.35,3.36c.91,2.24,1.81,4.45,2.58,6.62a42.35,42.35,0,0,1,2.78,15.05A32.32,32.32,0,0,1,614,533.15a30.06,30.06,0,0,1,3.8.25c.63.08,1.25.17,1.86.28a7.45,7.45,0,0,1,1.77.47l-1.83,5.64c-.51-.22-1-.69-1.52-.77s-1.14-.17-1.72-.22a23,23,0,0,0-3.52-.07,15.59,15.59,0,0,0-6.51,2.6,12.52,12.52,0,0,0-4.11,6.2,25,25,0,0,0-.62,9.6,49,49,0,0,0,1.51,8.29l1,3.4c.33,1.06.65,2,1,2.82a29.81,29.81,0,0,1,.34-4.61c.56-3.65,1.77-6.13,3.33-7.47a5.77,5.77,0,0,1,2.43-1.15,5.92,5.92,0,0,1,1.24-.15,3.52,3.52,0,0,1,1.38.24l-1.3,4.35c-.47-.24-1.17-1-1.76-.88a3.93,3.93,0,0,0-1.75.86c-1.1.92-1.92,2.68-2.29,5.78a18.87,18.87,0,0,0,0,5.1,5.8,5.8,0,0,0,.45,1.57,3.63,3.63,0,0,0,.69.91l-1.06,4a4,4,0,0,1-.39-.5,1.32,1.32,0,0,0-.19-.29l-.14-.18a1.07,1.07,0,0,1-.26-.32h0a7.71,7.71,0,0,1-.61-1.16l-.29-.73-.33-.68a35.26,35.26,0,0,1-1.35-3.71,82,82,0,0,1-3-10.46c-.51,2.28-1.09,4.45-1.66,6.35-.29,1-.57,1.84-.85,2.67l-.42,1.18-.38,1.21a34.61,34.61,0,0,1-1.44,4.13,24,24,0,0,0-1.32,2.75h0c-.12,0-.27-.38-.37-.29s-.13-.21-.21-.2-.12,0-.2-.08a1.76,1.76,0,0,1-.37-.08l0,0a3.68,3.68,0,0,1-.65-.2s0,0,0,0c-.35-.13-.78-.44-1.18-.6a13.7,13.7,0,0,1-1.31-.71c-.93-.56-2.11-1.47-3.26-2.2s-2.54-1.81-4-3l-2.22-1.76c-.75-.61-1.53-1.25-2.32-2,.93,2.14,1.7,4.17,2.33,6s1.31,3.67,1.73,5.14c.24.75.4,1.41.57,2.06s.39,1.33.51,1.89a8.25,8.25,0,0,1,.3,1.48c0,.4.16.9.16,1.24h0a.88.88,0,0,1,0,.27c0,.09-.15.19-.2.25l-.24-.15-3-2.15h0a2.15,2.15,0,0,0-.06-1.24,15.45,15.45,0,0,0-.7-1.82,16,16,0,0,0-3.57-4.68c-2-1.8-3.49-2.38-4.75-2.31a2.39,2.39,0,0,0-1.54.58,6.16,6.16,0,0,0-1,1.07l.13-.17-3.64-2.68h0a4.9,4.9,0,0,1,1.79-1.44,6.05,6.05,0,0,1,3-.36c2.16.23,4.54,1.57,7.23,4.43a30.35,30.35,0,0,1,2.61,3.15c-.29-1-.46-1.8-.81-2.84s-.72-2.12-1.19-3.3a56.41,56.41,0,0,0-3.69-7.61,24,24,0,0,0-6.62-7.42,19.07,19.07,0,0,0-2-1.24,14.68,14.68,0,0,0-2-.83,13,13,0,0,0-4.15-.67,8.83,8.83,0,0,0-6,2.16,11.08,11.08,0,0,0-2.21,2.12c-.62.83-1.54,1.46-2.17,2.31h0l-4.35-3.1-.17-.18c.75-1,1.5-2,2.37-3a20.13,20.13,0,0,1,3.1-2.39,32,32,0,0,1-11.56-10,40.5,40.5,0,0,1-3.92-7,49.68,49.68,0,0,1-2.72-7.7c-1.22-4.45-2.18-9.55-3.74-14.29s-3.72-9.08-7.9-11.72c-4.36-2.74-10.39-2.74-16.84-.42a42.49,42.49,0,0,0-9.29,5.47c-.75.58-1.5,1.19-2.23,1.82s-4.66,6.25-5.32,7m0,0,107.38,50.06c-.53-2.66-1.42-4-2.48-4.72a3.64,3.64,0,0,0-3.13-.44,4,4,0,0,0-2.41,2.57c-.35,1.44.09,3.49,1.6,6.18,2,3.51,4.29,5.56,5.38,5.43a3.33,3.33,0,0,0,.69-1,7.67,7.67,0,0,0,.5-1.91A18,18,0,0,0,593.32,567.17ZM572,537.78a13.66,13.66,0,0,1,1.55-1.2c.56-.33,1.13-.64,1.7-.93a36.68,36.68,0,0,1,3.48-1.55,17.59,17.59,0,0,1,3.72-.8,29.58,29.58,0,0,1,3.87-.25,32,32,0,0,1-3.41-14.9,46.4,46.4,0,0,1,3.3-15.6c.83-2.19,1.78-4.48,2.73-6.81s1.91-4.54,2.68-6.87c1.52-4.63,2.36-9.37.54-14a15.09,15.09,0,0,0-4.91-6.32,23.74,23.74,0,0,0-8.39-3.8,32.55,32.55,0,0,0-10.71-1,46.44,46.44,0,0,0-11.48,2,52.09,52.09,0,0,0-11.34,5.51,39.86,39.86,0,0,0-8.18,7.83c-.53.69-1,1.38-1.45,2.08a22.67,22.67,0,0,0-1.11,2.2,19.79,19.79,0,0,0-1.38,4.36,13.74,13.74,0,0,0,.86,8.17c1.89,4.31,5.39,7.36,9.26,10s8.06,4.87,11.93,7.6a44.08,44.08,0,0,1,11.15,10.59A32.45,32.45,0,0,1,572,537.78Zm4,26.53a53.52,53.52,0,0,0,6.15,6c1,.8,1.87,1.5,2.72,2.1s1.72,1.28,2.47,1.76a30.45,30.45,0,0,1-2.44-4c-1.72-3.34-2.14-5.93-1.68-8a4.48,4.48,0,0,1,1.31-2.41,6.13,6.13,0,0,1,2-1.34,4.43,4.43,0,0,1,2.53,0,5.74,5.74,0,0,1,2.52,1.27c1.62,1.55,2.76,4.13,3.24,8a30.27,30.27,0,0,1,.25,4c.33-.82.66-1.77,1-2.84s.65-2.25,1-3.37a50.13,50.13,0,0,0,1.54-8.33,23.74,23.74,0,0,0-1-9.89,16.94,16.94,0,0,0-2-4.13,11,11,0,0,0-3-3.05,11.15,11.15,0,0,0-3-1.44,12,12,0,0,0-1.55-.36l-.77-.1-.75,0a28.9,28.9,0,0,0-6.09,1.24,23.14,23.14,0,0,0-3,1.39,10.66,10.66,0,0,0-2.84,2,19,19,0,0,0-2.31,2.71,16.5,16.5,0,0,0-.91,1.49,15.45,15.45,0,0,0-.61,1.73,12.38,12.38,0,0,0,.16,7.39A24.22,24.22,0,0,0,576,564.31Z"/><path class="cls-1" d="M616,482.43c-.3,4.05,1.77,8.28,4.75,11.68a30.23,30.23,0,0,0,5.07,4.78,20.9,20.9,0,0,0,2.92,1.78c1,.5,1.88,1.44,2.92,1.87l1.4-4.3c-1.08-.44-2.17-.61-3.1-1a17.85,17.85,0,0,1-2.56-1.46,14.13,14.13,0,0,1-3.69-3.71,13.39,13.39,0,0,1-1.92-4.29,10.79,10.79,0,0,1,5.5-12.07,16,16,0,0,1,5.83-1.72,21.53,21.53,0,0,1,3.63-.1,17.18,17.18,0,0,1,4,.6l1.17-3.6a6.56,6.56,0,0,0-1.15-.26,36,36,0,0,0-9.44-.51,26.76,26.76,0,0,0-4.17.64,18.35,18.35,0,0,0-3.66,1.38C619,474.34,616.35,477.89,616,482.43Z"/><path class="cls-1" d="M655.82,496.5c2.78-3.86,3-8.38.7-12.93a23.2,23.2,0,0,0-5.06-6.63,37.29,37.29,0,0,0-8.21-5.24,4.44,4.44,0,0,0-1.29-.85h0l-1.17,3.6h.39a25.9,25.9,0,0,1,6.64,4.1,18.07,18.07,0,0,1,2.24,2.34,13.17,13.17,0,0,1,1.5,2.55,10.87,10.87,0,0,1,.06,9.5,11.47,11.47,0,0,1-7,5.79,18.37,18.37,0,0,1-5.28.72,19.73,19.73,0,0,1-6.29-1.21l-.09.27L631.85,502l-.18.54c4.48,1.62,9.3,1.32,13.57.42S653.53,499.68,655.82,496.5Z"/><path class="cls-1" d="M683.43,539.61a23.14,23.14,0,0,1-3.27-6.46,22.46,22.46,0,0,1-1.44-6.77c-.2-4.62.68-9,3.32-12.14a12.22,12.22,0,0,1,12.15-3.9,24.75,24.75,0,0,1,7.55,2.93c.64.37,1.28.77,1.92,1.19s1.21.94,1.81,1.45a42.31,42.31,0,0,1,3.49,3.37,3.86,3.86,0,0,1,1,1.1,3.74,3.74,0,0,1,.76,1.28,29.28,29.28,0,0,1,3.48,9.1,21.61,21.61,0,0,1,.35,8.25c-.94,5.06-3.79,8.64-8.29,10.12-3.74,1.23-8.07.57-12.12-1.14a23.3,23.3,0,0,1-5.86-3.37,35.26,35.26,0,0,1-4.84-5Zm3.05-2.21a20.89,20.89,0,0,0,2.21,2.55,19,19,0,0,0,2.17,2.07,14.11,14.11,0,0,0,4.66,2.49,11.82,11.82,0,0,0,9.12-.76,10.76,10.76,0,0,0,5.41-7.78,16.62,16.62,0,0,0-.16-6.21,19.78,19.78,0,0,0-1-3.54,27.57,27.57,0,0,0-2-3.63,25.43,25.43,0,0,0-5.85-5.12,15.85,15.85,0,0,0-5.9-2A11,11,0,0,0,686,518.2a11.59,11.59,0,0,0-3.52,8.4,14.85,14.85,0,0,0,1,5.16A19.59,19.59,0,0,0,686.48,537.4Z"/><path class="cls-1" d="M606.55,579.91l.1.05,1.11-3.77h0c.59.06,1.46-.31,2.57-1.45a16.72,16.72,0,0,0,3.33-4.86,11,11,0,0,0,1-3.1,3.81,3.81,0,0,0-.22-2.11,4.19,4.19,0,0,0-2.33-2l.2.09,1.42-4.3-.22-.08a5.79,5.79,0,0,1,2.09,1.43,4.87,4.87,0,0,1,.8,1.09,6.12,6.12,0,0,1,.46,1.5c.41,2.18-.15,4.89-2,8.33a31.91,31.91,0,0,1-2.17,3.43c.75-.47,1.62-1.15,2.47-1.75s1.76-1.29,2.72-2.08a54.94,54.94,0,0,0,6.16-5.94,23.78,23.78,0,0,0,5-8.53,15,15,0,0,0,.12-8.68,10.25,10.25,0,0,0-3.88-5,10.86,10.86,0,0,0-2.73-1.35l-2.94-1.1.11-.34,1.72-5.3h0a36.14,36.14,0,0,1,3.53,1.42c.57.28,1.14.59,1.7.91a15,15,0,0,1,1.55,1.21,32.21,32.21,0,0,1,6-14.1,47.17,47.17,0,0,1,11.88-10.81c3.92-2.64,8.39-5,12.43-7.91s7.49-6.32,8.7-11.1a15,15,0,0,0-.31-8,21.85,21.85,0,0,0-4.5-8.18,40.64,40.64,0,0,0-8-7.27c-3.22-2-6.72-3.09-10.45-4.39l-.3-.1,1.71-5.24h0a67.11,67.11,0,0,1,8.1,3.86,39.74,39.74,0,0,1,3.74,2.11c1.18.79,2.31,1.61,3.38,2.45a49.38,49.38,0,0,1,5.78,5.27c.42.45.82.91,1.21,1.37s.73,1,1.08,1.46c.68,1,1.3,2,1.86,2.95a22.56,22.56,0,0,1,3.28,11.44,16.57,16.57,0,0,1-3.68,10,25.22,25.22,0,0,1-5.1,4.71c-1,.69-2,1.35-3,2s-2.15,1.31-3.25,1.95c-4.43,2.54-9.06,5-13.09,7.76a37.56,37.56,0,0,0-10.1,9.91A27.72,27.72,0,0,0,631,540.68a12.24,12.24,0,0,1,1.77,2.91,16.19,16.19,0,0,1,1.1,3.18,13.82,13.82,0,0,1-.25,7,15.17,15.17,0,0,1,6.65-2.46,17.64,17.64,0,0,1,6.64,1,28,28,0,0,0,11.1-8.45,32.34,32.34,0,0,0,3.72-6.07,47.86,47.86,0,0,0,2.58-6.94c.72-2.44,1.32-5,1.88-7.59s1.06-5.16,1.59-7.7c1.06-5,2.39-9.82,5.25-13.58a16.33,16.33,0,0,1,8.59-5.85,20.13,20.13,0,0,1,5.67-.79,28.65,28.65,0,0,1,6.23.83,40,40,0,0,1,6.66,2.27,40.6,40.6,0,0,1,6.58,3.88,53.63,53.63,0,0,1,6.35,5.21,64.41,64.41,0,0,1,5.53,6.57q1.35,1.85,2.55,3.72c.77,1.28,1.42,2.61,2.06,3.92a59.92,59.92,0,0,1,3.1,7.87,25.44,25.44,0,0,1,.94,3.9c.23,1.3.4,2.57.52,3.82a37.63,37.63,0,0,1,0,7.11,22.86,22.86,0,0,1-4.24,11.29,16.22,16.22,0,0,1-8.8,5.92c-4.41,1.21-9.35.86-14.37.3l-7.55-.92c-2.57-.26-5.17-.44-7.67-.48a37.91,37.91,0,0,0-14,2.06A28.55,28.55,0,0,0,660,570.38a14.39,14.39,0,0,1-5.49,12.06,13.73,13.73,0,0,1,6.68,1.95,17.11,17.11,0,0,1,2.74,2A13.87,13.87,0,0,1,666,589a28.15,28.15,0,0,0,14-.28,39.59,39.59,0,0,0,12.85-6.83c4.12-3.11,7.79-6.85,11.7-10.32s7.86-6.58,12.37-7.94c6.82-2.1,13.92.63,19.92,7.4a42.74,42.74,0,0,1,7.07,12.72A56.7,56.7,0,0,1,746.61,600H741.1a52.35,52.35,0,0,0-1.85-12.28,27.9,27.9,0,0,0-2.13-5.42,33.75,33.75,0,0,0-2.76-4.65,19.65,19.65,0,0,0-6.89-6.37,14.11,14.11,0,0,0-8-1.7c-4.69.46-8.66,2.85-12.38,5.7-1.88,1.43-3.59,3-5.46,4.52s-3.69,3.08-5.53,4.49a43.44,43.44,0,0,1-13.45,7.26,32.43,32.43,0,0,1-14.7,1,35,35,0,0,1,1.74,7.82l-6.31-.07c-.16-2.22-.18-5-1.11-7.14a15.14,15.14,0,0,0-4.45-5.41,12.67,12.67,0,0,0-7.14-2,25.1,25.1,0,0,0-9.31,2.37,57.85,57.85,0,0,0-12.8,7.7,28.52,28.52,0,0,1,4.5-1.1c3.67-.59,6.29-.19,8.15.88a6.6,6.6,0,0,1,2.56,4.63l-4.5-.09c-.13-1.06.1-2.52-1.1-3.29s-3.22-1-6.23-.43c-4,.83-6.61,2.2-6.81,3.5l-4,.2a2.33,2.33,0,0,1,.22-.36,1.79,1.79,0,0,1,.18-.33.13.13,0,0,1,0-.06,2.8,2.8,0,0,1,.35-.58s0,0,0,0a29.42,29.42,0,0,1,5.22-4.45,90.76,90.76,0,0,1,9-6c-2.35.24-4.54.36-6.5.42l-5.35.07c-.8,0-1.53,0-2.19,0s-1.21-.11-1.85-.13a6.54,6.54,0,0,1-2.64-.58h0c-.09-.09-.13-.22-.26-.28s0-.15,0-.22a.15.15,0,0,1-.06-.2,2.57,2.57,0,0,1-.07-.4s0,0,0,0a4.5,4.5,0,0,1,0-.73s0,0,0,0c0-1.44.68-3.82,1.44-6.56.21-.71.46-1.47.74-2.28l.84-2.47c.58-1.67,1.28-3.51,2.13-5.47-.87.77-1.72,1.48-2.54,2.14l-2.44,1.93c-1.6,1.26-3.05,2.49-4.3,3.34-2.63,1.94-4.45,3.38-5.84,3.38h0l-.39,0C606.63,580.26,606.62,579.94,606.55,579.91Zm22.65,3.72c2.32-1.3,3.39-2.6,3.74-3.85A4,4,0,0,0,633,578a3.44,3.44,0,0,0-.71-1.34,4.31,4.31,0,0,0-1.28-1.15,3.49,3.49,0,0,0-.84-.36,4.81,4.81,0,0,0-1.08,0c-1.52.14-3.26,1.12-5.38,3.42a15.84,15.84,0,0,0-2.86,4.13,4.1,4.1,0,0,0-.62,2.73,2.85,2.85,0,0,0,1.27.3,7.72,7.72,0,0,0,1.93-.07A16.86,16.86,0,0,0,629.2,583.63Zm21.3-29.48a20.71,20.71,0,0,1,3.11,2.39c.88.94,1.71,1.92,2.47,2.91a19.91,19.91,0,0,1,3.35,6.89,31.81,31.81,0,0,1,13.1-7.86,39.69,39.69,0,0,1,7.83-1.6,57,57,0,0,1,8.07-.15c4.62.22,9.89.83,14.74.89s9.62-.64,13.46-3.82a14.37,14.37,0,0,0,4.43-6.62,25.57,25.57,0,0,0,1-9.19,32.67,32.67,0,0,0-2.37-10.48,53.44,53.44,0,0,0-2.34-5.28,36.67,36.67,0,0,0-3.17-4.94,39.83,39.83,0,0,0-18.6-14.42c-6.74-2.1-12.78-1.45-16.9,2.23-3.51,3.12-5.35,7.41-6.74,11.94s-2.29,9.31-3.54,13.68a44.51,44.51,0,0,1-6.69,13.91A32.19,32.19,0,0,1,650.5,554.15Zm-24,12a58,58,0,0,0-3.71,7.61c-.47,1.19-.88,2.29-1.2,3.31s-.53,1.89-.83,2.84a29.53,29.53,0,0,1,3-3.57c2.64-2.67,5-3.83,7-4a5.43,5.43,0,0,1,2.78.45,6.31,6.31,0,0,1,1.83,1.6,6.83,6.83,0,0,1,.66,1.07,3.9,3.9,0,0,1,.25,1.3,6.19,6.19,0,0,1-.49,2.85,6.84,6.84,0,0,1-.84,1.43,10.56,10.56,0,0,1-1.41,1.44,19.51,19.51,0,0,1-4.28,2.66,30.31,30.31,0,0,1-3.7,1.46,42.66,42.66,0,0,0,6.52-.08,50.3,50.3,0,0,0,8.31-1.14,24.06,24.06,0,0,0,9.13-4,17,17,0,0,0,3.33-3.23,11.12,11.12,0,0,0,1.91-3.73,9.23,9.23,0,0,0-.13-6.37,19.66,19.66,0,0,0-3.08-5.41,23.85,23.85,0,0,0-2.18-2.51,13.31,13.31,0,0,0-2.88-2,18.21,18.21,0,0,0-3.23-1.44,15.3,15.3,0,0,0-3.61-.39,11.49,11.49,0,0,0-7,2.43A24.71,24.71,0,0,0,626.45,566.18Z"/><path class="cls-1" d="M716.83,579c-4,1-7.36,4.24-9.71,8.12a35.29,35.29,0,0,0-3,6.27c-.73,2.19-1.71,5-1.65,7.21l4.52,0c-.14-4.61,1-8.73,3-11.34a11.42,11.42,0,0,1,7.67-4.63,11.08,11.08,0,0,1,9,3c2.61,2.5,4.67,6.66,5.33,12.38h3.79a6.64,6.64,0,0,0-.18-1.17,37.3,37.3,0,0,0-2.38-9.07,19.64,19.64,0,0,0-4.36-6.8C725.45,579.38,721.25,577.91,716.83,579Z"/></svg>