<svg id="Layer_1" data-name="Layer 1" xmlns="http://www.w3.org/2000/svg" viewBox="0 0 1200 1200"><path d="M472.45,293.46c10.83,6.89,21.38,13.79,32.14,20.34,4.48,2.73,9.44,4.64,14.1,7.06,2,1.05,3.24.62,4.78-1a209.79,209.79,0,0,1,55.11-41.26c5.71-2.93,11.74-5.22,17.59-7.89a9.36,9.36,0,0,1,7.75,0c23.89,9.24,44.83,23.12,63.66,40.32,3.11,2.84,6.18,5.74,9,8.84,1.51,1.66,2.7,1.91,4.76,1a209.24,209.24,0,0,0,43.15-26c.82-.64,1.65-1.26,2.85-2.18,1.13,6.11,1.82,12,3.35,17.66,2.9,10.82,6.12,21.57,9.54,32.24,1.76,5.53,2.08,5.42,7.81,5.32,27.41-.46,54.06,3.42,79.81,13.2,5.6,2.13,8.87,5.31,11,10.92,10.08,26.42,14,53.78,13.19,81.9-.08,3,.95,4.22,3.58,5.29,16.48,6.65,33.6,10.75,51.77,13.34-.84,1.15-1.45,2-2.1,2.88a211,211,0,0,0-25.94,42.83c-1.09,2.42-.74,3.73,1.18,5.62,21,20.69,37.85,44.2,48.58,71.86a11.21,11.21,0,0,1,0,8.73c-10.71,27.67-27.62,51.14-48.6,71.83-1.93,1.9-2.17,3.22-1.08,5.64a212,212,0,0,0,25.53,42.26c.64.83,1.3,1.65,1.92,2.5.1.14,0,.43,0,.44-9.84,2.16-19.7,4-29.37,6.55-7.66,2-15,5.07-22.6,7.53-2.32.76-2.87,2-2.81,4.4.76,26.91-2.34,53.31-11.94,78.59-5.48,14.44-1.59,10.56-16,16.06-25.05,9.52-51.22,12.64-77.89,11.89-3-.08-4.28.8-5.35,3.49a216.1,216.1,0,0,0-13,49.42c-.09.67-.23,1.32-.4,2.23-5.92-4.18-11.38-8.57-17.35-12.12-9.33-5.55-19-10.48-28.5-15.78-2.28-1.27-3.61-.64-5.32,1.1-20.74,21.12-44.36,38-72.12,48.79a10.84,10.84,0,0,1-8.42,0c-27.75-10.79-51.36-27.7-72.12-48.8-1.77-1.79-3-2.12-5.34-1.08a212.53,212.53,0,0,0-42.55,25.71c-.91.7-1.82,1.43-3.08,2.43-1.15-6.23-1.82-12.24-3.41-18-3.18-11.47-6.91-22.78-10.3-34.19-.77-2.58-2.14-3.27-4.81-3.2-28.23.77-55.72-3-82.24-13.21a17,17,0,0,1-10.74-10.71c-9.95-26.08-13.92-53.09-13.21-80.85.09-3.73-.93-5.5-4.46-6.86a224.85,224.85,0,0,0-48.45-12.56c-.66-.09-1.3-.23-2.35-.41,3.24-4.43,6.59-8.34,9.17-12.7,6.42-10.85,12.45-21.94,18.72-32.88,1.35-2.34.86-3.74-1.05-5.63-21.08-20.77-38-44.36-48.72-72.16a10.44,10.44,0,0,1,0-8.08,185.7,185.7,0,0,1,30.86-52.3c5.81-7,12.05-13.68,18.29-20.32,1.54-1.64,1.8-2.76.9-4.79a209.43,209.43,0,0,0-25.63-42.6l-2.53-3.32c6.3-1.17,12.32-1.89,18.12-3.44,10.61-2.84,21.13-6,31.58-9.36,5.71-1.84,5.59-2.16,5.49-8.1-.44-26.2,3-51.8,12.13-76.49,4.25-11.49,4.35-11.41,15.78-15.56,25.3-9.18,51.48-12.6,78.26-11.82,2.83.08,4-.74,5.08-3.35a215.54,215.54,0,0,0,13-49.4C472.24,294.56,472.38,293.9,472.45,293.46ZM596.14,822.71c22.86-.19,41.69-2.14,60.1-7,49.28-13.08,91.33-37.42,121.91-79.25a226.69,226.69,0,0,0,42.32-105.35c5.25-39.26,1-77.56-13.43-114.49-17.68-45.32-45.88-82.16-88.63-106.64-64.28-36.8-131.52-42.79-201-17.12-44.05,16.29-80.09,43.46-104.61,84.22-40.71,67.7-46.51,138.55-17.54,212,10.72,27.17,26.13,51.8,47.51,71.78C486.89,802,539.81,821.79,596.14,822.71Zm305-97.57c-.6-.91-.8-1.31-1.08-1.65-9.75-11.73-20.21-22.75-32.46-31.91-9.25-6.92-19-12.78-30.71-14.61-8-1.26-15.66-.47-22.59,4a13.12,13.12,0,0,0-4.26,4c-6.22,10.9-1.55,21.45,4.72,27,5.36,4.78,11.72,7.63,18.54,9.52C855.46,727.7,878,727,901.16,725.14Zm-427,175.53,1.66.42c6-5.53,12.16-10.89,17.93-16.64,10.66-10.62,20.23-22.1,26-36.21,4-9.67,5.69-19.64,1.37-29.63-1.34-3.11-3.36-6.53-6-8.31-5.72-3.79-12.23-4.21-18.74-1.41-8.8,3.77-13.15,11.27-16.31,19.63-4.1,10.83-5.77,22.2-6.05,33.67C473.71,875,474.09,887.84,474.18,900.67ZM725.85,299.4l-1.47-.18c-11.33,9.41-22.07,19.44-31.18,31.1-6.29,8.06-11.71,16.63-14.71,26.51-3.08,10.14-3.22,20.08,2.85,29.32a11.93,11.93,0,0,0,3.85,3.92,20.77,20.77,0,0,0,27.34-5.55,64.51,64.51,0,0,0,8.19-15.32c3.77-10,5.09-20.68,5.33-31.33C726.35,325.06,726,312.22,725.85,299.4Zm-427,425.53a27.25,27.25,0,0,0,3.63.62c11.57.26,23.15.88,34.7.59a105.85,105.85,0,0,0,33.73-5.85c7.36-2.67,14.14-6.26,18.53-13.12,6.4-10,4.74-25.19-10.13-29.12a43.25,43.25,0,0,0-9.65-1.47c-8.78-.26-16.75,2.76-24.35,6.84-15.6,8.37-28,20.55-39.68,33.59C303.36,719.5,301.23,722.09,298.81,724.93ZM476,298.78l-1.13.7c-.31,4.54-.7,9.08-.91,13.62-.82,17.23-.45,34.4,3.89,51.23,2.33,9,5.65,17.65,13.23,23.77,9.45,7.61,26.23,7.19,30.92-8.28,3-10,1.45-19.42-2.46-28.7-4.79-11.37-12-21.14-20.49-30C491.64,313.43,483.69,306.22,476,298.78Zm425,176.68-.3-1.26c-12.93-.08-25.87-.49-38.79-.14-11.82.32-23.52,2.09-34.63,6.5-6.73,2.68-12.81,6.29-16.75,12.68-6.21,10.05-4.33,25,10.31,28.82A42.22,42.22,0,0,0,829,523.5c9.56.56,18.19-2.63,26.38-7.13,16.47-9,29.4-22.19,41.61-36.15C898.36,478.67,899.63,477.05,900.94,475.46Zm-601.43-.55-.67,1c6.82,7.17,13.38,14.62,20.52,21.46C330.23,507.81,342,517,356.7,521.58c10,3.12,19.83,3.26,29.05-2.52a12.52,12.52,0,0,0,4.26-4,20.88,20.88,0,0,0-2.15-24.21c-5.51-6.72-13.1-10.07-21.18-12.31C344.56,472.4,322.06,473.05,299.51,474.91Zm424.88,426,1.48-.33c0-13,.38-25.91.06-38.85-.28-11.73-2.06-23.3-6.41-34.31-2.65-6.73-6.25-12.8-12.56-16.86-8.93-5.73-22.58-4.31-27.28,5.86A33.65,33.65,0,0,0,677,837.25c1.6,8.66,5.24,16.44,10,23.77C697,876.61,710.27,889.18,724.39,900.93ZM847.73,628.64a75.18,75.18,0,0,0,17.62-27.15,4.16,4.16,0,0,0,.07-2.72,75.57,75.57,0,0,0-18.64-28.23,39.08,39.08,0,0,1-21.47,7.66v42.5Zm-473-6.71V579.38l-22.42-7.88a73.35,73.35,0,0,0-17.7,27.38,4.14,4.14,0,0,0,.09,2.71,75.48,75.48,0,0,0,18.51,27.93C359.81,625,366.92,622.17,374.75,621.93Zm203.48-247.2h43.68c.15-7.85,3.07-15,7.63-21.56A77.77,77.77,0,0,0,602,334.87a5.18,5.18,0,0,0-3.38-.16,75.5,75.5,0,0,0-28,18.55A39.23,39.23,0,0,1,578.23,374.73ZM621.81,825.4H578.17a39.13,39.13,0,0,1-7.66,21.48,76.76,76.76,0,0,0,28.32,18.63,3.79,3.79,0,0,0,2.4,0,75.55,75.55,0,0,0,28.27-18.67A39.19,39.19,0,0,1,621.81,825.4ZM425.75,452.13l26.31-26.4-9.5-21c-7.36-.53-15.42,1.07-23.54,2.86-6.45,1.42-9.93,4.76-11.37,11.27-1.83,8.22-3.49,16.38-2.91,23.71ZM774.28,748l-26.21,26.37,9.39,21.06a73,73,0,0,0,30.67-5.52,3.28,3.28,0,0,0,1.64-1.64,72,72,0,0,0,5.58-30.69ZM425,747.25a34.92,34.92,0,0,1-18.2,8.67c-2.24.36-2.08,1.7-2.11,3.25a80.31,80.31,0,0,0,4.47,26.46,7.56,7.56,0,0,0,5.3,5.37c9.5,3.08,19.12,5,28.09,4.36l9.49-21ZM795,443.78c1.34-8.47-1.24-24.41-5.11-31.75a4.22,4.22,0,0,0-1.89-1.85,71.7,71.7,0,0,0-29.78-5.45,2.82,2.82,0,0,0-2.11,1.58A39,39,0,0,1,747.36,425L775,452.79C780.41,447.75,787.34,445.15,795,443.78ZM553.89,862.72c.91,1.06,1.6,2,2.41,2.76a134.14,134.14,0,0,0,42.33,27.61,5.16,5.16,0,0,0,3.55-.25,135.45,135.45,0,0,0,32.7-19.44c4-3.29,7.7-6.91,11.65-10.48l-7.29-5.45a114.44,114.44,0,0,1-36,24.68c-2.2,1-4.14,1.21-6.28,0-6.72-3.77-13.74-7.07-20.15-11.3-5.79-3.82-10.94-8.62-16.46-13.05ZM862.61,646.08a9.65,9.65,0,0,0,1.16-.82,127.65,127.65,0,0,0,29.09-43.75,5.75,5.75,0,0,0-.38-3.92A130.16,130.16,0,0,0,866.06,557c-1-1.06-2.14-2-3.4-3.2l-5.21,7a109.37,109.37,0,0,1,24.73,36.66,7,7,0,0,1,0,5.2c-3.34,6.67-6.63,13.43-10.72,19.65s-9,11.57-13.62,17.48c.85,1.15,1.88,2.56,2.92,4C861.31,644.45,861.89,645.16,862.61,646.08ZM646.16,337.38c-.6-.73-.93-1.21-1.33-1.61a129.41,129.41,0,0,0-43.3-28.61,5.71,5.71,0,0,0-3.91.36,127.93,127.93,0,0,0-30.77,18c-4.53,3.59-8.74,7.57-13.37,11.61l7.3,5.48a115.38,115.38,0,0,1,34.93-24.15c3-1.36,5.57-1.77,8.55-.05,4.25,2.45,8.94,4.2,13,6.94,7.69,5.22,15,10.94,22.84,16.67-.33.17,0,.05.27-.15C642.19,340.44,644,339,646.16,337.38ZM337.48,554.06a8.81,8.81,0,0,0-1.14.72,128.3,128.3,0,0,0-29.13,43.73,5.26,5.26,0,0,0,.33,3.92c4.55,8.54,8.8,17.29,14.07,25.37,4.34,6.66,10,12.49,15.36,19.1,2.3-3.09,3.93-5.29,5.43-7.29-3.64-4.3-7.24-8.16-10.36-12.36a94.72,94.72,0,0,1-8.6-13.19c-8.49-16.65-8.91-11.45.22-28.1,5-9.11,11.89-17.17,17.93-25.71.65.28.63,0,.5-.15C340.61,558.14,339.12,556.2,337.48,554.06ZM818.23,444.85a15.75,15.75,0,0,0,.29-1.69,126.74,126.74,0,0,0-8.86-50.36,5.31,5.31,0,0,0-3.21-2.72c-10.14-2.69-20.24-5.62-30.53-7.55-6.67-1.25-13.63-.94-20.79-1.36.57,3.47,1,6.09,1.46,8.82,1.13.06,2,.14,3,.14a117.82,117.82,0,0,1,39.16,6.92c2.18.77,3.63,1.88,4.19,4.17,1.93,7.93,4.28,15.78,5.76,23.78,1.11,6,1.13,12.24,1.65,18.52Zm-428.08-1.34V440.2a111.76,111.76,0,0,1,7.15-39.1c.53-1.43,1.93-3.18,3.28-3.57,7.72-2.25,15.47-4.54,23.36-6,6.36-1.19,12.93-1.25,19.62-1.83.41-2.54.82-5.15,1.27-8-1.55-.07-2.82-.16-4.08-.18a125.56,125.56,0,0,0-46.95,8.59A6.89,6.89,0,0,0,390,394c-2.76,10.12-5.61,20.25-7.53,30.55-1.23,6.55-.91,13.38-1.3,20.45ZM755.21,818.33c.9.12,1.35.22,1.81.24a127.19,127.19,0,0,0,50.08-8.79,5.39,5.39,0,0,0,2.79-3.16c2.5-8.74,5.34-17.45,7-26.37,1.48-8.09,1.55-16.43,2.28-25.12a33.65,33.65,0,0,1-5.39.8c-3.27-.09-3.93,1.42-3.91,4.48a107,107,0,0,1-7.16,38.74,7.11,7.11,0,0,1-3.66,3.64,63.48,63.48,0,0,1-12,3.69c-10,1.73-20,3-30.56,4.56C756.11,812.81,755.68,815.43,755.21,818.33Zm-310.33.07c-.55-3.08-1-5.68-1.49-8.44H441a111,111,0,0,1-39.81-7.1,7.32,7.32,0,0,1-3.88-3.84,89.33,89.33,0,0,1-4.42-15.1c-1.54-8.94-2.42-18-3.64-27.42l-7.4-1.16a6.19,6.19,0,0,0-.3,1c-.75,17.68,2.58,34.65,8.87,51.09a5.17,5.17,0,0,0,3,2.51c6,2,12,4,18.1,5.45A109.68,109.68,0,0,0,444.88,818.4Zm118.36,36.89a106.4,106.4,0,0,0,35.41,23.93,5.22,5.22,0,0,0,3.91-.48c6.38-3.41,12.89-6.66,18.9-10.66,5.47-3.64,10.36-8.15,15.67-12.42l-5-5.3c-7.15,4.89-14,9.5-20.77,14.21-7.55,5.25-15,5.39-22.64.09-6.84-4.77-13.77-9.44-20.89-14.31ZM636.81,344.8a106.5,106.5,0,0,0-35.4-23.91,4.73,4.73,0,0,0-3.58.35c-6.77,3.68-13.67,7.18-20.09,11.41-5.19,3.43-9.77,7.78-14.78,11.85l4.93,5.25c7.16-4.9,14-9.52,20.79-14.23,7.55-5.25,15-5.36,22.63-.07,6.86,4.77,13.78,9.44,20.89,14.31ZM849.52,568.58a76.16,76.16,0,0,1,18.62,28.26,9.85,9.85,0,0,1,0,6.3,76.93,76.93,0,0,1-18.59,28.35L855,636.6a5.68,5.68,0,0,0,1-.61,106.7,106.7,0,0,0,23.11-34.45,3.79,3.79,0,0,0,.18-2.64,108.13,108.13,0,0,0-24.09-35.64ZM345,563.49a6.45,6.45,0,0,0-1,.65,106.6,106.6,0,0,0-23,34.43,4.66,4.66,0,0,0,.22,3.57c4.56,8,9,16.06,14.05,23.77,2.61,4,6.23,7.37,9.55,11.21l5.68-5.65A81.88,81.88,0,0,1,332,603.8a9,9,0,0,1,0-7.37,82.72,82.72,0,0,1,18.55-27.84ZM756.89,400.3c8.53,1.43,16.68,2.29,24.56,4.23,11,2.7,11.68,3.86,14.42,14.74.11.45.18.92.25,1.38,1.15,7.44,2.29,14.89,3.49,22.66h6.87a103.91,103.91,0,0,0-6.89-41.24,4.51,4.51,0,0,0-2.84-2.13c-7.79-2-15.56-4.13-23.45-5.54-5.3-.95-10.8-.79-16.41-1.13Zm-313.81-6.57c-10.85-1-31.88,2.36-40.81,6.67a4.71,4.71,0,0,0-2.25,2.74c-2,8-4.2,16-5.67,24.16-.93,5.18-.73,10.56-1,15.89h8c0-1.2,0-2.23,0-3.25a76.71,76.71,0,0,1,5.85-29,7.17,7.17,0,0,1,3.66-3.71,113.42,113.42,0,0,1,15.77-4.54c5.44-1.05,11-1.26,16.72-1.86,0-1.84,0-3.7,0-5.55A15.27,15.27,0,0,0,443.08,393.73ZM756.87,806.55A105.7,105.7,0,0,0,798,799.64a4.11,4.11,0,0,0,2-2.53c1.81-6.52,3.88-13,5-19.65s1.36-13.56,2-20.49H799.6c-1.22,7.93-1.64,15.73-3.73,23.06-4,14.21-1.63,11.93-16.1,15.94-7.32,2-15.09,2.48-22.9,3.68Zm-313.74-7.47c-4.44-.33-8.73-.13-12.77-1.05-7.36-1.67-14.56-4-21.82-6.07q-2.87-8.4-5.7-16.81a8.32,8.32,0,0,1-.27-1.73c-.59-5.52-1.17-11-1.73-16.42h-7a6.07,6.07,0,0,0-.33,1.18,106.27,106.27,0,0,0,6.73,39.46,4.46,4.46,0,0,0,2.62,2.36c6.27,1.81,12.52,3.84,18.93,5,6.93,1.19,14,1.44,21.31,2.13Zm61.15-477.64c4,5.55,8.41,10.86,12,16.68,9.35,15.25,15.15,31.14,6,49.13,4.62-1.41,8.76-3.06,13.07-3.87,4.48-.85,5.81-3.76,6.39-7.55,1-6.47-1.1-12.26-4.18-17.74C529.31,343.35,517.06,332.18,504.28,321.44ZM678,387.26c-6.32-11.16-5.75-22.2-1.94-33.33,3.88-11.34,10.62-21,18.22-30.12a14.38,14.38,0,0,0,1.07-1.67,123.46,123.46,0,0,0-13.6,11.76c-8.55,8.53-16.63,17.45-21.42,28.78-2.39,5.65-3.44,11.46-.65,17.28a5.57,5.57,0,0,0,2.89,2.65C667.41,384.24,672.35,385.59,678,387.26Zm-.07,425.53c-4.7,1.44-8.8,2.73-12.91,4-5,1.51-6.25,2.89-6.82,8.24-.84,7.93,2.45,14.62,6.56,21,7.24,11.19,16.66,20.45,26.57,29.24,1.42,1.26,2.86,2.49,4.29,3.73a5.52,5.52,0,0,0-1.29-2.53c-5.38-8.18-11.54-16-15.9-24.66C672.24,839.39,670.56,826.32,677.92,812.79Zm134.9-290.52c1.52,5.06,2.72,9.79,4.4,14.34a7.77,7.77,0,0,0,3.63,4.11c5.48,2.34,11,1.36,16.33-.89,12-5.07,21.33-13.78,30.31-22.87,3.55-3.6,6.85-7.44,10.27-11.17l-.57-.58-2.08,1.5c-4.74,3.42-9.24,7.23-14.25,10.19C845.87,525.78,830.32,531.21,812.82,522.27Zm-425.55-.12c-9.87,5.48-19.72,6.28-29.49,2.91a129,129,0,0,1-21.19-9.86c-5.37-3-10.1-7.23-15.11-10.91,8.81,10.81,18.12,21.17,29.78,28.93a86.65,86.65,0,0,0,16.22,8.06,15.11,15.11,0,0,0,12.61-.85,4.9,4.9,0,0,0,2.35-2.32C384.12,533,385.56,527.89,387.27,522.15Zm-65.1,172,.44.16c7.65-4.9,15-10.39,23-14.59,13.23-6.92,27.06-9.62,41.62-1.79-1.73-5.76-3.22-11.13-5-16.39-.33-1-1.8-1.77-2.92-2.21-5.83-2.3-11.51-1.21-17,1.17-9.5,4.09-17.36,10.55-24.67,17.68C332.33,683.37,327.31,688.83,322.17,694.16ZM522.44,813c5,12.48,6,18.8,2.67,29a111,111,0,0,1-9.2,20.31c-3.28,5.77-7.71,10.9-11.63,16.31,10.8-8.89,21.23-18.23,29-30a85.29,85.29,0,0,0,7.87-15.87,15.35,15.35,0,0,0-.74-12.61,4.89,4.89,0,0,0-2.22-2.44C533.05,816,527.81,814.55,522.44,813ZM812.79,677.91a36.48,36.48,0,0,1,24.37-4.16c9.18,1.51,17.42,5.33,25.13,10.28,5.16,3.31,10,7.1,15,10.67a4.79,4.79,0,0,0-1.21-2.28c-5.69-5.89-11.22-11.95-17.18-17.55-6.41-6-13.42-11.33-21.7-14.65-5.56-2.24-11.25-3.34-17-.63a5.19,5.19,0,0,0-2.62,2.49C815.89,667.14,814.46,672.29,812.79,677.91ZM470.14,332.57l-1.38-.05c-.1,12.59-.46,25.19-.2,37.77.18,8.71,1.74,17.37,6.51,24.83,2,3.08,5.37,5.29,8.31,7.67a3.79,3.79,0,0,0,3.27.42c4.62-2.19,9.11-4.63,14.3-7.32C491,394,485,388.11,480.57,380.35c-4.9-8.55-7.13-18-8.42-27.67C471.26,346,470.79,339.28,470.14,332.57ZM804,699.27c-2.14,4.17-3.64,7.9-5.83,11.17-2.43,3.65-1.42,6.52.86,9.55,4,5.27,9.72,7.57,15.75,9.18,12.24,3.26,24.76,3.31,37.3,2.59,5.15-.3,10.28-.84,15.42-1.27a5.33,5.33,0,0,0-3.3-1c-13.14-.59-26.14-2.07-38.44-7.09C815.29,718.12,807,711.57,804,699.27ZM699.19,804.18c12.19,2.56,18.64,10.67,22.92,20.93,5.2,12.48,6.78,25.69,7.36,39.07,0,1.15.16,2.3.24,3.44l1.46-.07c.2-12.13.7-24.26.48-36.39A56.51,56.51,0,0,0,726.24,807c-2.06-4.19-4.88-7.75-9.29-9.64-1.1-.47-2.68-.88-3.63-.44C708.69,799.12,704.21,801.58,699.19,804.18ZM332.2,470c8.44,1,17,1.38,25.29,3,16.73,3.35,32.91,8,38.67,27.49,2.06-4,3.7-7.91,6-11.4,2-3,1.3-5.45-.45-8-3.77-5.56-9.43-8.27-15.62-9.94C368.21,466.36,350.19,467.93,332.2,470ZM500.8,804.18c-5-2.62-9.29-5-13.73-7.07a5.49,5.49,0,0,0-3.94.28c-4.55,1.91-7.39,5.59-9.48,9.91-3.52,7.3-4.66,15.15-5.29,23.12a168,168,0,0,0,1.64,37.2,46,46,0,0,0,.7-6.8c.77-12.31,2.43-24.47,7.28-35.92C482.26,814.78,488.67,806.76,500.8,804.18ZM803.5,499.65c2.4-4,4.45-8.52,7.45-12.25,4.11-5.12,10-8,16.08-10.29,12.31-4.61,25.17-6.07,38.19-6.62.9,0,1.8-.19,2.71-.3,0-.28,0-.56-.07-.84-8.28-.46-16.56-1.13-24.85-1.32-10.91-.24-21.77.39-32.18,4.11-5.4,1.93-10.23,4.77-13.05,10-.72,1.32-1.38,3.37-.86,4.55C799,491.37,801.51,495.81,803.5,499.65ZM699.28,395.94c4.63,2.42,8.6,4.34,12.42,6.54a5.53,5.53,0,0,0,5.92,0,20.11,20.11,0,0,0,10-12.62,124.31,124.31,0,0,0,4-20.2c1.34-12.49.2-25-1.51-37.42a28.13,28.13,0,0,0-.65,5.13c-.68,12.89-2.25,25.64-7.31,37.66C717.88,385.17,711.5,393.2,699.28,395.94ZM396.57,700.52c-2.47,4.08-4.27,8.93-7.63,12.15a51.75,51.75,0,0,1-14.44,9.57c-11.21,5.06-23.34,6.41-35.52,7.15-2.16.14-4.33.34-6.49.52l.07,1.19c11.08.31,22.16,1,33.23.82,9.36-.12,18.67-1.36,27.25-5.61,4.29-2.12,7.95-5,9.8-9.57a5.55,5.55,0,0,0,.08-3.93C400.89,708.49,398.56,704.32,396.57,700.52ZM638.87,822.7l-13.61,1.89c.13,1.71-.12,3.33.41,4.64,2.09,5.26,3.71,10.91,6.81,15.55,8.15,12.16,20.57,19,33.57,24.88,3.11,1.41,6.34,2.55,9.51,3.82a7.62,7.62,0,0,0-2.44-2.73c-6.79-5.7-14-11-20.23-17.24C644.59,845.19,637.18,836,638.87,822.7ZM523.53,326.32c7.12,5.88,14.19,11.09,20.5,17.1,9.62,9.17,18.67,18.92,17.26,34l13.56-1.92c-.19-1.91-.23-3.54-.52-5.13-1.35-7.46-5-13.79-10-19.34C553.28,338.8,539,332,523.53,326.32ZM873.2,675.76c-2.19-10.11-12.61-28.59-21.36-37.37-5.44-5.47-11.59-9.89-19.14-11.93a77.5,77.5,0,0,0-8.2-1.35c-.66,5-1.23,9.35-1.84,13.94,7.64-1.37,14,.87,19.7,4.83a80.23,80.23,0,0,1,12.87,10.78C861.66,661.56,867.5,669,873.2,675.76Zm-48.7-101a31.31,31.31,0,0,0,17.75-5.41c16.74-10.83,24.62-27.74,31.07-45.6a18.33,18.33,0,0,0-2.23,2.61c-6.78,7.86-13.18,16.12-20.53,23.42s-16.27,13-27.93,11.38C823.26,565.75,823.85,570,824.5,574.74Zm-263.44,248c1.45,9.06-1.95,16.41-7.15,22.95a109.83,109.83,0,0,1-12.15,13.08c-5.78,5.22-12.07,9.89-18.63,15.2,2.66-1,4.8-1.79,6.91-2.65,13.45-5.48,26-12.33,35.51-23.68a37.76,37.76,0,0,0,9.07-19.8c.19-1.52.75-3.35-1.91-3.61C569,823.84,565.3,823.26,561.06,822.7ZM326.38,523.78c4.07,11.48,9.22,22.42,16.73,32.11,5.44,7,11.85,13,20.25,16.33,3.78,1.48,7.9,2.09,12.14,3.16q1-8.05,1.7-12.94c-5.35-1.29-10.68-1.5-14.81-3.84a82.61,82.61,0,0,1-17.52-13.18C338.21,538.77,332.56,531.11,326.38,523.78Zm350.08-197c-13.76,4.57-26.63,10.69-37.28,20.71-5.35,5-9.73,10.79-12,17.82a99,99,0,0,0-2.23,10.21l14.16,1.9A24.41,24.41,0,0,1,644.42,357a219.68,219.68,0,0,1,18.41-19.58C667,333.47,671.89,330.3,676.46,326.76ZM326.2,676.85c5.65-6.91,10.45-13.56,16-19.47,9.51-10.06,19.35-19.94,35.19-18.6-.66-4.6-1.28-8.95-1.89-13.21-7.38-.47-16.38,3.17-23.5,9.34C339.23,646,332.25,660.67,326.2,676.85Zm449.89,67.67c3.74,2.11,6.89,4.33,10.36,5.75,10,4.09,20.32,3.71,30.68,1.65,10.53-2.09,20.39-6,30.51-11.16-7.89,1.06-15,2.42-22.21,2.88-14.64.93-29.45,1.9-40.87-10.53Zm-422.63-3c-.34-.57-.28-.32-.13-.25,2.41,1.17,4.8,2.39,7.26,3.45,13,5.62,26.34,9.66,40.71,8.46,8.29-.69,15.95-3.06,22.32-9.2l-8.1-10.68c-6.17,5.93-9.1,7.84-16,9.25A53.53,53.53,0,0,1,386.38,744C375.23,743.48,364.11,742.38,353.46,741.54ZM744.12,423.43c6-6.46,8.4-14,9-22.23,1.22-15.67-3.58-30-10-43.95-.67-1.46-1.43-2.88-2.42-4.86,1.05,7.77,2.44,14.8,2.87,21.88.88,14.71,2,29.65-10.36,41.26ZM459.18,847c-1-7.05-2.37-14.07-2.78-21.15-.87-14.71-2-29.65,10.38-41.23l-10.87-7.89a32.09,32.09,0,0,0-8.3,17C444.22,813,450.84,830.26,459.18,847Zm317.4-391L784.71,467c4.81-6.38,11.37-9.27,18.56-10A147.31,147.31,0,0,1,826,456.5c7,.37,14.06,1.77,22.09,2.85-3.06-1.44-5.23-2.51-7.46-3.49-13.39-5.89-27.16-10.18-42-9C790.49,447.57,783.06,450,776.58,455.92ZM741.36,847.05l.29.22c2.88-7.74,6.09-15.37,8.56-23.23,3.11-9.91,4.24-20.12,2.18-30.45-1.26-6.33-3.56-12.2-8.4-16.88l-11,8.13a23.07,23.07,0,0,1,9.21,14.59c1,5,2,10.19,1.76,15.25C743.49,825.48,742.27,836.26,741.36,847.05ZM467.13,415.27c-6.64-4.9-9.46-11.7-10.2-19.16a143.38,143.38,0,0,1-.41-22c.38-7.05,1.76-14.05,2.71-21.07a127.9,127.9,0,0,0-7.15,15.91c-4.32,12-6.94,24.33-4.47,37.16,1.23,6.44,3.22,12.62,8.46,17.3C459.82,420.62,463.36,418,467.13,415.27ZM353.29,459.19c7.16-.94,14.29-2.3,21.48-2.74,14.61-.88,29.41-1.88,40.78,10.43,2.66-3.69,5.23-7.25,7.89-10.92a32.88,32.88,0,0,0-17.38-8.35C387,444.38,370,450.89,353.29,459.19Zm303-78.31c-3.21-9.16-.6-17.05,3.54-24.61,6.16-11.21,14.87-20.35,24.07-29.07.6-.56,1.13-1.19,1.69-1.79l-.84-.93c-9.25,7.49-18.83,14.61-27.62,22.61-4.84,4.41-8.6,10.11-12.36,15.57a16.32,16.32,0,0,0-2.53,12.76,4.63,4.63,0,0,0,2.56,3C648.34,379.48,652,380,656.27,380.88ZM874.68,685.35c-6.85-11-14.26-21.65-23.83-30.48a69.76,69.76,0,0,0-14.7-10.59c-3.38-1.77-7.81-1.63-11.81-2a3.48,3.48,0,0,0-2.65,2c-1,3.79-1.66,7.67-2.47,11.63,10.37-1.95,16.17-.95,25.36,4.3C856.09,666.81,865.41,676,874.68,685.35ZM685.6,874.54c-.65-.6-1.34-1.15-1.93-1.81-6.4-7.11-13.31-13.85-19-21.47-6.93-9.24-12.49-19.33-8.58-32-3.83.76-7.32,1.56-10.86,2.12-2.1.34-2.9,1.4-3.16,3.45-.88,6.91,2,12.59,5.81,17.89C657.75,856.42,671.48,865.69,685.6,874.54ZM516.31,326.84c4.76,5.12,9.47,9.85,13.77,14.92,6.62,7.79,12.77,16,14.58,26.4.72,4.07.12,8.37.12,12.54,3.13-.64,6.54-1.43,10-2,2.09-.33,3-1.31,3.24-3.39.9-6.64-1.71-12.2-5.38-17.32-9.37-13.08-22.11-22.4-35.31-31.16C517.17,326.75,516.9,326.84,516.31,326.84ZM326.91,516.73l-.84.6c6.29,7.9,12.38,16,18.93,23.64,5.18,6.07,11,11.69,18.52,14.76,3.73,1.53,8.08,1.66,12.18,2.09a3.48,3.48,0,0,0,2.66-2c1-3.79,1.66-7.68,2.52-11.93a23.91,23.91,0,0,1-19.1-1,85.3,85.3,0,0,1-15.32-9.11C339.64,528.47,333.4,522.44,326.91,516.73ZM543.76,819.21c3.25,9.09.61,16.94-3.47,24.52-5.16,9.59-12.39,17.55-20,25.19-1.32,1.33-2.8,2.5-4.2,3.74l.9,1c4-2.88,8.16-5.68,12.13-8.67,9-6.78,17.51-14.09,23.91-23.5,3.42-5,6-10.44,4.79-16.74a4.85,4.85,0,0,0-2.84-3.14C551.54,820.55,547.93,820.05,543.76,819.21ZM819.11,543.8l1.92,9.06c1.08,5.11,1.4,5.41,6.67,5.23a11.75,11.75,0,0,0,4.8-.8c4.35-2.19,8.92-4.21,12.73-7.17,11-8.57,19.19-19.75,26.94-31.22a22.89,22.89,0,0,0,1.2-2.24l-.89-.74c-1.33,1.6-2.44,3.45-4,4.74-7.94,6.51-15.65,13.38-24.13,19.12C837,544.71,828.63,547.1,819.11,543.8ZM380.88,656.2c-.66-3.17-1.23-6-1.83-8.8-1.12-5.27-1.76-5.8-7.24-5.45-6.49.42-11.74,3.73-16.62,7.63-11.54,9.26-20.27,21-28.32,33.22-.11.17.07.53.28,1.79a31.88,31.88,0,0,1,3.09-3.81c7.17-6.15,14.07-12.72,21.72-18.2C360.36,656.56,369.72,652.62,380.88,656.2Zm-34.42,79.59c15.89,3.41,32.56,6.88,49.79,4.19,5.89-.92,11.39-2.78,15.31-7.63.67-.82,1.52-2.37,1.18-3-2-3.68-4.41-7.18-6.88-11.09a23.49,23.49,0,0,1-13.61,11.83c-4.93,1.73-10,3.44-15.19,4C366.74,735.09,356.34,735.28,346.46,735.79ZM794.12,481.84c4.3-8.06,11.34-11.71,19.34-13.91,12.1-3.33,24.46-3.69,36.9-3l3.46.18a2.3,2.3,0,0,0-1.54-1.12c-8.53-1.44-17-3.2-25.6-4.2-9.19-1.07-18.47-1.22-27.52,1.37-4.34,1.24-8.32,3.24-11,7.06a3.84,3.84,0,0,0-.4,3.29C789.6,474.86,791.76,478.06,794.12,481.84Zm-.06,236.49c-2.06,3.31-3.9,6.54-6,9.57-1.3,1.84-.91,3.05.43,4.57,3.94,4.48,9.13,6.37,14.75,7.37,11.81,2.08,23.55.8,35.24-1.1,5.22-.85,10.37-2,15.35-3-10.09-.5-20.29-.47-30.35-1.63C811.9,732.75,800.83,729.69,794.06,718.33ZM463.89,854.42l.42-.29c.5-10.24.49-20.55,1.66-30.71,1.32-11.53,4.36-22.58,15.71-29.33-3.39-2.1-6.63-3.94-9.68-6.05-1.56-1.09-2.62-.88-4,.2a17.84,17.84,0,0,0-7,11.8c-1,7.6-1.92,15.36-1.41,23C460.34,833.51,462.41,844,463.89,854.42ZM735.74,345.66l-.87.1c0,8.49.59,17-.13,25.45-1.16,13.35-3.26,26.58-16.26,34.85,3.29,2.06,6.43,3.82,9.35,5.92,1.67,1.19,2.83,1,4.29-.18,4.62-3.78,6.6-8.93,7.68-14.54,2-10.37,1.15-20.73-.36-31C738.44,359.33,737,352.51,735.74,345.66Zm-254,60.28c-8.8-4.84-12.33-12.88-14.45-21.69-2.67-11.11-3-22.44-2.44-33.81.07-1.39.13-2.78.2-4.18a94,94,0,0,0-3.81,15.68c-1.89,11.57-3.12,23.19-1.06,34.87,1,6,2.91,11.6,8.24,15.25a3.22,3.22,0,0,0,2.71.44C474.69,410.5,478.09,408.26,481.78,405.94ZM718.15,794.22c7.31,3.77,11.13,9.77,13.08,16.8a98.89,98.89,0,0,1,3.53,18.86c.6,8,.14,16,.14,24l.9.12c1.24-6.84,2.71-13.64,3.67-20.52,1.55-11.14,2.45-22.33-.37-33.44-1.17-4.63-3.19-8.82-7.12-11.74a3.81,3.81,0,0,0-3.27-.6C725.24,789.61,722,791.83,718.15,794.22ZM406,481.81c2.15-3.47,3.91-6.64,6-9.57,1.23-1.71.91-2.86-.25-4.29-3.87-4.75-9.22-6.66-14.94-7.68-11.57-2.07-23.09-.87-34.55,1-5.44.89-10.83,2.08-16.15,3.12,10.19.49,20.4.43,30.45,1.62C388.09,467.38,399.24,470.28,406,481.81Zm-3.07-126.46-16.05,4.1,11.93,25.18,10.11-2.86C406.94,373,405,364.52,402.94,355.35Zm-18.31,43.48-25.24-11.9c-1.4,5.64-2.65,10.71-4,16.05l26.38,6C382.76,405.52,383.66,402.3,384.63,398.83Zm14.15,416.65c-4,8.38-7.88,16.63-11.95,25.25l16.1,4c2.06-9.15,4-17.72,5.92-26.36Zm414.4,25.22c-4.12-8.7-8-16.88-11.95-25.23l-10.1,2.89c2,8.83,4,17.42,6,26.36Zm5.09-49.56-2.86,10.12,25.26,11.93c1.39-5.68,2.64-10.82,3.93-16.09Zm22.35-404.35-25.21,12c1,3.5,1.83,6.72,2.78,10.18l26.47-6.06C843.28,397.4,842,392.34,840.62,386.79ZM381.79,791.19l-26.4,6c1.37,5.45,2.67,10.55,4.06,16l25.18-11.94C383.67,797.9,382.8,794.78,381.79,791.19ZM813.24,359.38l-16.12-3.95c-2,9.08-4,17.57-5.93,26.31l10.07,2.9ZM307.67,611l-26.5,8.9,8.27,14.34,23.11-14ZM619.81,281.19c-3,9.09-5.93,17.74-8.83,26.44l9.23,5c4.63-7.68,9.23-15.31,14-23.22ZM887.47,579.85l5,9.25,26.42-8.87-8.26-14.35Zm-307.24,339,8.85-26.41-9.28-4.94-14,23.2ZM887.45,620.21l23.23,14c2.81-5,5.37-9.49,8.13-14.39L892.45,611ZM610.88,892.44l8.93,26.49,14.34-8.23c-4.83-8-9.39-15.58-14-23.18ZM580.26,281.15l-14.35,8.28c4.85,8,9.39,15.58,14,23.19l9.21-5.05ZM281.16,580.31l26.47,8.83,4.93-9.25-23.11-14ZM779.1,352.48c-.92,9.16-1.79,17.79-2.68,26.55L788,381c2-8.72,3.91-17.2,5.95-26.14Zm-372.93,2.34c2,8.93,4,17.4,5.95,26.18l11.55-2c-.91-8.95-1.78-17.57-2.69-26.5ZM787.93,819.09l-11.54,2c.89,8.84,1.76,17.47,2.66,26.53l14.81-2.35C791.83,836.29,789.93,827.9,787.93,819.09Zm-375.85,0c-2,8.72-3.9,17.2-5.93,26.2L421,847.59c.91-9.12,1.77-17.75,2.65-26.53Zm435.43-40.05L821,776.41c-.67,4-1.28,7.74-1.92,11.57l26.21,5.89C846.05,788.79,846.76,784.12,847.51,779.06ZM649.21,299.87,637,291.21l-13.88,23.07,9.73,6.48C638.28,313.78,643.6,307,649.21,299.87Zm196,106.29L819,412.09c.7,4,1.34,7.65,2,11.57l26.48-2.7C846.74,415.84,846,411.16,845.26,406.16ZM291.23,637l8.64,12.26,20.94-16.48c-2.33-3.42-4.41-6.47-6.58-9.67ZM381,788c-.72-4.1-1.36-7.74-2-11.58l-26.52,2.72c.84,5.21,1.6,9.94,2.39,14.79ZM379,423.7c.67-3.95,1.29-7.67,1.95-11.56l-26.22-5.92c-.75,5.09-1.46,9.85-2.2,14.83ZM567.27,879.31l-16.43,21,12.27,8.6,13.86-23Zm341.6-316.22c-3.08-4.31-5.87-8.23-8.72-12.21l-20.9,16.44,6.57,9.66Zm-617.77,0,23.15,13.95,6.55-9.71-20.95-16.4C296.87,555.08,294.1,558.92,291.1,563.1Zm588.14,69.65,21,16.43c3-4.19,5.76-8.12,8.69-12.23l-23.06-13.88ZM623,885.86l13.91,23,12.27-8.6-16.44-21Zm-59.9-594.67-12.2,8.71,16.42,20.9,9.66-6.62ZM329,557.48l-18.17-20c-3.19,3.82-6,7.18-9,10.82l20.95,16.38Zm313.67,313.6-7.26,6.28,16.4,20.92L662.91,889Zm-78-548.33-16.39-20.92-11.15,9.34,20.16,17.95Zm36.88,604.16,15.27-6.54c-3-9.11-5.94-17.78-9.24-27.62-2.44,2.23-5.69,3.79-5.78,5.52C601.26,907.45,601.53,916.68,601.53,926.91Zm-18.3-647.18c3,9,5.95,17.67,8.86,26.32,6.33-2.16,6.36-2.16,6.47-8,.06-3.85,0-7.7,0-11.55v-13.4Zm-35,618.54,16.37-20.91-8.41-7.24-18.54,19.37Zm43.77-4.2-8.81,26.39L598,926.65c.17-1.32.36-2.09.37-2.87.09-7.23.18-14.47.2-21.7C598.55,896.08,598.5,896.08,592,894.07Zm278-250.27,19.37,18.56,8.76-10.59L877.27,635.4C874.75,638.33,872.56,640.89,870.05,643.8Zm23.59-51.63c1.93,2.37.91,6.19,4.79,6.22,8.75.06,17.49,0,26.24-.1a7.52,7.52,0,0,0,1.86-.58l-6.19-14.48Zm4.6-43.93c-3.08-3.64-5.9-7-9.38-11.13L871,557.3l6.33,7.35ZM662.39,310.63l-10.58-8.78-16.39,20.89,8.39,7.25C650,323.54,656,317.26,662.39,310.63ZM306,592.07l-26.32-8.78c-2.16,5.13-4.12,9.8-6.26,14.87,1.63.1,2.65.21,3.66.22q10.5.07,21,.1C304,598.51,304,598.5,306,592.07Zm16.77,43.37-20.92,16.44,9.19,11c6.16-6.86,12-13.35,18-20.07Zm604.09-33.83c-9,0-17.13,0-25.27,0-5.89,0-6.2.25-7.25,6.52l26,8.71C922.44,611.91,924.44,607.23,926.85,601.61ZM608,306c3-8.75,5.87-17.31,8.91-26.28l-15.32-6.45c0,8.95-.07,17.08,0,25.21C601.71,304.07,601.81,304.07,608,306ZM305.87,608.13c-1.61-6.44-1.61-6.44-7.6-6.42l-15.74,0h-9.28c2.39,5.56,4.43,10.31,6.5,15.11Zm542-183.88-26.46,2.65c.26,3.79.5,7.32.74,10.77h26.73C848.52,433.2,848.2,429,847.84,424.25Zm-469.12,349c-.29-3.93-.55-7.37-.8-10.79H351.2c.35,4.54.67,8.79,1,13.41ZM773.19,378.68c.88-9,1.73-17.64,2.59-26.52l-13.38-.9V378ZM426.87,821.41c-.88,9-1.74,17.61-2.61,26.52l13.43.94V822.16Zm422-59.07H822.08c-.24,3.69-.45,7.13-.68,10.84l26.46,2.57C848.21,771,848.51,766.84,848.84,762.34ZM378.73,427l-26.55-2.62c-.32,4.81-.61,9.14-.9,13.47h26.63C378.18,434.29,378.43,431,378.73,427Zm397.06,421c-.92-9-1.79-17.68-2.68-26.5l-10.73.77v26.71ZM437.7,378V351.2l-13.43,1c.91,9,1.78,17.66,2.67,26.46ZM366,831.09l1.25.52c5.75-6,11.45-12,17.24-18,4-4.06,4-4,.83-9l-24.88,11.8Zm29.95-17.29c-2.72-.21-5.8-1.39-7-.37-7.14,6.19-13.85,12.89-20.71,19.42l.64,1.22,14.79,5.64C387.7,831.17,391.58,823,395.92,813.8ZM804.54,385.44c3.7,2.5,6.29,2.47,9.23-1,4.55-5.32,9.77-10.08,14.69-15.08.93-.94,1.81-1.92,3.06-3.26l-15.15-5.72C812.35,368.93,808.46,377.14,804.54,385.44Zm-409,0-11.86-25-16.06,6.12c6.76,6.44,12.87,12.18,18.89,18C390.28,388.16,390.22,388.22,395.55,385.42ZM833.6,367.83c-6.44,6.67-12.17,12.67-18,18.58-3.92,4-4,3.93-.94,9.08l25-11.81ZM813.73,804.1c-.3,2.84-1.49,5.74-.57,6.79,6.3,7.2,13,14,19.64,21l1.22-.69,5.63-14.8ZM385.51,395.62c2.61-5.54,2.6-5.52-1.14-9.2-4.51-4.42-9-8.88-13.5-13.31-1.44-1.42-2.93-2.79-4.75-4.52-2,5.41-3.82,10.26-5.66,15.19Zm419,419.05,11.87,25.07,16-6.2c-6.77-6.44-13-11.87-18.63-17.95C810.71,812.29,808.21,812.19,804.51,814.67Zm-481.46-140c3.92-8.41,7.94-17,12.11-25.92-.77-.69-1.76-1.6-3.32-3-6.09,6.74-12,13.27-18.2,20.1Zm.38-148.66-10.84,9,19.62,18.84,3-2.35C330.91,542.27,327,533.74,323.43,526.05Zm562.84,8.29-9.34-8.8c-3.91,8.38-7.9,16.92-12,25.77l3.39,3.1ZM551.27,865l-25.52,12,9.31,10.52,18.84-19.64Zm114.9-551-20,17.6c1.69,3.55,3.27,4.16,6.07,2.3a72.06,72.06,0,0,1,9.93-5.2c4.21-1.94,8.54-3.64,12.43-5.28ZM864.9,648.75c4.21,9,8.19,17.54,11.74,25.12l10.47-9.16c-6.62-6.35-12.92-12.39-19.35-18.54ZM665.72,886.3l8.66-9.32-25.67-12.05-2.93,3.33C652.42,874.26,659,880.17,665.72,886.3ZM554.82,332.14l-20.56-18.37L525.48,323,551,335ZM445.27,378l10.27-26.59h-14.1V378ZM848.64,744.54l-26.82,10.35c.08,1.07.18,2.39.27,3.68h26.55Zm-470.58-303H351.41v14.05l26.82-10.34ZM758.6,822.29c-3.28-1.15-4.53.07-5.37,3.05-1.4,4.92-3.3,9.71-5.15,14.49-1.11,2.9-2.52,5.68-4,8.93h14.5Zm63.64-380.85c-1,3.1-.24,4.47,2.79,5.26a131,131,0,0,1,13.51,4.72c3.33,1.29,6.54,2.87,10.16,4.48V441.44Zm-77.62-90.13c3,8.13,6.11,15.8,8.7,23.62,1,3,2.22,4,5.26,2.82V351.31ZM455.43,848.8c-3.07-8.21-6.16-15.87-8.73-23.7-1-3.1-2.34-3.88-5.18-2.79V848.8ZM351.36,758.59h26.47c1-3,.15-4.33-2.82-5.2-5.46-1.61-10.76-3.78-16.09-5.83-2.45-.94-4.82-2.13-7.56-3.36Z"/></svg>