<svg id="Layer_1" data-name="Layer 1" xmlns="http://www.w3.org/2000/svg" viewBox="0 0 1200 1200"><defs><style>.cls-1{fill:none;stroke:#000;stroke-miterlimit:10;stroke-width:4px;}</style></defs><path class="cls-1" d="M189.92,600c.4-227.85,184.78-410.27,410.29-410,228.37.23,410.1,185.46,409.87,410.2-.24,228-185,410.11-410.15,409.92C372.43,1009.88,190.12,825.66,189.92,600Zm82.38,92c-1.63.57-3.24-2.37-5.2-1.63-7.43,2.81-12.92,7.48-14.92,15.53-1.59,6.38-1.09,12.79.32,19,2.89,12.77,6.39,25.4,9.29,38.17,2.38,10.43,3.7,21,.84,31.18,4.61,2.23,9.29,4.09,13.54,6.65,10.19,6.12,18.14,14.92,26.67,23q10.65,10.13,22,19.54a25.12,25.12,0,0,0,15,5.84c8.39.35,14.19-4.61,19.22-9.41-3.55.12-7.65.86-11.55.28-8.07-1.21-14.34-6.17-20.12-11.52-9.08-8.4-17.8-17.2-26.83-25.66-6.39-6-13.38-11.11-21.89-13.76-1.42-.44-2.86-.81-3.8-1.08.53-4.72,1.34-9.09,1.44-13.49.23-10.07-2.54-19.69-4.86-29.39-2.58-10.83-5-21.71-7.08-32.64a24,24,0,0,1,2.32-15.94C268.31,693.64,270.35,694.61,272.3,692Zm87.26-331,.21-.38c-1.72-1.46-3.39-3-5.18-4.37-5.74-4.41-12-6.66-19.34-4.74a31.92,31.92,0,0,0-13.05,6.77c-7.65,6.68-15.06,13.64-22.39,20.65-7.53,7.2-14.73,14.81-23.77,20.16-4.27,2.53-8.92,4.41-13.43,6.6,1.46,5.23,2.39,10.84,1.47,16.45-1.51,9.22-3.18,18.45-5.36,27.53-2.72,11.33-6.42,22.46-7.33,34.15-.58,7.41.57,14.55,6.11,20.17,4.26,4.31,9.94,5.83,14.84,7.42-1.77-2.45-4.16-5-5.75-8.06-3.56-6.78-3.09-14.18-1.6-21.28,2.46-11.82,5.68-23.47,8.47-35.22,2.73-11.51,4.7-23.07,1.08-34.21,5.14-2.45,10.58-4.16,14.94-7.33,7.13-5.18,13.67-11.19,20.25-17.08,7.86-7.05,15.24-14.67,23.33-21.44,6.39-5.35,13.85-8.76,22.66-6.86C357,360.22,358.28,360.65,359.56,361ZM989.78,600a53,53,0,0,1-11.06-16.43c-5.7-12.81-8.36-26.56-12.31-39.91-2.29-7.74-4.63-15.48-9.23-22.26a22.55,22.55,0,0,0-10.58-8.88c-5.43-2.11-11.83-1.36-18.09.34,2.64,1.28,6.23,2.48,9.21,4.55,6.54,4.55,9.75,11.59,12.06,18.84,3.74,11.74,6.86,23.67,10.41,35.47,2.68,8.92,6,17.57,12.38,24.65a33.69,33.69,0,0,0,3.76,3.18c-2.25,2.54-4.15,4.4-5.72,6.5-5.81,7.76-8.8,16.8-11.52,26-3.4,11.49-6.55,23.06-10.35,34.42-2.49,7.45-6.57,14.14-13.92,17.94-2.43,1.25-5.2,1.83-7.69,2.67,1.72.34,3.55.72,5.39,1,8.34,1.43,16.19.57,22-6.28a35.31,35.31,0,0,0,6.72-11c4.13-12.14,7.63-24.49,11.34-36.76S980.24,609.61,989.78,600ZM361.26,360.21c-1.72-4.67-2.31-8.71-1.47-12.93,1.31-6.58,4.74-12.12,9.08-16.93,7.62-8.42,15.67-16.44,23.48-24.69,5.81-6.13,11.61-12.31,15.43-20,1.81-3.6,3.08-7.48,4.46-10.89,4.21.49,8.5,1.31,12.8,1.42,10.26.28,20-2.54,29.91-4.9q16.11-3.87,32.39-7a24.53,24.53,0,0,1,16.19,2.38c3,1.6,5.57,4.08,8.26,6.11-1-2.66-2-5.57-3.21-8.34-2.92-6.43-7.69-10.75-14.71-12.34a41.67,41.67,0,0,0-18.79.41c-12.68,2.91-25.25,6.33-37.94,9.2-10.5,2.38-21.13,3.83-31.38.85-2.25,4.65-4.11,9.33-6.67,13.6-6.12,10.19-14.93,18.13-23,26.67-6.75,7.1-13.3,14.42-19.53,22a24.89,24.89,0,0,0-5.81,15C350.4,348.27,355.41,354,361.26,360.21Zm-.18,480.18-.47-.27c-2,2.6-4.2,5.09-6,7.82-3.37,5-4.66,10.48-3.13,16.54a32,32,0,0,0,6.83,13.31C365,885.5,372,893,379.12,900.36c10.64,11.07,21.78,21.75,25.89,36.43,5.95-.34,11.63-1.48,17.08-.79a271.15,271.15,0,0,1,28,5.4c11.16,2.63,22.1,6.34,33.64,7.16,7.43.53,14.55-.47,20.2-6,4.38-4.24,5.91-10,7.55-15-2.44,1.81-5,4.21-8,5.8-6.76,3.58-14.16,3.13-21.28,1.69-10.32-2.07-20.5-4.86-30.74-7.39-8.11-2-16.22-4.13-24.64-4-5,.09-9.91.87-14.69,1.33-1.42-3.44-2.72-7.32-4.58-10.91-4.82-9.26-12.26-16.46-19.35-23.93C381,882.55,373.55,875,366.8,866.91c-5.34-6.39-8.71-13.88-6.8-22.68C360.28,842.94,360.71,841.67,361.08,840.39ZM224,600.14c1.95-2.21,3.84-4.07,5.42-6.18,5.87-7.83,8.91-17,11.61-26.2,3.06-10.52,5.93-21.11,9.25-31.55,2.29-7.2,5.54-14.12,12-18.59,3.19-2.23,7.1-3.43,10-4.8a25.45,25.45,0,0,0-4.91-.9c-4.14-.08-8.41-.44-12.4.39-6.83,1.43-10.9,6.6-14.13,12.42-4.49,8.12-6.65,17.08-9.22,25.9-2.77,9.46-5.31,19-8.49,28.32a52.55,52.55,0,0,1-12.43,20.6c3,4.4,6.13,8.34,8.51,12.71,6.29,11.54,9,24.35,12.43,36.88,2.45,8.93,4.76,17.93,9.22,26.15,3.18,5.85,7.33,10.67,14,12.67,5.93,1.77,11.66.28,16.76-.78-2.85-1.37-6.35-2.56-9.29-4.58-5.7-3.91-9-9.86-11-16.23-3.71-11.47-6.87-23.12-10.36-34.66S233.67,608.6,224,600.14ZM936.86,795c-.34-5.94-1.47-11.69-.79-17.22,1.16-9.35,3.33-18.57,5.32-27.8,2.14-10,4.69-19.85,6.81-29.83a32,32,0,0,0-.68-15.71c-2.66-9.06-9.75-13.39-19.6-15.64,1.61,2.19,4,4.71,5.5,7.65,3.52,6.68,3.14,14,1.73,21-2.08,10.42-4.9,20.69-7.44,31-2,8-4.06,15.9-4,24.14.06,5.13.84,10.26,1.32,15.61a37.85,37.85,0,0,0-16.31,7.52c-7,5.78-13.71,12-20.49,18-7.82,7-15.3,14.37-23.46,20.92C859,839.4,852,841.8,844.2,840c-1.25-.28-2.48-.7-3.72-1.06a42.48,42.48,0,0,0,7.62,6.53,20,20,0,0,0,16.32,3,35,35,0,0,0,15.16-8.15c8.21-7.34,16.09-15,24-22.66C913.62,808.16,923.66,798.64,936.86,795ZM839.05,360.21c1.75-2.09,3.6-4.1,5.23-6.28,4.35-5.85,6.49-12.4,4-19.46a40.55,40.55,0,0,0-6.59-12.28c-6.44-7.72-13.45-15-20.41-22.24-7.26-7.59-14.93-14.84-20.33-23.95-2.53-4.27-4.4-8.93-6.58-13.43-5.3,1.5-11,2.44-16.68,1.49-9.31-1.54-18.59-3.33-27.77-5.49-11.18-2.63-22.12-6.35-33.66-7.15-7-.48-13.66.38-19.25,5.16-5.06,4.32-6.6,10.46-8.45,15.8,2.48-1.82,5.06-4.23,8.07-5.82,6.77-3.57,14.18-3.12,21.28-1.64,11.82,2.46,23.47,5.67,35.22,8.46,11.52,2.75,23.08,4.72,34.86.91.81,2.52,1.45,5,2.4,7.34,3.86,9.42,10.6,16.78,17.45,24,7.86,8.3,16.15,16.22,23.57,24.89C838.57,338.94,843.58,348.4,839.05,360.21Zm88.49,151.35c1.49-.52,3.56-1.19,5.6-2,9.21-3.5,14.6-9.86,15.42-20,.67-8.24-1.16-16.12-3-24-2.6-11.17-5.81-22.21-8.2-33.43-1.89-8.87-2.48-17.91.23-26.82-16-6.79-20.08-9.49-32.06-21.17-5.44-5.31-10.61-10.92-16.29-16-5.51-4.91-11.11-9.93-17.39-13.73-12.09-7.33-21.84-4-31.1,6.14a58.22,58.22,0,0,1,6.78-1.25c7.64-.52,14,2.94,19.6,7.47S877.8,376.2,883,381c5.79,5.43,11.28,11.19,17.16,16.52,7.38,6.69,15.43,12.36,25.21,14.24-.55,4.15-1.35,8.08-1.54,12-.48,10.71,2.33,20.93,4.94,31.18,2.77,10.87,6.23,21.59,7.09,32.88.4,5.19.17,10.32-2.27,15C931.86,506.06,929.42,508.88,927.54,511.56ZM513.17,926.1c-.51,2.59-.95,4.42-1.22,6.26-.64,4.23-1,8.46.23,12.68,2,6.72,6.72,10.94,12.58,14.1,10.59,5.71,22.31,8.1,33.75,11.32,14.83,4.18,29.89,7.88,41,18.69,5.18-3.3,9.88-6.84,15.06-9.47,12.06-6.13,25.36-8.65,38.27-12.32,8.25-2.34,16.53-4.64,24-9.06,9-5.3,13.43-12.83,11.63-23.46-.42-2.5-.87-5-1.3-7.43a58.65,58.65,0,0,1-2.59,7.35c-3.31,6.53-9,10.58-15.64,12.89-10.81,3.78-21.83,7-32.83,10.21-13.1,3.84-26.27,7.42-36,18.14-2-1.78-3.78-3.61-5.8-5.14-7.85-6-17.06-9.05-26.39-11.82-11.48-3.41-23.11-6.4-34.39-10.37C523.19,945,514.68,939,513.17,926.1Zm275-.92c-4.72-.52-9.09-1.33-13.49-1.43-10.07-.24-19.69,2.54-29.39,4.85-10.83,2.57-21.7,5-32.63,7.08a24.45,24.45,0,0,1-16.18-2.39c-3-1.58-5.49-4-8.12-6,.63,1.82,1.29,3.91,2.07,5.94,3.52,9.08,9.8,14.44,19.79,15.29,8.34.71,16.29-1.15,24.24-3,11.18-2.61,22.22-5.8,33.44-8.19,8.86-1.89,17.9-2.46,26.38.12,2.24-4.6,4.09-9.28,6.64-13.54,6.11-10.19,14.91-18.14,23-26.68,6.79-7.17,13.38-14.55,19.68-22.15a24.68,24.68,0,0,0,5.74-15c.27-8.3-4.68-14-10.07-19.7a63.25,63.25,0,0,1,1.3,7.16c.55,7.73-2.86,14.21-7.59,19.79-6.45,7.61-13.43,14.77-20.32,22C802.44,900,791.47,910.17,788.18,925.18ZM599.94,224c2.16,1.93,4,3.76,6,5.3,7.82,5.9,16.94,8.94,26.18,11.65,10.61,3.11,21.36,5.8,31.81,9.35,11.23,3.82,21.16,9.46,23,23.52.48-2.52.81-4.42,1.21-6.3,2.29-10.58-.95-18.93-9.95-24.79a40.7,40.7,0,0,0-9.71-5c-12.48-4-25.08-7.54-37.62-11.29-8.84-2.65-17.48-5.77-25-11.31-2-1.49-3.94-3.17-5.29-4.26-5.19,3.29-9.84,6.78-14.95,9.38-12.07,6.15-25.37,8.68-38.29,12.35-8.26,2.34-16.54,4.64-24,9.06-6.39,3.78-11.31,8.86-11.81,16.57-.31,4.77.67,9.62,1.08,14.43,1.22-2.54,1.79-5.12,2.94-7.42,3.29-6.55,9-10.59,15.63-12.9,10.9-3.82,22-7,33.09-10.29C577.24,238.25,590.32,234.65,599.94,224ZM257.16,506.26c-5.08-4.9-7.09-10.43-7.57-16.69-.62-8.13,1.16-15.95,3-23.75,2.78-11.66,6.1-23.2,8.47-34.94,1.17-5.76.93-11.85.89-17.78,0-3.08-1-6.17-1.53-9.37a8.81,8.81,0,0,1,1.15-.44,44,44,0,0,0,19.6-10.06c8-7,15.48-14.44,23.3-21.57,6-5.52,12-11.19,18.46-16.16,6.73-5.17,14.41-8.1,23.2-5.86.15,0,.37-.15.71-.3-.77-.68-1.4-1.25-2-1.79-8.76-7.48-18-8.21-28.07-2.46-7,4-12.88,9.51-18.66,15.07-5.54,5.34-10.9,10.86-16.45,16.19-9.39,9-19.18,17.45-31.88,21.17.46,3.84,1.14,7.46,1.29,11.09.39,9.21-1.56,18.14-3.66,27-3.07,13.07-6.44,26.08-9.19,39.22a31.57,31.57,0,0,0,1.06,17.44C242.22,500.33,248.75,503.91,257.16,506.26ZM939.53,796.32a8.93,8.93,0,0,1-1.11.4A39.24,39.24,0,0,0,921.3,805c-7.76,6.53-15.1,13.55-22.64,20.35-7.14,6.44-14,13.21-21.56,19.17-6.65,5.26-14.39,8.12-23.18,5.88-.16-.05-.38.13-.94.34,2.13,1.61,3.95,3.13,5.92,4.43,6.2,4.13,12.83,4.63,19.72,2a46.84,46.84,0,0,0,15.16-9.78c7.55-7.06,14.91-14.3,22.34-21.47s14.92-14.28,24.15-19.16c3.27-1.72,6.76-3,10.26-4.59-2.84-10.76-1.57-21.47.92-32.08,3-12.92,6.53-25.72,9.47-38.65,1.67-7.33,2.33-14.81.37-22.29s-10.21-14.33-17.18-14.81c1.49,2.66,3.5,5.46,4.73,8.57,2.77,7,2.17,14.32.67,21.43-2.16,10.22-4.88,20.32-7.42,30.46-2.38,9.51-4.78,19-4.39,28.94C937.86,787.78,938.86,791.88,939.53,796.32ZM849.87,347.85c1.55-1.83,2.74-3.16,3.84-4.56,3.78-4.84,5.72-10.28,4.9-16.45a26.28,26.28,0,0,0-5.81-13.43q-9.6-11.46-19.9-22.33c-8.4-8.84-17.47-17.1-23.94-27.57-2.7-4.36-4.67-9.16-6.94-13.71-3.5.41-7.21,1.09-10.93,1.22-10.51.38-20.61-2.18-30.72-4.64-10.82-2.63-21.6-5.42-32.48-7.81a39.67,39.67,0,0,0-18.51.14c-7.61,1.94-14.52,10-15.17,18,4.47-4.69,10-6.68,16.27-7.16,8.13-.62,15.94,1.17,23.73,3,11.66,2.78,23.2,6.1,34.94,8.47,5.75,1.16,11.84.92,17.77.89,3.08,0,6.16-1,9.31-1.52.8,2.41,1.47,4.87,2.41,7.22,4,9.95,11.12,17.7,18.35,25.32,7.93,8.35,16.25,16.36,23.81,25C848,326.23,853.47,335.46,849.87,347.85ZM944,690.22c6.54,1.63,12.38,2.11,18-.56,7-3.31,11.19-9.34,13.56-16.27,4.16-12.11,7.63-24.47,11.32-36.75,2.93-9.79,5.82-19.6,11.42-28.29,1.91-3,4.23-5.68,6.41-8.59a45.42,45.42,0,0,1-11.58-18.17c-4.41-13.38-8.3-26.93-12.39-40.42-2.5-8.23-5-16.43-10.09-23.56-5.93-8.31-14.93-11.29-25.21-8,2.7,1.67,5.77,3.15,8.33,5.24a29.92,29.92,0,0,1,9.37,14.09c4,12.27,7.6,24.69,11.29,37.06,2.58,8.66,5.24,17.3,10.32,24.87,2.21,3.28,4.92,6.21,7.32,9.21-2.07,2.47-4.39,4.88-6.28,7.57-5.66,8.05-8.64,17.29-11.36,26.61-3.09,10.61-5.78,21.35-9.28,31.82S956.62,686.43,944,690.22ZM349.53,853c-5.2,5.6-8.86,11.49-8.13,19.29a26,26,0,0,0,5.82,14.21c6.34,7.68,13,15.13,19.88,22.36,12,12.58,25.18,24.18,30.58,41.72,8.94-2.52,17.92-2.17,26.71-.29,11.73,2.49,23.3,5.7,34.95,8.52,8.45,2.05,16.92,3.9,25.74,3.48a21.89,21.89,0,0,0,20.85-18.87c-6.28,5.2-9.24,6.52-16.78,7.05-9.7.68-18.9-2.07-28.19-4.25-11.41-2.67-22.79-5.53-34.29-7.79-4.43-.87-9.15-.54-13.72-.34a65.17,65.17,0,0,0-8.66,1.43c-2.09-4.68-3.75-9.27-6.09-13.46-4.74-8.51-11.61-15.35-18.33-22.29-7-7.23-14.1-14.39-20.79-21.91-5.18-5.84-9.32-12.46-10-20.56C348.88,858.66,349.35,856,349.53,853ZM256.24,694c-7.47,2.12-14,5.9-17,14.09a31.75,31.75,0,0,0-1.1,17.19c2.41,12,5.51,23.85,8.36,35.76,2.39,10,4.86,19.91,4.51,30.25-.13,3.7-.82,7.38-1.27,11.17,10.31,2.92,18.76,8.9,26.4,16,8.06,7.53,15.83,15.35,23.79,23,6.47,6.21,13.07,12.26,21.57,15.69A21.15,21.15,0,0,0,346.14,851a65.52,65.52,0,0,1-8.38-.06,29.68,29.68,0,0,1-16-7.35c-8.63-7.59-17-15.49-25.32-23.42-7.55-7.18-14.85-14.66-24.24-19.47-3.73-1.91-7.77-3.24-11.83-4.9.36-1.53.82-3.25,1.16-5,2.06-10.68,0-21-2.42-31.37-3-13-6.22-26-9-39a29.24,29.24,0,0,1,1.16-17.13C252.49,700,254.58,697,256.24,694Zm-.66-3.85c-8-2.24-12.71-7.37-16.15-13.78a57.3,57.3,0,0,1-4.53-10.24c-3.6-11.79-6.85-23.68-10.34-35.51-2.54-8.61-5.66-17-11.15-24.23-1.72-2.28-3.79-4.3-5.68-6.4,1.88-2.12,3.83-4,5.47-6.2,6.33-8.37,9.5-18.17,12.4-28.06,3.14-10.69,5.8-21.53,9.36-32.08s8.56-20.16,20.69-23.75a7.29,7.29,0,0,0-1.16-.57c-11.74-3-20.91.88-27.13,11.4-5.05,8.53-7.4,18-10.11,27.44-2.81,9.71-5.42,19.5-8.62,29.09a57.26,57.26,0,0,1-13.33,22.56c2.13,2.71,4.29,5.14,6,7.83a66.16,66.16,0,0,1,4.64,8.52c5.76,12.51,8.6,26,12.32,39.12,2.36,8.35,4.73,16.69,9.19,24.25C233.64,690,242.64,693.93,255.58,690.15Zm251-432.48c-2.13-6.76-4.53-12.4-10-16.12-6.62-4.48-14.15-4.75-21.46-3.46-10.95,1.94-21.7,5-32.57,7.41-7.88,1.78-15.76,3.6-23.71,5a51.36,51.36,0,0,1-21.16-1C394.16,261.72,386.47,271.11,378,280c-6.43,6.74-13.08,13.28-19.54,20-6.21,6.47-12.26,13.08-15.66,21.6A21.08,21.08,0,0,0,349,346.11a65.38,65.38,0,0,1,.06-8.37,29.72,29.72,0,0,1,7.33-16.05c7.59-8.63,15.49-17,23.42-25.33,7.24-7.6,14.78-15,19.61-24.45,1.86-3.67,3.16-7.63,4.78-11.64a19.13,19.13,0,0,0,2.76.64c4.55.46,9.14,1.34,13.68,1.19,12.44-.43,24.24-4.37,36.24-7.24a243.92,243.92,0,0,1,27-5.26C492.2,248.59,500.05,250.54,506.57,257.67Zm3.23,687.06c-2.13,8.45-2.23,16.64,4.71,22.93a38,38,0,0,0,12.08,7.82c10.94,3.93,22.17,7,33.31,10.37,9.54,2.86,19.24,5.31,28,10.27,4.32,2.45,8.3,5.51,12,8,4.7-3,9.2-6.44,14.15-9,13-6.65,27.25-9.45,41.14-13.39,8.27-2.34,16.53-4.67,24.06-9,8.89-5.11,13.64-12.41,12.26-23-.21-1.6-.54-3.18-.81-4.77H690a22.56,22.56,0,0,1-7.6,11.56c-7.56,6.24-16.69,9-25.85,11.7-9.95,2.91-20,5.36-29.93,8.51s-19.41,7.43-26.44,15.67c-2.2-2-4.11-3.92-6.27-5.54-9.46-7.08-20.61-10.25-31.72-13.48-10.37-3-20.84-5.76-31-9.33C521.55,960.71,513.15,955.43,509.8,944.73ZM690.24,255.42c1.91-7.12,2.23-14-2.27-20.43a28.49,28.49,0,0,0-14.44-10.54c-11-3.75-22.19-7-33.34-10.31-9.53-2.85-19.23-5.3-28-10.25-4.33-2.46-8.31-5.52-12.61-8.41a45.16,45.16,0,0,1-17.93,11.37c-13.37,4.44-26.93,8.33-40.43,12.4-8.31,2.51-16.59,5.05-23.78,10.2-8.47,6.07-11.13,15.54-7.65,25.62.34-.74.64-1.33.89-1.93s.44-1.29.74-1.9c3.59-7.39,10-11.76,17.29-14.28,12.28-4.26,24.84-7.68,37.3-11.41,8.66-2.59,17.29-5.27,24.89-10.33,3.28-2.19,6.19-4.92,9.22-7.36,2.08,1.81,4.09,3.8,6.33,5.48,8.33,6.22,18.06,9.32,27.86,12.22C645.93,229,657.65,232,669,236,678.65,239.3,687,244.67,690.24,255.42Zm252.39,251c6.86-2,12.74-4.7,16.39-10.67,3.93-6.42,4.21-13.64,3-20.6-2-10.95-5-21.7-7.42-32.56-1.78-7.88-3.61-15.75-5-23.7a51.57,51.57,0,0,1,1-21.23,51.41,51.41,0,0,1-18.19-9.23q-8-6.37-15.48-13.37c-5.74-5.36-11.16-11.07-16.81-16.54-5.83-5.64-11.87-11-19.23-14.67-10.39-5.14-20.55-2.45-27,5.16a61.77,61.77,0,0,1,8.36.06c7.92,1,14.38,5.28,20.1,10.46,8,7.26,15.68,14.9,23.47,22.4,6.83,6.58,13.67,13.17,22.23,17.47,3.67,1.85,7.62,3.16,11.64,4.8-.11.56-.34,1.37-.44,2.2-.56,4.38-1.79,8.82-1.46,13.13a163.61,163.61,0,0,0,3.35,21.42c2.77,13,6.3,25.77,8.82,38.77C951.85,489.36,950.59,498.7,942.63,506.39ZM802.4,950.62c3.44-12,10.67-21.16,18.86-29.71,6.68-7,13.51-13.8,20.22-20.75,5.69-5.9,11.14-12,14.83-19.43,4.84-9.78,2.46-21-5.21-26.89a74.71,74.71,0,0,1-.05,7.89,29.74,29.74,0,0,1-7.11,16.16c-6,7.09-12.28,13.91-18.68,20.62-7.94,8.33-16.62,16-22.58,26-2.79,4.67-4.72,9.87-7.12,15-2.45-.43-5.44-1.07-8.47-1.45-9.4-1.18-18.51.77-27.56,2.91-11,2.6-21.88,5.77-32.94,8.1-11.46,2.41-22.94,3.34-32.85-6.28,2.38,8.25,6,14.77,13.92,17.78s15.88,2.08,23.71.38c11.21-2.43,22.24-5.66,33.4-8.33C777.08,949.7,789.45,947.17,802.4,950.62Zm59.52-62.37,11.88,13.16c9.36-9.33,18.45-18.38,27.7-27.58l-13.25-12Zm39.07-562-27.61-27.56-11.54,12.81L888,338ZM337.93,888.07,311.58,861.8l-13.2,11.9L326,901.27ZM326.26,298.66c-9.3,9.27-18.39,18.32-27.62,27.53,5,4.53,9.36,8.45,13.09,11.8l26.36-26.19ZM987.61,724l10-37.73-17.6-3.74-9.6,35.9Zm-.09-248.19-17.16,5.57c3.22,12,6.39,23.81,9.62,35.82l17.6-3.72ZM682.46,980c1.24,5.75,2.47,11.44,3.79,17.59L724,987.55c-2-6.12-3.82-11.7-5.58-17.11Zm-201.14-9.71-5.56,17.11,37.75,10.11L517.2,980ZM723.86,212.4l-37.68-10c-1.35,6.36-2.55,12.06-3.72,17.58l35.82,9.57C720.09,224,721.89,218.44,723.86,212.4ZM202.39,686.18c3.38,12.67,6.67,25,10,37.63l17.13-5.61c-3.23-12.08-6.36-23.81-9.56-35.77Zm.06-172.66,17.47,3.66c3.29-11.66,6.48-22.94,9.58-34.24a2.13,2.13,0,0,0-1-1.84c-5.13-1.76-10.32-3.37-16-5.19C209.15,488.49,205.82,500.92,202.45,513.52ZM517.31,220.09c-1.23-5.79-2.45-11.5-3.76-17.67L475.94,212.5c1.8,5.61,3.47,10.71,5.05,15.83.41,1.35,1.09,1.47,2.29,1.08,3.07-1,6.14-2,9.26-2.83C500.67,224.4,508.82,222.31,517.31,220.09ZM889.5,341.45,915,368.67l13-9.44L903.37,329Zm25.79,489.73-25.65,27.17,13.91,12.51,24.56-30.32Zm-84.15,84,9.4,13,30.34-24.62-12.52-13.86ZM284.71,831c-4.51,3.28-8.54,6.23-12.88,9.4l24.55,30.31,13.89-12.53ZM858.54,309.88l12.19-13.54L840.4,271.78c-3.21,4.42-6.17,8.51-9.38,13,8.8,8.13,17.38,16,26,23.95C857.41,309.07,857.9,309.39,858.54,309.88Zm-529.4-13.37,12.51,13.88,27.17-25.49L359.42,272ZM329,903.33l30.34,24.58,9.34-12.85L341.5,889.42ZM986.36,727.7a11.12,11.12,0,0,0-1.19-.7c-3.39-1.12-6.8-2.2-10.17-3.37-5.87-2-5.86-2.06-7.81,3.69-.14.41-.31.8-.44,1.2-3,9.55-6,19.09-9,28.72l14.73,6.53C977.2,751.56,981.76,739.68,986.36,727.7ZM721.51,231.22l35.64,10.95,6.58-14.8c-11.92-4.45-23.52-8.81-35.15-13.07a2.14,2.14,0,0,0-1.83,1C725,220.41,723.34,225.59,721.51,231.22ZM310.14,341.33l-13.62-12.22L272,359.4c3.91,2.85,7.46,5.33,10.89,8,1.29,1,2.06.91,3.19-.24,4.18-4.26,8.61-8.29,12.68-12.65C302.64,350.35,306.21,345.91,310.14,341.33Zm-82.55,94.74c-4.68,12.23-9.28,24.24-13.94,36.39l17.72,5.75,10.92-35.62Zm3.72,285.4c-5.78,1.88-11,3.51-16.09,5.33-.46.16-.88,1.69-.66,2.36,2,5.8,4,11.57,6.23,17.28s4.55,11.31,6.9,17.12l14.4-6.44ZM436,972.36l36.4,14,5.75-17.69-35.68-10.92C440.23,962.76,438.21,967.31,436,972.36Zm568.42-416.84c-2.07-13.14-4.06-25.79-6.07-38.53l-17.82,3.81c.43,2.39.72,4.57,1.22,6.69,2.17,9.25,4.37,18.49,6.66,27.71.17.68,1.12,1.72,1.65,1.68C994.61,556.57,999.16,556.05,1004.41,555.52Zm-18-83.17c-4.72-12.25-9.33-24.23-14-36.4l-14.57,6.46c3.63,11.94,7.23,23.81,10.84,35.7ZM721.58,968.71l5.8,17.73,36.43-14c-2.28-5.11-4.34-9.72-6.49-14.56Zm-279-726.57,35.71-10.8-5.8-17.71-36.38,14ZM557.1,989c-12-3.61-23.9-6.74-36.35-8.39L517,998.11c7.1,1.23,14.05,2.51,21,3.61,5,.8,10.12,1.4,15.19,2,1.13.14,2.49.5,2.65-1.39C556.27,998,556.69,993.56,557.1,989ZM211.47,557.17c2.84-12.12,5.65-24.06,8.51-36.25l-18.27-3.87c-2,12.93-4,25.6-6,38.51Zm-15.86,87c2,12.89,4,25.57,6,38.43l18.23-3.88c-2.83-12.19-5.62-24.21-8.41-36.25ZM517,201.69c1.22,5.64,2.4,10.77,3.39,15.94.31,1.61,1.06,2,2.46,1.64,9.18-2.06,18.37-4.09,27.54-6.21,2.14-.5,5.12-.7,6.06-2.13s.12-4.35,0-6.6c-.12-2-.32-4.08-.54-6.11a25.49,25.49,0,0,0-.59-2.55ZM682.72,998.36c-1.34-6.26-2.57-12-3.9-18.21l-36.33,8.42c.61,5.55,1.14,10.44,1.73,15.81ZM998.41,682.7c2-13,4-25.63,6-38.51l-15.76-1.69c-2.86,12.18-5.68,24.19-8.52,36.31ZM642.49,211.31l36.32,8.54c1.35-6.39,2.55-12.08,3.86-18.23l-38.49-6C643.59,201.05,643.07,205.94,642.49,211.31ZM949.68,393.6l.64-.51c-6.74-10.29-13.48-20.57-20.3-31L917.83,371C927.44,380.21,936.84,389.32,949.68,393.6ZM799.46,246.47l.24-.92L766.93,229c-2.18,4.9-4.11,9.22-6.12,13.75C773.69,246,786.32,249,799.46,246.47Zm154.12,553.1.83.23L971,767l-13.77-6.14C954,773.74,951,786.38,953.58,799.57ZM393.65,250.29l-.45-.59-30.9,20.21,8.86,12.19C380.34,272.47,389.44,263.12,393.65,250.29Zm-.59,699.94.54-.65c-4.41-12.74-13.39-22.18-22.63-31.69L362.2,930ZM559.14,195.3c.57,5.37,1.06,10,1.58,14.95,12.63-3.83,25.16-7.16,35.13-16.05l-.18-.91ZM246.39,399.88a12.06,12.06,0,0,0-.85,1.16c-5.22,10.19-10.44,20.39-15.57,30.63a2.07,2.07,0,0,0,.77,1.87c4,1.85,8,3.55,12.13,5.35C246.08,426.17,249,413.62,246.39,399.88ZM828.8,918c-9.16,9.63-18.22,19-22.4,31.74l.5.55,30.74-20.14ZM990,560.66c2.84,12.36,9.74,30.56,16.8,35.34-.69-12.49-1.36-24.59-2-36.84ZM229,766.91c5.65,11.15,11.16,22,16.66,32.81l.87-.34c2.3-13.11-.48-25.73-3.8-38.57Zm53-395.82-12.12-8.76L249.81,393l.61.48C263.07,389.26,272.4,380.31,282,371.09ZM249.74,806.85l20,30.61,12.12-8.87C272.28,819.55,263,810.5,249.74,806.85ZM767.08,971l32.67-16.59c-10.46-3.36-28-.42-38.68,3.15C763,961.87,764.94,966.18,767.08,971ZM193.32,595.57c7.54-6.31,13.42-21.28,16.69-34.91l-14.69-1.49Zm207.3,358-.32.85,32.38,16.45,6.09-13.67C426.11,953.91,413.61,951,400.62,953.53Zm195,53.18.24-.9c-10.06-8.77-22.54-12.26-35.15-16-.51,4.89-1,9.58-1.56,14.85ZM930.2,837.61c6.79-10.38,13.44-20.54,20.1-30.7l-.61-.46c-12.69,4.29-22.06,13.2-31.55,22.41ZM193.3,603.84c.68,12.51,1.34,24.5,2,36.69l14.8-1.61C205,620.48,199.29,608.39,193.3,603.84Zm207.11-358.3.25.89c13,2.36,25.61-.48,38.29-3.69-2-4.51-4-8.94-6.16-13.65Zm240.16,759.17c-.58-5.39-1.07-10-1.59-14.86-12.45,3.75-24.87,7.12-34.75,15.93l.2.91ZM954.42,400.25l-.85.31c-2.31,13,.4,25.52,3.69,38.18l13.63-6.1ZM807,249.77l-.55.54c4.23,12.62,13.13,21.93,22.26,31.44l8.76-12Zm199.73,354.62-.92-.2c-8.65,10-12.21,22.29-15.86,34.79l14.8,1.57C1005.44,628.3,1006.1,616.35,1006.75,604.39ZM640.58,195.27l-36.15-2-.18.93c10,8.59,22.29,12.2,34.75,15.79ZM966,717.92l.77.19,9.8-36.65-.77-.35c-4.67,7.46-10.71,13-20.49,14C963.37,701,965.94,708.93,966,717.92Zm-742.1-37.48-.67.18Q228.15,699,233,717.35l.91,0c.44-8.65,3.06-16.25,10.69-22C234.69,694,228.4,688.43,223.93,680.44ZM955.42,504.67c9.77,1.29,15.87,6.7,20.44,14.25l.75-.43-9.84-36.65L966,482C965.94,490.88,963.25,498.58,955.42,504.67ZM223.27,519.38l.54.31c4.62-7.93,10.8-13.7,21-14.84-8.11-5.6-10.37-13.51-11-22.22H233Q228.14,501,223.27,519.38ZM717.23,967c0-.33,0-.66,0-1-8.63-.32-16.06-3.12-21.86-10.67-1.22,9.65-6.58,15.84-14.19,20.43l.45.72ZM519,224.17l-.39-.72L482.79,233l0,.93c8.65.4,16.18,3.16,22,10.7C506,234.89,511.35,228.72,519,224.17Zm162.52-.7-.35.72c7.55,4.69,13,10.85,13.9,19.41,3.37-2.4,6.47-5.33,10.15-7s7.92-2.17,11.92-3.18l.17-.41ZM504.92,955.2c-5.64,8-13.38,10.43-22.08,10.9l0,.92,35.75,9.51.33-.77C511.38,971.13,506,965,504.92,955.2ZM859.43,314.83l-1.07.66c4.19,7.68,5.48,15.61,2.25,23.23,4.21-.35,8.36-1.28,12.39-.88s7.82,2.13,11.73,3.28l.53-.48Zm-544,543.53-.46.76L340.93,885l.8-.49c-4.23-7.65-5.47-15.58-1.82-24.44C330.92,864.26,323.11,862.36,315.47,858.36ZM315,340.84l.52.82c7.61-4.19,15.47-5.51,24.36-1.73-4.08-9-2.25-16.87,1.78-24.56l-.75-.42Zm570,518.27c-.16-.27-.31-.55-.46-.82-7.66,4.28-15.6,5.47-23.26,2.34.34,4.23,1.23,8.31.82,12.25s-2.1,7.88-3.46,12.6C867.79,876.38,876.42,867.74,885.06,859.11Z"/></svg>