<svg id="Layer_1" data-name="Layer 1" xmlns="http://www.w3.org/2000/svg" viewBox="0 0 1200 1200"><defs><style>.cls-1{fill:#010101;}</style></defs><path class="cls-1" d="M551.78,247.75a42.53,42.53,0,0,1,1.08,22.13,2,2,0,0,0,1.67,2.38,1.69,1.69,0,0,0,2.64-1.13,57.66,57.66,0,0,0-4.12-33c-2.46-5.5-6.42-10-9.09-15.39-1.62-3.26-2.67-7.28-.87-10.7A5.78,5.78,0,0,1,547,209a4.16,4.16,0,0,1,4.57,2.29,4.29,4.29,0,0,0-1.08,7.18c2.93,2.55,7,.11,7.84-3.19,2.41-9.38-13.75-14-19.89-9.63-8.76,6.28-3.07,18,2.22,24.27C545.32,235.43,549.51,240.73,551.78,247.75Z"/><path class="cls-1" d="M364.84,309.59c13.81,4.86,24.69,13.79,29.28,28.12a1.94,1.94,0,0,0,2.6,1.21,1.72,1.72,0,0,0,1.74-2.34,57.31,57.31,0,0,0-18.69-25.46c-4.58-3.51-9.7-5.71-14.71-8.49-3.19-1.76-6.57-4.09-7.82-7.7-.83-2.38-.7-5.29,1.33-7.07a4.17,4.17,0,0,1,5.13-.3c-2,2.39-.43,6.35,2.87,6.79,3.61.47,5.79-3.32,5-6.52-2.24-9.41-18.49-5.56-21.91.93-2.1,4-.94,8.8,1.55,12.3C354.5,305.67,359.69,307.78,364.84,309.59Z"/><path class="cls-1" d="M233.18,464.45c4.62,3,10,2.93,15.3,2.11,7.63-1.21,14.62-2.59,22.32-.93a42.5,42.5,0,0,1,19.75,10.15,2,2,0,0,0,2.87-.26,1.7,1.7,0,0,0,.34-2.87,57.47,57.47,0,0,0-31.23-13c-6.56-.61-13.42,1.19-19.87-.09-3.49-.69-7.32-2.75-7.95-6.59-.48-2.89,2.22-5.75,4.45-5.54a4.2,4.2,0,0,0,4.44,4.88c3.74-.28,5.08-4.43,3.33-7.39-5.19-8.81-18.4,2.19-19.24,9.05C227.16,458.33,229.63,462.15,233.18,464.45Z"/><path class="cls-1" d="M229.88,659.35c5.56-4.67,10.85-8.86,17.87-11.13a42.53,42.53,0,0,1,22.13-1.08,2,2,0,0,0,2.38-1.67,1.69,1.69,0,0,0-1.13-2.64,57.66,57.66,0,0,0-33,4.12c-5.5,2.46-10,6.42-15.39,9.09-3.26,1.62-7.28,2.67-10.7.87A5.78,5.78,0,0,1,209,653a4.16,4.16,0,0,1,2.29-4.57,4.29,4.29,0,0,0,7.18,1.08c2.55-2.93.11-7-3.19-7.84-9.38-2.41-14,13.75-9.63,19.89C211.89,670.33,223.57,664.64,229.88,659.35Z"/><path class="cls-1" d="M309.59,835.16c4.86-13.81,13.79-24.69,28.12-29.28a1.94,1.94,0,0,0,1.21-2.6,1.72,1.72,0,0,0-2.34-1.74,57.31,57.31,0,0,0-25.46,18.69c-3.51,4.58-5.71,9.7-8.49,14.71-1.76,3.19-4.09,6.57-7.7,7.82-2.38.83-5.29.7-7.07-1.33a4.17,4.17,0,0,1-.3-5.13c2.39,2,6.35.43,6.79-2.87.47-3.61-3.32-5.79-6.52-5-9.41,2.24-5.56,18.49.93,21.91,4,2.1,8.8.94,12.3-1.55C305.67,845.5,307.78,840.31,309.59,835.16Z"/><path class="cls-1" d="M465.63,929.2a42.5,42.5,0,0,1,10.15-19.75,2,2,0,0,0-.26-2.87,1.7,1.7,0,0,0-2.87-.34,57.47,57.47,0,0,0-13,31.23c-.61,6.56,1.19,13.42-.09,19.87-.69,3.49-2.75,7.32-6.59,7.95-2.89.48-5.75-2.22-5.54-4.45a4.2,4.2,0,0,0,4.88-4.44c-.28-3.74-4.43-5.08-7.39-3.33-8.81,5.19,2.19,18.4,9.05,19.24,4.33.53,8.15-1.94,10.45-5.49,3-4.62,2.93-10,2.11-15.3C465.35,943.89,464,936.9,465.63,929.2Z"/><path class="cls-1" d="M648.22,952.25a42.53,42.53,0,0,1-1.08-22.13,2,2,0,0,0-1.67-2.38,1.69,1.69,0,0,0-2.64,1.13,57.66,57.66,0,0,0,4.12,33c2.46,5.5,6.42,10,9.09,15.39,1.62,3.26,2.67,7.28.87,10.7A5.78,5.78,0,0,1,653,991a4.16,4.16,0,0,1-4.57-2.29,4.29,4.29,0,0,0,1.08-7.18c-2.93-2.55-7-.11-7.84,3.19-2.41,9.38,13.75,14,19.89,9.63,8.76-6.28,3.07-18-2.22-24.27C654.68,964.57,650.49,959.27,648.22,952.25Z"/><path class="cls-1" d="M835.16,890.41c-13.81-4.86-24.69-13.79-29.28-28.12a1.94,1.94,0,0,0-2.6-1.21,1.72,1.72,0,0,0-1.74,2.34,57.31,57.31,0,0,0,18.69,25.46c4.58,3.51,9.7,5.71,14.71,8.49,3.19,1.76,6.57,4.09,7.82,7.7.83,2.38.7,5.29-1.33,7.07a4.17,4.17,0,0,1-5.13.3c2-2.39.43-6.35-2.87-6.79-3.61-.47-5.79,3.32-5,6.52,2.24,9.41,18.49,5.56,21.91-.93,2.1-4,.94-8.8-1.55-12.3C845.5,894.33,840.31,892.22,835.16,890.41Z"/><path class="cls-1" d="M966.82,735.55c-4.62-3-10-2.93-15.3-2.11-7.63,1.21-14.62,2.59-22.32.93a42.5,42.5,0,0,1-19.75-10.15,2,2,0,0,0-2.87.26,1.7,1.7,0,0,0-.34,2.87,57.47,57.47,0,0,0,31.23,13c6.56.61,13.42-1.19,19.87.09,3.49.69,7.32,2.75,7.95,6.59.48,2.89-2.22,5.75-4.45,5.54a4.2,4.2,0,0,0-4.44-4.88c-3.74.28-5.08,4.43-3.33,7.39,5.19,8.81,18.4-2.19,19.24-9C972.84,741.67,970.37,737.85,966.82,735.55Z"/><path class="cls-1" d="M970.12,540.65c-5.56,4.67-10.85,8.86-17.87,11.13a42.53,42.53,0,0,1-22.13,1.08,2,2,0,0,0-2.38,1.67,1.69,1.69,0,0,0,1.13,2.64,57.66,57.66,0,0,0,33-4.12c5.5-2.46,10-6.42,15.39-9.09,3.26-1.62,7.28-2.67,10.7-.87A5.78,5.78,0,0,1,991,547a4.16,4.16,0,0,1-2.29,4.57,4.29,4.29,0,0,0-7.18-1.08c-2.55,2.93-.11,7,3.19,7.84,9.38,2.41,14-13.75,9.63-19.89C988.11,529.67,976.43,535.36,970.12,540.65Z"/><path class="cls-1" d="M890.41,364.84c-4.86,13.81-13.79,24.69-28.12,29.28a1.94,1.94,0,0,0-1.21,2.6,1.72,1.72,0,0,0,2.34,1.74,57.31,57.31,0,0,0,25.46-18.69c3.51-4.58,5.71-9.7,8.49-14.71,1.76-3.19,4.09-6.57,7.7-7.82,2.38-.83,5.29-.7,7.07,1.33a4.17,4.17,0,0,1,.3,5.13c-2.39-2-6.35-.43-6.79,2.87-.47,3.61,3.32,5.79,6.52,5,9.41-2.24,5.56-18.49-.93-21.91-4-2.1-8.8-.94-12.3,1.55C894.33,354.5,892.22,359.69,890.41,364.84Z"/><path class="cls-1" d="M734.37,270.8a42.5,42.5,0,0,1-10.15,19.75,2,2,0,0,0,.26,2.87,1.7,1.7,0,0,0,2.87.34,57.47,57.47,0,0,0,13-31.23c.61-6.56-1.19-13.42.09-19.87.69-3.49,2.75-7.32,6.59-7.95,2.89-.48,5.75,2.22,5.54,4.45a4.2,4.2,0,0,0-4.88,4.44c.28,3.74,4.43,5.08,7.39,3.33,8.81-5.19-2.19-18.4-9-19.24-4.33-.53-8.15,1.94-10.45,5.49-3,4.62-2.93,10-2.11,15.3C734.65,256.11,736,263.1,734.37,270.8Z"/><path class="cls-1" d="M641.7,212.23c-.89,3.45,1.69,7.75,5.59,7.2,3.51-.49,5.13-5.1,2.32-7.43a4.05,4.05,0,0,0-1.2-.69A4.16,4.16,0,0,1,653,209a5.9,5.9,0,0,1,3.9,3.11c1.8,3.42.75,7.45-.87,10.7-2.67,5.35-6.63,9.88-9.09,15.39a57.66,57.66,0,0,0-4.12,33,1.69,1.69,0,0,0,2.64,1.13,2,2,0,0,0,1.67-2.38,42.52,42.52,0,0,1,9-36.25c5.68-6.82,14.37-16.62,7.68-25.81C658.58,200.64,643.91,203.61,641.7,212.23Z"/><path class="cls-1" d="M451.23,246.27c2.28-2.58.8-7.11-2.84-7.19a3.63,3.63,0,0,0-.89.09c-.24-2.11,2.12-4.66,4.72-4.6,4,.09,6.39,4,7.24,7.46,1.63,6.55-.41,13.8.22,20.5a57.47,57.47,0,0,0,13,31.23,1.7,1.7,0,0,0,2.87-.34,2,2,0,0,0,.26-2.87,42.73,42.73,0,0,1-10.29-36.33c1.52-8.76,3.86-23.79-8.31-26.42-4.55-1-8.89,1.61-11.66,5C443,236,440.4,241.26,443,245.1,444.75,247.72,448.93,248.85,451.23,246.27Z"/><path class="cls-1" d="M285.44,370.4c2.47,2,6.91,1.83,8.45-1.27s-1.26-7.28-4.89-6.18a4,4,0,0,0-1.42.77,4.16,4.16,0,0,1,.28-5.15c1.64-1.87,4.2-2.11,6.45-1.5,3.94,1.06,6.46,4.6,8.32,8,2.77,5,5,10.13,8.49,14.71a57.31,57.31,0,0,0,25.46,18.69,1.72,1.72,0,0,0,2.34-1.74,1.94,1.94,0,0,0-1.21-2.6,42.27,42.27,0,0,1-26.18-23.94c-3.53-8.61-7-22.9-19.34-21.51C283.38,349.67,278.31,364.55,285.44,370.4Z"/><path class="cls-1" d="M212.23,558.3c3.45.89,7.75-1.69,7.2-5.59-.49-3.51-5.1-5.13-7.43-2.32a4.05,4.05,0,0,0-.69,1.2A4.16,4.16,0,0,1,209,547a5.9,5.9,0,0,1,3.11-3.9c3.42-1.8,7.45-.75,10.7.87,5.35,2.67,9.88,6.63,15.39,9.09a57.66,57.66,0,0,0,33,4.12,1.69,1.69,0,0,0,1.13-2.64,2,2,0,0,0-2.38-1.67,42.52,42.52,0,0,1-36.25-9c-6.82-5.68-16.62-14.37-25.81-7.68C200.64,541.42,203.61,556.09,212.23,558.3Z"/><path class="cls-1" d="M232.85,754.47C236,757,241.26,759.6,245.1,757c2.62-1.76,3.75-5.94,1.17-8.24s-7.11-.8-7.19,2.84a3.77,3.77,0,0,0,.09.9c-2.11.23-4.66-2.13-4.6-4.73.09-4,4-6.39,7.46-7.24,6.55-1.63,13.8.41,20.5-.22a57.47,57.47,0,0,0,31.23-13,1.7,1.7,0,0,0-.34-2.87,2,2,0,0,0-2.87-.26,42.73,42.73,0,0,1-36.33,10.29c-8.76-1.53-23.79-3.86-26.42,8.31C226.82,747.37,229.41,751.71,232.85,754.47Z"/><path class="cls-1" d="M370.4,914.56c2-2.47,1.83-6.91-1.27-8.45s-7.28,1.27-6.18,4.89a4,4,0,0,0,.77,1.42,4.16,4.16,0,0,1-5.15-.28c-1.87-1.64-2.11-4.2-1.5-6.45,1.06-3.94,4.6-6.46,8-8.32,5-2.77,10.13-5,14.71-8.49a57.31,57.31,0,0,0,18.69-25.46,1.72,1.72,0,0,0-1.74-2.34,1.94,1.94,0,0,0-2.6,1.21,42.27,42.27,0,0,1-23.94,26.18c-8.61,3.53-22.9,7-21.51,19.34C349.67,916.62,364.55,921.69,370.4,914.56Z"/><path class="cls-1" d="M558.3,987.77c.89-3.45-1.69-7.75-5.59-7.2-3.51.49-5.13,5.1-2.32,7.43a4.05,4.05,0,0,0,1.2.69A4.16,4.16,0,0,1,547,991a5.9,5.9,0,0,1-3.9-3.11c-1.8-3.42-.75-7.45.87-10.7,2.67-5.35,6.63-9.88,9.09-15.39a57.66,57.66,0,0,0,4.12-33,1.69,1.69,0,0,0-2.64-1.13,2,2,0,0,0-1.67,2.38,42.52,42.52,0,0,1-9,36.25c-5.68,6.82-14.37,16.62-7.68,25.81C541.42,999.36,556.09,996.39,558.3,987.77Z"/><path class="cls-1" d="M748.77,953.73c-2.28,2.58-.8,7.11,2.84,7.19a3.63,3.63,0,0,0,.89-.09c.24,2.11-2.12,4.66-4.72,4.6-4-.09-6.39-4-7.24-7.46-1.63-6.55.41-13.8-.22-20.5a57.47,57.47,0,0,0-13-31.23,1.7,1.7,0,0,0-2.87.34,2,2,0,0,0-.26,2.87,42.73,42.73,0,0,1,10.29,36.33c-1.52,8.76-3.86,23.79,8.31,26.42,4.55,1,8.89-1.61,11.66-5.05C757,964,759.6,958.74,757,954.9,755.25,952.28,751.07,951.15,748.77,953.73Z"/><path class="cls-1" d="M914.56,829.6c-2.47-2-6.91-1.83-8.45,1.27s1.26,7.28,4.89,6.18a4,4,0,0,0,1.42-.77,4.16,4.16,0,0,1-.28,5.15c-1.64,1.87-4.2,2.11-6.45,1.5-3.94-1.06-6.46-4.6-8.32-8-2.77-5-5-10.13-8.49-14.71a57.31,57.31,0,0,0-25.46-18.69,1.72,1.72,0,0,0-2.34,1.74,1.94,1.94,0,0,0,1.21,2.6,42.27,42.27,0,0,1,26.18,23.94c3.53,8.61,7,22.9,19.34,21.51C916.62,850.33,921.69,835.45,914.56,829.6Z"/><path class="cls-1" d="M987.77,641.7c-3.45-.89-7.75,1.69-7.2,5.59.49,3.51,5.1,5.13,7.43,2.32a4.05,4.05,0,0,0,.69-1.2A4.16,4.16,0,0,1,991,653a5.9,5.9,0,0,1-3.11,3.9c-3.42,1.8-7.45.75-10.7-.87-5.35-2.67-9.88-6.63-15.39-9.09a57.66,57.66,0,0,0-33-4.12,1.69,1.69,0,0,0-1.13,2.64,2,2,0,0,0,2.38,1.67,42.52,42.52,0,0,1,36.25,9c6.82,5.68,16.62,14.37,25.81,7.68C999.36,658.58,996.39,643.91,987.77,641.7Z"/><path class="cls-1" d="M967.15,445.53C964,443,958.74,440.4,954.9,443c-2.62,1.76-3.75,5.94-1.17,8.24s7.11.8,7.19-2.84a3.77,3.77,0,0,0-.09-.9c2.11-.23,4.66,2.13,4.6,4.73-.09,4-4,6.39-7.46,7.24-6.55,1.63-13.8-.41-20.5.22a57.47,57.47,0,0,0-31.23,13,1.7,1.7,0,0,0,.34,2.87,2,2,0,0,0,2.87.26,42.73,42.73,0,0,1,36.33-10.29c8.76,1.53,23.79,3.86,26.42-8.31C973.18,452.63,970.59,448.29,967.15,445.53Z"/><path class="cls-1" d="M829.6,285.44c-2,2.47-1.83,6.91,1.27,8.45s7.28-1.27,6.18-4.89a4,4,0,0,0-.77-1.42,4.16,4.16,0,0,1,5.15.28c1.87,1.64,2.11,4.2,1.5,6.45-1.06,3.94-4.6,6.46-8,8.32-5,2.77-10.13,5-14.71,8.49a57.31,57.31,0,0,0-18.69,25.46,1.72,1.72,0,0,0,1.74,2.34,1.94,1.94,0,0,0,2.6-1.21,42.27,42.27,0,0,1,23.94-26.18c8.61-3.53,22.9-7,21.51-19.34C850.33,283.38,835.45,278.31,829.6,285.44Z"/><path class="cls-1" d="M561.45,212.52a10.06,10.06,0,0,1-5.25,9.38,10.68,10.68,0,0,1-4.31.68,1.83,1.83,0,0,0-1.71,2.66,1.64,1.64,0,0,0,1.85,1.85,15,15,0,0,0,4.77-1.29c4.92-1.59,8.65-5.84,10.47-10.87,2.08-5.74,3.73-15.85-2.18-20-4.73-3.3-11.49.57-9.52,6.48C557,205.6,561.19,207.72,561.45,212.52Z"/><path class="cls-1" d="M363.05,277.7c3.72,2.5,8,2.44,10.34,6.91a9.93,9.93,0,0,1-.45,10,10.85,10.85,0,0,1-3.32,2.6,1.83,1.83,0,0,0-.15,3.15A1.64,1.64,0,0,0,372,301a15.26,15.26,0,0,0,3.56-3.57c3.37-3.8,4.44-9.24,3.56-14.43-1-6.2-5-16.53-12.71-16.4A6,6,0,0,0,363.05,277.7Z"/><path class="cls-1" d="M233.14,439.29c3.77.55,7.14-1.49,10.93-.11a10,10,0,0,1,6.58,9.79,10.47,10.47,0,0,1-1.56,4,1.85,1.85,0,0,0,1.47,2.83,1.61,1.61,0,0,0,2.5-.67,15.27,15.27,0,0,0,1.24-4.67c1.14-5.09-.67-10.52-4.16-14.64-3.93-4.64-11.63-11-18.16-8.17C226.17,430.09,226.72,438.34,233.14,439.29Z"/><path class="cls-1" d="M221.9,643.8a10.68,10.68,0,0,1,.68,4.31,1.84,1.84,0,0,0,2.66,1.71,1.64,1.64,0,0,0,1.85-1.85,15,15,0,0,0-1.29-4.77c-1.59-4.92-5.84-8.65-10.87-10.47-5.74-2.08-15.85-3.73-20,2.18-3.3,4.73.57,11.49,6.48,9.52,4.17-1.39,6.29-5.62,11.09-5.88A10.06,10.06,0,0,1,221.9,643.8Z"/><path class="cls-1" d="M284.61,826.61a9.93,9.93,0,0,1,10,.45,10.85,10.85,0,0,1,2.6,3.32,1.83,1.83,0,0,0,3.15.15A1.64,1.64,0,0,0,301,828a15.26,15.26,0,0,0-3.57-3.56c-3.8-3.37-9.24-4.44-14.43-3.56-6.2,1-16.53,5-16.4,12.71A6,6,0,0,0,277.7,837C280.2,833.23,280.14,829,284.61,826.61Z"/><path class="cls-1" d="M449,949.35a10.47,10.47,0,0,1,4,1.56,1.85,1.85,0,0,0,2.83-1.47,1.61,1.61,0,0,0-.67-2.5,15.27,15.27,0,0,0-4.67-1.24c-5.09-1.14-10.52.67-14.64,4.16-4.64,3.93-11,11.63-8.17,18.16,2.47,5.81,10.72,5.26,11.67-1.16.55-3.77-1.49-7.14-.11-10.94A10,10,0,0,1,449,949.35Z"/><path class="cls-1" d="M638.55,987.48a10.06,10.06,0,0,1,5.25-9.38,10.68,10.68,0,0,1,4.31-.68,1.83,1.83,0,0,0,1.71-2.66,1.64,1.64,0,0,0-1.85-1.85,15,15,0,0,0-4.77,1.29c-4.92,1.59-8.65,5.84-10.47,10.87-2.08,5.74-3.73,15.85,2.18,20,4.73,3.3,11.49-.57,9.52-6.48C643,994.4,638.81,992.28,638.55,987.48Z"/><path class="cls-1" d="M837,922.3c-3.72-2.5-8-2.44-10.34-6.91a9.93,9.93,0,0,1,.45-10,10.85,10.85,0,0,1,3.32-2.6,1.83,1.83,0,0,0,.15-3.15A1.64,1.64,0,0,0,828,899a15.26,15.26,0,0,0-3.56,3.57c-3.37,3.8-4.44,9.24-3.56,14.43,1,6.2,5,16.53,12.71,16.4A6,6,0,0,0,837,922.3Z"/><path class="cls-1" d="M966.86,760.71c-3.77-.55-7.14,1.49-10.93.11a10,10,0,0,1-6.58-9.79,10.47,10.47,0,0,1,1.56-4,1.85,1.85,0,0,0-1.47-2.83,1.61,1.61,0,0,0-2.5.67,15.27,15.27,0,0,0-1.24,4.67c-1.14,5.09.67,10.52,4.16,14.64,3.93,4.64,11.63,10.95,18.16,8.17C973.83,769.91,973.28,761.66,966.86,760.71Z"/><path class="cls-1" d="M978.1,556.2a10.68,10.68,0,0,1-.68-4.31,1.84,1.84,0,0,0-2.66-1.71,1.64,1.64,0,0,0-1.85,1.85,15,15,0,0,0,1.29,4.77c1.59,4.92,5.84,8.65,10.87,10.47,5.74,2.08,15.85,3.73,20-2.18,3.3-4.73-.57-11.49-6.48-9.52-4.17,1.39-6.29,5.62-11.09,5.88A10.06,10.06,0,0,1,978.1,556.2Z"/><path class="cls-1" d="M915.39,373.39a9.93,9.93,0,0,1-10-.45,10.85,10.85,0,0,1-2.6-3.32,1.83,1.83,0,0,0-3.15-.15A1.64,1.64,0,0,0,899,372a15.26,15.26,0,0,0,3.57,3.56c3.8,3.37,9.24,4.44,14.43,3.56,6.2-1,16.53-5,16.4-12.71a6,6,0,0,0-11.07-3.37C919.8,366.77,919.86,371,915.39,373.39Z"/><path class="cls-1" d="M751,250.65a10.47,10.47,0,0,1-4-1.56,1.85,1.85,0,0,0-2.83,1.47,1.61,1.61,0,0,0,.67,2.5,15.27,15.27,0,0,0,4.67,1.24c5.09,1.14,10.52-.67,14.64-4.16,4.64-3.93,10.95-11.63,8.17-18.16-2.47-5.81-10.72-5.26-11.67,1.16-.55,3.77,1.49,7.14.11,10.94A10,10,0,0,1,751,250.65Z"/><path class="cls-1" d="M643.19,225.8a15.35,15.35,0,0,0,4.78,1.29,1.64,1.64,0,0,0,1.85-1.85,1.83,1.83,0,0,0-1.71-2.66,10.56,10.56,0,0,1-4.36-.7,9.94,9.94,0,0,1-5.2-8.77c0-5,4-7,5.69-11.15,2.38-5.94-4.27-10.62-9.33-7-5.75,4.1-4.3,13.68-2.38,19.4C634.3,219.61,638.09,224.14,643.19,225.8Z"/><path class="cls-1" d="M435.79,250.14c4.12,3.49,9.55,5.3,14.64,4.16a15.27,15.27,0,0,0,4.67-1.24,1.61,1.61,0,0,0,.67-2.5,1.85,1.85,0,0,0-2.83-1.47,10.37,10.37,0,0,1-4,1.56,9.93,9.93,0,0,1-9.45-5.82c-1.85-4.08.36-7.6-.24-11.69-1-6.46-9.19-6.94-11.67-1.16C424.82,238.5,431.16,246.21,435.79,250.14Z"/><path class="cls-1" d="M282.38,379c5.36,1.06,11.08.06,15-3.43A15.56,15.56,0,0,0,301,372a1.64,1.64,0,0,0-.68-2.54,1.83,1.83,0,0,0-3.15.15,10.69,10.69,0,0,1-2.6,3.31,9.86,9.86,0,0,1-9.51.72c-4.61-2.18-4.78-6.25-7.1-10.11-3.25-5.41-11.26-3.72-11.36,2.88C266.51,373.94,276.33,377.83,282.38,379Z"/><path class="cls-1" d="M214.35,567.47c5.26-1.77,9.79-5.56,11.45-10.66a15.35,15.35,0,0,0,1.29-4.78,1.64,1.64,0,0,0-1.85-1.85,1.83,1.83,0,0,0-2.66,1.71,10.48,10.48,0,0,1-.7,4.35,9.93,9.93,0,0,1-8.77,5.21c-5,0-7-4-11.15-5.69-5.94-2.38-10.62,4.27-7,9.33C199.05,570.84,208.63,569.39,214.35,567.47Z"/><path class="cls-1" d="M250.14,764.21c3.49-4.12,5.3-9.55,4.16-14.64a15.27,15.27,0,0,0-1.24-4.67,1.61,1.61,0,0,0-2.5-.67,1.85,1.85,0,0,0-1.47,2.83,10.37,10.37,0,0,1,1.56,4,9.93,9.93,0,0,1-5.82,9.45c-4.08,1.85-7.6-.36-11.69.24-6.46,1-6.94,9.19-1.16,11.67C238.5,775.18,246.21,768.84,250.14,764.21Z"/><path class="cls-1" d="M375.6,902.58A15.56,15.56,0,0,0,372,899a1.64,1.64,0,0,0-2.54.68,1.83,1.83,0,0,0,.15,3.15,10.69,10.69,0,0,1,3.31,2.6,9.86,9.86,0,0,1,.72,9.51c-2.18,4.61-6.25,4.78-10.11,7.1-5.41,3.25-3.72,11.26,2.88,11.36,7.52.12,11.41-9.7,12.61-15.75C380.09,912.26,379.09,906.54,375.6,902.58Z"/><path class="cls-1" d="M556.81,974.2a15.35,15.35,0,0,0-4.78-1.29,1.64,1.64,0,0,0-1.85,1.85,1.83,1.83,0,0,0,1.71,2.66,10.48,10.48,0,0,1,4.35.7,9.93,9.93,0,0,1,5.21,8.77c0,5-4,7-5.69,11.15-2.38,5.94,4.27,10.62,9.33,7,5.75-4.1,4.3-13.68,2.38-19.4C565.7,980.39,561.92,975.86,556.81,974.2Z"/><path class="cls-1" d="M764.21,949.86c-4.12-3.49-9.55-5.3-14.64-4.16a15.27,15.27,0,0,0-4.67,1.24,1.61,1.61,0,0,0-.67,2.5,1.85,1.85,0,0,0,2.83,1.47,10.37,10.37,0,0,1,4-1.56,9.93,9.93,0,0,1,9.45,5.82c1.85,4.08-.36,7.6.24,11.69,1,6.46,9.19,6.94,11.67,1.16C775.18,961.5,768.84,953.79,764.21,949.86Z"/><path class="cls-1" d="M917.62,821c-5.36-1.06-11.08-.06-15,3.43A15.56,15.56,0,0,0,899,828a1.64,1.64,0,0,0,.68,2.54,1.83,1.83,0,0,0,3.15-.15,10.69,10.69,0,0,1,2.6-3.31,9.86,9.86,0,0,1,9.51-.72c4.61,2.18,4.78,6.25,7.1,10.11,3.25,5.41,11.26,3.72,11.36-2.88C933.49,826.06,923.67,822.17,917.62,821Z"/><path class="cls-1" d="M985.65,632.53c-5.26,1.77-9.79,5.55-11.45,10.66a15.35,15.35,0,0,0-1.29,4.78,1.64,1.64,0,0,0,1.85,1.85,1.83,1.83,0,0,0,2.66-1.71,10.48,10.48,0,0,1,.7-4.35,9.93,9.93,0,0,1,8.77-5.21c5,0,7,4,11.15,5.69,5.94,2.38,10.62-4.27,7-9.33C1001,629.16,991.37,630.61,985.65,632.53Z"/><path class="cls-1" d="M949.86,435.79c-3.49,4.12-5.3,9.55-4.16,14.64a15.27,15.27,0,0,0,1.24,4.67,1.61,1.61,0,0,0,2.5.67,1.85,1.85,0,0,0,1.47-2.83,10.37,10.37,0,0,1-1.56-4,9.93,9.93,0,0,1,5.82-9.45c4.08-1.85,7.6.36,11.69-.24,6.46-1,6.94-9.19,1.16-11.67C961.5,424.82,953.79,431.16,949.86,435.79Z"/><path class="cls-1" d="M824.4,297.42A15.56,15.56,0,0,0,828,301a1.64,1.64,0,0,0,2.54-.68,1.83,1.83,0,0,0-.15-3.15,10.69,10.69,0,0,1-3.31-2.6,9.86,9.86,0,0,1-.72-9.51c2.18-4.61,6.25-4.78,10.11-7.1,5.41-3.25,3.72-11.26-2.88-11.36-7.52-.12-11.41,9.7-12.61,15.75C819.91,287.74,820.91,293.46,824.4,297.42Z"/><path class="cls-1" d="M568,220.24a1.93,1.93,0,0,0-.75.9l-.13.13c-1.76,1.78,1,4.53,2.74,2.75.32-.33.62-.65.92-1,5.58-4,18.27-16,10.26-22.07-3-2.26-6.7-.56-7.78,2.79-.86,2.67-.27,5.61-.92,8.35a18.48,18.48,0,0,1-4.17,8Z"/><path class="cls-1" d="M382.28,278.52a18.77,18.77,0,0,1,.21,8.43c0,.05-.05.1-.08.16a2,2,0,0,0-.21,1.13c0,.07,0,.14,0,.21-.63,2.41,3.11,3.44,3.74,1,.11-.45.21-.9.31-1.35,2.79-6.22,7.86-23.57-2.41-24.26-3.85-.25-5.93,3.36-5,6.82C379.56,273.46,381.53,275.7,382.28,278.52Z"/><path class="cls-1" d="M244.73,426.15c2.19,1.69,4.61,2.76,6.51,4.87a18.84,18.84,0,0,1,3.86,6.62,1.37,1.37,0,0,1,0,.19,1.88,1.88,0,0,0,.39,1.09l.06.21a1.94,1.94,0,0,0,3.74-1c-.11-.42-.25-.83-.39-1.24a33.54,33.54,0,0,0-4.71-15.28c-2-3.25-5.92-6.76-9.93-4.32C240.59,419.51,241.79,423.88,244.73,426.15Z"/><path class="cls-1" d="M201,619c-2.26,3-.56,6.7,2.79,7.78,2.67.86,5.61.27,8.35.92a18.48,18.48,0,0,1,8,4.17,1.63,1.63,0,0,1,.11.17,1.93,1.93,0,0,0,.9.75.86.86,0,0,0,.14.13c1.77,1.76,4.52-1,2.74-2.74-.33-.32-.65-.62-1-.92C219.06,623.65,207,611,201,619Z"/><path class="cls-1" d="M270.7,821.19c2.76-.75,5-2.72,7.82-3.47a18.77,18.77,0,0,1,8.43-.21l.16.08a2,2,0,0,0,1.13.21l.21,0c2.41.63,3.44-3.11,1-3.74l-1.35-.31c-6.22-2.79-23.57-7.86-24.26,2.41C263.62,820.05,267.23,822.13,270.7,821.19Z"/><path class="cls-1" d="M431,948.76a18.84,18.84,0,0,1,6.62-3.86l.19,0a1.88,1.88,0,0,0,1.09-.39l.21-.06a1.94,1.94,0,0,0-1-3.74c-.42.11-.83.25-1.24.39a33.54,33.54,0,0,0-15.28,4.71c-3.25,2-6.76,5.92-4.32,9.93,2.25,3.69,6.62,2.49,8.89-.45C427.84,953.08,428.91,950.66,431,948.76Z"/><path class="cls-1" d="M632,979.76a1.93,1.93,0,0,0,.75-.9l.13-.13c1.76-1.78-1-4.53-2.74-2.75-.32.32-.62.65-.92,1-5.58,4-18.27,16-10.26,22.07,3,2.26,6.7.56,7.78-2.79.86-2.67.27-5.61.92-8.35a18.48,18.48,0,0,1,4.17-8Z"/><path class="cls-1" d="M817.72,921.48a18.77,18.77,0,0,1-.21-8.43l.08-.16a2,2,0,0,0,.21-1.13c0-.07,0-.14,0-.21.63-2.41-3.11-3.44-3.74-1-.11.45-.21.9-.31,1.35-2.79,6.22-7.86,23.57,2.41,24.26,3.85.25,5.93-3.37,5-6.82C820.44,926.54,818.47,924.3,817.72,921.48Z"/><path class="cls-1" d="M955.27,773.85c-2.19-1.69-4.61-2.76-6.51-4.87a18.84,18.84,0,0,1-3.86-6.62,1.37,1.37,0,0,1,0-.19,1.88,1.88,0,0,0-.39-1.09l-.06-.21a1.94,1.94,0,0,0-3.74,1c.11.42.25.83.39,1.24a33.54,33.54,0,0,0,4.71,15.28c2,3.25,5.92,6.76,9.93,4.32C959.41,780.49,958.21,776.12,955.27,773.85Z"/><path class="cls-1" d="M999,581c2.26-3,.56-6.7-2.79-7.78-2.67-.86-5.61-.27-8.35-.92a18.48,18.48,0,0,1-8-4.17,1.63,1.63,0,0,1-.11-.17,1.93,1.93,0,0,0-.9-.75.86.86,0,0,0-.14-.13c-1.77-1.76-4.52,1-2.74,2.74.33.32.65.62,1,.92C980.94,576.35,993,589,999,581Z"/><path class="cls-1" d="M929.3,378.81c-2.76.75-5,2.72-7.82,3.47a18.77,18.77,0,0,1-8.43.21l-.16-.08a2,2,0,0,0-1.13-.21l-.21,0c-2.41-.63-3.44,3.11-1,3.74l1.35.31c6.22,2.79,23.57,7.86,24.26-2.41C936.38,380,932.77,377.87,929.3,378.81Z"/><path class="cls-1" d="M769,251.24a18.84,18.84,0,0,1-6.62,3.86l-.19,0a1.88,1.88,0,0,0-1.09.39l-.21.06a1.94,1.94,0,0,0,1,3.74c.42-.11.83-.25,1.24-.39a33.54,33.54,0,0,0,15.28-4.71c3.25-2,6.76-5.92,4.32-9.93-2.25-3.69-6.62-2.49-8.89.45C772.16,246.91,771.09,249.34,769,251.24Z"/><path class="cls-1" d="M629.23,223c.3.34.6.66.92,1,1.75,1.78,4.5-1,2.74-2.75l-.12-.13a2,2,0,0,0-.76-.9l-.17-.11a18.7,18.7,0,0,1-4-7.43c-.76-2.81-.17-5.75-.91-8.51-.95-3.53-4.74-5.64-7.93-3.23C611,207,623.66,219.07,629.23,223Z"/><path class="cls-1" d="M421.58,254.21a33.54,33.54,0,0,0,15.28,4.71c.41.14.82.28,1.24.39a1.94,1.94,0,0,0,1-3.74l-.21-.06a1.88,1.88,0,0,0-1.09-.39l-.19,0a18.84,18.84,0,0,1-6.62-3.86c-2.13-1.92-3.16-4.31-4.87-6.51-2.27-2.94-6.62-4.16-8.89-.45C414.82,248.29,418.32,252.17,421.58,254.21Z"/><path class="cls-1" d="M288.13,386.21l1.35-.31c2.41-.63,1.39-4.38-1-3.74l-.21,0a2,2,0,0,0-1.13.21l-.16.08a19.06,19.06,0,0,1-8.43-.21c-2.83-.73-5-2.72-7.82-3.47-3.44-.94-7.11,1.13-6.83,5C264.62,394.07,281.91,389,288.13,386.21Z"/><path class="cls-1" d="M221.28,567.11l-.14.12a2,2,0,0,0-.9.76,1.63,1.63,0,0,1-.11.17,18.7,18.7,0,0,1-7.43,4c-2.81.76-5.75.17-8.51.91-3.53.95-5.64,4.74-3.23,7.93,6,8,18.11-4.69,22.07-10.26.34-.3.66-.6,1-.92C225.8,568.1,223.05,565.35,221.28,567.11Z"/><path class="cls-1" d="M254.21,778.42a33.54,33.54,0,0,0,4.71-15.28c.14-.41.28-.82.39-1.24a1.94,1.94,0,0,0-3.74-1l-.06.21a1.88,1.88,0,0,0-.39,1.09,1.37,1.37,0,0,1,0,.19,18.84,18.84,0,0,1-3.86,6.62c-1.92,2.13-4.31,3.16-6.51,4.87-2.94,2.27-4.16,6.62-.45,8.89C248.29,785.18,252.17,781.68,254.21,778.42Z"/><path class="cls-1" d="M385.9,910.52c-.63-2.41-4.38-1.39-3.74,1,0,.07,0,.14,0,.21a2,2,0,0,0,.21,1.13c0,.06,0,.11.08.16a19.06,19.06,0,0,1-.21,8.43c-.73,2.83-2.72,5-3.47,7.83-.94,3.43,1.13,7.1,5,6.82,10.27-.75,5.21-18,2.41-24.26C386.11,911.42,386,911,385.9,910.52Z"/><path class="cls-1" d="M570.77,977c-.3-.34-.6-.67-.92-1-1.75-1.78-4.5,1-2.74,2.75l.12.13a2,2,0,0,0,.76.9l.17.11a18.7,18.7,0,0,1,4,7.43c.76,2.81.17,5.75.91,8.51.95,3.53,4.74,5.64,7.93,3.23C589,993,576.34,980.93,570.77,977Z"/><path class="cls-1" d="M778.42,945.79a33.54,33.54,0,0,0-15.28-4.71c-.41-.14-.82-.28-1.24-.39a1.94,1.94,0,0,0-1,3.74l.21.06a1.88,1.88,0,0,0,1.09.39l.19,0a18.84,18.84,0,0,1,6.62,3.86c2.13,1.92,3.16,4.31,4.87,6.51,2.27,2.94,6.62,4.16,8.89.45C785.18,951.71,781.68,947.83,778.42,945.79Z"/><path class="cls-1" d="M911.87,813.79l-1.35.31c-2.41.63-1.39,4.38,1,3.74l.21,0a2,2,0,0,0,1.13-.21l.16-.08a19.06,19.06,0,0,1,8.43.21c2.83.73,5,2.72,7.82,3.47,3.44.94,7.11-1.13,6.83-5C935.38,805.93,918.09,811,911.87,813.79Z"/><path class="cls-1" d="M978.72,632.89l.14-.12a2,2,0,0,0,.9-.76,1.63,1.63,0,0,1,.11-.17,18.7,18.7,0,0,1,7.43-4c2.81-.76,5.75-.17,8.51-.91,3.53-.95,5.64-4.74,3.23-7.93-6-8-18.11,4.69-22.07,10.26-.34.3-.66.6-1,.92C974.2,631.9,977,634.65,978.72,632.89Z"/><path class="cls-1" d="M945.79,421.58a33.54,33.54,0,0,0-4.71,15.28c-.14.41-.28.82-.39,1.24a1.94,1.94,0,0,0,3.74,1l.06-.21a1.88,1.88,0,0,0,.39-1.09,1.37,1.37,0,0,1,0-.19,18.84,18.84,0,0,1,3.86-6.62c1.92-2.13,4.31-3.16,6.51-4.87,2.94-2.27,4.16-6.62.45-8.89C951.71,414.82,947.83,418.32,945.79,421.58Z"/><path class="cls-1" d="M814.1,289.48c.63,2.41,4.38,1.39,3.74-1,0-.07,0-.14,0-.21a2,2,0,0,0-.21-1.13l-.08-.16a19.06,19.06,0,0,1,.21-8.43c.73-2.83,2.72-5,3.47-7.83.94-3.43-1.13-7.1-5-6.82-10.27.75-5.21,18-2.41,24.26C813.89,288.58,814,289,814.1,289.48Z"/><path class="cls-1" d="M245.65,623.81a6.22,6.22,0,0,0-4.08-4.69,5,5,0,0,0-6.52,4.5,6.78,6.78,0,0,0,7.32,7.38c.24,0,.48.09.73.12,3.59.37,6.75-2.33,8.18-5.41,2.78-6,0-12-4.61-15.85-5.11-4.77-13.76-6.38-19.61-2.72-11.94,7.47-.11,21,1.35,31.62a21.51,21.51,0,0,1-.3,5.07,1.76,1.76,0,0,0,1.46,2.33,1.67,1.67,0,0,0,2.28-1.3,17,17,0,0,0,0-9.92c-.16-1-.35-2-.58-3a69.71,69.71,0,0,0-2.42-7.13c-1.2-5.8.18-14.5,6.1-15.49a15.39,15.39,0,0,1,7.93,2.44l.32.22a9.38,9.38,0,0,1,3.84,6.7,8.13,8.13,0,0,1-.47,3.49A6.59,6.59,0,0,1,245.65,623.81Z"/><path class="cls-1" d="M295.82,817a23.05,23.05,0,0,1,4,7,1.94,1.94,0,0,0,3.74-1,16.91,16.91,0,0,0-5.07-8.72c-.6-.73-1.23-1.45-1.88-2.15a69.87,69.87,0,0,0-5.74-5c-3.86-4.36-6.84-12.25-2.64-16.15a14.87,14.87,0,0,1,8.42-2.1,9.44,9.44,0,0,1,7,3.93,7.66,7.66,0,0,1,1.4,4.26,4.32,4.32,0,0,1,0,.88,6.22,6.22,0,0,0-5.91-2,5.05,5.05,0,0,0-3.37,7.16,6.76,6.76,0,0,0,10,2.73,7.18,7.18,0,0,0,.73-.27c3.26-1.48,4.64-5.34,4.37-8.7-.55-6.72-6.2-10.63-12.29-11.56-6.74-1.4-14.76,1.49-18,7.5-2.74,5.14-.38,11,3.35,15C287.35,811.18,292.29,813.52,295.82,817Z"/><path class="cls-1" d="M954.35,576.19a6.22,6.22,0,0,0,4.08,4.69,5,5,0,0,0,6.52-4.5,6.77,6.77,0,0,0-7.32-7.38c-.24,0-.48-.09-.73-.12-3.59-.37-6.75,2.33-8.18,5.41-2.78,6,0,12,4.61,15.85,5.11,4.77,13.76,6.38,19.61,2.72,11.94-7.47.11-21-1.35-31.62a21.51,21.51,0,0,1,.3-5.07,1.76,1.76,0,0,0-1.46-2.33,1.67,1.67,0,0,0-2.28,1.3,17,17,0,0,0,0,9.92c.16,1,.35,2,.58,3a69.71,69.71,0,0,0,2.42,7.13c1.2,5.8-.18,14.5-6.1,15.49a15.39,15.39,0,0,1-7.93-2.44l-.32-.22a9.38,9.38,0,0,1-3.84-6.7,8.13,8.13,0,0,1,.47-3.49A6.59,6.59,0,0,1,954.35,576.19Z"/><path class="cls-1" d="M904.18,383a23.05,23.05,0,0,1-4-7,1.94,1.94,0,0,0-3.74,1,16.91,16.91,0,0,0,5.07,8.72c.6.73,1.23,1.45,1.88,2.14A68.14,68.14,0,0,0,909.1,393c3.86,4.36,6.84,12.25,2.64,16.15a14.85,14.85,0,0,1-8.42,2.1,9.44,9.44,0,0,1-7-3.93,7.66,7.66,0,0,1-1.4-4.26,4.32,4.32,0,0,1,0-.88,6.22,6.22,0,0,0,5.91,2,5.05,5.05,0,0,0,3.37-7.16,6.76,6.76,0,0,0-10-2.73,7.18,7.18,0,0,0-.73.27c-3.26,1.48-4.64,5.34-4.37,8.7.55,6.72,6.2,10.63,12.29,11.56,6.73,1.4,14.76-1.49,18-7.5,2.74-5.14.38-11-3.35-14.95C912.65,388.82,907.71,386.48,904.18,383Z"/><path class="cls-1" d="M644.86,231.85a1.67,1.67,0,0,0,1.3-2.28,1.75,1.75,0,0,0-2.33-1.46,23.08,23.08,0,0,1-7.19.12c-9.13-2.08-18.33-10.74-27.14-3.8-6.62,5.22-5.08,16.25.32,22.21,3.78,4.58,9.65,7.29,15.66,4.74,3.11-1.32,5.89-4.45,5.67-8a6,6,0,0,0-.15-1,6.77,6.77,0,0,0-7.38-7.27,5.07,5.07,0,0,0-4.58,6.3,6.21,6.21,0,0,0,4.8,4.3,4.7,4.7,0,0,1-1,.57,7.53,7.53,0,0,1-3.65.83,9.27,9.27,0,0,1-7.19-3.83l-.24-.34a15.35,15.35,0,0,1-2.45-7.92c1-5.92,9.66-7.3,15.46-6.12a72.13,72.13,0,0,0,7.17,2.43c1,.23,2,.43,3,.59A16.89,16.89,0,0,0,644.86,231.85Z"/><path class="cls-1" d="M298.1,414.94c6.18-.78,11.94-4.62,12.73-11.38.38-3.34-.92-7.26-4.11-8.86a7.72,7.72,0,0,0-1-.4,6.76,6.76,0,0,0-10,2.76,5.06,5.06,0,0,0,3.14,7.12,6.2,6.2,0,0,0,6.11-2c0,.12,0,.23.07.35a7.42,7.42,0,0,1-1.15,4.32,9.14,9.14,0,0,1-7.14,4.34l-.44,0a14.81,14.81,0,0,1-8.11-2.11c-4.17-3.9-1.21-11.74,2.62-16.1a72.72,72.72,0,0,0,5.78-5.09c.66-.69,1.29-1.41,1.89-2.15a16.87,16.87,0,0,0,5.06-8.71,1.94,1.94,0,0,0-3.74-1,23.23,23.23,0,0,1-3.84,6.74c-6.42,6.59-18,10.17-16.53,21.07C280.57,412,290.27,416.23,298.1,414.94Z"/><path class="cls-1" d="M224.43,590.5c5.22,6.62,16.25,5.08,22.21-.32,4.58-3.78,7.29-9.65,4.74-15.66-1.32-3.11-4.45-5.89-8-5.67a6,6,0,0,0-1,.15,6.77,6.77,0,0,0-7.27,7.38,5.07,5.07,0,0,0,6.3,4.58,6.21,6.21,0,0,0,4.3-4.8,4.7,4.7,0,0,1,.57,1,7.55,7.55,0,0,1,.83,3.65,9.27,9.27,0,0,1-3.83,7.19l-.34.24a15.35,15.35,0,0,1-7.92,2.45c-5.92-1-7.3-9.66-6.12-15.46a72.13,72.13,0,0,0,2.43-7.17c.23-1,.43-2,.59-3a16.89,16.89,0,0,0,0-9.88,1.67,1.67,0,0,0-2.28-1.3,1.76,1.76,0,0,0-1.46,2.33,23.08,23.08,0,0,1,.12,7.19C226.15,572.49,217.49,581.69,224.43,590.5Z"/><path class="cls-1" d="M268.32,778.7c7.93,5,17.94-2.2,20.69-10.36,2.15-5.63,1.56-12.2-3.73-16.14-2.7-2-6.76-2.81-9.73-.85a5.86,5.86,0,0,0-.82.65,6.78,6.78,0,0,0-2.6,10,5.06,5.06,0,0,0,7.56,1,6.19,6.19,0,0,0,1.5-6.51l.36.2.86.51a7.87,7.87,0,0,1,2.86,3.84,9.51,9.51,0,0,1-.5,7.52,15.33,15.33,0,0,1-5.47,5.84c-5.58,2.14-11.1-4.35-13.05-10-.46-2.43-.77-4.91-1.41-7.21a39.42,39.42,0,0,0-1.59-4.54,14.82,14.82,0,0,0-4.5-7.42,1.7,1.7,0,0,0-2.67,0A1.72,1.72,0,0,0,256,748a23.73,23.73,0,0,1,4.28,7.66C262.2,763.68,260.21,773.58,268.32,778.7Z"/><path class="cls-1" d="M555.14,968.15a1.67,1.67,0,0,0-1.3,2.28,1.75,1.75,0,0,0,2.33,1.46,23.08,23.08,0,0,1,7.19-.12c9.13,2.08,18.33,10.74,27.14,3.8,6.62-5.22,5.08-16.25-.32-22.21-3.78-4.58-9.65-7.29-15.66-4.74-3.11,1.32-5.89,4.45-5.67,8a6,6,0,0,0,.15,1,6.77,6.77,0,0,0,7.38,7.27,5.07,5.07,0,0,0,4.58-6.3,6.21,6.21,0,0,0-4.8-4.3,4.7,4.7,0,0,1,1-.57,7.53,7.53,0,0,1,3.65-.83,9.27,9.27,0,0,1,7.19,3.83l.24.34a15.35,15.35,0,0,1,2.45,7.92c-1,5.92-9.66,7.3-15.46,6.12a72.13,72.13,0,0,0-7.17-2.43c-1-.23-2-.43-3-.59A16.89,16.89,0,0,0,555.14,968.15Z"/><path class="cls-1" d="M901.9,785.06c-6.18.77-11.94,4.62-12.73,11.38-.38,3.34.92,7.26,4.11,8.86a7.72,7.72,0,0,0,1,.4,6.76,6.76,0,0,0,10-2.76,5.06,5.06,0,0,0-3.14-7.12,6.2,6.2,0,0,0-6.11,2c0-.12,0-.23-.07-.35a7.42,7.42,0,0,1,1.15-4.32,9.14,9.14,0,0,1,7.14-4.34l.44,0a14.81,14.81,0,0,1,8.11,2.11c4.17,3.9,1.21,11.74-2.62,16.1a74.67,74.67,0,0,0-5.78,5.08q-1,1.05-1.89,2.16a16.87,16.87,0,0,0-5.06,8.71,1.94,1.94,0,0,0,3.74,1,23.23,23.23,0,0,1,3.84-6.74c6.42-6.59,18-10.17,16.53-21.07C919.43,788,909.73,783.77,901.9,785.06Z"/><path class="cls-1" d="M975.57,609.5c-5.22-6.62-16.25-5.08-22.21.32-4.58,3.78-7.29,9.65-4.74,15.66,1.32,3.11,4.45,5.89,8,5.67a6,6,0,0,0,1-.15,6.77,6.77,0,0,0,7.27-7.38,5.07,5.07,0,0,0-6.3-4.58,6.21,6.21,0,0,0-4.3,4.8,4.7,4.7,0,0,1-.57-1,7.55,7.55,0,0,1-.83-3.65,9.27,9.27,0,0,1,3.83-7.19l.34-.24a15.35,15.35,0,0,1,7.92-2.45c5.92,1,7.3,9.66,6.12,15.46a72.13,72.13,0,0,0-2.43,7.17c-.23,1-.43,2-.59,3a16.89,16.89,0,0,0,0,9.88,1.67,1.67,0,0,0,2.28,1.3,1.76,1.76,0,0,0,1.46-2.33,23.08,23.08,0,0,1-.12-7.19C973.85,627.51,982.51,618.31,975.57,609.5Z"/><path class="cls-1" d="M931.68,421.3c-7.93-5-17.94,2.2-20.69,10.36-2.15,5.63-1.56,12.2,3.73,16.14,2.7,2,6.76,2.81,9.73.85a5.86,5.86,0,0,0,.82-.65,6.78,6.78,0,0,0,2.6-10,5.06,5.06,0,0,0-7.56-1,6.19,6.19,0,0,0-1.5,6.51l-.36-.2-.86-.51a7.87,7.87,0,0,1-2.86-3.84,9.51,9.51,0,0,1,.5-7.52,15.33,15.33,0,0,1,5.47-5.84c5.58-2.14,11.1,4.35,13,10,.46,2.43.77,4.91,1.41,7.21a37.61,37.61,0,0,0,1.59,4.54,14.82,14.82,0,0,0,4.5,7.42,1.7,1.7,0,0,0,2.67,0A1.72,1.72,0,0,0,944,452a23.67,23.67,0,0,1-4.28-7.67C937.8,436.32,939.79,426.42,931.68,421.3Z"/><path class="cls-1" d="M590.14,246.67c4.77-5.11,6.38-13.76,2.72-19.61-7.47-11.94-21-.11-31.62,1.35a21.51,21.51,0,0,1-5.07-.3,1.76,1.76,0,0,0-2.33,1.46,1.67,1.67,0,0,0,1.3,2.28,17,17,0,0,0,9.92,0c1-.16,2-.35,3-.58a69.71,69.71,0,0,0,7.13-2.42c5.8-1.2,14.5.18,15.5,6.1a15.49,15.49,0,0,1-2.45,7.93l-.22.32a9.38,9.38,0,0,1-6.7,3.84,8.13,8.13,0,0,1-3.49-.47,6.59,6.59,0,0,1-1.64-.92,6.22,6.22,0,0,0,4.69-4.08,5,5,0,0,0-4.5-6.52,6.78,6.78,0,0,0-7.38,7.32c0,.24-.09.48-.12.73-.37,3.59,2.33,6.75,5.41,8.18C580.29,254.06,586.3,251.3,590.14,246.67Z"/><path class="cls-1" d="M414.86,298.57c1.4-6.73-1.49-14.76-7.5-18-5.14-2.74-11-.38-14.95,3.35-3.59,3.4-5.93,8.33-9.38,11.86a23.05,23.05,0,0,1-7,4,1.94,1.94,0,0,0,1,3.74,16.91,16.91,0,0,0,8.72-5.07c.73-.6,1.45-1.23,2.15-1.88a69.87,69.87,0,0,0,5-5.74c4.36-3.86,12.25-6.84,16.15-2.64a14.85,14.85,0,0,1,2.1,8.42,9.44,9.44,0,0,1-3.93,7,7.66,7.66,0,0,1-4.26,1.4,4.32,4.32,0,0,1-.88,0,6.22,6.22,0,0,0,2-5.91,5.05,5.05,0,0,0-7.16-3.37,6.76,6.76,0,0,0-2.73,10,7.18,7.18,0,0,0,.27.73c1.48,3.26,5.34,4.64,8.7,4.37C410,310.31,413.93,304.66,414.86,298.57Z"/><path class="cls-1" d="M289,431.68c-2.29-7.11-9.78-13.15-17.12-11.78-12.3,2.31-9.25,16.66-12.34,26.27A22,22,0,0,1,256,452a1.72,1.72,0,0,0,.08,2.71,1.7,1.7,0,0,0,2.67,0,14.75,14.75,0,0,0,4.49-7.43,40.27,40.27,0,0,0,1.45-4,77.83,77.83,0,0,0,1.54-7.65c1.91-5.61,7.38-12.1,12.92-10.13A15.46,15.46,0,0,1,285,432a9.6,9.6,0,0,1,.51,6.19A8.23,8.23,0,0,1,283,442.3a4.82,4.82,0,0,1-1.43,1l-.36.19a6.17,6.17,0,0,0-1.32-6.34,5.08,5.08,0,0,0-7.74.81,6.78,6.78,0,0,0,2.64,10c.19.17.38.33.58.48,3,2.15,7.16,1.35,9.93-.7C290.57,443.88,291.16,437.3,289,431.68Z"/><path class="cls-1" d="M609.86,953.33c-4.77,5.11-6.38,13.76-2.72,19.61,7.47,11.94,21,.11,31.62-1.35a21.51,21.51,0,0,1,5.07.3,1.75,1.75,0,0,0,2.33-1.46,1.67,1.67,0,0,0-1.3-2.28,17,17,0,0,0-9.92,0c-1,.16-2,.35-3,.58a69.71,69.71,0,0,0-7.13,2.42c-5.8,1.2-14.5-.18-15.5-6.1a15.49,15.49,0,0,1,2.45-7.93l.22-.32a9.38,9.38,0,0,1,6.7-3.84,8.13,8.13,0,0,1,3.49.47,6.59,6.59,0,0,1,1.64.92,6.22,6.22,0,0,0-4.69,4.08,5,5,0,0,0,4.5,6.52,6.78,6.78,0,0,0,7.38-7.32c0-.24.09-.48.12-.73.37-3.59-2.33-6.75-5.41-8.18C619.71,945.94,613.71,948.7,609.86,953.33Z"/><path class="cls-1" d="M785.14,901.43c-1.4,6.73,1.49,14.76,7.5,18,5.14,2.74,11,.38,15-3.35,3.59-3.4,5.93-8.33,9.38-11.86a23.05,23.05,0,0,1,7-4,1.94,1.94,0,0,0-1-3.74,16.84,16.84,0,0,0-8.71,5.07c-.74.6-1.46,1.23-2.16,1.88a69.87,69.87,0,0,0-5,5.74c-4.36,3.86-12.25,6.84-16.15,2.64a14.85,14.85,0,0,1-2.1-8.42,9.44,9.44,0,0,1,3.93-7,7.66,7.66,0,0,1,4.26-1.4,4.32,4.32,0,0,1,.88,0,6.22,6.22,0,0,0-2,5.91,5.05,5.05,0,0,0,7.16,3.37,6.76,6.76,0,0,0,2.73-10,7.18,7.18,0,0,0-.27-.73c-1.48-3.26-5.34-4.64-8.7-4.37C790,889.69,786.07,895.34,785.14,901.43Z"/><path class="cls-1" d="M911,768.32c2.29,7.11,9.78,13.15,17.12,11.78,12.3-2.31,9.25-16.66,12.34-26.27A22,22,0,0,1,944,748a1.72,1.72,0,0,0-.08-2.71,1.7,1.7,0,0,0-2.67,0,14.75,14.75,0,0,0-4.49,7.43,40.27,40.27,0,0,0-1.45,4,77.83,77.83,0,0,0-1.54,7.65c-1.91,5.61-7.38,12.1-12.92,10.13A15.46,15.46,0,0,1,915,768a9.6,9.6,0,0,1-.51-6.19A8.23,8.23,0,0,1,917,757.7a4.82,4.82,0,0,1,1.43-1l.36-.19a6.17,6.17,0,0,0,1.32,6.34,5.08,5.08,0,0,0,7.74-.81,6.78,6.78,0,0,0-2.64-10c-.19-.17-.38-.33-.58-.48-3-2.15-7.16-1.35-9.93.7C909.43,756.12,908.84,762.7,911,768.32Z"/><path class="cls-1" d="M452,256a23.73,23.73,0,0,1-7.66,4.28c-8,1.92-17.94-.07-23.06,8-5,7.93,2.2,17.94,10.36,20.69,5.63,2.15,12.2,1.56,16.14-3.73,2-2.7,2.81-6.76.85-9.73a5.86,5.86,0,0,0-.65-.82,6.78,6.78,0,0,0-10-2.6,5.06,5.06,0,0,0-1,7.56,6.19,6.19,0,0,0,6.51,1.5c-.06.12-.13.24-.2.36l-.51.86a7.87,7.87,0,0,1-3.84,2.86,9.51,9.51,0,0,1-7.52-.5,15.33,15.33,0,0,1-5.84-5.47c-2.14-5.58,4.35-11.1,10-13.05,2.43-.46,4.91-.77,7.21-1.41a39.42,39.42,0,0,0,4.54-1.59,14.82,14.82,0,0,0,7.42-4.5,1.7,1.7,0,0,0,0-2.67A1.72,1.72,0,0,0,452,256Z"/><path class="cls-1" d="M394.7,893.28a7.72,7.72,0,0,0-.4,1,6.76,6.76,0,0,0,2.76,10,5.06,5.06,0,0,0,7.12-3.14,6.2,6.2,0,0,0-2-6.11l.35-.07a7.42,7.42,0,0,1,4.32,1.15,9.14,9.14,0,0,1,4.34,7.14l0,.44a14.81,14.81,0,0,1-2.11,8.11c-3.9,4.17-11.74,1.21-16.1-2.62a74.67,74.67,0,0,0-5.08-5.78q-1.05-1-2.16-1.89a16.87,16.87,0,0,0-8.71-5.06,1.94,1.94,0,0,0-1,3.74,23.23,23.23,0,0,1,6.74,3.84c6.59,6.42,10.17,18,21.07,16.53,8.16-1.09,12.35-10.79,11.06-18.62-.77-6.18-4.62-11.94-11.38-12.73C400.22,888.79,396.3,890.09,394.7,893.28Z"/><path class="cls-1" d="M748,944a23.73,23.73,0,0,1,7.66-4.28c8-1.92,17.94.07,23.06-8,5-7.94-2.2-17.94-10.36-20.69-5.63-2.15-12.2-1.56-16.14,3.73-2,2.7-2.81,6.76-.85,9.73a5.86,5.86,0,0,0,.65.82,6.78,6.78,0,0,0,10,2.6,5.06,5.06,0,0,0,1-7.56,6.19,6.19,0,0,0-6.51-1.5c.06-.12.13-.24.2-.36l.51-.86a7.87,7.87,0,0,1,3.84-2.86,9.51,9.51,0,0,1,7.52.5,15.33,15.33,0,0,1,5.84,5.47c2.14,5.58-4.35,11.1-10,13-2.43.46-4.91.77-7.21,1.41a37.61,37.61,0,0,0-4.54,1.59,14.82,14.82,0,0,0-7.42,4.5,1.7,1.7,0,0,0,0,2.67A1.72,1.72,0,0,0,748,944Z"/><path class="cls-1" d="M805.3,306.72a7.72,7.72,0,0,0,.4-1,6.76,6.76,0,0,0-2.76-10,5.06,5.06,0,0,0-7.12,3.14,6.2,6.2,0,0,0,2,6.11l-.35.07a7.42,7.42,0,0,1-4.32-1.15,9.14,9.14,0,0,1-4.34-7.14l0-.44a14.81,14.81,0,0,1,2.11-8.11c3.9-4.17,11.74-1.21,16.1,2.62a74.67,74.67,0,0,0,5.08,5.78q1.05,1,2.16,1.89a16.87,16.87,0,0,0,8.71,5.06,1.94,1.94,0,0,0,1-3.74,23.1,23.1,0,0,1-6.74-3.84c-6.59-6.42-10.17-18-21.07-16.53-8.16,1.09-12.35,10.79-11.06,18.62.78,6.18,4.62,11.94,11.38,12.73C799.78,311.21,803.7,309.91,805.3,306.72Z"/><path class="cls-1" d="M591.6,217.09a4.09,4.09,0,0,0,.64-5.73,2.17,2.17,0,0,0-.32-.36,3,3,0,0,0-.37-.34,4.11,4.11,0,0,0-5.58.45,4.13,4.13,0,0,0,5.63,6Z"/><path class="cls-1" d="M401.45,272.15a4.15,4.15,0,0,0-2.47-4.84,2.59,2.59,0,0,0-.45-.14,2.4,2.4,0,0,0-.53-.12,4.13,4.13,0,0,0-4.58,3,4.15,4.15,0,0,0,8,2.07Z"/><path class="cls-1" d="M264.17,415.68a4.07,4.07,0,0,0-4.61-3.28,2.89,2.89,0,0,0-.51.11,2.57,2.57,0,0,0-.47.15,4.17,4.17,0,0,0-2.5,4.74,4.14,4.14,0,0,0,8.09-1.72Z"/><path class="cls-1" d="M211.36,607.76a2.17,2.17,0,0,0-.36.32,3,3,0,0,0-.34.37,4.11,4.11,0,0,0,.45,5.58,4.13,4.13,0,0,0,6-5.63A4.08,4.08,0,0,0,211.36,607.76Z"/><path class="cls-1" d="M267.31,801a2.59,2.59,0,0,0-.14.45,2.4,2.4,0,0,0-.12.53,4.13,4.13,0,0,0,3,4.58,4.15,4.15,0,0,0,2.07-8A4.15,4.15,0,0,0,267.31,801Z"/><path class="cls-1" d="M417.4,943.92a4.14,4.14,0,0,0-1.72-8.09,4.07,4.07,0,0,0-3.28,4.61,2.89,2.89,0,0,0,.11.51,2.57,2.57,0,0,0,.15.47A4.17,4.17,0,0,0,417.4,943.92Z"/><path class="cls-1" d="M608.4,982.91a4.09,4.09,0,0,0-.64,5.73,2.17,2.17,0,0,0,.32.36,3,3,0,0,0,.37.34,4.11,4.11,0,0,0,5.58-.45,4.13,4.13,0,0,0-5.63-6Z"/><path class="cls-1" d="M798.55,927.85a4.15,4.15,0,0,0,2.47,4.84,2.59,2.59,0,0,0,.45.14,2.4,2.4,0,0,0,.53.12,4.13,4.13,0,0,0,4.58-3,4.15,4.15,0,0,0-8-2.07Z"/><path class="cls-1" d="M935.83,784.32a4.07,4.07,0,0,0,4.61,3.28,2.89,2.89,0,0,0,.51-.11,2.57,2.57,0,0,0,.47-.15,4.17,4.17,0,0,0,2.5-4.74,4.14,4.14,0,0,0-8.09,1.72Z"/><path class="cls-1" d="M988.64,592.24a2.17,2.17,0,0,0,.36-.32,3,3,0,0,0,.34-.37,4.11,4.11,0,0,0-.45-5.58,4.13,4.13,0,0,0-6,5.63A4.08,4.08,0,0,0,988.64,592.24Z"/><path class="cls-1" d="M932.69,399a2.59,2.59,0,0,0,.14-.45A2.4,2.4,0,0,0,933,398a4.13,4.13,0,0,0-3-4.58,4.15,4.15,0,0,0-2.07,8A4.15,4.15,0,0,0,932.69,399Z"/><path class="cls-1" d="M782.6,256.08a4.14,4.14,0,0,0,1.72,8.09,4.07,4.07,0,0,0,3.28-4.61,2.89,2.89,0,0,0-.11-.51,2.57,2.57,0,0,0-.15-.47A4.17,4.17,0,0,0,782.6,256.08Z"/><path class="cls-1" d="M613.8,216.7a4.22,4.22,0,0,0,.38-5.4,4.09,4.09,0,0,0-5.73-.64,2.2,2.2,0,0,0-.35.33,2,2,0,0,0-.34.37,4.09,4.09,0,0,0,.44,5.57A4.23,4.23,0,0,0,613.8,216.7Z"/><path class="cls-1" d="M415.42,264.14a4.15,4.15,0,0,0,2.08-8,4.13,4.13,0,0,0-4.84,2.47,4,4,0,0,0-.15.45,3.12,3.12,0,0,0-.11.53A4.13,4.13,0,0,0,415.42,264.14Z"/><path class="cls-1" d="M270.33,393.39a4.08,4.08,0,0,0-3.28,4.61,3.1,3.1,0,0,0,.11.51c0,.15.09.31.15.47a4.17,4.17,0,0,0,4.74,2.5,4.14,4.14,0,0,0-1.72-8.09Z"/><path class="cls-1" d="M211,591.9a2,2,0,0,0,.37.34,4.09,4.09,0,0,0,5.57-.44,4.13,4.13,0,0,0-5.63-6,4.09,4.09,0,0,0-.64,5.73A2.2,2.2,0,0,0,211,591.9Z"/><path class="cls-1" d="M256.11,782.5a4.13,4.13,0,0,0,2.47,4.84l.45.15a3.12,3.12,0,0,0,.53.11,4.13,4.13,0,0,0,4.58-3,4.15,4.15,0,0,0-8-2.08Z"/><path class="cls-1" d="M396.53,925a4.2,4.2,0,0,0-3.14,4.64A4.08,4.08,0,0,0,398,933a3.1,3.1,0,0,0,.51-.11,4.26,4.26,0,0,0,.47-.15,4.17,4.17,0,0,0,2.5-4.74A4.22,4.22,0,0,0,396.53,925Z"/><path class="cls-1" d="M586.2,983.3a4.22,4.22,0,0,0-.38,5.4,4.09,4.09,0,0,0,5.73.64,2.2,2.2,0,0,0,.35-.33,2,2,0,0,0,.34-.37,4.09,4.09,0,0,0-.44-5.57A4.23,4.23,0,0,0,586.2,983.3Z"/><path class="cls-1" d="M784.58,935.86a4.15,4.15,0,0,0-2.08,8,4.13,4.13,0,0,0,4.84-2.47,4,4,0,0,0,.15-.45,3.12,3.12,0,0,0,.11-.53A4.13,4.13,0,0,0,784.58,935.86Z"/><path class="cls-1" d="M929.67,806.61A4.08,4.08,0,0,0,933,802a3.1,3.1,0,0,0-.11-.51c0-.15-.09-.31-.15-.47a4.17,4.17,0,0,0-4.74-2.5,4.14,4.14,0,0,0,1.72,8.09Z"/><path class="cls-1" d="M989,608.1a2,2,0,0,0-.37-.34,4.1,4.1,0,0,0-5.58.44,4.14,4.14,0,0,0,5.64,6,4.09,4.09,0,0,0,.64-5.73A2.2,2.2,0,0,0,989,608.1Z"/><path class="cls-1" d="M943.89,417.5a4.13,4.13,0,0,0-2.47-4.84l-.45-.15a3.12,3.12,0,0,0-.53-.11,4.13,4.13,0,0,0-4.58,3,4.15,4.15,0,0,0,8,2.08Z"/><path class="cls-1" d="M803.47,275a4.2,4.2,0,0,0,3.14-4.64,4.08,4.08,0,0,0-4.61-3.28,3.1,3.1,0,0,0-.51.11,4.26,4.26,0,0,0-.47.15,4.17,4.17,0,0,0-2.5,4.74A4.22,4.22,0,0,0,803.47,275Z"/><path class="cls-1" d="M604.07,225.23a4.07,4.07,0,0,0-8.13-.1,4.07,4.07,0,1,0,8.13.1Z"/><path class="cls-1" d="M783.84,273.44a4.07,4.07,0,1,0,7.11,3.95,4.07,4.07,0,0,0-7.11-3.95Z"/><path class="cls-1" d="M922.61,409.05a4.07,4.07,0,1,0,3.95,7.11,4.07,4.07,0,0,0-3.95-7.11Z"/><path class="cls-1" d="M970.5,600a4.18,4.18,0,0,0,4.27,4.07,4.07,4.07,0,0,0,.1-8.13A4.16,4.16,0,0,0,970.5,600Z"/><path class="cls-1" d="M927.9,789.33a4,4,0,0,0-1.34-5.49,4.07,4.07,0,1,0-3.95,7.11A3.93,3.93,0,0,0,927.9,789.33Z"/><path class="cls-1" d="M791,922.61a4.07,4.07,0,1,0-7.11,3.95,4.07,4.07,0,0,0,7.11-3.95Z"/><path class="cls-1" d="M595.93,974.77a4.07,4.07,0,0,0,8.13.1,4.07,4.07,0,1,0-8.13-.1Z"/><path class="cls-1" d="M416.16,926.56a4.07,4.07,0,1,0-7.11-3.95,4.07,4.07,0,0,0,7.11,3.95Z"/><path class="cls-1" d="M277.39,791a4.07,4.07,0,1,0-3.95-7.11,4.07,4.07,0,0,0,3.95,7.11Z"/><path class="cls-1" d="M221.37,600a3.92,3.92,0,0,0,3.76,4.06,4.07,4.07,0,1,0,.1-8.13A3.93,3.93,0,0,0,221.37,600Z"/><path class="cls-1" d="M272.1,410.67a4,4,0,0,0,1.34,5.49,4.07,4.07,0,1,0,3.95-7.11A3.93,3.93,0,0,0,272.1,410.67Z"/><path class="cls-1" d="M409.05,277.39a4.07,4.07,0,1,0,7.11-3.95,4.07,4.07,0,0,0-7.11,3.95Z"/><path class="cls-1" d="M496.17,214.38a1.75,1.75,0,0,0,.49-.09,1.78,1.78,0,0,0,.49-.18,4.16,4.16,0,0,0,2.57-4.9,4.31,4.31,0,0,0-8.36,1.73A4.16,4.16,0,0,0,496.17,214.38Z"/><path class="cls-1" d="M702.85,214.11a1.78,1.78,0,0,0,.49.18,1.82,1.82,0,0,0,.5.09,4.17,4.17,0,0,0,4.77-3.19,4,4,0,0,0-3.16-4.67c-2.19-.56-4.45.25-5.14,2.56A4.17,4.17,0,0,0,702.85,214.11Z"/><path class="cls-1" d="M882.35,317.65a2.42,2.42,0,0,0,.42.33,4.17,4.17,0,0,0,5.59-.28,4.31,4.31,0,0,0-6-6.14,4.16,4.16,0,0,0-.38,5.66A2.21,2.21,0,0,0,882.35,317.65Z"/><path class="cls-1" d="M985.62,496.17a1.75,1.75,0,0,0,.09.49,1.78,1.78,0,0,0,.18.49,4.16,4.16,0,0,0,4.9,2.57,4.31,4.31,0,0,0-1.73-8.36A4.16,4.16,0,0,0,985.62,496.17Z"/><path class="cls-1" d="M990.92,700.31a4.17,4.17,0,0,0-5,2.54,1.78,1.78,0,0,0-.18.49,1.82,1.82,0,0,0-.09.5,4.17,4.17,0,0,0,3.19,4.77,4,4,0,0,0,4.67-3.16C994,703.26,993.23,701,990.92,700.31Z"/><path class="cls-1" d="M882.78,882a2.21,2.21,0,0,0-.43.34,2.42,2.42,0,0,0-.33.42,4.17,4.17,0,0,0,.28,5.59,4.31,4.31,0,0,0,6.14-6A4.16,4.16,0,0,0,882.78,882Z"/><path class="cls-1" d="M703.83,985.62a1.75,1.75,0,0,0-.49.09,1.78,1.78,0,0,0-.49.18,4.16,4.16,0,0,0-2.57,4.9,4.31,4.31,0,0,0,8.36-1.73A4.16,4.16,0,0,0,703.83,985.62Z"/><path class="cls-1" d="M497.15,985.89a1.78,1.78,0,0,0-.49-.18,1.82,1.82,0,0,0-.5-.09,4.17,4.17,0,0,0-4.77,3.19,4,4,0,0,0,3.16,4.67c2.19.56,4.45-.25,5.14-2.56A4.17,4.17,0,0,0,497.15,985.89Z"/><path class="cls-1" d="M317.65,882.35a2.42,2.42,0,0,0-.42-.33,4.17,4.17,0,0,0-5.59.28,4.31,4.31,0,0,0,6,6.14,4.16,4.16,0,0,0,.38-5.66A2.21,2.21,0,0,0,317.65,882.35Z"/><path class="cls-1" d="M214.38,703.83a1.75,1.75,0,0,0-.09-.49,1.78,1.78,0,0,0-.18-.49,4.16,4.16,0,0,0-4.9-2.57,4.31,4.31,0,0,0,1.73,8.36A4.16,4.16,0,0,0,214.38,703.83Z"/><path class="cls-1" d="M209.08,499.69a4.17,4.17,0,0,0,5-2.54,1.78,1.78,0,0,0,.18-.49,1.82,1.82,0,0,0,.09-.5,4.17,4.17,0,0,0-3.19-4.77,4,4,0,0,0-4.67,3.16C206,496.74,206.77,499,209.08,499.69Z"/><path class="cls-1" d="M317.22,318a2.21,2.21,0,0,0,.43-.34,2.42,2.42,0,0,0,.33-.42,4.17,4.17,0,0,0-.28-5.59,4.31,4.31,0,0,0-6.14,6A4.16,4.16,0,0,0,317.22,318Z"/><path class="cls-1" d="M510.6,213.06a1.86,1.86,0,0,0,.5-.08,2.08,2.08,0,0,0,.48-.18,4.17,4.17,0,0,0,2.58-4.9,4.32,4.32,0,0,0-8.37,1.72A4.15,4.15,0,0,0,510.6,213.06Z"/><path class="cls-1" d="M329.07,309.64a2.6,2.6,0,0,0,.42-.35,2.11,2.11,0,0,0,.34-.41,4.2,4.2,0,0,0-.29-5.6,4.32,4.32,0,0,0-6.14,6A4.16,4.16,0,0,0,329.07,309.64Z"/><path class="cls-1" d="M215.16,486.53a4.17,4.17,0,0,0,5-2.54,1.71,1.71,0,0,0,.18-.48,2.4,2.4,0,0,0,.09-.5,4.18,4.18,0,0,0-3.19-4.77,4,4,0,0,0-4.67,3.16C212,483.58,212.85,485.85,215.16,486.53Z"/><path class="cls-1" d="M209.62,694.21a4.15,4.15,0,0,0,3.44-4.81,1.86,1.86,0,0,0-.08-.5,2.08,2.08,0,0,0-.18-.48,4.17,4.17,0,0,0-4.9-2.58,4.32,4.32,0,0,0,1.72,8.37Z"/><path class="cls-1" d="M309.64,870.93a2.6,2.6,0,0,0-.35-.42,2.11,2.11,0,0,0-.41-.34,4.2,4.2,0,0,0-5.6.29,4.32,4.32,0,0,0,6,6.14A4.16,4.16,0,0,0,309.64,870.93Z"/><path class="cls-1" d="M484,979.81a1.71,1.71,0,0,0-.48-.18,2.4,2.4,0,0,0-.5-.09,4.17,4.17,0,0,0-4.77,3.19,4,4,0,0,0,3.16,4.67c2.18.56,4.45-.25,5.13-2.56A4.17,4.17,0,0,0,484,979.81Z"/><path class="cls-1" d="M689.4,986.94a1.86,1.86,0,0,0-.5.08,2.08,2.08,0,0,0-.48.18,4.17,4.17,0,0,0-2.58,4.9,4.32,4.32,0,0,0,8.37-1.72A4.15,4.15,0,0,0,689.4,986.94Z"/><path class="cls-1" d="M870.93,890.36a2.6,2.6,0,0,0-.42.35,2.11,2.11,0,0,0-.34.41,4.2,4.2,0,0,0,.29,5.6,4.32,4.32,0,0,0,6.14-6A4.16,4.16,0,0,0,870.93,890.36Z"/><path class="cls-1" d="M984.84,713.47a4.17,4.17,0,0,0-5,2.54,1.71,1.71,0,0,0-.18.48,2.4,2.4,0,0,0-.09.5,4.18,4.18,0,0,0,3.19,4.77,4,4,0,0,0,4.67-3.16C988,716.42,987.15,714.15,984.84,713.47Z"/><path class="cls-1" d="M990.38,505.79a4.15,4.15,0,0,0-3.44,4.81,1.86,1.86,0,0,0,.08.5,2.08,2.08,0,0,0,.18.48,4.17,4.17,0,0,0,4.91,2.58,4.32,4.32,0,0,0-1.73-8.37Z"/><path class="cls-1" d="M890.36,329.07a2.6,2.6,0,0,0,.35.42,2.11,2.11,0,0,0,.41.34,4.2,4.2,0,0,0,5.6-.29,4.32,4.32,0,0,0-6-6.14A4.16,4.16,0,0,0,890.36,329.07Z"/><path class="cls-1" d="M716,220.19a1.71,1.71,0,0,0,.48.18,2.4,2.4,0,0,0,.5.09,4.17,4.17,0,0,0,4.77-3.19,4,4,0,0,0-3.16-4.67c-2.18-.56-4.45.25-5.13,2.56A4.17,4.17,0,0,0,716,220.19Z"/><path class="cls-1" d="M688.42,212.8a2.08,2.08,0,0,0,.48.18,1.86,1.86,0,0,0,.51.08,4.17,4.17,0,0,0,4.77-3.18,4,4,0,0,0-3.16-4.67c-2.19-.56-4.45.25-5.14,2.56A4.17,4.17,0,0,0,688.42,212.8Z"/><path class="cls-1" d="M483,220.46a2.29,2.29,0,0,0,.5-.09,1.71,1.71,0,0,0,.48-.18,4.17,4.17,0,0,0,2.58-4.9A4.32,4.32,0,0,0,478.2,217,4.16,4.16,0,0,0,483,220.46Z"/><path class="cls-1" d="M308.87,329.83a1.9,1.9,0,0,0,.42-.34,2.09,2.09,0,0,0,.34-.42,4.17,4.17,0,0,0-.29-5.59,4.32,4.32,0,0,0-6.14,6A4.18,4.18,0,0,0,308.87,329.83Z"/><path class="cls-1" d="M207.77,514.12a4.17,4.17,0,0,0,5-2.54,2.08,2.08,0,0,0,.18-.48,1.86,1.86,0,0,0,.08-.51,4.17,4.17,0,0,0-3.18-4.77,4,4,0,0,0-4.67,3.16C204.65,511.17,205.46,513.43,207.77,514.12Z"/><path class="cls-1" d="M220.46,717a2.29,2.29,0,0,0-.09-.5,1.71,1.71,0,0,0-.18-.48,4.17,4.17,0,0,0-4.9-2.58A4.32,4.32,0,0,0,217,721.8,4.16,4.16,0,0,0,220.46,717Z"/><path class="cls-1" d="M329.49,890.71a2.51,2.51,0,0,0-.42-.34,4.17,4.17,0,0,0-5.59.29,4.32,4.32,0,0,0,6,6.14,4.18,4.18,0,0,0,.38-5.67A1.9,1.9,0,0,0,329.49,890.71Z"/><path class="cls-1" d="M511.58,987.2a2.08,2.08,0,0,0-.48-.18,1.86,1.86,0,0,0-.51-.08,4.17,4.17,0,0,0-4.77,3.18,4,4,0,0,0,3.16,4.67c2.19.56,4.45-.25,5.14-2.56A4.17,4.17,0,0,0,511.58,987.2Z"/><path class="cls-1" d="M717,979.54a2.29,2.29,0,0,0-.5.09,1.71,1.71,0,0,0-.48.18,4.17,4.17,0,0,0-2.58,4.9A4.32,4.32,0,0,0,721.8,983,4.16,4.16,0,0,0,717,979.54Z"/><path class="cls-1" d="M891.13,870.17a1.9,1.9,0,0,0-.42.34,2.09,2.09,0,0,0-.34.42,4.17,4.17,0,0,0,.29,5.59,4.32,4.32,0,0,0,6.14-6A4.18,4.18,0,0,0,891.13,870.17Z"/><path class="cls-1" d="M992.23,685.88a4.17,4.17,0,0,0-5,2.54,2.08,2.08,0,0,0-.18.48,1.86,1.86,0,0,0-.08.51,4.17,4.17,0,0,0,3.18,4.77,4,4,0,0,0,4.67-3.16C995.35,688.83,994.54,686.57,992.23,685.88Z"/><path class="cls-1" d="M979.54,483a2.29,2.29,0,0,0,.09.5,1.71,1.71,0,0,0,.18.48,4.17,4.17,0,0,0,4.9,2.58A4.32,4.32,0,0,0,983,478.2,4.16,4.16,0,0,0,979.54,483Z"/><path class="cls-1" d="M870.51,309.29a2.51,2.51,0,0,0,.42.34,4.17,4.17,0,0,0,5.59-.29,4.32,4.32,0,0,0-6-6.14,4.18,4.18,0,0,0-.38,5.67A1.9,1.9,0,0,0,870.51,309.29Z"/><path class="cls-1" d="M522.76,215.21a2.4,2.4,0,0,0,.5-.09,1.71,1.71,0,0,0,.48-.18,4.17,4.17,0,0,0,2.58-4.9,4.32,4.32,0,0,0-8.37,1.72A4.16,4.16,0,0,0,522.76,215.21Z"/><path class="cls-1" d="M340.67,305.41a2.58,2.58,0,0,0,.76-.76,4.19,4.19,0,0,0-.29-5.59,4.32,4.32,0,0,0-6.14,6A4.17,4.17,0,0,0,340.67,305.41Z"/><path class="cls-1" d="M223.09,477.07a4.18,4.18,0,0,0,5-2.54,2.08,2.08,0,0,0,.18-.48,2.36,2.36,0,0,0,.08-.5,4.17,4.17,0,0,0-3.18-4.78,4,4,0,0,0-4.67,3.17C220,474.12,220.79,476.39,223.09,477.07Z"/><path class="cls-1" d="M214.94,676.26a4.17,4.17,0,0,0-4.9-2.58,4.32,4.32,0,0,0,1.72,8.37,4.16,4.16,0,0,0,3.45-4.81,2.4,2.4,0,0,0-.09-.5A1.71,1.71,0,0,0,214.94,676.26Z"/><path class="cls-1" d="M305,865a4.17,4.17,0,0,0,.38-5.67,2.58,2.58,0,0,0-.76-.76,4.19,4.19,0,0,0-5.59.29,4.32,4.32,0,0,0,6,6.14Z"/><path class="cls-1" d="M474.53,971.87a2.67,2.67,0,0,0-.48-.18,2.36,2.36,0,0,0-.5-.08,4.15,4.15,0,0,0-4.77,3.18,4,4,0,0,0,3.16,4.67c2.18.56,4.45-.25,5.13-2.55A4.18,4.18,0,0,0,474.53,971.87Z"/><path class="cls-1" d="M677.24,984.79a2.4,2.4,0,0,0-.5.09,1.71,1.71,0,0,0-.48.18,4.17,4.17,0,0,0-2.58,4.9,4.32,4.32,0,0,0,8.37-1.72A4.16,4.16,0,0,0,677.24,984.79Z"/><path class="cls-1" d="M859.33,894.59a2.58,2.58,0,0,0-.76.76,4.19,4.19,0,0,0,.29,5.59,4.32,4.32,0,0,0,6.14-6A4.17,4.17,0,0,0,859.33,894.59Z"/><path class="cls-1" d="M976.91,722.93a4.18,4.18,0,0,0-5,2.54,2.08,2.08,0,0,0-.18.48,2.36,2.36,0,0,0-.08.5,4.17,4.17,0,0,0,3.18,4.78,4,4,0,0,0,4.67-3.17C980,725.88,979.21,723.61,976.91,722.93Z"/><path class="cls-1" d="M985.06,523.74a4.17,4.17,0,0,0,4.9,2.58,4.32,4.32,0,0,0-1.72-8.37,4.16,4.16,0,0,0-3.45,4.81,2.4,2.4,0,0,0,.09.5A1.71,1.71,0,0,0,985.06,523.74Z"/><path class="cls-1" d="M895,335a4.17,4.17,0,0,0-.38,5.67,2.58,2.58,0,0,0,.76.76,4.19,4.19,0,0,0,5.59-.29,4.32,4.32,0,0,0-6-6.14Z"/><path class="cls-1" d="M725.47,228.13a2.67,2.67,0,0,0,.48.18,2.36,2.36,0,0,0,.5.08,4.15,4.15,0,0,0,4.77-3.18,4,4,0,0,0-3.16-4.67c-2.18-.56-4.45.25-5.13,2.55A4.18,4.18,0,0,0,725.47,228.13Z"/><path class="cls-1" d="M676.26,214.94a1.71,1.71,0,0,0,.48.18,2.38,2.38,0,0,0,.51.09A4.18,4.18,0,0,0,682,212a4,4,0,0,0-3.17-4.67c-2.18-.56-4.44.25-5.13,2.56A4.17,4.17,0,0,0,676.26,214.94Z"/><path class="cls-1" d="M473.55,228.39a2.26,2.26,0,0,0,.5-.08,2.67,2.67,0,0,0,.48-.18,4.18,4.18,0,0,0,2.58-4.91,4.32,4.32,0,0,0-8.37,1.73A4.16,4.16,0,0,0,473.55,228.39Z"/><path class="cls-1" d="M304.65,341.43a2.51,2.51,0,0,0,.42-.34,1.9,1.9,0,0,0,.34-.42,4.19,4.19,0,0,0-.29-5.59,4.32,4.32,0,0,0-6.14,6A4.16,4.16,0,0,0,304.65,341.43Z"/><path class="cls-1" d="M212,518a4,4,0,0,0-4.67,3.17c-.56,2.18.25,4.44,2.56,5.13a4.17,4.17,0,0,0,5-2.54,1.71,1.71,0,0,0,.18-.48,2.4,2.4,0,0,0,.09-.5A4.19,4.19,0,0,0,212,518Z"/><path class="cls-1" d="M228.39,726.45a2.26,2.26,0,0,0-.08-.5,2.08,2.08,0,0,0-.18-.48,4.18,4.18,0,0,0-4.91-2.58,4.32,4.32,0,0,0,1.73,8.37A4.16,4.16,0,0,0,228.39,726.45Z"/><path class="cls-1" d="M341.09,894.93a1.9,1.9,0,0,0-.42-.34,4.19,4.19,0,0,0-5.59.29,4.32,4.32,0,0,0,6,6.14,4.16,4.16,0,0,0,.38-5.67A2.51,2.51,0,0,0,341.09,894.93Z"/><path class="cls-1" d="M523.74,985.06a1.71,1.71,0,0,0-.48-.18,2.38,2.38,0,0,0-.51-.09A4.18,4.18,0,0,0,518,988a4,4,0,0,0,3.17,4.67c2.18.56,4.44-.25,5.13-2.56A4.17,4.17,0,0,0,523.74,985.06Z"/><path class="cls-1" d="M726.45,971.61a2.26,2.26,0,0,0-.5.08,2.67,2.67,0,0,0-.48.18,4.18,4.18,0,0,0-2.58,4.91,4.32,4.32,0,0,0,8.37-1.73A4.16,4.16,0,0,0,726.45,971.61Z"/><path class="cls-1" d="M895.36,858.57a2.21,2.21,0,0,0-.43.34,1.9,1.9,0,0,0-.34.42,4.19,4.19,0,0,0,.29,5.59,4.32,4.32,0,0,0,6.14-6A4.15,4.15,0,0,0,895.36,858.57Z"/><path class="cls-1" d="M988,682a4,4,0,0,0,4.67-3.17c.56-2.18-.25-4.44-2.56-5.13a4.17,4.17,0,0,0-5,2.54,1.71,1.71,0,0,0-.18.48,2.4,2.4,0,0,0-.09.5A4.19,4.19,0,0,0,988,682Z"/><path class="cls-1" d="M971.61,473.55a2.26,2.26,0,0,0,.08.5,2.08,2.08,0,0,0,.18.48,4.18,4.18,0,0,0,4.91,2.58,4.32,4.32,0,0,0-1.73-8.37A4.16,4.16,0,0,0,971.61,473.55Z"/><path class="cls-1" d="M858.91,305.07a1.9,1.9,0,0,0,.42.34,4.19,4.19,0,0,0,5.59-.29,4.32,4.32,0,0,0-6-6.14,4.16,4.16,0,0,0-.38,5.67A2.51,2.51,0,0,0,858.91,305.07Z"/><path class="cls-1" d="M565.62,238a1.82,1.82,0,0,0-2.53,1.23c-1.54,4-2.35,8.89-1.11,13.12.85,2.86,2.88,7.21,6.46,7,3-.18,4-3.38,2.87-5.79-.86-1.8-2.64-3-3.59-4.76a11.64,11.64,0,0,1-.89-8.53A1.64,1.64,0,0,0,565.62,238Z"/><path class="cls-1" d="M400.87,313.78c-2.13-.93-4.15-1.34-6-2.93A11.66,11.66,0,0,1,391.4,305a1.54,1.54,0,0,0-1.95-1.36,1.89,1.89,0,0,0-1.79,2.39,21.5,21.5,0,0,0,5.21,11.5c2.09,2.17,6.14,5.17,9.26,3.34S403.73,315,400.87,313.78Z"/><path class="cls-1" d="M279.72,452.35a11.67,11.67,0,0,1-7.85-3.49,1.59,1.59,0,0,0-2.42-.19,1.86,1.86,0,0,0-.32,2.93,22,22,0,0,0,9.74,7.2c3,1,8.33,1.7,10.21-1.55,1.46-2.56-.46-5.23-3.18-5.59C283.84,451.39,281.79,452.41,279.72,452.35Z"/><path class="cls-1" d="M239.24,636.91c4,1.54,8.89,2.35,13.12,1.11,2.86-.85,7.21-2.88,7-6.45-.18-3-3.38-4-5.79-2.88-1.8.86-3,2.64-4.76,3.59a11.62,11.62,0,0,1-8.52.89,1.65,1.65,0,0,0-2.27,1.21A1.82,1.82,0,0,0,239.24,636.91Z"/><path class="cls-1" d="M306.06,812.34a21.5,21.5,0,0,0,11.5-5.21c2.17-2.09,5.17-6.14,3.34-9.26s-5.87-1.6-7.12,1.26c-.93,2.13-1.34,4.15-2.93,6A11.66,11.66,0,0,1,305,808.6a1.54,1.54,0,0,0-1.36,1.95A1.89,1.89,0,0,0,306.06,812.34Z"/><path class="cls-1" d="M457.25,910.92c-2.56-1.46-5.23.46-5.59,3.18-.27,2.06.75,4.11.69,6.18a11.67,11.67,0,0,1-3.49,7.85,1.59,1.59,0,0,0-.19,2.42,1.86,1.86,0,0,0,2.93.32,21.89,21.89,0,0,0,7.2-9.74C459.77,918.17,460.5,912.8,457.25,910.92Z"/><path class="cls-1" d="M634.38,962a1.82,1.82,0,0,0,2.53-1.23c1.54-4,2.35-8.89,1.11-13.12-.85-2.86-2.88-7.21-6.46-7-3,.18-4,3.38-2.87,5.79.86,1.8,2.64,3,3.59,4.76a11.64,11.64,0,0,1,.89,8.53A1.64,1.64,0,0,0,634.38,962Z"/><path class="cls-1" d="M799.13,886.22c2.13.93,4.15,1.34,6,2.93A11.66,11.66,0,0,1,808.6,895a1.54,1.54,0,0,0,1.95,1.36,1.89,1.89,0,0,0,1.79-2.39,21.5,21.5,0,0,0-5.21-11.5c-2.09-2.17-6.14-5.17-9.26-3.34S796.27,885,799.13,886.22Z"/><path class="cls-1" d="M920.28,747.65a11.67,11.67,0,0,1,7.85,3.49,1.59,1.59,0,0,0,2.42.19,1.86,1.86,0,0,0,.32-2.93,22,22,0,0,0-9.74-7.2c-3-1-8.33-1.7-10.21,1.55-1.46,2.56.46,5.23,3.18,5.59C916.16,748.61,918.21,747.59,920.28,747.65Z"/><path class="cls-1" d="M960.76,563.09c-4-1.54-8.89-2.35-13.12-1.11-2.86.84-7.21,2.88-7,6.45.18,3,3.38,4,5.79,2.88,1.8-.86,3-2.64,4.76-3.59a11.62,11.62,0,0,1,8.52-.89,1.65,1.65,0,0,0,2.27-1.21A1.82,1.82,0,0,0,960.76,563.09Z"/><path class="cls-1" d="M893.94,387.66a21.5,21.5,0,0,0-11.5,5.21c-2.17,2.09-5.17,6.14-3.34,9.26s5.87,1.6,7.12-1.26c.93-2.13,1.34-4.15,2.93-6A11.66,11.66,0,0,1,895,391.4a1.54,1.54,0,0,0,1.36-1.95A1.89,1.89,0,0,0,893.94,387.66Z"/><path class="cls-1" d="M742.75,289.08c2.56,1.46,5.23-.46,5.59-3.18.27-2.06-.75-4.11-.69-6.18a11.67,11.67,0,0,1,3.49-7.85,1.58,1.58,0,0,0,.18-2.42,1.85,1.85,0,0,0-2.92-.32,21.89,21.89,0,0,0-7.2,9.74C740.23,281.83,739.5,287.2,742.75,289.08Z"/><path class="cls-1" d="M628.69,253.56c-1.15,2.41-.09,5.6,2.87,5.79,3.57.22,5.63-4.13,6.46-7,1.23-4.24.43-9.07-1.11-13.12a1.82,1.82,0,0,0-2.53-1.23,1.63,1.63,0,0,0-1.21,2.26,11.6,11.6,0,0,1-.57,7.81C631.65,250.21,629.67,251.52,628.69,253.56Z"/><path class="cls-1" d="M451.63,285.64c.23,2.81,2.95,5,5.62,3.44,3.12-1.8,2.53-6.82,1.7-9.7-1.16-4-4.12-7.64-7.35-10.25a1.86,1.86,0,0,0-2.93.32,1.58,1.58,0,0,0,.19,2.42,11.65,11.65,0,0,1,3.49,7.85C452.4,281.73,451.47,283.65,451.63,285.64Z"/><path class="cls-1" d="M305,391.4a11.66,11.66,0,0,1,5.82,3.51c1.59,1.81,2,3.83,2.93,6,1.25,2.86,5.21,4.51,7.12,1.26s-1.17-7.17-3.34-9.26a21.5,21.5,0,0,0-11.5-5.21,1.89,1.89,0,0,0-2.39,1.79A1.54,1.54,0,0,0,305,391.4Z"/><path class="cls-1" d="M240.28,566.83a11.57,11.57,0,0,1,7.8.57c2.13,1,3.44,2.93,5.48,3.91,2.41,1.15,5.6.09,5.79-2.88.22-3.56-4.13-5.62-7-6.45-4.24-1.23-9.07-.43-13.12,1.11a1.82,1.82,0,0,0-1.23,2.53A1.64,1.64,0,0,0,240.28,566.83Z"/><path class="cls-1" d="M271.87,751.14a11.65,11.65,0,0,1,7.85-3.49c2,0,3.93.88,5.92.72,2.81-.23,5-3,3.44-5.62-1.8-3.12-6.82-2.53-9.7-1.7-4,1.16-7.64,4.12-10.25,7.35a1.86,1.86,0,0,0,.32,2.93A1.58,1.58,0,0,0,271.87,751.14Z"/><path class="cls-1" d="M402.13,879.1c-3.12-1.83-7.17,1.17-9.26,3.34a21.5,21.5,0,0,0-5.21,11.5,1.89,1.89,0,0,0,1.79,2.39A1.54,1.54,0,0,0,391.4,895a11.66,11.66,0,0,1,3.51-5.82c1.81-1.59,3.83-2,6-2.93C403.73,885,405.38,881,402.13,879.1Z"/><path class="cls-1" d="M571.31,946.44c1.15-2.41.09-5.6-2.87-5.79-3.57-.22-5.63,4.13-6.46,7-1.23,4.24-.43,9.07,1.11,13.12a1.82,1.82,0,0,0,2.53,1.23,1.63,1.63,0,0,0,1.21-2.26,11.6,11.6,0,0,1,.57-7.81C568.35,949.79,570.33,948.48,571.31,946.44Z"/><path class="cls-1" d="M748.37,914.36c-.23-2.81-3-5-5.62-3.44-3.12,1.8-2.53,6.82-1.7,9.7,1.16,4,4.12,7.64,7.35,10.25a1.86,1.86,0,0,0,2.93-.32,1.58,1.58,0,0,0-.19-2.42,11.65,11.65,0,0,1-3.49-7.85C747.6,918.27,748.53,916.35,748.37,914.36Z"/><path class="cls-1" d="M895,808.6a11.66,11.66,0,0,1-5.82-3.51c-1.59-1.81-2-3.83-2.93-6-1.25-2.86-5.21-4.51-7.12-1.26s1.17,7.17,3.34,9.26a21.5,21.5,0,0,0,11.5,5.21,1.89,1.89,0,0,0,2.39-1.79A1.54,1.54,0,0,0,895,808.6Z"/><path class="cls-1" d="M947.64,638c4.24,1.23,9.07.43,13.12-1.11a1.82,1.82,0,0,0,1.23-2.53,1.64,1.64,0,0,0-2.27-1.21,11.57,11.57,0,0,1-7.8-.57c-2.13-1-3.43-2.93-5.48-3.91-2.41-1.15-5.6-.09-5.79,2.88C940.43,635.13,944.78,637.19,947.64,638Z"/><path class="cls-1" d="M928.13,448.86a11.65,11.65,0,0,1-7.85,3.49c-2,0-3.93-.88-5.92-.72-2.81.23-5,2.95-3.44,5.62,1.8,3.12,6.82,2.53,9.7,1.7,4-1.16,7.64-4.12,10.25-7.35a1.86,1.86,0,0,0-.32-2.93A1.58,1.58,0,0,0,928.13,448.86Z"/><path class="cls-1" d="M797.87,320.9c3.12,1.83,7.17-1.17,9.26-3.34a21.5,21.5,0,0,0,5.21-11.5,1.89,1.89,0,0,0-1.79-2.39A1.54,1.54,0,0,0,808.6,305a11.66,11.66,0,0,1-3.51,5.82c-1.81,1.59-3.83,2-6,2.93C796.27,315,794.62,319,797.87,320.9Z"/><path class="cls-1" d="M437.16,920.13a5.08,5.08,0,0,0,.81,7.74,6.78,6.78,0,0,0,10-2.64c.17-.19.33-.38.48-.58,2.15-3,1.35-7.16-.7-9.93-3.92-5.29-10.5-5.88-16.12-3.73-7.11,2.29-13.15,9.78-11.78,17.12,2.31,12.3,16.66,9.25,26.27,12.34A22,22,0,0,1,452,944a1.72,1.72,0,0,0,2.71-.08,1.7,1.7,0,0,0,0-2.67,14.75,14.75,0,0,0-7.43-4.49,40.27,40.27,0,0,0-4-1.45,77.83,77.83,0,0,0-7.65-1.54c-5.61-1.91-12.1-7.38-10.13-12.92A15.46,15.46,0,0,1,432,915a9.6,9.6,0,0,1,6.19-.51A8.23,8.23,0,0,1,442.3,917a4.82,4.82,0,0,1,1,1.43c.07.12.13.24.19.36A6.17,6.17,0,0,0,437.16,920.13Z"/><path class="cls-1" d="M762.84,279.87a5.08,5.08,0,0,0-.81-7.74,6.78,6.78,0,0,0-10,2.64c-.17.19-.33.38-.48.58-2.15,3-1.35,7.16.7,9.93,3.92,5.29,10.5,5.88,16.12,3.73,7.11-2.29,13.15-9.78,11.78-17.12-2.31-12.3-16.66-9.25-26.27-12.34A22,22,0,0,1,748,256a1.72,1.72,0,0,0-2.71.08,1.7,1.7,0,0,0,0,2.67,14.75,14.75,0,0,0,7.43,4.49,40.27,40.27,0,0,0,4,1.45,77.83,77.83,0,0,0,7.65,1.54c5.61,1.91,12.1,7.38,10.13,12.92A15.46,15.46,0,0,1,768,285a9.6,9.6,0,0,1-6.19.51A8.23,8.23,0,0,1,757.7,283a4.82,4.82,0,0,1-1-1.43c-.07-.12-.13-.24-.19-.36A6.17,6.17,0,0,0,762.84,279.87Z"/><path class="cls-1" d="M668.41,251.83c4.51-13.09,15.74-25.48,30.64-21.54,15.15,4,18.58,21.06,15.63,34.76-1.33,6.15-3.84,13.59-9.45,17.14-7.08,4.47-15.36-1.06-14.21-8.9a7,7,0,0,1,1.22-1.65,7.33,7.33,0,0,1,4.44-2.15,7.47,7.47,0,0,1,1.34,0c-2.61,1.86-2,6.35,1.16,7.56a2,2,0,0,0,1,.36c7.38.53,9.36-8.86,3.93-12.86s-11.1-.95-15.11,3.25c-1.39-5.69-4.94-11.22-11.61-10.35s-9.54,10-2.87,13.08a2,2,0,0,0,1.4.12c2.77.16,5.72-1.95,4.56-5.55,0-.12-.09-.23-.13-.34a7.64,7.64,0,0,1,1.17.69,7.15,7.15,0,0,1,2.64,3.63,6.7,6.7,0,0,1,.36,2.51c-2.9,7.3-12.85,8.05-16.76.57C664.58,266,666.29,258,668.41,251.83Z"/><path class="cls-1" d="M870.64,870.64c-11,11-27.27,5.63-37.68-3.66-5-4.42-10.75-11-10.34-18.13a9.05,9.05,0,0,1,14.77-6.69,5.85,5.85,0,0,1,.44.78,7.5,7.5,0,0,1,.47,4.92,6.58,6.58,0,0,1-.69,1.75,3.87,3.87,0,0,1-.36.59,4.44,4.44,0,0,0-7.16-2.82,2,2,0,0,0-.79.69c-4.17,6.15,3.08,12.65,9.27,9.8,6-2.75,6.25-9.13,4.63-14.67,5.54,1.62,11.92,1.34,14.67-4.63,2.85-6.19-3.65-13.44-9.8-9.27a1.85,1.85,0,0,0-.84,1.25c-1.42,2.19-1.21,5.43,2.13,6.47a5.51,5.51,0,0,0,.84.18,7.93,7.93,0,0,1-1.23.7,7.24,7.24,0,0,1-4.43.48,7,7,0,0,1-2.36-1,9.05,9.05,0,0,1,6.67-14.81C856,822.21,862.56,828,867,833,876.25,843.39,881.64,859.64,870.64,870.64Z"/><path class="cls-1" d="M531.59,948.17c-4.51,13.09-15.74,25.48-30.64,21.54-15.15-4-18.58-21.06-15.63-34.76,1.33-6.15,3.84-13.59,9.45-17.14,7.08-4.47,15.36,1.06,14.21,8.9a7,7,0,0,1-1.22,1.65,7.33,7.33,0,0,1-4.44,2.15,7.47,7.47,0,0,1-1.34,0c2.61-1.86,2-6.35-1.16-7.56a2,2,0,0,0-1-.36c-7.38-.53-9.36,8.86-3.93,12.86s11.1.95,15.11-3.25c1.39,5.69,4.94,11.22,11.61,10.35s9.54-10,2.87-13.08a2,2,0,0,0-1.4-.12c-2.77-.16-5.72,2-4.56,5.55,0,.12.09.23.13.34a7.64,7.64,0,0,1-1.17-.69,7.15,7.15,0,0,1-2.64-3.63,6.7,6.7,0,0,1-.36-2.51c2.9-7.3,12.85-8,16.76-.57C535.42,934,533.71,942,531.59,948.17Z"/><path class="cls-1" d="M598.13,215.37a2,2,0,0,0,3.74,0,91.23,91.23,0,0,1,2.79-9.85c.82-2.4,1.79-4.85,1.78-7.44,0-3.58-2.29-8.16-6.44-8.16s-6.43,4.58-6.44,8.16c0,2.59,1,5,1.78,7.44A93.57,93.57,0,0,1,598.13,215.37Z"/><path class="cls-1" d="M791.57,268.06a1.7,1.7,0,0,0,2.37-.23c3.71-4,8.93-7.32,12-11.81,2.19-3.18,3.08-8.83-.92-11.15-3.6-2.09-7.86.74-9.66,3.82-1.31,2.23-1.69,4.84-2.18,7.33a91.73,91.73,0,0,1-2.51,9.92A1.7,1.7,0,0,0,791.57,268.06Z"/><path class="cls-1" d="M932.17,406.06a2,2,0,0,0,1.89,3.24,91.73,91.73,0,0,1,9.92-2.51c2.5-.49,5.08-.88,7.33-2.18,3.1-1.79,5.9-6.08,3.82-9.66-2.32-4-8-3.11-11.15-.92C939.5,397.11,936.19,402.36,932.17,406.06Z"/><path class="cls-1" d="M1001.92,593.56c-2.59,0-5,1-7.44,1.79a96,96,0,0,1-9.85,2.78,2,2,0,0,0,0,3.74,93.52,93.52,0,0,1,9.85,2.78c2.41.83,4.85,1.8,7.44,1.79,3.58,0,8.16-2.29,8.16-6.44S1005.5,593.57,1001.92,593.56Z"/><path class="cls-1" d="M951.31,795.39c-2.23-1.31-4.84-1.69-7.33-2.18a91.73,91.73,0,0,1-9.92-2.51,2,2,0,0,0-1.89,3.24c4,3.71,7.32,8.93,11.81,12,3.18,2.19,8.83,3.07,11.15-.92C957.22,801.45,954.39,797.2,951.31,795.39Z"/><path class="cls-1" d="M793.94,932.17a2,2,0,0,0-3.24,1.89,91.73,91.73,0,0,1,2.51,9.92c.49,2.5.88,5.08,2.18,7.33,1.79,3.1,6.08,5.9,9.66,3.82,4-2.32,3.11-8,.92-11.15C802.89,939.5,797.64,936.19,793.94,932.17Z"/><path class="cls-1" d="M601.87,984.63a2,2,0,0,0-3.74,0,91.23,91.23,0,0,1-2.79,9.85c-.82,2.4-1.79,4.85-1.78,7.44,0,3.58,2.29,8.16,6.44,8.16s6.43-4.58,6.44-8.16c0-2.59-1-5-1.78-7.44A93.57,93.57,0,0,1,601.87,984.63Z"/><path class="cls-1" d="M408.43,931.94a1.7,1.7,0,0,0-2.37.23c-3.71,4-8.93,7.32-12,11.81-2.19,3.18-3.08,8.83.92,11.15,3.6,2.09,7.86-.74,9.66-3.82,1.31-2.23,1.69-4.84,2.18-7.33a91.73,91.73,0,0,1,2.51-9.92A1.7,1.7,0,0,0,408.43,931.94Z"/><path class="cls-1" d="M267.83,793.94a2,2,0,0,0-1.89-3.24,91.73,91.73,0,0,1-9.92,2.51c-2.5.49-5.08.88-7.33,2.18-3.1,1.79-5.9,6.08-3.82,9.66,2.32,4,8,3.11,11.15.92C260.5,802.89,263.81,797.64,267.83,793.94Z"/><path class="cls-1" d="M205.52,604.65a96,96,0,0,1,9.85-2.78,2,2,0,0,0,0-3.74,93.52,93.52,0,0,1-9.85-2.78c-2.41-.83-4.85-1.8-7.44-1.79-3.58,0-8.16,2.29-8.16,6.44s4.58,6.43,8.16,6.44C200.67,606.46,203.12,605.48,205.52,604.65Z"/><path class="cls-1" d="M248.69,404.61c2.23,1.31,4.84,1.69,7.33,2.18a91.73,91.73,0,0,1,9.92,2.51,2,2,0,0,0,1.89-3.24c-4-3.71-7.32-8.93-11.81-12-3.18-2.19-8.83-3.07-11.15.92C242.78,398.55,245.61,402.8,248.69,404.61Z"/><path class="cls-1" d="M406.06,267.83a2,2,0,0,0,3.24-1.89,91.73,91.73,0,0,1-2.51-9.92c-.49-2.5-.88-5.08-2.18-7.33-1.79-3.1-6.08-5.9-9.66-3.82-4,2.32-3.11,8-.92,11.15C397.11,260.5,402.36,263.81,406.06,267.83Z"/><path class="cls-1" d="M494.77,282.19c-5.61-3.55-8.12-11-9.45-17.14-2.93-13.7.47-30.74,15.63-34.76,14.88-3.93,26.15,8.45,30.64,21.54,2.11,6.18,3.83,14.21.64,20.31-3.88,7.44-13.83,6.73-16.74-.54a5.3,5.3,0,0,1,0-.89,7.5,7.5,0,0,1,2.06-4.52A6.74,6.74,0,0,1,519,265l.51-.27c-1.12,2.83,1.4,6.63,4.94,6a2,2,0,0,0,1-.19c6.66-3.11,3.67-12.23-2.87-13.08s-10.22,4.66-11.61,10.35c-4-4.2-9.75-7.18-15.11-3.25s-3.45,13.39,3.93,12.86a1.93,1.93,0,0,0,1.32-.63c2.25-1.09,3.71-3.77,1.7-6.38a5.46,5.46,0,0,0-.84-.88,6.65,6.65,0,0,1,4.25.95,7.06,7.06,0,0,1,2.75,2.92C510.08,281.16,501.84,286.66,494.77,282.19Z"/><path class="cls-1" d="M822.62,351.15C822.21,344,828,337.44,833,333c10.43-9.27,26.68-14.66,37.68-3.66S876.27,356.63,867,367c-4.42,5-11,10.75-18.13,10.34a9.05,9.05,0,0,1-6.69-14.77,5.85,5.85,0,0,1,.78-.44,7.5,7.5,0,0,1,4.92-.47,6.45,6.45,0,0,1,1.75.69,3.87,3.87,0,0,1,.59.36,4.44,4.44,0,0,0-2.82,7.16,2,2,0,0,0,.69.79c6.15,4.17,12.65-3.08,9.8-9.27-2.75-6-9.13-6.25-14.67-4.63,1.62-5.54,1.34-11.92-4.63-14.67-6.19-2.85-13.44,3.65-9.27,9.8a1.85,1.85,0,0,0,1.25.84c2.19,1.42,5.43,1.22,6.47-2.13a5.51,5.51,0,0,0,.18-.84,7.93,7.93,0,0,1,.7,1.23,7.24,7.24,0,0,1,.48,4.43,7,7,0,0,1-1,2.36A9.05,9.05,0,0,1,822.62,351.15Z"/><path class="cls-1" d="M917.81,494.77c3.55-5.61,11-8.12,17.14-9.45,13.7-2.93,30.74.47,34.75,15.63,3.94,14.88-8.44,26.15-21.53,30.63-6.18,2.12-14.21,3.84-20.31.65-7.44-3.88-6.73-13.83.54-16.74a6.63,6.63,0,0,1,.89,0,7.5,7.5,0,0,1,4.52,2.06A6.74,6.74,0,0,1,935,519q.15.26.27.51c-2.83-1.12-6.63,1.4-6,4.94a2,2,0,0,0,.19,1c3.11,6.66,12.23,3.67,13.08-2.87s-4.66-10.22-10.35-11.61c4.2-4,7.18-9.75,3.25-15.11s-13.39-3.45-12.86,3.93a1.93,1.93,0,0,0,.63,1.32c1.09,2.25,3.77,3.71,6.38,1.7a5.46,5.46,0,0,0,.88-.84,6.65,6.65,0,0,1-1,4.25,7.06,7.06,0,0,1-2.92,2.75C918.84,510.08,913.34,501.84,917.81,494.77Z"/><path class="cls-1" d="M927.86,667.77c6.1-3.19,14.12-1.48,20.31.65,13.09,4.5,25.48,15.73,21.53,30.63-4,15.15-21.05,18.58-34.75,15.63-6.15-1.33-13.59-3.84-17.14-9.45-4.47-7.08,1.06-15.36,8.9-14.21a7,7,0,0,1,1.65,1.22,7.33,7.33,0,0,1,2.15,4.44,7.47,7.47,0,0,1,0,1.34c-1.86-2.61-6.35-2-7.56,1.16a2,2,0,0,0-.36,1c-.53,7.38,8.86,9.36,12.86,3.93s.95-11.1-3.25-15.11c5.69-1.39,11.22-4.94,10.35-11.61s-10-9.54-13.08-2.87a2,2,0,0,0-.12,1.4c-.16,2.77,2,5.72,5.55,4.56l.34-.13a7.64,7.64,0,0,1-.69,1.17,7.22,7.22,0,0,1-3.63,2.65,6.9,6.9,0,0,1-2.51.35C921.13,681.63,920.38,671.68,927.86,667.77Z"/><path class="cls-1" d="M705.23,917.81c5.61,3.55,8.12,11,9.45,17.14,2.93,13.7-.47,30.74-15.63,34.76-14.88,3.93-26.15-8.45-30.64-21.54-2.11-6.18-3.83-14.21-.64-20.31,3.88-7.44,13.83-6.73,16.74.54a5.3,5.3,0,0,1,0,.89,7.5,7.5,0,0,1-2.06,4.52A6.74,6.74,0,0,1,681,935l-.51.27c1.12-2.83-1.4-6.63-4.94-6a2,2,0,0,0-1,.19c-6.66,3.11-3.67,12.23,2.87,13.08s10.22-4.66,11.61-10.35c4,4.2,9.75,7.18,15.11,3.25s3.45-13.39-3.93-12.86a1.93,1.93,0,0,0-1.32.63c-2.25,1.09-3.71,3.77-1.7,6.38a5.46,5.46,0,0,0,.84.88,6.65,6.65,0,0,1-4.25-1,7.06,7.06,0,0,1-2.75-2.92C689.92,918.84,698.16,913.34,705.23,917.81Z"/><path class="cls-1" d="M377.38,848.85C377.79,856,372,862.56,367,867c-10.43,9.27-26.68,14.66-37.68,3.66S323.73,843.37,333,833c4.42-5,11-10.75,18.13-10.34a9.05,9.05,0,0,1,6.69,14.77,5.85,5.85,0,0,1-.78.44,7.5,7.5,0,0,1-4.92.47,6.45,6.45,0,0,1-1.75-.69,3.87,3.87,0,0,1-.59-.36,4.44,4.44,0,0,0,2.82-7.16,2,2,0,0,0-.69-.79c-6.15-4.17-12.65,3.08-9.8,9.27,2.75,6,9.13,6.25,14.67,4.63-1.62,5.54-1.34,11.92,4.63,14.67,6.19,2.85,13.44-3.65,9.27-9.8a1.85,1.85,0,0,0-1.25-.84c-2.19-1.42-5.43-1.22-6.47,2.13a5.51,5.51,0,0,0-.18.84,7.93,7.93,0,0,1-.7-1.23,7.24,7.24,0,0,1-.48-4.43,7,7,0,0,1,.95-2.36A9.05,9.05,0,0,1,377.38,848.85Z"/><path class="cls-1" d="M282.19,705.23c-3.55,5.61-11,8.12-17.14,9.45-13.7,2.93-30.74-.47-34.75-15.63-3.94-14.88,8.44-26.15,21.53-30.63,6.18-2.12,14.21-3.84,20.31-.65,7.44,3.88,6.73,13.83-.54,16.74a6.63,6.63,0,0,1-.89,0,7.5,7.5,0,0,1-4.52-2.06A6.74,6.74,0,0,1,265,681q-.15-.26-.27-.51c2.83,1.12,6.63-1.4,6-4.94a2,2,0,0,0-.19-1c-3.11-6.66-12.23-3.67-13.08,2.87s4.66,10.22,10.35,11.61c-4.2,4-7.18,9.75-3.25,15.11s13.39,3.45,12.86-3.93a1.93,1.93,0,0,0-.63-1.32c-1.09-2.25-3.77-3.71-6.38-1.7a5.46,5.46,0,0,0-.88.84,6.65,6.65,0,0,1,.95-4.25,7.06,7.06,0,0,1,2.92-2.75C281.16,689.92,286.66,698.16,282.19,705.23Z"/><path class="cls-1" d="M272.14,532.23c-6.1,3.19-14.12,1.48-20.31-.65-13.09-4.5-25.48-15.73-21.53-30.63,4-15.15,21-18.58,34.75-15.63,6.15,1.33,13.59,3.84,17.14,9.45,4.47,7.08-1.06,15.36-8.9,14.21a7,7,0,0,1-1.65-1.22,7.33,7.33,0,0,1-2.15-4.44,7.47,7.47,0,0,1,0-1.34c1.86,2.61,6.35,2,7.56-1.16a2,2,0,0,0,.36-1c.53-7.38-8.86-9.36-12.86-3.93s-.95,11.1,3.25,15.11c-5.69,1.39-11.22,4.94-10.35,11.61s10,9.54,13.08,2.87a2,2,0,0,0,.12-1.4c.16-2.77-1.95-5.72-5.55-4.56l-.34.13a7.64,7.64,0,0,1,.69-1.17,7.22,7.22,0,0,1,3.63-2.65,6.9,6.9,0,0,1,2.51-.35C278.87,518.37,279.62,528.32,272.14,532.23Z"/><path class="cls-1" d="M362.61,357.84a5.85,5.85,0,0,1-.44-.78,7.5,7.5,0,0,1-.47-4.92,6.45,6.45,0,0,1,.69-1.75,3.87,3.87,0,0,1,.36-.59,4.44,4.44,0,0,0,7.16,2.82,2,2,0,0,0,.79-.69c4.17-6.15-3.08-12.65-9.27-9.8-6,2.75-6.25,9.13-4.63,14.67-5.54-1.62-11.92-1.34-14.67,4.63-2.85,6.19,3.65,13.44,9.8,9.27a1.88,1.88,0,0,0,.84-1.25c1.42-2.19,1.21-5.43-2.13-6.47a5.51,5.51,0,0,0-.84-.18,7.93,7.93,0,0,1,1.23-.7,7.24,7.24,0,0,1,4.43-.48,7,7,0,0,1,2.36.95,9.05,9.05,0,0,1-6.67,14.81C344,377.79,337.44,372,333,367c-9.27-10.43-14.66-26.68-3.66-37.68S356.63,323.73,367,333c5,4.42,10.75,11,10.34,18.13A9.05,9.05,0,0,1,362.61,357.84Z"/><path class="cls-1" d="M507.46,260a1.8,1.8,0,0,0,1.39.25,1.71,1.71,0,0,0,1.27-1c1.57-3,5.22-8.65.95-11.18a3.31,3.31,0,0,0-4.55,1.15,5.86,5.86,0,0,0-.32.67,4.18,4.18,0,0,0-.65-.45,3.33,3.33,0,0,0-4.69,1.75C499.19,255.52,504.61,258.19,507.46,260Z"/><path class="cls-1" d="M691.15,260.22a1.76,1.76,0,0,0,1.39-.24c2.85-1.79,8.27-4.46,6.6-8.76a3.29,3.29,0,0,0-4.45-1.84,4.28,4.28,0,0,0-.88.57,4.09,4.09,0,0,0-.23-.52,3.31,3.31,0,0,0-4.65-1.33c-4.27,2.53-.62,8.22,1,11.18A1.68,1.68,0,0,0,691.15,260.22Z"/><path class="cls-1" d="M848.75,351.26h0a1.75,1.75,0,0,0,1.38.53c3.35-.12,9.76.25,10.14-4.52a3.28,3.28,0,0,0-2.69-3.55,4.37,4.37,0,0,0-1.35,0,4.25,4.25,0,0,0,.06-1.07,3.28,3.28,0,0,0-3.58-2.95c-4.77.36-4.4,6.81-4.52,10.14a1.74,1.74,0,0,0,.52,1.37Z"/><path class="cls-1" d="M940,507.46a1.8,1.8,0,0,0-.25,1.39,1.69,1.69,0,0,0,1,1.27c3,1.57,8.65,5.22,11.18.95a3.31,3.31,0,0,0-1.15-4.55,5.86,5.86,0,0,0-.67-.32,4.18,4.18,0,0,0,.45-.65,3.33,3.33,0,0,0-1.75-4.69C944.48,499.19,941.81,504.61,940,507.46Z"/><path class="cls-1" d="M940.72,689.88a1.68,1.68,0,0,0-.94,1.27,1.76,1.76,0,0,0,.24,1.39c1.79,2.85,4.46,8.27,8.76,6.6a3.29,3.29,0,0,0,1.84-4.45,4.28,4.28,0,0,0-.57-.88,5,5,0,0,0,.53-.23,3.32,3.32,0,0,0,1.32-4.65C949.37,684.66,943.68,688.31,940.72,689.88Z"/><path class="cls-1" d="M850.14,848.2a1.74,1.74,0,0,0-1.37.52l0,0h0a1.72,1.72,0,0,0-.53,1.38c.12,3.35-.25,9.76,4.52,10.14a3.28,3.28,0,0,0,3.55-2.69,4.37,4.37,0,0,0,0-1.35,4.25,4.25,0,0,0,1.07.06,3.28,3.28,0,0,0,2.95-3.58C859.92,848,853.47,848.32,850.14,848.2Z"/><path class="cls-1" d="M692.54,940a1.8,1.8,0,0,0-1.39-.25,1.71,1.71,0,0,0-1.27,1c-1.57,3-5.22,8.65-1,11.18a3.31,3.31,0,0,0,4.55-1.15,5.86,5.86,0,0,0,.32-.67,4.18,4.18,0,0,0,.65.45,3.33,3.33,0,0,0,4.69-1.75C700.81,944.48,695.39,941.81,692.54,940Z"/><path class="cls-1" d="M508.85,939.78a1.76,1.76,0,0,0-1.39.24c-2.85,1.79-8.27,4.46-6.6,8.76a3.29,3.29,0,0,0,4.45,1.84,4.28,4.28,0,0,0,.88-.57,4.09,4.09,0,0,0,.23.52,3.31,3.31,0,0,0,4.65,1.33c4.27-2.53.62-8.22-.95-11.18A1.68,1.68,0,0,0,508.85,939.78Z"/><path class="cls-1" d="M351.25,848.74h0a1.75,1.75,0,0,0-1.38-.53c-3.35.12-9.76-.25-10.14,4.52a3.28,3.28,0,0,0,2.69,3.55,4.37,4.37,0,0,0,1.35,0,4.25,4.25,0,0,0-.06,1.07,3.28,3.28,0,0,0,3.58,2.95c4.77-.36,4.4-6.81,4.52-10.14a1.74,1.74,0,0,0-.52-1.37Z"/><path class="cls-1" d="M260,692.54a1.8,1.8,0,0,0,.25-1.39,1.69,1.69,0,0,0-1-1.27c-3-1.57-8.65-5.22-11.18-1a3.31,3.31,0,0,0,1.16,4.55,5,5,0,0,0,.66.32,4.18,4.18,0,0,0-.45.65,3.33,3.33,0,0,0,1.75,4.69C255.52,700.81,258.19,695.39,260,692.54Z"/><path class="cls-1" d="M259.28,510.12a1.68,1.68,0,0,0,.94-1.27,1.76,1.76,0,0,0-.24-1.39c-1.79-2.85-4.46-8.27-8.76-6.6a3.29,3.29,0,0,0-1.84,4.45,4.28,4.28,0,0,0,.57.88,5,5,0,0,0-.53.23,3.32,3.32,0,0,0-1.32,4.65C250.63,515.34,256.32,511.69,259.28,510.12Z"/><path class="cls-1" d="M347.28,339.72a3.28,3.28,0,0,0-3.55,2.69,4.37,4.37,0,0,0,0,1.35,4.25,4.25,0,0,0-1.07-.06,3.28,3.28,0,0,0-2.95,3.58c.36,4.77,6.81,4.4,10.14,4.52a1.74,1.74,0,0,0,1.37-.52l0,0h0a1.72,1.72,0,0,0,.53-1.38C351.68,346.51,352.05,340.1,347.28,339.72Z"/><path class="cls-1" d="M522.46,253.06a2.69,2.69,0,0,0,.67-4.21,2.54,2.54,0,0,0-2.94-.41,2.48,2.48,0,0,0-.66.24,2.43,2.43,0,0,0-1.15,2.48A2.79,2.79,0,0,0,522.46,253.06Z"/><path class="cls-1" d="M358,334.37a2.55,2.55,0,0,0-2.45.56,2.44,2.44,0,0,0-.5.62,2.09,2.09,0,0,0-.2.22,2.38,2.38,0,0,0-.07,2.74,2.77,2.77,0,0,0,4.45.05,2.69,2.69,0,0,0,.51-2.34A2.65,2.65,0,0,0,358,334.37Z"/><path class="cls-1" d="M256.83,496.16a2.79,2.79,0,0,0,3.94-2.48,2.7,2.7,0,0,0-3.32-2.68,2.52,2.52,0,0,0-1.74,1.73,2.21,2.21,0,0,0-.1.76,1.27,1.27,0,0,0-.06.28A2.34,2.34,0,0,0,256.83,496.16Z"/><path class="cls-1" d="M248.68,680.47a2.43,2.43,0,0,0,2.48,1.15,2.79,2.79,0,0,0,1.9-4.08,2.69,2.69,0,0,0-4.21-.67,2.54,2.54,0,0,0-.41,2.94A2.48,2.48,0,0,0,248.68,680.47Z"/><path class="cls-1" d="M338.56,840.81a2.69,2.69,0,0,0-2.34-.51,2.65,2.65,0,0,0-1.85,1.74,2.55,2.55,0,0,0,.56,2.45,2.44,2.44,0,0,0,.62.5,2.09,2.09,0,0,0,.22.2,2.38,2.38,0,0,0,2.74.07A2.77,2.77,0,0,0,338.56,840.81Z"/><path class="cls-1" d="M493.68,939.23a2.7,2.7,0,0,0-2.68,3.32,2.52,2.52,0,0,0,1.73,1.74,2.21,2.21,0,0,0,.76.1,1.27,1.27,0,0,0,.28.06,2.34,2.34,0,0,0,2.39-1.28A2.79,2.79,0,0,0,493.68,939.23Z"/><path class="cls-1" d="M677.54,946.94a2.69,2.69,0,0,0-.67,4.21,2.54,2.54,0,0,0,2.94.41,2.48,2.48,0,0,0,.66-.24,2.43,2.43,0,0,0,1.15-2.48A2.79,2.79,0,0,0,677.54,946.94Z"/><path class="cls-1" d="M840.81,861.44a2.69,2.69,0,0,0-.51,2.34,2.65,2.65,0,0,0,1.74,1.85,2.55,2.55,0,0,0,2.45-.56,2.44,2.44,0,0,0,.5-.62,2.09,2.09,0,0,0,.2-.22,2.38,2.38,0,0,0,.07-2.74A2.77,2.77,0,0,0,840.81,861.44Z"/><path class="cls-1" d="M943.17,703.84a2.79,2.79,0,0,0-3.94,2.48,2.7,2.7,0,0,0,3.32,2.68,2.52,2.52,0,0,0,1.74-1.73,2.21,2.21,0,0,0,.1-.76,1.27,1.27,0,0,0,.06-.28A2.34,2.34,0,0,0,943.17,703.84Z"/><path class="cls-1" d="M951.32,519.53a2.43,2.43,0,0,0-2.48-1.15,2.79,2.79,0,0,0-1.9,4.08,2.69,2.69,0,0,0,4.21.67,2.54,2.54,0,0,0,.41-2.94A2.48,2.48,0,0,0,951.32,519.53Z"/><path class="cls-1" d="M861.44,359.19a2.69,2.69,0,0,0,2.34.51,2.65,2.65,0,0,0,1.85-1.74,2.55,2.55,0,0,0-.56-2.45,2.44,2.44,0,0,0-.62-.5,2.09,2.09,0,0,0-.22-.2,2.38,2.38,0,0,0-2.74-.07A2.77,2.77,0,0,0,861.44,359.19Z"/><path class="cls-1" d="M706.32,260.77a2.7,2.7,0,0,0,2.68-3.32,2.52,2.52,0,0,0-1.73-1.74,2.21,2.21,0,0,0-.76-.1,1.27,1.27,0,0,0-.28-.06,2.34,2.34,0,0,0-2.39,1.28A2.79,2.79,0,0,0,706.32,260.77Z"/><path class="cls-1" d="M677.54,253.06a2.84,2.84,0,0,0,4.05-1.65,2.46,2.46,0,0,0-1.12-2.73,2.62,2.62,0,0,0-.68-.24,2.41,2.41,0,0,0-2.88.38A2.69,2.69,0,0,0,677.54,253.06Z"/><path class="cls-1" d="M496.16,256.83a2.41,2.41,0,0,0-2.14-1.31,27.16,27.16,0,0,1-1.24.18,2.53,2.53,0,0,0-1.78,1.75,2.69,2.69,0,0,0,2.68,3.32A2.79,2.79,0,0,0,496.16,256.83Z"/><path class="cls-1" d="M338.51,354.74a2.44,2.44,0,0,0-2.54-.08,2.16,2.16,0,0,0-.46.39,2.43,2.43,0,0,0-.55.42,2.51,2.51,0,0,0-.59,2.49,2.68,2.68,0,0,0,4.19,1.23A2.76,2.76,0,0,0,338.51,354.74Z"/><path class="cls-1" d="M251.42,518.41a2.47,2.47,0,0,0-2.74,1.12,2.62,2.62,0,0,0-.24.68,2.41,2.41,0,0,0,.38,2.88,2.69,2.69,0,0,0,4.24-.63A2.85,2.85,0,0,0,251.42,518.41Z"/><path class="cls-1" d="M256.83,703.84a2.41,2.41,0,0,0-1.31,2.14,2.33,2.33,0,0,0,.09.58,2.15,2.15,0,0,0,.09.66,2.53,2.53,0,0,0,1.75,1.78,2.69,2.69,0,0,0,3.32-2.68A2.79,2.79,0,0,0,256.83,703.84Z"/><path class="cls-1" d="M354.74,861.49a2.44,2.44,0,0,0-.08,2.54,2.5,2.5,0,0,0,.39.47,2.63,2.63,0,0,0,.42.54,2.51,2.51,0,0,0,2.49.59,2.68,2.68,0,0,0,1.23-4.19A2.76,2.76,0,0,0,354.74,861.49Z"/><path class="cls-1" d="M522.46,946.94a2.85,2.85,0,0,0-4.05,1.64,2.47,2.47,0,0,0,1.12,2.74,2.62,2.62,0,0,0,.68.24,2.41,2.41,0,0,0,2.88-.38A2.69,2.69,0,0,0,522.46,946.94Z"/><path class="cls-1" d="M703.84,943.17a2.41,2.41,0,0,0,2.14,1.31,27.16,27.16,0,0,1,1.24-.18,2.53,2.53,0,0,0,1.78-1.75,2.69,2.69,0,0,0-2.68-3.32A2.79,2.79,0,0,0,703.84,943.17Z"/><path class="cls-1" d="M861.44,840.81a2.76,2.76,0,0,0,0,4.45,2.44,2.44,0,0,0,2.54.08,2.5,2.5,0,0,0,.47-.39,2.63,2.63,0,0,0,.54-.42,2.51,2.51,0,0,0,.59-2.49A2.68,2.68,0,0,0,861.44,840.81Z"/><path class="cls-1" d="M948.58,681.59a2.47,2.47,0,0,0,2.74-1.12,2.62,2.62,0,0,0,.24-.68,2.41,2.41,0,0,0-.38-2.88,2.69,2.69,0,0,0-4.24.63A2.85,2.85,0,0,0,948.58,681.59Z"/><path class="cls-1" d="M943.17,496.16a2.41,2.41,0,0,0,1.31-2.14,2.33,2.33,0,0,0-.09-.58,2.15,2.15,0,0,0-.09-.66,2.53,2.53,0,0,0-1.75-1.78,2.69,2.69,0,0,0-3.32,2.68A2.79,2.79,0,0,0,943.17,496.16Z"/><path class="cls-1" d="M845.26,338.51a2.44,2.44,0,0,0,.08-2.54,2.5,2.5,0,0,0-.39-.47,2.63,2.63,0,0,0-.42-.54,2.51,2.51,0,0,0-2.49-.59,2.68,2.68,0,0,0-1.23,4.19A2.76,2.76,0,0,0,845.26,338.51Z"/></svg>