<svg id="Layer_1" data-name="Layer 1" xmlns="http://www.w3.org/2000/svg" viewBox="0 0 1200 1200"><path d="M876.5,430.08c3.43,1.76,7.93,2.66,9.51,5.3s-.09,6.82-.34,10.59c5.46,1.68,10.08,4.68,11.83,10.6,1.62,5.47,1.5,10.86-1.87,16.21A16.81,16.81,0,0,1,901,487.19c-.07.6.84,1.49,1.5,2,6.73,4.74,9.21,11.08,7.07,19.08-.54,2,.22,2.86,1.59,3.93,4.43,3.46,4.49,3.54,2.29,8.73-.79,1.86-.61,2.94.87,4.41,5.69,5.63,6.71,12.86,3.24,19.82a3.73,3.73,0,0,0-.06,3c3.2,6,3.47,7.26,2.41,14.42,9.71,6,14.05,18.72,4.54,28.44,1.72,2.45,3.63,4.85,5.15,7.48a4.17,4.17,0,0,1,0,3.52c-1.48,2.55-3.35,4.88-5.05,7.27,8.18,11.25,6.63,20.89-4.75,28.49,1.25,5.19.9,10.27-2.5,14.87-.4.54-.12,1.91.27,2.68,3.42,6.67,2.43,14.3-3,19.55-1.71,1.66-1.89,2.9-1,5,2.11,4.84,2.07,5-2.17,8.17-1.83,1.38-2.25,2.5-1.63,4.81,2,7.31-.91,14.07-7.27,18.44a3.32,3.32,0,0,0-1.48,2.29,16.27,16.27,0,0,1-5.24,13.81c5.67,13.29,2.16,22.59-10.22,27.1.26,2.75.4,5.59.85,8.38a3.15,3.15,0,0,1-2.24,4c-2.53,1-5,2.25-7.65,3.47a6.35,6.35,0,0,0,0,1.23c2.06,10.51-4.77,19.93-15.46,20.86-2.39.21-3.32,1-4,3.11-1.25,3.76-4,6.27-7.38,8.25a4.83,4.83,0,0,0-2.16,3.16c-.56,7.23-5.26,13.49-12.33,15.16-2.62.62-3.42,1.86-3.4,4.13,0,4-2,5.81-5.85,5.7-2.51-.07-3.41,1.13-4,3.53a16.55,16.55,0,0,1-15.23,12.24,4.29,4.29,0,0,0-3,1.88,17.05,17.05,0,0,1-9.33,8.19,3.43,3.43,0,0,0-2,2.16c-2.12,13.1-8.79,18.24-22.25,16.82-1.17,2.52-2.47,5.06-3.52,7.69-.78,2-2,2.46-4,2.14-2.7-.42-5.43-.58-8.11-.85-5.66,12.68-15.59,16.44-27,10.06a16.87,16.87,0,0,1-14.38,5.45c-.61-.06-1.5.8-2,1.45-4.52,6.55-11.22,9.27-18.77,7.17-2.06-.57-3-.13-4.25,1.46-3.39,4.48-3.48,4.47-8.73,2.35-1.59-.64-2.77-1.07-4.15.59-4.37,5.26-14.2,7.51-20.36,3.29a3,3,0,0,0-2.69.1c-4.44,3.18-9.29,3.55-14.35,2.35-9.23,11.67-17.38,13-28.71,4.7-2.39,1.71-4.71,3.6-7.26,5.08a4.16,4.16,0,0,1-3.55,0c-2.55-1.48-4.86-3.37-7.25-5.08-11.34,8.13-21,6.59-28.5-4.75-5.31,1.32-10.49.84-15.13-2.68a2.35,2.35,0,0,0-2.13.23c-5.88,4.23-15.79,2.14-20.36-3.23-1.38-1.62-2.53-1.29-4.15-.62-5.23,2.15-5.33,2.15-8.73-2.32-1.21-1.58-2.18-2-4.25-1.48-7.55,2.1-14.23-.62-18.78-7.16a3.61,3.61,0,0,0-2.3-1.46c-7.91-.56-7.91-.52-14-5.21-13,5.62-22.47,2.09-26.83-10.3a86.23,86.23,0,0,1-8.7.76,4.54,4.54,0,0,1-3.35-1.81,79.82,79.82,0,0,1-3.79-7.93c-12.19,1.27-20.13-3.73-21.78-14.12-.5-3.18-1.61-4.58-4.49-6s-4.76-4.65-7.18-7c-.85-.82-2-1.82-3-1.9-7.46-.5-13.63-5.24-15.36-12.5-.57-2.38-1.62-3.08-3.87-3.3-5.16-.5-5.24-.61-5.92-5.94-.28-2.18-.95-3.27-3.34-3.84a16.41,16.41,0,0,1-12.4-15.09,4.3,4.3,0,0,0-1.79-3.06,16.84,16.84,0,0,1-8.22-9.28,3.68,3.68,0,0,0-2.46-2.05c-12.23-1.45-18.45-9.68-16.46-22.23-2.61-1.22-5.24-2.57-8-3.67-1.83-.75-2.3-1.87-2-3.73.42-2.71.6-5.46.9-8.43-5.48-1.76-10.16-4.68-11.94-10.61-1.67-5.58-1.53-11.07,1.88-16.35a16.32,16.32,0,0,1-5.43-13.9,3.33,3.33,0,0,0-1.41-2.34c-6.59-4.68-9.35-11.26-7.28-18.74.62-2.24,0-3.25-1.64-4.5-4.3-3.25-4.37-3.38-2.14-8.47.91-2.06.47-3.18-1-4.67a16.36,16.36,0,0,1-3.08-19.57,3.51,3.51,0,0,0,.13-3c-3.11-4.48-3.58-9.3-2.35-14.39-11.78-9.89-13.09-17.84-4.66-28.72a66,66,0,0,0-4-5.46c-2.15-2.42-2.42-4.58-.1-7.08a57.29,57.29,0,0,0,4-5.48c-8-12-6.53-20.9,4.89-28.7a16.31,16.31,0,0,1,2.25-14.6,3.16,3.16,0,0,0-.05-2.67c-3.49-7.14-2.54-14.37,3-19.84,1.55-1.53,1.81-2.7.94-4.69-2.19-5-2.14-5.17,2.22-8.46,1.68-1.28,2.18-2.32,1.57-4.53-2-7.33.82-14.29,7.08-18.49.74-.49,1.7-1.53,1.63-2.23a16.36,16.36,0,0,1,5.33-14.09c-6.1-12.19-2.45-21.82,10.13-27.13a75.29,75.29,0,0,0-.83-7.74c-.51-2.53.43-3.81,2.67-4.7,2.43-1,4.77-2.13,7.35-3.3-2.22-8.87.74-15.57,8.7-19.86a18.09,18.09,0,0,1,6.8-2.11c2.05-.18,3-.75,3.63-2.68a13.49,13.49,0,0,1,7.5-8.5,3.44,3.44,0,0,0,2.37-3.56,16,16,0,0,1,12-15c2.4-.6,3.38-1.54,3.64-4,.57-5.12.69-5.16,6-5.89,2-.27,3.16-.78,3.72-3.08,1.87-7.56,7.75-12.07,15.59-12.66A3.86,3.86,0,0,0,396.5,351a17,17,0,0,1,9.23-8.28,3.77,3.77,0,0,0,2.09-2.41c1.57-12.3,9.51-18.33,22.23-16.51,1.1-2.4,2.35-4.82,3.34-7.35.83-2.16,2-3,4.42-2.54,2.56.5,5.21.58,8.05.87,1.71-5.57,4.71-10.17,10.63-11.95,5.57-1.68,11.07-1.56,16.2,1.88,4-3.92,8.49-6,14-5.44a3.22,3.22,0,0,0,2.29-1.42c4.62-6.68,11.2-9.31,19.08-7.15,2,.54,2.84-.07,3.94-1.49,3.46-4.51,3.57-4.59,8.7-2.39,2,.88,3.16.47,4.67-1A16.38,16.38,0,0,1,545,282.7a3.56,3.56,0,0,0,3,.11c4.47-3.1,9.3-3.57,14.38-2.34,9.62-11.74,17.71-13.06,28.72-4.67,2.19-1.58,4.46-3.1,6.6-4.81,1.67-1.34,3.08-1.5,4.83-.07,2.11,1.73,4.41,3.24,6.61,4.83,11.77-8.15,20.35-6.75,28.68,4.73,5.17-1.23,10.13-.82,14.66,2.44a3.28,3.28,0,0,0,2.69-.14c7-3.41,14.1-2.53,19.58,2.91,1.64,1.62,2.83,2,5,1.05,5-2.15,5.1-2.08,8.39,2.32,1.31,1.74,2.42,2.05,4.55,1.47,7.35-2,14.21.85,18.5,7.16a3.62,3.62,0,0,0,2.55,1.56,16.66,16.66,0,0,1,13.77,5.42c5.08-3.23,10.55-3.58,16.12-1.92,5.92,1.77,9.12,6.19,10.71,12,2.89-.29,5.63-.42,8.31-.89,2.22-.39,3.39.38,4.2,2.39,1,2.53,2.23,5,3.34,7.41,11.43-.93,17.71,1.66,20.56,10.55,1.72,5.38,3.85,9.06,8.9,11.68,2.23,1.16,2.93,5.11,5.14,6.53s5.63.82,8.17,1.9A15.22,15.22,0,0,1,822,365.26c.51,2.16,1.45,3,3.58,3.24,5.46.72,5.57.81,6.19,6.07.26,2.32,1.17,3.2,3.45,3.77,7,1.72,11.81,8.1,12.31,15.2a4.69,4.69,0,0,0,2.1,3.19,16.3,16.3,0,0,1,7.75,8.81c.35.95,1.39,2.2,2.27,2.34C873,410.08,878.35,417.05,876.5,430.08ZM628.86,906.21a17.07,17.07,0,0,0,12.8-5.9c2.32-2.68,4.48-5.5,6.84-8.14a12.21,12.21,0,0,1,11.38-4.26c1.82.25,3.66.29,5.47.54,8,1.11,15.62-.31,21.56-5.57,7.77-6.89,15.35-7.44,24.53-3.12,8.75,4.12,15.54,2.33,21.91-4.83a22.48,22.48,0,0,1,18.25-7.86,3.83,3.83,0,0,0,4-2.37c3.11-5.62,7.52-9.67,14-11.27,12.46-3.07,16.1-7.08,17.51-19.9.84-7.73,4.11-13.19,11.8-15.53a23.5,23.5,0,0,0,3.47-1.48,29.89,29.89,0,0,0,14.18-14.28c.94-2,1.86-3.94,2.62-6,1.89-5,5.72-7.54,10.78-8.47,2.47-.45,5-.82,7.46-1.17,8.74-1.22,13.76-6.61,15.45-14.84a22.46,22.46,0,0,1,11.95-16.24c1.89-1,2.18-2.18,2.18-4.06,0-6.53,1.78-12.35,6.8-17,8.64-8,10.16-13.77,5.38-24.47-3.63-8.13-3.53-15.19,2.86-21.73a7.49,7.49,0,0,0,.82-1.1c4.81-6.7,7-14.15,5.44-22.3-1.63-8.44.31-15.16,7.91-19.77a14.13,14.13,0,0,0,1.61-1.28c7.89-6.39,9.89-12.5,6.77-22.12a21.73,21.73,0,0,1,2.33-19.07,4,4,0,0,0,0-4.91c-3.38-5.49-4.64-11.35-2.75-17.74,3.56-12,2.16-17.28-8-24.64-7.16-5.18-9.55-11.39-7.9-19.85a26,26,0,0,0-5.89-22.78c-6.36-7.27-7.48-14.59-2.88-22.94a7.93,7.93,0,0,0,.37-1c3.45-9,2.18-15.42-5.07-22-5.54-5-7.77-11.07-7.95-18.29a5.09,5.09,0,0,0-2.08-3.61c-6-3.6-10.18-8.31-11.68-15.34-2.21-10.34-7.14-15.32-17.67-16.11-9.32-.7-15.11-4.92-18.08-13.52-.23-.65-.53-1.27-.82-1.89A29.37,29.37,0,0,0,802,383.72c-2.28-1.08-4.6-2-6.9-3.08a11.4,11.4,0,0,1-6.8-8.1c-.72-3.12-1.26-6.28-1.71-9.45-1.25-8.87-6.65-14-15.05-15.67a22.37,22.37,0,0,1-16-11.75,3.81,3.81,0,0,0-4-2.37,22.39,22.39,0,0,1-18.24-7.87c-6.31-7.09-13.05-8.92-21.59-4.93-9.38,4.37-17.15,3.93-25.14-3.19-5.81-5.17-13.42-6.52-21.26-5.4-1.93.28-3.88.35-5.82.56A11.9,11.9,0,0,1,649,308.66c-2.18-2.34-4.17-4.86-6.18-7.36-5.09-6.35-11.79-8.55-19.31-6a24.86,24.86,0,0,1-21.69-2.19,3.83,3.83,0,0,0-3.36-.11c-6.73,4.44-13.65,4.87-21.28,2.37-7.82-2.55-14.69-.46-19.9,6.19-1.34,1.71-2.69,3.42-4.06,5.1-3.58,4.38-8,6.78-13.83,5.75-1.68-.3-3.41-.35-5.12-.56a29.26,29.26,0,0,0-20.15,4.95c-2.29,1.51-4.43,3.26-6.68,4.83a11.21,11.21,0,0,1-10.1,1.84c-3.05-.95-6.09-2-9-3.22-8.26-3.41-15.39-1.54-21.12,5-5.09,5.78-11.29,8.25-18.81,8.28a4.66,4.66,0,0,0-3.37,2,23.72,23.72,0,0,1-16.6,12.09c-8.25,1.7-13.54,6.84-14.73,15.55-.3,2.16-.69,4.3-1,6.45-.76,5.69-3.53,9.81-9.07,11.85-1.5.56-2.94,1.27-4.41,1.92a29.91,29.91,0,0,0-16,16.06c-.81,1.89-1.64,3.77-2.46,5.66a11.65,11.65,0,0,1-8.35,7c-3.11.73-6.27,1.26-9.44,1.71-8.56,1.21-13.72,6.37-15.39,14.48a23.86,23.86,0,0,1-12.56,17,3.47,3.47,0,0,0-1.61,2.56c.24,8.23-2.82,14.7-9,20.24-5.78,5.18-7.41,11.92-4.52,19.41.87,2.25,1.75,4.48,2.65,6.71,2.15,5.32,1.73,10.26-2,14.83a64.4,64.4,0,0,0-4,5.55,29.64,29.64,0,0,0-4.82,19.53c.26,2.5.35,5,.7,7.51a10.48,10.48,0,0,1-3.18,9,39.12,39.12,0,0,1-5.41,4.71c-9,6.57-11.39,13.19-8,23.85a21.21,21.21,0,0,1-2.38,18.4,4.28,4.28,0,0,0,0,5.23c3.37,5.49,4.53,11.36,2.59,17.74-3.53,11.63-2.05,17.13,8,24.37,7.26,5.25,9.71,11.51,8,20.13-1.57,7.88,0,15.65,5.26,21.61,7,8,7.71,15.7,3.24,25.13-4,8.55-2.21,15.3,4.87,21.61,5.67,5.06,8,11.2,8.05,18.57a4.67,4.67,0,0,0,1.94,3.37,23.65,23.65,0,0,1,12.12,16.57c1.7,8.25,6.8,13.57,15.53,14.76,2.38.32,4.75.71,7.12,1.11,5.21.9,9.13,3.44,11,8.62.68,1.82,1.55,3.56,2.35,5.33a29.28,29.28,0,0,0,15.14,15.13c1.88.84,3.75,1.72,5.66,2.48,4.7,1.87,7.23,5.43,8.14,10.26.49,2.59.87,5.2,1.24,7.8,1.26,8.87,6.72,13.89,15.12,15.59a22,22,0,0,1,15.76,11.53c1.11,2,2.32,2.59,4.56,2.57a21.86,21.86,0,0,1,17.38,7.45c6.9,7.66,13.42,9.45,22.74,5.09,9-4.2,16.39-3.57,23.89,3.13a23.82,23.82,0,0,0,20.81,5.7c10-2,17.3.64,22.47,9.35a4.16,4.16,0,0,0,.43.53c6.06,7.34,12.33,9.43,21.32,6.43a22,22,0,0,1,19.7,2.32,3.74,3.74,0,0,0,4.63-.05c6.18-3.84,12.72-4.77,19.71-2.23A47.73,47.73,0,0,0,628.86,906.21Zm196.31-500c9.31,4.52,21.22,1.65,27.48,11.85,4.22-6.91.16-16.39-7.51-18.4S831.2,400.69,825.17,406.18ZM308.62,544.77c-8.16-1.59-15-1.41-20.72,4.06-5.9,5.64-4.79,16.1,2.37,19.81.77-8.55,6.71-13.36,12.75-18.16A66.77,66.77,0,0,0,308.62,544.77Zm236.28,347c-2.76,11.6,1,21,8.7,23.86,5.22,1.94,12.48-.64,14.78-5.25C558.47,907,558,906.62,551,898,549.33,895.94,547.29,894.18,544.9,891.76Zm-.22-583.34c8.41-6.25,12.2-17.56,24-18.1a12.66,12.66,0,0,0-20.07-2.23C543.37,293.74,543.1,300.45,544.68,308.42Zm347.09,347c11.46,2.81,20.78-.87,23.77-8.69,2-5.12-.63-12.49-5.5-14.93-.89,8.2-6.31,13.15-12.35,17.74C895.67,651.06,894.05,653.11,891.77,655.41ZM631.85,290c9,3.07,10.37,3.92,14.58,8.9,1.77,2.09,3.4,4.31,5.27,6.32a28.42,28.42,0,0,0,3.76,2.87c2.69-10.93-1-20.43-8.8-23.33C641.44,282.81,634.24,285.35,631.85,290Zm23.74,602c-8.51,6.11-12.22,17.51-24.08,18a12.69,12.69,0,0,0,19.88,2.43C656.79,906.92,657.16,900.15,655.59,892Zm-238-39.15c-6.66-7.32-7-8.15-8.68-18.34-.5-3-1.47-6-2.22-8.95l-1.34-.09a102.53,102.53,0,0,0-5.18,9.47,14.34,14.34,0,0,0,1.42,14.34C405,854.3,413.06,856.06,417.54,852.89ZM909.87,569c7.26-4.84,8.22-14.27,2.76-19.88-4.8-4.92-13.25-6.67-20.31-3.93C898,553.26,909.57,556.8,909.87,569Zm-601.6,86.73c-6.09-8.56-17.55-12.22-18-24.13a12.74,12.74,0,0,0-2.18,20.16C293.66,656.92,300.33,657.14,308.27,655.69ZM502.22,320c-3.9-11.94-12.07-18-20.27-16.05-5.34,1.3-10,7.25-9.35,11.25,3.78-.22,7.56-1,11.18-.5s7.14,2.25,10.73,3.34C496.81,318.72,499.18,319.22,502.22,320ZM698.07,880.36c3.53,11.6,11.74,17.91,19.85,16.16,5.52-1.19,10.36-7.11,9.73-11.34-3.76.23-7.53,1-11.15.52s-6.93-2.16-10.41-3.22C703.67,881.74,701.2,881.18,698.07,880.36Zm-280-532.76a12.79,12.79,0,0,0-18.6,8.13c-1.77,7.61,1.68,13.46,6.69,19.42C410.59,365.87,407.76,354,418.06,347.6ZM374.48,794.8l.1-1.43c-4.86-1-9.74-1.91-14.6-2.93a21.18,21.18,0,0,1-12.48-7.89c-3.83,5.88-.64,15,6,17.58C361.79,803.35,368.32,799.7,374.48,794.8Zm450.32-1c9.83,8.62,19.88,9.8,25.91,3.81,4-3.94,4.95-11.35,2-14.73-6.33,6.14-8.53,7.12-17.67,8.53C831.81,791.86,828.7,792.83,824.8,793.76Zm-31.17-419,1.28.13c1.75-3.14,3.83-6.14,5.19-9.43a14.6,14.6,0,0,0-1.59-14.65c-3.35-4.77-11.33-6.43-16-3.21,6.44,4.66,8.08,11.54,9.06,18.82A72.74,72.74,0,0,0,793.63,374.77Zm-477.5,97.87c-6.87-.38-13.21,6.58-12.63,13.06.69,7.64,7.81,15,16.13,16.06C318.65,492,310.59,483.21,316.13,472.64Zm466,380.07a12.72,12.72,0,0,0,18.6-8c1.8-7.6-1.61-13.48-6.65-19.47C789.58,834.45,792.53,846.35,782.17,852.71ZM375.3,406.65c-8.89-8.43-19.26-9.87-25.42-4.19-4.15,3.82-5.34,11.27-2.26,15.3,4.52-6.13,11.07-8,18.18-8.85C368.77,408.54,371.67,407.53,375.3,406.65ZM880,698.27c1.85,5.5,4,10.09,4.85,14.91s.18,9.77.18,14.68c6.41,0,12.49-7,11.66-13.65C895.74,706.77,889.57,700.48,880,698.27ZM315.09,727.78c-.22-4-.94-7.74-.48-11.37s2.2-6.91,3.26-10.4c.72-2.38,1.24-4.83,1.94-7.63-9.1,2.09-15.19,8.24-16.21,15.68C302.67,720.84,309,728.16,315.09,727.78ZM884.58,472.62c2.06,8.39,1.88,11.3-1,18.64-.83,2.13-1.72,4.25-2.34,6.44a22.19,22.19,0,0,0-.36,4.3c9.26-2.68,15-8.65,15.76-16C897.38,479.27,891.16,472.22,884.58,472.62ZM501.78,881.08c-5.34-.66-9.58,2.5-14.24,3.9a23.13,23.13,0,0,1-15-.5c-.35,6.89,6.88,13.14,13.7,12.25C493.59,895.77,499.81,889.6,501.78,881.08ZM697.9,319.71c10.5-1,19.38-9.14,29.83-3.53.21-7.29-7-13.53-13.78-12.51C705.25,305,701.16,311.18,697.9,319.71ZM587.38,292l1.25.85c3-1.52,6.2-2.78,9-4.65,2-1.32,3.13-1.23,5.06,0,2.87,1.88,6.12,3.17,9.67,4.95.85-4.59.08-7.9-2.57-10.32-3.13-2.86-6.68-5.26-10-7.87C596,278.62,592,282,588.62,286,587.45,287.32,587.75,290,587.38,292Zm1.13,615.54c-.41.31-.82.62-1.24.92.47,2.15.28,4.83,1.52,6.32A113.62,113.62,0,0,0,599.17,925a2.2,2.2,0,0,0,2.09-.1c3.31-2.93,6.87-5.69,9.61-9.1,1.49-1.85,1.53-4.87,2.23-7.36l-1.25-.9c-2.83,1.34-5.89,2.35-8.41,4.12s-4.05,1.87-6.53.08S591.34,908.91,588.51,907.55ZM860.22,436.11c2.59,1.89,4.64,4.11,7.17,5.08,3.69,1.42,4.5,3.56,4.12,7.22-.28,2.69.48,5.49.79,8.41a12.09,12.09,0,0,0,2-.39c4.44-2,8.69-11,7.5-17.63-.7-3.89-5.34-3.42-8.23-4.85a10.71,10.71,0,0,0-3.3-.8C866.79,432.69,863.42,432.74,860.22,436.11ZM340.05,764.25c-2.68-1.92-4.85-4.16-7.49-5.21-3.45-1.37-4.12-3.36-3.83-6.75.25-2.82-.47-5.72-.79-8.82a14.28,14.28,0,0,0-2.39.62c-4.19,2.17-8.78,11.91-6.91,17.57.75,2.28,5.34,3.33,8.25,4.82a9.05,9.05,0,0,0,3,.73C333.36,767.67,336.76,767.67,340.05,764.25Zm567.3-152.47.85,1.08c1.92-.28,4-.2,5.74-.91,5.11-2.08,8.07-6.53,11-10.89a2.25,2.25,0,0,0-.23-2.09,99.72,99.72,0,0,0-8.47-9.3c-2.19-2-5.12-2.82-9-1.27,1.84,3.5,3.66,6.72,5.19,10.07a4.65,4.65,0,0,1,0,3.48C910.88,605.3,909.06,608.51,907.35,611.78ZM292.69,588.54l-.84-1.21c-2.14.46-4.83.25-6.32,1.5a113.55,113.55,0,0,0-10.17,10.4,2.16,2.16,0,0,0,.1,2.07c2.91,3.31,5.66,6.88,9.06,9.63,1.84,1.5,4.86,1.54,7.35,2.23l.85-1.21c-1.2-2.65-2-5.57-3.69-7.88-2-2.77-2.38-4.78-.08-7.67C290.71,594.19,291.48,591.19,292.69,588.54Zm47.18-152.2-.19-1.44c-2.28-.66-4.69-2.14-6.81-1.8-4.54.73-8.94,2.35-13.34,3.78a2.47,2.47,0,0,0-1.15,2.08,93.73,93.73,0,0,0,2.74,12.26,7.63,7.63,0,0,0,7,5.5c.23-3.44.75-6.69.56-9.9-.14-2.52.43-3.77,2.81-4.92C334.49,440.45,337.1,438.23,339.87,436.34ZM860,764.23a28.1,28.1,0,0,0,2.58,2c4,2.27,14.93,1.18,18.27-3.12,1.59-2,.34-6.59-.23-9.9a16.56,16.56,0,0,0-2.92-6.44c-1.06-1.49-2.94-2.39-4.45-3.55l-1.25.65c-.15,3.59-.45,7.18-.39,10.76a3.15,3.15,0,0,1-2,3.38C866.38,759.82,863.39,762,860,764.23Zm-95.81,96c-2,2.89-4.27,5.36-5.57,8.27-1.22,2.74-2.76,3.18-5.45,3.07-3.15-.13-6.34.44-9.83.73,1.35,5.09,4.69,6.77,8.29,8,10,3.43,12.94,1.84,15.29-8.45C767.77,867.94,768,864,764.15,860.24Zm-327.86.22-1.44.18c-.66,2.27-2.15,4.67-1.81,6.78.73,4.54,2.34,9,3.77,13.35a2.43,2.43,0,0,0,2.08,1.16,91.75,91.75,0,0,0,12.26-2.73,7.46,7.46,0,0,0,5.47-7,81.12,81.12,0,0,0-9.84-.57c-2.5.14-3.78-.36-4.93-2.78C440.42,865.83,438.18,863.23,436.29,860.46Zm20.13-532.13.66-1.53c-1.26-1.49-2.3-3.27-3.82-4.4-4.3-3.19-9.47-3.69-14.62-4a2.61,2.61,0,0,0-2,1.4A93.14,93.14,0,0,0,433,331.49c-.62,2.92,0,5.9,3.18,8.6a103.5,103.5,0,0,0,5.93-9.08c1-1.86,1.93-2.3,3.9-2.26C449.48,328.84,453,328.5,456.42,328.33Zm307.46,11.56,1.59-.23c.63-2.11,2.06-4.37,1.73-6.33a106,106,0,0,0-3.77-13.74,2.47,2.47,0,0,0-2.1-1.15,104.72,104.72,0,0,0-13.2,3.27,6.23,6.23,0,0,0-4.33,6.58c3.46.19,6.84.58,10.21.47,2.1-.06,3.16.37,4.18,2.38A90.87,90.87,0,0,0,763.88,339.89ZM896.7,528.94a13.53,13.53,0,0,0,13.16-10.59,2.84,2.84,0,0,0-.53-2.09c-4.16-5-12.26-6-17.41-2.28-1.4,1-2.23,2-1.41,4a25.27,25.27,0,0,1,2,7.23C892.76,528.38,894.39,529.23,896.7,528.94ZM528.89,304.16a13.59,13.59,0,0,0-10.49-13.69,2.87,2.87,0,0,0-2.12.44c-5,3.93-6.16,12.56-2.12,17.59a4.48,4.48,0,0,0,3.59,1.14c2.57-.38,5-1.6,7.61-1.84C528.26,307.53,529,306.08,528.89,304.16Zm142.46-.62c-.18,2.09.25,4,3.63,4.29a23.52,23.52,0,0,1,7.23,1.91c2.14.91,3.15.06,4.2-1.52a13.36,13.36,0,0,0-2.27-17.14,2.83,2.83,0,0,0-2-.67C676.33,291.32,671.57,297,671.35,303.54ZM303.92,528.94c2,.15,3.56-.55,3.81-3.49a24.38,24.38,0,0,1,1.91-7.24c.86-2.06.23-3.16-1.37-4.28-5.19-3.64-13.42-2.57-17.41,2.38a2.88,2.88,0,0,0-.46,2.11A13.49,13.49,0,0,0,303.92,528.94ZM897,671.44c-2.22-.21-4.16.17-4.42,3.59a24.61,24.61,0,0,1-2,7.22c-.78,1.88-.31,2.94,1.17,4,5.11,3.82,13.79,2.77,17.68-2.27a2.87,2.87,0,0,0,.39-2.13A13.47,13.47,0,0,0,897,671.44ZM528.9,896.18c.07-1.5-.27-3.36-3.53-3.61-2.56-.19-5-1.46-7.61-1.84a4.51,4.51,0,0,0-3.6,1.1c-4,5.06-2.95,13.61,2.1,17.62a2.85,2.85,0,0,0,2.11.45C524.42,908.57,528.78,903.24,528.9,896.18ZM303.39,671.44c-6.42.16-12,4.83-13,10.64a2.63,2.63,0,0,0,.35,1.85c3.64,5.1,13.08,6.31,17.88,2.14a4.72,4.72,0,0,0,1-3.68c-.37-2.46-1.58-4.81-1.79-7.27C307.48,671.84,305.72,671.18,303.39,671.44ZM822.05,828.56c1.8-.84,4.63-1.21,5.23-2.58,2.58-5.83-.83-13.52-6.57-16.2-1.6-.74-2.8-.91-4.14.72-1.87,2.27-4.26,4.11-6.17,6.36a4.19,4.19,0,0,0-.76,3.41C811.4,825.22,816.1,828.08,822.05,828.56Zm-.24-456.15c-5.67-.13-10.37,2.7-12.15,7.66a4.13,4.13,0,0,0,.72,3.41,55.42,55.42,0,0,0,6.51,6.49,4.11,4.11,0,0,0,3.42.66c4.76-1.71,7.62-6.37,7.62-11.86S827.33,372.53,821.81,372.41Zm-449.49,6.36c.06,5.61,2.83,10.13,7.63,11.87a4.12,4.12,0,0,0,3.42-.68,55.42,55.42,0,0,0,6.51-6.49,4.17,4.17,0,0,0,.7-3.42c-1.78-4.94-6.5-7.78-12.16-7.64S372.27,373.2,372.32,378.77ZM671.37,897c.21,6.4,4.83,11.91,10.68,12.92a2.85,2.85,0,0,0,2.05-.62A13.35,13.35,0,0,0,687,893.09c-1.2-2.2-2.44-3.69-5.35-2.28a18.68,18.68,0,0,1-6.55,1.79C671.77,892.84,671.1,894.62,671.37,897Zm-292.9-69c5.65.11,10.41-2.79,12.13-7.71a4.18,4.18,0,0,0-.77-3.4c-1.9-2.25-4.28-4.09-6.16-6.36-1.34-1.63-2.58-1.52-4.13-.71a12.52,12.52,0,0,0-7.22,11.86C372.32,827.2,372.93,827.86,378.47,828ZM876,738.65l9.4,11.23a10.3,10.3,0,0,0,7.83-6.86c1.5-4.15,1.86-8.41-.59-11.8-3.59.36-6.6.63-9.59,1a3.11,3.11,0,0,0-1.74.77C879.27,735,877.37,737.13,876,738.65Zm-551.69-277c-3.11-3.68-6.11-7.23-9.34-11a10.47,10.47,0,0,0-8.15,7.62c-1.12,4-1.45,8,1,11C314.89,468.6,321.41,467.75,324.26,461.65Zm568.08,7.5c5.12-6.4.88-17-7.11-18.36l-9.35,10.83c1.56,1.7,3.45,3.82,5.44,5.84a3,3,0,0,0,1.75.71C886.06,468.53,889.05,468.81,892.34,469.15ZM731.15,307.83c.36,3.4.65,6.28,1,9.15a3.3,3.3,0,0,0,.53,1.84c2.16,2.09,4.42,4.08,6,5.51l10.9-9.23C747.91,307,738.26,303.15,731.15,307.83ZM738.63,876c-1.49,1.39-3.61,3.27-5.62,5.27a3.67,3.67,0,0,0-.87,2c-.39,3-.68,6-1,9.17,6.88,5,17.41.66,18.38-7.2C745.7,882,742.24,879.07,738.63,876Zm-277,0-10.92,9.24c1.57,8.13,12.25,12.27,18.35,7.17-.33-3.36-.58-6.35-.93-9.34a3.08,3.08,0,0,0-.77-1.73C465.32,879.37,463.21,877.48,461.62,876Zm0-551.65c1.64-1.51,3.75-3.4,5.78-5.39a3.05,3.05,0,0,0,.71-1.76c.36-3,.64-6,1-9.26-6.42-5.05-17-.86-18.38,7.17ZM324.3,738.7c-1.48-1.61-3.44-3.81-5.48-5.94a2.5,2.5,0,0,0-1.49-.57c-3.08-.33-6.18-.61-9.53-.92-4.9,6.89-.55,17.4,7.25,18.28ZM859.68,412.62c-1.42,3.19-2.61,5.83-3.77,8.49a2.7,2.7,0,0,0-.37,1.55c.85,2.89,1.8,5.75,2.48,7.88L872,428C875.17,420.71,868.24,411.85,859.68,412.62ZM632.93,281.37c-3-6.71-15.72-9.72-20.07-2.09,1.16,2.1,2.55,4,3.27,6.11a42.12,42.12,0,0,1,1.22,6.88c2.94-.68,5.71-1.3,8.47-2a2.54,2.54,0,0,0,1.29-.9C629,286.86,630.8,284.31,632.93,281.37Zm136.79,60.94c2.13.67,4.92,1.58,7.72,2.4a2.4,2.4,0,0,0,1.55-.19c2.83-1.26,5.64-2.58,8.7-4,.73-8.47-8-15.26-15.36-12.2C771.42,333.21,770.59,337.68,769.72,342.31Zm2.63,529.79c7.65,2.71,16.12-4,15.27-12.65-6.11-2-12.12-5.79-17.89-1.26C770.58,862.72,771.41,867.1,772.35,872.1ZM430.49,858c-2.14-.67-4.84-1.52-7.56-2.32a2.51,2.51,0,0,0-1.56,0c-2.85,1.27-5.65,2.61-8.78,4.07-1.07,8.09,7.62,15,15.37,12.26ZM342.37,430.6c.4-3.89,4.18-8.24,0-12.88a4.1,4.1,0,0,1-.58-1.94c-.69-3.64-1.53-4.33-4.88-2.78a23.61,23.61,0,0,0-6.9,4.85A8.7,8.7,0,0,0,328.32,428Zm85.55-102.46A9.53,9.53,0,0,0,417.77,330c-3.38,2.87-5.73,6.4-5.43,10.51,3.32,1.5,6,2.77,8.81,4a3,3,0,0,0,1.85.17c2.72-.77,5.41-1.65,7.47-2.29C429.63,337.66,428.82,333.17,427.92,328.14ZM340.44,787.75c1.5-3.23,2.79-6,4-8.7a2.53,2.53,0,0,0,.17-1.55c-.82-2.8-1.71-5.58-2.36-7.65l-14.07,2.53C325.43,780,332,788.39,340.44,787.75Zm517.49-18c-.73,2.53-2.56,5.68-2.25,8.6.35,3.22,2.65,6.22,4.16,9.44,9,.06,15.41-8.61,12.15-15.41ZM281.28,567.34c-7.7,4.31-8.92,15.55-2.71,19.63l13.48-4.74c-.52-2.17-1.12-4.84-1.81-7.48a3.13,3.13,0,0,0-1-1.59C286.75,571.27,284.2,569.46,281.28,567.34Zm10.91,50.19a42.37,42.37,0,0,1-6.84-1.3,46.38,46.38,0,0,1-6.24-3.35c-6.79,5.48-5.27,16.34,2.35,20,2.75-2,5.3-3.78,7.78-5.66a3.09,3.09,0,0,0,1-1.59C290.92,623,291.52,620.34,292.19,617.53Zm626.67-50.11c-2.79,2-5.22,3.81-7.64,5.6-.43.32-1,.68-1.12,1.12-.73,2.93-1.35,5.89-2,8.69,2.45.45,4.77.57,6.85,1.33a46,46,0,0,1,6.2,3.36C927.83,581.83,926.54,572,918.86,567.42Zm-10.72,50.73c.44,1.62,1,3.71,1.56,5.79.29,1,.33,2.46,1,3,2.55,2.12,5.34,4,8.16,6,7.85-4.94,9-15.66,2.76-19.58ZM582.07,292.08l5-13.47c-5.67-6.2-16.67-4.46-19.59,3,2,2.74,3.75,5.2,5.57,7.6a3,3,0,0,0,1.49,1.1C577.27,291,580,291.6,582.07,292.08Zm50.75,626.78c-2.05-2.79-3.75-5.13-5.49-7.45-.38-.5-.85-1.13-1.39-1.27-2.83-.75-5.69-1.37-7.84-1.86-1.61,4.52-3.15,8.8-4.82,13.47C618.19,928,629,926.52,632.82,918.86Zm-45.89,3c-1.75-5-3.24-9.23-4.76-13.55-2.17.51-4.83,1.11-7.46,1.79a3,3,0,0,0-1.61,1c-1.88,2.48-3.67,5-5.66,7.78C571,926.42,581.89,928,586.93,921.83ZM823.07,402.4c5.94-5.33,12.36-7.9,19.68-7.57.9-6.55-4.42-12.53-10.8-12.32-1.23,6.63-5.77,10.51-11.74,13.14ZM673,910c-5.2-4.6-6.6-10.34-5.68-17l-7.11-.65c1.06,7.64.72,14.6-3.53,20.75C662.07,916.86,668.43,915.68,673,910ZM540.08,308.16c-1.07-7.7-.74-14.75,3.52-21-5.7-3.68-12.22-2.35-16.25,3.25,5.17,4.39,6.53,10.26,5.64,16.85Zm3.64,605c-4.59-6.31-4.57-13.45-3.69-20.93l-6.53.86c-.37,3.33-.23,6.51-1.18,9.31s-3.05,5.45-4.68,8.22C532.07,915.64,538,916.76,543.72,913.12ZM667.35,307.3c-1.13-6.88.67-12.5,5.52-17-4.34-5.71-11.5-7-16.16-2.8,4.38,6.1,4.4,13.12,3.49,20.59ZM892.92,533.09c-.21,2.37-.39,4.54-.61,7,7.67-1.09,14.62-.65,20.79,3.55,3.68-5.81,2.32-12.39-3.08-16.1C903.69,532.84,901.37,533.62,892.92,533.09Zm-72.75,271.7c6.3,2.5,10.59,6.74,11.92,13.33,7-1,11.34-6.06,10.72-12.43-7.55.61-13.77-2.82-19.8-7.46ZM307.25,667.26l.79-7c-7.62,1.11-14.68.7-20.92-3.53-3.65,5.9-2.21,12.61,3.17,16.09C296.32,667.6,298.74,666.79,307.25,667.26ZM893,667.4c7-1.09,12.62.75,17.05,5.65,5.64-4.94,6.73-11.5,2.74-16.33-6.11,4.44-13.16,4.46-20.67,3.52C892.48,662.87,892.74,665,893,667.4ZM308.1,540.13l-.8-6.57c-3.35-.37-6.53-.22-9.34-1.17s-5.45-3-8.24-4.68c-5.15,4.42-6.24,10.67-2.44,16C293.39,539.28,300.39,539.16,308.1,540.13Zm74.12,292c.78,7,6.57,11.89,12.54,10.55-.64-7.45,2.68-13.62,7.31-19.54l-6.63-2.88C393,826.58,388.87,830.65,382.22,832.08Zm423.53-474.6c-.73,8.38-.73,8.38-7.29,19.9l6.09,2.7c4.71-8.27,5.66-9.12,13.31-12A11.12,11.12,0,0,0,805.75,357.48Zm-.25,485.37a11.14,11.14,0,0,0,12.34-10.8c-6.59-1.33-10.67-5.66-13.11-11.89l-6.56,3C802.9,829.12,806.12,835.21,805.5,842.85ZM402.12,377.27c-4.84-6-8-12.25-7.45-19.66a11,11,0,0,0-12.31,10.46c7.81,3,8.48,3.61,13.35,12ZM904.61,508.18c3-6.14.61-13.14-5.39-15.39-3.06,6.92-9.15,10.46-16.1,13.41l4.3,5.75C892.72,507.62,898.4,506.29,904.61,508.18ZM301,492.7a11,11,0,0,0-5.28,15.5c6.31-2,12-.39,17.24,3.73l4.18-5.76C310.26,503.31,304.2,499.78,301,492.7ZM904.64,692.1c-6.55,2.21-12.18.27-17.4-3.61-1.45,2-2.67,3.76-4.08,5.77,7.12,2.8,13,6.63,16.22,13.46C905.43,704.62,907.48,698.44,904.64,692.1Zm-398.55,191c-2.87,7.21-6.65,13.17-13.52,16.36,3.3,6,9.58,8.08,15.55,5.23-1.93-6.28-.52-12,3.76-17.35Zm-126-487.58c-6.45-2.55-10.59-6.79-11.95-13.27-6.9.71-11.73,6.45-10.52,12.53,7.48-.75,13.59,2.71,19.57,7.33C378.24,399.83,379.1,397.86,380.11,395.57ZM368.24,818c1.23-6.69,5.82-10.65,11.86-13.29l-3-6.42c-6,4.73-12.19,8-19.63,7.39A11.18,11.18,0,0,0,368.24,818ZM492.72,301.1c7,3,10.5,9.21,13.42,16.07l5.73-4.19c-4.27-5.36-5.69-11.1-3.74-17.37C501.86,292.7,495.05,295.09,492.72,301.1ZM688.36,313l5.79,4.13c2.8-7,6.62-13,13.46-16.17-2.94-6.14-10-8.39-15.49-5.17C694.07,302,692.58,307.63,688.36,313Zm3.92,591.91c6.4,2.62,12.56.45,15.24-5.44-6.8-3.29-10.56-9.28-13.42-16.29l-5.58,4.18C693.12,894.51,693.5,896.34,692.28,904.91ZM295.58,692.2c-2.92,6.3-.58,13,5.35,15.37,3.21-6.84,9.23-10.56,16.18-13.36l-4.22-5.81C307.59,692.72,301.84,694.1,295.58,692.2Z"/></svg>