<svg id="Layer_1" data-name="Layer 1" xmlns="http://www.w3.org/2000/svg" viewBox="0 0 1200 1200"><defs><style>.cls-1{fill:none;stroke:#010101;stroke-miterlimit:10;}</style></defs><path class="cls-1" d="M755.81,599.61c1.62,1.62,9.37,9.89,10.48,11.16l1.88,2.14,2.19-1.88c1.33-1.15,9.14-9.25,10.78-10.87"/><path class="cls-1" d="M774.92,600l-3.19,3.14-3.18,3-3-3.13-3-3"/><path class="cls-1" d="M791.8,608.51l3.89-4.17,3.9-4.34"/><path class="cls-1" d="M762.55,635.08a3.15,3.15,0,0,0-2.58-3.73,3.22,3.22,0,0,0-3.79,2.39,3.17,3.17,0,0,0,2.48,3.71A3.21,3.21,0,0,0,762.55,635.08Z"/><path class="cls-1" d="M775.82,627.47l-4.72,3.44-4.67,3.25a2.59,2.59,0,0,0-1,1.52,2.32,2.32,0,0,0,.31,1.8s1.5,2.45,3,4.89c.76,1.24,1.49,2.51,2,3.45s.86,1.59.86,1.59a2.32,2.32,0,0,0,3.29.89,2.6,2.6,0,0,0,.94-3.5l-2.34-4-2.36-3.89s1.93-1.26,3.75-2.61l3.72-2.73a2.68,2.68,0,0,0,.64-3.57A2.32,2.32,0,0,0,775.82,627.47Z"/><path class="cls-1" d="M734,699.12a3.26,3.26,0,0,0-5.27-3.83,3.27,3.27,0,0,0,.79,4.43A3.11,3.11,0,0,0,734,699.12Z"/><path class="cls-1" d="M749.19,697.57s-2.83.69-5.63,1.27l-5.67,1a2.41,2.41,0,0,0-1.56,1,2.45,2.45,0,0,0-.41,1.81l.25,1.76c.13,1.06.3,2.48.47,3.89l.58,5.79a2.32,2.32,0,0,0,2.64,2.16,2.68,2.68,0,0,0,2.24-2.85s-.22-2.29-.45-4.58-.61-4.55-.61-4.55l4.5-.84c2.26-.44,4.55-.94,4.55-.94a2.67,2.67,0,0,0,2-3.05A2.32,2.32,0,0,0,749.19,697.57Z"/><path class="cls-1" d="M681.87,746.07a3.12,3.12,0,0,0,1.07-4.37,3.12,3.12,0,1,0-5.4,3.11A3.15,3.15,0,0,0,681.87,746.07Z"/><path class="cls-1" d="M696.4,750.82l-5.68-1.15c-2.79-.57-5.57-1.34-5.57-1.34a2.4,2.4,0,0,0-1.83.24A2.36,2.36,0,0,0,682.2,750l-.48,1.73c-.29,1-.68,2.44-1.13,3.78L678.74,761a2.32,2.32,0,0,0,1.54,3,2.67,2.67,0,0,0,3.23-1.65s.78-2.14,1.44-4.39l1.28-4.41,4.48,1.1c2.24.51,4.5.92,4.5.92a2.68,2.68,0,0,0,3.06-2A2.33,2.33,0,0,0,696.4,750.82Z"/><path class="cls-1" d="M739.15,599.61s9.14,8.09,14.26,13.69c2.68,2.79,5.09,5.71,6.94,8l3.06,3.85s.74.94,1.42,1.9,1.39,1.93,1.39,1.93l2-1.39c1-.7,2-1.43,2-1.43s3.41-2.6,6.86-5.43c1.74-1.41,3.41-2.87,4.63-4l2.06-1.89-.06.78-.15,2c-.06,1.18-.27,2.74-.47,4.3-.4,3.12-.79,6.25-.79,6.25l4.65-3.9,4.66-4.1s3.92-3.67,7.84-7.68c2-2,3.81-4.06,5.22-5.64l2.33-2.65,3.5-4.13"/><path class="cls-1" d="M804,599.61c-1.81,2-11.67,12.62-13.12,14L788.46,616s.29-3.42.48-6.84.17-6.85.17-6.85l-3.28,3.45c-2,2-4.6,4.66-7.4,7.16-5.41,5-11.22,9.36-11.22,9.36l-3.06-3.84c-1.81-2.27-4.52-5.22-7.1-8s-5.42-5.43-7.45-7.33-3.75-3.5-3.75-3.5"/><path class="cls-1" d="M765.82,674.92l-2.75,1.13c-1.66.65-3.78,1.54-6,2.29-4.46,1.56-8.79,2.87-8.79,2.87s-1.4-4.44-2.91-8.63c-.72-2.08-1.62-4.2-2.25-5.73L742,664.3s4.27-1.35,8.38-3.07c2.08-.83,4.18-1.72,5.77-2.41s2.59-1.19,2.59-1.19.55,1,1.23,2.61,1.62,3.68,2.51,5.85C764.34,670.44,765.82,674.92,765.82,674.92Zm-14.5.28s2.1-.68,4.13-1.47l4.13-1.59L758,668c-.87-2-1.73-4.08-1.73-4.08l-4,1.65-4.08,1.49,1.59,4C750.63,673.14,751.32,675.2,751.32,675.2Z"/><path class="cls-1" d="M782.11,682.18s-.8-2.78-1.7-5.51l-1.92-5.44s-.39,1-1,2.48-1.44,3.45-2.32,5.39-1.76,3.88-2.43,5.34l-1.21,2.37,1.67-.67c1-.39,2.34-.95,3.64-1.54Z"/><path class="cls-1" d="M744.58,694.05l-4.69,1-1-4.69-1.16-4.71c-.75-2.82-1.91-6.56-3.09-10.12s-2.66-7.12-3.7-9.66-1.87-4.22-1.87-4.22l-1.94-4,4.3-1.22,4.35-1.45c2.62-.91,6.23-2.18,9.65-3.7a146.55,146.55,0,0,0,13.89-6.75l2.1-1.15c1.07-.59,2.08-1.2,2.08-1.2s.65,1,1.22,2.07l1.18,2.09s2.13,3.78,4.13,7.76,3.72,8.1,3.72,8.1l.25-.74,2-6,1.72-6.06,2.73,5.47c.68,1.39,1.35,2.8,1.79,3.85s.76,1.77.76,1.77l1.32,3.14c.76,1.9,1.87,4.5,2.77,7.09,1.85,5.19,3.55,10.69,3.55,10.69L792,686.6,787.2,689s-1.25.63-3.19,1.49-4.55,2-7.12,3-5.11,2-7.09,2.69l-3.24,1.11s-2.94,1-5.85,1.88l-5.92,1.6,1.07-1.65c.63-1,1.5-2.31,2.26-3.69l3.14-5.46.39-.67s-4.34,1.41-8.56,2.61c-2.08.63-4.23,1.15-5.85,1.53Zm-1.05-4.69,1.22-.28,3.15-.83c2.59-.71,6.2-1.68,9.69-2.86s7-2.48,9.7-3.51l4.35-1.84s-1.36,3.15-3,6.18l-2.15,4.2c-.57,1.15-1,1.88-1,1.88s1.31-.42,3.18-1.14,4.42-1.7,7-2.75,5.09-2.18,7-3.08l3.16-1.5s-1.47-5.4-3.37-10.61c-.93-2.61-1.84-5.14-2.6-7s-1.32-3.14-1.32-3.14-1.06,3.26-2.38,6.43l-1.73,4.39c-.46,1.2-.85,2-.85,2S773,674,772,671.35s-2.35-6.16-3.83-9.54-3.13-6.71-4.34-9.12-2.14-4-2.14-4l-1.19.64c-.75.41-1.82,1-3.18,1.63-2.68,1.29-6.18,2.95-9.7,4.42s-7.14,2.75-9.76,3.66l-4.5,1.39a143,143,0,0,1,5.75,14c1.37,3.66,2.37,7.3,3.2,10.17.4,1.44.73,2.64,1,3.48S743.53,689.36,743.53,689.36Z"/><path class="cls-1" d="M720.79,736.87s-4.82-.14-9.43-.45c-2.3-.14-4.67-.44-6.38-.63l-2.85-.35s.13-1.14.32-2.84.43-3.91.55-6.19c.26-4.55.33-8.92.33-8.92s1.12.13,2.76.24,3.87.25,6.13.34,4.55.16,6.23.13l2.85,0s0,1.15.07,2.89,0,4.07-.06,6.38-.2,4.69-.3,6.47S720.79,736.87,720.79,736.87Zm-13.39-5.65,4.37.33,4.46.25s0-.55.09-1.38.07-1.95.12-3.06l.1-4.4-4.35-.15-2.94-.14-1.35-.11s-.1,2.15-.21,4.29Z"/><path class="cls-1" d="M732.73,750.12s.12-.7.23-1.79.26-2.54.41-4c.24-2.85.49-5.7.49-5.7s-3.06,3-6.2,5.85l-6.44,5.57,5.7.09Z"/><path class="cls-1" d="M693.62,745.74l-4.73-1,1-4.67s.41-1.87.83-4.81,1-6.68,1.29-10.48.5-7.54.55-10.32,0-4.66,0-4.66l-.11-4.41s1.11.19,2.19.31l2.19.27,4.61.47c2.84.31,6.48.44,10.32.53s7.63-.06,10.57-.19,4.91-.3,4.91-.3l4.72-.49.55,4.82s.08,1.08.21,2.7.21,3.84.34,6,.16,4.47.14,6.12,0,2.79,0,2.79l.53-.56s2.22-2.24,4.23-4.66l2.84-3.27c.78-.88,1.27-1.5,1.27-1.5s0,.75.09,1.89.09,2.66.13,4.18l.08,6.2s0,1.36-.08,3.39-.2,4.79-.37,7.58-.47,5.55-.7,7.66-.41,3.51-.41,3.51l-.34,2.68c-.17,1.36-.4,2.67-.4,2.67l-5.4.18-3.53.06c-2.08.05-4.91,0-7.7-.12s-5.52-.26-7.55-.39l-3.42-.32-6.14-.69c-3-.34-6-.89-6-.89l1.65-1.06,3.53-2.5,3.53-2.51c1-.7,1.56-1.2,1.56-1.2l.61-.48-2.77-.25c-1.67-.19-3.91-.49-6.09-.81l-5.94-.94Zm.92-4.74,4.44.77c2.71.46,6.35,1,10,1.29s7.49.66,10.28.72l4.75.12s-2.57,2.27-5.21,4.45l-5.39,4.24s5.34.43,10.9.6,11.11-.07,11.11-.07.22-1.37.45-3.48.52-4.86.76-7.59.36-5.47.44-7.51l.1-3.37s-2.34,2.51-4.76,4.93l-5,4.73.35-4.76c.2-2.82.39-6.54.36-10.29s0-7.31-.23-10.08-.32-4.52-.32-4.52-7.91.64-15.6.38c-3.77,0-7.66-.4-10.42-.63l-3.35-.33-1.28-.17s0,1.86,0,4.65-.12,6.64-.46,10.43-.73,7.74-1.2,10.61S694.54,741,694.54,741Z"/><path class="cls-1" d="M654.13,775.6c2-4.3,8.43-17.26,8.43-17.26s-4.25-1.83-8.25-3.75-7.89-4.21-7.89-4.21h0"/><path class="cls-1" d="M648.08,756.69s2.36,1.17,4.27,2.17l3.93,1.95-1.91,3.93-2,4-.33-.24"/><path class="cls-1" d="M660,792.15l-.48-.19a39,39,0,0,0,3.43-4.8c.7-1.24,1.41-2.48,1.93-3.41l.84-1.6-1.24.49c-.76.26-6.54,2.38-7.55,2.72"/><path class="cls-1" d="M662.27,802.08c.06.18,1.22.15,1.32,0l2.61-4.16,1.83-3c1.08-1.8,2.43-4.32,3.74-6.76,2.65-4.86,4.87-9.87,4.87-9.87s1.24-2.82,2.47-5.64c.61-1.38,1.16-2.83,1.56-3.91s.67-1.79.67-1.79-2.77,1.49-5.67,2.74l-3.95,1.78c-1.07.49-1.8.79-1.8.79l-.72.29s.49-1,1.15-2.56l2.35-5.67c1.68-4,3-8.22,3-8.22l1.48-4.59L672.66,750s-1.84-.6-4.57-1.66-6.31-2.56-9.72-4.1-6.8-3.39-9.22-4.7-4-2.34-4-2.34L642,735.8"/><path class="cls-1" d="M643.48,741.34l4,2.36c2.47,1.45,5.79,3.16,9.26,4.81s7,3.19,9.78,4.26l4.63,1.77s-.62,1.69-1.56,4.21-2.31,6-3.87,9.33-3.17,6.81-4.51,9.28L659,781.51l2-.69c1.22-.4,2.85-1,4.43-1.61l6.38-2.52s-2.3,4.8-4.93,9.71L661.23,796h0"/><path class="cls-1" d="M652.36,768.7l-1.24-.61c-.74-.36-1.72-.85-2.7-1.39l-3.87-2.13,2.06-3.82c.5-.93,1-1.92,1.33-2.66l.58-1.22"/><path class="cls-1" d="M646.5,750.65a.1.1,0,0,0-.2,0l-1,2.29c-.72,1.48-1.72,3.45-2.77,5.44s-2.15,4-3,5.5S638,766.3,638,766.3l2.47,1.52c1.49.88,3.49,2,5.55,3.1s4.16,2.21,5.77,3l2.32,1.09"/><path class="cls-1" d="M657.74,785.13c-2,.58-8.27,2.26-8.27,2.26l5.19,2.47c2.17,1,4.36,1.91,5.08,2.2"/><path class="cls-1" d="M615.19,767.76a3.23,3.23,0,0,0,2.76-3.64,3.12,3.12,0,1,0-6.2.65A3.21,3.21,0,0,0,615.19,767.76Z"/><path class="cls-1" d="M626.51,778,625,777l-3.23-2.37-4.54-3.49a2.33,2.33,0,0,0-1.76-.49,2.56,2.56,0,0,0-1.62.85l-3.72,4.33c-1,1.09-1.95,2.17-2.67,3l-1.25,1.32a2.33,2.33,0,0,0,.16,3.41,2.63,2.63,0,0,0,3.62-.24l3.1-3.43c1.53-1.71,3-3.43,3-3.43l3.62,2.74,3.74,2.73a2.59,2.59,0,0,0,3.59-.53A2.32,2.32,0,0,0,626.51,778Z"/><path class="cls-1" d="M545.42,760.43a3.11,3.11,0,0,0,4-2.15,3.25,3.25,0,0,0-2-4,3.26,3.26,0,0,0-2,6.19Z"/><path class="cls-1" d="M551.6,774.42l-2.93-5L546.76,766c-.52-.92-.84-1.56-.84-1.56a2.44,2.44,0,0,0-1.39-1.22,2.35,2.35,0,0,0-1.83.13l-5.18,2.5c-2.62,1.2-5.3,2.28-5.3,2.28a2.33,2.33,0,0,0-1.24,3.18,2.69,2.69,0,0,0,3.38,1.33l4.24-1.92,4.13-2,.67,1.27c.4.78.94,1.79,1.51,2.77,1.17,2,2.33,4,2.33,4a2.69,2.69,0,0,0,3.49,1A2.32,2.32,0,0,0,551.6,774.42Z"/><path class="cls-1" d="M484.69,725.35a3.22,3.22,0,0,0,4.54-.38,3.15,3.15,0,0,0-.18-4.46,3.26,3.26,0,0,0-4.36,4.84Z"/><path class="cls-1" d="M484.67,740.6s-.43-2.83-.66-5.75l-.44-5.72a2.36,2.36,0,0,0-.81-1.64,2.59,2.59,0,0,0-1.73-.62l-5.71.13h-4c-1.11,0-1.81,0-1.81,0a2.34,2.34,0,0,0-2.43,2.41,2.63,2.63,0,0,0,2.6,2.53h4.62l3.13,0,1.43-.06s.19,2.27.39,4.54.47,4.61.47,4.61a2.59,2.59,0,0,0,2.81,2.29A2.33,2.33,0,0,0,484.67,740.6Z"/><path class="cls-1" d="M661.23,796,658,794.68c-1.94-.85-4.49-2-7-3.17-5-2.27-9.71-5-9.71-5l2.09-.49c1.26-.26,2.92-.7,4.57-1.18l6.6-1.89-4.31-2.09c-2.56-1.3-5.85-2.9-9.09-4.82s-6.33-3.78-8.6-5.24l-3.76-2.58,2.72-4.07c1.58-2.53,3.58-5.89,5.42-9.2s3.48-6.84,4.66-9.35c.59-1.25,1.57-4,1.89-4.82"/><path class="cls-1" d="M642.31,735.85a2,2,0,0,0-1.75,1.08c-.41,1.05-.86,2-.86,2l-1.89,4.2-2.08,4.35c-.8,1.55-1.69,3.19-2.62,4.85-1.83,3.35-3.84,6.67-5.45,9l-2.72,4.07-1.37,2c-.71.95-1.41,1.91-1.41,1.91l1.93,1.46,2,1.38s3.52,2.48,7.28,4.91,7.65,4.54,7.65,4.54l-.75.18-1.92.44c-1.16.24-2.68.67-4.23.92l-6.2,1.11,5.14,3.26,3.65,2.22,1.68.93s4.71,2.63,9.75,5.16c4.95,2.36,10.23,4.61,10.23,4.61s1.25.55,2.5,1l1.88.72"/><path class="cls-1" d="M578.3,783.19s-3.12-3.68-6-7.33c-1.44-1.79-2.8-3.72-3.8-5.14l-1.65-2.36,2.33-1.66c1.38-1,3.18-2.3,5-3.75,3.56-2.84,6.84-5.7,6.84-5.7s.65.89,1.67,2.18,2.41,3.05,3.85,4.79,2.94,3.5,4.09,4.72l1.93,2.09-2.1,2c-1.27,1.22-3,2.74-4.78,4.23s-3.61,3-5,4.11S578.3,783.19,578.3,783.19Zm-4.76-13.75,2.68,3.48L579,776.4s1.75-1.4,3.44-2.83l3.34-2.86-2.8-3.34c-1.38-1.66-2.7-3.33-2.7-3.33l-3.32,2.7Z"/><path class="cls-1" d="M576.46,800.94s.6-.4,1.49-1.05,2-1.51,3.23-2.36l4.55-3.46-8.49-.67-8.45-1.07,3.75,4.3Z"/><path class="cls-1" d="M553.52,769l-2.39-4.23,4.1-2.38s1.7-1,4.15-2.64S565,756,568,753.65s5.92-4.6,8-6.5l3.44-3.12,3.19-3s.61.92,1.24,1.82l1.27,1.8,2.74,3.74c1.67,2.31,4,5.12,6.53,8s5.15,5.67,7.22,7.72l3.51,3.44s.86.86,1.74,1.63l1.78,1.57s-.79.92-1.59,1.83-1.63,1.79-1.63,1.79-2.94,3.13-6.11,6.26c-1.59,1.6-3.21,3.07-4.46,4.19l-2.09,1.86.78,0,2,0c1.18,0,2.75,0,4.32,0l6.29-.16-4.36,4.23c-2.22,2.11-4.55,4.22-4.55,4.22s-4,3.52-8.44,7c-2.19,1.79-4.43,3.34-6.15,4.6l-2.88,2-2.22,1.54c-1.12.78-2.25,1.51-2.25,1.51l-3.75-3.9-2.41-2.59c-1.43-1.53-3.3-3.6-5.08-5.79s-3.5-4.29-4.76-5.89-2.07-2.72-2.07-2.72l-3.59-5.05-2.35-3.45c-.62-1-1-1.59-1-1.59s.76.22,1.92.47l4.21,1c3.06.76,6.17,1.28,6.17,1.28l.76.14s-2.72-3.52-5.15-7.29c-1.19-1.84-2.38-3.68-3.27-5.07S553.52,769,553.52,769Zm4.14-2.53,2.4,3.84c1.47,2.36,3.54,5.3,5.74,8.29,1.13,1.5,2.26,3,3.31,4.41s2.14,2.61,3,3.7l3.09,3.62-6.81-.87-6.75-1.2,2.07,2.66c1.27,1.58,3,3.8,4.78,5.83,3.58,4.11,7.5,8.24,7.5,8.24s1.17-.79,2.89-2,4-2.86,6.14-4.51,4.3-3.39,5.87-4.71l2.57-2.19-2.14,0c-1.28-.06-3,0-4.7-.18l-6.84-.52,3.77-2.91c2.23-1.75,5.12-4.09,7.88-6.63s5.41-4.91,7.33-6.91L602,771l-3.51-3.43c-2.07-2.07-4.73-5-7.22-7.89s-4.84-6-6.52-8.17S582,747.8,582,747.8l-3.44,3.1c-2.1,1.86-5,4.4-8,6.65A148.08,148.08,0,0,1,557.66,766.43Z"/><path class="cls-1" d="M505.46,759.5l-.84-2.84c-.51-1.67-1.1-4-1.63-6.27s-1.05-4.54-1.4-6.22-.54-2.82-.54-2.82,1.11-.18,2.8-.57,3.91-.88,6.09-1.42,4.3-1.1,5.92-1.61l2.66-.83s.25,1.08.62,2.71.91,3.84,1.54,6c1.23,4.28,2.7,8.7,2.7,8.7s-4.27,1.47-8.8,2.82c-2.26.71-4.52,1.27-6.24,1.7ZM506.71,745s.46,2.17,1,4.3l1.16,4.25,4.27-1.13c2.1-.54,4.22-1.25,4.22-1.25s-.66-2-1.2-4.18l-1.06-4.2L510.93,744C508.82,744.58,506.71,745,506.71,745Z"/><path class="cls-1" d="M496.53,774.94l5.66-1.12c2.81-.58,5.6-1.33,5.6-1.33l-2.37-1.22c-1.42-.74-3.24-1.84-5.1-2.89C496.59,766.32,493,764,493,764l1.62,5.54C495.6,772.21,496.53,774.94,496.53,774.94Z"/><path class="cls-1" d="M488.65,736.39s-.13-1.2-.27-2.39-.23-2.39-.23-2.39,1.18-.1,2.38-.25l2.39-.3a152.43,152.43,0,0,0,15.21-2.69c3.66-.78,7.35-1.88,10-2.67s4.38-1.38,4.38-1.38l4.2-1.53.77,4.39s.33,1.83,1,4.5,1.53,6.42,2.67,10,2.37,7.32,3.43,10l1.83,4.5,1.9,4.42-4.39,1.93-2.52,1.07c-1.51.62-3.58,1.49-5.63,2.21-4.12,1.49-8.46,2.88-8.46,2.88l.71.32,5.74,2.6c1.42.68,2.91,1.19,4,1.64l1.84.72-5.74,2.17c-2.89,1-5.84,1.91-5.84,1.91l-3.27,1c-2,.6-4.66,1.36-7.33,2s-5.44,1.27-7.52,1.72-3.47.68-3.47.68l-5.3.9-1.87-5-1.12-3.37c-.66-2-1.49-4.7-2.27-7.35s-1.43-5.38-1.92-7.36l-.77-3.32s-.17-.75-.42-1.88-.56-2.63-.82-4.16l-1-6,5,3.89,5.13,3.65.64.45s-1-4.44-1.74-8.74S488.65,736.39,488.65,736.39Zm4.79-.58s.06.45.15,1.24.24,1.93.47,3.25c.44,2.67,1.08,6.27,1.84,9.94s1.75,7.21,2.5,10,1.35,4.55,1.35,4.55l-1.85-1.08-4-2.54c-1.44-.94-2.9-1.84-4-2.57l-1.75-1.24s.32,1.33.78,3.32,1.24,4.56,2,7.21c1.51,5.34,3.49,10.56,3.49,10.56l3.44-.63c2-.36,4.75-.93,7.45-1.61s5.32-1.33,7.27-1.86,3.25-1,3.25-1-.79-.34-1.94-.91l-4.2-2.15c-3.08-1.51-6-3.25-6-3.25s1.85-.37,4.61-1.08,6.4-1.75,9.91-2.82,7-2.43,9.53-3.38,4.19-1.67,4.19-1.67-.78-1.81-1.78-4.61-2.33-6.37-3.38-10.12-2-7.31-2.62-10.1l-.92-4.59-4.45,1.51c-2.67.81-6.29,1.82-10.06,2.76s-7.52,1.58-10.46,2.11c-1.47.27-2.68.44-3.53.55Z"/><path class="cls-1" d="M448.06,708.2s1.65.27,3.39.6,4.12.64,6.43,1,4.59.59,6.32.74l2.89.23.25-2.83c.16-1.69.48-4,.79-6.21s.67-4.41,1-6,.6-3.23.6-3.23"/><path class="cls-1" d="M464,697.17s-.33,1.9-.63,4l-.58,4.3-4.38-.55c-2.22-.29-4.37-.7-4.37-.7l.06-.22"/><path class="cls-1" d="M434.13,718.75l1.76.42c1,.26,2.46.57,3.89.84l5.65,1.06-2.63-3.35c-.67-.84-1.32-1.68-1.77-2.34l-.77-1.09"/><path class="cls-1" d="M425.07,724.77c1.28.35,5.5,1.69,5.5,1.69s5.58,1.28,11,2.27,10.9,1.56,10.9,1.56l1.92.22,4.25.36,6.07.4-4.35-4.56c-1.11-1.12-2.11-2.34-2.89-3.22L456.17,722l-.51-.59,2.79.31c1.68.15,3.83.41,6.07.52,4.47.25,8.77.33,8.77.33s1.18,0,2.41,0l2.42-.05,0-2.37c0-1.18,0-2.39,0-2.39l.2-4.9c.09-1.44.19-3.12.3-4.91s.41-3.71.62-5.63.49-3.72.73-5.46.61-3.36.87-4.75l.93-4.51s.21-1.06.5-2.16a3.45,3.45,0,0,0,.08-1.73"/><path class="cls-1" d="M477.22,687.63c-.2.8-.65,2.89-.9,4.25-.52,2.73-1.21,6.49-1.71,10.31s-.82,7.67-1,10.64l-.2,4.9-4.54-.14c-2.72-.13-6.33-.44-10-.82s-7.35-1-10.19-1.44l-4.71-.83,4.23,5.4c1,1.36,2.13,2.68,3,3.64l1.4,1.62-3.36-.44c-2.06-.26-4.7-.73-7.4-1.24s-5.44-1.07-7.5-1.52l-3.38-.84"/><path class="cls-1" d="M454.07,704.24l.7-4.39c.38-2.15.77-4.3.77-4.3l4.32.73c1.49.23,3.95.49,4.71.61"/><path class="cls-1" d="M469.35,692.87c-1.06-.12-4.77-.57-8.56-1.2-4.37-.79-8.9-1.81-8.9-1.81s-1,4.43-1.93,9.08c-.7,3.94-1.24,8-1.37,9.06"/><path class="cls-1" d="M440.26,714.29s-1.24-1.73-2.47-3.47-2.4-3.52-2.4-3.52-1,9.1-1.26,11.94"/><path class="cls-1" d="M443.46,668.6a3.15,3.15,0,0,0,4.25,1.51,3.22,3.22,0,0,0,1.7-4.16,3.29,3.29,0,0,0-4.27-1.52A3.11,3.11,0,0,0,443.46,668.6Z"/><path class="cls-1" d="M437.22,682.54s.86-2.75,1.71-5.51,1.94-5.42,1.94-5.42a2.36,2.36,0,0,0-.05-1.83,2.45,2.45,0,0,0-1.35-1.27s-2.69-1-5.28-2.19l-5.28-2.4a2.33,2.33,0,0,0-3.19,1.21,2.67,2.67,0,0,0,1.33,3.38l4.17,1.9,4.28,1.74L434,676.47c-.78,2.2-1.42,4.41-1.42,4.41a2.68,2.68,0,0,0,1.65,3.23A2.33,2.33,0,0,0,437.22,682.54Z"/><path class="cls-1" d="M428.87,600a3.24,3.24,0,0,0,3.34,3.12,3.12,3.12,0,1,0,0-6.24A3.24,3.24,0,0,0,428.87,600Z"/><path class="cls-1" d="M417.51,610.19l1.18-1.37,2.7-3,3.93-4.16a2.52,2.52,0,0,0,0-3.4l-3.93-4.15-2.7-3-1.18-1.37a2.33,2.33,0,0,0-3.41-.19,2.62,2.62,0,0,0-.14,3.62l3.1,3.44,3.1,3.32-3.1,3.32-3.1,3.44a2.62,2.62,0,0,0,.14,3.62A2.32,2.32,0,0,0,417.51,610.19Z"/><path class="cls-1" d="M443.46,531.4a3.11,3.11,0,0,0,1.68,4.17,3.29,3.29,0,0,0,4.27-1.52,3.22,3.22,0,0,0-1.7-4.16A3.14,3.14,0,0,0,443.46,531.4Z"/><path class="cls-1" d="M428.91,536.08l5.28-2.4c2.59-1.18,5.28-2.19,5.28-2.19a2.41,2.41,0,0,0,1.35-1.27,2.36,2.36,0,0,0,.05-1.83s-1-2.68-1.94-5.42-1.71-5.51-1.71-5.51a2.32,2.32,0,0,0-3-1.56,2.67,2.67,0,0,0-1.65,3.23s.64,2.2,1.42,4.4l1.54,4.32-4.28,1.74-4.17,1.9a2.67,2.67,0,0,0-1.33,3.38A2.33,2.33,0,0,0,428.91,536.08Z"/><path class="cls-1" d="M430.87,721.62s.12-1.9.28-4,.4-4.81.8-7.57c.75-5.51,1.7-10.75,1.7-10.75l3.69,5.78c.91,1.46,1.88,2.87,2.64,3.91l1.24,1.74s.23-1.87.59-4.69,1.08-6.56,1.79-10.16,1.67-7.22,2.34-9.82l1.2-4.33,4.8,1.28c2.86.73,6.59,1.64,10.42,2.3s12.51,1.74,15.37,2"/><path class="cls-1" d="M482.32,684.19c.19-.14.09-.92-.14-.94l-3.75-.28s-1.87-.13-4.62-.48-6.45-.9-10.22-1.6-7.44-1.65-10.3-2.38-4.67-1.35-4.67-1.35l-4.56-1.43-1.49,4.58s-1.38,4.18-2.38,8.44c-.52,2.16-1,4.33-1.42,6s-.58,2.75-.58,2.75l-.42-.65-3.14-5.46c-.79-1.36-1.57-2.73-2.09-3.79l-.89-1.75s-.85,2.94-1.55,5.92-1.29,6-1.29,6-1.16,5.37-1.86,10.84c-.37,2.75-.74,5.57-.94,7.67s-.57,9-.57,9"/><path class="cls-1" d="M417.37,638.29s.56-1,1.56-2.52,2.27-3.49,3.58-5.42c2.56-3.85,5.45-7.49,5.45-7.49s3.58,2.8,7.4,5.28c1.89,1.25,3.75,2.45,5.15,3.33s2.38,1.43,2.38,1.43-2.52,3.56-5,7.4-4.6,7.81-4.6,7.81l-2.51-1.39c-1.49-.86-3.59-2-5.53-3.24C421.34,641,417.37,638.29,417.37,638.29ZM429,629.54l-2.51,3.62c-1.28,1.84-2.44,3.72-2.44,3.72l3.75,2.41,3.72,2.3,2.34-3.69,2.36-3.59s-1.86-1.12-3.63-2.32Z"/><path class="cls-1" d="M399.92,642l4.68,3.45,4.65,3.29-1.92-8.31c-.5-2.08-.79-4.19-1.1-5.76l-.47-2.62-3,4.9-2,3.46Z"/><path class="cls-1" d="M423.31,610.34l1.6-1.81,1.66-1.77,1.74,1.61,1.82,1.57,3.77,3.13,3.85,3.07c1.44,1.09,3,2.21,4.58,3.31,3.11,2.19,6.19,4.22,8.65,5.64l4,2.32,1.92,1.08c.95.53,2,1,2,1L456.17,633l-2.76,3.75c-1.59,2.28-3.6,5.38-5.61,8.66s-3.74,6.62-5.12,9.23-2.16,4.39-2.16,4.39l-1.95,4.34-4.43-1.94-2.49-1.15-5.36-2.73c-2-1-4-2.09-5.41-2.92l-2.39-1.43.22.75.55,1.89c.38,1.12.88,2.61,1.39,4.1s1,3,1.39,4.1l.71,1.84s-2.76-1.34-5.4-2.83L412,660l-3-1.75c-1.72-1.09-4-2.58-6.34-4.13s-4.66-3.17-6.31-4.44l-2.81-2.13-4.27-3.33s.58-1.2,1.24-2.39l1.3-2.38s2.73-5,5.67-9.68,6.11-9.15,6.11-9.15.42-.63,1.14-1.57l2.58-3.39c1.88-2.39,3.77-4.77,3.77-4.77s.24,3.13.47,6.27c.09,1.57.3,3.14.45,4.31l.25,1.95.1.77,1.63-2.27c1-1.36,2.26-3.13,3.7-4.86C420.5,613.58,423.31,610.34,423.31,610.34Zm3.67,3.17L424,617c-1.75,2.11-3.9,5-6.11,8s-4.23,6.13-5.76,8.53l-2.52,4.06-1.21-6.75c-.33-1.69-.51-3.39-.68-4.67s-.27-2.12-.27-2.12l-1.92,2.79c-1.17,1.7-2.67,4-4.05,6.33s-2.82,4.76-3.87,6.59-1.67,3.08-1.67,3.08,4.5,3.47,8.94,6.61c4.61,3.13,9.17,5.92,9.17,5.92l-1.87-6.6c-.86-3.32-1.59-6.67-1.59-6.67l3.91,2.7c2.28,1.6,5.55,3.59,8.74,5.46l4.67,2.68,4.19,2.16,4.05,2,2.22-4.41c1.3-2.6,3.25-6,5.27-9.29,1-1.63,2-3.23,3-4.71l2.79-4,2.74-3.75s-1.66-.87-4-2.31-5.7-3.43-8.81-5.62-6.28-4.52-8.59-6.36Z"/><path class="cls-1" d="M417.37,561.71s4-2.73,7.89-5.19c1.94-1.24,4-2.38,5.53-3.24l2.51-1.39s2.2,4,4.6,7.81,5,7.4,5,7.4-1,.55-2.38,1.43-3.26,2.08-5.15,3.33c-3.82,2.48-7.4,5.27-7.4,5.27s-2.89-3.63-5.45-7.49c-1.31-1.92-2.61-3.9-3.58-5.41S417.37,561.71,417.37,561.71Zm14.14-3.31-3.72,2.31L424,563.12s1.16,1.88,2.44,3.72l2.51,3.62,3.59-2.45c1.77-1.2,3.63-2.32,3.63-2.32l-2.36-3.59Z"/><path class="cls-1" d="M399.92,558l.85,1.59,2,3.47,3,4.89s.19-1,.47-2.62.6-3.68,1.1-5.76l1.92-8.31-4.65,3.29Z"/><path class="cls-1" d="M434.14,538.56l4.43-1.94,1.95,4.34s.78,1.77,2.16,4.39,3.12,6,5.12,9.23,4,6.38,5.61,8.66l2.76,3.75,2.69,3.49s-1,.5-2,1L455,572.59l-4,2.32c-2.46,1.42-5.54,3.45-8.65,5.64-1.55,1.1-3.14,2.22-4.58,3.31l-3.85,3.07-3.77,3.13-1.82,1.57-1.74,1.61-1.66-1.77-1.6-1.81s-2.81-3.24-5.61-6.73c-1.44-1.73-2.69-3.5-3.7-4.86l-1.63-2.27-.1.77-.25,1.95c-.15,1.17-.36,2.74-.45,4.31-.23,3.14-.47,6.27-.47,6.27s-1.89-2.38-3.77-4.77l-2.58-3.39c-.72-.94-1.14-1.57-1.14-1.57s-3.09-4.41-6.11-9.15-5.67-9.69-5.67-9.69l-1.3-2.37c-.66-1.19-1.24-2.39-1.24-2.39l4.27-3.33,2.81-2.13c1.65-1.27,4-2.89,6.31-4.44s4.62-3,6.34-4.13l3-1.75,5.38-3c2.64-1.5,5.4-2.83,5.4-2.83s-.29.73-.71,1.84-.89,2.61-1.39,4.1-1,3-1.39,4.1l-.55,1.89-.22.75,2.39-1.43c1.46-.83,3.46-1.9,5.41-2.93l5.36-2.72Zm2,4.37-4.05,2-4.19,2.16-4.67,2.68c-3.19,1.87-6.46,3.86-8.74,5.46l-3.91,2.7s.73-3.35,1.59-6.67l1.88-6.6s-4.57,2.79-9.18,5.92c-4.44,3.14-8.94,6.61-8.94,6.61s.61,1.24,1.67,3.08,2.45,4.24,3.87,6.59,2.88,4.63,4.05,6.33l1.92,2.79s.11-.85.27-2.12.35-3,.68-4.67c.61-3.38,1.21-6.75,1.21-6.75l2.52,4.05c1.53,2.41,3.5,5.52,5.76,8.54s4.36,5.89,6.11,8l3,3.46,3.77-3.13c2.31-1.84,5.49-4.18,8.59-6.36s6.44-4.18,8.81-5.62,4-2.31,4-2.31l-2.74-3.75c-.82-1.16-1.77-2.53-2.79-4s-2-3.07-3-4.7c-2-3.27-4-6.69-5.27-9.29Z"/><path class="cls-1" d="M448.56,491.75s.59,4.75,1.4,9.31,1.93,9.08,1.93,9.08,4.53-1,8.9-1.81,8.86-1.23,8.86-1.23"/><path class="cls-1" d="M464,502.7l.16.38-4.27.64-4.32.72s-.39-2.14-.77-4.29l-.7-4.39.22,0"/><path class="cls-1" d="M434.13,481.25l.55,5.77c.27,2.84.71,5.68.71,5.68s1.14-1.8,2.4-3.52l2.47-3.47"/><path class="cls-1" d="M424.71,474.56l1,5.68.29,3.5c.2,2.1.57,4.92.94,7.67.7,5.48,1.86,10.84,1.86,10.84s.64,3,1.29,6,1.55,5.92,1.55,5.92l.89-1.75c.52-1.06,1.3-2.43,2.09-3.79l3.14-5.46.42-.65s.19,1.09.58,2.75.9,3.8,1.42,6c1,4.26,2.38,8.44,2.38,8.44l1.49,4.58,4.56-1.43s1.87-.59,4.67-1.35,6.62-1.62,10.3-2.37,7.49-1.25,10.22-1.61,4.62-.48,4.62-.48l4.89,0"/><path class="cls-1" d="M477.9,513.11c-2.86.28-11.74.88-15.54,1.58s-7.56,1.56-10.42,2.29l-4.8,1.28-1.2-4.33c-.67-2.6-1.67-6.23-2.34-9.82s-1.4-7.36-1.79-10.16-.59-4.69-.59-4.69L440,491c-.76,1-1.73,2.45-2.64,3.91l-3.69,5.78s-.95-5.24-1.7-10.75c-.4-2.76-1.32-10.18-1.52-12.28"/><path class="cls-1" d="M454.07,495.76s2.15-.41,4.37-.7l4.38-.55.58,4.3c.3,2.12.73,4.27.73,4.27"/><path class="cls-1" d="M469.65,507.6c-.17-1.6-1.19-7.06-1.52-9.29s-.62-4.52-.79-6.21l-.25-2.83-2.89.23c-1.73.15-4,.44-6.32.74s-8.14.83-9.9,1.13"/><path class="cls-1" d="M440.26,485.71l.77-1.09c.45-.66,1.1-1.5,1.77-2.34l2.63-3.35L439.78,480c-1.43.27-5.24.78-6.22,1"/><path class="cls-1" d="M484.69,474.65a3.26,3.26,0,0,0,4.36,4.84,3.15,3.15,0,0,0,.18-4.46A3.22,3.22,0,0,0,484.69,474.65Z"/><path class="cls-1" d="M469.51,473s.7,0,1.81,0h4l5.71.13a2.59,2.59,0,0,0,1.73-.62,2.36,2.36,0,0,0,.81-1.64l.44-5.72c.23-2.92.66-5.75.66-5.75a2.33,2.33,0,0,0-2.14-2.66,2.59,2.59,0,0,0-2.81,2.29l-.48,4.61-.38,4.54-1.43-.06-3.13,0h-4.62a2.63,2.63,0,0,0-2.6,2.53A2.34,2.34,0,0,0,469.51,473Z"/><path class="cls-1" d="M545.42,439.57a3.26,3.26,0,0,0,2,6.19,3.26,3.26,0,0,0,2-4A3.12,3.12,0,0,0,545.42,439.57Z"/><path class="cls-1" d="M532.22,431.91s2.68,1.08,5.3,2.28l5.18,2.5a2.35,2.35,0,0,0,1.83.13,2.4,2.4,0,0,0,1.39-1.22s.32-.64.84-1.56l1.91-3.43,2.93-5a2.32,2.32,0,0,0-.87-3.3,2.68,2.68,0,0,0-3.49,1l-2.33,4c-.57,1-1.11,2-1.51,2.77l-.67,1.27-4.13-2-4.24-1.92a2.69,2.69,0,0,0-3.38,1.33A2.33,2.33,0,0,0,532.22,431.91Z"/><path class="cls-1" d="M615.2,432.24a3.22,3.22,0,0,0-3.45,3,3.12,3.12,0,1,0,6.2.65A3.23,3.23,0,0,0,615.2,432.24Z"/><path class="cls-1" d="M606.23,419.88l1.25,1.32c.72.82,1.69,1.9,2.67,3l3.72,4.33a2.56,2.56,0,0,0,1.62.85,2.33,2.33,0,0,0,1.76-.49l4.54-3.49L625,423l1.49-1a2.32,2.32,0,0,0,.54-3.37,2.59,2.59,0,0,0-3.59-.53l-3.74,2.73-3.62,2.74s-1.46-1.72-3-3.43l-3.1-3.43a2.63,2.63,0,0,0-3.62-.24A2.33,2.33,0,0,0,606.23,419.88Z"/><path class="cls-1" d="M430,478.1c2.07-.45,9-1.07,11.73-1.58s5.34-1,7.4-1.24l3.36-.44-1.4,1.62c-.86,1-1.95,2.28-3,3.64l-4.23,5.4,4.71-.83c2.84-.45,6.44-1.09,10.19-1.44s7.33-.69,10-.82l4.54-.13.2,4.89c.21,3,.57,6.87,1,10.64s1.19,7.58,1.71,10.31c.25,1.36,1.22,4.43,1.05,5.22"/><path class="cls-1" d="M482.85,516.7l-.56-2.16c-.29-1.1-.5-2.16-.5-2.16l-.93-4.51c-.26-1.39-.55-3-.87-4.75s-.48-3.6-.73-5.46-.42-3.83-.62-5.63-.21-3.47-.3-4.91l-.2-4.9s-.05-1.21,0-2.39l0-2.37-2.42,0c-1.23,0-2.41,0-2.41,0s-4.3.08-8.77.33c-2.24.11-4.39.37-6.07.52l-2.79.31.51-.59,1.28-1.49c.78-.88,1.78-2.1,2.89-3.22l4.35-4.56-6.07.4-4.25.36-1.92.22s-5.35.64-10.9,1.56-11,2.27-11,2.27-1.34.28-2.62.63-3.65.87-3.65.87"/><path class="cls-1" d="M505.46,440.5l2.88.7c1.72.42,4,1,6.25,1.69,4.52,1.34,8.79,2.82,8.79,2.82s-1.47,4.42-2.7,8.7c-.63,2.12-1.16,4.33-1.54,6s-.62,2.71-.62,2.71l-2.66-.82c-1.62-.52-3.75-1.09-5.92-1.62s-4.4-1.05-6.09-1.42-2.8-.57-2.8-.57.18-1.16.54-2.82.85-3.94,1.4-6.22,1.12-4.6,1.63-6.27Zm11.91,8.29s-2.12-.71-4.22-1.25l-4.27-1.13-1.16,4.25c-.55,2.13-1,4.3-1,4.3s2.11.46,4.22,1l4.18,1.18,1.06-4.2C516.71,450.83,517.37,448.79,517.37,448.79Z"/><path class="cls-1" d="M496.53,425.06l-1.87,5.45L493,436.05s3.54-2.37,7.28-4.43c1.85-1.05,3.68-2.15,5.1-2.89l2.37-1.22s-2.79-.75-5.6-1.33Z"/><path class="cls-1" d="M533.88,437.47l4.39,1.93-1.9,4.42-1.83,4.5c-1.06,2.69-2.3,6.43-3.43,10s-2,7.33-2.67,10-1,4.5-1,4.5l-.77,4.39-4.2-1.53s-1.72-.58-4.38-1.38-6.33-1.89-10-2.67a152.43,152.43,0,0,0-15.21-2.69l-2.39-.3c-1.2-.15-2.38-.25-2.38-.25s.08-1.21.23-2.39.27-2.39.27-2.39.5-4.31,1.23-8.7,1.74-8.74,1.74-8.74l-.64.45-5.13,3.65-5,3.89,1-6c.26-1.53.56-3.05.82-4.16s.42-1.88.42-1.88l.77-3.32c.5-2,1.12-4.74,1.92-7.36s1.61-5.33,2.27-7.35l1.12-3.37,1.87-5,5.3.9s1.37.21,3.47.68,4.83,1.07,7.52,1.72,5.34,1.39,7.33,2l3.27,1s2.95.89,5.84,1.91l5.74,2.17-1.83.72c-1.09.45-2.59,1-4,1.64L518,431l-.71.32s4.34,1.39,8.46,2.88c2,.72,4.12,1.59,5.63,2.21Zm-1.9,4.41s-1.67-.74-4.19-1.67-6-2.25-9.53-3.38-7.13-2.09-9.91-2.82-4.61-1.08-4.61-1.08,3-1.74,6-3.25l4.2-2.15c1.15-.57,1.94-.91,1.94-.91s-1.31-.44-3.25-.95-4.58-1.21-7.27-1.86S500,422.56,498,422.2l-3.44-.63s-2,5.22-3.49,10.56c-.78,2.65-1.51,5.26-2,7.21l-.77,3.32,1.74-1.24c1.06-.73,2.52-1.63,4-2.57l4-2.54,1.85-1.08s-.61,1.77-1.35,4.55-1.69,6.39-2.5,10-1.4,7.27-1.84,9.94c-.23,1.32-.36,2.46-.46,3.25s-.16,1.24-.16,1.24l1.34.18c.85.11,2.06.28,3.53.55,2.94.53,6.73,1.22,10.46,2.11s7.39,2,10.06,2.76l4.45,1.51.92-4.59c.59-2.79,1.56-6.36,2.62-10.1s2.37-7.3,3.38-10.12S532,441.88,532,441.88Z"/><path class="cls-1" d="M578.3,416.81s1,.71,2.35,1.84,3.23,2.62,5,4.12,3.51,3,4.78,4.22l2.11,2-1.94,2.09c-1.15,1.22-2.65,3-4.09,4.72s-2.83,3.48-3.85,4.79-1.67,2.18-1.67,2.18-3.28-2.86-6.84-5.7c-1.77-1.45-3.58-2.76-5-3.75l-2.33-1.66,1.65-2.36c1-1.42,2.36-3.35,3.8-5.14C575.18,420.49,578.3,416.81,578.3,416.81Zm7.49,12.48-3.34-2.86C580.76,425,579,423.6,579,423.6l-2.79,3.48-2.68,3.48,3.43,2.7,3.32,2.71s1.32-1.68,2.7-3.34Z"/><path class="cls-1" d="M576.46,399.07l-3.92,4.3-3.75,4.3,8.45-1.07,8.49-.67-4.55-3.46c-1.18-.85-2.35-1.71-3.23-2.36S576.46,399.07,576.46,399.07Z"/><path class="cls-1" d="M605.49,425.63s.83.85,1.63,1.79,1.59,1.83,1.59,1.83l-1.78,1.57c-.88.77-1.74,1.63-1.74,1.63l-3.51,3.44c-2.07,2.05-4.73,4.78-7.22,7.72s-4.86,5.71-6.53,8l-2.74,3.74-1.27,1.8c-.63.9-1.23,1.82-1.23,1.82l-3.2-3-3.44-3.12c-2.11-1.9-5-4.14-8-6.5s-6.19-4.42-8.64-6.06-4.15-2.64-4.15-2.64l-4.1-2.38,2.39-4.23s.55-.94,1.41-2.3,2.09-3.23,3.27-5.07c2.43-3.77,5.15-7.29,5.15-7.29l-.76.14s-3.11.52-6.16,1.28l-4.22,1c-1.16.25-1.91.47-1.91.47l1-1.59,2.35-3.45,3.59-5s.8-1.13,2.07-2.72,3-3.74,4.77-5.89,3.64-4.26,5.07-5.79l2.41-2.59,3.75-3.9s1.13.73,2.25,1.51l2.22,1.54,2.88,2c1.72,1.26,4,2.81,6.15,4.6,4.39,3.49,8.45,7,8.45,7s2.32,2.1,4.54,4.21l4.36,4.23-6.29-.16c-1.57-.06-3.14-.06-4.32,0l-2,.05-.77,0s.83.75,2.09,1.86,2.87,2.59,4.45,4.19C602.55,422.5,605.49,425.63,605.49,425.63ZM602,429l-3.15-3.28c-1.92-2-4.56-4.4-7.33-6.91s-5.65-4.88-7.88-6.63l-3.77-2.91,6.84-.52c1.7-.15,3.42-.12,4.7-.18l2.14,0-2.57-2.19c-1.56-1.32-3.69-3.1-5.87-4.71s-4.43-3.29-6.14-4.51-2.89-2-2.89-2-3.91,4.13-7.5,8.24c-1.8,2-3.51,4.25-4.77,5.83l-2.08,2.66,6.76-1.2,6.8-.87-3.09,3.62c-.91,1.09-2,2.33-3,3.7s-2.18,2.91-3.31,4.41c-2.2,3-4.27,5.93-5.74,8.29l-2.4,3.84a148.08,148.08,0,0,1,12.83,8.88c3,2.25,6,4.79,8,6.65l3.44,3.1s1-1.5,2.73-3.75,4-5.36,6.52-8.17,5.15-5.81,7.22-7.89Z"/><path class="cls-1" d="M648.18,442.33c-.35-.74-1.07-2.15-1.57-3.08l-2.06-3.81,3.87-2.14c1-.54,3.48-1.94,4.22-2.3"/><path class="cls-1" d="M654.47,424.81h0l-2.66,1.25c-1.61.81-3.72,1.91-5.77,3s-4.06,2.22-5.55,3.1L638,433.7s.59,1,1.46,2.43,2,3.51,3,5.5,2,4,2.77,5.44,1.16,2.55,1.16,2.55l.57-.32"/><path class="cls-1" d="M660,407.84s-2.67,1.05-5.32,2.3l-5.19,2.47,4.1,1.16c2.07.55,4.07,1.28,4.07,1.28"/><path class="cls-1" d="M663.2,397.6c-1.25.48-4.87,1.91-4.87,1.91s-5.28,2.25-10.23,4.61c-5,2.53-9.75,5.16-9.75,5.16l-1.68.93L633,412.43l-5.14,3.26,6.2,1.11c1.55.25,3.07.68,4.23.92l1.92.44.75.18s-3.93,2.19-7.65,4.54-7.28,4.91-7.28,4.91l-2,1.38-1.93,1.46s.7,1,1.41,1.91l1.37,2,2.72,4.07c1.61,2.38,3.62,5.71,5.45,9.05.93,1.66,1.82,3.3,2.62,4.85l2.08,4.35,1.89,4.2s1.84,3.92,2.25,5"/><path class="cls-1" d="M643.7,459.05s-.4-.83-.71-1.58-.78-1.85-1.37-3.1c-1.18-2.51-2.83-6-4.66-9.35s-3.84-6.67-5.42-9.2l-2.72-4.07,3.76-2.58c2.27-1.46,5.37-3.36,8.6-5.24s6.53-3.51,9.09-4.82l4.31-2.09-6.6-1.89c-1.65-.48-3.31-.92-4.57-1.18l-2.08-.49s4.73-2.7,9.7-5c2.48-1.17,5-2.32,7-3.17l3.67-1.51"/><path class="cls-1" d="M646.6,449.52c.8-.45,4.16-2.32,7.71-4.11,4-1.92,8.26-3.75,8.26-3.75s-1.76-4.19-3.76-8.49-4.48-8.54-4.48-8.54"/><path class="cls-1" d="M652.19,430.66c.95,2,4.09,8.53,4.09,8.53s-6.4,2.73-8.36,3.7"/><path class="cls-1" d="M657.64,415.05l4,1.37,2.78.94,1.24.49-.84-1.6c-.52-.93-1.23-2.17-1.93-3.41"/><path class="cls-1" d="M681.87,453.93a3.14,3.14,0,0,0-4.33,1.27,3.12,3.12,0,1,0,5.4,3.1A3.12,3.12,0,0,0,681.87,453.93Z"/><path class="cls-1" d="M678.74,439s.93,2.74,1.85,5.48c.45,1.34.84,2.74,1.13,3.78l.48,1.73a2.36,2.36,0,0,0,1.12,1.46,2.38,2.38,0,0,0,1.82.24s2.79-.77,5.58-1.34l5.68-1.15a2.33,2.33,0,0,0,1.87-2.85,2.68,2.68,0,0,0-3.06-2s-2.26.41-4.5.92l-4.48,1.1s-.64-2.21-1.29-4.41-1.43-4.39-1.43-4.39a2.67,2.67,0,0,0-3.23-1.65A2.32,2.32,0,0,0,678.74,439Z"/><path class="cls-1" d="M734,500.88a3.11,3.11,0,0,0-4.48-.6,3.27,3.27,0,0,0-.79,4.43,3.26,3.26,0,0,0,5.27-3.83Z"/><path class="cls-1" d="M737.22,485.93l-.58,5.79c-.17,1.41-.34,2.83-.47,3.89l-.25,1.76a2.45,2.45,0,0,0,.41,1.81,2.41,2.41,0,0,0,1.56,1l5.67,1c2.8.58,5.63,1.27,5.63,1.27a2.32,2.32,0,0,0,2.86-1.85,2.67,2.67,0,0,0-2-3.05s-2.29-.5-4.55-.94l-4.5-.84s.38-2.29.61-4.55.45-4.58.45-4.58a2.68,2.68,0,0,0-2.24-2.85A2.32,2.32,0,0,0,737.22,485.93Z"/><path class="cls-1" d="M762.55,564.92a3.26,3.26,0,1,0-2.58,3.73A3.15,3.15,0,0,0,762.55,564.92Z"/><path class="cls-1" d="M771.55,552.59s-.34.64-.86,1.59-1.23,2.21-2,3.45l-3,4.89a2.32,2.32,0,0,0-.31,1.8,2.59,2.59,0,0,0,1,1.52l4.67,3.25,4.72,3.44a2.32,2.32,0,0,0,3.37-.51,2.68,2.68,0,0,0-.64-3.57l-3.72-2.73c-1.82-1.35-3.75-2.61-3.75-2.61l2.36-3.89,2.34-4a2.6,2.6,0,0,0-.94-3.5A2.32,2.32,0,0,0,771.55,552.59Z"/><path class="cls-1" d="M661.23,404s3,4.78,5.63,9.59,4.94,9.71,4.94,9.71l-6.39-2.52c-1.58-.66-3.21-1.21-4.43-1.61l-2-.69,2.28,4.15c1.34,2.47,3,5.94,4.51,9.28s2.9,6.8,3.87,9.33,1.56,4.21,1.56,4.21l-4.63,1.77c-2.73,1.07-6.3,2.54-9.78,4.26s-6.79,3.36-9.26,4.81l-4,2.36"/><path class="cls-1" d="M641.4,465.66s5.32-3.82,7.75-5.18,5.74-3,9.22-4.7,7-3,9.72-4.1,4.57-1.66,4.57-1.66l4.54-1.51-1.48-4.59s-1.34-4.17-3-8.22L670.35,430c-.66-1.58-1.15-2.56-1.15-2.56l.72.29s.73.3,1.81.79l3.94,1.78c2.9,1.25,5.67,2.74,5.67,2.74s-.26-.72-.67-1.79-.95-2.53-1.56-3.91l-2.47-5.64s-2.22-5-4.87-9.87c-1.31-2.44-2.66-5-3.74-6.76s-5-8-5-8"/><path class="cls-1" d="M720.79,463.13s.13,1.17.22,3,.22,4.15.3,6.47.11,4.63.06,6.39-.06,2.88-.06,2.88l-2.85,0c-1.69,0-4,0-6.24.12s-4.49.23-6.13.34-2.76.24-2.76.24-.07-4.37-.33-8.92c-.12-2.28-.38-4.47-.55-6.19s-.32-2.84-.32-2.84l2.85-.35c1.71-.18,4.08-.49,6.38-.63C716,463.27,720.79,463.13,720.79,463.13ZM716.55,477s-.06-2.2-.11-4.39c-.05-1.12-.09-2.24-.12-3.07l-.1-1.38-4.45.25-4.36.33.28,4.37c.11,2.14.21,4.29.21,4.29l1.35-.11,2.94-.14Z"/><path class="cls-1" d="M732.73,449.87l-5.81,0-5.7.09,6.44,5.57c3.14,2.88,6.2,5.85,6.2,5.85s-.25-2.85-.49-5.7c-.15-1.44-.3-2.89-.41-4S732.73,449.87,732.73,449.87Z"/><path class="cls-1" d="M732.46,489.22l-.55,4.82-4.72-.49s-2-.16-4.91-.3-6.7-.32-10.57-.19-7.48.22-10.32.53l-4.61.47-2.19.27c-1.08.12-2.19.31-2.19.31l.12-4.41s0-1.87,0-4.66-.25-6.47-.55-10.32-.87-7.55-1.29-10.48-.83-4.81-.83-4.81l-1-4.67,4.73-1,2.69-.53,5.94-.94c2.18-.31,4.42-.62,6.09-.81l2.77-.25-.61-.48s-.6-.5-1.56-1.2l-3.52-2.51-3.54-2.5L700.23,444s3-.55,6-.89l6.14-.69,3.42-.32c2-.13,4.76-.28,7.55-.38s5.62-.18,7.7-.13l3.53.06,5.4.18s.23,1.32.4,2.67l.34,2.68s.17,1.41.41,3.51.56,4.84.7,7.66.3,5.54.37,7.58.08,3.4.08,3.4l-.08,6.19-.13,4.18c-.06,1.14-.09,1.89-.09,1.89s-.49-.62-1.27-1.5l-2.84-3.27c-2-2.42-4.23-4.66-4.23-4.66l-.53-.56s0,1.11,0,2.79,0,3.89-.14,6.12-.25,4.39-.34,6S732.46,489.22,732.46,489.22Zm-4.84-.4s.13-1.81.32-4.52.24-6.35.24-10.08-.17-7.47-.37-10.29l-.35-4.76,5,4.73c2.42,2.43,4.76,4.94,4.76,4.94l-.1-3.38c-.08-2-.17-4.81-.44-7.51s-.52-5.5-.76-7.59-.45-3.48-.45-3.48-5.67-.15-11.11-.07-10.9.6-10.9.6l5.39,4.24c2.64,2.18,5.21,4.45,5.21,4.45l-4.75.12c-2.79.06-6.6.36-10.28.72s-7.3.83-10,1.3l-4.44.76s.31,1.95.79,4.88.91,6.77,1.19,10.61.46,7.6.46,10.43,0,4.65,0,4.65l1.28-.17,3.35-.33c2.76-.23,6.65-.6,10.42-.63C719.71,488.18,727.62,488.82,727.62,488.82Z"/><path class="cls-1" d="M765.82,525.08s-1.48,4.48-3.35,8.83c-.89,2.17-1.81,4.29-2.51,5.85s-1.23,2.61-1.23,2.61-1-.51-2.59-1.19-3.69-1.58-5.77-2.41c-4.11-1.72-8.38-3.07-8.38-3.07l1.09-2.55c.63-1.53,1.53-3.65,2.25-5.73,1.51-4.19,2.91-8.63,2.91-8.63s4.33,1.31,8.79,2.87c2.26.75,4.38,1.64,6,2.29Zm-9.51,11s.86-2,1.73-4.08l1.54-4.12-4.13-1.59c-2-.78-4.13-1.46-4.13-1.46s-.69,2.05-1.5,4.09l-1.6,4,4.09,1.49Z"/><path class="cls-1" d="M782.11,517.82l-5.25-2.42c-1.3-.59-2.63-1.15-3.64-1.55l-1.67-.66,1.21,2.37c.67,1.46,1.55,3.4,2.43,5.34s1.76,3.89,2.32,5.39,1,2.48,1,2.48l1.92-5.44C781.31,520.6,782.11,517.82,782.11,517.82Z"/><path class="cls-1" d="M765.85,553.66l-1.18,2.09c-.57,1-1.22,2.07-1.22,2.07s-1-.61-2.08-1.2l-2.1-1.15a146.55,146.55,0,0,0-13.89-6.75c-3.42-1.52-7-2.79-9.65-3.7l-4.35-1.45-4.3-1.22,1.94-4s.84-1.68,1.87-4.22,2.5-6.07,3.7-9.66,2.34-7.3,3.09-10.12,1.16-4.71,1.16-4.71l1-4.69,4.69,1,2.66.62c1.62.37,3.77.9,5.86,1.52,4.21,1.2,8.55,2.61,8.55,2.61l-.39-.67-3.14-5.46c-.76-1.38-1.63-2.69-2.26-3.69l-1.07-1.65,5.92,1.6c2.91.89,5.85,1.89,5.85,1.89l3.24,1.1c2,.67,4.54,1.64,7.09,2.7s5.16,2.14,7.12,3,3.19,1.5,3.19,1.5L792,513.4l-1.42,5.16s-1.7,5.5-3.55,10.69c-.9,2.59-2,5.19-2.77,7.09L783,539.48s-.31.71-.76,1.77-1.11,2.46-1.79,3.85l-2.73,5.47L776,544.51l-2-6-.25-.74s-1.82,4.16-3.72,8.1S765.85,553.66,765.85,553.66Zm-4.21-2.35s.92-1.58,2.14-4,2.8-5.71,4.34-9.12,2.81-6.87,3.83-9.55,1.59-4.49,1.59-4.49.39.77.85,2l1.73,4.39c1.32,3.17,2.38,6.43,2.38,6.43s.53-1.25,1.32-3.14,1.67-4.42,2.6-7c1.9-5.21,3.37-10.6,3.37-10.6l-3.16-1.51c-1.88-.89-4.38-2-7-3.08s-5.1-2-7-2.75-3.18-1.14-3.18-1.14.45.73,1,1.88l2.15,4.2c1.62,3,3,6.18,3,6.18l-4.36-1.84c-2.68-1-6.22-2.33-9.7-3.51s-7.1-2.15-9.69-2.86l-3.15-.83-1.21-.28-.32,1.32-1,3.47c-.83,2.87-1.83,6.51-3.2,10.18a143.41,143.41,0,0,1-5.75,14l4.5,1.39c2.62.91,6.16,2.21,9.76,3.66s7,3.13,9.7,4.43c1.36.64,2.43,1.21,3.18,1.62Z"/><path class="cls-1" d="M762.49,600h0l3-3,3-3.13,3.18,3,3.19,3.14h0"/><path class="cls-1" d="M781.61,600.39c-1.64-1.62-9.92-10.27-11.25-11.41l-2.19-1.89-1.88,2.14c-1.1,1.27-9.11,9.15-10.73,10.77"/><path class="cls-1" d="M799.89,600.38c-1.95-2.09-8.09-8.89-8.09-8.89l-.17,17.34"/><path class="cls-1" d="M746.16,600l3.44-3.11c2-1.9,4.91-4.54,7.45-7.33s5.29-5.72,7.1-8l3.06-3.84s5.81,4.32,11.22,9.36c2.8,2.5,5.45,5.13,7.4,7.16l3.28,3.45s-.08-3.43-.17-6.85-.48-6.84-.48-6.84l2.44,2.34c1.45,1.42,10.67,11.4,12.49,13.4"/><path class="cls-1" d="M810.71,600.39s-4.7-5.58-6.1-7.17-3.22-3.64-5.22-5.64c-3.92-4-7.84-7.68-7.84-7.68l-4.66-4.1-4.65-3.9s.39,3.13.79,6.25c.2,1.56.41,3.12.47,4.3l.15,2,.06.78-2.06-1.89c-1.22-1.12-2.89-2.59-4.63-4-3.45-2.83-6.86-5.43-6.86-5.43s-1-.73-2-1.43l-2-1.39s-.7,1-1.39,1.93-1.42,1.9-1.42,1.9l-3.06,3.85c-1.85,2.27-4.26,5.18-6.94,8-5.12,5.6-14.51,13.3-14.51,13.3"/></svg>