<svg id="Layer_1" data-name="Layer 1" xmlns="http://www.w3.org/2000/svg" viewBox="0 0 1200 1200"><defs><style>.cls-1{fill:#2a273d;}</style></defs><path class="cls-1" d="M699.63,752.88a11.73,11.73,0,0,0-6.52-4.85,10,10,0,0,0-3.74-.36,8.41,8.41,0,0,0-3.54,1l1.89,3.27c3.34-1.83,6.61-1.24,9.12,2.72s1.54,7.41-2.08,9.45l1.89,3.27a10.09,10.09,0,0,0,3-2.76,10.58,10.58,0,0,0,1.56-3.73A10.69,10.69,0,0,0,699.63,752.88Z"/><path class="cls-1" d="M673.27,727A146,146,0,0,0,727,673.27a144.22,144.22,0,0,0,8.51-17.17c1.15-3,2.4-5.91,3.35-9,.48-1.52,1.09-3,1.49-4.55l1.3-4.6a150.24,150.24,0,0,0,5-38h4.22a.62.62,0,0,0-.29.15,168,168,0,0,1,29.55,29.31,192.33,192.33,0,0,0,34.34-29.28.43.43,0,0,0-.28-.18h4.34a222.83,222.83,0,0,1-7.43,56.53l-2,6.89c-.62,2.31-1.47,4.54-2.21,6.81-1.45,4.55-3.26,9-5,13.41a215.53,215.53,0,0,1-12.69,25.62,217.83,217.83,0,0,1-79.93,79.93l-2.09-3.62c.68-1.93,1.32-3.82,1.91-5.7s1.07-3.82,1.54-5.7c.93-3.76,1.76-7.36,2.35-11.09s1.13-7.27,1.52-10.88.65-7.26.9-10.82c-3.61-.54-7.08-1.18-10.47-1.89s-6.81-1.65-10.09-2.55-6.59-2-9.83-3l-4.83-1.62-4.86-1.8Zm88.8,15.18a189.77,189.77,0,0,1-42.84-.11A193.46,193.46,0,0,1,712,784.31a229.9,229.9,0,0,0,26.66-19.18A213.73,213.73,0,0,0,762.07,742.16Zm38.87-64a203.11,203.11,0,0,1-20.1,8.58,188,188,0,0,1-20.23,6,186.9,186.9,0,0,1,7.54,42.19,208,208,0,0,0,18.55-27.1c2.82-4.7,5.26-9.62,7.73-14.51C796.71,688.32,799,683.34,800.94,678.2Zm-18.31-46A184,184,0,0,1,794.3,649.8a198.54,198.54,0,0,1,9.88,19.49c1.85-5.16,3.26-10.47,4.73-15.76,1.25-5.34,2.55-10.68,3.41-16.09l.72-4.05c.23-1.36.37-2.72.55-4.08.34-2.72.73-5.43,1-8.16l.63-8.19c.24-2.72.2-5.46.3-8.19-2.61,2.68-5.08,5.26-7.83,7.75s-5.41,4.87-8.11,7.17-5.6,4.48-8.38,6.57c-1.41,1-2.77,2.08-4.22,3.07Zm-41.07,15.82a159,159,0,0,0,17.9-7.16,169.9,169.9,0,0,0,17.43-9.67l-3.12-4c-1-1.29-2.2-2.58-3.29-3.83-2.23-2.51-4.4-4.92-6.7-7.24s-4.7-4.57-7-6.71-4.9-4.21-7.32-6.16c-.09,1.9,0,3.81-.21,5.71l-.43,5.69c-.18,1.89-.48,3.77-.7,5.66-.13.94-.21,1.89-.37,2.83l-.51,2.8c-.57,3.76-1.51,7.43-2.34,11.14C743.79,640.8,742.87,644.48,741.56,648.05Zm0,3.47A164.09,164.09,0,0,1,759.2,689.2a188.22,188.22,0,0,0,42.35-15.82A187.59,187.59,0,0,0,779.29,634,163.81,163.81,0,0,1,741.52,651.52Zm-24.92,42a159.71,159.71,0,0,0,39-3.7,169.57,169.57,0,0,0-7.14-18.61,157.87,157.87,0,0,0-9.1-17c-1.3,3.57-2.94,7-4.49,10.46-1.74,3.37-3.39,6.8-5.36,10.05A143.31,143.31,0,0,1,716.6,693.51Zm-1.27,3.23a162.64,162.64,0,0,1,3.76,41.49,185.48,185.48,0,0,0,45.17-.41,189.28,189.28,0,0,0-7.4-44.55A165.64,165.64,0,0,1,715.33,696.74Zm-3,1.8a147,147,0,0,1-16.29,16,163.12,163.12,0,0,1-18.49,13.32,164.62,164.62,0,0,0,37.89,9.76A162.09,162.09,0,0,0,712.37,698.54Z"/><path class="cls-1" d="M733.16,724.74a12.08,12.08,0,0,1-3.65-7.27,8.93,8.93,0,0,1,2-7.14,9.36,9.36,0,0,1,6.65-3.25,12,12,0,0,1,7.85,2.4,10.61,10.61,0,0,1,4.24,7,9.75,9.75,0,0,1-2.19,7.76,9.93,9.93,0,0,1-7.23,3.52A11.23,11.23,0,0,1,733.16,724.74Zm2.27-2.42a6.63,6.63,0,0,0,9.79-.57c2.26-2.61,2.45-6.81-1.25-9.66s-7.46-1.78-9.52.62S732,719.11,735.43,722.32Z"/><path class="cls-1" d="M767.85,671.72a12.41,12.41,0,0,1-6-5.6,9.11,9.11,0,0,1,4.63-12.7,11.94,11.94,0,0,1,8.16-.45,10.64,10.64,0,0,1,6.41,5.12,10.21,10.21,0,0,1,.61,8.06,10,10,0,0,1-5.65,5.76A10.88,10.88,0,0,1,767.85,671.72Zm1.25-3.07a6.68,6.68,0,0,0,9.06-3.86,6.52,6.52,0,0,0-4.49-8.66c-4.49-1.42-7.72.85-8.72,3.85S764.81,666.79,769.1,668.65Z"/><path class="cls-1" d="M782.22,610c6,.27,10.93-3.87,11.09-9.86a1.26,1.26,0,0,0,0-.16h-3.77a7,7,0,0,1-14,0h-3.77a.49.49,0,0,0,0,.14C771.53,605.37,776.31,609.54,782.22,610Z"/><path class="cls-1" d="M517.42,762.74c2.66-5.36,1-11.45-3.25-14.06L512.28,752a6.22,6.22,0,0,1,3.13,3.84,7.42,7.42,0,0,1-.94,5.43,7.18,7.18,0,0,1-4.09,3.81,6.68,6.68,0,0,1-5.14-.91l-1.89,3.27C508.27,770.24,514.8,768,517.42,762.74Z"/><path class="cls-1" d="M526.73,727a144.22,144.22,0,0,0,17.17,8.51c3,1.15,5.91,2.4,9,3.35,1.52.48,3,1.09,4.55,1.49l4.61,1.3a147,147,0,0,0,75.94,0l4.61-1.3c1.55-.4,3-1,4.55-1.49,3.06-1,6-2.2,9-3.35A144.22,144.22,0,0,0,673.27,727l2.11,3.65a.49.49,0,0,0-.27-.17,160.65,160.65,0,0,1-10.57,40.26,183.92,183.92,0,0,0,42.54,15,.42.42,0,0,0,0-.33l2.17,3.75a215.53,215.53,0,0,1-25.62,12.69c-4.44,1.76-8.86,3.57-13.41,5-2.27.74-4.5,1.59-6.81,2.21l-6.89,2a218.76,218.76,0,0,1-113.06,0l-6.89-2c-2.31-.62-4.54-1.47-6.81-2.21-4.55-1.45-9-3.26-13.41-5a215.53,215.53,0,0,1-25.62-12.69l2.09-3.62c16.1-3,29.46-8.46,42.42-14.93-5.38-13.33-8.24-26.6-10.56-40.14ZM558,811.49a191.24,191.24,0,0,1-21.37-37.15,193,193,0,0,1-40.26,14.74,229.24,229.24,0,0,0,29.95,13.59A225.75,225.75,0,0,0,558,811.49Zm74.77,1.66A196.67,196.67,0,0,1,600,785.48a196.67,196.67,0,0,1-32.72,27.67,218,218,0,0,0,65.44,0Zm30.7-38.81a191.24,191.24,0,0,1-21.37,37.15,225.75,225.75,0,0,0,31.68-8.82,229.24,229.24,0,0,0,29.95-13.59A193,193,0,0,1,663.42,774.34Zm-34.21-27.71a163.33,163.33,0,0,0,32.22,22.23,164.13,164.13,0,0,0,10.41-37.73,164.24,164.24,0,0,1-20.72,9.4A159.5,159.5,0,0,1,629.21,746.63Zm-3,1.61a162,162,0,0,1-23.82,34.2,184.94,184.94,0,0,0,34.83,28.73,194.27,194.27,0,0,0,12.93-19.09q2.86-5,5.4-9.83c1.69-3.26,3.22-6.68,4.67-10-3.21-1.75-6.29-3.44-9.32-5.33s-6-3.85-8.79-5.81A159.15,159.15,0,0,1,626.17,748.24Zm-48.93-.46A167.33,167.33,0,0,0,600,779.65a167.33,167.33,0,0,0,22.76-31.87,151.45,151.45,0,0,1-45.52,0Zm-3.41.46a159.15,159.15,0,0,1-15.9,12.92q-4.23,2.94-8.79,5.81c-3,1.89-6.11,3.58-9.32,5.33,1.45,3.27,3,6.69,4.67,10s3.49,6.53,5.4,9.83a194.27,194.27,0,0,0,12.93,19.09,184.94,184.94,0,0,0,34.83-28.73A162,162,0,0,1,573.83,748.24Zm-3-1.61a159.5,159.5,0,0,1-21.91-6.1,164.24,164.24,0,0,1-20.72-9.4,164.13,164.13,0,0,0,10.41,37.73A163.33,163.33,0,0,0,570.79,746.63Z"/><path class="cls-1" d="M558.55,777.72c1.52-5.83,6.48-9.48,11.64-8.66a8.47,8.47,0,0,1,3.47,1.48,9.69,9.69,0,0,1,2.67,2.67,11.8,11.8,0,0,1,1.87,7.95,10.75,10.75,0,0,1-3.92,7.22,9.37,9.37,0,0,1-7.82,2C560.54,789.4,557.25,783.53,558.55,777.72Zm3.23.74c-1.93,9.28,11.94,11.8,13.13,2.28a7.14,7.14,0,0,0-1.27-5.48,6.47,6.47,0,0,0-8.72-1.5A7.37,7.37,0,0,0,561.78,778.46Z"/><path class="cls-1" d="M621.8,781.16a12.26,12.26,0,0,1,1.88-7.95,9.59,9.59,0,0,1,2.64-2.67,8.51,8.51,0,0,1,3.49-1.48c5.08-.81,10.22,2.8,11.64,8.66s-2.07,11.69-7.91,12.64a10.23,10.23,0,0,1-4.21-.12,10,10,0,0,1-3.59-1.87A11.1,11.1,0,0,1,621.8,781.16Zm3.29-.42c1.35,9.43,15.25,7,13.13-2.28a7.2,7.2,0,0,0-3.05-4.74,6.36,6.36,0,0,0-4.65-1,6.73,6.73,0,0,0-4.07,2.5A7.28,7.28,0,0,0,625.09,780.74Z"/><path class="cls-1" d="M682.43,762.81a11.22,11.22,0,0,0,6.13,5.46,9.26,9.26,0,0,0,8-.8.55.55,0,0,0,.13-.09l-1.89-3.27a7.08,7.08,0,0,1-4.79.81,6.81,6.81,0,0,1-4.77-3.52,7.13,7.13,0,0,1-.35-5.83,6.63,6.63,0,0,1,2.88-3.61l-1.89-3.27-.13.06a9.3,9.3,0,0,0-4.28,6A12.33,12.33,0,0,0,682.43,762.81Z"/><path class="cls-1" d="M417.77,609.85c5.89-.37,10.6-4.91,10.53-9.85h-3.78c.09,3.81-2.18,6.35-6.86,6.54s-7.07-2.39-7.19-6.54h-3.78A10.34,10.34,0,0,0,417.77,609.85Z"/><path class="cls-1" d="M453.38,600a150.24,150.24,0,0,0,5,38l1.3,4.6c.4,1.55,1,3,1.49,4.55.95,3.06,2.2,6,3.35,9A144.22,144.22,0,0,0,473,673.27,146,146,0,0,0,526.73,727l-2.11,3.65a.57.57,0,0,0,0-.32,163.58,163.58,0,0,1-40.19,10.93,187.55,187.55,0,0,0,8.17,44.36.5.5,0,0,0,.3-.16l-2.17,3.75a217.83,217.83,0,0,1-79.93-79.93,215.53,215.53,0,0,1-12.69-25.62c-1.76-4.44-3.57-8.86-5-13.41-.74-2.27-1.59-4.5-2.21-6.81l-2-6.89A222.83,222.83,0,0,1,381.5,600h4.19c10.69,12.41,22.22,21.23,34.17,29.24,9-11.33,18.93-20.41,29.45-29.24Zm-57.56,69.29a198.54,198.54,0,0,1,9.88-19.49,184,184,0,0,1,11.67-17.57l-4.34-2.9c-1.45-1-2.81-2-4.22-3.07-2.78-2.09-5.64-4.28-8.38-6.57s-5.4-4.69-8.11-7.17-5.22-5.07-7.83-7.75c.1,2.73.06,5.47.3,8.19l.63,8.19c.26,2.73.65,5.44,1,8.16.18,1.36.32,2.72.55,4.08l.72,4.05c.86,5.41,2.16,10.75,3.41,16.09C392.56,658.82,394,664.13,395.82,669.29Zm36,65.63a186.9,186.9,0,0,1,7.54-42.19,188,188,0,0,1-20.23-6,203.11,203.11,0,0,1-20.1-8.58c1.92,5.14,4.23,10.12,6.51,15.11,2.47,4.89,4.91,9.81,7.73,14.51A208,208,0,0,0,431.85,734.92Zm48.92,7.13a189.77,189.77,0,0,1-42.84.11,213.73,213.73,0,0,0,23.45,23A229.9,229.9,0,0,0,488,784.31,193.46,193.46,0,0,1,480.77,742.05Zm6.86-43.51a162.09,162.09,0,0,0-3.11,39,164.62,164.62,0,0,0,37.89-9.76,163.12,163.12,0,0,1-18.49-13.32A147,147,0,0,1,487.63,698.54Zm-3-1.8a165.64,165.64,0,0,1-41.53-3.47,189.28,189.28,0,0,0-7.4,44.55,185.48,185.48,0,0,0,45.17.41A162.64,162.64,0,0,1,484.67,696.74Zm-24-42.54a157.87,157.87,0,0,0-9.1,17,169.57,169.57,0,0,0-7.14,18.61,160.21,160.21,0,0,0,39,3.7,143.31,143.31,0,0,1-12.87-18.8c-2-3.25-3.62-6.68-5.36-10.05C463.62,661.2,462,657.77,460.68,654.2Zm-2.2-2.68A163.81,163.81,0,0,1,420.71,634a187.59,187.59,0,0,0-22.26,39.35A188.22,188.22,0,0,0,440.8,689.2,164.09,164.09,0,0,1,458.48,651.52Zm0-3.47c-1.31-3.57-2.23-7.25-3.29-10.89-.83-3.71-1.77-7.38-2.34-11.14l-.51-2.8c-.16-.94-.24-1.89-.37-2.83-.22-1.89-.52-3.77-.7-5.66L450.8,609c-.2-1.9-.12-3.81-.21-5.71-2.42,1.95-5,4-7.32,6.16s-4.7,4.37-7,6.71-4.47,4.73-6.7,7.24c-1.09,1.25-2.24,2.54-3.29,3.83l-3.12,4a169.9,169.9,0,0,0,17.43,9.67A159,159,0,0,0,458.44,648.05Z"/><path class="cls-1" d="M425.33,653c5.71-1.56,11.63.84,13.3,5.78a9.08,9.08,0,0,1-.5,7.38,12,12,0,0,1-6,5.59,10.56,10.56,0,0,1-8.19.2,10.09,10.09,0,0,1-5.65-5.77C416.38,660.47,419.55,654.78,425.33,653Zm1,3.16a6.69,6.69,0,0,0-4.45,8.78,6.51,6.51,0,0,0,9,3.74c4.35-1.8,5.34-5.6,4.19-8.55S430.81,654.81,426.33,656.13Z"/><path class="cls-1" d="M454,709.48a12.43,12.43,0,0,1,7.85-2.39,9.27,9.27,0,0,1,6.65,3.24,9.05,9.05,0,0,1,2,7.15,11.71,11.71,0,0,1-3.66,7.26,10.87,10.87,0,0,1-7.68,3,10.05,10.05,0,0,1-7.23-3.53,9.63,9.63,0,0,1-2.19-7.75A11,11,0,0,1,454,709.48Zm2,2.61a6.62,6.62,0,0,0-1.17,9.76,6.47,6.47,0,0,0,9.71.47c3.47-3.18,3.14-7.13,1.06-9.51S459.81,709.28,456,712.09Z"/><path class="cls-1" d="M500.23,752.79a11.14,11.14,0,0,0-1.67,8,9.7,9.7,0,0,0,1.52,3.71,9.85,9.85,0,0,0,3.13,2.79.66.66,0,0,0,.15.07l1.89-3.27a6.92,6.92,0,0,1-2.42-9.65,7.06,7.06,0,0,1,4.89-3.2,6.84,6.84,0,0,1,4.56.7l1.89-3.27a.5.5,0,0,0-.12-.08,8.48,8.48,0,0,0-3.61-1.11,9.24,9.24,0,0,0-3.71.37A12.34,12.34,0,0,0,500.23,752.79Z"/><path class="cls-1" d="M500.37,447.12a11.73,11.73,0,0,0,6.52,4.85,10,10,0,0,0,3.74.36,8.41,8.41,0,0,0,3.54-1l-1.89-3.27c-3.34,1.83-6.61,1.24-9.12-2.72s-1.54-7.41,2.08-9.45l-1.89-3.27a10.09,10.09,0,0,0-3,2.76,10.58,10.58,0,0,0-1.56,3.73A10.69,10.69,0,0,0,500.37,447.12Z"/><path class="cls-1" d="M526.73,473A146,146,0,0,0,473,526.73a144.22,144.22,0,0,0-8.51,17.17c-1.15,3-2.4,5.91-3.35,9-.48,1.52-1.09,3-1.49,4.55l-1.3,4.6a150.24,150.24,0,0,0-5,38h-4.22a.62.62,0,0,0,.29-.15,168,168,0,0,1-29.55-29.31,192.33,192.33,0,0,0-34.34,29.28.43.43,0,0,0,.28.18H381.5a222.83,222.83,0,0,1,7.43-56.53l2-6.89c.62-2.31,1.47-4.54,2.21-6.81,1.45-4.55,3.26-9,5-13.41a215.53,215.53,0,0,1,12.69-25.62,217.83,217.83,0,0,1,79.93-79.93l2.09,3.62c-.68,1.93-1.32,3.82-1.91,5.7s-1.07,3.82-1.54,5.7c-.93,3.76-1.76,7.36-2.35,11.09s-1.13,7.27-1.52,10.88-.65,7.26-.9,10.82c3.61.54,7.08,1.18,10.47,1.89s6.81,1.65,10.09,2.55,6.59,2,9.83,3l4.83,1.62,4.86,1.8Zm-88.8-15.18a189.77,189.77,0,0,1,42.84.11A193.46,193.46,0,0,1,488,415.69a229.9,229.9,0,0,0-26.66,19.18A213.73,213.73,0,0,0,437.93,457.84Zm-38.87,64a203.11,203.11,0,0,1,20.1-8.58,188,188,0,0,1,20.23-6,186.9,186.9,0,0,1-7.54-42.19,208,208,0,0,0-18.55,27.1c-2.82,4.7-5.26,9.62-7.73,14.51C403.29,511.68,401,516.66,399.06,521.8Zm18.31,46A184,184,0,0,1,405.7,550.2a198.54,198.54,0,0,1-9.88-19.49c-1.85,5.16-3.26,10.47-4.73,15.76-1.25,5.34-2.55,10.68-3.41,16.09l-.72,4.05c-.23,1.36-.37,2.72-.55,4.08-.34,2.72-.73,5.43-1,8.16l-.63,8.19c-.24,2.72-.2,5.46-.3,8.19,2.61-2.68,5.08-5.26,7.83-7.75s5.41-4.87,8.11-7.17,5.6-4.48,8.38-6.57c1.41-1,2.77-2.08,4.22-3.07ZM458.44,552a159,159,0,0,0-17.9,7.16,169.9,169.9,0,0,0-17.43,9.67l3.12,4c1,1.29,2.2,2.58,3.29,3.83,2.23,2.51,4.4,4.92,6.7,7.24s4.7,4.57,7,6.71,4.9,4.21,7.32,6.16c.09-1.9,0-3.81.21-5.71l.43-5.69c.18-1.89.48-3.77.7-5.66.13-.94.21-1.89.37-2.83l.51-2.8c.57-3.76,1.51-7.43,2.34-11.14C456.21,559.2,457.13,555.52,458.44,552Zm0-3.47A164.09,164.09,0,0,1,440.8,510.8a188.22,188.22,0,0,0-42.35,15.82A187.59,187.59,0,0,0,420.71,566,163.81,163.81,0,0,1,458.48,548.48Zm24.92-42a159.71,159.71,0,0,0-39,3.7,169.57,169.57,0,0,0,7.14,18.61,157.87,157.87,0,0,0,9.1,17c1.3-3.57,2.94-7,4.49-10.46,1.74-3.37,3.39-6.8,5.36-10.05A143.31,143.31,0,0,1,483.4,506.49Zm1.27-3.23a162.64,162.64,0,0,1-3.76-41.49,185.48,185.48,0,0,0-45.17.41,189.28,189.28,0,0,0,7.4,44.55A165.64,165.64,0,0,1,484.67,503.26Zm3-1.8a147,147,0,0,1,16.29-16,163.12,163.12,0,0,1,18.49-13.32,164.62,164.62,0,0,0-37.89-9.76A162.09,162.09,0,0,0,487.63,501.46Z"/><path class="cls-1" d="M466.84,475.26a12.08,12.08,0,0,1,3.65,7.27,8.93,8.93,0,0,1-2,7.14,9.36,9.36,0,0,1-6.65,3.25,12,12,0,0,1-7.85-2.4,10.61,10.61,0,0,1-4.24-7,9.75,9.75,0,0,1,2.19-7.76,9.93,9.93,0,0,1,7.23-3.52A11.23,11.23,0,0,1,466.84,475.26Zm-2.27,2.42a6.63,6.63,0,0,0-9.79.57c-2.26,2.61-2.45,6.81,1.25,9.66s7.46,1.78,9.52-.62S468,480.89,464.57,477.68Z"/><path class="cls-1" d="M432.15,528.28a12.41,12.41,0,0,1,6,5.6,9.11,9.11,0,0,1-4.63,12.7,11.94,11.94,0,0,1-8.16.45,10.64,10.64,0,0,1-6.41-5.12,10.21,10.21,0,0,1-.61-8.06,10,10,0,0,1,5.65-5.76A10.88,10.88,0,0,1,432.15,528.28Zm-1.25,3.07a6.68,6.68,0,0,0-9.06,3.86,6.52,6.52,0,0,0,4.49,8.66c4.49,1.42,7.72-.85,8.72-3.85S435.19,533.21,430.9,531.35Z"/><path class="cls-1" d="M417.78,590c-6-.27-10.93,3.87-11.09,9.86a1.26,1.26,0,0,0,0,.16h3.77a7,7,0,0,1,14,0h3.77a.49.49,0,0,0,0-.14C428.47,594.63,423.69,590.46,417.78,590Z"/><path class="cls-1" d="M682.58,437.26c-2.66,5.36-1,11.45,3.25,14.06l1.89-3.27a6.22,6.22,0,0,1-3.13-3.84,7.42,7.42,0,0,1,.94-5.43,7.18,7.18,0,0,1,4.09-3.81,6.68,6.68,0,0,1,5.14.91l1.89-3.27C691.73,429.76,685.2,432,682.58,437.26Z"/><path class="cls-1" d="M673.27,473a144.22,144.22,0,0,0-17.17-8.51c-3-1.15-5.91-2.4-9-3.35-1.52-.48-3-1.09-4.55-1.49l-4.61-1.3a147,147,0,0,0-75.94,0l-4.61,1.3c-1.55.4-3,1-4.55,1.49-3.06.95-6,2.2-9,3.35A144.22,144.22,0,0,0,526.73,473l-2.11-3.65a.49.49,0,0,0,.27.17,160.65,160.65,0,0,1,10.57-40.26,183.92,183.92,0,0,0-42.54-15,.42.42,0,0,0,0,.33l-2.17-3.75a215.53,215.53,0,0,1,25.62-12.69c4.44-1.76,8.86-3.57,13.41-5,2.27-.74,4.5-1.59,6.81-2.21l6.89-2a218.76,218.76,0,0,1,113.06,0l6.89,2c2.31.62,4.54,1.47,6.81,2.21,4.55,1.45,9,3.26,13.41,5a215.53,215.53,0,0,1,25.62,12.69l-2.09,3.62c-16.1,3-29.46,8.46-42.42,14.93,5.38,13.33,8.24,26.6,10.56,40.14Zm-31.22-84.51a191.24,191.24,0,0,1,21.37,37.15,193,193,0,0,1,40.26-14.74,229.24,229.24,0,0,0-29.95-13.59A225.75,225.75,0,0,0,642.05,388.51Zm-74.77-1.66A196.67,196.67,0,0,1,600,414.52a196.67,196.67,0,0,1,32.72-27.67,218,218,0,0,0-65.44,0Zm-30.7,38.81A191.24,191.24,0,0,1,558,388.51a225.75,225.75,0,0,0-31.68,8.82,229.24,229.24,0,0,0-29.95,13.59A193,193,0,0,1,536.58,425.66Zm34.21,27.71a163.33,163.33,0,0,0-32.22-22.23,164.13,164.13,0,0,0-10.41,37.73,164.24,164.24,0,0,1,20.72-9.4A159.5,159.5,0,0,1,570.79,453.37Zm3-1.61a162,162,0,0,1,23.82-34.2,184.94,184.94,0,0,0-34.83-28.73,194.27,194.27,0,0,0-12.93,19.09q-2.86,4.95-5.4,9.83c-1.69,3.26-3.22,6.68-4.67,9.95,3.21,1.75,6.29,3.44,9.32,5.33s6,3.85,8.79,5.81A159.15,159.15,0,0,1,573.83,451.76Zm48.93.46A167.33,167.33,0,0,0,600,420.35a167.33,167.33,0,0,0-22.76,31.87,151.45,151.45,0,0,1,45.52,0Zm3.41-.46a159.15,159.15,0,0,1,15.9-12.92q4.23-2.94,8.79-5.81c3-1.89,6.11-3.58,9.32-5.33-1.45-3.27-3-6.69-4.67-9.95s-3.49-6.53-5.4-9.83a194.27,194.27,0,0,0-12.93-19.09,184.94,184.94,0,0,0-34.83,28.73A162,162,0,0,1,626.17,451.76Zm3,1.61a159.5,159.5,0,0,1,21.91,6.1,164.24,164.24,0,0,1,20.72,9.4,164.13,164.13,0,0,0-10.41-37.73A163.33,163.33,0,0,0,629.21,453.37Z"/><path class="cls-1" d="M641.45,422.28c-1.52,5.83-6.48,9.48-11.64,8.66a8.47,8.47,0,0,1-3.47-1.48,9.69,9.69,0,0,1-2.67-2.67,11.8,11.8,0,0,1-1.87-8,10.75,10.75,0,0,1,3.92-7.22,9.37,9.37,0,0,1,7.82-2C639.46,410.6,642.75,416.47,641.45,422.28Zm-3.23-.74c1.93-9.28-11.94-11.8-13.13-2.28a7.14,7.14,0,0,0,1.27,5.48,6.47,6.47,0,0,0,8.72,1.5A7.37,7.37,0,0,0,638.22,421.54Z"/><path class="cls-1" d="M578.2,418.84a12.26,12.26,0,0,1-1.88,8,9.59,9.59,0,0,1-2.64,2.67,8.51,8.51,0,0,1-3.49,1.48c-5.08.81-10.22-2.8-11.64-8.66s2.07-11.69,7.91-12.64a10.23,10.23,0,0,1,4.21.12,10,10,0,0,1,3.59,1.87A11.1,11.1,0,0,1,578.2,418.84Zm-3.29.42c-1.35-9.43-15.25-7-13.13,2.28a7.2,7.2,0,0,0,3.05,4.74,6.36,6.36,0,0,0,4.65,1,6.73,6.73,0,0,0,4.07-2.5A7.28,7.28,0,0,0,574.91,419.26Z"/><path class="cls-1" d="M517.57,437.19a11.22,11.22,0,0,0-6.13-5.46,9.26,9.26,0,0,0-7.95.8.55.55,0,0,0-.13.09l1.89,3.27a7.08,7.08,0,0,1,4.79-.81,6.81,6.81,0,0,1,4.77,3.52,7.13,7.13,0,0,1,.35,5.83,6.63,6.63,0,0,1-2.88,3.61l1.89,3.27.13-.06a9.3,9.3,0,0,0,4.28-6A12.33,12.33,0,0,0,517.57,437.19Z"/><path class="cls-1" d="M782.23,590.15c-5.89.37-10.6,4.91-10.53,9.85h3.78c-.09-3.81,2.18-6.35,6.86-6.54s7.07,2.39,7.19,6.54h3.78A10.34,10.34,0,0,0,782.23,590.15Z"/><path class="cls-1" d="M746.62,600a150.24,150.24,0,0,0-5-38l-1.3-4.6c-.4-1.55-1-3-1.49-4.55-1-3.06-2.2-6-3.35-9A144.22,144.22,0,0,0,727,526.73,146,146,0,0,0,673.27,473l2.11-3.65a.57.57,0,0,0,0,.32,163.58,163.58,0,0,1,40.19-10.93,187.55,187.55,0,0,0-8.17-44.36.5.5,0,0,0-.3.16l2.17-3.75a217.83,217.83,0,0,1,79.93,79.93,215.53,215.53,0,0,1,12.69,25.62c1.76,4.44,3.57,8.86,5,13.41.74,2.27,1.59,4.5,2.21,6.81l2,6.89A222.83,222.83,0,0,1,818.5,600h-4.19c-10.69-12.41-22.22-21.23-34.17-29.24-9,11.33-18.93,20.41-29.45,29.24Zm57.56-69.29a198.54,198.54,0,0,1-9.88,19.49,184,184,0,0,1-11.67,17.57l4.34,2.9c1.45,1,2.81,2,4.22,3.07,2.78,2.09,5.64,4.28,8.38,6.57s5.4,4.69,8.11,7.17,5.22,5.07,7.83,7.75c-.1-2.73-.06-5.47-.3-8.19l-.63-8.19c-.26-2.73-.65-5.44-1-8.16-.18-1.36-.32-2.72-.55-4.08l-.72-4.05c-.86-5.41-2.16-10.75-3.41-16.09C807.44,541.18,806,535.87,804.18,530.71Zm-36-65.63a186.9,186.9,0,0,1-7.54,42.19,188,188,0,0,1,20.23,6,203.11,203.11,0,0,1,20.1,8.58c-1.92-5.14-4.23-10.12-6.51-15.11-2.47-4.89-4.91-9.81-7.73-14.51A208,208,0,0,0,768.15,465.08ZM719.23,458a189.77,189.77,0,0,1,42.84-.11,213.73,213.73,0,0,0-23.45-23A229.9,229.9,0,0,0,712,415.69,193.46,193.46,0,0,1,719.23,458Zm-6.86,43.51a162.09,162.09,0,0,0,3.11-39,164.62,164.62,0,0,0-37.89,9.76,163.12,163.12,0,0,1,18.49,13.32A147,147,0,0,1,712.37,501.46Zm3,1.8a165.64,165.64,0,0,1,41.53,3.47,189.28,189.28,0,0,0,7.4-44.55,185.48,185.48,0,0,0-45.17-.41A162.64,162.64,0,0,1,715.33,503.26Zm24,42.54a157.87,157.87,0,0,0,9.1-17,169.57,169.57,0,0,0,7.14-18.61,160.21,160.21,0,0,0-39-3.7,143.31,143.31,0,0,1,12.87,18.8c2,3.25,3.62,6.68,5.36,10.05C736.38,538.8,738,542.23,739.32,545.8Zm2.2,2.68A163.81,163.81,0,0,1,779.29,566a187.59,187.59,0,0,0,22.26-39.35A188.22,188.22,0,0,0,759.2,510.8,164.09,164.09,0,0,1,741.52,548.48Zm0,3.47c1.31,3.57,2.23,7.25,3.29,10.89.83,3.71,1.77,7.38,2.34,11.14l.51,2.8c.16.94.24,1.89.37,2.83.22,1.89.52,3.77.7,5.66l.43,5.69c.2,1.9.12,3.81.21,5.71,2.42-1.95,5-4,7.32-6.16s4.7-4.37,7-6.71,4.47-4.73,6.7-7.24c1.09-1.25,2.24-2.54,3.29-3.83l3.12-4a169.9,169.9,0,0,0-17.43-9.67A159,159,0,0,0,741.56,552Z"/><path class="cls-1" d="M774.67,547c-5.71,1.56-11.63-.84-13.3-5.78a9.08,9.08,0,0,1,.5-7.38,12,12,0,0,1,6-5.59,10.56,10.56,0,0,1,8.19-.2,10.09,10.09,0,0,1,5.65,5.77C783.62,539.53,780.45,545.22,774.67,547Zm-1-3.16a6.69,6.69,0,0,0,4.45-8.78,6.51,6.51,0,0,0-9-3.74c-4.35,1.8-5.34,5.6-4.19,8.55S769.19,545.19,773.67,543.87Z"/><path class="cls-1" d="M746,490.52a12.43,12.43,0,0,1-7.85,2.39,9.27,9.27,0,0,1-6.65-3.24,9.05,9.05,0,0,1-2-7.15,11.71,11.71,0,0,1,3.66-7.26,10.87,10.87,0,0,1,7.68-3,10.05,10.05,0,0,1,7.23,3.53,9.63,9.63,0,0,1,2.19,7.75A11,11,0,0,1,746,490.52Zm-2-2.61a6.62,6.62,0,0,0,1.17-9.76,6.47,6.47,0,0,0-9.71-.47c-3.47,3.18-3.14,7.13-1.06,9.51S740.19,490.72,744,487.91Z"/><path class="cls-1" d="M699.77,447.21a11.14,11.14,0,0,0,1.67-8,9.7,9.7,0,0,0-1.52-3.71,9.85,9.85,0,0,0-3.13-2.79.66.66,0,0,0-.15-.07l-1.89,3.27a6.92,6.92,0,0,1,2.42,9.65,7.06,7.06,0,0,1-4.89,3.2,6.84,6.84,0,0,1-4.56-.7l-1.89,3.27a.5.5,0,0,0,.12.08,8.48,8.48,0,0,0,3.61,1.11,9.24,9.24,0,0,0,3.71-.37A12.34,12.34,0,0,0,699.77,447.21Z"/></svg>