<svg id="Layer_1" data-name="Layer 1" xmlns="http://www.w3.org/2000/svg" viewBox="0 0 1200 1200"><defs><style>.cls-1{fill:#1d0d1c;}.cls-2{fill:#100b0c;}</style></defs><path class="cls-1" d="M544.82,469.34a137.42,137.42,0,0,0-56.69,43.31,145,145,0,0,0-18.35,31.77,3.13,3.13,0,0,0-1.15,2.79c-13.5,34.06-13.88,72.49,0,106.61a3.28,3.28,0,0,0,.54,1.29,136,136,0,0,0,11.88,22.31c17.33,26.28,42.7,46.88,72.67,57.09A143.86,143.86,0,0,0,600.24,742v-4.94a140.88,140.88,0,0,1-49.78-9.67c4.78-10.47,10.31-21,18.62-29,8.49-8.21,19.45-11.92,31.16-11.91v-9.67h0a2,2,0,0,1-2-2,2,2,0,0,1,2-2h0v-3.92a5.06,5.06,0,0,0-4.51,2.75,6.47,6.47,0,0,0-.7,2.88,6,6,0,0,0-.77-1.71,5.13,5.13,0,0,0-5-2.32,5,5,0,0,0-4.09,3.46,6.43,6.43,0,0,0-.2,3.31,6.52,6.52,0,0,0-1.67-2.17,5.06,5.06,0,0,0-8.41,3.79,6.63,6.63,0,0,0,.57,2.7,5.82,5.82,0,0,0-1.75-1.39,5,5,0,0,0-7.38,5.45,6.24,6.24,0,0,0,1,2.49l0,0a5.86,5.86,0,0,0-6.06-2.5s0,0,0,0a6.47,6.47,0,0,0,2.44-1,5.06,5.06,0,0,0-1.23-9.1,5.9,5.9,0,0,0-2.31-.28,6.26,6.26,0,0,0,2.39-1.6,5.09,5.09,0,0,0,1.08-5.28,5.15,5.15,0,0,0-4.52-3.27,6.21,6.21,0,0,0-2.61.37,6.57,6.57,0,0,0,2.16-2.4,5.06,5.06,0,0,0-5.52-7.34,5.72,5.72,0,0,0-1.84.68,6.6,6.6,0,0,0,1.49-2.35,5.06,5.06,0,0,0-6.51-6.51,6.46,6.46,0,0,0-2.35,1.49,6,6,0,0,0,.67-1.84,5.06,5.06,0,0,0-7.33-5.53,6.6,6.6,0,0,0-2.4,2.17,6.23,6.23,0,0,0,.37-2.61A5.15,5.15,0,0,0,532,636.7a5.09,5.09,0,0,0-5.28,1.08,6.08,6.08,0,0,0-1.6,2.39,6.36,6.36,0,0,0-.22-2.16,5.1,5.1,0,0,0-3.91-3.62,5,5,0,0,0-5,2,6.39,6.39,0,0,0-1.18,2.7h-.06a5.83,5.83,0,0,0-2.51-6l0,0a6.24,6.24,0,0,0,2.49,1,5,5,0,0,0,5.45-7.38,6,6,0,0,0-1.39-1.75,6.47,6.47,0,0,0,2.7.56,5.07,5.07,0,0,0,4.48-2.7,5.12,5.12,0,0,0-.69-5.7,6.4,6.4,0,0,0-2.18-1.67,6.69,6.69,0,0,0,3.17-.14,5.09,5.09,0,0,0,3.61-4.16,5,5,0,0,0-2.06-4.8,5.87,5.87,0,0,0-2-1,6.26,6.26,0,0,0,2.9-.7,5,5,0,0,0,0-9,6.45,6.45,0,0,0-2.88-.69,6,6,0,0,0,1.71-.78,5.12,5.12,0,0,0,2.32-5,5.07,5.07,0,0,0-3.46-4.1,6.43,6.43,0,0,0-3.31-.2,6.36,6.36,0,0,0,2.17-1.67,5.05,5.05,0,0,0-3.79-8.4,6.32,6.32,0,0,0-2.7.57,5.86,5.86,0,0,0,1.39-1.76,5,5,0,0,0-5.45-7.38,6.39,6.39,0,0,0-2.49,1l0,0a6.3,6.3,0,0,0,2.17-2.63,6.23,6.23,0,0,0,.33-3.43h.05a6.26,6.26,0,0,0,1,2.43,5.13,5.13,0,0,0,5.25,2.25,5.07,5.07,0,0,0,3.85-3.47,6,6,0,0,0,.28-2.32,6.18,6.18,0,0,0,1.6,2.4,5.08,5.08,0,0,0,5.28,1.07,5.15,5.15,0,0,0,3.27-4.51,6.27,6.27,0,0,0-.37-2.62,6.52,6.52,0,0,0,2.4,2.17,5.06,5.06,0,0,0,7.33-5.53,5.74,5.74,0,0,0-.67-1.83,6.57,6.57,0,0,0,2.35,1.48,5.05,5.05,0,0,0,6.51-6.5,6.55,6.55,0,0,0-1.49-2.36,5.72,5.72,0,0,0,1.84.68,5.06,5.06,0,0,0,5.52-7.33,6.41,6.41,0,0,0-2.16-2.4,6.54,6.54,0,0,0,2.61.37,5.06,5.06,0,0,0,3.44-8.56,6.37,6.37,0,0,0-2.39-1.6,6.12,6.12,0,0,0,2.16-.22,5.06,5.06,0,0,0,1.65-8.95,6.51,6.51,0,0,0-2.7-1.18v0a6.2,6.2,0,0,0,3.42-.34A6.09,6.09,0,0,0,567.3,512l0,0a6.2,6.2,0,0,0-1,2.48,5.05,5.05,0,0,0,7.38,5.46,6,6,0,0,0,1.75-1.4,6.52,6.52,0,0,0-.57,2.71,5.05,5.05,0,0,0,8.41,3.78,6.4,6.4,0,0,0,1.67-2.18,6.68,6.68,0,0,0,.14,3.17,5.06,5.06,0,0,0,9,1.56,6,6,0,0,0,1-2,6.19,6.19,0,0,0,.7,2.89,5.11,5.11,0,0,0,4.51,2.79v-3.95h0a2,2,0,0,1,0-4h0v-9.68c-11.72,0-22.65-3.69-31.16-11.9-8.31-8-13.84-18.57-18.62-29a133,133,0,0,1,49.78-9.21V458a146.71,146.71,0,0,0-53.18,10.43A3.3,3.3,0,0,0,544.82,469.34Zm45.27,205h.09a2,2,0,1,1,0,4h-.09a2,2,0,0,1,0-4Zm-10,3.64h.09a2,2,0,0,1,0,4h-.09a2,2,0,1,1,0-4Zm-8.57,5.35h.08a2,2,0,1,1,0,4h-.08a2,2,0,0,1,0-4Zm18.55-161.48h.09a2,2,0,1,1,0,4h-.09a2,2,0,0,1,0-4Zm-10-3.63h.09a2,2,0,0,1,0,4h-.09a2,2,0,0,1,0-4Zm-8.57-5.36h.08a2,2,0,0,1,0,4h-.08a2,2,0,0,1,0-4Zm-8.95,177.24.18,0,.11,0A2.07,2.07,0,0,1,564.2,692a2,2,0,0,1-2,2,2.13,2.13,0,0,1-1.51-.62,2,2,0,0,1,0-2.82A1.92,1.92,0,0,1,562.59,690.08Zm-1-10.91.07.06a2,2,0,0,1-2.82,2.81l-.06-.06a2,2,0,0,1,2.81-2.81Zm-5.08-9.85a2,2,0,0,1,2.81,0l.06.06a2,2,0,1,1-2.81,2.81l-.06-.06A2,2,0,0,1,556.53,669.32Zm-4.5-9.63a2,2,0,0,1,2.82,0l.06.06a2,2,0,0,1-2.81,2.81l-.07-.06A2,2,0,0,1,552,659.69ZM546,651.46a2,2,0,0,1,2.81,0l.06.07a2,2,0,0,1-2.81,2.81l-.06-.06A2,2,0,0,1,546,651.46Zm-8.23-6.06a2,2,0,0,1,2.82,0l.06.06a2,2,0,0,1-2.81,2.81l-.07-.06A2,2,0,0,1,537.74,645.4Zm-9.62-4.49a2,2,0,0,1,2.81,0l.06.06a2,2,0,1,1-2.81,2.81l-.06-.06A2,2,0,0,1,528.12,640.91Zm-9.85-2.28a2,2,0,0,1,2.81,0l.06.06a2,2,0,1,1-2.81,2.82l-.06-.07A2,2,0,0,1,518.27,638.63Zm20.89,22.52c8.33,8.31,13.44,18.73,13.61,30.6.17,11.53-3.37,22.84-7.38,33.59a133.09,133.09,0,0,1-47.24-34,136.45,136.45,0,0,1-23.1-36.48c10.72-4,22-7.52,33.51-7.36C520.44,647.71,530.82,652.83,539.16,661.15Zm-32.87-23a2,2,0,0,1,2-2,1.93,1.93,0,0,1,1.69,1l.08.15.06.12a2.07,2.07,0,0,1-.38,2.25,2,2,0,0,1-2.82,0A2.13,2.13,0,0,1,506.29,638.1ZM517,628.77a2,2,0,0,1-4,0v-.09a2,2,0,0,1,4,0Zm9-18.64v.09a2,2,0,0,1-4,0v-.09a2,2,0,1,1,4,0ZM527.51,600v.09a2,2,0,1,1-4,0V600a2,2,0,0,1,4,0ZM524,587.93a2,2,0,0,1,2,2V590a2,2,0,1,1-4,0v-.09A2,2,0,0,1,524,587.93Zm-5.63-8a2,2,0,0,1,2-2,2,2,0,0,1,2,2V580a2,2,0,0,1-4,0Zm0,40.18a2,2,0,0,1,2-2,2,2,0,0,1,2,2v.09a2,2,0,0,1-4,0ZM513,571.36a2,2,0,1,1,4,0v.09a2,2,0,0,1-4,0Zm.84,28.71c0,11.71-3.69,22.65-11.91,31.15-8,8.31-18.53,13.83-29,18.6-12.26-31.75-12.85-67.67-.29-99.64,10.54,4.8,21.16,10.35,29.26,18.73S513.87,588.36,513.86,600.07Zm-7.57-38a2.1,2.1,0,0,1,.62-1.5,2,2,0,0,1,2.82,0,1.93,1.93,0,0,1,.5,1.89c0,.06,0,.11-.05.17s0,.08,0,.11a2.07,2.07,0,0,1-1.86,1.32A2,2,0,0,1,506.29,562Zm14.85-.59-.06.06a2,2,0,1,1-2.81-2.81l.06-.06a2,2,0,0,1,2.81,2.81Zm9.85-2.27-.06.06a2,2,0,0,1-2.81-2.82l.06-.06a2,2,0,1,1,2.81,2.82Zm9.63-4.5-.06.07a2,2,0,0,1-2.82-2.82l.07-.06a2,2,0,0,1,2.81,2.81Zm8.22-6.06-.06.06a2,2,0,0,1-2.81-2.81l.06-.07a2,2,0,0,1,2.81,2.82Zm11.86-41.87a2.09,2.09,0,0,1,1.51-.63,2,2,0,0,1,2,2,2,2,0,0,1-1,1.7l-.14.08-.12.06a2.09,2.09,0,0,1-2.25-.39A2,2,0,0,1,560.7,506.74Zm-1.9,11.42.06-.07a2,2,0,0,1,2.82,2.82l-.07.06a2,2,0,1,1-2.81-2.81ZM556.53,528l.06-.06a2,2,0,0,1,2.81,2.81l-.06.07a2,2,0,1,1-2.81-2.82Zm-1.62,9.57a2,2,0,0,1,0,2.81l-.06.07a2,2,0,0,1-2.82-2.82l.07-.06A2,2,0,0,1,554.91,537.57Zm-2.14-29.18c-.17,11.88-5.29,22.26-13.61,30.59s-18.74,13.45-30.6,13.62c-11.6.17-23-3.41-33.77-7.45A128,128,0,0,1,481,532.89a141.32,141.32,0,0,1,64.45-58C549.42,485.61,552.94,496.89,552.77,508.39Z"/><path class="cls-1" d="M655.18,730.81a137.42,137.42,0,0,0,56.69-43.31,145,145,0,0,0,18.35-31.77,3.14,3.14,0,0,0,1.15-2.8c13.5-34,13.88-72.48,0-106.6a3.28,3.28,0,0,0-.54-1.29,136,136,0,0,0-11.88-22.31c-17.33-26.28-42.7-46.88-72.67-57.09A144,144,0,0,0,599.76,458v5.54a140.43,140.43,0,0,1,49.78,9.22c-4.78,10.47-10.31,21-18.62,29-8.49,8.21-19.45,11.92-31.16,11.91v9.67h0a2,2,0,0,1,0,4h0v4a5.1,5.1,0,0,0,4.51-2.79,6.47,6.47,0,0,0,.7-2.88,6,6,0,0,0,.77,1.71,5.13,5.13,0,0,0,5,2.32,5,5,0,0,0,4.09-3.46,6.43,6.43,0,0,0,.2-3.31,6.52,6.52,0,0,0,1.67,2.17,5.06,5.06,0,0,0,8.41-3.79,6.63,6.63,0,0,0-.57-2.7,5.82,5.82,0,0,0,1.75,1.39,5,5,0,0,0,7.38-5.45,6.24,6.24,0,0,0-1-2.49l0,0a5.86,5.86,0,0,0,6.06,2.5s0,0,0,0a6.31,6.31,0,0,0-2.44,1,5.06,5.06,0,0,0,1.23,9.1,5.9,5.9,0,0,0,2.31.28,6.15,6.15,0,0,0-2.39,1.6,5.09,5.09,0,0,0-1.08,5.28,5.15,5.15,0,0,0,4.52,3.27,6.21,6.21,0,0,0,2.61-.37,6.57,6.57,0,0,0-2.16,2.4,5.06,5.06,0,0,0,5.52,7.34,5.72,5.72,0,0,0,1.84-.68,6.6,6.6,0,0,0-1.49,2.35,5.06,5.06,0,0,0,6.51,6.51,6.46,6.46,0,0,0,2.35-1.49,6,6,0,0,0-.67,1.84,5.06,5.06,0,0,0,7.33,5.53,6.6,6.6,0,0,0,2.4-2.17,6.23,6.23,0,0,0-.37,2.61,5.15,5.15,0,0,0,3.27,4.52,5.09,5.09,0,0,0,5.28-1.08,6.08,6.08,0,0,0,1.6-2.39,6.36,6.36,0,0,0,.22,2.16,5.1,5.1,0,0,0,3.91,3.62,5,5,0,0,0,5-2,6.39,6.39,0,0,0,1.18-2.7h.06a5.83,5.83,0,0,0,2.51,6l0,0a6.24,6.24,0,0,0-2.49-1,5,5,0,0,0-5.45,7.38,6,6,0,0,0,1.39,1.75,6.47,6.47,0,0,0-2.7-.56,5.07,5.07,0,0,0-4.48,2.7,5.12,5.12,0,0,0,.69,5.7,6.4,6.4,0,0,0,2.18,1.67,6.69,6.69,0,0,0-3.17.14,5.09,5.09,0,0,0-3.61,4.16,5,5,0,0,0,2.06,4.8,5.87,5.87,0,0,0,2,1,6.26,6.26,0,0,0-2.9.7,5,5,0,0,0,0,9,6.45,6.45,0,0,0,2.88.69,6,6,0,0,0-1.71.78,5.12,5.12,0,0,0-2.32,5,5.07,5.07,0,0,0,3.46,4.1,6.43,6.43,0,0,0,3.31.2,6.36,6.36,0,0,0-2.17,1.67,5.05,5.05,0,0,0,3.79,8.4,6.32,6.32,0,0,0,2.7-.57,5.86,5.86,0,0,0-1.39,1.76,5,5,0,0,0,5.45,7.38,6.39,6.39,0,0,0,2.49-1l0,0a6.3,6.3,0,0,0-2.17,2.63,6.23,6.23,0,0,0-.33,3.43h-.05a6.26,6.26,0,0,0-1-2.43,5.13,5.13,0,0,0-5.25-2.25,5.07,5.07,0,0,0-3.85,3.47,6,6,0,0,0-.28,2.32,6.18,6.18,0,0,0-1.6-2.4,5.08,5.08,0,0,0-5.28-1.07,5.15,5.15,0,0,0-3.27,4.51,6.27,6.27,0,0,0,.37,2.62,6.52,6.52,0,0,0-2.4-2.17,5.06,5.06,0,0,0-7.33,5.53,5.74,5.74,0,0,0,.67,1.83,6.57,6.57,0,0,0-2.35-1.48,5,5,0,0,0-6.51,6.5,6.55,6.55,0,0,0,1.49,2.36,5.72,5.72,0,0,0-1.84-.68,5.06,5.06,0,0,0-5.52,7.33,6.41,6.41,0,0,0,2.16,2.4,6.54,6.54,0,0,0-2.61-.37,5.06,5.06,0,0,0-3.44,8.56,6.23,6.23,0,0,0,2.39,1.59,6.37,6.37,0,0,0-2.16.23,5.06,5.06,0,0,0-1.65,8.95,6.37,6.37,0,0,0,2.7,1.17v.06a6.2,6.2,0,0,0-3.42.34,6.09,6.09,0,0,0-2.63,2.17l0,0a6.2,6.2,0,0,0,1-2.48,5.05,5.05,0,0,0-7.38-5.46,6,6,0,0,0-1.75,1.4,6.52,6.52,0,0,0,.57-2.71,5.06,5.06,0,0,0-8.41-3.79,6.43,6.43,0,0,0-1.67,2.19,6.73,6.73,0,0,0-.14-3.18,5.06,5.06,0,0,0-9-1.55,6,6,0,0,0-1,2,6.35,6.35,0,0,0-.7-2.89,4.62,4.62,0,0,0-4.5-2.74v3.9h0a2,2,0,0,1,0,4h0v9.65c11.72,0,22.65,3.72,31.16,11.93,8.31,8,13.84,18.57,18.62,29a133.24,133.24,0,0,1-49.78,9.66V742a146.57,146.57,0,0,0,53.18-10.28A3.3,3.3,0,0,0,655.18,730.81Zm-45.27-205h-.09a2,2,0,0,1,0-4h.09a2,2,0,0,1,0,4Zm10-3.64h-.09a2,2,0,0,1,0-4h.09a2,2,0,1,1,0,4Zm8.57-5.35h-.08a2,2,0,0,1,0-4h.08a2,2,0,0,1,0,4ZM609.91,678.32h-.09a2,2,0,0,1,0-4h.09a2,2,0,0,1,0,4Zm10,3.63h-.09a2,2,0,0,1,0-4h.09a2,2,0,0,1,0,4Zm8.57,5.36h-.08a2,2,0,0,1,0-4h.08a2,2,0,1,1,0,4Zm8.95-177.24-.18-.05-.11,0a2.07,2.07,0,0,1-1.32-1.86,2,2,0,0,1,2-2,2.13,2.13,0,0,1,1.51.62,2,2,0,0,1,0,2.82A1.92,1.92,0,0,1,637.41,510.07Zm1,10.91-.07-.06a2,2,0,0,1,2.82-2.81l.06.06a2,2,0,1,1-2.81,2.81Zm5.08,9.85a2,2,0,0,1-2.81,0l-.06-.06a2,2,0,0,1,2.81-2.81l.06.06A2,2,0,0,1,643.47,530.83Zm4.5,9.63a2,2,0,0,1-2.82,0l-.06-.06a2,2,0,0,1,2.81-2.81l.07.06A2,2,0,0,1,648,540.46Zm6.06,8.23a2,2,0,0,1-2.81,0l-.06-.07a2,2,0,0,1,2.81-2.81l.06.06A2,2,0,0,1,654,548.69Zm8.23,6.06a2,2,0,0,1-2.82,0l-.06-.06a2,2,0,0,1,2.81-2.81l.07.06A2,2,0,0,1,662.26,554.75Zm9.62,4.49a2,2,0,0,1-2.81,0l-.06-.06a2,2,0,1,1,2.81-2.81l.06.06A2,2,0,0,1,671.88,559.24Zm9.85,2.28a2,2,0,0,1-2.81,0l-.06-.06a2,2,0,1,1,2.81-2.82l.06.07A2,2,0,0,1,681.73,561.52ZM660.84,539c-8.33-8.31-13.44-18.73-13.61-30.6-.17-11.53,3.37-22.84,7.38-33.59a133.09,133.09,0,0,1,47.24,34A136.45,136.45,0,0,1,725,545.26c-10.72,4-22,7.52-33.51,7.35C679.56,552.44,669.18,547.32,660.84,539Zm32.87,23a2,2,0,0,1-2,2,1.92,1.92,0,0,1-1.69-1s0-.09-.08-.14l-.06-.12a2.07,2.07,0,0,1,.38-2.25,2,2,0,0,1,2.82,0A2.13,2.13,0,0,1,693.71,562.05ZM683,571.38a2,2,0,1,1,4,0v.08a2,2,0,0,1-4,0ZM674,590v-.09a2,2,0,0,1,4,0V590a2,2,0,1,1-4,0Zm-1.53,10.11V600a2,2,0,0,1,4,0v.09a2,2,0,1,1-4,0ZM676,612.22a2,2,0,0,1-2-2v-.09a2,2,0,1,1,4,0v.09A2,2,0,0,1,676,612.22Zm5.63,8a2,2,0,0,1-2,2,2,2,0,0,1-2-2v-.09a2,2,0,0,1,4,0Zm0-40.18a2,2,0,0,1-2,2,2,2,0,0,1-2-2V580a2,2,0,0,1,4,0ZM687,628.79a2,2,0,0,1-4,0v-.09a2,2,0,0,1,4,0Zm-.84-28.71c0-11.71,3.69-22.65,11.91-31.16,8-8.3,18.53-13.82,29-18.59,12.26,31.75,12.85,67.67.29,99.64-10.54-4.8-21.16-10.35-29.26-18.73S686.13,611.79,686.14,600.08Zm7.57,38a2.1,2.1,0,0,1-.62,1.5,2,2,0,0,1-2.82,0,1.94,1.94,0,0,1-.5-1.89c0-.06,0-.11.05-.17s0-.08,0-.11a2.07,2.07,0,0,1,1.86-1.32A2,2,0,0,1,693.71,638.12Zm-14.85.59.06-.06a2,2,0,0,1,2.81,2.81l-.06.06a2,2,0,0,1-2.81-2.81ZM669,641l.06-.06a2,2,0,0,1,2.81,0,2,2,0,0,1,0,2.81l-.06.07A2,2,0,1,1,669,641Zm-9.63,4.5.06-.07a2,2,0,1,1,2.82,2.82l-.07.06a2,2,0,0,1-2.81-2.81Zm-8.22,6.06.06-.06a2,2,0,0,1,2.81,2.81l-.06.07a2,2,0,0,1-2.81-2.82ZM639.3,693.41a2.09,2.09,0,0,1-1.51.63,2,2,0,0,1-2-2,2,2,0,0,1,1-1.7l.14-.08.12-.06a2.09,2.09,0,0,1,2.25.39A2,2,0,0,1,639.3,693.41ZM641.2,682l-.06.07a2,2,0,0,1-2.82-2.82l.07-.06A2,2,0,0,1,641.2,682Zm2.27-9.84-.06.06a2,2,0,1,1-2.81-2.81l.06-.07a2,2,0,1,1,2.81,2.82Zm1.62-9.57a2,2,0,0,1,0-2.81l.06-.07a2,2,0,0,1,2.82,2.82l-.07.06A2,2,0,0,1,645.09,662.58Zm2.14,29.18c.17-11.88,5.29-22.26,13.61-30.59s18.74-13.45,30.6-13.62c11.6-.17,23,3.41,33.77,7.45A128,128,0,0,1,719,667.26a141.32,141.32,0,0,1-64.45,58C650.58,714.54,647.06,703.26,647.23,691.76Z"/><path class="cls-2" d="M612.66,575.13c4.51-7.8,9.86-14.9,14.7-22.46,3.39-5.3,7.35-14.38-.47-17.83a1.86,1.86,0,0,0-.31-.1,3.24,3.24,0,0,0-.32-.17c-7.69-3-11.44,5.62-12.83,11.65-2.06,8.94-3.24,18-5.62,26.86C607,576,611.14,577.76,612.66,575.13Z"/><path class="cls-2" d="M626.43,591.7c8.89-2.37,17.92-3.55,26.86-5.61,6-1.39,14.69-5.14,11.65-12.83a1.59,1.59,0,0,0-.16-.32c0-.11-.06-.21-.1-.32-3.45-7.81-12.53-3.85-17.83-.46-7.57,4.83-14.67,10.19-22.46,14.7C621.78,588.36,623.52,592.48,626.43,591.7Z"/><path class="cls-2" d="M653.29,613.92c-8.94-2.06-18-3.24-26.86-5.62-2.89-.77-4.67,3.33-2,4.85,7.79,4.51,14.89,9.87,22.46,14.7,5.3,3.39,14.38,7.35,17.83-.46,0-.11.07-.21.1-.32a1.59,1.59,0,0,0,.16-.32C668,619.06,659.33,615.31,653.29,613.92Z"/><path class="cls-2" d="M612.66,624.88a2.66,2.66,0,0,0-4.85,2c2.38,8.9,3.56,17.93,5.62,26.87,1.39,6,5.14,14.69,12.83,11.65a3.24,3.24,0,0,0,.32-.17l.31-.1c7.82-3.45,3.86-12.53.47-17.83C622.52,639.77,617.17,632.67,612.66,624.88Z"/><path class="cls-2" d="M602.16,589.65c.55-10.89,3.23-21.47,4.61-32.26.68-5.29.7-15.58-7.26-15.58V592.2h0A2.37,2.37,0,0,0,602.16,589.65Z"/><path class="cls-2" d="M608.7,594.56c8-7.22,17.19-12.76,25.71-19.27,4.29-3.28,12-10.68,6.25-16.44s-13,1.73-16.23,6c-6.6,8.59-12.17,17.92-19.48,26a2.65,2.65,0,0,0,3.75,3.75Z"/><path class="cls-2" d="M657.71,600c0-8-10.29-7.94-15.59-7.26-10.79,1.39-21.36,4.07-32.26,4.61a2.66,2.66,0,0,0,0,5.31c10.9.54,21.47,3.22,32.26,4.6C647.42,607.94,657.71,608,657.71,600Z"/><path class="cls-2" d="M640.66,641.15c5.64-5.63-1.73-12.95-6-16.23-8.59-6.6-17.93-12.17-26-19.47A2.65,2.65,0,0,0,605,609.2c7.23,8,12.76,17.18,19.27,25.7C627.5,639.19,634.9,646.91,640.66,641.15Z"/><path class="cls-2" d="M606.77,642.62c-1.38-10.8-4.06-21.37-4.61-32.27a2.37,2.37,0,0,0-2.65-2.54V658.2C607.47,658.2,607.45,647.91,606.77,642.62Z"/><path class="cls-2" d="M601.31,605.21a5.53,5.53,0,0,0,3.48-6.82,5.72,5.72,0,0,0-5.28-3.92v11A5.13,5.13,0,0,0,601.31,605.21Z"/><path class="cls-2" d="M587.34,624.87c-4.51,7.8-9.86,14.9-14.7,22.46-3.39,5.3-7.35,14.38.47,17.83a1.86,1.86,0,0,0,.31.1,3.24,3.24,0,0,0,.32.17c7.69,3,11.44-5.62,12.83-11.65,2.06-8.94,3.24-18,5.62-26.86C593,624,588.86,622.24,587.34,624.87Z"/><path class="cls-2" d="M573.57,608.3c-8.89,2.37-17.92,3.55-26.86,5.61-6,1.39-14.69,5.14-11.65,12.83a1.59,1.59,0,0,0,.16.32c0,.11.06.21.1.32,3.45,7.81,12.53,3.85,17.83.46,7.57-4.83,14.67-10.19,22.46-14.7C578.22,611.64,576.48,607.52,573.57,608.3Z"/><path class="cls-2" d="M546.71,586.08c8.94,2.06,18,3.24,26.86,5.62,2.89.77,4.67-3.33,2-4.85-7.79-4.51-14.89-9.87-22.46-14.7-5.3-3.39-14.38-7.35-17.83.46,0,.11-.07.21-.1.32a1.59,1.59,0,0,0-.16.32C532,580.94,540.67,584.69,546.71,586.08Z"/><path class="cls-2" d="M587.34,575.12a2.66,2.66,0,0,0,4.85-2c-2.38-8.9-3.56-17.93-5.62-26.87-1.39-6-5.14-14.69-12.83-11.65a3.24,3.24,0,0,0-.32.17l-.31.1c-7.82,3.45-3.86,12.53-.47,17.83C577.48,560.23,582.83,567.33,587.34,575.12Z"/><path class="cls-2" d="M597.84,610.35c-.55,10.89-3.23,21.47-4.61,32.26-.68,5.29-.7,15.58,7.26,15.58V607.8h0A2.37,2.37,0,0,0,597.84,610.35Z"/><path class="cls-2" d="M591.3,605.44c-8,7.22-17.19,12.76-25.71,19.27-4.29,3.28-12,10.68-6.25,16.44s13-1.73,16.23-6c6.6-8.59,12.17-17.92,19.48-26a2.65,2.65,0,0,0-3.75-3.75Z"/><path class="cls-2" d="M542.29,600c0,8,10.29,7.94,15.59,7.26,10.79-1.39,21.36-4.07,32.26-4.61a2.66,2.66,0,0,0,0-5.31c-10.9-.54-21.47-3.22-32.26-4.6C552.58,592.06,542.29,592,542.29,600Z"/><path class="cls-2" d="M559.34,558.85c-5.64,5.63,1.73,12.95,6,16.23,8.59,6.6,17.93,12.17,26,19.47a2.65,2.65,0,0,0,3.75-3.75c-7.23-8-12.76-17.18-19.27-25.7C572.5,560.81,565.1,553.09,559.34,558.85Z"/><path class="cls-2" d="M593.23,557.38c1.38,10.8,4.06,21.37,4.61,32.27a2.37,2.37,0,0,0,2.65,2.54V541.8C592.53,541.8,592.55,552.09,593.23,557.38Z"/><path class="cls-2" d="M598.69,594.79a5.53,5.53,0,0,0-3.48,6.82,5.72,5.72,0,0,0,5.28,3.92v-11A5.13,5.13,0,0,0,598.69,594.79Z"/></svg>