<svg id="Layer_1" data-name="Layer 1" xmlns="http://www.w3.org/2000/svg" viewBox="0 0 1200 1200"><defs><style>.cls-1{fill:#2a273d;}</style></defs><path class="cls-1" d="M743.51,657.59A155.15,155.15,0,0,0,754.63,600h1c0,1.32-.07,2.61-.11,4,3.17-1.3,6.32-2.61,9.46-4h2a.84.84,0,0,1-.33.38c-3.7,1.78-7.39,3.34-11.11,4.83l-.1,0c0,1.46,0,2.93-.19,4.38,3.78-1.35,7.36-2.89,11-4.51s7.24-3.36,10.84-5.11h2a.85.85,0,0,1-.32.41c-3.88,2.07-7.78,4-11.68,5.7-2,.86-3.89,1.69-5.87,2.48s-4,1.54-6,2.26h0l-.35,4.61a169.18,169.18,0,0,0,17.38-7c5.64-2.65,11.27-5.57,16.94-8.51h2a1,1,0,0,1-.32.44q-4.47,2.49-8.9,4.79-2.22,1.14-4.44,2.24c-1.48.72-2.92,1.43-4.46,2.11q-4.54,2.05-9.1,3.84-2.28.89-4.56,1.7c-1.52.54-3,1.06-4.61,1.55l-.07,0-.55,4.31c4.06-1.17,8.14-2.53,12.19-4s7.92-3.19,11.9-5c2-.9,4-1.83,6-2.79s3.88-1.94,5.83-2.94c3.9-2,7.83-4.11,11.79-6.24H804a1,1,0,0,1-.32.47c-4.12,2.24-8.19,4.44-12.24,6.54-2,1-4,2.08-6.08,3.07s-4.14,2-6.2,2.89S775,614.8,773,615.66s-4.08,1.68-6.21,2.45c-4.22,1.54-8.43,2.92-12.64,4.1h-.06c-.15,1.47-.46,2.92-.71,4.38,2.68-.66,5.42-1.4,8.06-2.22s5.27-1.72,7.91-2.68,5.29-2,7.94-3,5.19-2.21,7.8-3.39,5.21-2.39,7.83-3.63c1.3-.62,2.64-1.25,3.92-1.89l3.86-1.93c5.16-2.58,10.39-5.23,15.7-7.82h2.13a219.92,219.92,0,0,1-21.61,94.84l-2-1c-3.63-4.68-7.17-9.37-10.68-14l-2.64-3.42-2.71-3.43q-2.71-3.39-5.45-6.68c-3.6-4.35-7.5-8.63-11.4-12.62-1-1-2-2-2.95-3s-2-1.92-3-2.87q-3.1-2.85-6.31-5.48c-.41,1.42-.78,2.85-1.22,4.26l.05,0a167.54,167.54,0,0,1,18.54,19.17c5.89,7,11.17,14.31,16.65,22a.68.68,0,0,1,0,.65l-1.94-.94c-2.61-3.67-5.22-7.29-7.85-10.81-1.31-1.77-2.61-3.5-4-5.22s-2.76-3.44-4.16-5.12-2.8-3.32-4.22-4.93-2.81-3.17-4.34-4.74q-4.5-4.68-9.21-8.89L746.74,652l.06,0c1.18,1.11,2.39,2.25,3.52,3.4s2.25,2.31,3.36,3.51c2.22,2.38,4.39,4.86,6.52,7.41l1.59,1.93,1.53,1.93c1,1.3,2,2.62,3,3.95q3,4,5.93,8.2a.64.64,0,0,1,.06.61l-1.86-.89c-3.72-5.31-7.49-10.4-11.44-15.23a166.08,166.08,0,0,0-12.67-13.7c-.53,1.44-1.13,2.85-1.68,4.29l0,0a167.42,167.42,0,0,1,16.71,19.69.63.63,0,0,1,.07.59l-1.85-.89c-2.41-3.28-4.9-6.44-7.44-9.47q-1.92-2.28-3.87-4.47c-1.33-1.46-2.71-2.92-4.09-4.33l-.8,2-.91,2,.08.06q4,4.43,7.88,9.25a.53.53,0,0,1,.08.55l-1.88-.9c-2.16-2.7-4.39-5.33-6.66-7.85l-1.71,3.81-.93-.45,2.13-4.73c.35-.79.73-1.57,1.06-2.36Zm60.38-50a204.18,204.18,0,0,1-16.66,73.62.86.86,0,0,1-.11.19c3,4,6.13,8,9.29,12l2.79-6.16c.46-1,.95-2,1.37-3.1l1.25-3.15a217,217,0,0,0,15.63-80.19C812.87,603.05,808.35,605.34,803.89,607.6Zm-5.22,2.62q-.25,3.33-.5,6.67l-.26,3.33-.41,3.32a.64.64,0,0,1-.07.56,198.15,198.15,0,0,1-9,39.63.62.62,0,0,1-.18.53c-1.35,4.26-3.1,8.38-4.72,12.53,1,1.25,1.93,2.47,2.89,3.72.63-1.34,1.18-2.8,1.78-4.31l1.86-4.73c.68-1.61,1.22-3.34,1.82-5.08l1.8-5.35c.59-1.81,1.08-3.69,1.62-5.55l.8-2.81c.25-.94.55-1.87.75-2.83q.66-2.85,1.31-5.66c.22-.94.43-1.88.64-2.8s.35-1.86.53-2.78c1.42-7.35,2.28-14.23,2.8-19.64s.74-9.34.71-10.85ZM777.4,629.1c-.83,1.27-.31,2.46.56,3.57a18.73,18.73,0,0,0,7.28,5.19c2.79,1.27,5.73,2.25,8.28,3.56.38-1.48.61-3,.88-4.48l-.12-.1c-.65-.69-1.33-1.39-2-2.11a42.19,42.19,0,0,1-4.51-4.37,19.06,19.06,0,0,0-3.71-2.48,6.47,6.47,0,0,0-3.58-.66A4.18,4.18,0,0,0,777.4,629.1ZM790,630.77q1.17,1.05,2.31,2.16c.82.72,1.66,1.44,2.45,2.18.32-1.81.67-3.61.94-5.42l.7-5.45,0,0c-1.68-1.9-4.42-4.11-7.05-3.6-3.73.71-3.07,5-1.59,7.33A18.26,18.26,0,0,0,790,630.77ZM775.76,636c-2.18-.45-6.13-.22-6.75,2.49s2.84,4.61,5,5.15a36.48,36.48,0,0,0,6.52.64q6.06.4,12.16.69h0l.49-2.11h0q-5.83-2.46-11.7-4.8A36,36,0,0,0,775.76,636Zm-1.17,11.6c-1.27.62-2.26,1.48-2.08,3,.33,2.7,3.08,4,5.47,4a19.14,19.14,0,0,0,4.38-.63,41.35,41.35,0,0,1,6-2l2.73-1,.15,0c.45-1.46.75-3,1.1-4.43-2.87.08-6-.32-9-.37a25.8,25.8,0,0,0-4.5.26A15,15,0,0,0,774.59,647.6Zm6.75,8.47c-2.35,1.51-4.73,5.09-1.75,7.29,2.15,1.59,5.59.79,7.93-.2h0l.88-2.61c.29-.86.6-1.73.83-2.61l1.51-5.3c-1,.33-2.11.61-3.17.91s-2,.65-3,.94A15.87,15.87,0,0,0,781.34,656.07Zm-31.17-14.74c3,2.43,5.93,5,8.82,7.71s5.54,5.48,8.25,8.4c5.5,5.85,10.45,12,15.56,18.42l2.18-5.52c.36-.92.75-1.83,1.07-2.77l1-2.81c-4.29,1.31-11.48.76-9.94-5.42a6.72,6.72,0,0,1,2.35-3.61,8.83,8.83,0,0,1-4.12-.25,6.69,6.69,0,0,1-3.31-2.77,4.18,4.18,0,0,1-.44-4.1c.94-1.9,3.39-2.72,5.59-3.18-.87-.11-1.74-.24-2.6-.39-3.16-.58-7.64-3.18-6.78-6.84.45-1.93,2.06-2.92,3.88-3.35a11.29,11.29,0,0,1,5.56.23l2.23.72c-1.84-1.38-3.75-3.19-3.76-5.36a4.3,4.3,0,0,1,2.31-3.59,6.59,6.59,0,0,1,4.36-.94,9.08,9.08,0,0,1,3.5,1.51,6.75,6.75,0,0,1-.57-4.27c.62-3.14,2.65-4,4.89-3.78a12.59,12.59,0,0,1,6.43,3.18c.11-1,.28-2,.34-2.94l.23-3,.45-5.92c-3.69,1.79-7.35,3.54-11,5.2q-2.73,1.25-5.45,2.43c-1.84.78-3.71,1.54-5.56,2.27q-5.57,2.19-11.09,4c-1.82.61-3.75,1.16-5.62,1.69s-3.78,1-5.66,1.46l-.1,0-.6,3.4c-.24,1.13-.52,2.24-.77,3.37-.53,2.24-1,4.5-1.67,6.7Z"/><path class="cls-1" d="M809.62,619.76a4.37,4.37,0,0,1,.85-8.57c2.06.1,3.38,2,3.41,4.34a.88.88,0,0,1,0,.23.79.79,0,0,1,0,.23C813.45,618.35,811.73,620.09,809.62,619.76Zm3-4.09c.1-3.66-4.61-3.94-4.88-.36S812.14,619.3,812.59,615.67Z"/><path class="cls-1" d="M807.55,635.42a3.49,3.49,0,0,1-2.23-1.73,4.93,4.93,0,0,1-.56-3,4.07,4.07,0,0,1,4.25-3.73c2,.25,3.25,2.3,3.15,4.59a.6.6,0,0,1,0,.23.78.78,0,0,1,0,.23C811.54,634.32,809.61,635.91,807.55,635.42Zm3.33-3.85c.29-3.65-4.38-4.28-4.84-.72a3,3,0,0,0,.42,2.12,2.25,2.25,0,0,0,1.5.92,2.48,2.48,0,0,0,1.77-.41A2.85,2.85,0,0,0,810.88,631.57Z"/><path class="cls-1" d="M804.34,650.91a4.37,4.37,0,0,1,2.13-8.35c2,.4,3,2.53,2.71,4.8a1,1,0,0,1,0,.23,1.14,1.14,0,0,1-.07.22C808.34,650.09,806.37,651.56,804.34,650.91Zm3.55-3.61c.65-3.61-4-4.59-4.77-1.08S806.89,650.83,807.89,647.3Z"/><path class="cls-1" d="M799.93,666.1a4.12,4.12,0,0,1-2-5.13,4.06,4.06,0,0,1,4.75-3.05c2,.56,2.87,2.77,2.43,5a1,1,0,0,1-.05.23.48.48,0,0,1-.08.22C804,665.6,801.9,666.89,799.93,666.1Zm3.87-3.31c.84-3.57-3.68-4.9-4.67-1.44a2.43,2.43,0,0,0,1.43,3.29A2.61,2.61,0,0,0,803.8,662.79Z"/><path class="cls-1" d="M794.43,680.93a4.37,4.37,0,0,1,3.35-7.94c1.93.7,2.62,3,2,5.16a.7.7,0,0,1-.07.22.68.68,0,0,1-.1.21C798.5,680.72,796.34,681.88,794.43,680.93Zm4.05-3c1.17-3.48-3.24-5.14-4.56-1.79S797,681.24,798.48,677.9Z"/><path class="cls-1" d="M704.29,714.16a155.54,155.54,0,0,0,35.08-47.07l.93.45c-.61,1.17-1.19,2.3-1.83,3.55,3.41.21,6.81.4,10.25.51l1.84.89a.84.84,0,0,1-.46.2c-4.1,0-8.1-.22-12.09-.49l-.1,0-1,2-1.1,1.89c2,.2,4,.38,5.95.49s3.94.19,5.92.25c4,.11,8,.13,12,.12l1.81.87a.92.92,0,0,1-.47.23,169.53,169.53,0,0,1-25.76-.88h0c-.78,1.33-1.51,2.68-2.32,4a165.54,165.54,0,0,0,18.68,1.33c6.23.07,12.55-.12,18.94-.3l1.81.87a.93.93,0,0,1-.48.26c-3.4.2-6.77.36-10.09.45l-5,.09h-2.46l-2.5,0q-5-.13-9.84-.51-2.43-.19-4.83-.45c-1.61-.17-3.25-.4-4.86-.64h-.07l-2.35,3.66c4.16.71,8.4,1.25,12.7,1.66,2.17.21,4.27.34,6.42.45s4.3.2,6.48.25,4.37.08,6.57.09,4.35-.06,6.55-.11c4.38-.12,8.83-.3,13.32-.5l1.89.91a1,1,0,0,1-.49.28c-9.38.47-18.41.88-27.51.6a173.06,173.06,0,0,1-26.53-2.58h-.06c-.84,1.21-1.72,2.41-2.57,3.62,2.7.57,5.45,1.07,8.22,1.51l2.09.31,2.06.27c1.37.17,2.76.32,4.15.46,5.55.56,11.33,1,17,1.07q4.26.12,8.61.13h4.36c1.46,0,2.88,0,4.32-.05,5.77-.08,11.63-.2,17.55-.23l1.91.92a222.3,222.3,0,0,1-26.08,41.35l-1.9,2.41c-.63.8-1.32,1.55-2,2.33l-4,4.62c-1.31,1.57-2.76,3-4.16,4.5l-4.23,4.43-4.43,4.23-2.22,2.11c-.37.35-.74.71-1.12,1l-1.15,1-4.64,4c-.78.66-1.54,1.35-2.34,2l-2.41,1.9-1.36-1.71-1.77-8.59c-.6-2.87-1.21-5.73-1.81-8.59s-1.2-5.67-1.82-8.46-1.34-5.64-2-8.41c-1.43-5.56-2.93-10.94-4.78-16.31-.91-2.67-1.86-5.3-2.87-7.87-.51-1.3-1-2.56-1.56-3.84s-1.13-2.56-1.71-3.82c-.49.55-1,1.13-1.46,1.67l-1.54,1.61,0,0c1.71,4,3.3,8.22,4.7,12.46s2.59,8.51,3.71,12.92l.83,3.32.74,3.3c.49,2.21,1,4.44,1.4,6.69s.89,4.52,1.32,6.81.79,4.53,1.18,6.82a.69.69,0,0,1-.25.6l-1.35-1.68q-.54-3.28-1.1-6.55c-.41-2.21-.83-4.39-1.26-6.56-.87-4.35-1.76-8.58-2.82-12.81s-2.25-8.41-3.55-12.47c-.32-1-.66-2-1-3s-.72-2-1.09-3c-.74-2-1.53-4-2.34-5.95l-1.5,1.57c-.51.52-1,1.08-1.52,1.56l0,.06c1.15,3,2.2,6.08,3.18,9.21s1.91,6.35,2.66,9.51,1.49,6.42,2.15,9.71c.33,1.64.65,3.3,1,5l.81,4.95a.63.63,0,0,1-.22.57l-1.29-1.61c-1-6.27-2.25-12.62-3.71-18.68-.37-1.52-.75-3-1.15-4.52s-.87-3-1.33-4.52c-.92-3-1.91-5.92-3-8.8l-3.34,3.19v0c.72,2,1.36,4,2,6.08s1.19,4.09,1.73,6.18,1,4.19,1.53,6.32q.36,1.61.66,3.18l.6,3.18a.58.58,0,0,1-.2.55l-1.28-1.6c-.36-2-.75-3.93-1.16-5.87s-.92-3.92-1.41-5.85q-1.5-5.81-3.34-11.36l-3.31,2.87,0,.09q.88,2.89,1.67,5.85c.52,2,1,3.89,1.41,5.88a.52.52,0,0,1-.17.52L702.81,729c-.37-1.67-.77-3.32-1.18-5s-.9-3.32-1.38-5c-.53.45-1,.94-1.59,1.36L697,721.68l-.64-.8,2-1.6,2-1.71C701.67,716.43,703,715.32,704.29,714.16Zm76.15-18.81a205.22,205.22,0,0,1-47,59,.94.94,0,0,1-.18.12q1.59,7.41,3.17,14.84c1.8-1.36,3.48-2.86,5.19-4.33s3.42-2.93,5.09-4.45a219.17,219.17,0,0,0,27.54-30.38,216.81,216.81,0,0,0,21.36-35C790.49,695.15,785.43,695.26,780.44,695.35Zm-5.87.08c-2.24,3.85-4.37,7.78-6.86,11.49a.57.57,0,0,1-.3.47,200.15,200.15,0,0,1-25.31,31.77.58.58,0,0,1-.39.4c-.38.41-.76.82-1.16,1.21l-1.21,1.15-2.42,2.31c-1.62,1.54-3.2,3.11-4.91,4.54l1,4.59,3.52-3.05,3.67-3.5c1.26-1.22,2.59-2.43,3.88-3.75L748,739l2-2.09c.67-.69,1.28-1.45,1.92-2.17l3.83-4.42.95-1.1.9-1.15,1.8-2.27c1.18-1.52,2.37-3,3.5-4.49l3.19-4.47,1.52-2.15.75-1,.69-1.07c1.8-2.82,3.5-5.4,4.92-7.72s2.52-4.39,3.45-6l1.19-2.08c.3-.6.55-1.07.72-1.4C777.7,695.39,776.16,695.43,774.57,695.43Zm-27.38,7.72c-1.28.8-1.33,2.1-1,3.48a15,15,0,0,0,1.66,4.15,24.72,24.72,0,0,0,2.6,3.67c1.94,2.35,4.18,4.52,5.91,6.81l1.41-1.79c.47-.6.94-1.2,1.37-1.82a.67.67,0,0,1-.06-.15l-.92-2.79A41.2,41.2,0,0,1,756,708.8a20.25,20.25,0,0,0-2.25-3.85C752.24,703.05,749.51,701.72,747.19,703.15Zm10.59,7c.4,1,.78,2,1.15,3s.87,2,1.27,3l3.19-4.48c.26-.37.53-.74.79-1.12l.74-1.16,1.48-2.31v0c-.69-2.45-2.2-5.63-4.79-6.32-3.68-1-4.88,3.18-4.61,5.91A15.65,15.65,0,0,0,757.78,710.13Zm-15.08-1.49c-1.78-1.36-5.42-2.86-7.14-.67a3.47,3.47,0,0,0-.14,3.72,9.31,9.31,0,0,0,2.4,3.1,38.7,38.7,0,0,0,5.62,3.43q5.26,3,10.63,5.9h0l1.34-1.7,0,0q-4.18-4.77-8.47-9.43A36.22,36.22,0,0,0,742.7,708.64Zm-6.09,10c-1.4,0-2.65.37-3.13,1.81-.9,2.56,1,4.89,3.17,5.91a19.65,19.65,0,0,0,4.26,1.37,41.52,41.52,0,0,1,6.26.79l2.89.25.15,0c1-1.16,2-2.28,3-3.48-2.6-1.16-5.23-2.88-8-4.27A18.79,18.79,0,0,0,736.61,718.6ZM739,729.14c-2.79.33-6.4,2.6-4.7,5.85a5.68,5.68,0,0,0,3.14,2.48,13.46,13.46,0,0,0,4.08.77h0c2.52-2.66,5.1-5.26,7.45-8.08-1.08-.16-2.15-.36-3.23-.55s-2.07-.27-3.1-.44A17.31,17.31,0,0,0,739,729.14Zm-21.65-26.8a164.88,164.88,0,0,1,8.4,22c.61,1.92,1.14,3.81,1.66,5.72s1,3.84,1.54,5.79,1,3.91,1.45,5.89l.7,3,.65,3c1.53-1.26,2.91-2.68,4.35-4s2.88-2.71,4.27-4.11a12.65,12.65,0,0,1-6.52-3.06c-1.62-1.62-2.08-3.65-.1-6.16A6.57,6.57,0,0,1,737.4,728a9.08,9.08,0,0,1-3.6-2,6.52,6.52,0,0,1-1.76-3.92,5.16,5.16,0,0,1,.23-2.12,3.56,3.56,0,0,1,1.17-1.75c1.66-1.33,4.2-1,6.39-.47-.74-.48-1.47-1-2.18-1.49a10.87,10.87,0,0,1-3.39-4.14,4.64,4.64,0,0,1,.3-4.93c2.46-3.1,7.41-.95,9.86,1.3.57.53,1.13,1.06,1.69,1.61-.26-.5-.5-1-.72-1.57a11.66,11.66,0,0,1-.53-1.68,4.94,4.94,0,0,1,.2-3.21,4.16,4.16,0,0,1,3.64-2.23,6.77,6.77,0,0,1,4.36,1.07,8.84,8.84,0,0,1,2.48,2.88,7,7,0,0,1,1.34-4.1c3.82-5.12,8.79.25,10.44,4.39l1.6-2.5c.54-.83,1-1.71,1.5-2.56l3-5.14c-8.21,0-16.11,0-24.11-.68q-3-.22-5.89-.51c-2-.21-3.85-.41-5.83-.7-3.91-.57-7.75-1.25-11.52-2.07l-.09,0-1,1.41c-.33.48-.71.91-1.06,1.37l-2.14,2.72-1.07,1.37-.53.68-.57.65-2.27,2.62A.56.56,0,0,1,717.35,702.34Z"/><path class="cls-1" d="M780.3,708.81a4.2,4.2,0,0,1-.91-5.49,4.15,4.15,0,0,1,5.38-1.87c1.8,1,2.16,3.31,1.19,5.4l-.1.2a1.74,1.74,0,0,1-.13.2C784.36,709.21,782.05,710,780.3,708.81Zm4.44-2.4c1.67-3.26-2.44-5.57-4.23-2.44S782.76,709.5,784.74,706.41Z"/><path class="cls-1" d="M771.59,722a4.09,4.09,0,0,1-.43-5.49,4.83,4.83,0,0,1,2.56-1.88,3.49,3.49,0,0,1,2.89.38c1.71,1.11,2,3.51.83,5.51a1.36,1.36,0,0,1-.11.2,1.29,1.29,0,0,1-.15.17C775.63,722.71,773.24,723.34,771.59,722Zm4.67-2a2.81,2.81,0,0,0,.45-2.17,2.41,2.41,0,0,0-1-1.51A2.23,2.23,0,0,0,774,716a3,3,0,0,0-1.74,1.27C770.14,720.16,774,722.87,776.26,720Z"/><path class="cls-1" d="M762,734.53a4.22,4.22,0,0,1-.08-5.55,4.13,4.13,0,0,1,5.59-1.06c1.63,1.24,1.64,3.6.38,5.52a.76.76,0,0,1-.13.2.87.87,0,0,1-.16.17,5,5,0,0,1-2.82,1.57A3.27,3.27,0,0,1,762,734.53Zm4.76-1.7c2.12-3-1.61-5.88-3.83-3.05S764.33,735.59,766.74,732.83Z"/><path class="cls-1" d="M751.41,746.27a4.12,4.12,0,0,1,.37-5.51c1.61-1.64,4.11-2,5.64-.65s1.44,3.78,0,5.55a.73.73,0,0,1-.14.18l-.18.15C755.29,747.58,752.85,747.85,751.41,746.27Zm4.91-1.31a3,3,0,0,0,.79-2.06,2.45,2.45,0,0,0-.78-1.64,2.32,2.32,0,0,0-1.66-.6,2.87,2.87,0,0,0-1.94,1C750.25,744.24,753.66,747.49,756.32,745Z"/><path class="cls-1" d="M740,757.22a4.2,4.2,0,0,1,.77-5.48,4.12,4.12,0,0,1,5.67-.24c1.43,1.48,1.09,3.82-.43,5.54a.8.8,0,0,1-.15.17.83.83,0,0,1-.19.15C743.86,758.87,741.33,758.89,740,757.22Zm5-1c2.53-2.65-.72-6.07-3.33-3.59a2.5,2.5,0,0,0-.37,3.61A2.56,2.56,0,0,0,745,756.27Z"/><path class="cls-1" d="M644.46,748.12a154.47,154.47,0,0,0,51.91-27.24l.64.8-3.14,2.48c3,1.64,5.94,3.27,9,4.83l1.27,1.6a.78.78,0,0,1-.49,0c-3.68-1.76-7.17-3.64-10.65-5.61l-.08-.06-3.58,2.53c3.37,2,6.87,4,10.42,5.84s7.09,3.51,10.69,5.21l1.25,1.57a.88.88,0,0,1-.52,0c-2-.86-4-1.75-5.92-2.66s-3.84-1.84-5.77-2.87q-5.73-3-11.12-6.36l0,0c-1.23.93-2.55,1.72-3.85,2.55,1.3.86,2.61,1.69,3.95,2.51s2.69,1.63,4,2.37c2.7,1.52,5.47,3,8.29,4.38,5.68,2.88,11.39,5.36,17.2,7.93l1.26,1.57a1,1,0,0,1-.54,0q-4.71-1.9-9.24-3.9c-3-1.36-6.07-2.83-9-4.31s-5.81-3-8.62-4.66-5.61-3.4-8.3-5.21l-.06,0-1.83,1.17-.91.59-1,.54c.87.62,1.76,1.25,2.63,1.84s1.76,1.17,2.65,1.74q2.67,1.72,5.44,3.38c1.84,1.09,3.72,2.17,5.62,3.23l1.43.78,1.42.75,2.88,1.48c3.86,2,7.82,3.83,11.86,5.68s8.05,3.5,12.17,5.24l1.31,1.64a1,1,0,0,1-.56,0l-6.4-2.67c-2.13-.91-4.19-1.78-6.31-2.75q-6.32-2.87-12.32-5.88c-1-.51-2-1-3-1.54l-3-1.63c-2-1.1-3.9-2.22-5.8-3.36s-3.78-2.32-5.61-3.52-3.68-2.5-5.47-3.8l0,0-3.85,2.22c4.36,3.33,9,6.47,13.8,9.46s9.71,5.62,14.83,8.28,10.25,5,15.54,7.54c2.66,1.26,5.28,2.43,7.92,3.65s5.3,2.43,8,3.69l1.33,1.66a221.92,221.92,0,0,1-41.35,26.08A219.1,219.1,0,0,1,648.59,813l-.48-2.13C651,799.53,654,788.16,656.23,777c1.12-5.66,2.09-11.22,2.78-16.75s1.08-11.19,1.18-16.67l-4.12,1.62v.07q-.14,3.3-.42,6.65c-.2,2.19-.45,4.37-.75,6.57s-.62,4.42-1,6.64l-.58,3.34-.32,1.68-.33,1.64c-.92,4.38-2,8.81-3.12,13.29l-.87,3.36-.92,3.31c-.63,2.22-1.27,4.44-1.9,6.66a.69.69,0,0,1-.49.43l-.47-2.1c.61-2.14,1.23-4.27,1.84-6.41s1.2-4.21,1.74-6.39c1.1-4.31,2.12-8.57,3-12.8l.64-3.16c.21-1.06.39-2.15.58-3.21.36-2.15.69-4.28,1-6.41s.55-4.23.76-6.34c.1-1,.2-2.08.27-3.16s.14-2.14.2-3.2c-1.34.57-2.72,1-4.09,1.46v.07c-.26,3.22-.63,6.47-1.1,9.73-.23,1.65-.5,3.24-.8,4.84s-.61,3.21-1,4.82c-.67,3.23-1.43,6.48-2.26,9.75S644,782.75,643,786a.66.66,0,0,1-.45.42l-.45-2q1.38-4.62,2.6-9.17c.8-3.07,1.52-6.2,2.17-9.26s1.23-6.14,1.71-9.18.83-6.2,1.1-9.27l-2.18.74-1.09.37c-.36.12-.74.21-1.1.32v0q-.75,6.28-2,12.66c-.21,1.07-.42,2.13-.65,3.2s-.47,2.08-.73,3.13c-.5,2.08-1,4.18-1.63,6.28a.6.6,0,0,1-.42.41l-.45-2c1.06-3.91,2-7.72,2.79-11.64s1.4-7.85,1.9-11.74l-4.2,1.2a.34.34,0,0,1,0,.1c-.3,2-.65,4-1,5.94s-.82,3.94-1.28,5.92a.56.56,0,0,1-.38.41l-.47-2c.77-3.35,1.45-6.68,2-10l-4.07.93-.23-1,2.53-.58c.84-.19,1.69-.35,2.52-.62Zm76.75,16a201.69,201.69,0,0,1-68,32.85l-.21,0-.9,3.7-.91,3.66c-.6,2.45-1.21,4.9-1.81,7.36l3.3-.77,1.65-.38,1.63-.46,6.52-1.85a217.36,217.36,0,0,0,72.44-37.82l-6.88-3.18C725.77,766.26,723.52,765.26,721.21,764.17Zm-5.36-2.51-2.72,1.94c-.92.64-1.8,1.31-2.76,1.9l-5.63,3.61a.55.55,0,0,1-.47.3,195.41,195.41,0,0,1-36.6,17.69.57.57,0,0,1-.53.18l-6.34,2.15-1.59.53-1.6.46-3.22.92-1.1,4.59A194.69,194.69,0,0,0,673,789.46l5.39-2.12c1.79-.74,3.56-1.59,5.34-2.38l2.65-1.2c.89-.4,1.77-.79,2.62-1.24l5.08-2.6a196.6,196.6,0,0,0,17.09-10c2.32-1.43,4.2-2.83,5.71-3.9l3.24-2.3Zm-28-4.83c-1.5.18-2.08,1.37-2.42,2.71a18.3,18.3,0,0,0,.43,8.86c.74,3,1.83,5.89,2.4,8.72l4.06-2.08a.92.92,0,0,1,0-.16c.13-.93.27-1.89.41-2.86a45.49,45.49,0,0,1,.56-6.31,19.42,19.42,0,0,0-.38-4.48C692.43,758.88,690.55,756.5,687.86,756.83Zm6.52,10.87c0,1.06-.14,2.12-.23,3.19s-.07,2.23-.16,3.3c1.61-.88,3.18-1.82,4.77-2.73l2.39-1.37c.79-.45,1.59-.9,2.35-1.41v0c.43-2.53.42-6.08-1.61-7.81a3.07,3.07,0,0,0-4.06-.18,7.49,7.49,0,0,0-2.66,3.5A16.35,16.35,0,0,0,694.38,767.7Zm-13-7.88c-1-2-3.64-4.91-6.11-3.64s-1.87,5-.95,7.05a37.86,37.86,0,0,0,3.57,5.51q3.47,5,7.06,10v0c.67-.29,1.31-.62,2-1v0q-1.71-6.13-3.57-12.2A36,36,0,0,0,681.42,759.82Zm-9.78,6.37a4.71,4.71,0,0,0-1.87-.48,2.34,2.34,0,0,0-1.75.71c-1.93,1.89-1.24,4.85.29,6.71a20.57,20.57,0,0,0,3.24,3.06,47.72,47.72,0,0,1,5.34,3.49l2.48,1.46.12.09,4.16-1.88c-1.85-2.2-3.47-4.88-5.34-7.3A18.34,18.34,0,0,0,671.64,766.19Zm-2.43,10.51a7,7,0,0,0-4.4-.05,3,3,0,0,0-2.37,3.25c.08,2.66,2.87,4.89,5.11,6.13l0,0c1.72-.63,3.41-1.33,5.12-2l2.56-1c.85-.34,1.71-.65,2.54-1-.45-.3-.89-.61-1.34-.93l-1.34-1c-.89-.59-1.76-1.18-2.62-1.79A15.64,15.64,0,0,0,669.21,776.7Zm-7.88-33.5c0,2-.07,3.88-.17,5.81s-.23,3.88-.39,5.83-.37,3.91-.59,5.88l-.37,3-.43,2.91q-.92,5.83-2.11,11.79l-.6,3-.65,2.93-1.37,5.9,2.86-.81,1.42-.41,1.41-.47,5.62-1.91c-3.71-2.58-7.78-8.59-1.94-11.12a6.64,6.64,0,0,1,4.25-.5,8.68,8.68,0,0,1-2.36-3.36c-.9-2.55.13-6.57,3.05-7.14,2.07-.47,4.2.86,5.94,2.3-.45-.76-.9-1.51-1.31-2.28-1.52-2.84-2.27-7.93,1.16-9.47,3.52-1.79,7,2.27,8.29,5.37.28.72.56,1.45.82,2.18a13.31,13.31,0,0,1,.29-3.45,5.16,5.16,0,0,1,1.59-2.77c2.38-2,6.31-.09,7.69,2.36a9,9,0,0,1,1,3.66,7,7,0,0,1,3-3c5.6-3.05,7.78,4,7.51,8.44l5-3.2c.84-.52,1.63-1.12,2.44-1.68l2.42-1.72-5.47-2.61c-1.82-.88-3.59-1.74-5.41-2.69-3.59-1.85-7.12-3.74-10.54-5.7s-6.81-4-10.07-6.2-6.41-4.4-9.46-6.79a.46.46,0,0,1-.07-.07l-6.16,3.15-6.29,2.86S661.33,743.17,661.33,743.2Z"/><path class="cls-1" d="M715.24,776.21a3.56,3.56,0,0,1-.25-2.81,5,5,0,0,1,1.84-2.48,4.07,4.07,0,0,1,5.62.59c1.2,1.66.53,3.94-1.23,5.43a.61.61,0,0,1-.17.14.88.88,0,0,1-.2.12,4.77,4.77,0,0,1-3.19.64A3.35,3.35,0,0,1,715.24,776.21Zm5.08-.19c2.89-2.26.17-6.12-2.76-4a3,3,0,0,0-1.26,1.76,2.27,2.27,0,0,0,.34,1.73A2.58,2.58,0,0,0,720.32,776Z"/><path class="cls-1" d="M701.72,784.38a4.37,4.37,0,0,1,7.56-4.12c1.07,1.75.21,4-1.67,5.26l-.19.13a.67.67,0,0,1-.21.1C705,786.76,702.63,786.32,701.72,784.38Zm5,.16c3.09-2,.67-6-2.45-4.24S703.51,786.21,706.77,784.54Z"/><path class="cls-1" d="M687.59,791.48a4.39,4.39,0,0,1,7.84-3.56c.94,1.82-.07,4-2,5.2a1,1,0,0,1-.2.12l-.21.09C690.74,794.13,688.35,793.47,687.59,791.48Zm5.06.6c3.19-1.82,1.08-6-2.13-4.4S689.25,793.45,692.65,792.08Z"/><path class="cls-1" d="M673,797.56a4.37,4.37,0,0,1,8.09-3c.79,1.89-.38,3.93-2.44,5a1,1,0,0,1-.21.1,1.11,1.11,0,0,1-.22.07C675.91,800.4,673.6,799.61,673,797.56Zm5,.89c3.34-1.51,1.56-5.87-1.79-4.55S674.48,799.63,678,798.45Z"/><path class="cls-1" d="M657.94,802.43a4.39,4.39,0,0,1,8.29-2.33c.65,1.94-.66,3.95-2.78,4.83a.63.63,0,0,1-.22.09.93.93,0,0,1-.23,0C660.65,805.52,658.39,804.52,657.94,802.43Zm4.92,1.36a2.63,2.63,0,0,0,1.85-3.25,2.44,2.44,0,0,0-3.3-1.43C658,800.1,659.28,804.63,662.86,803.79Z"/><path class="cls-1" d="M575.74,752.73a156.54,156.54,0,0,0,29.5,1.76,154.49,154.49,0,0,0,29.19-3.76l.23,1-1.91.44c-.64.15-1.29.33-2,.43,1,1.44,2,2.78,3,4.16s2,2.73,3,4.08l.45,2a.76.76,0,0,1-.44-.22q-1.9-2.37-3.66-4.77c-1.18-1.59-2.35-3.3-3.48-5a.41.41,0,0,1-.05-.09l-4.31.77c2.14,3.29,4.43,6.53,6.83,9.75l1.81,2.4c.61.8,1.21,1.56,1.83,2.34l3.71,4.62.44,2a.78.78,0,0,1-.46-.21q-2.16-2.44-4.17-4.94c-1.35-1.67-2.68-3.42-4-5.15-2.56-3.46-5-7-7.23-10.52l0,0c-1.52.23-3,.39-4.58.59q2.38,4,5.06,7.88c1.77,2.58,3.62,5,5.54,7.54s3.91,5,5.93,7.43,4,4.79,6.11,7.2l.44,2a.86.86,0,0,1-.49-.21q-1.71-1.86-3.36-3.73l-1.64-1.88-1.63-1.93q-3.23-3.87-6.22-7.78c-1-1.31-2-2.61-2.92-3.93s-1.9-2.7-2.81-4.05q-2.75-4.1-5.19-8.28s0,0,0-.06l-2.16.28c-.72.07-1.45.11-2.17.17,1,1.86,2.09,3.77,3.19,5.56s2.24,3.59,3.42,5.38,2.4,3.56,3.65,5.33,2.55,3.58,3.85,5.26c5.23,6.81,11,13.69,16.88,20.26l.46,2.05a.86.86,0,0,1-.52-.2l-4.59-5.16c-1.52-1.73-3-3.52-4.5-5.28-3-3.53-5.8-7.05-8.51-10.6s-5.32-7.33-7.75-11c-1.22-1.87-2.38-3.68-3.52-5.62s-2.22-3.86-3.26-5.81l0,0-4.43.34c2.48,4.89,5.27,9.71,8.3,14.49l1.15,1.79,1.17,1.74c.78,1.16,1.58,2.31,2.4,3.47,1.62,2.31,3.3,4.61,5,6.92l2.61,3.45,2.66,3.36q2.67,3.36,5.44,6.74l5.55,6.79q2.78,3.34,5.56,6.75l.47,2.07a217.77,217.77,0,0,1-97.18,0l.48-2.13,5.61-6.73,5.6-6.77q2.77-3.37,5.47-6.73l2.67-3.36,2.62-3.45q2.6-3.45,5-6.91c1.63-2.32,3.2-4.57,4.72-7,3-4.78,5.82-9.59,8.3-14.47l-4.43-.35,0,.06a170.93,170.93,0,0,1-14.56,22.45c-2.73,3.57-5.59,7.08-8.55,10.61-1.48,1.76-3,3.55-4.51,5.28l-4.59,5.16a.66.66,0,0,1-.62.18l.47-2.1c6-6.54,11.77-13.41,17-20.21,2.64-3.45,5.17-7,7.53-10.58q1.77-2.69,3.42-5.38c1.1-1.8,2.17-3.7,3.19-5.56l-2.17-.16-2.16-.28,0,.07q-2.45,4.17-5.2,8.27c-.92,1.36-1.87,2.75-2.82,4.06s-1.94,2.62-2.94,3.92c-4,5.21-8.37,10.42-12.9,15.33a.65.65,0,0,1-.58.18l.45-2,3.2-3.55c1-1.2,2.08-2.35,3.12-3.6,2-2.46,4-4.92,6-7.41,1-1.24,1.89-2.48,2.81-3.73s1.81-2.5,2.7-3.81q2.64-3.9,5-7.88l-4.58-.57v0q-3.4,5.32-7.27,10.52c-1.29,1.72-2.62,3.46-4,5.15s-2.75,3.3-4.18,4.93a.6.6,0,0,1-.55.19l.45-2a165.8,165.8,0,0,0,14.34-19l-4.31-.77a.36.36,0,0,1,0,.09c-1.14,1.66-2.33,3.35-3.53,4.95s-2.44,3.18-3.71,4.76a.56.56,0,0,1-.52.2l.47-2c1.06-1.34,2.11-2.69,3.13-4s2-2.7,3-4.13c-.69-.1-1.37-.27-2-.43l-2-.47.23-1C568.91,751.61,572.34,752.07,575.74,752.73ZM638,800.5a203.35,203.35,0,0,1-75.45.08,1.17,1.17,0,0,1-.2-.06l-9.63,11.73L556,813c1.1.22,2.22.41,3.32.61L566,814.8a220.23,220.23,0,0,0,81.6-2.61Q642.74,806.33,638,800.5Zm-3.73-4.56-3.29.58c-1.1.21-2.21.3-3.32.46l-6.64.84a.58.58,0,0,1-.55.07,201.14,201.14,0,0,1-40.61,0,.57.57,0,0,1-.56-.06l-6.64-.84c-1.1-.15-2.22-.27-3.32-.45L566,796l-3,3.65c2.91.51,6.14,1.16,9.62,1.53l5.35.68,1.38.17,1.4.11,2.83.22,5.77.43c1.94.07,3.89.11,5.83.16l2.91.07c1,0,1.94.07,2.9,0l5.68-.15c3.74,0,7.32-.38,10.66-.62s6.4-.65,9.1-1l3.75-.48c1.15-.14,2.18-.37,3.09-.51l3.91-.7Zm-23.1-16.54a2.31,2.31,0,0,0-1.87.12,4.41,4.41,0,0,0-1.49,1.24,18.44,18.44,0,0,0-3.46,8.17c-.62,3-.92,6.11-1.63,8.9l4.56-.11a.91.91,0,0,1,.07-.14c.53-.78,1.07-1.59,1.61-2.4a48.66,48.66,0,0,1,3.26-5.42,20.38,20.38,0,0,0,1.61-4.2C614.35,783.22,613.69,780.26,611.12,779.4ZM612.27,792c-.52.93-1,1.86-1.6,2.78s-1,1.94-1.58,2.87c.91,0,1.83-.08,2.74-.15l2.74-.21,5.48-.42v0c1.49-2.08,3-5.31,2-7.74a3.17,3.17,0,0,0-1.53-1.69,3.78,3.78,0,0,0-2-.26,7.31,7.31,0,0,0-3.92,2A15.52,15.52,0,0,0,612.27,792ZM604,779.27c0-2.24-1.15-6-3.93-5.92-2.82-.07-3.87,3.71-3.92,5.93a38,38,0,0,0,.82,6.52q.94,6,2,12.05v0l1.08,0,1.08,0v0q1.11-6.27,2.08-12.54A36.26,36.26,0,0,0,604,779.27Zm-11.59,1.5a4.29,4.29,0,0,0-1.48-1.24,2.42,2.42,0,0,0-1.88-.12c-2.57.86-3.22,3.83-2.65,6.17a20.24,20.24,0,0,0,1.6,4.16,31.65,31.65,0,0,1,1.76,2.72c.54.95,1.05,1.85,1.53,2.74l1.6,2.38s.05.1.07.14l4.56.12c-.71-2.79-1-5.91-1.64-8.9A18.25,18.25,0,0,0,592.44,780.77Zm-6.74,8.41a7.29,7.29,0,0,0-4-2,4.69,4.69,0,0,0-1.06,0,3,3,0,0,0-1,.27,3.15,3.15,0,0,0-1.51,1.66c-1.07,2.42.47,5.67,2,7.73v0l5.48.42,2.74.2,1.37.11,1.38,0c-.55-.94-1.07-1.87-1.59-2.87s-1.08-1.83-1.58-2.75A16.74,16.74,0,0,0,585.7,789.18Zm7.41-33.6c-.42.88-.86,1.75-1.31,2.63s-.9,1.7-1.36,2.55c-.92,1.69-1.89,3.38-2.88,5.06s-2,3.37-3.09,5l-1.61,2.51-.83,1.25-.83,1.21c-2.22,3.24-4.56,6.46-7,9.69-1.21,1.61-2.45,3.23-3.69,4.83l-3.78,4.71,2.92.52c1,.15,2,.26,2.94.39l5.88.74a12.72,12.72,0,0,1-1.68-7c.25-2.27,1.56-4,4.75-3.87a6.5,6.5,0,0,1,4,1.39,9,9,0,0,1-.67-4.06c.3-2.69,3-5.85,5.85-5.09,2.07.44,3.42,2.59,4.36,4.63-.08-.88-.15-1.75-.2-2.62-.13-3.22,1.41-8.14,5.17-8,3.95-.09,5.36,5.1,5.14,8.43-.06.77-.13,1.55-.21,2.32.94-2.07,2.29-4.29,4.4-4.76,3-.8,5.71,2.64,5.89,5.45a9,9,0,0,1-.7,3.72,6.66,6.66,0,0,1,4-1.41c6.37-.31,5.27,6.94,3.08,10.88l5.88-.75c1-.14,2-.23,2.94-.4l2.92-.52-3.78-4.71c-1.25-1.58-2.49-3.21-3.7-4.82q-3.64-4.83-7-9.68c-1.11-1.6-2.21-3.3-3.27-5s-2.09-3.36-3.09-5-2-3.37-2.89-5.07c-.46-.85-.92-1.7-1.36-2.55s-.89-1.74-1.32-2.62l0-.09-6.94.18-6.94-.17A.36.36,0,0,1,593.11,755.58Z"/><path class="cls-1" d="M627.33,808.75a4.39,4.39,0,0,1,8.54-1.08c.36,2-1.24,3.81-3.47,4.38l-.22.05H632C629.55,812.21,627.47,810.88,627.33,808.75Zm4.66,2.07a2.62,2.62,0,0,0,2.31-2.93,2.42,2.42,0,0,0-3-1.9C627.69,806.45,628.33,811.12,632,810.82Z"/><path class="cls-1" d="M611.61,810.24a4.36,4.36,0,0,1,8.59-.45c.2,2.05-1.53,3.65-3.79,4l-.23,0a.85.85,0,0,1-.23,0C613.56,813.82,611.58,812.38,611.61,810.24Zm4.47,2.32c3.64-.45,3.23-5.15-.36-4.88S612.42,812.66,616.08,812.56Z"/><path class="cls-1" d="M595.83,810.47a4.38,4.38,0,0,1,8.59.2c.05,2.05-1.79,3.56-4.07,3.81a.8.8,0,0,1-.23,0l-.23,0C597.51,814.23,595.65,812.6,595.83,810.47Zm4.29,2.75c3.65-.26,3.59-5,0-4.89C596.53,808.25,596.47,813,600.12,813.22Z"/><path class="cls-1" d="M580.07,809.61a4.36,4.36,0,0,1,8.56.85c-.1,2-2,3.38-4.34,3.4a.59.59,0,0,1-.23,0,.85.85,0,0,1-.23,0C581.47,813.44,579.73,811.72,580.07,809.61Zm4.09,3c3.66.1,3.94-4.61.36-4.88S580.52,812.13,584.16,812.58Z"/><path class="cls-1" d="M564.41,807.52a4.12,4.12,0,0,1,4.76-2.78,4.07,4.07,0,0,1,3.72,4.25c-.25,2-2.3,3.25-4.6,3.15h-.23l-.23,0C565.51,811.5,563.91,809.58,564.41,807.52Zm3.84,3.34c3.66.29,4.29-4.38.73-4.84a2.43,2.43,0,0,0-3,1.91A2.61,2.61,0,0,0,568.25,810.86Z"/><path class="cls-1" d="M512,727.09a153.54,153.54,0,0,0,53.62,23.64l-.23,1-3.9-.89c.57,3.34,1.15,6.66,1.82,10l-.45,2a.79.79,0,0,1-.3-.39q-.69-3-1.24-5.91c-.36-2-.7-3.9-1-5.92a.38.38,0,0,1,0-.1l-4.2-1.2c.5,3.9,1.16,7.83,1.92,11.77s1.68,7.73,2.59,11.6l-.44,2a.9.9,0,0,1-.34-.39q-.87-3.15-1.61-6.28-.37-1.56-.72-3.12c-.22-1.07-.43-2.13-.63-3.19q-1.2-6.36-2-12.65v0l-1.11-.31-1.09-.37-2.18-.74c.28,3.07.65,6.21,1.14,9.28s1.09,6.12,1.74,9.2c.33,1.54.67,3.08,1,4.63s.72,3.12,1.11,4.62c.77,3,1.58,6.08,2.39,9.14l-.44,2a.89.89,0,0,1-.36-.4c-1-3.24-1.88-6.44-2.72-9.64s-1.57-6.51-2.24-9.74c-.33-1.61-.64-3.22-.93-4.82s-.56-3.18-.79-4.82c-.46-3.27-.83-6.51-1.09-9.74v-.07c-1.37-.48-2.76-.88-4.09-1.45,0,1.07.12,2.14.19,3.21s.18,2.1.28,3.16c.21,2.1.46,4.22.75,6.34.59,4.24,1.29,8.6,2.18,12.78s1.88,8.49,3,12.8c.53,2.17,1.12,4.24,1.7,6.38s1.19,4.26,1.79,6.4l-.46,2.05a.93.93,0,0,1-.39-.41c-.63-2.22-1.27-4.44-1.9-6.66l-.92-3.3-.86-3.36c-1.14-4.47-2.18-8.9-3.09-13.28-.46-2.16-.85-4.44-1.22-6.65s-.7-4.43-1-6.63-.54-4.39-.74-6.57-.33-4.44-.43-6.65v-.06L540,743.66c.11,5.48.53,11,1.18,16.68s1.65,11.09,2.76,16.75c.27,1.43.57,2.82.87,4.21l.94,4.18c.64,2.81,1.31,5.63,2,8.46l1,4.28,1.06,4.21c.7,2.82,1.41,5.65,2.09,8.51l-.47,2.07a215.59,215.59,0,0,1-87.63-42.22l1.36-1.71,8-3.65c2.66-1.2,5.29-2.36,8-3.62,5.31-2.47,10.5-4.9,15.58-7.49s10.09-5.39,14.85-8.27,9.43-6.12,13.78-9.45l-3.84-2.22-.05,0c-1.78,1.3-3.62,2.59-5.47,3.81s-3.7,2.37-5.61,3.51-3.85,2.26-5.82,3.35-4,2.18-6,3.17c-4,2-8.13,4-12.34,5.87-2.12,1-4.19,1.84-6.32,2.74l-6.4,2.68a.71.71,0,0,1-.64-.11l1.35-1.68c4.14-1.72,8.22-3.41,12.23-5.18s8-3.69,11.9-5.63,7.69-4,11.37-6.23q2.78-1.63,5.44-3.36l2.64-1.74,2.63-1.85c-1.28-.69-2.46-1.53-3.69-2.3l-.06,0q-4,2.7-8.3,5.21c-2.83,1.64-5.7,3.15-8.65,4.64s-6,2.94-9,4.3-6.12,2.62-9.25,3.88a.65.65,0,0,1-.62-.08l1.29-1.61q4.47-1.82,8.81-3.7l2.15-1,2.17-1c1.43-.68,2.86-1.37,4.26-2.08q4.23-2.11,8.25-4.39c1.33-.75,2.69-1.57,4-2.39s2.63-1.66,3.92-2.51c-1.28-.84-2.62-1.62-3.85-2.55l0,0q-5.4,3.33-11.16,6.34c-1.94,1-3.84,1.93-5.8,2.85s-3.93,1.79-5.94,2.65a.58.58,0,0,1-.58-.07l1.28-1.6q5.56-2.4,10.84-5.07c3.56-1.85,7-3.8,10.38-5.84L507.25,725l-.08.06c-3.49,2-7.05,3.8-10.73,5.56a.56.56,0,0,1-.56,0l1.31-1.63c3.1-1.49,6.13-3,9.08-4.68L503,721.68l.64-.8c1.37,1.06,2.71,2.15,4.09,3.2Zm35.26,70.06A202.31,202.31,0,0,1,511.63,784a205.34,205.34,0,0,1-32.47-19.56l-.16-.15c-2.3,1.09-4.57,2.12-6.86,3.16l-6.88,3.19,2.66,2.09c.89.68,1.75,1.41,2.68,2l5.51,3.92a216.6,216.6,0,0,0,74.73,33.12q-.92-3.68-1.81-7.34l-.92-3.64Zm-1.38-5.75-3.22-.91L541,790l-1.59-.53-6.34-2.15a.57.57,0,0,1-.53-.18c-.81-.26-1.6-.57-2.39-.88l-2.36-.94-4.74-1.87c-3.11-1.34-6.19-2.77-9.28-4.17s-6-3.06-9-4.66l-4.41-2.53-2.21-1.27c-.74-.42-1.47-.85-2.18-1.31a.59.59,0,0,1-.47-.31l-5.63-3.61c-.95-.58-1.85-1.24-2.76-1.89l-2.73-1.94-4.28,2,3.8,2.71c1.32.94,2.69,1.94,4.18,2.86l4.55,2.92c.78.49,1.55,1,2.36,1.49l2.46,1.42,5,2.88c.84.5,1.72.92,2.58,1.37l2.6,1.34,2.6,1.32c.87.44,1.72.9,2.6,1.28l5.19,2.35a195.12,195.12,0,0,0,18.52,7.13c1.29.42,2.49.86,3.6,1.18l3,.86,3.82,1.09Zm-13.66-24.91c-1.08-1-2.36-.77-3.63-.21a18.39,18.39,0,0,0-6.66,5.86c-1.86,2.42-3.48,5.1-5.33,7.3l4.16,1.88.12-.09,2.5-1.46a45.18,45.18,0,0,1,5.29-3.48,20,20,0,0,0,3.26-3.09C533.41,771.34,534.1,768.39,532.17,766.49Zm-4.45,11.88c-.86.61-1.74,1.21-2.63,1.8s-1.8,1.33-2.69,1.92c1.69.73,3.41,1.36,5.11,2s3.4,1.37,5.13,2l0,0c2.24-1.24,5-3.47,5.11-6.13a3,3,0,0,0-2.39-3.28,7.38,7.38,0,0,0-4.39.08A16.24,16.24,0,0,0,527.72,778.37Zm-1.89-15.06c.93-2,1.57-5.9-1-7s-5.1,1.67-6.11,3.64a37.38,37.38,0,0,0-2.09,6.23q-1.77,5.83-3.42,11.73v0l1,.49,1,.45v0q3.74-5.16,7.33-10.38A36.24,36.24,0,0,0,525.83,763.31Zm-11.08-3.68c-.35-1.32-.94-2.51-2.43-2.7-2.69-.33-4.57,2.06-5.07,4.41a20.17,20.17,0,0,0-.38,4.44,45,45,0,0,1,.58,6.35c.14,1,.28,1.93.41,2.85a.43.43,0,0,1,0,.16l4.07,2.08c.57-2.83,1.65-5.76,2.39-8.73A18.41,18.41,0,0,0,514.75,759.63ZM505,764.27a7.37,7.37,0,0,0-2.71-3.49,3.06,3.06,0,0,0-4,.18c-2,1.73-2,5.28-1.61,7.81v0c.76.51,1.57.94,2.36,1.41l2.38,1.37c1.59.9,3.16,1.85,4.78,2.71-.09-1.06-.12-2.18-.17-3.29s-.17-2.11-.23-3.16A16.62,16.62,0,0,0,505,764.27Zm21.3-27c-1.55,1.23-3.07,2.34-4.65,3.48s-3.17,2.23-4.8,3.32c-3.26,2.16-6.67,4.31-10.07,6.22s-6.94,3.85-10.54,5.71c-1.8.94-3.59,1.82-5.4,2.69l-5.47,2.62,2.42,1.72c.81.57,1.61,1.15,2.45,1.67l5,3.2c-.29-4.5,1.87-11.43,7.49-8.45a6.8,6.8,0,0,1,3,3,8.83,8.83,0,0,1,1.15-3.94c1.45-2.3,5.24-4,7.5-2.07,1.65,1.35,1.94,3.83,1.9,6.09.3-.83.62-1.65,1-2.45,1.28-3,4.81-6.72,8.14-5,3.59,1.64,2.61,6.92,1,9.82-.39.68-.79,1.34-1.2,2a13.39,13.39,0,0,1,2.88-1.92,5.12,5.12,0,0,1,3.15-.48c3.07.6,4,4.87,2.95,7.48a9,9,0,0,1-2.25,3.05,6.87,6.87,0,0,1,4.26.47c5.88,2.46,1.75,8.55-1.93,11.12l5.62,1.91,1.41.47,1.43.4,2.85.81-1.37-5.9-.65-2.92-.61-3c-.79-4-1.51-7.89-2.12-11.79s-1.06-7.86-1.4-11.74c-.17-2-.31-3.9-.4-5.83s-.18-3.83-.18-5.8c0,0,0-.07,0-.1l-6.3-2.85-6.15-3.15Z"/><path class="cls-1" d="M534.07,800a3.51,3.51,0,0,1,2-1.94,4.89,4.89,0,0,1,3.08-.1,4.09,4.09,0,0,1,3.06,4.76c-.56,2-2.77,2.87-5,2.43a1,1,0,0,1-.23,0,.93.93,0,0,1-.22-.08C534.56,804.09,533.27,802,534.07,800Zm3.31,3.87c3.57.84,4.9-3.69,1.43-4.68a3,3,0,0,0-2.15.1,2.21,2.21,0,0,0-1.14,1.35,2.39,2.39,0,0,0,.15,1.81A2.8,2.8,0,0,0,537.38,803.85Z"/><path class="cls-1" d="M519.23,794.49a4.38,4.38,0,0,1,7.95,3.35c-.71,1.93-3,2.62-5.16,2l-.22-.07a.82.82,0,0,1-.21-.1C519.44,798.57,518.29,796.41,519.23,794.49Zm3,4c3.47,1.18,5.13-3.24,1.78-4.56S518.92,797,522.27,798.54Z"/><path class="cls-1" d="M504.89,787.85a4.39,4.39,0,0,1,7.66,3.92c-.84,1.87-3.16,2.43-5.33,1.66a1.19,1.19,0,0,1-.22-.08,1,1,0,0,1-.2-.12C504.77,792,503.8,789.69,504.89,787.85Zm2.67,4.34c3.41,1.36,5.4-2.92,2.13-4.41S504.38,790.37,507.56,792.19Z"/><path class="cls-1" d="M491,780.21a4.2,4.2,0,0,1,5.49-.9,4.14,4.14,0,0,1,1.87,5.38c-1,1.8-3.32,2.15-5.4,1.18a.67.67,0,0,1-.21-.1.91.91,0,0,1-.19-.13C490.64,784.27,489.82,782,491,780.21Zm2.4,4.45c3.26,1.67,5.57-2.45,2.45-4.24S490.35,782.67,493.44,784.66Z"/><path class="cls-1" d="M477.87,771.49a4.09,4.09,0,0,1,5.49-.43,4.83,4.83,0,0,1,1.87,2.57,3.5,3.5,0,0,1-.37,2.88,3.36,3.36,0,0,1-2.42,1.48,4.77,4.77,0,0,1-3.09-.65.71.71,0,0,1-.2-.12.65.65,0,0,1-.18-.15C477.14,775.53,476.52,773.14,477.87,771.49Zm2,4.67a2.82,2.82,0,0,0,2.17.46,2.46,2.46,0,0,0,1.51-1,2.28,2.28,0,0,0,.34-1.73,3,3,0,0,0-1.26-1.75C479.7,770,477,773.9,479.88,776.16Z"/><path class="cls-1" d="M465.5,676.25a155.45,155.45,0,0,0,38.13,44.63l-.64.8c-1-.81-2.07-1.58-3.11-2.52-1,3.32-1.89,6.54-2.73,9.83l-1.27,1.6a.77.77,0,0,1-.11-.48c.45-2,.92-3.9,1.45-5.85s1.11-3.89,1.7-5.82a.36.36,0,0,1,0-.09l-3.32-2.86c-1.22,3.71-2.32,7.52-3.33,11.39-.5,1.93-1,3.89-1.45,5.83l-1.29,5.78-1.25,1.57a.86.86,0,0,1-.13-.5c.39-2.15.78-4.22,1.27-6.35s1-4.23,1.55-6.3,1.14-4.13,1.75-6.16,1.24-4,2-6.07l0,0-3.34-3.19c-1.08,2.88-2.06,5.84-3,8.84-.45,1.5-.9,3-1.3,4.53s-.78,3-1.15,4.54c-1.46,6.08-2.77,12.39-3.91,18.53l-1.26,1.57a1,1,0,0,1-.15-.52c.26-1.66.54-3.3.82-4.94s.63-3.32,1-5c.67-3.28,1.39-6.51,2.18-9.69s1.69-6.37,2.67-9.48,2-6.2,3.19-9.2l0-.07c-.54-.49-1-1-1.53-1.55l-1.5-1.58a176.23,176.23,0,0,0-8,24.49c-1.06,4.2-2,8.43-2.86,12.77q-.68,3.24-1.3,6.54t-1.15,6.52l-1.31,1.64a.9.9,0,0,1-.17-.53c.39-2.3.75-4.53,1.18-6.82s.87-4.56,1.32-6.81.92-4.47,1.41-6.68l.75-3.29c.26-1.1.55-2.22.83-3.31,1.14-4.4,2.37-8.71,3.74-12.9.33-1.05.69-2.1,1.07-3.16s.76-2.1,1.16-3.14c.78-2.08,1.61-4.13,2.47-6.15l0-.06-1.54-1.6c-.52-.53-1-1.12-1.47-1.67-.59,1.26-1.16,2.54-1.71,3.83s-1.05,2.54-1.56,3.83c-1,2.58-2,5.21-2.87,7.88-1.86,5.38-3.35,10.74-4.8,16.3l-1.05,4.19c-.35,1.4-.7,2.82-1,4.2L468.76,752q-1.81,8.54-3.65,17.13l-1.33,1.66-2.4-1.9c-.8-.63-1.56-1.32-2.34-2l-4.62-4c-1.57-1.31-3-2.77-4.49-4.16l-4.42-4.23-4.23-4.42-2.11-2.22c-.35-.37-.71-.73-1.05-1.11l-1-1.16-4-4.62c-.66-.78-1.34-1.53-2-2.33l-1.9-2.4a222.68,222.68,0,0,1-26.12-41.41l2-1c5.93.07,11.79.22,17.57.33,1.45,0,2.87.07,4.33.07h4.37q4.35,0,8.62-.1l4.25-.13c1.41,0,2.86-.14,4.28-.23,2.84-.18,5.66-.41,8.44-.69a149.53,149.53,0,0,0,16.51-2.56L470.87,687l-.06,0a169.27,169.27,0,0,1-26.54,2.56c-9.12.25-18.17-.17-27.54-.64a.69.69,0,0,1-.54-.37l1.94-.94c4.5.24,9,.46,13.35.6,2.2.06,4.35.13,6.56.13s4.4,0,6.58-.06,4.34-.12,6.48-.23,4.26-.23,6.43-.45c4.3-.4,8.53-.94,12.68-1.65l-2.34-3.67-.07,0c-1.61.24-3.25.46-4.87.65s-3.21.31-4.83.44c-3.25.24-6.53.4-9.86.48s-6.6,0-9.94-.06-6.7-.26-10.1-.47a.65.65,0,0,1-.52-.34l1.86-.89c6.48.38,12.79.62,19,.52q4.76-.11,9.41-.43c1.54-.11,3.08-.24,4.61-.4s3-.32,4.6-.55c-.43-.63-.78-1.32-1.17-2l-1.15-2h0a169,169,0,0,1-25.81.81.65.65,0,0,1-.51-.31l1.85-.89q6.11.23,12.05.07c2,0,3.94-.13,5.9-.25s4-.3,5.94-.5l-1.1-1.9-1-1.94h-.1q-6,.42-12.13.41a.55.55,0,0,1-.49-.28l1.88-.9c3.47,0,6.9-.12,10.28-.34l-1.91-3.7.93-.45L463,671.7c.4.77.77,1.55,1.2,2.3Zm1.43,78.41a205,205,0,0,1-47.16-58.91,1.59,1.59,0,0,1-.07-.2c-5-.08-10.07-.18-15.18-.21l3.08,6c.53,1,1,2,1.58,3l1.68,2.94a218.46,218.46,0,0,0,52.92,62.18C464.83,764.52,465.88,759.59,466.93,754.66Zm1.23-5.74-1.26-1.1c-.42-.36-.84-.73-1.24-1.12l-2.42-2.31-2.42-2.31c-.81-.77-1.62-1.53-2.38-2.35a.61.61,0,0,1-.39-.41,200.9,200.9,0,0,1-25.34-31.74.57.57,0,0,1-.3-.47c-2.49-3.71-4.64-7.63-6.87-11.49-1.59,0-3.14,0-4.7,0,.64,1.33,1.46,2.66,2.26,4.08l2.53,4.39.66,1.15c.23.38.48.75.72,1.13l1.47,2.31,3,4.74c1.09,1.57,2.22,3.13,3.34,4.72.56.79,1.13,1.58,1.69,2.38.29.39.56.79.86,1.18l.9,1.15,3.59,4.57c.6.75,1.17,1.52,1.79,2.24s1.24,1.43,1.85,2.13l3.6,4.15c.57.69,1.2,1.31,1.79,1.94l1.76,1.85,3.32,3.48c1.07,1.09,2.15,2.07,3.12,3l2.74,2.6c.84.8,1.58,1.54,2.3,2.13l3,2.6Zm-1.51-28.36c-.47-1.45-1.72-1.79-3.13-1.81a18.54,18.54,0,0,0-8.58,2.44c-2.73,1.38-5.37,3.11-8,4.28,1,1.18,2,2.31,3,3.47l.16,0,2.9-.25a39.79,39.79,0,0,1,6.21-.79,20.42,20.42,0,0,0,4.3-1.39C465.7,725.45,467.57,723.11,466.65,720.56Zm-9.16,8.78c-1,.17-2.07.31-3.11.45s-2.16.39-3.23.55c2.35,2.82,4.94,5.41,7.46,8.07h0a13.52,13.52,0,0,0,4.08-.77,5.68,5.68,0,0,0,3.13-2.49c1.74-3.32-1.94-5.53-4.7-5.84A16.59,16.59,0,0,0,457.49,729.34Zm4.82-14.4a8.89,8.89,0,0,0,2.4-3.11,3.51,3.51,0,0,0-.15-3.71c-1.74-2.21-5.37-.66-7.14.68a38.23,38.23,0,0,0-4.56,4.7c-2.74,3-5.45,6-8.13,9.09h0l1.34,1.71,0,0c3.72-2,7.38-4,11.05-6.15A35.62,35.62,0,0,0,462.31,714.94ZM454,706.8c.3-1.37.25-2.69-1-3.48-2.31-1.44-5.05-.1-6.5,1.8a19.45,19.45,0,0,0-2.24,3.82,41.58,41.58,0,0,1-2.2,6c-.31,1-.61,1.87-.91,2.77a1.16,1.16,0,0,1-.06.15c.88,1.23,1.86,2.4,2.79,3.61,1.72-2.29,4-4.47,5.91-6.82A19.11,19.11,0,0,0,454,706.8Zm-10.82,0a7.74,7.74,0,0,0,0-1.08,7.35,7.35,0,0,0-.12-1.14,6.42,6.42,0,0,0-.75-2.13,3.12,3.12,0,0,0-3.75-1.56c-2.59.69-4.11,3.88-4.79,6.33v0l1.48,2.31.75,1.15.79,1.13,3.19,4.48c.4-1,.84-2,1.27-3.05s.74-2,1.13-2.93A15.51,15.51,0,0,0,443.13,706.8Zm30.94-15.19c-3.77.83-7.61,1.51-11.51,2.08-2,.29-3.88.51-5.84.71s-3.91.37-5.89.52c-8,.64-15.9.71-24.1.7,2,3.42,3.87,6.91,6.07,10.19,1.65-4.16,6.56-9.46,10.43-4.39a7,7,0,0,1,1.37,4.08,8.78,8.78,0,0,1,2.75-3.06,6.77,6.77,0,0,1,4.24-.87,4.16,4.16,0,0,1,3.47,2.21c.91,1.93,0,4.37-1,6.35.63-.61,1.27-1.21,1.93-1.79,2.42-2.11,7.25-4,9.55-1a4,4,0,0,1,.86,2.52,5.81,5.81,0,0,1-.63,2.59,11.38,11.38,0,0,1-3.66,4.2q-1,.66-1.95,1.29c2.22-.56,4.82-.92,6.51.43a3.72,3.72,0,0,1,1.21,1.83,4.9,4.9,0,0,1,.18,2.2,6.66,6.66,0,0,1-2,4,9,9,0,0,1-3.36,1.78,6.79,6.79,0,0,1,3.67,2.25,6.17,6.17,0,0,1,1.06,1.78,3.77,3.77,0,0,1,.27,1.61,4.33,4.33,0,0,1-1.41,2.75,12.88,12.88,0,0,1-6.54,3.09c1.4,1.39,2.85,2.74,4.28,4.11s2.84,2.75,4.35,4c.84-3.92,1.81-7.92,2.8-11.81q.74-2.93,1.52-5.8c.54-1.92,1-3.79,1.66-5.71a164.41,164.41,0,0,1,8.38-22,.26.26,0,0,1,.05-.09c-1.51-1.75-3.07-3.46-4.45-5.31l-2.14-2.72c-.36-.45-.72-.9-1.07-1.36l-1-1.42Z"/><path class="cls-1" d="M453.86,751.53a4.12,4.12,0,0,1,5.51.37c1.63,1.61,2,4.1.65,5.63a3.31,3.31,0,0,1-2.61,1.11,4.3,4.3,0,0,1-1.52-.28,5.77,5.77,0,0,1-1.42-.84.73.73,0,0,1-.18-.14,1.14,1.14,0,0,1-.15-.17C452.55,755.41,452.28,753,453.86,751.53Zm1.31,4.91a2.94,2.94,0,0,0,2.05.79,2.42,2.42,0,0,0,1.65-.79,2.24,2.24,0,0,0,.59-1.65,2.83,2.83,0,0,0-1-1.94C455.89,750.37,452.64,753.79,455.17,756.44Z"/><path class="cls-1" d="M442.9,740.16a4.22,4.22,0,0,1,5.48.77,4.11,4.11,0,0,1,.24,5.66c-1.47,1.43-3.82,1.1-5.54-.42a.64.64,0,0,1-.17-.16,1.19,1.19,0,0,1-.15-.18C441.25,744,441.22,741.47,442.9,740.16Zm1,5c2.65,2.53,6.06-.73,3.58-3.34a2.49,2.49,0,0,0-3.6-.36A2.56,2.56,0,0,0,443.85,745.14Z"/><path class="cls-1" d="M432.83,728a4.14,4.14,0,0,1,5.41,1.17,4.63,4.63,0,0,1,1,3.05,3.49,3.49,0,0,1-1.2,2.64,3.33,3.33,0,0,1-2.75.71,5.09,5.09,0,0,1-2.72-1.57,1.17,1.17,0,0,1-.15-.16.76.76,0,0,1-.13-.2C431,731.63,431.05,729.18,432.83,728Zm.58,5c2.41,2.76,6-.23,3.82-3S431.29,730,433.41,733Z"/><path class="cls-1" d="M423.7,715.1a3.52,3.52,0,0,1,2.81-.25,4.89,4.89,0,0,1,2.47,1.84,4.07,4.07,0,0,1-.59,5.62c-1.67,1.2-3.94.53-5.43-1.23a1,1,0,0,1-.15-.18.78.78,0,0,1-.11-.2,4.82,4.82,0,0,1-.64-3.19A3.3,3.3,0,0,1,423.7,715.1Zm.18,5.08c2.26,2.88,6.12.17,4-2.76a3.48,3.48,0,0,0-.85-.86,2.47,2.47,0,0,0-.91-.41,2.21,2.21,0,0,0-1.72.35,2.41,2.41,0,0,0-1,1.51,2.78,2.78,0,0,0,0,1A3.4,3.4,0,0,0,423.88,720.18Z"/><path class="cls-1" d="M415.53,701.57a4.37,4.37,0,0,1,4.12,7.56c-1.75,1.07-3.94.21-5.26-1.68a1.4,1.4,0,0,1-.13-.18l-.1-.22C413.15,704.88,413.6,702.47,415.53,701.57Zm-.15,5c2,3.08,6,.67,4.23-2.45S413.71,703.36,415.38,706.62Z"/><path class="cls-1" d="M445.76,610.4a153.41,153.41,0,0,0,14.87,56.69l-.93.45c-.54-1.21-1.06-2.37-1.64-3.65-2.28,2.54-4.56,5.09-6.78,7.71l-1.84.89a.84.84,0,0,1,.12-.49c2.56-3.2,5.22-6.2,7.93-9.16l.07-.06-.91-2c-.29-.67-.53-1.36-.8-2-1.38,1.41-2.78,2.88-4.09,4.34s-2.6,3-3.88,4.48c-2.55,3-5.06,6.16-7.54,9.3l-1.81.87a.87.87,0,0,1,.11-.51q3.9-5.32,8.05-10.19c.69-.81,1.38-1.61,2.08-2.41s1.41-1.58,2.15-2.37c1.47-1.58,2.95-3.12,4.45-4.64l0,0-1.69-4.29a169,169,0,0,0-12.66,13.78c-3.93,4.83-7.74,9.91-11.56,15l-1.81.87a.89.89,0,0,1,.1-.53q2.94-4.19,5.93-8.18,1.5-2,3-3.93l1.53-1.93,1.59-1.92q3.21-3.81,6.53-7.39c2.22-2.38,4.46-4.66,6.88-6.9l.06,0-1.39-4.11q-4.73,4.22-9.23,8.9c-3,3.1-5.76,6.3-8.57,9.65q-2.1,2.5-4.17,5.09c-1.34,1.71-2.66,3.44-4,5.19q-4,5.25-7.9,10.74l-1.89.91a1,1,0,0,1,.08-.56c5.48-7.64,10.77-15,16.66-21.91,1.45-1.73,2.92-3.42,4.39-5.09.75-.83,1.47-1.64,2.24-2.46s1.55-1.64,2.33-2.44q4.68-4.82,9.59-9.15l0,0c-.26-.69-.42-1.41-.63-2.12l-.6-2.13c-2.14,1.76-4.24,3.59-6.32,5.49s-4,3.82-6,5.83c-3.91,4-7.8,8.26-11.4,12.6q-2.75,3.27-5.47,6.67l-2.73,3.4L415.76,680c-3.52,4.57-7.08,9.23-10.74,13.88l-1.91.92A220.08,220.08,0,0,1,381.5,600h2.19c5.31,2.63,10.53,5.31,15.69,7.92l3.86,2c1.29.64,2.62,1.28,3.92,1.9q3.93,1.89,7.82,3.66c2.61,1.18,5.16,2.32,7.8,3.4s5.3,2.1,7.93,3.06,5.28,1.85,7.91,2.67,5.38,1.55,8.06,2.21c-.24-1.46-.57-2.9-.71-4.38h-.07c-4.21-1.17-8.42-2.55-12.63-4.1-2.14-.77-4.17-1.6-6.23-2.46s-4.11-1.77-6.17-2.7-4.13-1.91-6.2-2.91-4.05-2-6.09-3.09c-4-2.11-8.12-4.31-12.23-6.55A.71.71,0,0,1,396,600h2.16c3.95,2.17,7.87,4.3,11.77,6.33q2.93,1.53,5.83,3c2,1,4,1.9,6,2.81,4,1.81,7.93,3.5,11.89,5s8.12,2.87,12.18,4l-.55-4.31-.07,0c-.78-.24-1.57-.49-2.34-.75l-2.28-.79q-2.28-.82-4.56-1.71-4.54-1.8-9.1-3.87c-1.54-.68-3-1.4-4.47-2.13s-3-1.48-4.43-2.25q-4.44-2.31-8.9-4.81a.67.67,0,0,1-.33-.53h2.06c5.67,3.16,11.29,6.12,16.92,8.76a170,170,0,0,0,17.36,6.88l-.34-4.61h0c-2-.71-4-1.47-6-2.26s-3.93-1.64-5.89-2.52q-5.85-2.62-11.68-5.74a.62.62,0,0,1-.32-.5h2.05c3.6,1.9,7.21,3.68,10.83,5.31s7.21,3.14,11,4.49c-.05-.73-.14-1.46-.15-2.19l0-2.19-.09,0c-3.72-1.49-7.42-3.15-11.12-4.92A.58.58,0,0,1,433,600H435q4.69,2.25,9.41,4.19l-.11-4.19h1l.14,5.21.06,2.6C445.61,608.67,445.7,609.54,445.76,610.4ZM413,681.64a204.1,204.1,0,0,1-16.84-73.59,1.36,1.36,0,0,1,0-.21c-4.47-2.25-9-4.54-13.59-6.78l.17,6.75.09,3.37.25,3.38a215.59,215.59,0,0,0,20.63,79.09C406.85,689.64,409.92,685.61,413,681.64Zm3.58-4.64-2.46-6.22-.61-1.56c-.21-.52-.41-1-.58-1.57l-1.08-3.17a.61.61,0,0,1-.17-.54,197,197,0,0,1-9-39.62.57.57,0,0,1-.07-.55l-.42-3.32-.26-3.34-.5-6.67-4.19-2.09c.24,5.89.82,13.1,1.89,20.66.2,1.9.59,3.8.92,5.71s.68,3.84,1,5.76.86,3.79,1.28,5.67c.22.94.43,1.87.65,2.79s.41,1.85.68,2.75l1.5,5.29c.5,1.71.94,3.4,1.5,5s1.06,3.11,1.55,4.57l.71,2.11c.23.69.46,1.36.72,2l2.54,6.43c.34.86.62,1.62.89,2.23s.49,1.09.65,1.43C414.63,679.47,415.55,678.25,416.54,677Zm11-26.23c.19-1.5-.8-2.35-2.07-3a19,19,0,0,0-8.79-1.54c-3,0-6.14.45-9,.37.34,1.49.66,3,1.11,4.43l.15,0,2.75,1a40.65,40.65,0,0,1,6,2,20,20,0,0,0,4.4.64C424.47,654.79,427.21,653.48,427.54,650.77Zm-12.06,3.93c-1-.29-2-.61-3-1s-2.12-.58-3.16-.9l1.5,5.29c.52,1.76,1.15,3.48,1.73,5.22h0c2.33,1,5.77,1.79,7.92.19,3-2.26.58-5.8-1.76-7.28A15.43,15.43,0,0,0,415.48,654.7ZM426,643.84c2.18-.54,5.62-2.45,5-5.16s-4.59-2.92-6.76-2.48a36.49,36.49,0,0,0-6.15,2.24q-5.64,2.25-11.25,4.63h0l.49,2.11h0q6.33-.3,12.64-.74A35.83,35.83,0,0,0,426,643.84Zm-4-11c.86-1.1,1.38-2.3.56-3.57-1.5-2.3-4.47-2.3-6.65-1.22a19,19,0,0,0-3.67,2.47,41.15,41.15,0,0,1-4.56,4.41l-2,2.1-.13.1.41,2.24c.12.75.33,1.49.49,2.23,2.54-1.31,5.5-2.29,8.27-3.56A18.82,18.82,0,0,0,422.08,632.87Zm-9.76-4.71c1.5-2.38,2.05-6.63-1.59-7.32-2.63-.51-5.38,1.7-7.05,3.6l0,0,.69,5.45c.3,1.81.64,3.61,1,5.42.79-.74,1.63-1.46,2.45-2.18s1.52-1.45,2.29-2.15A18,18,0,0,0,412.32,628.16ZM446.8,628c-3.75-.9-7.57-1.94-11.29-3.14s-7.38-2.55-11.08-4q-2.79-1.1-5.57-2.27t-5.45-2.42c-3.64-1.66-7.3-3.4-11-5.18l.44,5.91.23,3c.09,1,.24,2,.35,2.94,3.29-3,10-5.65,11.33.59a6.63,6.63,0,0,1-.56,4.27,9,9,0,0,1,3.83-1.56,6.48,6.48,0,0,1,4.15,1.07,4.21,4.21,0,0,1,2.18,3.5c0,2.13-1.84,3.92-3.64,5.29.83-.28,1.67-.54,2.52-.77a10.85,10.85,0,0,1,5.35-.07,4.58,4.58,0,0,1,3.69,3.3c.87,3.86-3.9,6.39-7.18,6.9-.77.12-1.55.23-2.32.32,2.24.45,4.77,1.26,5.72,3.2a4.17,4.17,0,0,1-.53,4.24,6.75,6.75,0,0,1-3.54,2.74,9.2,9.2,0,0,1-3.81.15,6.82,6.82,0,0,1,2.38,3.6c1.62,6.17-5.68,6.72-9.94,5.43l1,2.81c.33.93.71,1.85,1.07,2.77l2.18,5.52c2.54-3.21,5.08-6.37,7.63-9.44,1.29-1.54,2.54-3,3.88-4.55s2.68-3,4-4.45c2.71-2.92,5.43-5.72,8.24-8.41s5.82-5.28,8.82-7.72l.08,0-.48-1.66-.23-.83-.2-.84-.77-3.37-.78-3.37-.6-3.4Z"/><path class="cls-1" d="M402.51,673.15a4.37,4.37,0,0,1,3,8.09c-1.9.8-3.94-.38-5-2.44a.82.82,0,0,1-.11-.21.9.9,0,0,1-.06-.22C399.67,676.08,400.46,673.76,402.51,673.15Zm-.9,5c1.51,3.35,5.88,1.56,4.55-1.79S400.44,674.65,401.61,678.12Z"/><path class="cls-1" d="M397.62,658.11A4.39,4.39,0,0,1,400,666.4c-1.94.65-3.94-.66-4.85-2.78a.93.93,0,0,1-.08-.22.62.62,0,0,1,0-.23C394.53,660.82,395.53,658.56,397.62,658.11ZM396.26,663a2.63,2.63,0,0,0,3.25,1.85,2.42,2.42,0,0,0,1.43-3.29C400,658.12,395.42,659.45,396.26,663Z"/><path class="cls-1" d="M393.79,642.76a4.2,4.2,0,0,1,4.4,3.41,4.14,4.14,0,0,1-2.67,5c-2,.5-3.84-1-4.54-3.16a.65.65,0,0,1-.07-.21,1.09,1.09,0,0,1,0-.24C390.54,645.22,391.67,643.06,393.79,642.76Zm-1.63,4.78c1,3.53,5.58,2.42,4.77-1.09S391.51,643.93,392.16,647.54Z"/><path class="cls-1" d="M391.23,627.16a4.38,4.38,0,0,1,1.06,8.54c-2,.35-3.81-1.24-4.36-3.47a.78.78,0,0,1-.05-.23.6.6,0,0,1,0-.23C387.77,629.38,389.1,627.29,391.23,627.16Zm-2.08,4.65a2.62,2.62,0,0,0,2.93,2.32,2.43,2.43,0,0,0,1.91-3C393.53,627.52,388.86,628.16,389.15,631.81Z"/><path class="cls-1" d="M389.75,611.43a4.21,4.21,0,0,1,3.84,4,4.16,4.16,0,0,1-3.4,4.58c-2,.2-3.64-1.53-4-3.8a.79.79,0,0,1,0-.23.88.88,0,0,1,0-.23C386.17,613.38,387.61,611.41,389.75,611.43Zm-2.33,4.48c.46,3.63,5.16,3.22,4.88-.36S387.33,612.25,387.42,615.91Z"/><path class="cls-1" d="M456.49,542.41A155.19,155.19,0,0,0,445.37,600h-1c0-1.32.07-2.61.11-4-3.17,1.3-6.32,2.61-9.46,4h-2.05a.84.84,0,0,1,.33-.38c3.7-1.78,7.39-3.34,11.11-4.83l.1,0c0-1.46,0-2.93.19-4.38-3.78,1.35-7.36,2.89-11,4.51s-7.24,3.36-10.84,5.11h-2a.85.85,0,0,1,.32-.41c3.88-2.07,7.78-4,11.68-5.7,2-.86,3.89-1.69,5.87-2.48s4-1.54,6-2.25h0l.35-4.61a169.18,169.18,0,0,0-17.38,7c-5.64,2.65-11.27,5.57-16.94,8.51h-2a1,1,0,0,1,.32-.44q4.47-2.49,8.9-4.79,2.22-1.14,4.44-2.24c1.48-.72,2.92-1.43,4.46-2.11q4.55-2.05,9.1-3.84,2.28-.89,4.56-1.7c1.52-.54,3-1.06,4.61-1.55l.07,0,.55-4.31c-4.06,1.17-8.14,2.53-12.19,4s-7.92,3.19-11.9,5c-2,.9-4,1.83-6,2.79s-3.88,1.94-5.83,2.94c-3.9,2-7.83,4.11-11.79,6.24H396a1,1,0,0,1,.32-.47c4.12-2.24,8.19-4.44,12.24-6.54,2-1,4-2.08,6.08-3.07s4.14-2,6.2-2.89,4.12-1.83,6.17-2.69,4.08-1.68,6.21-2.45c4.22-1.54,8.43-2.92,12.64-4.1h.06c.15-1.47.46-2.92.71-4.38-2.68.66-5.42,1.4-8.06,2.22s-5.27,1.72-7.91,2.68-5.29,2-7.94,3-5.19,2.21-7.8,3.39-5.21,2.39-7.83,3.63c-1.3.62-2.64,1.25-3.92,1.89l-3.86,1.93c-5.16,2.58-10.39,5.23-15.7,7.82H381.5a219.92,219.92,0,0,1,21.61-94.84l2,.95c3.63,4.68,7.17,9.37,10.68,14l2.64,3.42,2.71,3.43q2.72,3.39,5.45,6.68c3.6,4.35,7.5,8.63,11.4,12.62,1,1,2,2,3,3s2,1.92,3,2.87q3.1,2.85,6.31,5.48c.41-1.42.78-2.85,1.22-4.26l-.05,0a167.54,167.54,0,0,1-18.54-19.17c-5.89-7-11.17-14.31-16.65-22a.68.68,0,0,1,0-.65l1.94.94c2.61,3.67,5.22,7.29,7.85,10.81,1.31,1.77,2.61,3.5,4,5.22s2.76,3.44,4.16,5.12,2.8,3.32,4.22,4.93,2.81,3.17,4.34,4.74q4.5,4.68,9.21,8.89l1.39-4.11-.06,0c-1.18-1.11-2.39-2.25-3.52-3.4s-2.25-2.31-3.36-3.51c-2.22-2.38-4.39-4.86-6.52-7.41l-1.59-1.93-1.53-1.93c-1-1.3-2-2.62-3-3.95q-3-4-5.93-8.2a.64.64,0,0,1-.06-.61l1.86.89c3.72,5.31,7.49,10.4,11.44,15.23a166.08,166.08,0,0,0,12.67,13.7c.53-1.44,1.13-2.85,1.68-4.29l0,0a167.42,167.42,0,0,1-16.71-19.69.63.63,0,0,1-.07-.59l1.85.89c2.41,3.28,4.9,6.44,7.44,9.47q1.92,2.28,3.87,4.47c1.33,1.46,2.71,2.92,4.09,4.33l.8-2,.91-2-.08-.06q-4.05-4.43-7.88-9.25a.53.53,0,0,1-.08-.55l1.88.9c2.16,2.7,4.39,5.33,6.66,7.85l1.71-3.81.93.45-2.13,4.73c-.35.79-.73,1.57-1.06,2.36Zm-60.38,50a204.18,204.18,0,0,1,16.66-73.62.86.86,0,0,1,.11-.19c-3.05-4-6.13-8-9.29-12l-2.79,6.16c-.46,1-.95,2-1.37,3.1L398.18,519a217,217,0,0,0-15.63,80.19C387.13,597,391.65,594.66,396.11,592.4Zm5.22-2.62q.26-3.33.5-6.67l.26-3.33.41-3.32a.64.64,0,0,1,.07-.56,198.15,198.15,0,0,1,9-39.63.62.62,0,0,1,.18-.53c1.35-4.26,3.1-8.38,4.72-12.53-1-1.25-1.93-2.47-2.89-3.72-.63,1.34-1.18,2.8-1.78,4.31l-1.86,4.73c-.68,1.61-1.22,3.34-1.82,5.08l-1.8,5.35c-.59,1.81-1.08,3.69-1.62,5.55l-.8,2.81c-.25.94-.55,1.87-.75,2.83q-.66,2.85-1.31,5.67c-.22.93-.43,1.87-.64,2.79s-.35,1.86-.53,2.78c-1.42,7.35-2.28,14.23-2.8,19.64s-.74,9.34-.71,10.85ZM422.6,570.9c.83-1.27.31-2.46-.56-3.57a18.73,18.73,0,0,0-7.28-5.19c-2.79-1.27-5.73-2.25-8.28-3.56-.38,1.48-.61,3-.88,4.48l.12.1c.65.69,1.33,1.39,2,2.11a42.19,42.19,0,0,1,4.51,4.37,19.06,19.06,0,0,0,3.71,2.48,6.47,6.47,0,0,0,3.58.66A4.18,4.18,0,0,0,422.6,570.9ZM410,569.23q-1.17-1.05-2.31-2.16c-.82-.72-1.66-1.44-2.45-2.18-.32,1.81-.67,3.61-.94,5.42l-.7,5.45,0,0c1.68,1.9,4.42,4.11,7.05,3.6,3.73-.71,3.07-5,1.59-7.33A18.26,18.26,0,0,0,410,569.23ZM424.24,564c2.18.45,6.13.22,6.75-2.49s-2.84-4.61-5-5.15a36.48,36.48,0,0,0-6.52-.64q-6.06-.4-12.16-.69h0l-.49,2.11h0q5.84,2.46,11.7,4.8A36,36,0,0,0,424.24,564Zm1.17-11.6c1.27-.62,2.26-1.48,2.08-3-.33-2.7-3.08-4-5.47-4a19.14,19.14,0,0,0-4.38.63,41.35,41.35,0,0,1-6,2l-2.73,1-.15,0c-.45,1.46-.75,3-1.1,4.43,2.87-.08,6,.32,9,.37a25.8,25.8,0,0,0,4.5-.26A15,15,0,0,0,425.41,552.4Zm-6.75-8.47c2.35-1.51,4.73-5.09,1.75-7.29-2.15-1.59-5.59-.79-7.93.2h0l-.88,2.61c-.29.86-.6,1.73-.83,2.61l-1.51,5.3c1-.33,2.11-.61,3.17-.91s2-.65,3-.94A15.87,15.87,0,0,0,418.66,543.93Zm31.17,14.74c-3-2.43-5.93-5-8.82-7.71s-5.54-5.48-8.25-8.4c-5.5-5.85-10.45-12-15.56-18.42L415,529.66c-.36.92-.75,1.83-1.07,2.77l-.95,2.81c4.29-1.31,11.48-.76,9.94,5.42a6.72,6.72,0,0,1-2.35,3.61,8.83,8.83,0,0,1,4.12.25,6.69,6.69,0,0,1,3.31,2.77,4.18,4.18,0,0,1,.44,4.1c-.94,1.9-3.39,2.72-5.59,3.18.87.11,1.74.24,2.6.39,3.16.58,7.64,3.18,6.78,6.84-.45,1.93-2.06,2.92-3.88,3.35a11.29,11.29,0,0,1-5.56-.23l-2.23-.72c1.84,1.38,3.75,3.19,3.76,5.36a4.3,4.3,0,0,1-2.31,3.59,6.59,6.59,0,0,1-4.36.94,9.08,9.08,0,0,1-3.5-1.51,6.75,6.75,0,0,1,.57,4.27c-.62,3.14-2.65,4-4.89,3.78a12.59,12.59,0,0,1-6.43-3.18c-.11,1-.28,2-.34,2.94l-.23,3-.45,5.92c3.69-1.79,7.35-3.54,11-5.2q2.73-1.25,5.45-2.43c1.84-.78,3.71-1.54,5.56-2.27q5.57-2.19,11.09-4c1.82-.61,3.75-1.16,5.62-1.69s3.78-1,5.66-1.46l.1,0,.6-3.4c.24-1.13.52-2.24.77-3.37.53-2.24,1-4.5,1.67-6.7Z"/><path class="cls-1" d="M390.38,580.24a4.37,4.37,0,0,1-.85,8.57c-2.06-.1-3.38-2-3.41-4.34a.88.88,0,0,1,0-.23.79.79,0,0,1,0-.23C386.55,581.65,388.27,579.91,390.38,580.24Zm-3,4.09c-.1,3.66,4.61,3.94,4.88.36S387.86,580.7,387.41,584.33Z"/><path class="cls-1" d="M392.45,564.58a3.49,3.49,0,0,1,2.23,1.73,4.93,4.93,0,0,1,.56,3,4.07,4.07,0,0,1-4.25,3.73c-2-.25-3.25-2.3-3.15-4.59a.6.6,0,0,1,0-.23.78.78,0,0,1,0-.23C388.46,565.68,390.39,564.09,392.45,564.58Zm-3.33,3.85c-.29,3.65,4.38,4.29,4.84.72a3,3,0,0,0-.42-2.12,2.25,2.25,0,0,0-1.5-.92,2.48,2.48,0,0,0-1.77.41A2.85,2.85,0,0,0,389.12,568.43Z"/><path class="cls-1" d="M395.66,549.09a4.37,4.37,0,0,1-2.13,8.35c-2-.4-3-2.53-2.71-4.8a1,1,0,0,1,0-.23,1.14,1.14,0,0,1,.07-.22C391.66,549.91,393.63,548.44,395.66,549.09Zm-3.55,3.61c-.65,3.61,4,4.59,4.77,1.08S393.11,549.17,392.11,552.7Z"/><path class="cls-1" d="M400.07,533.9a4.12,4.12,0,0,1,2,5.13,4.06,4.06,0,0,1-4.75,3.05c-2-.56-2.87-2.77-2.43-5a1,1,0,0,1,.05-.23.58.58,0,0,1,.08-.22C396,534.4,398.1,533.11,400.07,533.9Zm-3.87,3.31c-.84,3.57,3.68,4.9,4.67,1.44a2.43,2.43,0,0,0-1.43-3.29A2.61,2.61,0,0,0,396.2,537.21Z"/><path class="cls-1" d="M405.57,519.07a4.37,4.37,0,0,1-3.35,7.94c-1.93-.7-2.62-3-2-5.16a.7.7,0,0,1,.07-.22.68.68,0,0,1,.1-.21C401.5,519.28,403.66,518.12,405.57,519.07Zm-4.05,3c-1.17,3.48,3.24,5.14,4.56,1.79S403,518.76,401.52,522.1Z"/><path class="cls-1" d="M495.71,485.84a155.54,155.54,0,0,0-35.08,47.07l-.93-.45c.61-1.17,1.19-2.3,1.83-3.55-3.41-.21-6.81-.4-10.25-.51l-1.84-.89a.84.84,0,0,1,.46-.2c4.1,0,8.1.22,12.09.49l.1,0,1-2,1.1-1.89c-2-.2-4-.38-5.95-.49s-3.94-.19-5.92-.25c-4-.11-8-.13-12-.12l-1.81-.87A.92.92,0,0,1,439,522a169.53,169.53,0,0,1,25.76.88h0c.78-1.33,1.51-2.68,2.32-4a165.54,165.54,0,0,0-18.68-1.33c-6.23-.07-12.55.12-18.94.3l-1.81-.87a.93.93,0,0,1,.48-.26c3.4-.2,6.77-.36,10.09-.45l5-.09h2.46l2.5,0q5,.13,9.84.51,2.43.19,4.83.45c1.61.17,3.25.4,4.86.64h.07l2.35-3.66c-4.16-.71-8.4-1.25-12.7-1.66-2.17-.21-4.27-.34-6.42-.45s-4.3-.2-6.48-.25-4.37-.08-6.57-.09-4.35.06-6.55.11c-4.38.12-8.83.3-13.32.5l-1.89-.91a1,1,0,0,1,.49-.28c9.38-.47,18.41-.88,27.51-.6a173.06,173.06,0,0,1,26.53,2.58h.06c.84-1.21,1.72-2.41,2.57-3.62-2.7-.57-5.45-1.07-8.22-1.51l-2.09-.31-2.06-.27c-1.37-.17-2.76-.32-4.15-.46-5.55-.56-11.33-1-17-1.07q-4.26-.12-8.61-.13h-4.36c-1.46,0-2.88,0-4.32.05-5.77.08-11.63.2-17.55.23l-1.91-.92a222.3,222.3,0,0,1,26.08-41.35l1.9-2.41c.63-.8,1.32-1.55,2-2.33l4-4.62c1.31-1.57,2.76-3,4.16-4.5l4.23-4.43,4.43-4.23,2.22-2.11c.37-.35.74-.71,1.12-1.05l1.15-1,4.64-4c.78-.66,1.54-1.35,2.34-2l2.41-1.9,1.36,1.71,1.77,8.59c.6,2.87,1.21,5.73,1.81,8.59s1.2,5.67,1.82,8.46,1.34,5.64,2,8.41c1.43,5.56,2.93,10.94,4.78,16.31.91,2.67,1.86,5.3,2.87,7.87.51,1.3,1,2.56,1.56,3.84s1.13,2.56,1.71,3.82c.49-.55,1-1.13,1.46-1.67l1.54-1.61,0,0c-1.71-4-3.3-8.22-4.7-12.46s-2.59-8.51-3.71-12.92l-.83-3.32-.74-3.3c-.49-2.21-.95-4.44-1.4-6.69s-.89-4.52-1.32-6.81-.79-4.53-1.18-6.82a.69.69,0,0,1,.25-.6l1.35,1.68q.54,3.28,1.1,6.55c.41,2.21.83,4.39,1.26,6.56.87,4.35,1.76,8.58,2.82,12.81s2.25,8.41,3.55,12.47c.32,1,.66,2,1,3s.72,2,1.09,3c.74,2,1.53,4,2.34,5.95l1.5-1.57c.51-.52,1-1.08,1.52-1.56l0-.06c-1.15-3-2.2-6.08-3.18-9.21s-1.91-6.35-2.66-9.51-1.49-6.42-2.15-9.71c-.33-1.64-.65-3.3-1-5l-.81-4.95a.63.63,0,0,1,.22-.57l1.29,1.61c1,6.27,2.25,12.62,3.71,18.68.37,1.52.75,3,1.15,4.52s.87,3,1.33,4.52c.92,3,1.91,5.92,3,8.8l3.34-3.19v0c-.72-2-1.36-4-2-6.08s-1.19-4.09-1.73-6.18-1.05-4.19-1.53-6.32q-.36-1.61-.66-3.18l-.6-3.18a.58.58,0,0,1,.2-.55l1.28,1.6c.36,2,.75,3.93,1.16,5.87s.92,3.92,1.41,5.85q1.5,5.81,3.34,11.36l3.31-2.87,0-.09q-.89-2.9-1.67-5.85c-.52-2-1-3.89-1.41-5.88a.52.52,0,0,1,.17-.52l1.31,1.63c.37,1.67.77,3.32,1.18,5s.9,3.32,1.38,4.95c.53-.45,1-.94,1.59-1.36l1.65-1.28.64.8-2,1.6-2,1.71C498.33,483.57,497,484.68,495.71,485.84Zm-76.15,18.81a205.22,205.22,0,0,1,47-59,.94.94,0,0,1,.18-.12q-1.59-7.41-3.17-14.84c-1.8,1.36-3.48,2.86-5.19,4.33s-3.42,2.93-5.09,4.45a219.17,219.17,0,0,0-27.54,30.38,216.81,216.81,0,0,0-21.36,35C409.51,504.85,414.57,504.74,419.56,504.65Zm5.87-.08c2.24-3.85,4.37-7.78,6.86-11.49a.57.57,0,0,1,.3-.47,200.15,200.15,0,0,1,25.31-31.77.58.58,0,0,1,.39-.4c.38-.41.76-.82,1.16-1.21l1.21-1.15,2.42-2.31c1.62-1.54,3.2-3.11,4.91-4.54l-1-4.59-3.52,3.05-3.67,3.5c-1.26,1.22-2.59,2.43-3.88,3.75L452,461l-2,2.09c-.67.69-1.28,1.45-1.92,2.17l-3.83,4.42-.95,1.1-.9,1.15-1.8,2.27c-1.18,1.52-2.37,3-3.5,4.49L434,483.17l-1.52,2.15-.75,1.05-.69,1.07c-1.8,2.82-3.5,5.4-4.92,7.72s-2.52,4.39-3.45,6l-1.19,2.08c-.3.6-.55,1.07-.72,1.4C422.3,504.61,423.84,504.57,425.43,504.57Zm27.38-7.72c1.28-.8,1.33-2.1,1-3.48a15,15,0,0,0-1.66-4.15,24.72,24.72,0,0,0-2.6-3.67c-1.94-2.35-4.18-4.52-5.91-6.81l-1.41,1.79c-.47.6-.94,1.2-1.37,1.82a.67.67,0,0,1,.06.15l.92,2.79A41.2,41.2,0,0,1,444,491.2a20.25,20.25,0,0,0,2.25,3.85C447.76,497,450.49,498.28,452.81,496.85Zm-10.59-7c-.4-1-.78-2-1.15-3s-.87-2-1.27-3l-3.19,4.48c-.26.37-.53.74-.79,1.12l-.74,1.16-1.48,2.31v0c.69,2.45,2.2,5.63,4.79,6.32,3.68,1,4.88-3.18,4.61-5.91A15.65,15.65,0,0,0,442.22,489.87Zm15.08,1.49c1.78,1.36,5.42,2.86,7.14.67a3.47,3.47,0,0,0,.14-3.72,9.31,9.31,0,0,0-2.4-3.1,38.7,38.7,0,0,0-5.62-3.43q-5.26-3-10.63-5.9h0l-1.34,1.7,0,0q4.19,4.77,8.47,9.43A36.22,36.22,0,0,0,457.3,491.36Zm6.09-10c1.4,0,2.65-.37,3.13-1.8.9-2.57-1-4.9-3.17-5.92a19.65,19.65,0,0,0-4.26-1.37,41.52,41.52,0,0,1-6.26-.79l-2.89-.25-.15,0c-1,1.16-2,2.28-3,3.48,2.6,1.16,5.23,2.88,8,4.27A18.79,18.79,0,0,0,463.39,481.4ZM461,470.86c2.79-.33,6.4-2.6,4.7-5.85a5.68,5.68,0,0,0-3.14-2.48,13.46,13.46,0,0,0-4.08-.77h0c-2.52,2.66-5.1,5.26-7.45,8.08,1.08.16,2.15.36,3.23.55s2.07.27,3.1.44A17.31,17.31,0,0,0,461,470.86Zm21.65,26.8a164.88,164.88,0,0,1-8.4-22c-.61-1.92-1.14-3.81-1.66-5.72s-1-3.84-1.54-5.79-1-3.91-1.45-5.89l-.7-3-.65-2.95c-1.53,1.26-2.91,2.68-4.35,4s-2.88,2.71-4.27,4.11a12.65,12.65,0,0,1,6.52,3.06c1.62,1.62,2.08,3.65.1,6.16A6.57,6.57,0,0,1,462.6,472a9.08,9.08,0,0,1,3.6,2,6.52,6.52,0,0,1,1.76,3.92,5.16,5.16,0,0,1-.23,2.12,3.56,3.56,0,0,1-1.17,1.75c-1.66,1.33-4.2,1-6.39.47.74.48,1.47,1,2.18,1.49a10.87,10.87,0,0,1,3.39,4.14,4.64,4.64,0,0,1-.3,4.93c-2.46,3.1-7.41.95-9.86-1.3-.57-.53-1.13-1.06-1.69-1.61.26.5.5,1,.72,1.57a11.66,11.66,0,0,1,.53,1.68,4.94,4.94,0,0,1-.2,3.21,4.16,4.16,0,0,1-3.64,2.23,6.77,6.77,0,0,1-4.36-1.07,8.84,8.84,0,0,1-2.48-2.88,7,7,0,0,1-1.34,4.1c-3.82,5.12-8.79-.25-10.44-4.39l-1.6,2.5c-.54.83-1,1.71-1.5,2.56l-3,5.14c8.21,0,16.11,0,24.11.68q3,.22,5.89.52c2,.2,3.85.4,5.83.69,3.91.57,7.75,1.25,11.52,2.07l.09,0,1-1.41c.33-.48.71-.91,1.06-1.37l2.14-2.72,1.07-1.37.53-.68.57-.65,2.27-2.62A.56.56,0,0,1,482.65,497.66Z"/><path class="cls-1" d="M419.7,491.19a4.2,4.2,0,0,1,.91,5.49,4.15,4.15,0,0,1-5.38,1.87c-1.8-1-2.16-3.31-1.19-5.4l.1-.2a1.74,1.74,0,0,1,.13-.2C415.64,490.79,418,490,419.7,491.19Zm-4.44,2.4c-1.67,3.26,2.44,5.57,4.23,2.44S417.24,490.51,415.26,493.59Z"/><path class="cls-1" d="M428.41,478a4.09,4.09,0,0,1,.43,5.49,4.83,4.83,0,0,1-2.56,1.88,3.49,3.49,0,0,1-2.89-.38c-1.71-1.11-2-3.51-.83-5.51a1.36,1.36,0,0,1,.11-.2,1.29,1.29,0,0,1,.15-.17C424.37,477.29,426.76,476.66,428.41,478Zm-4.67,2a2.81,2.81,0,0,0-.45,2.17,2.41,2.41,0,0,0,1,1.51,2.23,2.23,0,0,0,1.73.35,3,3,0,0,0,1.74-1.27C429.86,479.84,426,477.13,423.74,480Z"/><path class="cls-1" d="M438,465.47a4.22,4.22,0,0,1,.08,5.55,4.13,4.13,0,0,1-5.59,1.06c-1.63-1.24-1.64-3.6-.38-5.52a.76.76,0,0,1,.13-.2.87.87,0,0,1,.16-.17,5,5,0,0,1,2.82-1.57A3.27,3.27,0,0,1,438,465.47Zm-4.76,1.7c-2.12,3,1.61,5.88,3.83,3.05S435.67,464.41,433.26,467.17Z"/><path class="cls-1" d="M448.59,453.73a4.12,4.12,0,0,1-.37,5.51c-1.61,1.64-4.11,2-5.64.65s-1.44-3.78,0-5.55a.73.73,0,0,1,.14-.18l.18-.15C444.71,452.42,447.15,452.15,448.59,453.73ZM443.68,455a3,3,0,0,0-.79,2.06,2.45,2.45,0,0,0,.78,1.64,2.32,2.32,0,0,0,1.66.6,2.87,2.87,0,0,0,1.94-1C449.75,455.76,446.34,452.51,443.68,455Z"/><path class="cls-1" d="M460,442.78a4.2,4.2,0,0,1-.77,5.48,4.12,4.12,0,0,1-5.67.24c-1.43-1.48-1.09-3.82.43-5.54a.8.8,0,0,1,.15-.17.83.83,0,0,1,.19-.15C456.14,441.13,458.67,441.11,460,442.78Zm-5,1c-2.53,2.65.72,6.07,3.33,3.59a2.5,2.5,0,0,0,.37-3.61A2.56,2.56,0,0,0,455,443.73Z"/><path class="cls-1" d="M555.54,451.88a154.47,154.47,0,0,0-51.91,27.24l-.64-.8,3.14-2.48c-3-1.64-5.94-3.27-9-4.83l-1.27-1.6a.78.78,0,0,1,.49,0c3.68,1.76,7.17,3.64,10.65,5.61l.08.06,3.58-2.53c-3.37-2-6.87-4-10.42-5.84s-7.09-3.51-10.69-5.21l-1.25-1.57a.88.88,0,0,1,.52,0c2,.86,4,1.75,5.92,2.66s3.84,1.84,5.77,2.87q5.73,3,11.12,6.36l0,0c1.23-.93,2.55-1.72,3.85-2.55-1.3-.86-2.61-1.69-3.95-2.51s-2.69-1.63-4-2.37c-2.7-1.52-5.47-3-8.29-4.38-5.68-2.88-11.39-5.36-17.2-7.93l-1.26-1.57a1,1,0,0,1,.54,0q4.71,1.9,9.24,3.9c3,1.36,6.07,2.83,9,4.31s5.81,3,8.62,4.66,5.61,3.4,8.3,5.21c0,0,0,0,.06,0l1.83-1.17.91-.59,1-.54c-.87-.62-1.76-1.25-2.63-1.84s-1.76-1.17-2.65-1.74q-2.67-1.73-5.44-3.38c-1.84-1.09-3.72-2.17-5.62-3.23l-1.43-.78-1.42-.75-2.88-1.48c-3.86-1.95-7.82-3.83-11.86-5.68s-8.05-3.5-12.17-5.24l-1.31-1.64a1,1,0,0,1,.56,0l6.4,2.67c2.13.91,4.19,1.78,6.31,2.75q6.31,2.87,12.32,5.88c1,.51,2,1,3,1.54l3,1.63c2,1.1,3.9,2.22,5.8,3.36s3.78,2.32,5.61,3.52,3.68,2.5,5.47,3.8l0,0,3.85-2.22c-4.36-3.33-9-6.47-13.8-9.46s-9.71-5.62-14.83-8.28-10.25-5.05-15.54-7.54c-2.66-1.26-5.28-2.43-7.92-3.65s-5.3-2.43-8-3.69l-1.33-1.66a221.92,221.92,0,0,1,41.35-26.08A219.1,219.1,0,0,1,551.41,387l.48,2.13c-2.84,11.35-5.84,22.72-8.12,33.87-1.12,5.66-2.09,11.22-2.78,16.75s-1.08,11.19-1.18,16.67l4.12-1.62v-.07q.14-3.3.42-6.65c.2-2.19.45-4.37.75-6.57s.62-4.42,1-6.64l.58-3.34.32-1.68.33-1.64c.92-4.38,2-8.81,3.12-13.29l.87-3.36.92-3.31c.63-2.22,1.27-4.44,1.9-6.66a.69.69,0,0,1,.49-.43l.47,2.1c-.61,2.14-1.23,4.27-1.84,6.41s-1.2,4.21-1.74,6.39c-1.1,4.31-2.12,8.57-3,12.8l-.64,3.16c-.21,1.06-.39,2.15-.58,3.21-.36,2.15-.69,4.28-1,6.41s-.55,4.23-.76,6.34c-.1,1-.2,2.08-.27,3.16s-.14,2.14-.2,3.2c1.34-.57,2.72-1,4.09-1.46v-.07c.26-3.22.63-6.47,1.1-9.73.23-1.65.5-3.24.8-4.84s.61-3.21,1-4.82c.67-3.23,1.43-6.48,2.26-9.75S556,417.25,557,414a.66.66,0,0,1,.45-.42l.45,2q-1.38,4.62-2.6,9.17c-.8,3.07-1.52,6.2-2.17,9.26s-1.23,6.14-1.71,9.18-.83,6.2-1.1,9.27l2.18-.74,1.09-.37c.36-.12.74-.21,1.1-.32v0q.75-6.28,2-12.66c.21-1.07.42-2.13.65-3.2s.47-2.08.73-3.13c.5-2.08,1-4.18,1.63-6.28a.6.6,0,0,1,.42-.41l.45,2c-1.06,3.91-2,7.72-2.79,11.64s-1.4,7.85-1.9,11.74l4.2-1.2a.34.34,0,0,1,0-.1c.3-2,.65-4,1-5.94s.82-3.94,1.28-5.92a.53.53,0,0,1,.38-.4l.47,2c-.77,3.35-1.45,6.68-2,10l4.07-.93.23,1-2.53.58c-.84.19-1.69.35-2.52.62Zm-76.75-16.05a201.69,201.69,0,0,1,68-32.85l.21,0,.9-3.7.91-3.66c.6-2.45,1.21-4.9,1.81-7.36l-3.3.77-1.65.38-1.63.46-6.52,1.85a217.36,217.36,0,0,0-72.44,37.82l6.88,3.18C474.23,433.74,476.48,434.74,478.79,435.83Zm5.36,2.51,2.72-1.94c.92-.64,1.8-1.31,2.76-1.9l5.63-3.61a.58.58,0,0,1,.47-.3,195.41,195.41,0,0,1,36.6-17.69.57.57,0,0,1,.53-.18l6.34-2.15,1.59-.53,1.6-.46,3.22-.92,1.1-4.59A194.69,194.69,0,0,0,527,410.54l-5.39,2.12c-1.79.74-3.56,1.59-5.34,2.38l-2.65,1.2c-.89.4-1.77.79-2.62,1.24l-5.08,2.6a196.6,196.6,0,0,0-17.09,10.05c-2.32,1.43-4.2,2.83-5.71,3.9l-3.24,2.3Zm28,4.83c1.5-.18,2.08-1.37,2.42-2.71a18.3,18.3,0,0,0-.43-8.86c-.74-3-1.83-5.89-2.4-8.72L507.67,425a.86.86,0,0,1,0,.16c-.13.93-.27,1.89-.41,2.86a45.49,45.49,0,0,1-.56,6.31,19.37,19.37,0,0,0,.38,4.48C507.57,441.12,509.45,443.5,512.14,443.17Zm-6.52-10.87c.05-1.06.14-2.12.23-3.19s.07-2.23.16-3.3c-1.61.88-3.18,1.82-4.77,2.73l-2.39,1.37c-.79.45-1.59.9-2.35,1.41v0c-.43,2.53-.42,6.08,1.61,7.81a3.07,3.07,0,0,0,4.06.18,7.49,7.49,0,0,0,2.66-3.5A16.35,16.35,0,0,0,505.62,432.3Zm13,7.88c1,2,3.64,4.91,6.11,3.64s1.87-5,.95-7.05a37.86,37.86,0,0,0-3.57-5.51q-3.47-5-7.06-10v0c-.67.29-1.31.62-2,.95v0q1.71,6.13,3.57,12.2A36,36,0,0,0,518.58,440.18Zm9.78-6.37a4.71,4.71,0,0,0,1.87.48,2.34,2.34,0,0,0,1.75-.71c1.93-1.89,1.24-4.85-.29-6.71a20.57,20.57,0,0,0-3.24-3.06,47.72,47.72,0,0,1-5.34-3.49l-2.48-1.46-.12-.09-4.16,1.88c1.85,2.2,3.47,4.88,5.34,7.3A18.34,18.34,0,0,0,528.36,433.81Zm2.43-10.51a7,7,0,0,0,4.4.05,3,3,0,0,0,2.37-3.25c-.08-2.66-2.87-4.89-5.11-6.13l0,0c-1.72.63-3.41,1.33-5.12,2l-2.56,1c-.85.34-1.71.65-2.54,1,.45.3.89.61,1.34.93l1.34,1c.89.59,1.76,1.18,2.62,1.79A15.64,15.64,0,0,0,530.79,423.3Zm7.88,33.5c0-2,.07-3.88.17-5.81s.23-3.88.39-5.83.37-3.91.59-5.88l.37-3,.43-2.91q.92-5.84,2.11-11.79l.6-3,.65-2.93,1.37-5.9-2.86.81-1.42.41-1.41.47L534,413.41c3.71,2.58,7.78,8.59,1.94,11.12a6.64,6.64,0,0,1-4.25.5,8.68,8.68,0,0,1,2.36,3.36c.9,2.55-.13,6.57-3.05,7.14-2.07.47-4.2-.86-5.94-2.3.45.76.9,1.51,1.31,2.28,1.52,2.84,2.27,7.93-1.16,9.47-3.52,1.79-7-2.27-8.29-5.37-.28-.72-.56-1.45-.82-2.18a13.31,13.31,0,0,1-.29,3.45,5.16,5.16,0,0,1-1.59,2.77c-2.38,2-6.31.09-7.69-2.36a9,9,0,0,1-1-3.66,7,7,0,0,1-3,3.05c-5.6,3.05-7.78-4-7.51-8.44l-5,3.2c-.84.52-1.63,1.12-2.44,1.68l-2.42,1.72,5.47,2.61c1.82.88,3.59,1.74,5.41,2.69,3.59,1.85,7.12,3.74,10.54,5.7s6.81,4,10.07,6.2,6.41,4.4,9.46,6.79a.46.46,0,0,1,.07.07l6.16-3.15,6.29-2.86S538.67,456.83,538.67,456.8Z"/><path class="cls-1" d="M484.76,423.79a3.56,3.56,0,0,1,.25,2.81,5,5,0,0,1-1.84,2.48,4.07,4.07,0,0,1-5.62-.59c-1.2-1.66-.53-3.94,1.23-5.43a.61.61,0,0,1,.17-.14.88.88,0,0,1,.2-.12,4.77,4.77,0,0,1,3.19-.64A3.35,3.35,0,0,1,484.76,423.79Zm-5.08.19c-2.89,2.26-.17,6.12,2.76,4a3,3,0,0,0,1.26-1.76,2.27,2.27,0,0,0-.34-1.73A2.58,2.58,0,0,0,479.68,424Z"/><path class="cls-1" d="M498.28,415.62a4.37,4.37,0,0,1-7.56,4.12c-1.07-1.75-.21-3.95,1.67-5.26l.19-.13a.67.67,0,0,1,.21-.1C495,413.24,497.37,413.69,498.28,415.62Zm-5-.16c-3.09,2-.67,6,2.45,4.24S496.49,413.79,493.23,415.46Z"/><path class="cls-1" d="M512.41,408.52a4.39,4.39,0,0,1-7.84,3.56c-.94-1.82.07-4,2-5.2a1,1,0,0,1,.2-.12l.21-.09C509.26,405.87,511.65,406.53,512.41,408.52Zm-5.06-.6c-3.19,1.82-1.08,6,2.13,4.4S510.75,406.55,507.35,407.92Z"/><path class="cls-1" d="M527,402.44a4.37,4.37,0,0,1-8.09,3c-.79-1.89.38-3.93,2.44-5a1,1,0,0,1,.21-.1,1.11,1.11,0,0,1,.22-.07C524.09,399.6,526.4,400.39,527,402.44Zm-5-.89c-3.34,1.51-1.56,5.87,1.79,4.55S525.52,400.37,522,401.55Z"/><path class="cls-1" d="M542.06,397.57a4.39,4.39,0,0,1-8.29,2.33c-.65-1.94.66-3.95,2.78-4.83a.63.63,0,0,1,.22-.09.93.93,0,0,1,.23,0C539.35,394.48,541.61,395.48,542.06,397.57Zm-4.92-1.36a2.63,2.63,0,0,0-1.85,3.25,2.44,2.44,0,0,0,3.3,1.43C542.05,399.9,540.72,395.37,537.14,396.21Z"/><path class="cls-1" d="M624.26,447.27a156.54,156.54,0,0,0-29.5-1.76,154.49,154.49,0,0,0-29.19,3.76l-.23-1,1.91-.44c.64-.15,1.29-.33,2-.43-1-1.44-2-2.78-3-4.16s-2-2.73-3-4.08l-.45-2a.76.76,0,0,1,.44.22q1.9,2.37,3.66,4.77c1.18,1.59,2.35,3.3,3.48,4.95a.41.41,0,0,1,.05.09l4.31-.77c-2.14-3.29-4.43-6.53-6.83-9.75l-1.81-2.4c-.61-.8-1.21-1.56-1.83-2.34l-3.71-4.62-.44-2a.78.78,0,0,1,.46.21q2.16,2.44,4.17,4.94c1.35,1.67,2.68,3.42,4,5.15,2.56,3.46,5,7,7.23,10.52l0,0c1.52-.23,3-.39,4.58-.59q-2.38-4-5.06-7.88c-1.77-2.58-3.62-5-5.54-7.54s-3.91-5-5.93-7.43-4-4.79-6.11-7.2l-.44-2a.86.86,0,0,1,.49.21q1.71,1.86,3.36,3.73l1.64,1.88,1.63,1.93q3.23,3.87,6.22,7.78c1,1.31,2,2.61,2.92,3.93s1.9,2.7,2.81,4.05q2.75,4.09,5.19,8.28s0,0,0,.06l2.16-.28c.72-.07,1.45-.11,2.17-.17-1-1.86-2.09-3.77-3.19-5.56s-2.24-3.59-3.42-5.38-2.4-3.56-3.65-5.33-2.55-3.58-3.85-5.26c-5.23-6.81-11-13.69-16.88-20.26l-.46-2.05a.86.86,0,0,1,.52.2l4.59,5.16c1.52,1.73,3,3.52,4.5,5.28,3,3.53,5.8,7,8.51,10.6s5.32,7.33,7.75,11c1.22,1.87,2.38,3.68,3.52,5.62s2.22,3.86,3.26,5.81l0,0,4.43-.34c-2.48-4.89-5.27-9.71-8.3-14.49l-1.15-1.79-1.17-1.74c-.78-1.16-1.58-2.31-2.4-3.47-1.62-2.31-3.3-4.61-5-6.92l-2.61-3.45-2.66-3.36Q565.76,406,563,402.6l-5.55-6.79q-2.78-3.35-5.56-6.75l-.47-2.07a217.77,217.77,0,0,1,97.18,0l-.48,2.13-5.61,6.73-5.6,6.77q-2.77,3.38-5.47,6.73l-2.67,3.36-2.62,3.45q-2.6,3.45-5,6.91c-1.63,2.32-3.2,4.57-4.72,7-3,4.78-5.82,9.59-8.3,14.47l4.43.35,0-.06a170.93,170.93,0,0,1,14.56-22.45c2.73-3.57,5.59-7.08,8.55-10.61,1.48-1.76,3-3.55,4.51-5.28l4.59-5.16a.66.66,0,0,1,.62-.18l-.47,2.1c-6,6.54-11.77,13.41-17,20.21-2.64,3.45-5.17,7-7.53,10.58q-1.77,2.68-3.42,5.38c-1.1,1.8-2.17,3.7-3.19,5.56l2.17.16,2.16.28,0-.07q2.45-4.17,5.2-8.27c.92-1.36,1.87-2.75,2.82-4.06s1.94-2.62,2.94-3.92c4-5.21,8.37-10.42,12.9-15.33a.65.65,0,0,1,.58-.18l-.45,2-3.2,3.55c-1,1.2-2.08,2.36-3.12,3.6-2,2.46-4,4.92-6,7.41-1,1.24-1.89,2.48-2.81,3.73s-1.81,2.5-2.7,3.81q-2.64,3.9-5,7.88l4.58.57v0q3.4-5.33,7.27-10.52c1.29-1.72,2.62-3.46,4-5.15s2.75-3.3,4.18-4.93a.6.6,0,0,1,.55-.19l-.45,2a165.8,165.8,0,0,0-14.34,19l4.31.77a.36.36,0,0,1,0-.09c1.14-1.66,2.33-3.35,3.53-4.95s2.44-3.18,3.71-4.76a.53.53,0,0,1,.52-.19l-.47,2c-1.06,1.34-2.11,2.69-3.13,4s-2,2.7-3,4.13c.69.1,1.37.27,2,.43l2,.47-.23,1C631.09,448.39,627.66,447.93,624.26,447.27ZM562.05,399.5a203.35,203.35,0,0,1,75.45-.08,1.17,1.17,0,0,1,.2.06l9.63-11.73L644,387c-1.1-.22-2.22-.41-3.32-.61L634,385.2a220.23,220.23,0,0,0-81.6,2.61Q557.26,393.68,562.05,399.5Zm3.73,4.56,3.29-.58c1.1-.21,2.21-.3,3.32-.46l6.64-.84a.58.58,0,0,1,.55-.07,201.14,201.14,0,0,1,40.61,0,.57.57,0,0,1,.56.06l6.64.84c1.1.15,2.22.27,3.32.45L634,404l3-3.65c-2.91-.51-6.14-1.16-9.62-1.53l-5.35-.68-1.38-.17-1.4-.11-2.83-.22-5.77-.43c-1.94-.07-3.89-.11-5.83-.16l-2.91-.07c-1,0-1.94-.07-2.9,0l-5.68.15c-3.74,0-7.32.38-10.66.62s-6.4.65-9.1,1l-3.75.48c-1.15.14-2.18.37-3.09.51l-3.91.7Zm23.1,16.54a2.31,2.31,0,0,0,1.87-.12,4.41,4.41,0,0,0,1.49-1.24,18.44,18.44,0,0,0,3.46-8.17c.62-3,.92-6.11,1.63-8.9l-4.56.11-.07.14c-.53.78-1.07,1.59-1.61,2.4a48.66,48.66,0,0,1-3.26,5.42,20.38,20.38,0,0,0-1.61,4.2C585.65,416.78,586.31,419.74,588.88,420.6ZM587.73,408c.52-.93,1-1.86,1.6-2.78s1-1.94,1.58-2.87c-.91,0-1.83.08-2.74.15l-2.74.21-5.48.42v0c-1.49,2.08-3,5.31-2,7.74a3.17,3.17,0,0,0,1.53,1.69,3.78,3.78,0,0,0,2,.26,7.31,7.31,0,0,0,3.92-2A15.52,15.52,0,0,0,587.73,408ZM596,420.73c0,2.24,1.15,6,3.93,5.92,2.82.07,3.87-3.71,3.92-5.93a38,38,0,0,0-.82-6.52q-.94-6-2-12.05v0l-1.08,0-1.08,0v0q-1.11,6.27-2.08,12.54A36.26,36.26,0,0,0,596,420.73Zm11.59-1.5a4.29,4.29,0,0,0,1.48,1.24,2.42,2.42,0,0,0,1.88.12c2.57-.86,3.22-3.83,2.65-6.17a20.24,20.24,0,0,0-1.6-4.16,31.65,31.65,0,0,1-1.76-2.72c-.54-1-1.05-1.85-1.53-2.74l-1.6-2.38c0-.05-.05-.1-.07-.14l-4.56-.12c.71,2.79,1,5.91,1.64,8.9A18.25,18.25,0,0,0,607.56,419.23Zm6.74-8.41a7.29,7.29,0,0,0,4,2,4.69,4.69,0,0,0,1.06,0,3,3,0,0,0,1-.27,3.15,3.15,0,0,0,1.51-1.66c1.07-2.42-.47-5.67-2-7.73v0l-5.48-.42-2.74-.2-1.37-.11-1.38,0c.55.94,1.07,1.87,1.59,2.87s1.08,1.83,1.58,2.75A16.74,16.74,0,0,0,614.3,410.82Zm-7.41,33.6c.42-.88.86-1.75,1.31-2.63s.9-1.7,1.36-2.55c.92-1.69,1.89-3.38,2.88-5.06s2-3.37,3.09-5l1.61-2.51.83-1.25.83-1.21c2.22-3.24,4.56-6.46,7-9.69,1.21-1.61,2.45-3.23,3.69-4.83l3.78-4.71-2.92-.52c-1-.15-2-.26-2.94-.39l-5.88-.74a12.72,12.72,0,0,1,1.68,7c-.25,2.27-1.56,3.95-4.75,3.87a6.5,6.5,0,0,1-4-1.39,9,9,0,0,1,.67,4.06c-.3,2.69-3,5.85-5.85,5.09-2.07-.44-3.42-2.59-4.36-4.63.08.88.15,1.75.2,2.62.13,3.22-1.41,8.14-5.17,8-3.95.09-5.36-5.1-5.14-8.43.06-.77.13-1.55.21-2.32-.94,2.07-2.29,4.29-4.4,4.76-3,.8-5.71-2.64-5.89-5.45a9,9,0,0,1,.7-3.72,6.66,6.66,0,0,1-4,1.41c-6.37.31-5.27-6.94-3.08-10.88l-5.88.75c-1,.14-2,.23-2.94.4l-2.92.52,3.78,4.71c1.25,1.58,2.49,3.21,3.7,4.82q3.64,4.83,7,9.68c1.11,1.6,2.21,3.3,3.27,5s2.09,3.36,3.09,5,2,3.37,2.89,5.07c.46.85.92,1.7,1.36,2.55s.89,1.74,1.32,2.62l0,.09,6.94-.18,6.94.17A.36.36,0,0,1,606.89,444.42Z"/><path class="cls-1" d="M572.67,391.25a4.39,4.39,0,0,1-8.54,1.08c-.36-2,1.24-3.81,3.47-4.38l.22-.05h.23C570.45,387.79,572.53,389.12,572.67,391.25ZM568,389.18a2.62,2.62,0,0,0-2.31,2.93,2.42,2.42,0,0,0,3,1.9C572.31,393.55,571.67,388.88,568,389.18Z"/><path class="cls-1" d="M588.39,389.76a4.36,4.36,0,0,1-8.59.45c-.2-2,1.53-3.65,3.79-4l.23,0a.85.85,0,0,1,.23,0C586.44,386.18,588.42,387.62,588.39,389.76Zm-4.47-2.32c-3.64.45-3.23,5.15.36,4.88S587.58,387.34,583.92,387.44Z"/><path class="cls-1" d="M604.17,389.53a4.38,4.38,0,0,1-8.59-.2c-.05-2.05,1.79-3.56,4.07-3.81a.8.8,0,0,1,.23,0l.23,0C602.49,385.77,604.35,387.4,604.17,389.53Zm-4.29-2.75c-3.65.26-3.59,5,0,4.89C603.47,391.75,603.53,387,599.88,386.78Z"/><path class="cls-1" d="M619.93,390.39a4.36,4.36,0,0,1-8.56-.85c.1-2.05,2-3.38,4.34-3.4a.59.59,0,0,1,.23,0,.85.85,0,0,1,.23,0C618.53,386.56,620.27,388.28,619.93,390.39Zm-4.09-3c-3.66-.1-3.94,4.61-.36,4.88S619.48,387.87,615.84,387.42Z"/><path class="cls-1" d="M635.59,392.48a4.12,4.12,0,0,1-4.76,2.78,4.07,4.07,0,0,1-3.72-4.25c.25-2,2.3-3.25,4.6-3.15h.23l.23.05C634.49,388.5,636.09,390.42,635.59,392.48Zm-3.84-3.34c-3.66-.29-4.29,4.38-.73,4.84a2.43,2.43,0,0,0,3-1.91A2.61,2.61,0,0,0,631.75,389.14Z"/><path class="cls-1" d="M688.05,472.91a153.54,153.54,0,0,0-53.62-23.64l.23-1,3.9.89c-.57-3.34-1.15-6.66-1.82-10l.45-2a.79.79,0,0,1,.3.39q.69,3,1.24,5.91c.36,2,.7,3.9,1,5.92a.38.38,0,0,1,0,.1l4.2,1.2c-.5-3.9-1.16-7.83-1.92-11.77s-1.68-7.73-2.59-11.6l.44-2a.9.9,0,0,1,.34.39q.87,3.15,1.61,6.28.38,1.56.72,3.12c.22,1.07.43,2.13.63,3.19q1.2,6.36,2,12.65v0l1.11.31,1.09.37,2.18.74c-.28-3.07-.65-6.21-1.14-9.28s-1.09-6.12-1.74-9.2c-.33-1.54-.67-3.08-1-4.63s-.72-3.12-1.11-4.62c-.77-3-1.58-6.08-2.39-9.14l.44-2a.89.89,0,0,1,.36.4c1,3.24,1.88,6.44,2.72,9.64s1.57,6.51,2.24,9.74c.33,1.61.64,3.22.93,4.82s.56,3.18.79,4.82c.46,3.27.83,6.51,1.09,9.74v.07c1.37.48,2.76.88,4.09,1.45,0-1.07-.12-2.14-.19-3.21s-.18-2.1-.28-3.16c-.21-2.1-.46-4.22-.75-6.34-.59-4.24-1.29-8.6-2.18-12.78s-1.88-8.49-3-12.8c-.53-2.17-1.12-4.24-1.7-6.38s-1.19-4.26-1.79-6.4l.46-2.05a.93.93,0,0,1,.39.41c.63,2.22,1.27,4.44,1.9,6.66l.92,3.3.86,3.36c1.14,4.47,2.18,8.9,3.09,13.28.46,2.16.85,4.44,1.22,6.65s.7,4.43,1,6.63.54,4.39.74,6.57.33,4.44.43,6.65v.06l4.13,1.62c-.11-5.48-.53-11-1.18-16.68s-1.65-11.09-2.76-16.75c-.27-1.43-.57-2.82-.87-4.21l-.94-4.18c-.64-2.81-1.31-5.63-2-8.46l-1-4.28-1.06-4.21c-.7-2.82-1.41-5.65-2.09-8.51l.47-2.07a215.59,215.59,0,0,1,87.63,42.22l-1.36,1.71-8,3.65c-2.66,1.2-5.29,2.36-8,3.62-5.31,2.47-10.5,4.9-15.58,7.49s-10.09,5.39-14.85,8.27-9.43,6.12-13.78,9.45l3.84,2.22.05,0c1.78-1.3,3.62-2.59,5.47-3.81s3.7-2.37,5.61-3.51,3.85-2.26,5.82-3.35,4-2.18,6-3.17c4-2,8.13-4,12.34-5.87,2.12-1,4.19-1.84,6.32-2.74l6.4-2.68a.71.71,0,0,1,.64.11l-1.35,1.68c-4.14,1.72-8.22,3.41-12.23,5.18s-8,3.69-11.9,5.63-7.69,4-11.37,6.23c-1.85,1.09-3.66,2.22-5.44,3.36l-2.64,1.74-2.63,1.85c1.28.69,2.46,1.53,3.69,2.3l.06,0q4-2.7,8.3-5.21c2.83-1.64,5.7-3.15,8.65-4.64s6-2.94,9-4.3,6.12-2.62,9.25-3.88a.65.65,0,0,1,.62.08l-1.29,1.61q-4.47,1.82-8.81,3.7l-2.15,1-2.17,1c-1.43.68-2.86,1.37-4.26,2.08q-4.23,2.12-8.25,4.39c-1.33.75-2.69,1.57-4,2.39s-2.63,1.66-3.92,2.51c1.28.84,2.62,1.62,3.85,2.55l0,0q5.4-3.33,11.16-6.34c1.94-1,3.84-1.93,5.8-2.85s3.93-1.79,5.94-2.65a.58.58,0,0,1,.58.07l-1.28,1.6q-5.56,2.4-10.84,5.07c-3.56,1.85-7,3.8-10.38,5.84l3.57,2.53.08-.06c3.49-2,7-3.8,10.73-5.56a.56.56,0,0,1,.56.05l-1.31,1.63c-3.1,1.49-6.13,3-9.08,4.68l3.28,2.59-.64.8c-1.37-1.06-2.71-2.15-4.09-3.2Zm-35.26-70.06A202.31,202.31,0,0,1,688.37,416a205.34,205.34,0,0,1,32.47,19.56l.16.15c2.3-1.09,4.57-2.12,6.86-3.16l6.88-3.19-2.66-2.09c-.89-.68-1.75-1.41-2.68-2l-5.51-3.92a216.6,216.6,0,0,0-74.73-33.12q.92,3.68,1.81,7.34l.92,3.64Zm1.38,5.75,3.22.91L659,410l1.59.53,6.34,2.15a.57.57,0,0,1,.53.18c.81.26,1.6.57,2.39.88l2.36.94,4.74,1.87c3.11,1.34,6.19,2.77,9.28,4.17s6,3.06,9,4.66l4.41,2.53,2.21,1.27c.74.42,1.47.85,2.18,1.31a.59.59,0,0,1,.47.31l5.63,3.61c1,.58,1.85,1.24,2.76,1.89l2.73,1.94,4.28-2-3.8-2.71c-1.32-.94-2.69-1.94-4.18-2.86l-4.55-2.92c-.78-.49-1.55-1-2.36-1.49l-2.46-1.42-5-2.88c-.84-.5-1.72-.92-2.58-1.37l-2.6-1.34-2.6-1.32c-.87-.44-1.72-.9-2.6-1.28L682,414.26a195.12,195.12,0,0,0-18.52-7.13c-1.29-.42-2.49-.86-3.6-1.18l-3-.86L653.07,404Zm13.66,24.91c1.08,1.05,2.36.77,3.63.21a18.39,18.39,0,0,0,6.66-5.86c1.86-2.42,3.48-5.1,5.33-7.3l-4.16-1.88-.12.09-2.5,1.46a45.18,45.18,0,0,1-5.29,3.48,20,20,0,0,0-3.26,3.09C666.59,428.66,665.9,431.61,667.83,433.51Zm4.45-11.88c.86-.61,1.74-1.21,2.63-1.8s1.8-1.33,2.69-1.92c-1.69-.73-3.41-1.36-5.11-2.05s-3.4-1.37-5.13-2l0,0c-2.24,1.24-5,3.47-5.11,6.13a3,3,0,0,0,2.39,3.28,7.38,7.38,0,0,0,4.39-.08A16.24,16.24,0,0,0,672.28,421.63Zm1.89,15.06c-.93,2-1.57,5.9,1,7s5.1-1.67,6.11-3.64a37.38,37.38,0,0,0,2.09-6.23q1.77-5.83,3.42-11.73v0l-1-.49-1-.45v0q-3.74,5.16-7.33,10.38A36.24,36.24,0,0,0,674.17,436.69Zm11.08,3.68c.35,1.32.94,2.51,2.43,2.7,2.69.33,4.57-2.06,5.07-4.41a20.17,20.17,0,0,0,.38-4.44,45,45,0,0,1-.58-6.35c-.14-1-.28-1.93-.41-2.85a.43.43,0,0,1,0-.16l-4.07-2.08c-.57,2.83-1.65,5.76-2.39,8.73A18.41,18.41,0,0,0,685.25,440.37Zm9.73-4.64a7.37,7.37,0,0,0,2.71,3.49,3.06,3.06,0,0,0,4-.18c2-1.73,2-5.28,1.61-7.81v0c-.76-.51-1.57-.94-2.36-1.41l-2.38-1.37c-1.59-.9-3.16-1.85-4.78-2.71.09,1.06.12,2.18.17,3.29s.17,2.11.23,3.16A16.62,16.62,0,0,0,695,435.73Zm-21.3,27c1.55-1.23,3.07-2.34,4.65-3.48s3.17-2.23,4.8-3.32c3.26-2.16,6.67-4.31,10.07-6.22s6.94-3.85,10.54-5.71c1.8-.94,3.59-1.82,5.4-2.69l5.47-2.62L712.19,437c-.81-.57-1.61-1.15-2.45-1.67l-5-3.2c.29,4.5-1.87,11.43-7.49,8.45a6.8,6.8,0,0,1-3-3,8.83,8.83,0,0,1-1.15,3.94c-1.45,2.3-5.24,4-7.5,2.07-1.65-1.35-1.94-3.83-1.9-6.09-.3.83-.62,1.65-1,2.45-1.28,3-4.81,6.72-8.14,5-3.59-1.64-2.61-6.92-1-9.82.39-.68.79-1.34,1.2-2a13.39,13.39,0,0,1-2.88,1.92,5.12,5.12,0,0,1-3.15.48c-3.07-.6-4-4.87-2.95-7.48a9,9,0,0,1,2.25-3.05,6.87,6.87,0,0,1-4.26-.47c-5.88-2.46-1.75-8.55,1.93-11.12l-5.62-1.91-1.41-.47-1.43-.4-2.85-.81,1.37,5.9.65,2.92.61,3c.79,4,1.51,7.89,2.12,11.79s1.06,7.86,1.4,11.74c.17,2,.31,3.9.4,5.83s.18,3.83.18,5.8c0,0,0,.07,0,.1l6.3,2.85,6.15,3.15Z"/><path class="cls-1" d="M665.93,400a3.51,3.51,0,0,1-2,1.94,4.89,4.89,0,0,1-3.08.1,4.09,4.09,0,0,1-3.06-4.76c.56-2,2.77-2.87,5-2.43a1,1,0,0,1,.23.05.93.93,0,0,1,.22.08C665.44,395.91,666.73,398.05,665.93,400Zm-3.31-3.87c-3.57-.84-4.9,3.69-1.43,4.68a3,3,0,0,0,2.15-.1,2.21,2.21,0,0,0,1.14-1.35,2.39,2.39,0,0,0-.15-1.81A2.8,2.8,0,0,0,662.62,396.15Z"/><path class="cls-1" d="M680.77,405.51a4.38,4.38,0,0,1-7.95-3.35c.71-1.93,3-2.62,5.16-2l.22.07a.82.82,0,0,1,.21.1C680.56,401.43,681.71,403.59,680.77,405.51Zm-3-4.05c-3.47-1.18-5.13,3.24-1.78,4.56S681.08,403,677.73,401.46Z"/><path class="cls-1" d="M695.11,412.15a4.39,4.39,0,0,1-7.66-3.92c.84-1.87,3.16-2.43,5.33-1.66a1.19,1.19,0,0,1,.22.08,1,1,0,0,1,.2.12C695.23,408,696.2,410.31,695.11,412.15Zm-2.67-4.34c-3.41-1.36-5.4,2.92-2.13,4.41S695.62,409.63,692.44,407.81Z"/><path class="cls-1" d="M709,419.79a4.2,4.2,0,0,1-5.49.9,4.14,4.14,0,0,1-1.87-5.38c1-1.8,3.32-2.15,5.4-1.18a.67.67,0,0,1,.21.1.91.91,0,0,1,.19.13C709.36,415.73,710.18,418,709,419.79Zm-2.4-4.45c-3.26-1.67-5.57,2.45-2.45,4.24S709.65,417.33,706.56,415.34Z"/><path class="cls-1" d="M722.13,428.51a4.09,4.09,0,0,1-5.49.43,4.83,4.83,0,0,1-1.87-2.57,3.5,3.5,0,0,1,.37-2.88,3.36,3.36,0,0,1,2.42-1.48,4.83,4.83,0,0,1,3.09.65.71.71,0,0,1,.2.12.65.65,0,0,1,.18.15C722.86,424.47,723.48,426.86,722.13,428.51Zm-2-4.67a2.82,2.82,0,0,0-2.17-.46,2.46,2.46,0,0,0-1.51,1,2.28,2.28,0,0,0-.34,1.73,3,3,0,0,0,1.26,1.75C720.3,430,723,426.1,720.12,423.84Z"/><path class="cls-1" d="M734.5,523.75a155.45,155.45,0,0,0-38.13-44.63l.64-.8c1,.81,2.07,1.58,3.11,2.52,1-3.32,1.89-6.54,2.73-9.83l1.27-1.6a.77.77,0,0,1,.11.48c-.45,2-.92,3.9-1.45,5.85s-1.11,3.89-1.7,5.82a.36.36,0,0,1,0,.09l3.32,2.86c1.22-3.71,2.32-7.52,3.33-11.39.5-1.93,1-3.89,1.45-5.83l1.29-5.78,1.25-1.57a.86.86,0,0,1,.13.5c-.39,2.15-.78,4.22-1.27,6.35s-1,4.23-1.55,6.3-1.14,4.13-1.75,6.16-1.24,4-2,6.07l0,0,3.34,3.19c1.08-2.88,2.06-5.84,3-8.84.45-1.5.9-3,1.3-4.53s.78-3,1.15-4.54c1.46-6.08,2.77-12.39,3.91-18.53l1.26-1.57a1,1,0,0,1,.15.52c-.26,1.66-.54,3.3-.82,4.94s-.63,3.32-1,5c-.67,3.28-1.39,6.51-2.18,9.69s-1.69,6.37-2.67,9.48-2,6.2-3.19,9.2l0,.07c.54.49,1,1,1.53,1.55l1.5,1.58a176.23,176.23,0,0,0,8-24.49c1.06-4.2,2-8.43,2.86-12.77q.68-3.24,1.3-6.54t1.15-6.52l1.31-1.64a.9.9,0,0,1,.17.53c-.39,2.3-.75,4.53-1.18,6.82s-.87,4.56-1.32,6.81-.92,4.47-1.41,6.68l-.75,3.29c-.26,1.1-.55,2.22-.83,3.31-1.14,4.4-2.37,8.71-3.74,12.9-.33,1.05-.69,2.1-1.07,3.16s-.76,2.1-1.16,3.14c-.78,2.08-1.61,4.13-2.47,6.15l0,.06,1.54,1.6c.52.53,1,1.12,1.47,1.67.59-1.26,1.16-2.54,1.71-3.83s1-2.54,1.56-3.83c1-2.58,2-5.21,2.87-7.88,1.86-5.38,3.35-10.74,4.8-16.3l1-4.19c.35-1.4.7-2.82,1-4.2l1.86-8.45q1.82-8.53,3.65-17.13l1.33-1.66,2.4,1.9c.8.63,1.56,1.32,2.34,2l4.62,4c1.57,1.31,3,2.77,4.49,4.16l4.42,4.23,4.23,4.42,2.11,2.22c.35.37.71.73,1,1.11l1,1.16,4,4.62c.66.78,1.34,1.53,2,2.33l1.9,2.4a222.68,222.68,0,0,1,26.12,41.41l-2,.95c-5.93-.07-11.79-.22-17.57-.33-1.45,0-2.87-.07-4.33-.07h-4.37q-4.35,0-8.62.1l-4.25.13c-1.41.05-2.86.14-4.28.23-2.84.18-5.66.41-8.44.69a149.53,149.53,0,0,0-16.51,2.56l2.58,3.62.06,0a169.27,169.27,0,0,1,26.54-2.56c9.12-.25,18.17.17,27.54.64a.69.69,0,0,1,.54.37l-1.94.94c-4.5-.24-9-.46-13.35-.6-2.2-.06-4.35-.13-6.56-.13s-4.4,0-6.58.06-4.34.12-6.48.23-4.26.23-6.43.45c-4.3.4-8.53.94-12.68,1.65l2.34,3.67.07,0c1.61-.24,3.25-.46,4.87-.64s3.21-.32,4.83-.45c3.25-.24,6.53-.4,9.86-.48s6.6,0,9.94.06,6.7.26,10.1.47a.65.65,0,0,1,.52.34l-1.86.89c-6.48-.38-12.79-.62-19-.52q-4.75.11-9.41.43c-1.54.11-3.08.24-4.61.4s-3,.32-4.6.55c.43.63.78,1.32,1.17,2l1.15,2h0a169,169,0,0,1,25.81-.81.65.65,0,0,1,.51.31l-1.85.89q-6.11-.23-12-.07c-2,0-3.94.13-5.9.25s-4,.3-5.94.5l1.1,1.9,1,1.94h.1q6-.42,12.13-.41a.55.55,0,0,1,.49.28l-1.88.9c-3.47,0-6.9.12-10.28.34l1.91,3.7-.93.45L737,528.3c-.4-.77-.77-1.55-1.2-2.3Zm-1.43-78.41a205,205,0,0,1,47.16,58.91,1.59,1.59,0,0,1,.07.2c5,.08,10.07.18,15.18.21l-3.08-6c-.53-1-1-2-1.58-3l-1.68-2.94a218.46,218.46,0,0,0-52.92-62.18C735.17,435.48,734.12,440.41,733.07,445.34Zm-1.23,5.74,1.26,1.1c.42.36.84.73,1.24,1.12l2.42,2.31,2.42,2.31c.81.77,1.62,1.53,2.38,2.35a.61.61,0,0,1,.39.41,200.9,200.9,0,0,1,25.34,31.74.57.57,0,0,1,.3.47c2.49,3.71,4.64,7.63,6.87,11.49,1.59,0,3.14,0,4.7.05-.64-1.33-1.46-2.66-2.26-4.08L774.37,496l-.66-1.15c-.23-.38-.48-.75-.72-1.13l-1.47-2.31-3-4.74c-1.09-1.57-2.22-3.13-3.34-4.72-.56-.79-1.13-1.58-1.69-2.38-.29-.39-.56-.79-.86-1.18l-.9-1.15-3.59-4.57c-.6-.75-1.17-1.52-1.79-2.24s-1.24-1.43-1.85-2.13l-3.6-4.15c-.57-.69-1.2-1.31-1.79-1.94l-1.76-1.85L744,456.84c-1.07-1.09-2.15-2.07-3.12-3l-2.74-2.6c-.84-.8-1.58-1.54-2.3-2.13l-3-2.6Zm1.51,28.36c.47,1.45,1.72,1.79,3.13,1.81a18.54,18.54,0,0,0,8.58-2.44c2.73-1.38,5.37-3.11,8-4.28-1-1.18-2-2.31-3-3.47l-.16,0-2.9.25a39.79,39.79,0,0,1-6.21.79,20.42,20.42,0,0,0-4.3,1.39C734.3,474.55,732.43,476.89,733.35,479.44Zm9.16-8.78c1-.17,2.07-.31,3.11-.45s2.16-.39,3.23-.55c-2.35-2.82-4.94-5.41-7.46-8.07h0a13.52,13.52,0,0,0-4.08.77,5.68,5.68,0,0,0-3.13,2.49c-1.74,3.33,1.94,5.53,4.7,5.84A16.59,16.59,0,0,0,742.51,470.66Zm-4.82,14.4a8.89,8.89,0,0,0-2.4,3.11,3.51,3.51,0,0,0,.15,3.71c1.74,2.21,5.37.66,7.14-.68a38.23,38.23,0,0,0,4.56-4.7c2.74-3,5.45-6,8.13-9.09h0L754,475.69l0,0c-3.72,2-7.38,4.05-11,6.15A35.62,35.62,0,0,0,737.69,485.06Zm8.36,8.14c-.3,1.37-.25,2.69,1,3.48,2.31,1.44,5,.1,6.5-1.8a19.45,19.45,0,0,0,2.24-3.82,41.58,41.58,0,0,1,2.2-6c.31-.95.61-1.87.91-2.77l.06-.15c-.88-1.23-1.86-2.4-2.79-3.61-1.72,2.29-4,4.47-5.91,6.82A19.11,19.11,0,0,0,746.05,493.2Zm10.82,0a7.74,7.74,0,0,0,0,1.08,7.35,7.35,0,0,0,.12,1.14,6.42,6.42,0,0,0,.75,2.13,3.12,3.12,0,0,0,3.75,1.56c2.59-.69,4.11-3.88,4.79-6.33v0l-1.48-2.31-.75-1.15-.79-1.13-3.19-4.48c-.4,1-.84,2-1.27,3.05s-.74,2-1.13,2.93A15.51,15.51,0,0,0,756.87,493.2Zm-30.94,15.19c3.77-.83,7.61-1.51,11.51-2.08,2-.29,3.88-.51,5.84-.71s3.91-.37,5.89-.52c8-.64,15.9-.71,24.1-.7-2-3.42-3.87-6.91-6.07-10.19-1.65,4.16-6.56,9.46-10.43,4.39a7,7,0,0,1-1.37-4.08,8.78,8.78,0,0,1-2.75,3.06,6.77,6.77,0,0,1-4.24.87,4.16,4.16,0,0,1-3.47-2.21c-.91-1.93,0-4.37,1-6.35-.63.61-1.27,1.21-1.93,1.79-2.42,2.11-7.25,4-9.55,1a4,4,0,0,1-.86-2.52,5.81,5.81,0,0,1,.63-2.59,11.38,11.38,0,0,1,3.66-4.2q1-.66,2-1.29c-2.22.56-4.82.92-6.51-.43a3.72,3.72,0,0,1-1.21-1.83,4.9,4.9,0,0,1-.18-2.2,6.66,6.66,0,0,1,2-4,9,9,0,0,1,3.36-1.78,6.79,6.79,0,0,1-3.67-2.25,6.17,6.17,0,0,1-1.06-1.78,3.77,3.77,0,0,1-.27-1.61,4.33,4.33,0,0,1,1.41-2.75,12.88,12.88,0,0,1,6.54-3.09c-1.4-1.39-2.85-2.74-4.28-4.11s-2.84-2.75-4.35-4c-.84,3.92-1.81,7.92-2.8,11.81q-.74,2.93-1.52,5.8c-.54,1.92-1,3.79-1.66,5.71a165.07,165.07,0,0,1-8.38,22,.35.35,0,0,1-.05.08c1.51,1.75,3.07,3.46,4.45,5.31l2.14,2.72c.36.45.72.9,1.07,1.36l1,1.42Z"/><path class="cls-1" d="M746.14,448.47a4.12,4.12,0,0,1-5.51-.37c-1.63-1.61-2-4.1-.65-5.63a3.31,3.31,0,0,1,2.61-1.11,4.3,4.3,0,0,1,1.52.28,5.77,5.77,0,0,1,1.42.84.73.73,0,0,1,.18.14,1.14,1.14,0,0,1,.15.17C747.45,444.59,747.72,447,746.14,448.47Zm-1.31-4.91a2.94,2.94,0,0,0-2.05-.79,2.47,2.47,0,0,0-1.65.79,2.24,2.24,0,0,0-.59,1.65,2.83,2.83,0,0,0,1,1.94C744.11,449.63,747.36,446.21,744.83,443.56Z"/><path class="cls-1" d="M757.1,459.84a4.22,4.22,0,0,1-5.48-.77,4.11,4.11,0,0,1-.24-5.66c1.47-1.43,3.82-1.1,5.54.42a.85.85,0,0,1,.17.16,1.19,1.19,0,0,1,.15.18C758.75,456,758.78,458.53,757.1,459.84Zm-1-5c-2.65-2.53-6.06.73-3.58,3.34a2.49,2.49,0,0,0,3.6.36A2.56,2.56,0,0,0,756.15,454.86Z"/><path class="cls-1" d="M767.17,472a4.14,4.14,0,0,1-5.41-1.17,4.63,4.63,0,0,1-1-3,3.49,3.49,0,0,1,1.2-2.64,3.33,3.33,0,0,1,2.75-.71,5.09,5.09,0,0,1,2.72,1.57,1.17,1.17,0,0,1,.15.16.76.76,0,0,1,.13.2C769,468.37,769,470.82,767.17,472Zm-.58-5c-2.41-2.76-6.05.23-3.82,3S768.71,470,766.59,467Z"/><path class="cls-1" d="M776.3,484.9a3.52,3.52,0,0,1-2.81.25,4.89,4.89,0,0,1-2.47-1.84,4.07,4.07,0,0,1,.59-5.62c1.67-1.2,3.94-.53,5.43,1.23a1,1,0,0,1,.15.18.78.78,0,0,1,.11.2,4.82,4.82,0,0,1,.64,3.19A3.3,3.3,0,0,1,776.3,484.9Zm-.18-5.08c-2.26-2.88-6.12-.17-4,2.76a3.48,3.48,0,0,0,.85.86,2.47,2.47,0,0,0,.91.41,2.21,2.21,0,0,0,1.72-.35,2.41,2.41,0,0,0,1-1.51,2.78,2.78,0,0,0,0-1A3.4,3.4,0,0,0,776.12,479.82Z"/><path class="cls-1" d="M784.47,498.43a4.37,4.37,0,0,1-4.12-7.56c1.75-1.07,3.94-.21,5.26,1.68a1,1,0,0,1,.13.19,2,2,0,0,1,.1.21C786.85,495.12,786.4,497.53,784.47,498.43Zm.15-5.05c-2-3.08-6-.67-4.23,2.45S786.29,496.64,784.62,493.38Z"/><path class="cls-1" d="M754.24,589.6a153.41,153.41,0,0,0-14.87-56.69l.93-.45c.54,1.21,1.06,2.37,1.64,3.65,2.28-2.54,4.56-5.09,6.78-7.71l1.84-.89a.84.84,0,0,1-.12.49c-2.56,3.2-5.22,6.2-7.93,9.16l-.07.06.91,2c.29.67.53,1.36.8,2,1.38-1.41,2.78-2.88,4.09-4.34s2.6-3,3.88-4.48c2.55-3,5.06-6.16,7.54-9.3l1.81-.87a.87.87,0,0,1-.11.51q-3.9,5.32-8.05,10.19c-.69.81-1.38,1.61-2.08,2.41s-1.41,1.58-2.15,2.37c-1.47,1.58-3,3.12-4.45,4.64l0,0,1.69,4.29A169,169,0,0,0,759,532.9c3.93-4.83,7.74-9.91,11.56-15l1.81-.87a.89.89,0,0,1-.1.53q-2.94,4.19-5.93,8.18-1.5,2-3,3.93l-1.53,1.93-1.59,1.92q-3.21,3.81-6.53,7.39c-2.22,2.38-4.46,4.66-6.88,6.9l-.06,0,1.39,4.11q4.73-4.22,9.23-8.9c3-3.1,5.76-6.3,8.57-9.65q2.1-2.5,4.17-5.09c1.34-1.71,2.66-3.44,4-5.19q4-5.25,7.9-10.74l1.89-.91a1,1,0,0,1-.08.56c-5.48,7.64-10.77,15-16.66,21.91-1.45,1.73-2.92,3.42-4.39,5.09-.75.83-1.47,1.64-2.24,2.46s-1.55,1.64-2.33,2.44q-4.68,4.82-9.59,9.15l0,0c.26.69.42,1.41.63,2.12l.6,2.13c2.14-1.76,4.24-3.59,6.32-5.49s4-3.82,6-5.83c3.91-4,7.8-8.26,11.4-12.6q2.75-3.27,5.47-6.67l2.73-3.4,2.64-3.42c3.52-4.57,7.08-9.23,10.74-13.88l1.91-.92A220.08,220.08,0,0,1,818.5,600h-2.19c-5.31-2.63-10.53-5.31-15.69-7.92l-3.86-2c-1.29-.64-2.62-1.28-3.92-1.9q-3.93-1.89-7.82-3.66c-2.61-1.18-5.16-2.32-7.8-3.4s-5.3-2.1-7.93-3.06-5.28-1.85-7.91-2.67-5.38-1.55-8.06-2.21c.24,1.46.57,2.9.71,4.38h.07c4.21,1.17,8.42,2.55,12.63,4.1,2.14.77,4.17,1.6,6.23,2.46s4.11,1.77,6.17,2.7,4.13,1.91,6.2,2.91,4,2,6.09,3.09c4,2.11,8.12,4.31,12.23,6.55a.71.71,0,0,1,.33.57h-2.16c-4-2.17-7.87-4.3-11.77-6.33q-2.92-1.53-5.83-3c-2-1-4-1.9-6-2.81-4-1.81-7.93-3.5-11.89-5s-8.12-2.87-12.18-4l.55,4.31.07,0c.78.24,1.57.49,2.34.75l2.28.79q2.28.82,4.56,1.71,4.54,1.8,9.1,3.87c1.54.68,3,1.4,4.47,2.13s3,1.48,4.43,2.25q4.44,2.31,8.9,4.81a.67.67,0,0,1,.33.53h-2.06c-5.67-3.16-11.29-6.12-16.92-8.76a170,170,0,0,0-17.36-6.88l.34,4.61h0c2,.71,4,1.47,6,2.26s3.93,1.64,5.89,2.52q5.85,2.63,11.68,5.74a.62.62,0,0,1,.32.5h-2c-3.6-1.9-7.21-3.68-10.83-5.31s-7.21-3.14-11-4.49c0,.73.14,1.46.15,2.19l0,2.19.09,0c3.72,1.49,7.42,3.15,11.12,4.92a.58.58,0,0,1,.32.47H765q-4.69-2.25-9.41-4.19l.11,4.19h-1l-.14-5.21-.06-2.6C754.39,591.33,754.3,590.46,754.24,589.6ZM787,518.36A204.1,204.1,0,0,1,803.88,592a1.36,1.36,0,0,1,0,.21c4.47,2.25,9,4.54,13.59,6.78l-.17-6.75-.09-3.37-.25-3.38a215.59,215.59,0,0,0-20.63-79.09C793.15,510.37,790.08,514.39,787,518.36ZM783.46,523l2.46,6.22.61,1.56c.21.52.41,1,.58,1.57l1.08,3.17a.61.61,0,0,1,.17.54,197,197,0,0,1,9,39.62.57.57,0,0,1,.07.55l.42,3.32.26,3.34.5,6.67,4.19,2.09c-.24-5.89-.82-13.1-1.89-20.66-.2-1.9-.59-3.8-.92-5.71s-.68-3.84-1-5.76-.86-3.79-1.28-5.67c-.22-.94-.43-1.87-.65-2.79s-.41-1.85-.68-2.75l-1.5-5.29c-.5-1.71-.94-3.4-1.5-5s-1.06-3.11-1.55-4.57l-.71-2.11c-.23-.69-.46-1.36-.72-2L787.87,523c-.34-.86-.62-1.62-.89-2.23s-.49-1.09-.65-1.43C785.37,520.53,784.45,521.75,783.46,523Zm-11,26.23c-.19,1.5.8,2.35,2.07,3a19,19,0,0,0,8.79,1.54c3,0,6.14-.45,9-.37-.34-1.49-.66-3-1.11-4.43l-.15,0-2.75-1a40.65,40.65,0,0,1-6-2,20,20,0,0,0-4.4-.64C775.53,545.21,772.79,546.52,772.46,549.23Zm12.06-3.93c1,.29,2,.61,3,1s2.12.58,3.16.9l-1.5-5.29c-.52-1.76-1.15-3.48-1.73-5.22h0c-2.33-1-5.77-1.79-7.92-.19-3,2.26-.58,5.8,1.76,7.28A15.43,15.43,0,0,0,784.52,545.3ZM774,556.16c-2.18.54-5.62,2.45-5,5.16s4.59,2.92,6.76,2.48a36.49,36.49,0,0,0,6.15-2.24q5.64-2.25,11.25-4.63h0l-.49-2.11h0q-6.33.3-12.64.74A35.83,35.83,0,0,0,774,556.16Zm4,11c-.86,1.1-1.38,2.3-.56,3.57,1.5,2.3,4.47,2.3,6.65,1.22a19,19,0,0,0,3.67-2.47,41.15,41.15,0,0,1,4.56-4.41l2-2.1.13-.1L794,560.6c-.12-.75-.33-1.49-.49-2.23-2.54,1.31-5.5,2.29-8.27,3.56A18.82,18.82,0,0,0,777.92,567.13Zm9.76,4.71c-1.5,2.38-2,6.63,1.59,7.32,2.63.51,5.38-1.7,7.05-3.6l0,0-.69-5.45c-.3-1.81-.64-3.61-1-5.42-.79.74-1.63,1.46-2.45,2.18S790.72,568.3,790,569A18,18,0,0,0,787.68,571.84ZM753.2,572c3.75.9,7.57,1.94,11.29,3.14s7.38,2.55,11.08,4q2.79,1.1,5.57,2.27t5.45,2.42c3.64,1.66,7.3,3.4,11,5.18l-.44-5.91-.23-3c-.09-1-.24-2-.35-2.94-3.29,3-10,5.65-11.33-.59a6.63,6.63,0,0,1,.56-4.27,9,9,0,0,1-3.83,1.56,6.48,6.48,0,0,1-4.15-1.07,4.21,4.21,0,0,1-2.18-3.5c0-2.13,1.84-3.92,3.64-5.29-.83.28-1.67.54-2.52.77a10.85,10.85,0,0,1-5.35.07,4.58,4.58,0,0,1-3.69-3.3c-.87-3.86,3.9-6.39,7.18-6.9.77-.12,1.55-.22,2.32-.32-2.24-.45-4.77-1.26-5.72-3.2A4.17,4.17,0,0,1,772,547a6.75,6.75,0,0,1,3.54-2.74,9.2,9.2,0,0,1,3.81-.15,6.82,6.82,0,0,1-2.38-3.6c-1.62-6.17,5.68-6.72,9.94-5.43l-1-2.81c-.33-.93-.71-1.85-1.07-2.77l-2.18-5.52c-2.54,3.21-5.08,6.37-7.63,9.44-1.29,1.54-2.54,3-3.88,4.55s-2.68,3-4,4.45c-2.71,2.92-5.43,5.72-8.24,8.41s-5.82,5.28-8.82,7.72l-.08,0,.48,1.66.23.83.2.84.77,3.37.78,3.37.6,3.4Z"/><path class="cls-1" d="M797.49,526.85a4.37,4.37,0,0,1-3-8.09c1.9-.8,3.94.38,5,2.44a.82.82,0,0,1,.11.21.9.9,0,0,1,.06.22C800.33,523.92,799.54,526.24,797.49,526.85Zm.9-5c-1.51-3.35-5.88-1.56-4.55,1.79S799.56,525.35,798.39,521.88Z"/><path class="cls-1" d="M802.38,541.89A4.39,4.39,0,0,1,800,533.6c1.94-.65,3.94.66,4.85,2.78a.93.93,0,0,1,.08.22.62.62,0,0,1,0,.23C805.47,539.18,804.47,541.44,802.38,541.89Zm1.36-4.91a2.63,2.63,0,0,0-3.25-1.85,2.42,2.42,0,0,0-1.43,3.29C800.05,541.88,804.58,540.55,803.74,537Z"/><path class="cls-1" d="M806.21,557.24a4.2,4.2,0,0,1-4.4-3.41,4.14,4.14,0,0,1,2.67-5c2-.5,3.84,1,4.54,3.16a.65.65,0,0,1,.07.21,1.09,1.09,0,0,1,0,.24C809.46,554.78,808.33,556.94,806.21,557.24Zm1.63-4.78c-1-3.53-5.58-2.42-4.77,1.09S808.49,556.07,807.84,552.46Z"/><path class="cls-1" d="M808.77,572.84a4.38,4.38,0,0,1-1.06-8.54c2-.35,3.81,1.24,4.36,3.47a.78.78,0,0,1,0,.23.6.6,0,0,1,0,.23C812.23,570.62,810.9,572.71,808.77,572.84Zm2.08-4.65a2.62,2.62,0,0,0-2.93-2.32,2.43,2.43,0,0,0-1.91,3C806.47,572.48,811.14,571.84,810.85,568.19Z"/><path class="cls-1" d="M810.25,588.57a4.21,4.21,0,0,1-3.84-4,4.16,4.16,0,0,1,3.4-4.58c2-.2,3.64,1.53,4,3.8a.79.79,0,0,1,0,.23.88.88,0,0,1,0,.23C813.83,586.62,812.39,588.59,810.25,588.57Zm2.33-4.48c-.46-3.63-5.16-3.22-4.88.36S812.67,587.75,812.58,584.09Z"/></svg>