<svg id="Layer_1" data-name="Layer 1" xmlns="http://www.w3.org/2000/svg" viewBox="0 0 1200 1200"><defs><style>.cls-1{stroke:#000;stroke-miterlimit:10;}</style></defs><path class="cls-1" d="M1065.42,545.48c.55-1.29,1-2.39,1.47-3.48q18.49-43.92-1.87-87a98.74,98.74,0,0,0-32.18-38.23c-1.76-1.26-2.46-2.41-2-4.7,1.66-8.42,2.87-16.94,4.61-25.34,3.32-16.08,8.13-31.67,16.48-46a17.67,17.67,0,0,0,.8-1.92c-1.33-.1-2.35-.21-3.37-.24a142.08,142.08,0,0,1-22.06-2.24C1010.22,333.13,994,327,977.84,321a3.51,3.51,0,0,1-2.51-3.42c-.27-2.73-.57-5.46-1.05-8.16A103.44,103.44,0,0,0,883,224.92c-2-.21-3.18-.92-3.87-2.92-3.11-9-6.55-17.93-9.51-27-4.88-14.93-8.13-30.18-7.86-46a11.72,11.72,0,0,0-.23-1.63c-.84.38-1.48.59-2.06.93A131.72,131.72,0,0,1,828.77,161c-13.22,3.75-26.74,6.06-40.27,8.31-2.35.39-3.64,0-5-2a103.36,103.36,0,0,0-126.51-33.51,24.89,24.89,0,0,1-2.35.83C634,117.87,613.41,101.13,600,76.92c-13.47,24.36-34.12,41.13-54.72,57.9-23.4-10.76-47.25-13.22-71.85-6.6s-44,20.72-58.73,41.56c-13.18-2.09-26.22-4.26-39-7.56a144,144,0,0,1-37.32-15.17c0,1.94.1,3.24,0,4.52-.61,6.65-.91,13.35-2,19.92-2.87,17.66-9.34,34.25-15.54,50.91a3.51,3.51,0,0,1-3.43,2.51c-3.19.33-6.39.77-9.55,1.37a103,103,0,0,0-80.75,77.25c-1.3,5.43-2,11-3.08,16.71-24.62,9.44-49.38,18.74-77.11,18.36A140.88,140.88,0,0,1,162,375.83,364.54,364.54,0,0,1,169.53,415c-21.07,14.91-35.08,34.41-41.59,59s-4,48.48,6.7,71.48c-16.95,20.76-33.68,41.31-57.91,54.7,24.35,13.45,41.13,34.11,57.92,54.74-10.78,23.33-13.17,47.21-6.61,71.81s20.73,44,41.55,58.74c-4.18,26.43-8.49,52.64-22.75,76.34,27.81-.45,52.57,8.94,77.47,18.45,2.37,25.41,12.08,47.35,30.1,65.39s40.14,27.88,65.74,30.27c3.35,9.45,6.85,18.71,9.92,28.11,5,15.38,8.55,31.06,8.28,47.39a14.32,14.32,0,0,0,.24,1.81c23.61-14.15,49.8-18.47,76-22.57,2.82,3.49,5.32,6.85,8.09,10,17.91,20.16,40.4,31.64,67.13,34.58a99.8,99.8,0,0,0,52.41-8.33c1.81-.81,3.27-1.41,5.16.26,8.14,7.19,16.62,14,24.62,21.34,10.7,9.8,20.06,20.78,27.2,33.52a7.19,7.19,0,0,0,.94,1.07c.37-.54.67-.91.91-1.32a129.19,129.19,0,0,1,18.62-24.89c9.9-10.58,21.09-19.72,32.17-29,2.14-1.8,3.78-2,6.34-.9a99.84,99.84,0,0,0,55.61,7.79q43.26-6.24,69.39-41.36c1.58-2.12,3.09-2.84,5.66-2.33,8.78,1.73,17.62,3.11,26.37,5,15.59,3.29,30.67,8.07,44.49,16.25.48.29,1,.46,2.1.94-.45-13.74,1.78-26.73,5.3-39.51a373.28,373.28,0,0,1,13.06-37.76c.84-.1,1.42-.18,2-.24,13.68-1.43,26.78-5,38.8-11.7,31.51-17.66,49.83-44.37,54.28-80.35.3-2.39,1.08-3.79,3.52-4.61,8.37-2.81,16.59-6,25-8.8,15.6-5.17,31.52-8.64,48.07-8.42a4.58,4.58,0,0,0,1.19-.4c-14.07-23.41-18.3-49.55-22.53-75.9,20.76-14.68,34.91-34.07,41.53-58.68s4.2-48.47-6.56-71.89c8.46-10.44,16.85-20.68,26.16-30.14a142.23,142.23,0,0,1,31.71-24.64C1098.9,586.64,1082.17,566.07,1065.42,545.48Zm-37.51-114.86c.81-3.82,1.4-7.68,2.15-11.94,38.18,25.53,54.19,79.89,33.35,123.36a16.08,16.08,0,0,1-1.77-1.52c-2.09-2.45-4.05-5-6.23-7.38-1.48-1.62-1.63-3.1-.89-5.16,4.13-11.5,5.36-23.4,4.73-35.56-.81-15.64-6.69-29.37-15.67-41.95a83.39,83.39,0,0,0-14-15.22A4.21,4.21,0,0,1,1027.91,430.62Zm6.42,79.23.9-6.74c3.36-.81,6.38.08,9.38.59,3.15.54,6.26,1.38,9.39,2.09,1.15.25,2.1.75,1.9,2.12-.48,3.26-1,6.5-1.55,9.73Zm19.36,10.21c-.71,2.42-1.45,5-2.38,8.13l-13.7-14.71C1041.23,513.32,1049.11,516.54,1053.69,520.06Zm-4.13-52.81a44.2,44.2,0,0,1,4.12,10.56l-20.28,5.71c-.92-2.64-1.68-4.86-2.45-7.06Zm-19.49,7.34c-1.11-2-2.17-3.93-3.24-5.85L1043,455l6,10.29A68,68,0,0,1,1030.07,474.59Zm24.19,4.78c.64,3.88,1.21,7.42,1.82,11.16l-21,1.46c-.41-2.49-.8-4.79-1.24-7.35Zm1.75,13.39v11.69l-20.46-3.78v-6.81C1042.36,492.75,1049,491.66,1056,492.76ZM1026.87,437l6.37,6.1a59.44,59.44,0,0,1-11.14,14.61C1023.77,450.4,1025.25,444,1026.87,437Zm7.94,7.61,7.12,8.84a95.09,95.09,0,0,1-16.06,13.75l-4.54-5.8Zm-3.67,62.61-10.69-8.54c2-7.92.29-14.9-5.51-20.63l4.84-12.64C1028.5,472.47,1034.94,494.1,1031.14,507.17ZM942.92,256.22c17,16.65,31.07,47,29,62.24-4.18-1.55-8.28-3.11-12.42-4.59-1.75-.62-1.68-2.16-1.94-3.5A90.71,90.71,0,0,0,951,290c-12-26.21-32.88-41-60.45-47.15-2.62-.58-4.24-1.4-5-4.15-1-3.53-2.47-6.92-4-11C905.75,230.17,926,239.63,942.92,256.22Zm-44.26-7.86c3.54.6,7,2.23,10.57,4a87.53,87.53,0,0,1-7,19.8l-6.76-2.89C896.57,262.13,897.58,255.47,898.66,248.36Zm-4.16,16c-1.22-1.55-4.92-12.63-6.2-18.88l7.75,1.84C897,251.86,896.32,258.93,894.5,264.4Zm21.77,17.49-4.94-4.26L923,260.11l8.76,7.13C926.42,272.28,921.44,277,916.27,281.89Zm16.83-13.31,7,8.71L922.67,289c-1.46-1.7-3-3.57-4.25-5Zm-23.43,7.9L904,273c2.31-6.52,4.59-12.95,7.1-20l10.24,6A69.3,69.3,0,0,1,909.67,276.48Zm17.09,27.64L913.37,302c-2.08-7.74-7.15-12.84-15.11-15.08-.71-4.55-1.41-9-2.12-13.5C909.1,276.24,924.48,292.45,926.76,304.12Zm-2.94-13.49a72.33,72.33,0,0,1,17.49-11.69l6,10.28-20,7.13Zm24.32.4c1.42,3.61,2.78,7.08,4.15,10.55L931,304.84c-.82-2-1.77-4.22-2.83-6.76A86.23,86.23,0,0,1,948.14,291Zm4.69,13c.58,2.42,1.2,5,2,8.2l-19.62-6C939.26,304.3,946.7,303.34,952.83,304Zm-36.54,19.65c15.66.51,30.68,4.19,45.45,9.11,17.91,6,35,13.81,52.2,21.63,2.15,1,4.28,2,6.63,3.09-.65,7.07-1.12,13.61-1.89,20.12-1.26,10.65-2.5,21.32-4.14,31.92-2.6,16.79-6.58,33.23-13.67,48.78-6.13,13.45-14.45,25.25-26.37,34.26a72.68,72.68,0,0,1-17.44,9.76,5.55,5.55,0,0,1-2.15.38c10.75-8.48,13.74-19.1,9.07-32.16,1.1.18,2,.28,2.87.47,9,2,17.44-1.53,21.81-9.17s3.32-16.64-2.95-23.47c-.55-.61-1.08-1.23-1.92-2.2,10.09-2,17.21-7.1,19.4-17.31,2.14-10-2.11-17.57-10.58-23.59,1.67-.61,2.76-1,3.82-1.39,9.81-4.05,17-14.24,14.41-27.79a8.31,8.31,0,0,0-2.87-4.79,24.15,24.15,0,0,0-31.53-.79l-2.27,1.85c-1.8-21.71-26.74-29.35-40.16-12.74-4.78-12.37-10.17-16.8-20.28-16.67-9.29.11-14.94,5-19.39,17.05-3.92-4.88-8.53-8.5-14.55-10a27,27,0,0,0-17.4,1.77c-.09-.25-.17-.49-.25-.73,1-.81,2-1.66,3-2.42C880.32,327.38,897.57,323.08,916.29,323.69ZM955.15,679.5c-.18-3.29-.66-6.56-1-9.78l21.92-4.53c4.37,10.17-6.88,23.47-20.89,24.43C955.18,686.08,955.32,682.78,955.15,679.5ZM775.94,955c3.12.81,5.73,1.44,8.31,2.23a2.5,2.5,0,0,1,1.43,1.37c2.28,6.5,3.14,13.1,1.14,20.41l-12.44-3A36.25,36.25,0,0,0,775.94,955Zm-.79-33.95c2.56,2.16,5.11,4.27,7.59,6.46a3.05,3.05,0,0,1,1,1.73c.34,2.94.55,5.89.83,9.12a32.31,32.31,0,0,1-12.79-6.14C773,928.37,774.1,924.6,775.15,921.09Zm-4.49,9.23c-2.69-.8-5.11-3.27-7.51-7.57l8.59-11C775,918.17,773.33,924.26,770.66,930.32Zm14.63-1a4.92,4.92,0,0,1,5.23,2.67c1.45,2.54,3.07,5,4.62,7.45l-.43.69-8.43-1.05C785.93,935.62,785.61,932.5,785.29,929.3Zm6.3.15c-.47-1.11.15-2.67.33-4.74l8.66,6.17c-1.3,2.85-2.4,5.28-3.5,7.71l-.84,0C794.66,935.54,792.9,932.59,791.59,929.45Zm1.69-5.67a3.81,3.81,0,0,1-1-2.12c-.66-3.1-1.21-6.23-1.82-9.43l11.15,2.63c1.16,4.59.38,9.16-.72,14.36C798,927.21,795.59,925.57,793.28,923.78ZM784,904.66l14.38-2c1.07,3.19,2.15,6.41,3.44,10.22C794.18,912.54,788.2,910.6,784,904.66Zm-10.08-4.13c-1.46,3.9-2.59,7.62-4.24,11.1a25.57,25.57,0,0,1-7.43,9.2c-3-2.82-2.92-7.07-5.23-9.7l8.19-10.56c5.67.55,10.32-1.57,12.41-7.33l13.13-1.67,6.49,9.08C789.07,903.78,781.48,903.35,773.88,900.53Zm-12.15,47a3.75,3.75,0,0,1,1,2.22,33.28,33.28,0,0,1-4.07,20.7,83,83,0,0,1-14.12-7.28,33.27,33.27,0,0,0,9-22.32C756.61,943.32,759.23,945.35,761.73,947.51ZM751.88,944a31.64,31.64,0,0,1-8.47,18c-3.1-1.23-7.41-4.4-10.64-7.89a53.89,53.89,0,0,0,13.74-21.88C749.75,935.62,752.66,938.69,751.88,944ZM731,953l-6.73-7.16c3-4.56,5.75-8.74,8.55-12.9.37-.55,1-1.32,1.5-1.34,3.29-.13,6.59-.06,9.89-.06C743.62,938.12,737,948.89,731,953Zm-7.63-8.41-4-5.69c1.91-2.49,3.63-4.89,5.54-7.13a3.46,3.46,0,0,1,2.4-1,31.44,31.44,0,0,1,4.69.74C729.07,936,726.42,940,723.41,944.6Zm.77,5.51c2.53,2.83,5.29,5.45,7.94,8.16-8,9-26.31,5.4-31.7-6l16.86-10.57C719.4,944.33,721.68,947.32,724.18,950.11Zm11.57,10.78A112.29,112.29,0,0,0,764.64,976c-3.08,7.58-8.13,11.9-15.76,12.35a16.37,16.37,0,0,1-15.36-9.24A16.6,16.6,0,0,1,735.75,960.89Zm24.35,10.29a40,40,0,0,0,4.26-21.8c3.15,1.55,5.92,2.85,8.63,4.27a2.8,2.8,0,0,1,1.33,1.53,30.48,30.48,0,0,1-1.58,20.44Zm7.87,6.56,36,7.83c-1.61,10.46-12.43,16.52-20.94,15C772.63,998.63,765.26,988.41,768,977.74Zm20.62,1.72c1-7.31,1.07-14.26-1.51-21.51,3.23.25,5.81.37,8.37.7.53.07,1.17.81,1.41,1.38,2.9,7.06,5.73,14.15,8.57,21.23.07.18,0,.44-.1,1ZM798,958.75l7.72-.86,14.63,25.67c-4.3.48-7.95-.48-11.62-1a2.39,2.39,0,0,1-1.51-1.33C804.12,973.92,801.15,966.56,798,958.75Zm25.4-77.38c4.51-.23,9-.44,14-.68,1,3.33,1.93,6.36,2.82,9.31-5.63,2.92-18.14,3.59-25.68.79,1-1.54,1.88-3,2.81-4.46s1.93-3,3-4.63C821.24,881.59,822.3,881.43,823.36,881.37ZM821,879.9l2.33-5.54,10.38-1.52,2.79,6C831.27,879.89,826.41,879.85,821,879.9Zm6.24,14.1c4.24-.1,8.46-1,13.17-1.59A38,38,0,0,1,841.9,905c-6.49,2.1-12.54,1.15-18.65-.86-5.4-1.78-7.78-5.76-9.12-11.1C818.8,893.41,823,894.1,827.26,894Zm8.17,43a32.11,32.11,0,0,1-14.06-7.39,4.31,4.31,0,0,1-1.62-4.05c.29-2.57.35-5.18.53-8.06,3.7,1.73,6.81,3.51,10.14,4.66s6.88,1.67,10.85,2.59c-.76,4-1.54,8.16-2.36,12.52A23.34,23.34,0,0,1,835.43,937Zm3,2c-1.24,4.3-2.39,8.25-3.62,12.52a34.44,34.44,0,0,1-17.14-11.4,3.52,3.52,0,0,1-.26-2.59c.5-2.31,1.2-4.59,2-7.61A35.22,35.22,0,0,0,838.46,939Zm-3.33-17a33,33,0,0,1-13-5.64,5.06,5.06,0,0,1-2.42-4.05c-.24-2.81-.84-5.58-1.37-8.92a33.39,33.39,0,0,0,23.86,3.35c.56,5.52-.38,10.5-.65,15.58C839.23,923.15,837.15,922.35,835.13,922Zm-18.77,19.1a41,41,0,0,0,18,11.84l-6.28,16.71-15.7-20.22C813.68,946.72,814.89,944.17,816.36,941.08Zm11.08,30c-1.63,3.79-3.2,7.47-5,11.58a20.4,20.4,0,0,1-1.65-2.06c-4.16-7.07-8.25-14.18-12.47-21.21-1-1.65-1.21-2.93.18-4.44a47.6,47.6,0,0,0,3.06-4.27ZM808,985.75l15.65,1.71,6.44-14.62c5.84,3.08,9.59,7.46,11.3,13.5,1.9,6.65.45,12.67-3.46,18.31-2.48,3.56-6.09,4.16-9.79,4-11.46-.62-19.2-8.91-20.33-19.49A23.94,23.94,0,0,1,808,985.75Zm23.8-16.16c3.79-11.84,7.51-23.46,11.24-35.09,8.73,1.29,15,11.83,13,21.74C853.82,966.87,843.48,972.64,831.84,969.59Zm11.86-39.33c.52-5.58,1.2-10.9,1.45-16.24s.05-10.45.05-15.71c4.87-1.76,11.56.67,15.6,5.73a17.13,17.13,0,0,1,1,19.16A16.52,16.52,0,0,1,843.7,930.26Zm.84-36.5-7-21.5,17.31-9C861.48,871.45,857.82,888.93,844.54,893.76ZM600,940.87c-188.26,0-340.87-152.61-340.87-340.87S411.74,259.13,600,259.13,940.87,411.74,940.87,600,788.26,940.87,600,940.87ZM580.44,948c3.72-1.6,7-2.89,10.22-4.46a3.16,3.16,0,0,1,3.61,0c3.88,2.63,7.81,2.54,11.67,0,1.27-.85,2.28-.63,3.61,0,3.19,1.55,6.51,2.84,10,4.35.28,3.14.61,6.75,1,10.87-8.74-1.07-14.88-5.59-20.45-12-5.39,6.31-11.68,10.68-19.88,12.07C578.94,954.92,581.19,951.36,580.44,948ZM665,961.51a29.67,29.67,0,0,1-2.17,10,45.75,45.75,0,0,1-22.32-12.06c2.74-2.74,6.56-3.11,9.35-5.59Zm-13.47-8.44c1.66-1.32,2.78-2.33,4-3.15a2.45,2.45,0,0,1,1.94-.31c2.85,1.09,5.65,2.33,8.8,3.67-.29,2.28-.54,4.24-.86,6.78Zm-1.36,15.2c3.72,2,7.81,3.41,12.06,5.22a55.56,55.56,0,0,1-4.94,11.83c-8.41-2.51-14.79-7.23-18.59-14.87-1.44-2.88-.21-6.22.25-9.71C643,963.54,646.39,966.23,650.12,968.27ZM656,986.49c-.92,3.47-5,10-8.45,13.49a33.54,33.54,0,0,1-13.87-16.59,2.58,2.58,0,0,1,0-1.71c1.15-3.11,2.38-6.19,3.75-9.73A32.71,32.71,0,0,0,656,986.49Zm-9,14.94-8.8,10.27a30.24,30.24,0,0,1-11.48-17,2.79,2.79,0,0,1,.32-2c1.66-2.6,3.43-5.12,5.43-8A38.48,38.48,0,0,0,647,1001.43Zm-10.27,11-8.72,9.29a25.21,25.21,0,0,1-2.18-2.07,37.41,37.41,0,0,1-7.16-15.06,3.6,3.6,0,0,1,1.29-4.08c1.75-1.42,3.34-3,5.35-4.87A33.68,33.68,0,0,0,636.77,1012.45Zm-35.7-29.31c-.12-2.39.81-4,3.13-5.44,1.37,3,2.68,5.83,4.14,9l-7.28,5.4a29.42,29.42,0,0,1-.26-3C600.86,987.15,601.17,985.13,601.07,983.14Zm7.85-17.53,8.51,8a34.44,34.44,0,0,1-8,11.83c-1.42-3.07-2.72-5.7-3.83-8.4a3.78,3.78,0,0,1,.13-2.36C606.71,971.68,607.81,968.72,608.92,965.61Zm-1.81-9.83,13.14,5.33a26,26,0,0,1-2.2,10.59C612.19,967.76,607.83,963.17,607.11,955.78Zm-5.86,56.91,6.29-2.94a4.32,4.32,0,0,1,.64,1.21c1,6.95,1.89,13.92,2.94,20.86.37,2.39-.16,4.06-2.29,5.41-2.4,1.52-4.61,3.36-7.58,5.56Zm8.13-4,7.65-5.15a39.48,39.48,0,0,0,9.54,19.14c-4.39,4-8.7,7.52-13.73,11.33C611.63,1025.12,610.51,1017,609.38,1008.7Zm-10.31-17.06a20.42,20.42,0,0,1-7.11-5.22c1.4-3,2.67-5.78,4-8.72,2.28,1.39,3.26,3,3.12,5.37C599,985.76,599.07,988.47,599.07,991.64ZM581.7,971.52c-.62-3.07-1.27-6-1.82-9-.23-1.26.5-1.89,1.68-2.31,3.77-1.34,7.51-2.79,11.2-4.18C593.56,961.67,587.07,969.27,581.7,971.52Zm12.88,3.36a3.57,3.57,0,0,1,0,2.35c-1.11,2.61-2.38,5.15-3.8,8.18a34.47,34.47,0,0,1-8-11.79l8.51-8C592.4,968.74,593.56,971.79,594.58,974.88Zm-11.34,28.69,7.59,5.17L587.37,1034c-5-3.8-9.32-7.37-13.7-11.31A40.82,40.82,0,0,0,583.24,1003.57Zm5.79,30c1-7.88,2.06-15.74,3.18-24l6.76,3.13v30.17c-3.4-2.55-6.12-4.47-8.68-6.59A3.62,3.62,0,0,1,589,1033.56Zm-8-32.13a2.91,2.91,0,0,1,.55,2.25,35.22,35.22,0,0,1-9.13,18l-9.44-9a34.12,34.12,0,0,0,11.85-17.36C577.15,997.61,579.17,999.44,581,1001.43Zm-7.69-6.27c-1.25,5.82-5.85,12.48-11.45,16.38-2.24-2.55-4.37-4.93-6.46-7.36-.69-.8-1.25-1.7-2.1-2.86a37.57,37.57,0,0,0,14.32-16.64c2.08,3.06,4,5.72,5.68,8.46A3.09,3.09,0,0,1,573.34,995.16Zm-6.93-11.57a33.6,33.6,0,0,1-14.16,16.58c-1.61-2.3-3-4.21-4.32-6.2-1.42-2.19-2.72-4.46-4.1-6.74,3.66-2.06,7.4-3.67,10.53-6.08s5.68-5.66,8.52-8.58c1.13,2.87,2.37,5.91,3.5,9A3,3,0,0,1,566.41,983.59Zm-6.52-10.07c-4.4,5.66-9.7,9.73-17,11.72A59.7,59.7,0,0,1,538,973.46c4.21-1.78,8.29-3.15,12-5.18s7.11-4.72,11.28-7.54C561.8,965.33,563.08,969.43,559.89,973.52Zm-22.69-1.88c-.79-3.46-1.51-6.64-2.26-9.94L550.09,954l9.95,5.12A46.79,46.79,0,0,1,537.2,971.64ZM534.72,960c-.28-2.58-.49-4.55-.71-6.66,3-1.27,5.75-2.53,8.61-3.61a3,3,0,0,1,2.23.38,42.43,42.43,0,0,1,3.77,2.89C544,955.62,539.61,957.72,534.72,960Zm.65,16.2c-10,4.81-24.71-7.66-24.47-20.81l19.93-.79c.51,3.28.94,7,1.7,10.63S534.42,972.51,535.37,976.15Zm1.81,4.17a108.09,108.09,0,0,0,17.3,27.35c-4.7,5.43-14,5.67-18.54,3.65a17.15,17.15,0,0,1-9.85-15.39C526.1,989.54,530.6,982.46,537.18,980.32Zm19.31,30.59L584.16,1036c-4.55,5-10.36,7.34-17.12,6.23-7.44-1.22-12.54-5.78-14.7-13C550.32,1022.42,552,1016.32,556.49,1010.91Zm31,27.2,12.7,9.19,12.66-9.32a20.2,20.2,0,0,1,3.82,13.66,20.53,20.53,0,0,1-14.36,18.21,6.46,6.46,0,0,1-3.46.31C583.26,1065.81,579.81,1047.93,587.45,1038.11Zm28.53-2c9.31-8.46,18.38-16.68,27.66-25.1a18.31,18.31,0,0,1,4.32,17.84,17.58,17.58,0,0,1-14.42,13.36C626.62,1043.47,620.74,1041,616,1036.07Zm29.61-28.15c7.07-8.52,13.12-17.44,17.41-27.63,6.43,2.14,11.25,9.12,11.09,16.06-.15,6.5-4.28,13-10.25,15.07C657.33,1013.72,651.24,1012.69,645.59,1007.92Zm19.46-31.45c1.52-7.36,3.05-14.73,4.54-21.94l19.47.81C690.86,967.06,676.35,979.91,665.05,976.47ZM378.81,881.6a2.19,2.19,0,0,1,1.53.69c1.82,2.74,3.54,5.55,5.47,8.63a43.64,43.64,0,0,1-25.91-.57c1.07-3.43,2-6.47,3-9.68C368.39,881,373.6,881.26,378.81,881.6ZM363.71,879c1-2.25,1.83-4.15,2.72-6.14l10.38,1.51,2.28,5.38A76.49,76.49,0,0,1,363.71,879Zm8.39,90.65-6.17-16.26c3.37-1.77,6.63-3.19,9.56-5.12s5.53-4.4,8.48-6.8c1.27,2.62,2.49,5.16,3.83,7.94Zm16.41-18.79c4.73,6.12,4.72,6.12,1.29,12q-4.86,8.31-9.72,16.62c-.59,1-1.25,2-2.24,3.52l-5.11-11.79Zm-8.94-33.68c.91,3.58.67,6.86.83,10.09a2.36,2.36,0,0,1-.8,1.51,28.9,28.9,0,0,1-16.89,8.45,6,6,0,0,1-1.42-.29c-.77-3.93-1.57-8-2.47-12.54C366.39,923.71,373.24,921.66,379.57,917.15Zm-21.66-9.8c4.19,0,8.21.42,12.1-.12s7.74-2.05,11.65-3.15c-.45,3.13-.9,6.52-1.48,9.89a3.17,3.17,0,0,1-1.21,1.65,33.74,33.74,0,0,1-20.13,7.09A78,78,0,0,1,357.91,907.35Zm22.81,22.59c.84,3,1.68,5.47,2.17,8a3.84,3.84,0,0,1-.89,2.79,35.53,35.53,0,0,1-16.64,10.77L361.76,939A35.45,35.45,0,0,0,380.72,929.94Zm-2.3-26.44c-6.48,2.59-13,3.65-20,1.59-.49-4.46.33-8.66,1.5-13.14,8.72,2.71,17.28,2.67,26.38.66C384.66,897.52,383.25,901.56,378.42,903.5Zm-22.67-10c-13.44-3.9-16.81-22.15-10.42-30.38l17.38,9.12C360.4,879.31,358.07,886.42,355.75,893.53Zm-.4,4.7a115.86,115.86,0,0,0,1.45,31.95c-7.36,1.74-14.11-.75-18.06-6.38a17.2,17.2,0,0,1-.2-18.6C341.47,900.58,348.86,896.29,355.35,898.23Zm2,36.08c1.7,5.85,3.27,11.77,5.14,17.6s4.05,11.63,6.1,17.43a18.18,18.18,0,0,1-24.05-11.82C341.51,947.59,347.3,936.8,357.32,934.31Zm12.88,38.78c2,4.63,4.09,9.27,6.28,14.26l15.41-1.55c1,2.51.35,4.61-.13,6.64-2.82,11.77-14.62,18.21-24.75,15.56a6.8,6.8,0,0,1-3.08-1.57C352.92,995.34,358.41,977.86,370.2,973.09Zm19.49,9.9c-3.05.21-6.09.61-9.95,1,5-9.16,9.9-17.49,14.75-26.06l7.39.74a20.68,20.68,0,0,1-.65,2.52c-2.53,6.28-5.17,12.52-7.62,18.83A4.06,4.06,0,0,1,389.69,983Zm72.5-51.58c3.35-.52,5.17,1.07,6.74,3.82,2,3.5,4.39,6.77,6.92,10.6-2.3,2.49-4.45,4.82-7,7.52a45.31,45.31,0,0,1-13.33-21.53,10.61,10.61,0,0,1,2.37-.59C459.35,931.21,460.81,931.63,462.19,931.41ZM461,928H464v.14h-2.9Zm7.65,4.28c3.44-2.32,5.52-2,7.7.86.7,1,1.44,1.89,2.17,2.82s1.47,1.82,2.33,2.89l-4,5.79C473.92,940.26,471.28,936.27,468.64,932.28Zm-.84,22.05-10.32,8a24.67,24.67,0,0,1-2.17-2,29.33,29.33,0,0,1-7.1-19c-.09-4.06,2.88-6.45,5.61-9.86A50.19,50.19,0,0,0,467.8,954.33Zm-12,8.77a80.08,80.08,0,0,1-14.12,7.3,31.27,31.27,0,0,1-4.39-14.71c-.09-1.18,0-2.37,0-3.56,0-2.65.74-4.74,3.21-6.26,2.08-1.27,3.81-3.1,6.19-5.11C447,949.51,449.8,956.76,455.78,963.1Zm-17.45-41.87a32.1,32.1,0,0,1-11.41-21,33,33,0,0,1-16.76,2.36c-2.21-.29-4.37-1-7.17-1.59,1.28-2,2.25-3.54,3.31-5s2.25-3,3.25-4.33l12.4,1.55c1.76,2,3.27,4.69,5.57,6.07s5.21,1.25,8.17,1.85c1,1.47,2.06,3.33,3.37,5s2.83,3.19,4.15,4.65C441.64,914.11,440.12,917.4,438.33,921.23ZM425.87,976l-12.67,3.08c-.38-2.7-1.1-4.92-.91-7.06.36-4.24,1.2-8.43,1.9-12.63a2.89,2.89,0,0,1,2.61-2.49c2.31-.48,4.58-1.18,7.36-1.92A36.63,36.63,0,0,0,425.87,976Zm-15.36-45.23c.93-1.37,2.48-1.59,4.38-1.55-.31,3.19-.6,6.22-.94,9.81l-8.49,1-.45-.71C406.84,936.52,408.6,933.61,410.51,930.81Zm-6.64,7.94c-2.41-2.26-2.93-5-4.05-8l8-5.67a5.54,5.54,0,0,1,0,6.27C406.41,933.64,405.26,936.11,403.87,938.75Zm11.68-.21c.3-3.46.5-6.3.83-9.12a3,3,0,0,1,.95-1.79c2.55-2.25,5.18-4.42,7.73-6.57l3.28,11.15C425,935.12,420.71,937,415.55,938.54Zm12.88-26.84,8.49,10.86a17.29,17.29,0,0,1-7.26,8.07C427,924.48,425.17,918.42,428.43,911.7Zm-12.23-7c-4.15,5.91-10.13,7.78-17.23,8.25.07-4,1.74-7.07,3-10.26Zm-6.45,7.57c-.57,3.2-1.1,6.33-1.7,9.44a3.18,3.18,0,0,1-.81,1.87c-2.41,1.86-4.91,3.59-7.69,5.58a32.41,32.41,0,0,1-1.08-14.2Zm-5.9,46.5,9.07-.8a46.08,46.08,0,0,0-1.26,21.51l-17.38,3C397.42,974.13,400.65,966.53,403.85,958.73Zm28.45,19c1.35,6.32.14,12.16-4.41,17-5.26,5.56-11.82,7.41-19.25,5.23a18.25,18.25,0,0,1-12.41-14.34Zm-2-3.11c-.87.3-1.8.45-2.93.71-2.78-5.71-2.94-11.53-2.17-17.51.34-2.6,1.37-4.34,4-5.21a48.69,48.69,0,0,0,6.49-3.23,40.38,40.38,0,0,0,4.37,21.84C436.59,972.44,433.47,973.54,430.32,974.6Zm34-13.67c4.69,4.41,5.05,13,2.44,18.14-3.1,6.09-9.59,9.75-15.69,9.31a16.74,16.74,0,0,1-15.2-12.44C446,972.18,455.7,967.52,464.3,960.93Zm3.62-2.59c2.65-2.68,5.4-5.27,7.92-8.07s4.67-5.7,7-8.6l16.78,10.58C494.16,965,475.35,966,467.92,958.34ZM245,520.66c.17,3.19.63,6.38,1,9.88a6.38,6.38,0,0,1-2,.82,78.82,78.82,0,0,0-18.49,3.79c-.54.17-1.11.23-1.67.35-3-12.24,9.08-26,21.12-24.35C245,514.32,244.87,517.49,245,520.66Zm61.64-164.85c3.49-12,20.08-17.34,30.45-10.51l-9.19,17.47Zm20.75,10.67c-.42,3.17-.74,6.22-1.27,9.23a3,3,0,0,1-1.46,1.79,40.64,40.64,0,0,1-4.48,1.77c.32-5.37.61-10.17.94-15.65ZM299.83,435l-10.53,8.22-10.16-4.8c5.51-6.63,12.25-10.13,20.63-11.46-.52-2-.92-3.56-1.35-5.11-1.71-6.17-1.15-12.2,1-18.8l9.25,6.41c-.57,4.3-1.13,8.52-1.75,13.16C301.51,424.86,299,429.26,299.83,435Zm-79.56-39.77c6.39,2.57,12.75,5.22,19.16,7.72,1.81.71,2.65,1.71,2.57,3.69s.14,4,.25,6.42a44.81,44.81,0,0,0-21.38-1.36c-1-5.57-1.89-11-2.9-16.88A13.17,13.17,0,0,1,220.27,395.27Zm-2.51-3.95c-.65-3.57-1-7.2-1.54-11.33,1.44.67,2.3,1,3.1,1.47,6.74,3.82,13.42,7.74,20.22,11.45,2.06,1.12,3.13,2.33,2.59,4.75a32.74,32.74,0,0,0-.38,4.11,8.29,8.29,0,0,1-2.12-.23c-6.63-2.66-13.26-5.33-19.84-8.12A3.63,3.63,0,0,1,217.76,391.32Zm5.84,21.5a38.82,38.82,0,0,1,16.93,1.3,3.75,3.75,0,0,1,2.94,3.12c.41,2.17,1.06,4.3,1.75,7a36.59,36.59,0,0,0-20.61,1.54,50.53,50.53,0,0,1-3.13-12.27A12.36,12.36,0,0,1,223.6,412.82Zm21,13a3.76,3.76,0,0,1,2.11,1.67c1.41,2.58,2.63,5.27,4.17,8.43a39.22,39.22,0,0,0-21.82,4.31c-1.56-4.57-2.93-8.57-4.34-12.71A29.18,29.18,0,0,1,244.61,425.86Zm-13-54,15.78-6a41,41,0,0,0,11.87,18c-2.65,1.3-4.83,2.46-7.1,3.4a2.67,2.67,0,0,1-2.26-.32c-6.12-4.72-12.18-9.53-18.24-14.33C231.58,372.64,231.62,372.46,231.59,371.88Zm61.51-1.55c.52,3.82,2,7.5,3.09,11.41-3.33-.49-6.73-.94-10.1-1.54-.59-.1-1.14-.8-1.57-1.34-3.32-4.16-7.15-12.23-6.62-19.93a64.8,64.8,0,0,1,15.08-.79C293,362.52,292.57,366.49,293.1,370.33Zm4.61,31.94c-.75,4.86-1.44,9.3-2.14,13.88-6-4-7.64-10.07-8.21-17.13A25.39,25.39,0,0,1,297.71,402.27Zm-12.35-3.74q1.36,5.88,2.65,11.3c-3.25-.56-6.28-1.06-9.3-1.63a3.22,3.22,0,0,1-1.88-.77c-1.86-2.42-3.59-4.95-5.58-7.74C276.19,398,280.74,398.09,285.36,398.53Zm-14.65,17.9a4.31,4.31,0,0,1,2.28,1.45c2.15,2.35,4.18,4.8,6.31,7.26l-11.24,3.33a32.9,32.9,0,0,1-6.12-12.71C265.11,416,267.93,416.08,270.71,416.43Zm-9.45-2.36c-.39-3-.74-5.64-1.08-8.3l.81-.55c2.88,1.81,5.88,3.47,8.59,5.51,1,.72,1.22,2.38,2.11,4.26Zm13.94-6.21a5.13,5.13,0,0,1-5.95.24c-2.44-1.43-5-2.7-7.47-4,0-.28-.1-.57-.16-.85l7.89-3.4Zm-13-24.78a2.56,2.56,0,0,1-2-.4,34.38,34.38,0,0,1-11.38-17.23l12.39-3.55a34.64,34.64,0,0,0,9.22,18.88C267.44,381.65,264.86,382.44,262.24,383.08ZM241,437.78c1.17-.2,2.37-.17,3.56-.3,4.78-.54,8.91.23,11.4,5a21.31,21.31,0,0,0,3,3.54,3.69,3.69,0,0,1,.14.79,32.36,32.36,0,0,0-21.9,9,89.42,89.42,0,0,1-7.28-14A27,27,0,0,1,241,437.78Zm18.87,10.65c3.55.14,5.71,3,9.06,5.35-9,3-16.6,7.22-22.94,14.15l-8.14-10.56C244.33,451.08,251.5,448.09,259.88,448.43Zm9,7.44c1.06,3.54-.71,7-.05,10.62-2.49,1.66-4.84,3.25-7.22,4.81s-4.57,3-7.15,4.67l-7.28-6.8C252.28,462.8,261.37,457.25,268.87,455.87Zm.11,12.32c.25,2.51.44,4.35.64,6.3l-8.14,6.44-5.79-4Zm0-37.94c6.73-3.42,12.91-4.73,19.69-1.76l-11.44,8.92Zm41-70.2c2.95.92,5.65,1.72,8.33,2.6,1.5.5,1.27,1.83,1.2,3-.28,4.73-.58,9.47-.88,14.38l-9.31,6A44.7,44.7,0,0,1,310,360.05Zm-2.11-.48c-.6,4.95-1.44,9.19-1.53,13.45s.55,8.5.91,13.29c-3.87-1.56-7.76-2.35-9.79-6.47a30.85,30.85,0,0,1-2.8-19.48,16.59,16.59,0,0,1,.86-2.4C299.69,358.51,303.77,359,307.9,359.57Zm-5.64-4.14c-10.83-.7-21.52-.59-32,1.39-2.05-6,.2-13.11,5.27-17.29a16.64,16.64,0,0,1,26.75,15.9ZM276,359c.66,7.67,2.72,14.62,7.56,21.11-3.82.18-7,.38-10.13.43a3.33,3.33,0,0,1-1.87-.87c-4.2-3.4-8.2-11.92-8.35-18.23Zm-45.27,9.44a18.2,18.2,0,0,1,2.86-17.54c4.73-6.17,11.33-8.24,18.77-6.63,7,1.52,11.5,6.15,13.84,12.83Zm-.17,5.57c6.27,4.75,12.46,9.59,19.05,14.7l-6.4,4.54L217.23,378c4-1.74,7.31-3.27,10.7-4.56A3.16,3.16,0,0,1,230.51,374Zm-17.68,2.62c.59,5.38,1.13,10.32,1.69,15.37-2.22.95-4.28.43-6.35-.06-11.38-2.69-18.28-13.18-16-24.51a8,8,0,0,1,2.17-3.93c9.53-9.15,26.5-6.2,32.42,5.56a5.33,5.33,0,0,1,.22,1.33Zm1.87,19.82,7.84,35.95c-11.63,2.38-21.76-4.82-23-17C198.57,406.66,206.4,396.92,214.7,396.42Zm9.57,39.39c3.71,10.15,8.42,19.84,14.94,28.44-3.05,4.38-12.32,5.1-17,3.05A16.81,16.81,0,0,1,212,451.2C212.28,444.21,216.91,438.28,224.27,435.81Zm17.62,32.13c2.7,2.67,5.3,5.44,8.12,8s5.89,4.82,8.62,7l-10.7,16.87C235.76,493.81,234,476.25,241.89,467.94Zm63.4,308.8c1.6.78,2.08,1.87,2.16,3.64.18,3.41.74,6.81,1.17,10.45l-9.06,6.46c-3.21-8.15-2.55-15.74.27-23.75-8.26-1.53-15.15-4.87-20.7-11.6l10.11-4.79,10.47,8.14c0,.34,0,.92,0,1.51C299.62,771.21,301.16,774.74,305.29,776.74Zm4,37.62c3.28,2.08,6,3.77,8.66,5.56a2.14,2.14,0,0,1,.75,1.5c.35,5.22.63,10.44.94,16l-9.64,3C307.13,831.74,307.09,823.42,309.31,814.36Zm-15.82,27.81a16,16,0,0,1-2.6.32c-4.25-.2-8.5-.46-13.18-.72.09-1.57.11-2.82.24-4.06A31.82,31.82,0,0,1,284.22,822a4.68,4.68,0,0,1,2.44-1.83c3.2-.69,6.47-1.11,10.32-1.72C292.62,826.17,292,834,293.49,842.17Zm-51.64-47.32a3,3,0,0,1-1.51,2.08c-7.19,3-14.45,6-22.39,9.19,1-6.08,1.88-11.5,2.81-17.13,3.85.15,7.38.55,10.87.34s6.76-1.06,10.61-1.7C242.13,790.14,242.14,792.51,241.85,794.85Zm.29,10a2.35,2.35,0,0,1-1.08,1.65c-8,4.63-16.06,9.19-24.88,14.21.54-4.39,1-7.8,1.38-11.21a2.91,2.91,0,0,1,2.08-2.57c7.17-2.88,14.32-5.8,22-8.93C241.86,800.53,242.11,802.71,242.14,804.89Zm-.63-19c-6.52,2.22-13.12,3.07-20.28,1,1-4.14,2-8.13,3.05-12.5a35.64,35.64,0,0,0,21,1.64c-.82,3.07-1.48,5.79-2.3,8.46A2.61,2.61,0,0,1,241.51,785.86Zm3.72-11.46c-4.1,1.45-15.21,1.88-20.39-1.9,1.32-3.87,2.69-7.86,4.2-12.28a38.92,38.92,0,0,0,21.88,4.09c-1.69,3.45-3.1,6.38-4.58,9.29A2.1,2.1,0,0,1,245.23,774.4Zm25.53,9.47c-2.69.39-5.41.54-8.13.77-.13-3.61,2-8.33,5.6-12.7l11,3.35c-2.17,2.52-4.13,4.89-6.21,7.16A4.23,4.23,0,0,1,270.76,783.87Zm-1.16,5.84c-2.79,2-5.74,3.68-8.94,5.71a17.3,17.3,0,0,1,.66-8.11c.16-.59,1.44-1.12,2.26-1.24,2.36-.31,4.74-.4,7.41-.61C271.18,787.1,271,788.73,269.6,789.71Zm-.8-43.35c-4.23,4-7.89,6.65-13.51,5.54-6.52-1.29-12.23-3.75-16.94-8.36,1.24-3.19,4.25-7.28,7.85-10.65A49.84,49.84,0,0,0,268.8,746.36Zm-21.56-15.18,7.27-6.72c4.51,3,8.77,5.75,13,8.58.46.31,1.05.84,1.09,1.3.28,3.28.43,6.56.65,10.09C262.07,743.64,251.84,737.4,247.24,731.18Zm12.19,22.5c-2.48,3.06-4.34,5.52-6.4,7.81a4.56,4.56,0,0,1-2.74,1.37c-6.89.62-13.52-.32-19.66-3.7-.19-.1-.29-.36-.74-1L237,744.47A34.18,34.18,0,0,0,259.43,753.68Zm-.12,62.8a40.52,40.52,0,0,0-12,18l-16.68-6.23,20.24-15.74Zm-9.78,16.33a36.8,36.8,0,0,1,9.75-14.33,3.43,3.43,0,0,1,3.84-1c2.2.78,4.49,1.31,7.34,2.12a35.68,35.68,0,0,0-9.21,18.9l-12-3.46A12.11,12.11,0,0,1,249.53,832.81Zm19.92-32.2-7.81-3.34c3.76-3.93,9.44-6.08,13.53-4.93-.94,1.44-1.78,2.78-2.68,4.08S270.69,798.91,269.45,800.61Zm7.27-7.48a2.66,2.66,0,0,1,1.54-.73c3.23-.66,6.48-1.25,9.84-1.89-.88,3.59-1.76,7.15-2.77,11.26-4.36,1.19-8.93.32-14.2-.88C273.16,798,274.9,795.55,276.72,793.13ZM287.3,802c.57-7.48,2.18-13.53,8.24-17.78.72,4.64,1.43,9.1,2.22,14.12Zm1.31-30.21c-6.94,2.73-11.66,2.44-19.12-1.47a28.61,28.61,0,0,1,7.9-7.22Zm-19.54-40.29c-2.77-.85-9.78-5.31-13-8.28l5.31-3.78,8.25,6.41C269.45,727.77,269.26,729.62,269.07,731.53ZM246.29,550.22l-5.17,9.92a46.72,46.72,0,0,1-12.44-22.82l9.93-2.33C241.23,540.2,243.74,545.18,246.29,550.22Zm-6-15.45,6.88-.5c1.23,2.93,2.42,5.52,3.37,8.2a3.51,3.51,0,0,1-.31,2.59,33.54,33.54,0,0,1-3,3.86Zm-5.51,56.61c-3.12,1.12-6.22,2.27-9.36,3.3a3.58,3.58,0,0,1-2.31,0c-2.63-1.1-5.18-2.36-8.27-3.78a35.54,35.54,0,0,1,11.82-8Zm-6.25-9.1c3.81-1.53,7.19-2.38,10.74-2,1.8,4.35,3.54,8.58,5.32,12.89C237.3,592.71,232.77,588.2,228.5,582.28Zm-9.28,19.06c1.17.11,2.22,1.51,3.84,2.7l-9.49,4.47-5.24-7.28C212.45,601.23,215.86,601,219.22,601.34Zm-10.53-1.7c.77-2.89,2.59-4.77,4.29-6.67a2.1,2.1,0,0,1,1.92-.34c2.62,1.07,5.17,2.31,7.77,3.5a5.72,5.72,0,0,1-5.52,3.13C214.43,599.22,211.7,599.49,208.69,599.64Zm10.1-33.17a3.69,3.69,0,0,1-2.41-.07,33.87,33.87,0,0,1-16.33-14.19L213,543.8c2.13,3.76,3.73,7.5,6.14,10.63s5.66,5.69,8.59,8.55C224.89,564.1,221.87,565.36,218.79,566.47Zm-3.16,1.33c-2.93,2-5.56,3.8-8.23,5.54a2.68,2.68,0,0,1-1.68.31c-5.28-.59-13.93-6.62-16.74-11.83l9.89-8.57A38.25,38.25,0,0,0,215.63,567.8Zm-10.79,7.34c-2.18,2.18-4.16,4.29-6.31,6.22a3.13,3.13,0,0,1-2.37.27,35.4,35.4,0,0,1-17.57-9l8.69-9.22C196.33,571.6,196.33,571.6,204.84,575.14Zm-8.12,8.21L191.56,591l-25.41-3.52,11.37-13.76A40.92,40.92,0,0,0,196.72,583.35ZM166.78,589c7.53,1,15.06,2.07,22.58,3.15.32,0,.61.33,1.19.66-1,2.13-2,4.25-2.92,6.26H157.49c2.69-3.57,4.82-6.51,7.1-9.33A2.77,2.77,0,0,1,166.78,589Zm20.77,12.17,3.12,6.7c-1.1.25-1.95.51-2.83.63-6.72.93-13.45,1.79-20.15,2.78a3.56,3.56,0,0,1-4-1.56c-1.87-2.7-3.9-5.29-6.33-8.55Zm-3.09,9.26a52.93,52.93,0,0,1,5.3-.67,3.43,3.43,0,0,1,2.49.79c1.52,1.93,2.78,4,4.44,6.54a40.47,40.47,0,0,0-18.57,9.08c-2.56-1.4-9.12-9.07-11.29-13.3Zm11.91,8.3a2.67,2.67,0,0,1,2.86.79c1.67,1.86,3.43,3.63,5.27,5.57-3,1.6-6.3,2.95-9.15,4.9s-5.23,4.43-8.06,6.88a81.38,81.38,0,0,1-8.6-9.22A36.3,36.3,0,0,1,196.37,618.75Zm-1.54,13.31a62.31,62.31,0,0,1,5.5-3.33c3.72-2.17,7.26-2.65,10.68.75,1.15,1.15,2.77,1.82,4.75,3.07a37.59,37.59,0,0,0-16.86,14.66c-3.55-3.08-6.76-5.88-10.08-8.75A18.93,18.93,0,0,1,194.83,632.06Zm14.26,6.09c1.53-1.12,3.22-2,4.85-3,2.25-1.36,4.42-1.85,7-.38,2,1.17,4.43,1.7,6.88,2.59-3,2.92-6.13,5.37-8.49,8.41s-4,6.7-6,10.2c-2.56-.45-9-4.39-12.93-8.13A29.89,29.89,0,0,1,209.09,638.15Zm17.56-20.63a34.83,34.83,0,0,1-11.55-7.71c2.77-2,5.76-3.07,8.64-4.28.53-.22,1.36.14,2,.35,3,1,6,2,9.06,3.08Zm17.9-10.27-5.33,13c-3.48.32-6.93-.67-10.77-2.11C232.65,612.3,237.2,607.75,244.55,607.25Zm2.72,44.27c1.56,2,2.71,3.49,3.83,5-1.3,3.25-2.54,6.33-4,9.91l-6.66-.78C242.51,660.66,244.91,656.4,247.27,651.52Zm-8.58,13.83-9.95-2.2a45.62,45.62,0,0,1,12.42-22.85c1.81,3.49,3.44,6.61,5.14,9.88Zm2.62-44.77a32.62,32.62,0,0,1,11.86-20c-2.67-3.25-5.33-6.1-7.53-9.28a24.77,24.77,0,0,1-4.24-11.46l11,.86,5,12.34c-3.46,4.5-3.82,9.58.07,14.28l-5.12,12.43Zm-14.55-82.69c1.8,4.29,3.2,8.45,5.26,12.24s4.8,7.25,7.42,11.13c-4.77,1.09-9,1.78-13.21-1.6a31.3,31.3,0,0,1-11.12-16.89Zm-21.34,7.2c-4.49,2.85-8.7,6.15-13,9.24-5-4-5.63-13.05-3.65-17.87a17.22,17.22,0,0,1,15.42-10.32c6.74,0,12.79,4.1,15.64,10.79C214.88,539.7,210,542.18,205.42,545.09Zm-16.18,11.65-24.91,27.38a18.37,18.37,0,0,1-1.5-26.67C171.09,548.55,184.22,550.87,189.24,556.74Zm-27.07,30.78-9.26,12.62,9.37,12.76a19.38,19.38,0,0,1-14.6,3.71c-8.35-1.16-14.15-5.83-17.19-13.79a7.23,7.23,0,0,1-.05-5.2C134.9,584.62,151,579.25,162.17,587.52Zm2,28.5,25.16,27.71c-4.89,4.33-10.7,6.08-17.23,4.49a17.74,17.74,0,0,1-13.74-13.62C156.53,627.32,159.16,621.34,164.18,616Zm28.34,29.78c8.31,6.87,17.23,12.93,27.21,17.15-1.4,5.59-7.26,10.37-13.31,11.09a17.25,17.25,0,0,1-17-8.8C186.52,659.82,187.31,650.57,192.52,645.8ZM215,657.45c2.4-8.33,7-14.68,14.46-18.5,3.08-1.57,6.63-.8,10.5.36a49.79,49.79,0,0,0-12.64,23C222.72,661.32,219,659.42,215,657.45Zm8.92,7.41c3.88,1,7.52,2.07,11.23,2.84s7.25,1.17,10.56,1.68c-.28,6.89-.54,13.49-.8,20.1C231,689.81,221.31,676.09,223.92,664.86Zm24,35.59,10.48,16.71-16.65,14.92C234.42,725.06,235,707,247.92,700.45Zm-8.81,35.12c-2.89,4.86-5.83,9.36-8.3,14.1s-4.48,9.69-6.67,14.53c-5.76-1.18-11-6.89-12-12.89A16.88,16.88,0,0,1,220.34,734C226.18,730.55,234.85,731.41,239.11,735.57Zm-16.6,32.48c-2.63,12.15-5.22,24.08-7.81,36-10.25-1.61-16.93-11.63-14.65-22.14C202.22,771.92,212.7,765.36,222.51,768.05Zm-9.86,40a16.76,16.76,0,0,1,1.86.35c-.57,5.24-1.11,10.18-1.67,15.4L227.13,830a14.83,14.83,0,0,1-.94,2.33A21.1,21.1,0,0,1,198,839.6c-4.3-2.4-6.45-5.82-6.31-10.71C192,815.08,203.25,807.69,212.65,808ZM218,822.74c1.85-2.11,21-13.55,25.47-15.3,1.83,1.27,3.75,2.62,6.09,4.27l-20.43,15.86ZM230.88,832l35.29,11.25c-2.12,6-6.06,10.45-12.36,12.43-7.38,2.3-13.89.45-19.32-5C230.27,846.42,228.09,837.41,230.88,832Zm31.8,6.93c.63-2.54,1-4.73,1.73-6.82a28,28,0,0,1,6.68-10.87,4.32,4.32,0,0,1,2.65-1.41c2.95,0,5.9.45,9.38.76-4.05,6.27-6.73,12.78-6.94,20.93Zm7.28,4.56c10.65,1.76,21.38,2.72,32.11,1.24C303.73,850.12,301,857.2,296,861a17.12,17.12,0,0,1-18.82,1C271.14,858.24,268.29,851.1,270,843.49Zm25.73-1.11c-1.66-2.83-1.51-5.64-1.52-8.29a30.79,30.79,0,0,1,3.25-13.39c2-4.22,5.91-4.92,10.23-6.81-1.78,9.32-1.91,17.78.76,26.9ZM328,837.55l9.09,17.39c-9.63,7-26.32,1.89-30.51-10.33Zm-7.82-16.48a44.7,44.7,0,0,1,4.69,1.92,3,3,0,0,1,1.34,1.85c.51,2.91.83,5.84,1.26,9.06l-6.26,2.88C320.82,831.35,320.5,826.48,320.15,821.07ZM423.83,245.24c-2.61-.65-5.16-1.2-7.64-2a3,3,0,0,1-1.71-1.61c-2.27-6.52-3.11-13.15-1.08-20.33l12,3c-.71,3.77-1.66,7.13-1.91,10.53A91.83,91.83,0,0,0,423.83,245.24Zm1.21,34c-2.62-2.18-5.33-4.39-8-6.68a2.61,2.61,0,0,1-.69-1.57c-.29-2.82-.51-5.65-.8-9.09a34.35,34.35,0,0,1,12.8,6.25C427.2,272.1,426.12,275.7,425,279.28Zm4.74-9.73a26.34,26.34,0,0,1,7.37,8l-8.76,11.25C425.25,282.1,426.88,276,429.78,269.55Zm-14.84,1.92c-6.35-1.15-6.68-6.78-10.08-10.43a16.14,16.14,0,0,1,9.06.61C414.24,264.76,414.57,267.9,414.94,271.47Zm-6.49-.91c.52,1.23.08,2.87.08,4.33l-1,.25L400,269.83a19.66,19.66,0,0,1,3.82-8.32C405.46,264.71,407.17,267.54,408.45,270.56Zm-1.2,6.29a2.61,2.61,0,0,1,.77,1.53c.61,3.23,1.16,6.49,1.74,9.81l-11.26-2.73a33.36,33.36,0,0,1,1-14.22C402.3,273.25,404.81,275,407.25,276.85Zm9.08,18.91-14.07,2a24.71,24.71,0,0,1-3.39-9.82C404.5,287,410.79,289.78,416.33,295.76ZM426.72,300c1.55-8.41,5-15.26,11.64-20.8,1.72,3.63,3.3,7,4.8,10.16L435,299.83c-8,.31-8,.31-12.61,7.17l-12.95,1.89L403,299.7C411.09,296.56,418.72,297.12,426.72,300Zm12.13-46.82a4.23,4.23,0,0,1-1.28-2.39c-1.05-7.29.34-14.13,4.07-21.07l14.28,7.34a33,33,0,0,0-9.24,22.48C443.62,257.1,441.17,255.23,438.85,253.21Zm9.42,3.94c.83-7.26,3.41-13.51,8.49-18.67,3.23,1.2,7.52,4.37,10.67,7.91a49.74,49.74,0,0,0-13.56,22.47C450.7,265.16,447.68,262.3,448.27,257.15Zm20.6-10.09,7,7.53-9.4,14.25-10.94.53C457.71,260.34,462.26,253.36,468.87,247.06Zm7.89,8.79c1.61,2.23,2.83,3.94,4.08,5.68-2.2,2.82-4.24,5.44-6.45,8.26l-6.28-.8C471,264.58,473.68,260.54,476.76,255.85Zm-8.43-13.91c6.49-7.69,25-6.74,31.47,6.05l-16.68,10.53Zm-3.69-2.76c-4.76-2.84-9.23-5.78-13.95-8.24s-9.7-4.46-14.59-6.67c.65-5.22,6.3-10.7,12.47-12A17,17,0,0,1,466.05,220,16.66,16.66,0,0,1,464.64,239.18ZM439.7,229.07c-1.21,3.89-2.56,7.22-3.25,10.69a108.67,108.67,0,0,0-1.08,10.94c-2.84-1.35-5.62-2.62-8.33-4a2.77,2.77,0,0,1-1.23-1.64,29.93,29.93,0,0,1,1.67-20.27Zm-7.49-6.17c-5.94-1.48-11.85-3.11-17.83-4.41s-11.92-2.23-18.14-3.37c1.1-9.92,10.75-16.87,21.11-15.18C428,201.67,434.72,211.77,432.21,222.9Zm-20.67-1.51c-1,6.87-1,13.84,1.53,21.06l-9.18-.58c-3.05-7.5-6.17-15.16-9.32-22.88C397.6,218.36,406.44,219.64,411.54,221.39Zm-9.28,20.36-7.79.7c-4.82-8.47-9.68-17-14.91-26.16l13,1.61Zm-37.21,77.82c-.8,0-2.12-.43-2.35-1-1.08-2.71-2.37-5.43-2.25-8.7a46.89,46.89,0,0,1,25.49-.45l-6,9.34C375,319,370.05,319.38,365.05,319.57Zm14,.7c-.45,1.29-.83,2.24-1.1,3.22a3.89,3.89,0,0,1-4.1,3.13c-2.35.08-4.69.53-7.51.88-.89-2-1.69-3.82-2.76-6.22Zm.31-48.75a3.8,3.8,0,0,1,1,2.49c0,2.84-.31,5.67-.52,8.91-3.68-1.72-6.79-3.51-10.12-4.65s-6.9-1.62-10.85-2.5L361.37,263A29.76,29.76,0,0,1,379.39,271.52Zm-17.57-10.36L365.38,249a36.3,36.3,0,0,1,17,11.13,2.72,2.72,0,0,1,.43,3c-.73,2.27-1.28,4.59-2,7.27-2-1.43-3.84-2.89-5.82-4.06a40.33,40.33,0,0,0-6.1-2.95C366.7,262.46,364.39,261.92,361.82,261.16Zm7,18.29a51.09,51.09,0,0,1,6.21,2.73c3.37,1.64,5.91,3.78,5.69,8.12-.1,1.95.71,3.95,1.15,6.12-4-1.16-7.71-2.7-11.58-3.24s-8-.12-12.36-.12c-.4-4.84.33-9.86.71-14.91C362.44,277.48,365.66,278.42,368.81,279.45Zm-10.27,15.81c8.17-2,16-1.06,23.13,3.61,2.78,1.83,3.17,5.4,4.26,8.51a58,58,0,0,0-25.7.89A25.57,25.57,0,0,1,358.54,295.26ZM384,259.05a103.89,103.89,0,0,0-8.29-6.72c-3-2-6.24-3.38-9.74-5.23l6.07-16.3L387.77,251C386.51,253.7,385.31,256.27,384,259.05Zm2.85-11.63c-4.18-5.36-8.29-10.78-12.55-16.07a3.74,3.74,0,0,1-.55-4.53c1.4-2.87,2.56-5.86,4.13-9.54l15.19,25.93c-1.41,2-2.8,4-4.32,6.27C388,248.62,387.37,248.06,386.87,247.42Zm5.52-34.14a7.39,7.39,0,0,1-.34,1.35l-15.49-1.71-6.51,14.59c-5.9-3.14-9.73-7.62-11.38-13.81-1.88-7.08-.21-13.42,4.44-19.06a7.14,7.14,0,0,1,4.2-2.48C380.21,189.39,392.91,200.08,392.39,213.28Zm-24,17.27L357,266.24c-6.48-2.33-11.13-6.66-12.71-13.53-1.72-7.43.22-14.05,6.29-19C355.87,229.45,362,229,368.37,230.55Zm-11.86,39.07c-.49,5.59-1.15,11-1.39,16.39s-.05,10.91-.05,16.83c-7.38.15-13.3-2.15-16.88-8.48-3.38-6-3.34-12.23.69-17.92C343.08,270.52,349.16,268.77,356.51,269.62Zm-.57,37c1,3.62,1.87,7.28,3.05,10.84s2.7,7.11,4.11,10.76c-3.1,1.39-6.19,2.59-9.11,4.12s-5.51,3.3-8.26,5C337.64,329.08,343.53,310.78,355.94,306.61ZM444.45,165.5l8.84-7.07A87.86,87.86,0,0,1,467,174.49l-5.8,4.49Zm12.36,11.86c-2.8.54-4.68-.55-6.64-.91s-4.17-.95-6.26-1.42l-7.12-1.53c2.3-2.44,4.07-4.3,6.09-6.45A59.19,59.19,0,0,1,456.81,177.36Zm34.09-22.5c.31,3.32.8,6.62,1.26,10.3l-7.58,1.45c-1.76-6.76-3.46-13.3-5.35-20.58l11.38-1.79C491.07,148.05,490.59,151.49,490.9,154.86ZM483.4,167l-7.07,2.42c-3.07-6.24-6.06-12.3-9.27-18.81l10.54-4.15Zm-8.88,3.22-5.88,3.27-13.76-16.16,10.26-5.9A70.19,70.19,0,0,1,474.52,170.18ZM507.14,169l-2.65,3.33c-1.56,2-3.15,3.9-4.65,5.9a2.71,2.71,0,0,1-3.06,1.26c-7-1.67-12.92.45-18.14,5.09a7.83,7.83,0,0,1-1,.62l-12.28-4.72C472.49,171.75,492.49,165.66,507.14,169Zm2.61-3-7.14-.94a75,75,0,0,1,3.75-20.81l11.19,1.66Zm9.91-19.43L528.1,149,513.56,162.5l-.69-.43A57.36,57.36,0,0,1,519.66,146.56Zm-19.07,18.08h-6.71a58.83,58.83,0,0,1-1.24-20.47h11.7C503.08,151,501.86,157.68,500.59,164.64Zm34.35,74.16c.72-3.24,1.41-6.32,2.21-9.88,9,1.79,16.15,6,22.88,12.32l-9.88,5.2Zm13.88,8.57-5,3.85-9.87-4c.26-2.23.5-4.2.79-6.67C539.63,242.54,543.94,245,548.82,247.37Zm-11.17-20.06c1.71-4.15,3.27-7.94,4.9-11.93a22.59,22.59,0,0,1,3,.62,29.54,29.54,0,0,1,15.22,12.37,6.53,6.53,0,0,1,1.16,5.37c-.49,1.88.31,4-1.26,6.13A50.17,50.17,0,0,0,537.65,227.31Zm16.79-7.95c-3-2.38-6.7-4-10.72-6.26L552,200.33a24.73,24.73,0,0,1,8.8,7.16c1.42,1.75,2.6,3.69,3.85,5.57,1.83,2.73,2.5,5.44.65,8.59-1.12,1.9-1.59,4.19-2.34,6.29C560.09,225,557.57,221.79,554.44,219.36Zm-1.16-20.23A81,81,0,0,1,562,189a22.42,22.42,0,0,1,7.27,7.33c.93,1.37,1.64,2.89,2.45,4.34,2,3.59,2.53,7-.75,10.29-1.22,1.22-2,2.93-3.22,4.87A37.38,37.38,0,0,0,553.28,199.13Zm17.13-3.45c-1.92-2.82-4.4-5.27-6.92-8.22a92.54,92.54,0,0,1,9-8.73,37.62,37.62,0,0,1,8.59,15.34c.89,2.84.63,5-1.9,6.81a42.62,42.62,0,0,0-4,3.71A88.21,88.21,0,0,0,570.41,195.68Zm20.92,39.18-8.54-8.05A34.2,34.2,0,0,1,590.73,215c1.57,3.36,3,6.32,4.22,9C593.69,227.72,592.55,231.2,591.33,234.86Zm1.77,10c-2.27-1.06-4.29-2.1-6.38-2.95s-4.42-1.56-7.11-2.49c.67-3.48,1.33-6.9,2.07-10.68C588.3,232.25,591.59,237,593.1,244.85Zm-1.34-31.14,7.22-5.22c0,4,.17,7.54-.11,11-.08,1.09-1.37,2.08-2.54,3.72C594.72,219.88,593.37,217.07,591.76,213.71Zm4.39-24.62a32.23,32.23,0,0,0-3.91,1.63c-.48-3.42-.91-6.44-1.34-9.46-.62-4.47-1.21-8.95-1.89-13.41a3.82,3.82,0,0,1,1.8-4.23c2.57-1.7,5-3.64,7.87-5.78a27.13,27.13,0,0,1,.38,2.95c.09,7.86,0,15.72.25,23.57C599.38,186.9,598.66,188.42,596.15,189.09Zm-5.31,2.5-7.28,5.12c-1.32-3.5-2.33-6.93-3.89-10.08s-3.61-5.86-5.74-9.24l13.41-11.11C588.57,175.19,589.69,183.26,590.84,191.59Zm9.27,62.12a32.84,32.84,0,0,1,20.41-12.34c-.34,4-.65,7.58-.95,11.17l-12.35,5.09c-4.66-3.68-9.73-3.66-14.35,0l-12.3-5.08-1-11.14C588.16,242.92,594.63,247.09,600.11,253.71Zm1-95.43c2.11.3,3.3,1.67,4.62,2.7,6.79,5.28,5.93,2.66,4.81,11.23-.78,6-1.62,12-2.51,18.58-2.3-1-4-1.77-5.74-2.49-1.44-.59-1.3-1.84-1.3-3,0-5.59.08-11.18.11-16.77C601.11,165.18,601.1,161.86,601.1,158.28Zm0,50.64c2.84.88,4.91,2.9,7.15,5.06-1.38,2.92-2.73,5.77-4.12,8.73-2.17-1.36-3.18-2.83-3.06-5.13C601.23,214.76,601.11,211.93,601.11,208.92Zm8.29,6a35.55,35.55,0,0,1,8,11.89l-8.57,8.09c-1.13-3.47-2.26-6.92-3.57-10.93ZM618,228.6a26.25,26.25,0,0,1,2.23,10.73l-13,5.31C607.66,237.33,612.2,232.89,618,228.6Zm-1-31.69-7.6-5.26c1.11-8.13,2.21-16.24,3.46-25.39l13.76,11.31A41,41,0,0,0,617,196.91Zm2.2,2.07a3.35,3.35,0,0,1-.55-2.58,35.42,35.42,0,0,1,8.94-17.56,83.2,83.2,0,0,1,9.18,8.54,99.15,99.15,0,0,0-6.89,8.12c-1.91,2.8-3.24,6-4.94,9.22C623,202.82,621,201,619.19,199Zm7.6,6.47c1.06-5.78,6.24-13.23,11.6-16.47l8.41,9.61c-2.86,2.63-5.77,4.89-8.14,7.61s-4.24,6-6.42,9.11c-1.76-2.59-3.58-5.18-5.27-7.86A3.12,3.12,0,0,1,626.79,205.45Zm7.11,11a33.87,33.87,0,0,1,14.19-16.33l8.68,13.5c-8.39,2.68-14.65,7.34-19.2,14.83-1.46-3.67-2.75-6.79-3.91-9.95A3.16,3.16,0,0,1,633.9,216.47Zm5.86,11.24A31,31,0,0,1,654,216.22a16,16,0,0,1,2-.65,9.26,9.26,0,0,1,1.73,0c1.56,3.8,3.11,7.6,4.81,11.75a51.06,51.06,0,0,0-23.56,13C638.57,235.52,637,231.66,639.76,227.71Zm23.31,1.15c.81,3.63,1.47,6.61,2.2,9.86l-15.15,7.69-10-5.15A45.24,45.24,0,0,1,663.07,228.86ZM665,240.57a14,14,0,0,1,1,6.75l-9.57,3.89-5.09-3.82Zm0-16.82c12.46-2.21,24.69,8.3,24.41,21.29-3.26,0-6.53-.15-9.78,0s-6.58.69-9.93,1.06C668.13,238.69,666.59,231.31,665,223.75Zm-2-3.9a108.4,108.4,0,0,0-17.12-27c2.49-4.23,11.63-6.37,17.35-4.24a17.27,17.27,0,0,1,10.92,15.75C674.19,210.69,669.26,218.27,663,219.85Zm-19.49-30.62-27.31-24.81c5.06-6.64,18-10.06,26.9-1.27C650.38,170.34,650.54,182.63,643.47,189.23Zm-30.35-27.35c-.06.08-.2.1-.59.27L600.13,153l-12.7,9.27c-8.06-10.59-3.34-28.1,11.33-32a5.61,5.61,0,0,1,2.76,0C615.59,134.08,620.87,150.82,613.12,161.88Zm-29,2.52-27.3,24.8c-6.86-5.76-7.07-18.18-.26-25.43C565.23,154.5,578.2,157.28,584.07,164.4Zm-29.76,28c-3.17,4.42-6.55,8.73-9.48,13.32S539.57,215,537,219.68c-5.43-1.34-10.11-7.28-10.8-13.67a16.58,16.58,0,0,1,28.14-13.59ZM535.14,223.8l-4.58,22L511,245C509.26,235.39,520.65,221,535.14,223.8Zm285.17,95-6-9.29a45.63,45.63,0,0,1,25.52.37c-.08,3.52-1.44,6.41-2.69,9.85Zm16.33,2.42-2.81,6.27c-3.14-.36-6.07-.6-9-1.09a3.56,3.56,0,0,1-2.08-1.61,33.19,33.19,0,0,1-1.77-4.44Zm-8.55-90.38c2.21,5.8,4.17,11,6.3,16.59a40.78,40.78,0,0,0-18,12c-1.42-2.95-2.64-5.5-4-8.36ZM811.9,249c-.06.07-.22.08-.62.21-1.31-1.83-2.66-3.74-4.2-5.9l15-25.71A71,71,0,0,1,827,228.52a2.44,2.44,0,0,1-.51,1.92C821.66,236.65,816.78,242.81,811.9,249Zm8.81,34.17c-1-3.5-.75-6.68-.93-9.82a3.17,3.17,0,0,1,1-1.8c3.7-4.28,11.45-7.94,18.11-8.41l2.55,13A39.74,39.74,0,0,0,820.71,283.15Zm21-4.75c.28,4.8.57,9.84.89,15.27-8.6-1.53-16.4-1-24.14,3.41.59-4,1.05-7.44,1.63-10.86a2.63,2.63,0,0,1,1.08-1.35c5.75-4.35,12.12-7,19.43-7C840.77,277.91,841,278.09,841.67,278.4Zm-22.16-7.79c-.88-3.08-1.66-5.56-2.25-8.08a3.26,3.26,0,0,1,.46-2.27c2.93-4.53,11.42-10,17.14-10.91,1.15,3.77,2.31,7.6,3.62,11.94C831.27,262.65,824.92,265.39,819.51,270.61Zm2,26.48a30.88,30.88,0,0,1,20.41-1.78c.34,4.64-.5,8.66-1.39,13.07a55.21,55.21,0,0,0-26.69-.54C815.65,303.17,816.77,299.09,821.47,297.09Zm23,9.63c12.18,3.77,17.39,21,10.29,30.39L837.49,328C839.72,321.26,842.08,314.11,844.52,306.72Zm.7-3.88c0-5.59.2-11-.06-16.43s-.95-10.88-1.5-16.79c7.33-.81,13.43.89,17.63,6.8,4,5.67,4.12,11.92.73,17.91C858.44,300.67,852.55,303,845.22,302.84Zm-2.06-36.74c-3.73-11.66-7.46-23.31-11.25-35.19a18.31,18.31,0,0,1,23.4,10.71A18.66,18.66,0,0,1,843.16,266.1ZM831,227a4.71,4.71,0,0,1-1,.15c-2-4.56-4.08-9.2-6.28-14.14l-15.64,1.66a22.69,22.69,0,0,1-.23-3.11,21.08,21.08,0,0,1,24.65-19.44,7.24,7.24,0,0,1,4.34,2.24A21,21,0,0,1,831,227Zm-10.72-10.63c-.52,1.16-.84,2-1.28,2.79-3.93,6.94-7.94,13.83-11.78,20.82-1.08,2-2.33,2.73-4.54,2.24a38,38,0,0,0-4.76-.39c3.28-8.07,6.43-15.86,9.71-23.92Zm-95.93,38.24,6.84-7.44c6.8,6,11,13.13,13.7,22.24-3.95-.23-7.13-.36-10.3-.65a2.71,2.71,0,0,1-1.64-1.19C730.09,263.32,727.3,259.05,724.35,254.59Zm7.7,14.39-6.22.85c-2.12-2.71-4.23-5.42-6.49-8.3l4.07-5.68Zm.54-22.79a61.79,61.79,0,0,1,10.52-8c5.22,5.26,7.76,11.36,8.79,18.46.76,5.32-2.27,8.32-5.56,12.39A50.3,50.3,0,0,0,732.59,246.19Zm11.67-9.07,14.2-7.29a31.87,31.87,0,0,1,4.48,14.44c.07.82,0,1.66.06,2.49.29,3.57-.55,6.47-4,8.39-1.81,1-3.26,2.68-5.47,4.55A33,33,0,0,0,744.26,237.12Zm32.43-2.29c-.26-3.4-1.2-6.76-1.92-10.52l11.74-2.94a11.23,11.23,0,0,1,1.37,7A109.23,109.23,0,0,1,785.94,241a3.5,3.5,0,0,1-2,2.25c-2.45.85-5,1.34-7.61,2A94.16,94.16,0,0,0,776.69,234.83Zm12.8,34.93c-.73,1-2.39,1.21-4.21,2.05.32-3.67.58-6.69.86-9.81,2.72-1.6,5.58-1.44,9.17-1.18C793.22,264.1,791.55,267.08,789.49,269.76Zm6.79-7.93.89.06,3.37,7.72-8,5.67c-1.43-2.19-1.47-3.95-.29-5.91C793.7,266.93,794.94,264.35,796.28,261.83Zm-11.68.09c-.3,3.48-.52,6.42-.84,9.35a2.55,2.55,0,0,1-.84,1.49c-2.56,2.22-5.18,4.37-7.76,6.53l-3.37-11.1A35,35,0,0,1,784.6,261.92ZM771.74,289c-1.4-2-2.6-3.93-4-5.71s-3.09-3.56-5-5.79l7.34-8.43C773.43,275.84,774.83,282,771.74,289Zm-9.89-9.82a32.18,32.18,0,0,1,11.38,20.56c1.76-.38,3.23-.62,4.66-1a31.15,31.15,0,0,1,17.94.47c.31.09.55.39,1.14.84l-6.21,8.82c-3.66-.45-7.19-.84-10.71-1.37-1-.14-2.36-.46-2.7-1.13-2.63-5.17-6.79-7.14-12-6.3l-8.24-10.62C758.54,286.3,760.11,282.92,761.85,279.2Zm22.41,16.6c2.44-5.06,9.2-7.88,17-8.29a24.74,24.74,0,0,1-3.3,10.24Zm6.19-7.6c.6-3.33,1.18-6.79,1.9-10.22a3.18,3.18,0,0,1,1.25-1.62c2.19-1.63,4.44-3.16,7.17-5.08,1.32,5.07,1.78,9.61.9,14.19Zm14.46-67.55c-2.52,6.3-5.11,12.56-7.59,18.86-.7,1.76-1.62,2.7-3.67,2.58a63.94,63.94,0,0,0-6.52.32c2.38-7,2.56-13.93,1.46-21.27a109.82,109.82,0,0,1,16.75-2.76A13.16,13.16,0,0,1,804.91,220.65Zm-37.06,1.94c-1.26-6.85.14-12.88,5.14-17.67,5.55-5.31,12.31-6.75,19.5-4.12,6.48,2.37,10.11,7.46,11.77,13.94Zm4.85,2.18a29.87,29.87,0,0,1,1.63,20.31,3.31,3.31,0,0,1-1.56,1.8c-2.51,1.32-5.1,2.49-8.21,4,.13-7.62-.81-14.71-4.58-21.62Zm-36.8,14.51c-4.37-4.3-5.35-11.74-2.59-17.75A16.92,16.92,0,0,1,749.88,212a17.1,17.1,0,0,1,14.45,12.41A113.34,113.34,0,0,0,735.9,239.28ZM732,241.79l-14.93,16.73-16.49-10.41C704.39,237.9,722.06,232.64,732,241.79ZM953.9,650.18l4.82-9.35c5.19,3.15,11.32,14,12.48,22.42l-9.65,2.1C958.87,660,956.36,655.07,953.9,650.18Zm6,15.33-6.76.87-4.09-9.89,3.87-5Zm-6.82-45.3c-1.76-.11-3.51-.41-5.39-.64l-5-12.21c3.72-4.6,3.6-9.68,0-14.3,1.81-4.42,3.46-8.48,5.06-12.37l11.1-.84c-1.41,8.56-5.71,14.88-11.84,20,2.75,3.36,5.4,6.24,7.63,9.42a24.72,24.72,0,0,1,4.12,11C956.63,620.23,954.86,620.31,953.1,620.21Zm2.53-13c7.25.48,11.85,5,16.06,11-3.93,1.4-7.31,2.34-10.74,2.08Zm9.61,1.56,1.69-.53a64.09,64.09,0,0,0,6.73-2.11,4.57,4.57,0,0,1,4.35-.1c2.19,1.16,4.48,2.13,7.3,3.44a35.14,35.14,0,0,1-11.74,8Zm15.31-10c-1.07-.14-2-1.47-3.4-2.58l9.54-4.39,5.54,7.75C987.74,599.39,984.11,599.34,980.55,598.87ZM992,601.13l-5.33,7.32-9-4.09a5.31,5.31,0,0,1,5.55-3.26C985.83,601.24,988.44,601.13,992,601.13Zm-9.9,32.53a2.75,2.75,0,0,1,1.69.34,34,34,0,0,1,16.38,14.19l-12.95,8.38c-2.16-3.8-3.8-7.53-6.21-10.67s-5.48-5.55-8.46-8.47C975.61,636.2,978.83,634.87,982.09,633.66Zm2.48-1c3-2,5.48-3.81,8.07-5.42A3.78,3.78,0,0,1,995,627c5.38.88,13,6.18,16.3,11.55l-10,8.71A37.55,37.55,0,0,0,984.57,632.64Zm20.25-2.75a88.31,88.31,0,0,0-8.93-4.78l6.64-6.53a35.17,35.17,0,0,1,19.09,9.24l-8.58,9A102.29,102.29,0,0,0,1004.82,629.89Zm-1.19-12.8,5-7.53,24.34,3.32c-1,2.94-6.87,10.27-10.65,13.45A40.59,40.59,0,0,0,1003.63,617.09Zm27.79-6c-4.24-.71-8.5-1.22-12.75-1.81l-9.16-1.3,3.15-6.76h29.81c-1,1.53-1.77,2.67-2.56,3.77-.91,1.26-2,2.4-2.77,3.73C1035.79,611,1033.91,611.5,1031.42,611.08Zm7.75-11.94c-7.64.11-15.29.07-22.92.33-2.7.09-4.28-.72-5-3.31a35.65,35.65,0,0,0-1.43-3.47,16.69,16.69,0,0,1,2.43-.76c6.86-1,13.71-1.93,20.58-2.78a3.69,3.69,0,0,1,2.86.71c2.27,2.71,4.29,5.63,6.73,8.9C1040.94,598.94,1040.06,599.13,1039.17,599.14Zm-30.47-8.25-5.18-7.47a41,41,0,0,0,19.13-9.67l11.25,13.66Zm-5.1-9.28a3.4,3.4,0,0,1-2.52-.83c-1.85-1.65-3.54-3.5-5.76-5.75a34.58,34.58,0,0,0,17.29-11.77l8.88,9.3A34.83,34.83,0,0,1,1003.6,581.61Zm6.35-17.5a29.52,29.52,0,0,1-14.26,9.14,4.31,4.31,0,0,1-3,0c-2.66-1.55-5.15-3.38-8.14-5.4a39,39,0,0,0,16.8-14.55l10,8.61A15.26,15.26,0,0,1,1010,564.11ZM993,560.73c-1.44,1.24-3,2.27-4.61,3.37-3.31,2.32-6.64,3.45-10.53,1-1.66-1-3.74-1.42-5.71-2.12,10.18-9.5,10.18-9.5,14.61-19a78.44,78.44,0,0,1,13.11,8.34A25.25,25.25,0,0,1,993,560.73ZM973.49,583a33.29,33.29,0,0,1,11.64,7.66c-2.75,2-5.8,3-8.65,4.33a2,2,0,0,1-1.35-.05c-3.19-1.15-6.36-2.35-9.58-3.55Zm-17.88,10.22c1.74-4.22,3.45-8.34,5.34-12.91,3.52-.5,6.87.59,10.77,1.87C967.58,588.09,963,592.63,955.61,593.19Zm-1.93-42.58L961.57,535l9.9,2.24a46.67,46.67,0,0,1-12.07,22.54C956.44,557.21,956.35,553.09,953.68,550.61Zm-.64-1.93c-.66-.66-1-1-1.41-1.41-2.35-2.14-2.76-4.41-1-7.23a38.06,38.06,0,0,0,2.37-5.75l7,.4Zm-.77-48.88-10.52-16.61,16.76-15C966.11,476.05,964.57,493.72,952.27,499.8ZM906.7,358.18a63.39,63.39,0,0,1,15.79.82,32.81,32.81,0,0,1-7.2,20.33,2.6,2.6,0,0,1-1.43.93c-3.27.55-6.55,1-10.6,1.63C907.53,374.16,908.12,366.55,906.7,358.18Zm74.31,35c-7.23,3-14.51,6-22.48,9.21-.22-2.66-.49-4.63-.47-6.61a2.68,2.68,0,0,1,1.19-1.93c7.84-4.52,15.72-9,23.6-13.4.17-.1.46,0,1.09,0-.47,3.66-.88,7.3-1.47,10.91A2.76,2.76,0,0,1,981,393.2Zm1.14,1.92c-.92,5.44-1.83,10.89-2.79,16.58-7.31-1-14.25-1-21.09,1.33,0-2.78-.13-5.15.07-7.48a3,3,0,0,1,1.53-2.09c7-2.94,14.1-5.75,21.18-8.57C981.22,394.82,981.49,395,982.15,395.12Zm-23.87,19.63c3.48-1.75,14.46-3.63,20.67-.9l-3.05,12c-6.93-2.45-13.56-3.21-20.91-1.47.83-3.26,1.46-5.85,2.19-8.41A2.33,2.33,0,0,1,958.28,414.75Zm-2.78,11.11a29.66,29.66,0,0,1,20,1.66c-1.4,4.14-2.76,8.14-4.29,12.61-7-3.24-14-4.92-21.93-4.11,1.61-3.28,2.9-6.07,4.36-8.76A3.23,3.23,0,0,1,955.5,425.86ZM931.33,454c3.77-3.11,6.64-6.07,11.59-5.59a30.73,30.73,0,0,1,19.39,8.95l-8,10.61A50,50,0,0,0,931.33,454ZM953,469.24,945.77,476l-14.17-9.25c-.25-3.75-.47-7.15-.69-10.57C936.81,456,948.37,462.9,953,469.24Zm-14-55.17-9.69.88c-.27-2.39.44-3.9,2.27-5,2.61-1.55,5.16-3.21,7.73-4.82l.71.5Zm1.68,32.8c2.51-3.12,4.55-5.72,6.69-8.24a3,3,0,0,1,1.83-.89c7.13-.79,14-.05,20.38,3.57.19.1.3.35.76.91-2.23,4.33-4.54,8.83-7.09,13.77C956.73,450.16,949.62,447,940.67,446.87ZM947.19,387c-1.81-1.06-3.77-1.88-5.82-2.89,2.38-2.94,4.81-5.52,6.74-8.44s3.25-6,5.12-9.59l15.65,5.9c-.35.64-.44,1-.69,1.22-5.71,4.47-11.45,8.89-17.14,13.39A3,3,0,0,1,947.19,387ZM946.84,375c-.91,1.39-2,2.64-3,4-2.5,3.33-5.36,5.3-9.67,3a18.8,18.8,0,0,0-3.94-1,102.54,102.54,0,0,0,5.6-9.13c1.43-3,2.25-6.22,3.5-9.84l11.82,3.37A25.3,25.3,0,0,1,946.84,375Zm-16.19,24.8,7.82,3.28.06.91c-2.91,1.54-5.75,3.26-8.78,4.54-1.24.52-2.89.08-5.23.08C926.83,405.32,928.61,402.77,930.65,399.84Zm-7.11,7.39a3.7,3.7,0,0,1-2.15,1c-3,.6-6,1.1-9.2,1.66.81-3.48,1.69-7.23,2.64-11.34A34.76,34.76,0,0,1,929,399.6C927,402.45,925.36,404.91,923.54,407.23ZM912.83,399c-.55,7-2.22,13-8.18,17.18-.71-4.56-1.41-9-2.17-13.92A26,26,0,0,1,912.83,399Zm17.71,31.12c-2,3.05-4.81,5.13-7.95,7.27-1.8-1.58-3.47-3.22-5.32-4.65s-3.88-2.68-5.88-4C917.34,425.25,926,427.05,930.54,430.15Zm-9.63-5c2.11-2.42,4.07-4.79,6.18-7A5.59,5.59,0,0,1,930,416.4c2.56-.4,5.18-.43,8.29-.64a31.72,31.72,0,0,1-6.07,12.71Zm10.3,43.06,13.24,8.65-5.6,4.08c-2.56-2-5-3.79-7.4-5.7a2.13,2.13,0,0,1-.73-1.49C930.77,472.12,931,470.5,931.21,468.2Zm29.7-3.74a112.64,112.64,0,0,0,15.07-29c7.36,3.27,11.82,8.07,12.25,15.85a16.6,16.6,0,0,1-9.45,15.57A16.36,16.36,0,0,1,960.91,464.46Zm16.76-32.14c2.59-11.91,5.18-23.82,7.83-36,8,.68,16.51,10.07,15,20.23S989.53,435,977.67,432.32Zm9.09-39.9a5.52,5.52,0,0,1-1.06-.4c.44-4.13.85-8.15,1.29-12.16.36-3.26.38-3.27-2.75-4.66-2.72-1.2-5.47-2.35-8.19-3.54-1-.43-1.89-.92-3.06-1.49a24,24,0,0,1,1.32-2.64,21.2,21.2,0,0,1,29.61-5.75c3.69,2.49,4.59,5.92,4.64,9.82C1008.72,383.1,998.25,393.05,986.76,392.42Zm-13-18.47c2.74,1.41,5.64,2.51,9.27,4.09-9.09,5.31-17.39,10.18-25.94,15.17l-6.26-4.36c.9-.81,1.54-1.46,2.26-2,5.17-4,10.39-8,15.51-12.1C970.23,373.41,971.69,372.91,973.73,374Zm-4.08-5.49-35.1-11.24c.05-4.19,4.48-9.71,10.29-12,7.3-2.87,14.16-1.81,19.9,3.54S971.55,360.93,969.65,368.46Zm-32.73-7.12a8.6,8.6,0,0,1,.19,2A30.08,30.08,0,0,1,929.29,379a4,4,0,0,1-2.3,1.45c-3.16,0-6.31-.22-10.14-.4A39.33,39.33,0,0,0,924.08,359Zm-6.75-4.48c-10.76-2.1-21.44-2.07-32-1.51-1.62-5.46,1.22-12.5,6.31-16.26a17.05,17.05,0,0,1,18.87-.6C929.08,342.23,931.81,349.18,930.17,356.86Zm-25.3,1.63c1.71,4.54,1.43,9.23.51,13.92-.32,1.63-1,3.18-1.47,4.78-1.54,5.35-5.67,7.54-10.94,9,.36-4.72,1-9,.91-13.21s-1-8.47-1.53-12.75C895.12,358.9,900.82,358.07,904.87,358.49Zm-13.94,27.17c-3.72-1.07-5.91-4.28-9.34-5.19-.36-5.84-.69-11.38-1.06-17.44l9.66-3A43.55,43.55,0,0,1,890.93,385.66Zm-18.7-22.9-9.05-17.25c8.05-7.86,26.43-1.86,30.41,10.26ZM880,378.51c-4.64-.1-5.83-1.09-6.32-5-.27-2.23-.57-4.46-.91-7.05L879,363.7C879.36,368.94,879.68,373.71,880,378.51ZM958.39,796.4c-.14-3-.28-5.82-.44-9.16a39.06,39.06,0,0,0,21.39,1.26c1,6,1.9,11.48,2.92,17.6Zm24.21,13.11c.58,3.38.89,6.8,1.34,10.61a12.85,12.85,0,0,1-2.16-.67c-7.25-4.1-14.46-8.27-21.73-12.33-1.53-.85-2.33-1.83-2-3.66.26-1.61.32-3.25.52-5.45,7.82,3.18,15.1,6.09,22.32,9.15A3.58,3.58,0,0,1,982.6,809.51ZM969.35,788a77.83,77.83,0,0,1-10.11-2,3.58,3.58,0,0,1-2.16-2c-.85-2.45-1.38-5-2.17-8a35,35,0,0,0,21-1.54c1.05,4.17,2,8.14,3.08,12.29A19.31,19.31,0,0,1,969.35,788Zm-2-12.81c-2,.21-4,.21-6.05.25-4.63.08-8.36-1.14-9.71-6.28-.39-1.51-1.38-2.87-2.34-4.77a38.85,38.85,0,0,0,21.62-4.1,74.28,74.28,0,0,1,4.43,12.48A18.22,18.22,0,0,1,967.34,775.19ZM903.22,818.5c3.87.62,7.12,1.07,10.35,1.68a3.58,3.58,0,0,1,2,1.29,32.77,32.77,0,0,1,6.92,19.71c-4.35,1.3-12,1.69-15.76.81C908.17,834,907.59,826.2,903.22,818.5Zm-11.89-27.63,1.88-12.69c1.92-1.69,4.54-3.13,5.83-5.34s1.24-5.2,1.8-7.92l10.06-7.73L921.15,762c-5.84,6.5-12.4,10.21-20.7,11.49.42,1.81.66,3.3,1.12,4.71a28.34,28.34,0,0,1-1.12,18.91c-1.58-1-3.12-2-4.64-3S892.78,791.9,891.33,790.87Zm-1.1,49.46-9.68-2.89c.32-5.51.62-10.85,1-16.18a1.77,1.77,0,0,1,.58-1.22c2.75-1.83,5.55-3.58,8.78-5.64A44.59,44.59,0,0,1,890.23,840.33Zm38.93-56.5a3.08,3.08,0,0,1-1.75-1c-2.1-2.39-4.11-4.86-6.32-7.49l11-3.44a34.08,34.08,0,0,1,6.19,12.81C935,784.38,932.06,784.18,929.16,783.83Zm9.9,4c.49,2.28.64,4.63.92,7l-.88.38c-2.71-1.7-5.56-3.22-8.07-5.17-1.15-.9-1.65-2.64-2.76-4.53,3.49.25,6.21.33,8.9.7A2.76,2.76,0,0,1,939.06,787.81Zm-27.77-16c2-1.35,4-2.61,5.85-4.07s3.56-3.1,5.64-4.93l8.4,7.4C924.37,773.55,918.17,775.06,911.29,771.84Zm-6.65,12.38c6.07,4.25,7.66,10.32,8.22,17.26a25.43,25.43,0,0,1-10.36-3.42C903.22,793.42,903.9,789,904.64,784.22Zm10.2,17.54c-1-3.93-1.84-7.59-2.72-11.25,3.26.63,6.4,1.2,9.51,1.87a3.8,3.8,0,0,1,2.09,1.08c1.74,2.23,3.33,4.59,5.36,7.44C924,802.07,919.43,803,914.84,801.76Zm10.12-9.3c2.11-1.11,3.84-1.38,5.79-.23,2.52,1.48,5.14,2.78,8.51,4.59l-8.51,3.84Zm13.16,24.9a2.81,2.81,0,0,1,1.93.49c4.33,2.79,9.7,11.07,11,17.16L939,838.56a35.65,35.65,0,0,0-9.25-18.93C932.92,818.75,935.5,818,938.12,817.36Zm2.74-.84,8.41-4,20.24,15.73-16.65,6.25A40,40,0,0,0,940.86,816.52ZM956.31,763c-.23,0-.48,0-.71,0-4.86.68-8.87-.38-11.38-5.1-.7-1.32-2-2.33-3.16-3.65,4-1,8-1.63,11.61-3.1s6.8-3.8,10.27-5.81c2.07,1.82,5.71,8.56,7.1,13.49A30.48,30.48,0,0,1,956.31,763Zm-9.71-11.45c-.93.18-1.88.27-2.83.4-4.68.61-8.52-1.14-11.82-5.67a49.44,49.44,0,0,0,22.3-13.75l8.07,10.5A29.19,29.19,0,0,1,946.6,751.54ZM931,744.84c.21-3.8.35-7.09.61-10.37a2.25,2.25,0,0,1,1-1.34c4.25-2.84,8.54-5.62,13.13-8.63l7.52,6.94C946.93,738,940,742.62,931,744.84Zm.29-12.66c-.29-2.59-.49-4.42-.7-6.3l8.18-6.4,5.79,4ZM880,821.06c-.33,5.38-.63,10.2-1,15.56L872.75,834c.5-3.61,1-7.08,1.48-10.61Zm-7.8,16.49,21.4,7.05c-3.77,11.38-19.48,17.64-30.57,10.46Q867.65,846.29,872.23,837.55ZM892,840.81a55.32,55.32,0,0,0,.53-26.72c4.16,1.45,7.82,2.13,9.85,5.88a29.7,29.7,0,0,1,3.13,20.36,13,13,0,0,1-.85,2.09Zm5.94,3.91c10.88,1.44,21.52.6,32.06-1.23,2.07,5.62-.15,13-5,17.12a16.67,16.67,0,0,1-27-15.89Zm26.28-3.2A39.36,39.36,0,0,0,917,820.61c3.63-.33,6.66-.63,9.7-.84a2.32,2.32,0,0,1,1.58.61,30,30,0,0,1,9.1,18.56ZM969.23,832c4,8.57-1.07,19.73-10.48,23.33a18.6,18.6,0,0,1-24.57-12.14Zm-18.61-20.27,6.41-4.52,26,15.19-12,5.19C964.4,822.44,957.73,817.27,950.62,811.74Zm36.71,12c-.55-5.1-1.08-10-1.63-15.09,2.25-1.27,4.52-.67,6.64-.18A20.76,20.76,0,0,1,1008,833a7.31,7.31,0,0,1-1.94,3.68c-11.45,10.74-28.1,5-33.07-6.56Zm-1.78-19.47c-2.6-12-5.21-24-7.86-36.22,9.33-2.64,19.35,3.24,22.19,12.78C1003.28,792.25,995.37,802.18,985.55,804.28Zm-9.69-40a113.62,113.62,0,0,0-15-28.44c3.94-4.22,12.77-5.33,18.62-2.1a16.79,16.79,0,0,1,8.57,17.13A16.51,16.51,0,0,1,975.86,764.29Zm-17.55-31.91c-2.69-2.67-5.29-5.45-8.1-8s-5.71-4.67-8.83-7.2c1.92-2.67,4-5.26,5.72-8s3.23-5.83,4.83-8.75C964.22,706,966.38,723.79,958.31,732.38Zm14.58-70.09a49.85,49.85,0,0,0-12.82-23.08c4.75-.89,8.67-2,12.55.71a30.3,30.3,0,0,1,12.53,17.42A46.62,46.62,0,0,1,972.89,662.29Zm34.59-16.38c4.45,3.59,6.25,11,4.25,17a16.55,16.55,0,0,1-15.11,11.21c-7.26.19-13.42-3.84-16.38-11.08A109.07,109.07,0,0,0,1007.48,645.91Zm3.45-2.18c8.46-9.31,16.66-18.34,25.07-27.62,4.85,5,7.42,10.77,5.93,17.78a17.69,17.69,0,0,1-13.53,14.2C1021.92,649.81,1016.05,648.1,1010.93,643.73Zm27.13-31,9.29-12.58-9.55-13.07a63.8,63.8,0,0,1,6.54-2.69,20.79,20.79,0,0,1,25.21,12.83,7.72,7.72,0,0,1,.1,5.54C1064.73,616.72,1048,620.42,1038.06,612.76Zm-2.16-28.7-24.82-27.31c5.11-6,18-7.92,26.05.52C1044.49,565,1044,576.6,1035.9,584.06Zm-28.24-29.57c-8.34-6.86-17.3-13-27.35-17.17a16.85,16.85,0,0,1,15.13-11.2c6.24-.33,12.81,3.75,15.61,9.47C1013.49,540.58,1012.91,549.74,1007.66,554.49ZM985,542.68a19.37,19.37,0,0,1-4.15,9.67,74.56,74.56,0,0,1-6.59,7c-3.92,3.9-8.54,3-13.51,2,2.64-3.89,5.36-7.32,7.43-11.11s3.39-7.8,5.28-12.29Zm-8.25-7.38-22.2-4.65c.26-6.34.53-12.81.81-19.72,6.19-.27,11.47,2.23,15.77,6.81A21.07,21.07,0,0,1,976.71,535.3Zm-168.43-352c10.55-1.17,21.11-2.28,31.67-3.39.93-.1,1.88,0,3.06,0C853.72,203.72,864.89,227,871.6,252a141.59,141.59,0,0,1,5.1,31.37c.74,19.46-3.83,37.4-16,53a9.42,9.42,0,0,1-2.11,2c2-5.71,3.29-11.45,1.79-17.46s-4.87-10.82-10.17-14.89l4-1.45c10.57-3.79,15.86-14.75,12.1-25.18a18.78,18.78,0,0,0-11.83-11.66c-1.21-.45-2.44-.83-4.07-1.38,7.67-6.82,11.44-14.74,8.14-24.69-3.21-9.72-10.59-14.21-20.87-15.12,1-1.31,1.71-2.12,2.36-2.94a23.84,23.84,0,0,0-1.55-31.69,8.72,8.72,0,0,0-3.93-2.23,23.93,23.93,0,0,0-28.24,14.51c-.39,1-.73,2-1.27,3.5-5.93-8.47-13.65-12.75-23.73-10.55s-15.25,9.13-17.1,19.48c-1.06-1-1.88-1.71-2.72-2.44-5.66-5-12.18-6.56-19.31-4.18s-11.71,7.32-13.06,14.79a33.12,33.12,0,0,0,0,7.45,29.21,29.21,0,0,0,.82,4.12c-13.36-4.85-24-1.64-32.77,9.17.38-1,.72-2.07,1.14-3.08,6.07-14.69,16-26.19,29.13-35,12.28-8.16,25.87-13.23,40-16.93A288.19,288.19,0,0,1,808.28,183.31ZM682.73,146.13c3.53-.89,7.18-1.78,10.93-1.49,2.13,4.85,4.14,15.59,3.76,20.35l-7,1Zm4.57,15.94-.66.42L672.08,149l8.43-2.5A56.83,56.83,0,0,1,687.3,162.07Zm8.55-17.86h11.69a59.8,59.8,0,0,1-1.17,20.48h-6.72C698.39,157.9,697.16,151.3,695.85,144.21Zm39.32,36.16-12.09,4.68c-3.56-1.9-6.68-3.87-10-5.27a14.54,14.54,0,0,0-9.16-.36c-1.21.3-2.31.4-3.21-.77-2.41-3.09-4.87-6.14-7.33-9.23C701.67,164.55,725.89,170.78,735.17,180.37ZM739,179l-5.87-4.47a90.57,90.57,0,0,1,13.84-16.07l8.84,7.08Zm18.3-11.92,6.08,6.35L743.62,178C747.33,173.38,751.89,170.05,757.27,167.05Zm-25.69,6.38-6-3.19a72.36,72.36,0,0,1,9.29-18.69,60.41,60.41,0,0,1,10.27,5.87Zm-7.71-4.07-7-2.36c1.73-6.83,3.54-13.52,5.79-20.53l10.44,4.07Zm-8.22-2.75-7.3-1.39c.46-6.82.91-13.5,1.39-20.57,3.84-.24,7.36.59,11.17,1.6C719.12,153.17,717.41,159.78,715.65,166.61Zm7.56-36.16c24.21,5.86,43.61,19,58.72,39.72l-13.8,2.35c-1.43.25-2.09-.77-3-1.61-4.28-4.14-8.36-8.55-13-12.26-9.78-7.86-20.78-13.62-33.14-16.1a87.83,87.83,0,0,0-47.2,3.34c-.67.24-1.36.43-2.48.77l-11.74-9.74C679.13,127.25,700.82,125,723.21,130.45Zm-149.07,3c7.87-5.83,15.85-11.49,23.79-17.21.68-.49,1.41-.89,2.09-1.32a7.25,7.25,0,0,1,1,.49c18.25,13.06,36.71,25.84,53.29,41.07,9.61,8.83,18.45,18.34,25.65,29.29s12.06,22.45,13.94,35.33c1,6.55.75,17-.91,23.51-.94-6.11-2.77-11.8-7.15-16.38s-9.82-6.94-16.4-7.89c8-8,10.7-16.88,4.49-26.65-5.56-8.74-14-10.46-24-7.69.31-1.26.53-2.23.78-3.2,2.27-8.57.58-16.15-6.07-22.21s-14.1-7-22.34-4.15l-2.68.92c-.08,0-.2-.06-.49-.15.06-.76.07-1.58.2-2.37a23.88,23.88,0,0,0-17.06-27.38,8.76,8.76,0,0,0-4.49,0,23.89,23.89,0,0,0-17.06,27.38c.14.8.14,1.61.22,2.53-19.4-9.41-38.37,8.36-30.85,28.52-10.44-2.77-19.27-.74-24.68,9-5.27,9.5-2.3,17.9,5.19,25.36C516.54,222.59,509,230.86,507,244.64a73.42,73.42,0,0,1,3.73-40.83c5.23-13.46,13.46-24.95,23.14-35.49C546,155.16,559.83,144,574.14,133.4Zm-31.85,3.75L531,146.49c-4.33-1.18-8.52-2.53-12.8-3.45-31.74-6.86-58.67,2-80.85,25.39-3.07,3.24-5.74,4.76-10.08,3.41a69.84,69.84,0,0,0-8.43-1.59C443,132.09,499.85,115.74,542.29,137.15ZM330.82,244.35c5.2-17.18,12.44-33.56,19.79-49.89,2.15-4.78,4.35-9.55,6.67-14.64,3.28.26,6.58.45,9.87.81,10.44,1.12,20.89,2.14,31.3,3.5,19.08,2.51,37.92,6.15,55.81,13.59,14,5.81,26.46,13.76,36.2,25.57a72.88,72.88,0,0,1,12,20.64,10.61,10.61,0,0,1,.4,1.36c0,.09-.11.21-.28.49-8.25-11.05-18.91-14.24-32.21-9.47,2.68-10.84.66-19.89-9.68-25.14-9.2-4.67-17.35-2.08-24.62,5.53-1.86-10.23-7-17.37-17.11-19.58S401.3,199,395.28,207.58c-.59-1.46-1-2.59-1.5-3.73a23.92,23.92,0,0,0-28.11-14.18,9.28,9.28,0,0,0-4.17,2.48,23.93,23.93,0,0,0-1.08,31.72c.58.71,1.13,1.44,2,2.54-10.14,1.17-17.64,5.54-20.77,15.35s.39,17.73,8.26,24.56c-10.77,2.93-17.19,9.22-17.12,20.54a18.23,18.23,0,0,0,5,12.36c3.14,3.48,7.26,5.26,12.16,6.65-10.66,9-13.4,19.7-8.51,32.49a9.57,9.57,0,0,1-1.34-1.19,75.86,75.86,0,0,1-16.26-42.1C322.38,277.62,325.82,260.88,330.82,244.35Zm-76.41,14.78c17.28-18.31,38.5-28.69,64.18-31.42-1.76,4.81-3.18,9.09-5,13.21-.38.89-2,1.5-3.2,1.74a91.61,91.61,0,0,0-34.33,14.51c-17.36,12-27.19,29-32.55,48.95a17.35,17.35,0,0,0-.71,3.14c-.23,3.07-1.6,4.89-4.74,5.72-3.31.87-6.48,2.28-9.75,3.46C226,305.28,239.09,275.36,254.41,259.13ZM248,301.58l4-10.48A81.53,81.53,0,0,1,272,298c-1,2.47-1.93,4.73-2.78,6.83ZM265.7,306,246,312c-.63-2.9.71-5.33,1.4-8.13C253.44,303.32,259.2,304.23,265.7,306Zm-12.8-16.77,6-10.28a70.27,70.27,0,0,1,17.54,11.66l-3.52,5.73Zm36-11.6L284,281.79l-15.55-14.64,8.71-7Zm-9.6-18.9,9.86-5.78c2.41,6.78,4.71,13.21,7.13,20l-5.47,3.36C286.58,272.72,280.78,263.94,279.26,258.75Zm3.11,24.58L277.52,289,260,277.3c2.29-2.84,4.59-5.68,7.16-8.88ZM304,273.21c-.7,4.57-1.36,9-2.07,13.66-7.75,2.18-13,7.15-15.12,15.11l-13.51,2.16C276.63,290.47,291.7,276.7,304,273.21Zm-6-1c-3.37-6.22-5.34-12.84-7.21-20l10.66-4.08c1.09,7.23,2.11,14,3.19,21.19Zm5.71-24.67,8.36-2.1c-2,6.9-4.13,13-6.14,19.12A42.22,42.22,0,0,1,303.76,247.5ZM182,356.29c18.41-8.2,36.64-16.82,55.78-23.27,12.82-4.32,25.84-7.74,39.34-9,21-1.9,40.67,1.67,58,14.58a16.39,16.39,0,0,1,3,2.8c-12.69-4.61-23.44-2.16-32.2,8.63-2.91-10.5-8.85-17.13-19.94-17.07s-16.81,6.68-19.6,17c-6.67-7.85-14.67-11.44-24.61-8.3s-14.2,10.62-15.31,20.77l-2.82-2.21a24.2,24.2,0,0,0-31,.75,9.7,9.7,0,0,0-3.35,6.09,24.05,24.05,0,0,0,15.61,27.09l2.74,1c-8.23,6-12.76,13.52-10.5,23.7s9.14,15.21,19.39,17.15c-1.06,1.22-1.88,2.15-2.68,3.09-9.6,11.1-4.16,28.55,10.07,31.79,2.93.67,6.14.16,9.22.09a19.37,19.37,0,0,0,3.2-.67c-4.69,13.09-1.79,23.83,8.87,32.62-1.18-.44-2.38-.85-3.54-1.34-17-7.18-29.27-19.42-38.15-35.33-7.34-13.16-11.75-27.37-15-42a377.15,377.15,0,0,1-6.54-43.86c-.67-6.76-1.34-13.52-2.08-20.28C179.63,358.34,180.06,357.14,182,356.29Zm-2.91,142.89c-.08.07-.71.6-1.35,1.11l-8.63,6.88c-3.56-11.83,1.43-32.31,11.22-42.09.84,2.22,1.59,4.27,2.38,6.3s1.66,4.2,2.24,5.68c-2,3.86-4.25,7.06-5.21,10.62S179.23,494.93,179.05,499.18Zm-32.86,18.34c-1.17-1.46-1-3.67-1.35-5.67-.87-5.57-.81-5.68,4.77-6.88,4.07-.87,8.19-1.46,12.3-2.12a21.23,21.23,0,0,1,3,0c.35,2.6.66,4.91,1,7Zm16.63-4.34-13.92,15c-1-3.16-1.69-5.63-2.4-8C149.79,517.21,157.79,513.72,162.82,513.18Zm-18.58-8.73V493c4.87-1.26,12.92-.83,20.34,1v6.62ZM165.18,492l-21-1.42c.59-3.7,1.15-7.25,1.77-11.17l20.44,5.25C166,487.15,165.58,489.44,165.18,492Zm-18.83-14.22c1.43-3.76,2.73-7.15,4.06-10.63l18.8,9.3-2.37,7.08Zm5.22-12.2c1.3-3.88,3.51-7.06,5.74-10.44l16,13.62-3.21,5.88A70,70,0,0,1,151.57,465.54Zm22.8,1.66a96.21,96.21,0,0,1-16.09-13.77l7.14-8.82,13.45,16.75ZM178,457.1c-3.87-3-8.53-9.11-10.84-14.2l6.2-5.94C174.93,444,176.4,450.4,178,457.1ZM129.32,482c5.26-26.26,18.55-47.36,40.78-63.62.87,4.86,1.5,8.85,2.33,12.81.42,2-.51,3-1.86,4.21A88.66,88.66,0,0,0,144.77,473c-4.15,11.59-4.55,23.59-3.43,35.67a79,79,0,0,0,4.54,19.81c.45,1.23.86,2.41-.23,3.66-2.81,3.23-5.51,6.55-8.27,9.86C129.66,533.74,125.38,501.58,129.32,482Zm-3.55,133.9c-3.7-5.12-7.37-10.27-11.24-15.67,16.68-23.13,32.47-46.51,53.3-65.82,11.39-10.56,23.88-19.41,38.72-24.54a74.54,74.54,0,0,1,35.64-3.31,3.41,3.41,0,0,1,1.59.67c-13.29,2.19-21.24,9.66-23.56,23-1.42.08-1.93-1.2-2.76-1.92-7.43-6.5-17.28-7.09-25-1.33-6.74,5-8.75,11.91-7.43,20,.15.91.35,1.81.63,3.22-1.45-.33-2.54-.55-3.62-.83a21.4,21.4,0,0,0-27.2,21.87,22.87,22.87,0,0,0,.86,4.91c.43,1.6,1.13,3.12,1.83,5-1.24-.12-2.25-.16-3.24-.32a24.1,24.1,0,0,0-27,16.8,8.28,8.28,0,0,0,0,5.23,24.21,24.21,0,0,0,27.44,16.66l2.53-.44c-9.78,20.69,9.61,38.68,28.43,31-2.65,10.25-.87,19.09,8.76,24.54,9.43,5.33,17.89,2.6,25.57-5C222.62,684,231,691.57,245,693.18a58.38,58.38,0,0,1-15.64,1.56c-14.16-.42-27.18-4.68-39.31-11.88-11.07-6.57-20.69-14.92-29.62-24.12C147.53,645.51,136.53,630.79,125.77,615.87Zm24.88,117.31a39.52,39.52,0,0,1-4-10.61l20.1-5.62c.89,2.43,1.72,4.7,2.57,7Zm19.45-7.42c1.23,2.24,2.24,4.1,3.24,5.93l-16,13.52a50.39,50.39,0,0,1-5.93-10.1A66.42,66.42,0,0,1,170.1,725.76Zm-4.23-35.18c-.29,2.21-.6,4.54-1,7.17A77.63,77.63,0,0,1,144.07,694c.58-3.8,1.15-7.46,1.72-11.2Zm-19.49-10c.83-2.75,1.57-5.21,2.52-8.38,2.66,2.89,4.86,5.31,7.09,7.69s4.57,4.82,6.73,7.45A49.91,49.91,0,0,1,146.38,680.6ZM144.3,696l20.2,3.76v6.63c-6.42,1.79-13.11,1.86-19.79,1.43C143.79,705.18,143.63,700.43,144.3,696Zm20.79,12.52c.4,2.11.83,4.41,1.33,7.06-6.63,2.22-13.29,3.65-20.07,5.33-1.67-3.64-1.47-7.34-2.24-11.14Zm6.8,63.69a78.14,78.14,0,0,0-1.58,8.42c0,.2-.27.36-.59.77-39.44-26.86-53.06-81.76-32.86-123.14a18.42,18.42,0,0,1,1.76,1.57c1.86,2.18,3.52,4.54,5.52,6.57s2.34,3.91,1.35,6.66A82.39,82.39,0,0,0,141,695.75c-1.82,27.13,8.31,49.39,27.93,67.59C171.78,766,173.05,768.36,171.89,772.19Zm1.47-8.75-6.11-5.69c1.44-4.32,6.42-11.07,10.57-14.1C176.32,750.3,174.94,756.44,173.36,763.44Zm-8-7.59-7-8.77a84.67,84.67,0,0,1,16-13.78l4.59,5.77Zm3.79-62.69,10.6,8.51c-2,7.92-.28,14.77,5.48,20.64-1.62,4.26-3.22,8.46-4.83,12.71C170.54,726.55,165.38,703.92,169.17,693.16ZM255.46,942.4c-15.39-16.14-29.67-47.15-27-60.46l12.38,4.54c1.54.56,1.44,2,1.78,3.26,1.32,4.7,2.25,9.54,3.94,14.1,10.87,29.25,32.17,46.47,62.21,53.47.46.11.93.19,1.4.29l3.2.71c1.66,4.54,3.29,9,5,13.52C305.71,972.79,276.09,964,255.46,942.4Zm46,9.7a43.9,43.9,0,0,1-10.56-4,87.25,87.25,0,0,1,7-19.71l6.8,2.7C303.65,938.1,302.61,944.89,301.51,952.1Zm4.73-16.33c1.85,6,3.7,12,5.62,18.31-3.05.72-5.46-.43-8-1.39A36.93,36.93,0,0,1,306.24,935.77Zm-23-17.85,5.63,4.89-11.68,17.42-8.92-7.1ZM267.2,932,260,923.13l17.53-11.7,4.87,5.64Zm23.37-8,5.68,3.51c-2.38,6.65-4.69,13.09-7.13,19.93l-10.25-5.87A66.78,66.78,0,0,1,290.57,924Zm-17.36-27.69c4.37.62,8.37,1.1,12.33,1.81.71.13,1.51,1.15,1.79,1.93a20.2,20.2,0,0,0,13,12.91,3.09,3.09,0,0,1,1.82,1.86c.73,4,1.24,8,1.83,12C292.83,925.22,277.18,909.78,273.21,896.26Zm3.19,13.52a69,69,0,0,1-17.58,11.65c-2-3.52-4-6.87-5.95-10.28l19.88-7C273.88,905.85,275.07,907.7,276.4,909.78ZM252,909.37l-4.1-10.49,21.26-3.34c.84,2.07,1.78,4.35,2.79,6.84A83.28,83.28,0,0,1,252,909.37ZM248,896.59a11.64,11.64,0,0,1-1.76-8.16l18.57,5.7C260.92,896,253.48,897.08,248,896.59Zm49.41-20.29c-16.69,1.82-32.82-1.06-48.77-5.54-18-5-35.06-12.41-52-20.06-5.54-2.49-11.07-5-16.93-7.65.4-4.66.67-8.94,1.16-13.2,1.31-11.49,2.5-23,4.14-34.45,2.73-18.95,6.92-37.55,15.18-55,5.6-11.79,13-22.26,23.13-30.62a75.09,75.09,0,0,1,18.33-11.07,8.84,8.84,0,0,1,3.17-.69c-4.62,4-8.28,8.54-9.87,14.49s-.83,11.53,1.4,17.55c-10.56-2.8-19.35-.89-24.76,8.72-5.3,9.42-2.69,17.92,4.8,25.34-20.91,3.13-27.44,28.54-9,41.08-1.1.43-2.07.83-3.06,1.19-9.55,3.54-17.54,13.78-14.89,27.83a8.42,8.42,0,0,0,2.82,4.82,24,24,0,0,0,31.77.72l2.24-1.84c.3,1.39.57,2.48.77,3.59,1.58,8.63,6.43,14.57,14.8,17.24s15.53.5,21.75-5.43A10.08,10.08,0,0,0,264.7,852c.36-.48.63-1,1.35-2.23,3.13,11.57,9.58,18.25,21,17.7,10.27-.48,16-6.93,18.63-17.05,9,10.62,19.8,13.56,32.74,8.35a14.33,14.33,0,0,1-1.47,1.54A75.69,75.69,0,0,1,297.37,876.3Zm85.44,141.83q-11.4,1.14-22.8,2.27c-.82.08-1.65,0-2.49,0a4.25,4.25,0,0,1-.69-.84c-8.48-18.56-17.11-37.06-23.73-56.4A180.09,180.09,0,0,1,324.19,926c-2-17.28-.52-34.12,7.61-49.83,2.45-4.74,5.76-9,8.66-13.54a19.61,19.61,0,0,0,1-1.82l.61.61c-5.68,13.63-2.84,23.93,7.76,33.15-10.52,2.82-17.15,9.06-17,20.38.12,9.6,5.67,15.5,17.15,19.11-8.18,7-11.83,15.41-7.89,25.8,3.41,9,10.62,13.1,20.56,14-.93,1.14-1.63,2-2.32,2.81a24.09,24.09,0,0,0,.82,31.24,9.16,9.16,0,0,0,5.47,3.07c12.41,2.24,23.39-4.1,27.75-16.06.23-.63.5-1.24.89-2.19,6.29,8.86,14.32,12.94,24.91,10.24,8.26-2.1,13.39-8.24,15.94-19.08L439,986.5a19.34,19.34,0,0,0,25.58.3c5.81-4.88,7.78-11.23,6.62-18.63-.19-1.17-.54-2.32-.95-4.07,6,2,11.87,3.06,17.89,1.24S498.83,959.78,503,955c-.38,1.07-.73,2.15-1.16,3.2-6.27,15.19-16.67,26.85-30.42,35.66-12.3,7.88-25.84,12.78-39.89,16.34C415.5,1014.22,399.2,1016.49,382.81,1018.13Zm134.7,36.33-11.08,1.83a87.81,87.81,0,0,1-4-20.87l7.3-1C512.37,1041.23,514.85,1047.62,517.51,1054.46Zm-4.69-17.28L528,1051.31c-1.61.55-2.86,1-4.13,1.4s-2.5.72-3.71,1.06C517.33,1050.85,513.9,1043.21,512.82,1037.18Zm-8.5,18.81a42.54,42.54,0,0,1-11.72.07,60.47,60.47,0,0,1,1.31-20.5h6.62C501.78,1042.32,503,1049,504.32,1056Zm-39.28-36c3.83-1.49,7.39-2.83,10.91-4.27a2.76,2.76,0,0,1,3.26.5c5.5,5,12,6,19.29,4.33l8.42,10.42C498.55,1035,475.3,1030.62,465,1019.94Zm-3.8,1.52,5.82,4.49A95.27,95.27,0,0,1,453.3,1042l-8.86-7.11Zm-18.48,11.7-5.87-6.18,20.09-4.64A41.9,41.9,0,0,1,442.76,1033.16Zm25.85-6.2,5.67,3.1c-1.27,5.66-5.31,13.88-9.29,18.88l-10.12-5.82Zm7.74,4.08,7,2.46L477.65,1054l-10.59-4.12Zm8.24,2.78,7.25,1.42c-.45,6.9-.9,13.61-1.39,21l-11-1.75C480.85,1047.35,482.81,1040.72,484.59,1033.82Zm-65.83-3.73,13.73-2.42c4.21,3.95,7.94,7.63,11.87,11.1a84.64,84.64,0,0,0,30.91,17.5,79.34,79.34,0,0,0,29.72,3,89.92,89.92,0,0,0,23.72-5,3.05,3.05,0,0,1,3.34.36c3.27,2.78,6.58,5.49,10.21,8.51C501.65,1083.63,444.82,1070.09,418.76,1030.09Zm209.45,35.28c-8.63,6.4-17.38,12.63-26.08,18.94-.57.41-1.18.78-1.76,1.16a4,4,0,0,1-1.08-.35c-18.1-12.86-36.35-25.53-52.79-40.54-11-10-21-20.86-28.7-33.68-5.9-9.83-10.06-20.31-11.56-31.72a76.16,76.16,0,0,1,.72-24.36c.42,1.8.71,2.78.86,3.78a24.58,24.58,0,0,0,19.81,20.92c.81.17,1.61.38,2.88.68-1,1.16-1.82,2.08-2.61,3-9.35,10.94-4.73,27.52,8.82,31.63a17.41,17.41,0,0,0,8.83.59c1.38-.29,2.77-.52,4.67-.88-3.17,9.69-2.39,18.45,5.33,25.38s16.33,7,25.58,2.73c-.11,1.09-.14,1.91-.28,2.7a24,24,0,0,0,16.39,27.52,8.77,8.77,0,0,0,5.59,0,24.06,24.06,0,0,0,16.52-27.45c-.15-.8-.22-1.62-.38-2.82,9.26,4.17,17.94,4.18,25.57-2.65s8.66-15.49,5.38-25.31l4.6.71a19.46,19.46,0,0,0,22.57-21.48,19.84,19.84,0,0,0-5.21-11.17c-.63-.71-1.29-1.38-2.39-2.55,14.3-2.49,21.84-10.85,23.64-24.66,3.23,17.29.59,33.55-7.27,49-6,11.72-14,21.87-23.13,31.24A282.4,282.4,0,0,1,628.21,1065.37Zm127.49-30.48-8.74,7.16a92.88,92.88,0,0,1-13.8-16l5.77-4.59Zm-12.44-12.55,20,4.59-5.55,6.1C753.41,1031.65,746.44,1026.54,743.26,1022.34Zm-26.47,11.2,7-2.5,9.32,18.88L722.53,1054Zm4.17,20.87-11.22,1.76c-.46-7.07-.89-13.68-1.35-20.83l7.24-1.63C717.41,1040.62,719.14,1047.33,721,1054.41Zm4.75-24.23,5.85-3.23,13.74,16.12-10.28,6A68.11,68.11,0,0,1,725.71,1030.18Zm-32.77,1.14,8.56-10.7c1.38.17,2.77.36,4.17.52a18.32,18.32,0,0,0,14.59-4.44,3.91,3.91,0,0,1,4.8-.71c3.22,1.44,6.56,2.61,9.93,3.91C727.81,1028.21,707.5,1035,692.94,1031.32Zm-2.49,3.18,7.17.93c-.17,7-1.72,13.65-3.62,20.52-3.93.13-7.56-.81-11.27-1.55Zm-10,19.41-8.36-2.51,14.81-13.84A43.5,43.5,0,0,1,680.48,1053.91Zm19.18-18.36h6.61a60.35,60.35,0,0,1,1.37,20.37,41,41,0,0,1-11.75.2Zm-41.85,27.75,10.53-8.73c1.23-1,2.42-.34,3.7,0,5.3,1.35,10.57,3,16,3.85,25.63,4.21,48.17-2.7,67.73-19.57,4-3.42,7.51-7.3,11.5-11.21l14.11,2.45C757.57,1067.54,702,1084.77,657.81,1063.3ZM868.9,957.72c-5.39,17.36-12.78,33.93-20.28,50.45l-5.71,12.52c-4.9-.43-9.65-.72-14.36-1.29-13-1.56-26.08-3-39-4.95-16.55-2.52-32.73-6.61-48-13.67-13.19-6.09-24.77-14.32-33.64-26a73.56,73.56,0,0,1-10.06-18.09,5,5,0,0,1-.35-1.85C706,965.65,716.64,969.11,730,964c-2.83,10.38-.91,18.77,8.08,24.53a18.41,18.41,0,0,0,13.72,2.65c4.89-.9,8.62-3.75,12.22-7.11,3.94,22,29.3,26.64,41.08,8.9.37,1,.69,1.84,1,2.69a24,24,0,0,0,28.54,15.14,9.28,9.28,0,0,0,4.15-2.55A24,24,0,0,0,840,976.79L837.7,974c10.93-1.14,18.62-6.12,21.34-16.81,2.38-9.36-1.32-16.78-8.78-23.07,11-2.89,17.64-9.36,17.1-20.94-.44-9.54-5.57-14.77-17-18.63,10.61-8.8,13.4-19.56,8.59-32.42.61.65,1.29,1.25,1.84,2a76.28,76.28,0,0,1,15.65,41.21C877.89,923.37,874.19,940.66,868.9,957.72Zm77.34-16.93c-20.27,22.11-49.16,31.62-64.38,31.09l4.95-13.49c3.56-.87,7.06-1.57,10.46-2.56,15.65-4.59,29.51-12.28,40.34-24.64a85.81,85.81,0,0,0,19.79-40.7c.52-2.64,1.54-4.2,4.25-4.93,3.2-.87,6.28-2.21,9.42-3.33a1.89,1.89,0,0,1,.7,0C974.49,894,960.92,924.79,946.24,940.79Zm6-41.88L948.32,909c-4.61-.17-15.11-3.77-20-6.81l2.66-6.62Zm-16.7-4.77,18.64-5.77c.44,3.08-.63,5.56-1.61,8.34C946.79,896.78,941.16,896.32,935.52,894.14Zm11.8,17c-2,3.39-3.88,6.74-5.93,10.31a71.84,71.84,0,0,1-17.57-11.66c1.23-2,2.34-3.78,3.52-5.71Zm-36,11.66,5-4.35,15.22,14.44a37.33,37.33,0,0,1-8.62,7.21Zm10,18.73-10.27,5.84c-2.41-6.78-4.67-13.12-7.1-19.92l5.73-3.53A69.81,69.81,0,0,1,921.34,941.55Zm-3.52-24.46c1.74-2,3.32-3.9,4.84-5.67l17.53,11.7L933,932C927.77,926.86,922.88,922.07,917.82,917.09Zm-21.71,10.37c.71-4.81,1.24-8.8,1.94-12.77a2.69,2.69,0,0,1,1.55-1.7A20.09,20.09,0,0,0,913,899.58a2.42,2.42,0,0,1,1.42-1.43c4.07-.7,8.18-1.26,13-2C921.35,911.3,911.27,921.29,896.11,927.46Zm5.84,1c2.64,3.83,5.94,12.91,7.14,19.64a53.38,53.38,0,0,1-10.4,4.16c-1.08-7.12-2.12-14-3.22-21.19Zm-5.75,24.6L889,954.72a4.82,4.82,0,0,1-.47-.41c-.06-.09-.14-.23-.11-.32,1.79-6,3.59-12,5.42-18.14C895.85,938.21,897,946.71,896.2,953.05Zm92.23-95.71c-15.69,6.75-31.66,12.73-48.41,16.33-14.11,3-28.29,4.39-42.65,1.86A75.49,75.49,0,0,1,862.81,860c-.46-.37-1-.56-1.36-1.26,13,5.1,23.81,2.45,33-8.33,3,10.8,9.33,17.25,20.63,17.09,9.07-.13,14.29-5,18.92-16.65,14.52,17.32,38.82,7.66,40.1-12.91,1,.84,1.91,1.59,2.82,2.31a23.93,23.93,0,0,0,31.69-1.86,8.81,8.81,0,0,0,2.25-4.31c2.7-14.3-5.52-24.25-14.94-27.78-1-.36-1.95-.74-3.06-1.17,17.64-11.56,13.09-37.39-8.93-41.12,7.83-7.81,10-16.57,4.18-26.28-4.68-7.79-12.28-10.15-24.08-7.8,2.08-6.08,3-12.09,1.09-18.18s-5.7-10.65-10.66-14.61c1.19.43,2.4.83,3.57,1.31,16.29,6.73,28.43,18.14,37.36,33.16,7.59,12.76,12.22,26.64,15.6,41a325.62,325.62,0,0,1,6.59,40.59c.83,7.95,1.71,15.89,2.53,23.84.2,1.89.24,3.79.38,6.08C1009.59,848,999.06,852.77,988.43,857.34Zm32-155.53,10.44-8.47c3.83,8.2.07,31-11,41.91l-4.95-12.86C1020.59,716.7,1022.51,709.9,1020.42,701.81ZM1054,682.93c1.5,3.29,1.43,7.06,2,10.65-4.29,2.14-15.65,4.32-20.75,3.92-.31-2.38-.6-4.61-.9-6.93Zm-16.83,4.43,14.15-15.14,2.35,8.07A39.45,39.45,0,0,1,1037.17,687.36Zm18.76,8.62v11.73a63.57,63.57,0,0,1-20.25-1.24v-6.75Zm-20.87,12.5,20.66,1.24c.25,3.58-.74,7.07-1.36,10.56-2.54.3-15.09-2.64-20.54-4.81C1034.26,713,1034.67,710.69,1035.06,708.48Zm18.83,14.16c-1.49,3.89-2.8,7.28-4.09,10.64L1031,724l2.35-7.07Zm-5.1,12.38a58.52,58.52,0,0,1-5.93,10.25l-16-13.59c1.05-1.89,2.12-3.84,3.28-5.92A70.89,70.89,0,0,1,1048.79,735Zm-22.93-1.76A90.79,90.79,0,0,1,1041.91,747l-7.09,8.81-13.5-16.77Zm-3.47,10.63c3.28,1.91,7.28,7,10.81,13.58l-6.36,6C1025.27,756.56,1023.86,750.35,1022.39,743.89Zm46.95-18.52c-6.18,22.84-24.7,49.51-39.33,55.93-.79-4.5-1.71-8.9-2.23-13.35-.11-.94,1.09-2.26,2-3.05a91.88,91.88,0,0,0,16.77-19.45c14.47-22.4,16.17-46.38,8.48-71.36-1.08-3.53-.92-6,1.71-8.51,2.13-2.07,3.9-4.51,5.85-6.76.12-.14.42-.13.64-.19C1071.67,673.18,1076,700.8,1069.34,725.37Zm15.45-124.11c-12,16.79-23.81,33.77-37.5,49.29a185.34,185.34,0,0,1-23.92,23.12c-11.76,9.3-24.59,16.45-39.43,19.49a68.49,68.49,0,0,1-28.37,0c13.69-1.73,21.94-9.17,24.57-23.28,1.18,1,2.1,1.82,3,2.62a19.61,19.61,0,0,0,31.73-9.35,21.53,21.53,0,0,0,.17-10.28c-.16-.8-.34-1.59-.62-2.87,9.77,3.48,18.48,2.39,25.41-5.27s7.05-16.29,2.81-25.47c2.42.22,4.53.54,6.64.58A24,24,0,0,0,1072.88,603a8.67,8.67,0,0,0,0-5.58,24.11,24.11,0,0,0-27.15-16.55c-.81.13-1.63.22-3,.39,4.1-9.22,4-17.88-2.74-25.47s-15.47-8.7-25.34-5.45c.24-1.39.42-2.39.6-3.38,2.42-13-7.07-24.42-19.86-23.92A20,20,0,0,0,983,528c-.81.69-1.59,1.39-2.82,2.47-2.52-13.36-10.21-21.16-23.6-23,0-.24.07-.48.11-.72,2.74-.31,5.47-.74,8.22-.89,17.3-1,33,4,47.52,13.12,11.63,7.28,21.63,16.48,30.91,26.5,11,11.85,20.66,24.74,30.1,37.81,4,5.51,7.93,11.05,11.93,16.63A7,7,0,0,1,1084.79,601.26Z"/></svg>