<svg id="Layer_1" data-name="Layer 1" xmlns="http://www.w3.org/2000/svg" viewBox="0 0 1200 1200"><defs><style>.cls-1{fill:#0a0505;}</style></defs><path class="cls-1" d="M617.55,726.29c3.75-5.76,3.91-11.49,2.16-17.8,1.21-.22,2.41-.46,3.61-.71.8,6.3,2.92,11.32,8.33,15.27,6.32,4.62,14.29,5.77,21.54,8.23a1.8,1.8,0,0,0,2-.82c3.36-6.82,8.09-13.19,9.39-20.84,1.12-6.6-.9-11.72-4.74-16.74,1-.65,2-1.32,3-2,3.06,5.33,6.92,9.12,13.2,10.66,7.63,1.87,15.39-.08,23.06-.58a1.85,1.85,0,0,0,1.79-1.79c.5-7.67,2.45-15.43.58-23.06-1.55-6.3-5.36-10.17-10.72-13.24.69-1,1.36-2,2-3,5,3.86,10.17,5.9,16.8,4.78,7.65-1.3,14-6,20.84-9.39a1.8,1.8,0,0,0,.82-2c-2.46-7.26-3.62-15.2-8.23-21.54-3.89-5.36-8.85-7.48-15-8.3q.39-1.79.72-3.57c6.22,1.67,11.88,1.47,17.57-2.23,6.34-4.14,10.31-10.7,15.21-16.29a1.83,1.83,0,0,0,0-2.52c-4.9-5.59-8.87-12.15-15.21-16.29-5.67-3.69-11.31-3.9-17.51-2.24q-.33-1.79-.72-3.57c6.17-.82,11.1-3,15-8.29,4.62-6.32,5.77-14.29,8.23-21.54a1.8,1.8,0,0,0-.82-2c-6.82-3.36-13.19-8.09-20.84-9.39-6.63-1.12-11.77.92-16.8,4.79-.21-.32-.41-.64-.62-1-.47-.7-1-1.39-1.44-2.07,5.39-3.07,9.22-6.95,10.77-13.27,1.87-7.63-.08-15.39-.58-23.06a1.85,1.85,0,0,0-1.79-1.79c-7.67-.5-15.43-2.45-23.06-.58-6.29,1.54-10.15,5.34-13.21,10.68-1-.7-2-1.38-3-2,3.83-5,5.85-10.13,4.73-16.73-1.3-7.65-6-14-9.39-20.84a1.8,1.8,0,0,0-2-.82c-7.26,2.46-15.2,3.62-21.54,8.23-5.35,3.89-7.48,8.84-8.3,15-1.19-.25-2.38-.48-3.58-.69,1.68-6.23,1.49-11.89-2.22-17.58-4.14-6.34-10.7-10.31-16.29-15.21A1.92,1.92,0,0,0,600,458v5c6.67,8.14,15.37,16.31,14.59,27.49-1.56-.19-3.12-.36-4.69-.49.4-6.81-5.25-11.93-8.36-17.61a1.72,1.72,0,0,0-1.54-.87v5a1.56,1.56,0,0,1,1.67,1.51,1.62,1.62,0,0,1-1.67,1.62V485c2.7,0,3.56,2.54,4.13,4.74-1.38,0-2.75,0-4.13,0V493a107.28,107.28,0,0,1,79.29,35.16c29.85,33.23,36.56,83.78,14.62,123.05A109.73,109.73,0,0,1,649,695.11,105.81,105.81,0,0,1,600,707v3.28c1.39,0,2.77,0,4.15-.09-.56,2.22-1.4,4.84-4.15,4.84v5.24l.2,0a1.59,1.59,0,0,1,1.46,1.65,1.55,1.55,0,0,1-1.66,1.46v5a1.72,1.72,0,0,0,1.54-.87c3.14-5.72,8.85-10.88,8.35-17.77,1.57-.14,3.13-.32,4.69-.53.89,11.28-7.88,19.51-14.58,27.69v5a1.92,1.92,0,0,0,1.26-.5C606.85,736.6,613.41,732.63,617.55,726.29Zm93-130.36c2.15.56,4.53,1.45,4.53,4.07s-2.39,3.51-4.54,4.07V604Q710.68,599.94,710.52,595.93Zm17.07,5.61a1.8,1.8,0,0,0,0-3.08c-5.63-3.09-10.71-8.66-17.44-8.37-.15-1.57-.33-3.13-.54-4.69,11.11-.71,19.27,8,27.37,14.6-8.12,6.65-16.27,15.33-27.41,14.6.21-1.56.39-3.12.54-4.69C716.86,610.22,722,604.63,727.59,601.54Zm-7.3-1.54a1.23,1.23,0,0,1,0-.2,1.59,1.59,0,0,1,1.65-1.46,1.68,1.68,0,0,1-.05,3.33A1.62,1.62,0,0,1,720.29,600ZM646.07,499.48c-1.31-.6-2.63-1.18-4-1.73s-2.39-1-3.6-1.4c1.43-1.86,3.37-3.84,5.87-2.47C646.46,495,646.35,497.41,646.07,499.48Zm2.07-11.36a1.66,1.66,0,0,1-3-1.38,1.53,1.53,0,0,1,2.08-.77A1.55,1.55,0,0,1,648.14,488.12Zm7.27,16.24q-2-1.17-4.09-2.27c2.93-6-.36-12.93-1.05-19.13a1.82,1.82,0,0,0-3-1.27c-4.88,3.92-12.1,6.48-14.25,12.78-1.5-.46-3-.89-4.52-1.29,3.45-10.57,14.79-14.79,24-19.7C655.42,483.46,660.45,494.42,655.41,504.36Zm25.5,20.56q-2.79-3-5.81-5.85c2-1.15,4.36-2.31,6.25-.42S682.07,523,680.91,524.92Zm6.78,8c-1-1.25-1.94-2.49-3-3.7,5.11-4.52,4.77-12.15,6.57-18.36a1.8,1.8,0,0,0-2.2-2.19c-6.2,1.79-13.8,1.45-18.33,6.52-1.2-1-2.42-2-3.67-3,7.35-8.46,19.31-8,29.73-9.08C695.76,513.61,696.23,525.6,687.69,533Zm-2.63-20.36a1.55,1.55,0,0,1,2.21.14,1.57,1.57,0,0,1,.11,2.25,1.62,1.62,0,0,1-2.32,0,.65.65,0,0,1-.13-.16A1.59,1.59,0,0,1,685.06,512.59Zm18.53,48.95c-1-2.57-2-5.1-3.17-7.59,2.09-.3,4.54-.44,5.7,1.67C707.5,558.14,705.46,560.11,703.59,561.54Zm3.22,10c-.41-1.51-.85-3-1.32-4.51,6.32-2.14,8.89-9.38,12.82-14.27a1.82,1.82,0,0,0-1.27-3c-6.23-.69-13.21-4-19.21-1-.73-1.38-1.48-2.75-2.27-4.09,10-5.11,21,0,31,3C721.6,556.77,717.4,568.11,706.81,571.56ZM712,551.82a1.67,1.67,0,0,1,1.18,3.11,1.62,1.62,0,0,1-2-1A1.6,1.6,0,0,1,712,551.82Zm-8.46,86.59c1.9,1.44,4,3.42,2.6,6-1.17,2.14-3.67,2-5.78,1.66C701.5,643.54,702.56,641,703.52,638.41Zm-5.74,12.84c6,3,13-.29,19.26-1a1.82,1.82,0,0,0,1.27-3c-3.94-4.91-6.51-12.18-12.89-14.29.48-1.49.92-3,1.33-4.51,10.62,3.43,14.84,14.79,19.77,24-10,3-21,8.08-31,3C696.31,654,697.06,652.64,697.78,651.25Zm13.35-5.2a1.6,1.6,0,0,1,2.13-.93,1.53,1.53,0,0,1,.77,2.08,1.55,1.55,0,0,1-2.15.94A1.61,1.61,0,0,1,711.13,646.05ZM681,675.24c1.12,1.93,2.19,4.27.34,6.11s-4.17.79-6.1-.34Q678.24,678.25,681,675.24Zm-10.15,9.63c4.53,5,12.1,4.65,18.25,6.44a1.81,1.81,0,0,0,2.2-2.2c-1.79-6.17-1.46-13.74-6.47-18.27q1.47-1.79,2.88-3.65l0-.07c8.45,7.35,8,19.31,9.07,29.72-10.4-1.08-22.33-.61-29.68-9C668.41,686.86,669.65,685.88,670.86,684.87Zm14.2.19a.65.65,0,0,1,.16-.13,1.59,1.59,0,0,1,2.19.13,1.68,1.68,0,0,1-2.39,2.32A1.62,1.62,0,0,1,685.06,685.06ZM648.18,712a1.67,1.67,0,0,1-3.11,1.18,1.62,1.62,0,0,1,1-2A1.6,1.6,0,0,1,648.18,712ZM646,700.33c.3,2.11.49,4.61-1.66,5.79-2.58,1.42-4.58-.76-6-2.67Q642.26,702,646,700.33Zm-13.15,5c2.05,6.47,9.39,9.05,14.33,13a1.82,1.82,0,0,0,3-1.27c.69-6.24,4-13.23,1-19.23,1.38-.72,2.75-1.46,4.11-2.24,5.09,10,0,21-3,30.95-9.25-4.95-20.69-9.19-24-19.95C629.88,706.17,631.39,705.75,632.89,705.29Z"/><path class="cls-1" d="M582.45,473.71c-3.75,5.76-3.91,11.49-2.16,17.8-1.21.22-2.41.46-3.61.71-.8-6.3-2.92-11.32-8.33-15.27-6.32-4.62-14.29-5.77-21.54-8.23a1.8,1.8,0,0,0-2,.82c-3.36,6.82-8.09,13.19-9.39,20.84-1.12,6.6.9,11.72,4.74,16.74-1,.65-2,1.32-3,2-3.06-5.33-6.92-9.12-13.2-10.66-7.63-1.87-15.39.08-23.06.58a1.85,1.85,0,0,0-1.79,1.79c-.5,7.67-2.45,15.43-.58,23.06,1.55,6.3,5.36,10.17,10.72,13.24-.69,1-1.36,2-2,3-5-3.86-10.17-5.9-16.8-4.78-7.65,1.3-14,6-20.84,9.39a1.8,1.8,0,0,0-.82,2c2.46,7.26,3.62,15.2,8.23,21.54,3.89,5.36,8.85,7.48,15.05,8.3q-.39,1.79-.72,3.57c-6.22-1.67-11.88-1.47-17.57,2.23-6.34,4.14-10.31,10.7-15.21,16.29a1.83,1.83,0,0,0,0,2.52c4.9,5.59,8.87,12.15,15.21,16.29,5.67,3.69,11.31,3.9,17.51,2.24q.33,1.79.72,3.57c-6.17.82-11.1,3-15,8.29-4.62,6.32-5.77,14.29-8.23,21.54a1.8,1.8,0,0,0,.82,2c6.82,3.36,13.19,8.09,20.84,9.39,6.63,1.12,11.77-.92,16.8-4.79.21.32.41.64.62,1,.47.7,1,1.39,1.44,2.07-5.39,3.07-9.22,6.95-10.77,13.27-1.87,7.63.08,15.39.58,23.06a1.85,1.85,0,0,0,1.79,1.79c7.67.5,15.43,2.45,23.06.58,6.29-1.54,10.15-5.34,13.21-10.68,1,.7,2,1.38,3,2-3.83,5-5.85,10.13-4.73,16.73,1.3,7.65,6,14,9.39,20.84a1.8,1.8,0,0,0,2,.82c7.26-2.46,15.2-3.62,21.54-8.23,5.35-3.89,7.48-8.84,8.3-15,1.19.25,2.38.48,3.58.69-1.68,6.23-1.49,11.89,2.22,17.58,4.14,6.34,10.7,10.31,16.29,15.21a1.92,1.92,0,0,0,1.26.5v-5c-6.67-8.14-15.37-16.31-14.59-27.49,1.56.19,3.12.36,4.69.49-.4,6.81,5.25,11.93,8.36,17.61a1.72,1.72,0,0,0,1.54.87v-5a1.56,1.56,0,0,1-1.67-1.51,1.62,1.62,0,0,1,1.67-1.62v-5.24c-2.7,0-3.56-2.54-4.13-4.74,1.38,0,2.75,0,4.13,0V707a107.28,107.28,0,0,1-79.29-35.16c-29.85-33.23-36.56-83.78-14.62-123.05A109.73,109.73,0,0,1,551,504.89,105.81,105.81,0,0,1,600,493V489.7c-1.39,0-2.77,0-4.15.09.56-2.22,1.4-4.84,4.15-4.84v-5.24l-.2,0a1.59,1.59,0,0,1-1.46-1.65,1.55,1.55,0,0,1,1.66-1.46v-5a1.72,1.72,0,0,0-1.54.87c-3.14,5.72-8.85,10.88-8.35,17.77-1.57.14-3.13.32-4.69.53C584.53,479.43,593.3,471.2,600,463v-5a1.92,1.92,0,0,0-1.26.5C593.15,463.4,586.59,467.37,582.45,473.71Zm-93,130.36c-2.15-.56-4.53-1.45-4.53-4.07s2.39-3.51,4.54-4.07V596Q489.33,600.06,489.48,604.07Zm-17.07-5.61a1.8,1.8,0,0,0,0,3.08c5.63,3.09,10.71,8.66,17.44,8.37.15,1.57.33,3.13.54,4.69-11.11.71-19.27-8-27.37-14.6,8.12-6.65,16.27-15.33,27.41-14.6-.21,1.56-.39,3.12-.54,4.69C483.14,589.78,478.05,595.37,472.41,598.46Zm7.3,1.54a1.23,1.23,0,0,1,0,.2,1.59,1.59,0,0,1-1.65,1.46,1.68,1.68,0,0,1,0-3.33A1.62,1.62,0,0,1,479.71,600Zm74.22,100.52c1.31.6,2.63,1.18,4,1.73s2.39,1,3.6,1.4c-1.43,1.86-3.37,3.84-5.87,2.47C553.54,705,553.65,702.59,553.93,700.52Zm-2.07,11.36a1.66,1.66,0,0,1,3,1.38,1.53,1.53,0,0,1-2.08.77A1.55,1.55,0,0,1,551.86,711.88Zm-7.27-16.24q2,1.17,4.09,2.27c-2.93,6,.36,12.93,1.05,19.13a1.82,1.82,0,0,0,3,1.27c4.88-3.92,12.1-6.48,14.25-12.78,1.5.46,3,.89,4.52,1.29-3.45,10.57-14.79,14.79-24,19.7C544.58,716.54,539.55,705.58,544.59,695.64Zm-25.5-20.56q2.79,3,5.81,5.85c-2,1.15-4.36,2.31-6.25.42S517.93,677,519.09,675.08Zm-6.78-8c1,1.25,1.94,2.49,3,3.7-5.11,4.52-4.77,12.15-6.57,18.36a1.8,1.8,0,0,0,2.2,2.19c6.2-1.79,13.8-1.45,18.33-6.52,1.2,1,2.42,2,3.67,3-7.35,8.46-19.31,8-29.73,9.08C504.24,686.39,503.77,674.4,512.31,667.05Zm2.63,20.36a1.55,1.55,0,0,1-2.21-.14,1.57,1.57,0,0,1-.11-2.25,1.62,1.62,0,0,1,2.32,0,.65.65,0,0,1,.13.16A1.59,1.59,0,0,1,514.94,687.41Zm-18.53-48.95c1,2.57,2,5.1,3.17,7.59-2.09.3-4.54.44-5.7-1.67C492.5,641.86,494.54,639.89,496.41,638.46Zm-3.22-10c.41,1.51.85,3,1.32,4.51-6.32,2.14-8.89,9.38-12.82,14.27a1.82,1.82,0,0,0,1.27,3c6.23.69,13.21,4,19.21,1,.73,1.38,1.48,2.75,2.27,4.09-10,5.11-21,0-31-3C478.4,643.23,482.6,631.89,493.19,628.44ZM488,648.18a1.67,1.67,0,0,1-1.18-3.11,1.62,1.62,0,0,1,2,1A1.6,1.6,0,0,1,488,648.18Zm8.46-86.59c-1.9-1.44-4-3.42-2.6-6,1.17-2.14,3.67-2,5.78-1.66C498.5,556.46,497.44,559,496.48,561.59Zm5.74-12.84c-6-3-13,.29-19.26,1a1.82,1.82,0,0,0-1.27,3c3.94,4.91,6.51,12.18,12.89,14.29-.48,1.49-.92,3-1.33,4.51-10.62-3.43-14.84-14.79-19.77-24,10-3,21-8.08,31-3C503.69,546,502.94,547.36,502.22,548.75ZM488.87,554a1.6,1.6,0,0,1-2.13.93,1.53,1.53,0,0,1-.77-2.08,1.55,1.55,0,0,1,2.15-.94A1.61,1.61,0,0,1,488.87,554ZM519,524.76c-1.12-1.93-2.19-4.27-.34-6.11s4.17-.79,6.1.34Q521.77,521.75,519,524.76Zm10.15-9.63c-4.53-5-12.1-4.65-18.25-6.44a1.81,1.81,0,0,0-2.2,2.2c1.79,6.17,1.46,13.74,6.47,18.27q-1.47,1.79-2.88,3.65l0,.07c-8.45-7.35-8-19.31-9.07-29.72,10.4,1.08,22.33.61,29.68,9C531.59,513.14,530.35,514.12,529.14,515.13Zm-14.2-.19a.65.65,0,0,1-.16.13,1.59,1.59,0,0,1-2.19-.13,1.68,1.68,0,0,1,2.39-2.32A1.62,1.62,0,0,1,514.94,514.94ZM551.82,488a1.67,1.67,0,0,1,3.11-1.18,1.62,1.62,0,0,1-1,2A1.6,1.6,0,0,1,551.82,488ZM554,499.67c-.3-2.11-.49-4.61,1.66-5.79,2.58-1.42,4.58.76,6,2.67Q557.74,498,554,499.67Zm13.15-5c-2.05-6.47-9.39-9-14.33-13a1.82,1.82,0,0,0-3,1.27c-.69,6.24-4,13.23-1,19.23-1.38.72-2.75,1.46-4.11,2.24-5.09-10,0-21,3-30.95,9.25,4.95,20.69,9.19,24,19.95C570.12,493.83,568.61,494.25,567.11,494.71Z"/><path class="cls-1" d="M633.12,694.05c1.94-5,1.15-9.41-1.16-14,.88-.35,1.75-.72,2.62-1.1,1.59,4.71,4,8.23,8.69,10.41,5.51,2.56,11.71,2.21,17.58,3a1.39,1.39,0,0,0,1.4-.94c1.47-5.75,4-11.37,3.82-17.43-.19-5.23-2.53-8.85-6.22-12.09.68-.66,1.34-1.33,2-2,3.14,3.6,6.66,5.91,11.64,6.11,6.07.25,11.63-2.44,17.35-4a1.43,1.43,0,0,0,1.07-1.65c-.83-6-.58-12.2-3.19-17.76-2.16-4.59-5.65-7-10.19-8.48q.54-1.32,1.05-2.64c4.41,2.18,8.61,2.95,13.44,1.06,5.58-2.18,9.66-6.8,14.28-10.43a1.42,1.42,0,0,0,.3-1.68c-3-5.18-5.13-11.09-9.61-15.23-3.78-3.5-7.86-4.36-12.68-4,0-.95,0-1.9,0-2.85,5,.32,9.21-.71,12.92-4.44,4.14-4.15,6.12-9.79,8.94-14.83a1.46,1.46,0,0,0-.4-1.94c-4.58-3.52-8.61-7.93-14-10.12-4.87-2-9.17-1.23-13.59,1-.36-.88-.73-1.75-1.11-2.62,4.54-1.59,7.93-4,10-8.68,2.49-5.56,2.11-11.84,2.83-17.78a1.4,1.4,0,0,0-.94-1.42c-5.68-1.52-11.24-4.16-17.23-4-5.18.17-8.75,2.53-11.94,6.28-.21-.21-.41-.43-.62-.63-.46-.47-.94-.92-1.41-1.37,3.59-3.19,5.87-6.75,6-11.83.21-6.14-2.48-11.79-4.07-17.58a1.43,1.43,0,0,0-1.63-1.1c-5.88.81-12.05.52-17.52,3.14-4.51,2.15-6.83,5.66-8.31,10.23-.86-.38-1.72-.75-2.6-1.1,2.11-4.43,2.83-8.67,1-13.55-2.19-5.66-6.77-9.81-10.38-14.51a1.38,1.38,0,0,0-1.66-.32c-5.1,3-10.92,5.14-15,9.65-3.43,3.81-4.26,7.93-3.91,12.8-.94,0-1.88,0-2.81,0,.29-5-.75-9.34-4.45-13.13-4.12-4.21-9.71-6.24-14.7-9.12a1.43,1.43,0,0,0-1-.19l.79,3.84c6.31,5.2,14.18,10.12,15.35,18.81-1.21.09-2.42.21-3.62.35-.78-5.28-5.85-8.33-9.09-12.2a1.33,1.33,0,0,0-1.3-.43l.79,3.87a1.2,1.2,0,0,1,1.5.9,1.25,1.25,0,0,1-1,1.49l.83,4c2-.42,3.09,1.39,3.86,3-1,.18-2.08.43-3.12.65l.52,2.52a82.23,82.23,0,0,1,65.46,14.64c27.79,20.82,40.81,58.52,30.4,92a85.17,85.17,0,0,1-27,40.62A80.62,80.62,0,0,1,616.83,682l.52,2.52c1-.22,2.09-.46,3.12-.71-.07,1.78-.3,3.92-2.38,4.35l.83,4,.16,0a1.24,1.24,0,0,1,1.36,1,1.2,1.2,0,0,1-1,1.37l.79,3.87a1.31,1.31,0,0,0,1-.91c1.47-4.87,5-9.71,3.52-14.91,1.16-.35,2.31-.73,3.46-1.13,2.44,8.5-2.89,16.17-6.67,23.48l.79,3.84a1.45,1.45,0,0,0,.88-.58C626.66,703.61,631,699.55,633.12,694.05ZM682.9,579.73c1.71.11,3.65.41,4.06,2.42s-1.26,3.06-2.79,3.83c0,0,0-.06,0-.09Q683.64,582.79,682.9,579.73Zm13.78,1.66a1.42,1.42,0,0,0-.49-2.37c-4.74-1.49-9.46-5-14.5-3.7-.35-1.18-.73-2.35-1.14-3.52,8.29-2.26,15.82,3.12,23,7-5.08,6.35-9.88,14.27-18.42,15.44-.08-1.23-.19-2.45-.33-3.68C689.93,589.71,692.9,584.63,696.68,581.39Zm-5.76,0a1,1,0,0,1,0-.16,1.24,1.24,0,0,1,1-1.37,1.31,1.31,0,0,1,.49,2.55A1.25,1.25,0,0,1,690.92,581.34ZM619,515.82c-1.08-.25-2.17-.49-3.26-.7s-2-.37-2.94-.52c.78-1.64,1.94-3.46,4-2.8C618.6,512.34,618.9,514.2,619,515.82Zm-.22-9a1.23,1.23,0,0,1-1.46.9,1.26,1.26,0,0,1-1-1.49,1.17,1.17,0,0,1,1.45-.91A1.21,1.21,0,0,1,618.79,506.8Zm8.05,11.32c-1.14-.4-2.29-.76-3.45-1.11,1.27-5-2.31-9.85-3.8-14.5a1.4,1.4,0,0,0-2.51-.49c-3.07,3.76-8.12,6.84-8.76,12-1.21-.12-2.41-.22-3.62-.29.95-8.64,8.85-13.62,15-18.81C623.56,502.1,629.09,509.72,626.84,518.12Zm22.51,11.8q-2.6-1.89-5.31-3.59c1.3-1.18,2.93-2.44,4.65-1.29S649.91,528.23,649.35,529.92Zm6.38,5.1c-.92-.81-1.86-1.61-2.81-2.38,3.15-4.25,1.69-10,2.08-15.09a1.4,1.4,0,0,0-2-1.34c-4.4,2.34-10.2,3.25-12.82,7.85-1.07-.6-2.15-1.17-3.25-1.72,4.23-7.62,13.34-9.13,21.05-11.57C658.79,519,661,528.06,655.73,535Zm-5.19-15.2a1.2,1.2,0,0,1,1.7-.23,1.22,1.22,0,0,1,.43,1.7,1.24,1.24,0,0,1-1.76.34l-.12-.11A1.26,1.26,0,0,1,650.54,519.82Zm21.71,34.64c-1.14-1.82-2.33-3.6-3.59-5.33,1.53-.55,3.36-1,4.57.4C674.67,551.24,673.44,553.07,672.25,554.46Zm4,7.17c-.55-1.09-1.12-2.17-1.71-3.25,4.44-2.61,5.25-8.57,7.45-12.91a1.43,1.43,0,0,0-1.44-2.15c-4.82.44-10.62-1-14.68,2.21-.77-.95-1.55-1.88-2.36-2.79,6.73-5.45,15.84-3.29,23.87-2.53C685.11,548,683.72,557.35,676.26,561.63Zm.8-15.92a1.18,1.18,0,0,1,1.73.47,1.21,1.21,0,0,1-.35,1.73,1.23,1.23,0,0,1-1.68-.44A1.24,1.24,0,0,1,677.06,545.71Zm7.23,67.67c1.65.8,3.56,2,2.9,4.17-.55,1.81-2.46,2.07-4.1,2.16C683.56,617.62,684,615.5,684.29,613.38ZM682,624.11c5,1.4,9.79-2.25,14.4-3.75a1.42,1.42,0,0,0,.48-2.53c-3.75-3.15-6.84-8.32-12-9,.12-1.22.22-2.44.29-3.66,8.58,1,13.55,9,18.72,15.31-7.09,3.87-14.61,9.46-23,7.07C681.29,626.44,681.64,625.28,682,624.11Zm9.27-6.06a1.23,1.23,0,0,1,1.47-1,1.22,1.22,0,0,1,.9,1.48,1.19,1.19,0,0,1-1.48,1A1.26,1.26,0,0,1,691.24,618.05Zm-18.18,27c1.16,1.3,2.33,2.93,1.22,4.63s-3,1.25-4.66.69C670.83,648.69,672,646.91,673.06,645.09ZM666.91,654c4.21,3.11,9.87,1.69,14.8,2.1a1.4,1.4,0,0,0,1.32-2c-2.33-4.45-3.26-10.3-7.76-13,.55-1.07,1.09-2.15,1.6-3.24l0-.06c7.55,4.32,9.08,13.55,11.54,21.37-8,.78-17,3-23.86-2.32C665.37,655.94,666.15,655,666.91,654ZM677.67,652l.1-.12a1.21,1.21,0,0,1,1.68-.24,1.23,1.23,0,0,1,.24,1.72,1.2,1.2,0,0,1-1.68.43A1.29,1.29,0,0,1,677.67,652ZM654,678.34a1.2,1.2,0,0,1-.46,1.74,1.18,1.18,0,0,1-1.7-.36,1.25,1.25,0,0,1,.42-1.7A1.22,1.22,0,0,1,654,678.34Zm-3.45-8.6c.56,1.57,1.09,3.46-.34,4.69-1.73,1.49-3.59.13-5-1.11Q648,671.63,650.58,669.74Zm-9.16,5.84c2.56,4.64,8.52,5.48,12.88,7.75a1.39,1.39,0,0,0,2.1-1.44c-.45-4.89,1-10.76-2.27-14.9q1.41-1.14,2.76-2.34c5.41,6.84,3.33,16,2.62,24.17-7.77-2.36-17.08-3.83-21.31-11.56C639.29,676.72,640.36,676.16,641.42,675.58Z"/><path class="cls-1" d="M566.88,506c-1.94,5-1.15,9.41,1.16,14-.88.35-1.75.72-2.62,1.1-1.59-4.71-4-8.23-8.69-10.41-5.51-2.56-11.71-2.21-17.58-3a1.39,1.39,0,0,0-1.4.94c-1.47,5.75-4,11.37-3.82,17.43.19,5.23,2.53,8.85,6.22,12.09-.68.66-1.34,1.33-2,2-3.14-3.6-6.66-5.91-11.64-6.11-6.07-.25-11.63,2.44-17.35,4a1.43,1.43,0,0,0-1.07,1.65c.83,6,.58,12.2,3.19,17.76,2.16,4.59,5.65,7,10.19,8.48q-.54,1.32-1.05,2.64c-4.41-2.18-8.61-2.95-13.44-1.06-5.58,2.18-9.66,6.8-14.28,10.43a1.42,1.42,0,0,0-.3,1.68c3,5.18,5.13,11.09,9.61,15.23,3.78,3.5,7.86,4.36,12.68,4,0,.95,0,1.9,0,2.85-5-.32-9.21.71-12.92,4.44-4.14,4.15-6.12,9.79-8.94,14.83a1.46,1.46,0,0,0,.4,1.94c4.58,3.52,8.61,7.93,14.05,10.12,4.87,2,9.17,1.23,13.59-1,.36.88.73,1.75,1.11,2.62-4.54,1.59-7.93,4-10,8.68-2.49,5.56-2.11,11.84-2.83,17.78a1.4,1.4,0,0,0,.94,1.42c5.68,1.52,11.24,4.16,17.23,4,5.18-.17,8.75-2.53,11.94-6.28.21.21.41.43.62.63.46.47.94.92,1.41,1.37-3.59,3.19-5.87,6.75-6,11.83-.21,6.14,2.48,11.79,4.07,17.58a1.43,1.43,0,0,0,1.63,1.1c5.88-.81,12.05-.52,17.52-3.14,4.51-2.15,6.83-5.66,8.31-10.23.86.38,1.72.75,2.6,1.1-2.11,4.43-2.83,8.67-1,13.55,2.19,5.66,6.77,9.81,10.38,14.51a1.38,1.38,0,0,0,1.66.32c5.1-3,10.92-5.14,15-9.65,3.43-3.81,4.26-7.93,3.91-12.8.94,0,1.88,0,2.81,0-.29,5,.75,9.34,4.45,13.13,4.12,4.21,9.71,6.24,14.7,9.12a1.43,1.43,0,0,0,1,.19l-.79-3.84c-6.31-5.2-14.18-10.12-15.35-18.81,1.21-.09,2.42-.21,3.62-.35.78,5.28,5.85,8.33,9.09,12.2a1.33,1.33,0,0,0,1.3.43l-.79-3.87a1.2,1.2,0,0,1-1.5-.9,1.25,1.25,0,0,1,1-1.49l-.83-4c-2,.42-3.09-1.39-3.86-3,1-.18,2.08-.43,3.12-.65l-.52-2.52a82.23,82.23,0,0,1-65.46-14.64c-27.79-20.82-40.81-58.52-30.4-92a85.17,85.17,0,0,1,27-40.62A80.62,80.62,0,0,1,583.17,518l-.52-2.52c-1,.22-2.09.46-3.12.71.07-1.78.3-3.92,2.38-4.35l-.83-4-.16,0a1.24,1.24,0,0,1-1.36-1,1.2,1.2,0,0,1,1-1.37l-.79-3.87a1.31,1.31,0,0,0-1,.91c-1.47,4.87-5,9.71-3.52,14.91-1.16.35-2.31.73-3.46,1.13-2.44-8.5,2.89-16.17,6.67-23.48l-.79-3.84a1.45,1.45,0,0,0-.88.58C573.34,496.39,569,500.45,566.88,506ZM517.1,620.27c-1.71-.11-3.65-.41-4.06-2.42s1.26-3.06,2.79-3.83c0,0,0,.06,0,.09Q516.36,617.21,517.1,620.27Zm-13.78-1.66a1.42,1.42,0,0,0,.49,2.37c4.74,1.49,9.46,5,14.5,3.7.35,1.18.73,2.35,1.14,3.52-8.29,2.26-15.82-3.12-23-7,5.08-6.35,9.88-14.27,18.42-15.44.08,1.23.19,2.45.33,3.68C510.07,610.29,507.1,615.37,503.32,618.61Zm5.76,0a1,1,0,0,1,0,.16,1.24,1.24,0,0,1-1,1.37,1.31,1.31,0,0,1-.49-2.55A1.25,1.25,0,0,1,509.08,618.66ZM581,684.18c1.08.25,2.17.49,3.26.7s2,.37,2.94.52c-.78,1.64-1.94,3.46-4,2.8C581.4,687.66,581.1,685.8,581,684.18Zm.22,9a1.23,1.23,0,0,1,1.46-.9,1.26,1.26,0,0,1,1,1.49,1.17,1.17,0,0,1-1.45.91A1.21,1.21,0,0,1,581.21,693.2Zm-8.05-11.32c1.14.4,2.29.76,3.45,1.11-1.27,5,2.31,9.85,3.8,14.5a1.4,1.4,0,0,0,2.51.49c3.07-3.76,8.12-6.84,8.76-12,1.21.12,2.41.22,3.62.29-.95,8.64-8.85,13.62-15,18.81C576.44,697.9,570.91,690.28,573.16,681.88Zm-22.51-11.8q2.6,1.89,5.31,3.59c-1.3,1.18-2.93,2.44-4.65,1.29S550.09,671.77,550.65,670.08Zm-6.38-5.1c.92.81,1.86,1.61,2.81,2.38-3.15,4.25-1.69,10-2.08,15.09a1.4,1.4,0,0,0,2,1.34c4.4-2.34,10.2-3.25,12.82-7.85,1.07.6,2.15,1.17,3.25,1.72-4.23,7.62-13.34,9.13-21.05,11.57C541.21,681.05,539,671.94,544.27,665Zm5.19,15.2a1.2,1.2,0,0,1-1.7.23,1.22,1.22,0,0,1-.43-1.7,1.24,1.24,0,0,1,1.76-.34l.12.11A1.26,1.26,0,0,1,549.46,680.18Zm-21.71-34.64c1.14,1.82,2.33,3.6,3.59,5.33-1.53.55-3.36,1-4.57-.4C525.33,648.76,526.56,646.93,527.75,645.54Zm-4-7.17c.55,1.09,1.12,2.17,1.71,3.25-4.44,2.61-5.25,8.57-7.45,12.91a1.43,1.43,0,0,0,1.44,2.15c4.82-.44,10.62,1,14.68-2.21.77.95,1.55,1.88,2.36,2.79-6.73,5.45-15.84,3.29-23.87,2.53C514.89,652,516.28,642.65,523.74,638.37Zm-.8,15.92a1.18,1.18,0,0,1-1.73-.47,1.21,1.21,0,0,1,.35-1.73,1.23,1.23,0,0,1,1.68.44A1.24,1.24,0,0,1,522.94,654.29Zm-7.23-67.67c-1.65-.8-3.56-2-2.9-4.17.55-1.81,2.46-2.07,4.1-2.16C516.44,582.38,516,584.5,515.71,586.62ZM518,575.89c-5-1.4-9.79,2.25-14.4,3.75a1.42,1.42,0,0,0-.48,2.53c3.75,3.15,6.84,8.32,12,9-.12,1.22-.22,2.44-.29,3.66-8.58-1-13.55-9-18.72-15.31,7.09-3.87,14.61-9.46,23-7.07C518.71,573.56,518.36,574.72,518,575.89ZM508.76,582a1.23,1.23,0,0,1-1.47,1,1.22,1.22,0,0,1-.9-1.48,1.19,1.19,0,0,1,1.48-1A1.26,1.26,0,0,1,508.76,582Zm18.18-27c-1.16-1.3-2.33-2.93-1.22-4.63s3-1.25,4.66-.69C529.17,551.31,528,553.09,526.94,554.91Zm6.15-8.95c-4.21-3.11-9.87-1.69-14.8-2.1a1.4,1.4,0,0,0-1.32,2c2.33,4.45,3.26,10.3,7.76,13-.55,1.07-1.09,2.15-1.6,3.24l0,.06c-7.55-4.32-9.08-13.55-11.54-21.37,8-.78,17-3,23.86,2.32C534.63,544.06,533.85,545,533.09,546ZM522.33,548l-.1.12a1.21,1.21,0,0,1-1.68.24,1.23,1.23,0,0,1-.24-1.72,1.2,1.2,0,0,1,1.68-.43A1.29,1.29,0,0,1,522.33,548ZM546,521.66a1.2,1.2,0,0,1,.46-1.74,1.18,1.18,0,0,1,1.7.36,1.25,1.25,0,0,1-.42,1.7A1.22,1.22,0,0,1,546,521.66Zm3.45,8.6c-.56-1.57-1.09-3.46.34-4.69,1.73-1.49,3.59-.13,5,1.11Q552,528.38,549.42,530.26Zm9.16-5.84c-2.56-4.64-8.52-5.48-12.88-7.75a1.39,1.39,0,0,0-2.1,1.44c.45,4.89-1,10.76,2.27,14.9q-1.41,1.14-2.76,2.34c-5.41-6.84-3.33-16-2.62-24.17,7.77,2.36,17.08,3.83,21.31,11.56C560.71,523.28,559.64,523.84,558.58,524.42Z"/><path class="cls-1" d="M581.94,674.1c3.35-2.38,4.7-5.52,5.12-9.42.72.15,1.44.28,2.16.41-.94,3.67-.87,6.93,1.27,10.31,2.49,4,6.66,6.35,10.15,9.31a1.07,1.07,0,0,0,1.3,0c3.37-3,7.4-5.54,9.8-9.51,2.08-3.41,2.08-6.7,1.06-10.33q1.07-.21,2.13-.45c.52,3.63,1.84,6.59,5,8.82,3.83,2.72,8.57,3.35,12.94,4.76a1.1,1.1,0,0,0,1.38-.6c2-4.15,4.76-8,5.4-12.68.53-3.84-.73-6.83-3-9.71.61-.41,1.2-.83,1.79-1.25,2,3.26,4.35,5.52,8.28,6.35,4.53,1,9.11-.26,13.64-.62a1.08,1.08,0,0,0,.9-.94c.23-4.58,1.33-9.24.17-13.78-1-3.83-3.27-6.1-6.53-7.92.4-.6.8-1.21,1.19-1.83,3.08,2.3,6.27,3.44,10.24,2.63,4.43-.9,8.08-3.67,12-5.69a1.11,1.11,0,0,0,.56-1.41c-1.49-4.18-2.25-8.69-4.86-12.39-2.34-3.3-5.42-4.65-9.23-5.1.14-.71.27-1.42.38-2.14,3.61.9,6.82.8,10.15-1.3,4-2.5,6.35-6.67,9.32-10.15a1.08,1.08,0,0,0,0-1.3c-3.05-3.37-5.55-7.4-9.51-9.81-3.43-2.08-6.74-2.08-10.39-1,0-.22-.08-.44-.13-.66-.11-.49-.23-1-.34-1.47,3.66-.52,6.65-1.83,8.9-5,2.71-3.83,3.34-8.57,4.75-12.94a1.1,1.1,0,0,0-.6-1.39c-4.15-2-8-4.75-12.68-5.39-3.83-.53-6.81.72-9.69,3-.4-.61-.8-1.21-1.22-1.8,3.23-1.94,5.48-4.34,6.31-8.25,1-4.53-.26-9.12-.63-13.64a1.07,1.07,0,0,0-.94-.9c-4.57-.23-9.24-1.34-13.78-.17-3.82,1-6.09,3.26-7.91,6.52-.61-.4-1.22-.79-1.84-1.17,2.31-3.09,3.44-6.28,2.64-10.26-.91-4.43-3.67-8.08-5.7-12a1.09,1.09,0,0,0-.59-.55L630.15,524c1.92,6,5,12.45,2.06,18.49-.83-.46-1.66-.89-2.5-1.31,1.72-3.7-.29-7.78-.76-11.62a1.06,1.06,0,0,0-.67-.83l-1.11,2.81a.92.92,0,0,1,.59,1.2,1,1,0,0,1-1.28.53l-1.15,2.91c1.5.6,1.41,2.2,1.25,3.54-.76-.32-1.53-.6-2.3-.9l-.72,1.82a64.11,64.11,0,0,1,36.29,37c9.27,25,1.87,54.57-19,71.55a65.58,65.58,0,0,1-34.62,14.5,63.24,63.24,0,0,1-29.82-4.17l-.72,1.82c.77.31,1.54.59,2.33.86-.81,1.11-1.85,2.39-3.38,1.78l-1.15,2.91.11.06a1,1,0,0,1,.45,1.23.93.93,0,0,1-1.25.45l-1.11,2.8a1,1,0,0,0,1-.15c3-2.48,7.3-4.09,8.55-8,.9.26,1.81.51,2.72.73-2,6.46-8.67,9.1-14.2,12.17l-1.1,2.79a1.19,1.19,0,0,0,.81,0C573.73,677.47,578.25,676.7,581.94,674.1Zm80.34-51.93c1.06.78,2.19,1.8,1.61,3.25s-2.1,1.43-3.42,1.27l0-.07C661.15,625.16,661.74,623.67,662.28,622.17Zm8.24,6.87a1.08,1.08,0,0,0,.68-1.71c-2.45-3-4.05-7.17-7.85-8.49.27-.9.51-1.81.74-2.72,6.32,2,8.94,8.66,12,14.13-6,1.91-12.41,4.93-18.44,2.08.47-.82.91-1.65,1.34-2.49C662.65,631.5,666.71,629.52,670.52,629Zm-3.72-2.46.06-.11a1,1,0,0,1,1.24-.45.94.94,0,0,1,.44,1.25.92.92,0,0,1-1.2.59A1,1,0,0,1,666.8,626.58Zm-19.09-72.17c-.59-.62-1.19-1.23-1.81-1.83s-1.12-1.06-1.69-1.57c1.2-.72,2.71-1.39,3.8-.08C648.91,552,648.32,553.33,647.71,554.41Zm3.65-5.85a1,1,0,0,1-1.32,0,1,1,0,0,1,0-1.39.92.92,0,0,1,1.33,0A.93.93,0,0,1,651.36,548.56Zm.47,10.62c-.58-.73-1.17-1.45-1.78-2.16,3-2.68,2.65-7.26,3.63-10.86a1.08,1.08,0,0,0-1.41-1.37c-3.57,1.1-8.15.93-10.73,4-.73-.59-1.47-1.16-2.23-1.71,4.25-5.12,11.47-5,17.65-5.67C656.43,547.57,656.82,554.77,651.83,559.18Zm9.63,17c-.59-1.53-1.23-3-1.94-4.52,1.35-.21,2.93-.33,3.57,1.14S662.54,575.38,661.46,576.21Zm2,5.95c-.26-.9-.53-1.81-.83-2.7,3.84-1.38,5.33-5.7,7.69-8.75a1.07,1.07,0,0,0-.73-1.7c-3.84-.37-8-2.23-11.62-.41q-.66-1.25-1.38-2.46c5.94-3.09,12.49-.2,18.51,1.49C672.2,573.2,669.82,580,663.46,582.16Zm3-11.88a1,1,0,0,1,.76,1.83,1,1,0,0,1-1.28-.53.45.45,0,0,1,0-.11A1,1,0,0,1,666.48,570.28ZM666,601.54c0-1.64,0-3.28-.09-4.91,1.22.3,2.62.75,2.8,2.18C668.92,600.51,667.35,601.16,666,601.54Zm-.42,6.27c.11-.93.19-1.86.26-2.79,4,.2,7-3.25,10.26-5.1a1.08,1.08,0,0,0,0-2c-3.31-1.76-6.46-5.14-10.45-4.79-.1-.93-.22-1.86-.36-2.78,6.66-.64,11.65,4.59,16.54,8.47C677.05,602.86,672.22,608.23,665.58,607.81ZM672.8,598a1,1,0,0,1,0,2,1,1,0,0,1,0-2ZM649,644.22c.73,1.21,1.46,2.77.12,3.89-1.11.92-2.46.28-3.57-.35Q647.38,646.05,649,644.22Zm-6,5.87c2.67,3,7.29,2.7,10.91,3.69a1.09,1.09,0,0,0,1.38-1.42c-1.11-3.59-.93-8.19-4-10.77.59-.72,1.16-1.46,1.72-2.21,5.15,4.24,5,11.48,5.71,17.67-6.23-.52-13.46-.13-17.87-5.18C641.6,651.29,642.32,650.7,643,650.09Zm8.56,0a1,1,0,0,1,1.39,0,.92.92,0,0,1,0,1.32.93.93,0,0,1-1.41.05A1,1,0,0,1,651.58,650.14Zm-23.15,9.58c.19,1.32.27,2.85-1.16,3.46s-2.49-.48-3.31-1.53C625.46,661.07,627,660.42,628.43,659.72Zm-7.76,3.11c1.42,3.76,5.69,5.25,8.72,7.59a1.07,1.07,0,0,0,1.7-.74c.37-3.82,2.22-7.95.43-11.56.81-.45,1.61-.92,2.4-1.4l.05,0c3.07,5.95.19,12.49-1.51,18.51-5.54-2.89-12.26-5.26-14.49-11.55C618.87,663.39,619.77,663.12,620.67,662.83Zm7.84,3.23.12,0a1,1,0,0,1,1.19.56.92.92,0,0,1-.57,1.19.93.93,0,0,1-1.27-.43A1,1,0,0,1,628.51,666.06Zm-26.4,6.83a.93.93,0,0,1-1,.92.91.91,0,0,1-1-.95,1,1,0,0,1,2,0Zm1.37-6.94c-.3,1.24-.74,2.67-2.19,2.85-1.75.22-2.38-1.43-2.76-2.81C600.18,666,601.83,666,603.48,666Zm-8.39-.14c-.29,4,3.22,7.1,5.09,10.38a1.08,1.08,0,0,0,2,0c1.76-3.31,5.15-6.46,4.79-10.46.93-.09,1.85-.2,2.78-.33.63,6.65-4.59,11.64-8.47,16.53-4-4.79-9.46-9.66-9-16.37C593.22,665.64,594.15,665.73,595.09,665.81Z"/><path class="cls-1" d="M618.06,526.1c-3.35,2.37-4.7,5.52-5.12,9.41-.72-.15-1.44-.28-2.16-.4.94-3.68.87-6.93-1.27-10.32-2.49-3.95-6.66-6.35-10.15-9.31a1.07,1.07,0,0,0-1.3,0c-3.37,3-7.4,5.54-9.8,9.51-2.08,3.42-2.08,6.71-1.06,10.34-.71.13-1.42.28-2.13.44-.52-3.63-1.84-6.58-5-8.82-3.83-2.72-8.57-3.35-12.94-4.75a1.09,1.09,0,0,0-1.38.59c-2,4.15-4.76,8-5.4,12.69-.53,3.83.73,6.82,3,9.71-.61.4-1.2.82-1.79,1.24-2-3.25-4.35-5.52-8.28-6.35-4.53-1-9.11.26-13.64.63a1.06,1.06,0,0,0-.9.94c-.23,4.57-1.33,9.24-.17,13.77,1,3.83,3.27,6.11,6.53,7.93-.4.6-.8,1.2-1.19,1.82-3.08-2.3-6.27-3.44-10.24-2.63-4.43.9-8.08,3.67-12,5.69a1.11,1.11,0,0,0-.56,1.41c1.49,4.18,2.25,8.7,4.86,12.39,2.34,3.3,5.42,4.66,9.23,5.1-.14.71-.27,1.42-.38,2.14-3.61-.9-6.82-.8-10.15,1.3-4,2.5-6.35,6.67-9.32,10.15a1.1,1.1,0,0,0,0,1.31c3.05,3.37,5.55,7.4,9.51,9.8,3.43,2.08,6.74,2.08,10.39,1,0,.22.08.44.13.66.11.5.23,1,.34,1.47-3.66.52-6.65,1.83-8.9,5-2.71,3.82-3.34,8.56-4.75,12.93a1.1,1.1,0,0,0,.6,1.39c4.15,2,8,4.76,12.68,5.4,3.83.53,6.81-.73,9.69-3,.4.6.8,1.2,1.22,1.8-3.23,1.93-5.48,4.33-6.31,8.24-1,4.54.26,9.12.63,13.65a1.09,1.09,0,0,0,.94.9c4.57.23,9.24,1.33,13.78.17,3.82-1,6.09-3.27,7.91-6.52.61.4,1.22.79,1.84,1.17-2.31,3.08-3.44,6.27-2.64,10.25.91,4.43,3.67,8.08,5.7,12a1.14,1.14,0,0,0,.59.56l1.11-2.79c-1.92-6-5-12.44-2.06-18.48.83.45,1.66.89,2.5,1.3-1.72,3.7.29,7.79.76,11.62a1,1,0,0,0,.67.83l1.11-2.8a.93.93,0,0,1-.59-1.21,1,1,0,0,1,1.28-.53l1.15-2.91c-1.5-.6-1.41-2.19-1.25-3.54.76.33,1.53.6,2.3.9l.72-1.82a64.06,64.06,0,0,1-36.29-37c-9.27-25-1.87-54.58,19-71.56a65.58,65.58,0,0,1,34.62-14.5,63.24,63.24,0,0,1,29.82,4.17l.72-1.82c-.77-.3-1.54-.59-2.33-.86.81-1.11,1.85-2.38,3.38-1.78l1.15-2.91-.11,0a1,1,0,0,1-.45-1.24.94.94,0,0,1,1.25-.44l1.11-2.81a1.06,1.06,0,0,0-1,.15c-3,2.49-7.3,4.09-8.55,8-.9-.27-1.81-.51-2.72-.74,2-6.46,8.67-9.1,14.2-12.17l1.1-2.78a1.08,1.08,0,0,0-.81,0C626.27,522.73,621.75,523.49,618.06,526.1ZM537.72,578c-1.06-.79-2.19-1.8-1.61-3.26s2.1-1.42,3.42-1.26l0,.06Q538.53,575.76,537.72,578Zm-8.24-6.88a1.09,1.09,0,0,0-.68,1.72c2.45,3,4.05,7.16,7.85,8.48-.27.9-.51,1.81-.74,2.73-6.32-2.06-8.94-8.67-12-14.14,6-1.9,12.41-4.93,18.44-2.07-.47.82-.91,1.64-1.34,2.48C537.35,568.69,533.29,570.68,529.48,571.15Zm3.72,2.47-.06.1a1,1,0,0,1-1.24.45.92.92,0,0,1-.44-1.24.94.94,0,0,1,1.2-.6A1,1,0,0,1,533.2,573.62Zm19.09,72.16c.59.62,1.19,1.23,1.81,1.83s1.12,1.06,1.69,1.57c-1.2.72-2.71,1.39-3.8.08C551.09,648.17,551.68,646.87,552.29,645.78Zm-3.65,5.85a1,1,0,0,1,1.32,0,1,1,0,0,1,0,1.39,1,1,0,0,1-1.37-1.44ZM548.17,641c.58.73,1.17,1.46,1.78,2.17-3,2.67-2.65,7.25-3.63,10.85a1.08,1.08,0,0,0,1.41,1.38c3.57-1.11,8.15-.94,10.73-4,.73.58,1.47,1.15,2.23,1.71-4.25,5.11-11.47,5-17.65,5.67C543.57,652.62,543.18,645.42,548.17,641Zm-9.63-17c.59,1.53,1.23,3,1.94,4.53-1.35.21-2.93.32-3.57-1.14S537.46,624.82,538.54,624Zm-2-6c.26.91.53,1.81.83,2.7-3.84,1.39-5.33,5.7-7.69,8.75a1.08,1.08,0,0,0,.73,1.71c3.84.36,8,2.23,11.62.41q.66,1.24,1.38,2.46c-5.94,3.08-12.49.19-18.51-1.5C527.8,627,530.18,620.23,536.54,618Zm-3,11.89a.94.94,0,0,1-1.2-.57.93.93,0,0,1,.44-1.27,1,1,0,0,1,1.28.53.53.53,0,0,1,0,.12A1,1,0,0,1,533.52,629.92Zm.48-31.27c0,1.64,0,3.28.09,4.91-1.22-.29-2.62-.75-2.8-2.18C531.08,599.68,532.65,599,534,598.65Zm.42-6.27c-.11.93-.19,1.86-.26,2.79-4-.2-7,3.26-10.26,5.1a1.09,1.09,0,0,0,0,2c3.31,1.75,6.46,5.13,10.45,4.79.1.93.22,1.85.36,2.77-6.66.64-11.65-4.59-16.54-8.46C523,597.33,527.78,592,534.42,592.38Zm-7.22,9.82a1,1,0,0,1,0-2,1,1,0,0,1,0,2ZM551,556c-.73-1.21-1.46-2.77-.12-3.88,1.11-.93,2.46-.28,3.57.35Q552.63,554.14,551,556Zm6-5.86c-2.67-3-7.29-2.71-10.91-3.7a1.09,1.09,0,0,0-1.38,1.42c1.11,3.59.93,8.19,4,10.77-.59.73-1.16,1.46-1.72,2.21-5.15-4.24-5-11.48-5.71-17.67,6.23.53,13.46.14,17.87,5.19C558.4,548.91,557.68,549.5,557,550.11Zm-8.56-.05a1,1,0,0,1-1.39.05,1,1,0,0,1,1.44-1.38A1,1,0,0,1,548.42,550.06Zm23.15-9.58c-.19-1.32-.27-2.85,1.16-3.47s2.49.48,3.31,1.53C574.54,539.13,573,539.77,571.57,540.48Zm7.76-3.11c-1.42-3.77-5.69-5.25-8.72-7.6a1.07,1.07,0,0,0-1.7.74c-.37,3.82-2.22,8-.43,11.57-.81.44-1.61.91-2.4,1.39l-.05,0c-3.07-5.94-.19-12.48,1.51-18.51,5.54,2.89,12.26,5.26,14.49,11.56C581.13,536.8,580.23,537.07,579.33,537.37Zm-7.84-3.24-.12,0a.94.94,0,0,1-1.19-.56.92.92,0,0,1,.57-1.19.93.93,0,0,1,1.27.43A1,1,0,0,1,571.49,534.13Zm26.4-6.83a.93.93,0,0,1,1-.92.91.91,0,0,1,1,1,1,1,0,0,1-2,0Zm-1.37,6.94c.3-1.24.74-2.67,2.19-2.85,1.75-.22,2.38,1.43,2.76,2.81C599.82,534.15,598.17,534.17,596.52,534.24Zm8.39.15c.29-4-3.22-7.1-5.09-10.39a1.08,1.08,0,0,0-2,0c-1.76,3.31-5.15,6.46-4.79,10.46-.93.09-1.85.21-2.78.34-.63-6.65,4.59-11.65,8.47-16.54,4,4.79,9.46,9.66,9,16.38C606.78,534.55,605.85,534.46,604.91,534.39Z"/><path class="cls-1" d="M597.69,659.62a9.67,9.67,0,0,0,2.43-8c.57,0,1.13,0,1.7,0a9.57,9.57,0,0,0,2.54,7.69c2.49,2.63,6,3.8,9.1,5.52a.83.83,0,0,0,1-.22c2.08-2.86,4.74-5.42,6-8.84a9.64,9.64,0,0,0-.79-8.08c.51-.21,1-.44,1.54-.68a9.33,9.33,0,0,0,5.12,6c3.31,1.48,7,1.2,10.52,1.59a.87.87,0,0,0,1-.68c.85-3.49,2.36-6.91,2.13-10.57a9.42,9.42,0,0,0-3.78-7c.39-.41.78-.82,1.16-1.24a9.3,9.3,0,0,0,7.23,3.55c3.58,0,6.86-1.65,10.23-2.65a.83.83,0,0,0,.53-.86c-.52-3.54-.4-7.29-2-10.58a9.33,9.33,0,0,0-6.16-5c.22-.53.42-1.06.62-1.59a9.28,9.28,0,0,0,8.16.38c3.21-1.39,5.55-4.09,8.22-6.27a.86.86,0,0,0,.21-1.16c-1.77-3-3-6.3-5.58-8.71a9.22,9.22,0,0,0-7.76-2.44c0-.57,0-1.14,0-1.7a9.36,9.36,0,0,0,7.48-2.61c2.61-2.54,3.78-6.12,5.49-9.26a.84.84,0,0,0-.21-1c-2.82-2.1-5.33-4.78-8.7-6a9.33,9.33,0,0,0-8,.86l-.21-.49c-.15-.36-.32-.71-.48-1.07a9.42,9.42,0,0,0,6-5.24c1.47-3.36,1.22-7.09,1.62-10.66a.85.85,0,0,0-.67-1c-3.44-.85-6.8-2.37-10.42-2.12a9.39,9.39,0,0,0-6.87,3.85c-.39-.4-.79-.79-1.2-1.18a9.6,9.6,0,0,0,3.51-7.31c0-3.63-1.6-6.94-2.57-10.35a.83.83,0,0,0-.85-.54c-3.49.55-7.19.45-10.44,2.06a9.49,9.49,0,0,0-5,6.25c-.52-.21-1-.41-1.57-.6a9.63,9.63,0,0,0,.42-8.27c-1.36-3.25-4-5.61-6.16-8.31a.89.89,0,0,0-.53-.33l-.41,2.31c2.37,4.28,5.65,8.74,4.39,13.82-.69-.21-1.39-.41-2.09-.6.73-3.1-1.41-5.91-2.36-8.77a.79.79,0,0,0-.63-.53L610,543.3a.72.72,0,0,1,.63.83.75.75,0,0,1-.88.61l-.43,2.41c1.22.22,1.41,1.46,1.49,2.51-.62-.13-1.25-.22-1.88-.32l-.26,1.51a49.17,49.17,0,0,1,33.13,22.54c10.84,17.69,9.78,41.49-3.38,57.8a51,51,0,0,1-24,16.61,48.21,48.21,0,0,1-23.2,1.54l-.26,1.52,1.89.29c-.44,1-1,2.11-2.28,1.89l-.43,2.41.1,0a.73.73,0,0,1,.52.87.72.72,0,0,1-.87.54l-.41,2.32a.79.79,0,0,0,.77-.27c1.89-2.39,4.9-4.3,5.24-7.51.72.06,1.44.1,2.17.13-.52,5.26-5.17,8.35-8.87,11.57l-.41,2.31a.81.81,0,0,0,.61-.13C592,663.51,595.3,662.21,597.69,659.62Zm52.81-52.53c.93.43,1.94,1,1.72,2.24s-1.37,1.42-2.39,1.51v-.05C650.11,609.56,650.33,608.33,650.5,607.09Zm7.29,3.95a.85.85,0,0,0,.25-1.42c-2.31-1.87-4.16-4.84-7.24-5.25.07-.73.11-1.46.14-2.2,5.1.57,8.1,5.21,11.24,8.92-4.23,2.41-8.64,5.75-13.63,4.52.22-.7.43-1.41.62-2.12C652.21,614.18,655,612,657.79,611Zm-3.19-1.29,0-.09a.73.73,0,0,1,.86-.54.78.78,0,0,1-.29,1.52A.74.74,0,0,1,654.6,609.75Zm-25.51-52.22c-.55-.38-1.1-.75-1.66-1.11s-1-.63-1.52-.93c.8-.74,1.84-1.5,2.87-.67C629.63,555.51,629.38,556.6,629.09,557.53Zm1.86-5.06a.73.73,0,0,1-1,.18.76.76,0,0,1-.25-1.06.71.71,0,0,1,1-.18A.72.72,0,0,1,631,552.47Zm2,8.06c-.55-.47-1.1-.93-1.67-1.37,1.81-2.52.89-6,1.08-8.89a.84.84,0,0,0-1.28-.83c-2.54,1.41-6,2-7.51,4.74-.65-.34-1.29-.65-1.95-1,2.43-4.59,7.92-5.62,12.48-7.14C634.63,550.91,636,556.36,632.93,560.53ZM642.84,572c-.69-1.08-1.41-2.13-2.17-3.16,1-.37,2.17-.71,2.87.31S643.52,571.23,642.84,572Zm2.42,4.24c-.34-.66-.68-1.3-1-1.94,2.69-1.67,3.15-5.21,4.47-7.92a.83.83,0,0,0-.82-1.19c-3,.33-6.38-.44-8.84,1.53-.47-.56-.94-1.12-1.43-1.66,4-3.31,9.42-2.14,14.24-1.8C650.49,568,649.73,573.58,645.26,576.28Zm.46-9.58a.7.7,0,0,1,1,.24.73.73,0,1,1-1.18.84l0-.08A.76.76,0,0,1,645.72,566.7Zm4.43,24c-.23-1.26-.5-2.51-.82-3.75,1,0,2.1.16,2.45,1.23C652.2,589.46,651.12,590.2,650.15,590.71Zm.65,4.87c-.07-.73-.14-1.46-.24-2.18,3.05-.48,4.8-3.61,7-5.54a.85.85,0,0,0-.32-1.51c-2.78-.81-5.67-2.9-8.64-2-.22-.7-.45-1.38-.7-2.07,4.94-1.55,9.52,1.66,13.81,3.85C658.71,590,655.88,594.84,650.8,595.58Zm4-8.67a.71.71,0,0,1,.86.64.72.72,0,0,1-.58.88.78.78,0,0,1-.28-1.52Zm-10.88,39.17c.74.81,1.53,1.89.69,2.95-.7.89-1.83.61-2.76.31C642.53,628.28,643.22,627.19,643.87,626.08Zm-3.65,5.45c2.48,1.88,5.92.91,8.82,1.09a.85.85,0,0,0,.82-1.3c-1.39-2.57-2-6.13-4.69-7.61.34-.65.66-1.31,1-2,4.55,2.43,5.54,8,7,12.63-4.79.58-10.2,2-14.31-1.13C639.32,632.68,639.77,632.11,640.22,631.53Zm6.48-1.32a.72.72,0,1,1,.17,1A.75.75,0,0,1,646.7,630.21Zm-16.05,11c.35,1,.65,2.14-.34,2.84s-2,0-2.74-.64C628.62,642.73,629.65,642,630.65,641.22Zm-5.39,3.62c1.65,2.65,5.11,3.11,7.76,4.42a.84.84,0,0,0,1.18-.83c-.31-3,.45-6.44-1.45-8.93.54-.47,1.08-1,1.6-1.45l0,0c3.24,4.06,2.06,9.52,1.7,14.4-4.63-1.33-10.09-2.07-12.74-6.54C624,645.56,624.63,645.2,625.26,644.84Zm6.43,1.22.08,0a.72.72,0,1,1,.74,1.24.7.7,0,0,1-1-.13A.76.76,0,0,1,631.69,646.06Zm-18.93,9.44a.74.74,0,0,1-.64.87.71.71,0,0,1-.87-.58.77.77,0,0,1,.61-.86A.73.73,0,0,1,612.76,655.5Zm0-5.54c0,1-.16,2.16-1.23,2.53-1.28.45-2-.72-2.51-1.71C610.25,650.55,611.5,650.28,612.74,650Zm-6.38,1.23c.41,3.14,3.53,4.92,5.45,7.14a.84.84,0,0,0,1.49-.34c.82-2.82,2.9-5.77,2-8.77.69-.22,1.38-.45,2.05-.7,1.5,5-1.68,9.65-3.86,14-3.8-3-8.64-5.89-9.29-11.11C604.93,651.35,605.65,651.28,606.36,651.19Z"/><path class="cls-1" d="M602.31,540.57a9.67,9.67,0,0,0-2.43,8c-.57,0-1.13,0-1.7,0a9.58,9.58,0,0,0-2.54-7.7c-2.49-2.63-6-3.8-9.1-5.52a.85.85,0,0,0-1,.22c-2.08,2.87-4.74,5.42-6,8.84a9.64,9.64,0,0,0,.79,8.08l-1.54.68a9.35,9.35,0,0,0-5.12-6c-3.31-1.47-7-1.2-10.52-1.58a.85.85,0,0,0-1,.67c-.85,3.49-2.36,6.91-2.13,10.57a9.42,9.42,0,0,0,3.78,7c-.39.41-.78.82-1.16,1.24a9.33,9.33,0,0,0-7.23-3.55c-3.58,0-6.86,1.65-10.23,2.65a.83.83,0,0,0-.53.87c.52,3.53.4,7.28,2,10.57a9.34,9.34,0,0,0,6.16,5c-.22.52-.42,1-.62,1.58a9.28,9.28,0,0,0-8.16-.38c-3.21,1.39-5.55,4.09-8.22,6.27a.88.88,0,0,0-.21,1.17c1.77,3,3,6.3,5.58,8.71a9.28,9.28,0,0,0,7.76,2.44c0,.56,0,1.13,0,1.69a9.37,9.37,0,0,0-7.48,2.62c-2.61,2.54-3.78,6.11-5.49,9.25a.86.86,0,0,0,.21,1c2.82,2.09,5.33,4.78,8.7,6a9.29,9.29,0,0,0,8-.86l.21.49c.15.36.32.71.48,1.07a9.45,9.45,0,0,0-6,5.24c-1.47,3.36-1.22,7.09-1.62,10.66a.86.86,0,0,0,.67,1c3.44.84,6.8,2.36,10.42,2.11a9.36,9.36,0,0,0,6.87-3.85c.39.4.79.79,1.2,1.18a9.6,9.6,0,0,0-3.51,7.32c0,3.62,1.6,6.94,2.57,10.34a.81.81,0,0,0,.85.54c3.49-.55,7.19-.45,10.44-2.06a9.49,9.49,0,0,0,5-6.25l1.57.61a9.62,9.62,0,0,0-.42,8.27c1.36,3.24,4,5.6,6.16,8.3a.85.85,0,0,0,.53.33l.41-2.31c-2.37-4.28-5.65-8.74-4.39-13.82.69.22,1.39.42,2.09.6-.73,3.11,1.41,5.92,2.36,8.78a.8.8,0,0,0,.63.52l.41-2.32a.72.72,0,0,1-.63-.83.75.75,0,0,1,.88-.61l.43-2.41c-1.22-.22-1.41-1.45-1.49-2.51.62.13,1.25.22,1.88.33l.26-1.52a49.17,49.17,0,0,1-33.13-22.54c-10.84-17.68-9.78-41.48,3.38-57.8a50.93,50.93,0,0,1,24-16.6,48.21,48.21,0,0,1,23.2-1.55l.26-1.51c-.63-.11-1.26-.21-1.89-.29.44-1,1-2.12,2.28-1.9l.43-2.41a.29.29,0,0,1-.1,0,.73.73,0,0,1-.52-.87.72.72,0,0,1,.87-.54l.41-2.32a.79.79,0,0,0-.77.28c-1.89,2.38-4.9,4.29-5.24,7.5-.72-.06-1.44-.1-2.17-.13.52-5.26,5.17-8.34,8.87-11.57l.41-2.31a.86.86,0,0,0-.61.13C608,536.69,604.7,538,602.31,540.57ZM549.5,593.1c-.93-.43-1.94-1-1.72-2.23s1.37-1.43,2.39-1.52v.06Q549.76,591.24,549.5,593.1Zm-7.29-4a.85.85,0,0,0-.25,1.42c2.31,1.87,4.16,4.84,7.24,5.25-.07.73-.11,1.47-.14,2.2-5.1-.57-8.1-5.21-11.24-8.91,4.23-2.41,8.64-5.75,13.63-4.52-.22.7-.43,1.4-.62,2.11C547.79,586,545,588.18,542.21,589.15Zm3.19,1.29,0,.1a.74.74,0,0,1-.86.54.73.73,0,0,1-.53-.89.72.72,0,0,1,.82-.64A.75.75,0,0,1,545.4,590.44Zm25.51,52.22c.55.38,1.1.75,1.66,1.11s1,.63,1.52.94c-.8.74-1.84,1.49-2.87.66C570.37,644.68,570.62,643.59,570.91,642.66Zm-1.86,5.06a.74.74,0,0,1,1-.18.77.77,0,0,1,.25,1.06.71.71,0,0,1-1,.18A.72.72,0,0,1,569.05,647.72Zm-2-8.06c.55.47,1.1.93,1.67,1.38-1.81,2.51-.89,6-1.08,8.88a.83.83,0,0,0,1.28.83c2.54-1.41,6-2,7.51-4.73.65.33,1.29.65,1.95,1-2.43,4.59-7.92,5.62-12.48,7.15C565.37,649.28,564,643.83,567.07,639.66Zm-9.91-11.51c.69,1.08,1.41,2.14,2.17,3.16-1,.38-2.17.72-2.87-.3S556.48,629,557.16,628.15Zm-2.42-4.23c.34.65.68,1.3,1,1.94-2.69,1.66-3.15,5.21-4.47,7.92a.83.83,0,0,0,.82,1.18c3-.33,6.38.44,8.84-1.53.47.56.94,1.12,1.43,1.67-4,3.3-9.42,2.13-14.24,1.79C549.51,632.17,550.27,626.61,554.74,623.92Zm-.46,9.58a.71.71,0,0,1-1-.25.73.73,0,1,1,1.18-.84.41.41,0,0,1,0,.09A.76.76,0,0,1,554.28,633.5Zm-4.43-24c.23,1.25.5,2.5.82,3.74-1,0-2.1-.16-2.45-1.22C547.8,610.74,548.88,610,549.85,609.49Zm-.65-4.87c.07.72.14,1.45.24,2.18-3.05.47-4.8,3.6-7,5.53a.85.85,0,0,0,.32,1.51c2.78.82,5.67,2.9,8.64,2,.22.7.45,1.39.7,2.07-4.94,1.55-9.52-1.66-13.81-3.85C541.29,610.23,544.12,605.35,549.2,604.62Zm-4,8.66a.71.71,0,0,1-.86-.64.72.72,0,0,1,.58-.88.78.78,0,0,1,.28,1.52Zm10.88-39.17c-.74-.81-1.53-1.89-.69-3,.7-.89,1.83-.61,2.76-.3C557.47,571.92,556.78,573,556.13,574.11Zm3.65-5.45c-2.48-1.88-5.92-.91-8.82-1.09a.86.86,0,0,0-.82,1.31c1.39,2.57,2,6.12,4.69,7.6-.34.65-.66,1.31-1,2-4.55-2.43-5.54-8-7-12.62,4.79-.59,10.2-2,14.31,1.13C560.68,567.52,560.23,568.09,559.78,568.66ZM553.3,570a.74.74,0,0,1-1,.26.73.73,0,0,1-.18-1,.7.7,0,0,1,1-.26A.75.75,0,0,1,553.3,570Zm16.05-11c-.35-1-.65-2.14.34-2.84s2,0,2.74.65C571.38,557.47,570.35,558.2,569.35,559Zm5.39-3.61c-1.65-2.66-5.11-3.12-7.76-4.43a.84.84,0,0,0-1.18.84c.31,3-.45,6.43,1.45,8.92-.54.47-1.08.95-1.6,1.45l0,0c-3.24-4.06-2.06-9.53-1.7-14.41,4.63,1.33,10.09,2.08,12.74,6.54C576,554.64,575.37,555,574.74,555.36Zm-6.43-1.23-.08,0a.73.73,0,1,1-.74-1.25.71.71,0,0,1,1,.13A.76.76,0,0,1,568.31,554.13Zm18.93-9.43a.73.73,0,0,1,.64-.87.71.71,0,0,1,.87.58.76.76,0,0,1-.61.85A.73.73,0,0,1,587.24,544.7Zm0,5.53c0-1,.16-2.16,1.23-2.53,1.28-.44,2,.72,2.51,1.71C589.75,549.64,588.5,549.91,587.26,550.23Zm6.38-1.22c-.41-3.15-3.53-4.93-5.45-7.15a.84.84,0,0,0-1.49.34c-.82,2.82-2.9,5.77-2,8.77-.69.22-1.38.45-2.05.7-1.5-5,1.68-9.64,3.86-14,3.8,3,8.64,5.89,9.29,11.11C595.07,548.84,594.35,548.92,593.64,549Z"/></svg>