<svg id="Layer_1" data-name="Layer 1" xmlns="http://www.w3.org/2000/svg" viewBox="0 0 1200 1200"><defs><style>.cls-1{fill:none;stroke:#000;stroke-miterlimit:10;}</style></defs><path class="cls-1" d="M336.14,210.84c16.67,3.85,30.53,12.47,42.38,24.4,7.21,7.26,13.8,15.14,20.66,22.74l1.05-.26c-4.56-10.43-7.83-21.69-14-31.09-9.77-15-23.61-25.69-41.85-29a18.29,18.29,0,0,0-10.08,1.57c-1.86.82-4.13,4.27-3.7,5.84C331.28,207.37,333.88,210.32,336.14,210.84Z"/><path class="cls-1" d="M326.15,231.87c11.75-1,22.74,1.4,33.54,5.66,15.1,6,27.73,15.33,38.59,27.26a132.11,132.11,0,0,0-31.6-35.55c-8.13-6.26-17-11.48-27.14-14.07-5.73-1.46-11.28-1.12-16.29,2.33-3.21,2.2-4.28,5.53-2.6,8.85C321.8,228.63,324.43,232,326.15,231.87Z"/><path class="cls-1" d="M345,194.14c4.26,1.63,9.19,2,13,4.29,9.22,5.58,17.95,12,26.12,17.51-3.67-16.41-5.81-26.11-.66-44.83.39-1.4-.46-3.61-1.47-4.85-7.26-9-21-11.43-30.86-5.77s-14.91,19.24-10.54,30C341.21,192.06,343.27,193.47,345,194.14Z"/><path class="cls-1" d="M327.32,259.12c25.92-5.76,49.92-1.95,72.08,13.82-.71-1.1-1.33-2.26-2.14-3.28-12.67-16-28.86-27-48.53-32.3-9.55-2.58-19.41-4.53-29.05.87-5.6,3.13-8.11,6.56-6.68,11C315,255.3,322.1,260.29,327.32,259.12Z"/><path class="cls-1" d="M592,169.38c2.62,9.36,4.55,18.92,7.09,29.64,1.78-10.23,4.79-19.4,4.67-28.53-.24-18.15-6.44-34.54-19.84-47.44a22.93,22.93,0,0,0-8.65-4.87c-3.1-1-7.3-.79-8.18,2.87-.67,2.77.12,7.14,2,9.08A90.07,90.07,0,0,1,592,169.38Z"/><path class="cls-1" d="M532.2,165a88.75,88.75,0,0,1,34.55,17.53,83,83,0,0,1,23.08,31c-3.61-22.48-13.48-41.68-30.18-57-7-6.37-14.6-12.27-25-12-6,.13-9.42,2.11-10,6.52C523.67,157.45,527,163.58,532.2,165Z"/><path class="cls-1" d="M427.21,252.12c.64,13.26,4.12,25.27,16.84,32.32,0-.1.15-.25.12-.36-.24-.89-.51-1.77-.76-2.66-7.61-27.43-2.94-52.74,14.34-75.22,14.09-18.33,33.16-27.94,56.44-26.27,27.31,2,48,15.89,62.3,38.92,4.3,6.93,7.14,14.77,11,23,.94-4.73,3.21-9.25,2.29-13-2.13-8.52-4.45-17.54-9.12-24.8C562,175,534.53,163,500.4,166.61,458.9,171,425.19,210.54,427.21,252.12Z"/><path class="cls-1" d="M412.3,252.27c-2.73-8.25-5.92-17-8.5-25.85-5.33-18.31-6.49-36.63.16-55,.83-2.28-.93-6.42-2.83-8.42-1.21-1.28-5.26-1-7.38,0a13.06,13.06,0,0,0-5.46,5.82c-4.27,8.6-4.75,17.92-4.42,27.35C384.7,219.5,397,237,412.3,252.27Z"/><path class="cls-1" d="M548.74,144.63c18.26,10.66,30.46,26.49,38.16,45.81,3.31,8.28,5.29,17.08,7.88,25.66.09-1.31.2-2.76.28-4.21.7-12.73-1.7-25-4.9-37.25a92.37,92.37,0,0,0-19.68-38c-4.59-5.26-10-9-17.44-8.77-3.88.14-6.46,1.8-7.61,5.44S546.13,143.11,548.74,144.63Z"/><path class="cls-1" d="M409.23,233.37c2.31,6.73,5,13.33,7.53,20l1.31-.46c-.33-1.29-.68-2.57-1-3.87-6-26-3.94-50.85,11-73.76.33-.5.95-1.24.79-1.54-1.62-3-2.78-6.77-5.29-8.77-1.7-1.36-5.7-1.13-8.05-.13-6.09,2.57-9.1,8-10.53,14.24C400.75,197.59,403.13,215.66,409.23,233.37Z"/><path class="cls-1" d="M417.18,224.73a80.82,80.82,0,0,0,6.7,33.26c0-5.21-.18-9.19,0-13.15,1.11-21.45,9.78-39.59,24.34-55.12,4-4.26,3.82-14.77-.72-18.36a7.71,7.71,0,0,0-6.63-1c-5.47,2.43-10.18,6-13.23,11.53C420.34,195.26,417.36,209.69,417.18,224.73Z"/><path class="cls-1" d="M284.57,396.87c3.51,3.78,11.67,6.59,17.28,6.07C284.14,383,276,360,279.65,333.41c3-22.1,13.54-39.89,33.53-50.54,26.2-13.95,52.42-11.45,77.69,2.89,7,4,13,9.55,19.16,14.13-.25-8.95-4.4-16.26-11.77-22.56-22.49-19.25-58.32-23.32-87-8.61-29.15,15-44,39.75-46.22,71.95C263.6,361.87,269.81,381,284.57,396.87Z"/><path class="cls-1" d="M125,568.92c9.16,12,22.23,18,36.39,21.73,5.13,1.35,10.6,2.72,15.77,2.33,9.27-.7,18.43-2.73,28.09-4.28-.66-.56-.86-.86-1.1-.91-2.85-.54-5.72-1-8.57-1.57-24.47-4.71-47.48-12.18-64-32.7-1.25-1.56-5-2.27-7.06-1.68-1.69.48-3.91,3.73-3.66,5.41C121.49,561.29,122.57,565.77,125,568.92Z"/><path class="cls-1" d="M225.65,580.14c8.19,2.58,14.7-1.2,21.77-3.45a87.25,87.25,0,0,1-44.57-27.3c-34.14-38.74-21.91-93.08,25.59-113.24A82.44,82.44,0,0,1,282.06,432l.69-1.33c-3.75-3-7.08-7-11.33-8.78-9.79-4.14-20.37-4.74-30.8-3.18-49.6,7.4-81.28,54.52-68.75,103C179.32,550.4,196.39,570.93,225.65,580.14Z"/><path class="cls-1" d="M189.12,572.6a76.8,76.8,0,0,0,28,8.79,12,12,0,0,0-1.9-1.46c-23.95-10.84-38.31-29.77-45.91-54.4-1.86-6-7.76-10.44-13.91-9.3-2.15.39-5.49,3.2-5.47,4.87.07,5.52.11,11.71,2.52,16.42C160.56,553.27,173.63,564.38,189.12,572.6Z"/><path class="cls-1" d="M168.3,575.47c13.84,5.1,28.13,8.64,44.29,9.3-6.07-2-11.1-3.28-15.91-5.19-21.15-8.41-37.56-22.36-48.52-42.43-2-3.7-5.07-5.41-10-4.45-4,.77-5.94,3.38-6.26,7.42-.54,6.84,2.29,12.26,7,16.84A82.9,82.9,0,0,0,168.3,575.47Z"/><path class="cls-1" d="M161,594.73a13.29,13.29,0,0,0-1.95-1.18c-14.37-4.22-27.29-10.77-37.12-22.53-.84-1-3-1.49-4.42-1.38-10.42.79-19.82,9.39-22,19.89-2,9.55,3,20.14,12,25.33,8.29,4.8,9.63,4.69,16.31-1.93C134,602.88,146.72,598.11,161,594.73Z"/><path class="cls-1" d="M255.72,381.33c3.88,3.38,8,6.51,12,9.76l.81-.82a6.31,6.31,0,0,0-.68-1.12c-19.14-20.14-29.65-43.56-27.43-71.85,0-.43.1-1.11-.12-1.26-2.91-1.89-5.72-4.73-8.87-5.18-2.26-.33-5.8,2-7.36,4.11-4.68,6.43-3.54,13.59-1.17,20.66C229.12,354.25,241.24,368.65,255.72,381.33Z"/><path class="cls-1" d="M131.5,631.48a57.7,57.7,0,0,1,8.88-8.59,90.12,90.12,0,0,1,39-17.46c6.86-1.25,13.76-2.34,20.64-3.5l0-.76c-5.86-.94-11.72-1.86-17.58-2.82-22.32-3.65-41.41,3.07-57.58,18.4a18.52,18.52,0,0,0-5.16,9.39c-.47,2.38,1,6.43,2.91,7.68C125.44,635.62,128.92,634.53,131.5,631.48Z"/><path class="cls-1" d="M176.52,374.42c3.62-.46,7.14-1.68,10.75-2.32,12.47-2.18,24.31,1,37.15,4.77-1.11-1.2-1.6-1.77-2.13-2.3-10.84-10.8-19.48-22.84-22.21-38.38-.24-1.39-2.06-2.94-3.52-3.62-10.72-4.93-24.6-.63-30.75,9.35-6,9.77-3.83,24.1,5.1,31.37C172.24,374.37,174.7,374.65,176.52,374.42Z"/><path class="cls-1" d="M260.4,414.53c-2.22-.88-4.41-1.89-6.69-2.62-17.94-5.72-36-5.35-53.83.07-9.3,2.83-18.56,6.34-24.12,15.54-4.09,6.76-2.34,11.55,5.52,12.89,4.74.8,8.92.26,13-3.41C213,420.15,234.91,412.5,260.4,414.53Z"/><path class="cls-1" d="M261.3,391.36c-7.92-7.88-16.4-15.47-23.85-23.95-10-11.41-17.13-24.49-19.95-39.75-.46-2.51-3.74-5.31-6.34-6.28-1.43-.54-5.31,2-6.08,4a20.73,20.73,0,0,0-1.32,11C209.06,363.28,233.18,385.26,261.3,391.36Z"/><path class="cls-1" d="M176.64,393c15-4.75,30-4.31,44.85-.54,11,2.81,21.76,6.88,33.45,10.66-6.45-5.38-12.2-11-18.72-15.48-17.86-12.28-37.46-16.11-58.43-9.77-3.19,1-6.14,3.89-8.3,6.63-1.13,1.44-1.23,5.43-.12,6.48C171,392.5,174.54,393.62,176.64,393Z"/><path class="cls-1" d="M255.43,408.44c-21.35-10.48-43.37-17.8-67.64-14.71-7.31.93-14.15,3-18.6,9.56-3.67,5.45-2.66,9.87,3,13,1.74.95,3.58,1.73,5.39,2.6C202.21,403.58,228.11,401,255.43,408.44Z"/><path class="cls-1" d="M594.63,130.92c4.69,8.83,8.48,18.14,12.38,26.68-.38.65-.07.29.06-.12,4.41-14.8,10.91-28.32,23.18-38.4a4.3,4.3,0,0,0,1-3.23c-.85-11.23-11.24-21.44-22.36-22.12-12-.73-23.47,7.74-25.87,19.18a6.5,6.5,0,0,0,2.12,6.88C588.71,123.09,592.39,126.7,594.63,130.92Z"/><path class="cls-1" d="M980.66,385.93c1-.33,1.57-.52,2.11-.67,15.05-4,30.06-5.47,45.14,0,1.22.45,3.25-.17,4.43-1a24.78,24.78,0,0,0,7.87-31c-5.3-10.47-18.63-15.93-29.75-11.84a7.57,7.57,0,0,0-4,4.64c-2.53,10.15-6.85,19.3-13.83,27.11C988.91,377.35,985,381.37,980.66,385.93Z"/><path class="cls-1" d="M807.24,282.43a31,31,0,0,0-10.89,22.19c.58-.46,1.08-.8,1.51-1.21,18.22-17.61,40.07-25.94,65.27-24.21s45.42,12.62,57,35.59c14.25,28.41,9.85,55.92-7.27,81.87-2.72,4.12-6.18,7.76-9.29,11.61,9.94,0,17.2-4.66,23.19-12.09,17.47-21.66,21.49-46.09,14.21-72.37a82.85,82.85,0,0,0-72.65-60.23C845.46,261.53,824.82,266.83,807.24,282.43Z"/><path class="cls-1" d="M942.35,398.93C949.67,396.27,957,394,964,391c19.94-8.6,32.74-23.68,38.83-44.41,1.32-4.49,1.2-9.15-1.91-13.17-2.49-3.2-5.39-3.71-8.17-.77-1.51,1.59-2.16,4.15-2.8,6.39a82.8,82.8,0,0,1-20.85,35.76C960.74,383.28,951.42,390.82,942.35,398.93Z"/><path class="cls-1" d="M1017.89,405.51a88.16,88.16,0,0,0-36.95-.21c-12.74,2.76-25.24,6.17-36.88,12.41,28.27-7,55.18-5.19,79.84,12,.36.24,1,.59,1.22.46,3.14-1.77,7-3,9-5.66,1.32-1.75.66-5.91-.46-8.39C1030.72,409.52,1024.52,406.88,1017.89,405.51Z"/><path class="cls-1" d="M934.06,398.78c.63-.31,1.29-.57,1.89-.94,13.22-8,25.23-17.75,34.66-29.87,6.28-8.09,10.66-17.76,15.13-27.09,2.74-5.72,2.13-12-1.32-17.64-2-3.28-5.09-5.36-8.89-3.62-3.43,1.56-7.79,2.29-7.29,8.29a54.54,54.54,0,0,1-1.49,15.95A99,99,0,0,1,934.06,398.78Z"/><path class="cls-1" d="M946.22,361.9a93.18,93.18,0,0,1-12.45,31.78,15.25,15.25,0,0,0,1.28-1c16.77-15.59,26.82-34.55,29.68-57.45A28.73,28.73,0,0,0,961,316.4c-1.21-2-4.06-4.14-6.31-4.31-5.49-.42-11.1,7.47-9.81,12.92A89.08,89.08,0,0,1,946.22,361.9Z"/><path class="cls-1" d="M1024.58,388c-29.72-8.19-54.27,1.66-76.34,23.42,3.36-1.17,5.61-2,7.87-2.75,23.3-7.88,46.69-12.71,71-3.76,2.15.79,6.11-1,8-2.84,1.14-1.08.87-5.5-.42-6.87C1031.91,392.22,1028.38,389.05,1024.58,388Z"/><path class="cls-1" d="M211.51,605.08c-6.08.41-12.19.56-18.23,1.29-19,2.31-36.87,7.7-52,20-3.16,2.59-6.63,5.51-8.26,9.06a35.37,35.37,0,0,0-2.78,14c-.07,3.85,3.14,6.3,7.06,6.57,3.69.26,6.94.47,9.65-3.92a117.43,117.43,0,0,1,16.17-21C176.49,617.61,192.85,609.27,211.51,605.08Z"/><path class="cls-1" d="M1048.55,582.73c-15.24,9.65-32.64,12.65-50.27,15.58,5.21,1,10.43,2.05,15.65,3,23.42,4.37,43.63-2.15,60.73-18.4,2.52-2.39,4.21-6,5.4-9.35,1.1-3.11.62-7.37-3-8.13-2.88-.61-6.86.64-9.42,2.41C1061.06,572.47,1055.34,578.43,1048.55,582.73Z"/><path class="cls-1" d="M944.1,425.51c-11.09.84-19.61,5.05-25.6,14.77.85-.16,1.54-.27,2.22-.43,25.08-5.56,48.26-1.05,69,13.93,17.29,12.45,28,29.19,29.15,50.92,1.36,26.49-10.3,47.11-30.25,63.51-10.31,8.48-22.31,13.71-35.41,16.48,0,.56,0,1.12,0,1.68,4.9.76,9.88,2.47,14.67,2a55.36,55.36,0,0,0,16.31-4.51c34.32-14.49,53.88-54.11,45.67-92.18C1021.61,453.17,984.34,422.46,944.1,425.51Z"/><path class="cls-1" d="M1002.08,577.2c-6.65,4.93-14.24,8.58-21.08,12.63a43.54,43.54,0,0,0,5.24-.47c25.47-5.12,45.79-18.13,60.92-39.38,4.09-5.75,5.1-12,5.18-18.65.05-3.38-1.55-6-5-6.84-6-1.56-13.79,3-15.6,9C1026.39,551.13,1017,566.17,1002.08,577.2Z"/><path class="cls-1" d="M1014.74,427.51a93.37,93.37,0,0,0-26.9-8.92c-14.09-2.32-28-1.71-41.54,2.92,27.65,1.51,46.2,9,63.14,26.55,4.22,4.36,8.6,4.76,13.73,3.05,5.55-1.86,7.11-5.67,4.25-10.75C1024.38,435,1020.58,430.44,1014.74,427.51Z"/><path class="cls-1" d="M1036.17,567.56a94.46,94.46,0,0,1-54.69,25.88c0,.6.07,1.21.1,1.81,11.22-1.23,22.51-2,33.62-3.83,17.23-2.9,32.78-9.87,45.91-21.66,5.62-5,9.13-11.13,8.45-19-.36-4.14-2.64-7.19-6.72-7.63-3.65-.39-7.2-.84-10.09,3.7A109.18,109.18,0,0,1,1036.17,567.56Z"/><path class="cls-1" d="M622.09,215.22c-4.92,10.51-4.92,20.66.37,31.26a19.69,19.69,0,0,0,.89-2.22A81.34,81.34,0,0,1,652,200.33c17.89-14.21,38-21,61-16.29,22.16,4.56,37.48,18.26,47.6,37.9s12,40.61,5.68,62.54c7.07-4.37,10.48-10.29,12.34-17.65a72.19,72.19,0,0,0,.16-35.94c-11-43.23-53.67-70.32-97.32-61.18C654.56,175.32,634,189.73,622.09,215.22Z"/><path class="cls-1" d="M629.34,185.9c-3.86,7.15-6.3,15.07-9.39,22.64l1,.42a3,3,0,0,0,.65-.56c12.37-21.75,31.12-34.9,55.12-41.07,5.23-1.34,9.9-9.88,7.9-14.82-.74-1.81-3-4-4.78-4.21-5.93-.81-11.85-.46-17.33,2.74C648.1,159.47,637.2,171.38,629.34,185.9Z"/><path class="cls-1" d="M875.81,241.13c-12.83.37-24.79,3.76-36.24,9.23-12.37,5.9-22.87,14.14-30.44,25.91.6-.38,1.22-.73,1.8-1.14,20.6-14.78,43.46-18.39,67.83-13.08,6.74,1.47,11.33-.77,15.24-5.57,3.28-4,2.69-7.82-1.73-10.45C887.25,243.06,882,241,875.81,241.13Z"/><path class="cls-1" d="M783.64,263.52c.69-1.48,1.5-2.92,2.05-4.45,8.7-24.15,7.92-47.93-2.24-71.57a28.92,28.92,0,0,0-13-14.32c-2.18-1.2-5.86-1.61-8-.59-4.91,2.33-6.34,14.09-2.58,18.12C779.1,211.22,787.39,235.16,783.64,263.52Z"/><path class="cls-1" d="M641.6,139.91c-17.57,20.36-23,45-25.23,70.8,3.44-14.23,9.14-27.28,18.1-38.88s19.56-21,33-26.86c.15-1.06.27-2,.41-2.87,1.48-9-2.2-12.76-11.11-11.67C650.21,131.23,645.67,135.19,641.6,139.91Z"/><path class="cls-1" d="M613,208.58a142.05,142.05,0,0,1,10.14-44.83c5-12.38,11.88-23.88,22.74-32.36,3.1-2.42,4.92-7.26,3.42-10-2-3.79-5.93-4.34-9.19-3.17a28.75,28.75,0,0,0-10.82,6.51C606.12,148.68,604.26,177.09,613,208.58Z"/><path class="cls-1" d="M866.31,220.43c-25.42,8.41-42.62,26.74-57.12,48.35a9.12,9.12,0,0,0,1-.8c20-20.32,43.7-31.55,72.76-29.65.44,0,1.14.08,1.29-.15,1.88-2.92,4.6-5.71,5.17-8.89.38-2.13-1.75-5.58-3.77-7.09C879.77,217.79,872.93,218.23,866.31,220.43Z"/><path class="cls-1" d="M791.93,201.85c4.55,18.15,4.38,36.42-1.68,54.42l1.73.53c3.62-10,7.56-20,10.78-30.11a86.44,86.44,0,0,0,2.3-45c-1.36-6.27-4.5-11.39-10.32-14.51-3.47-1.86-6.84-1.65-9.63,1.34-3.49,3.73-3.68,7.56-2,11.21C786.38,187,790,194.21,791.93,201.85Z"/><path class="cls-1" d="M866.3,201.51c-11.32,1.16-20.73,6.64-29.61,13.54-15.26,11.86-23,28-28.18,46.55a10.86,10.86,0,0,0,1.47-1.18c16.85-21.24,35.59-39.72,63.74-45.19,2.07-.4,4.3-4,4.89-6.45.37-1.53-1.8-4.59-3.58-5.51A16.45,16.45,0,0,0,866.3,201.51Z"/><path class="cls-1" d="M828.07,200.19c-.94,7.39-2.64,14.68-4.06,22.34,11.3-12.07,24-21.36,40.36-24.56,1.15-.22,2.36-1.82,2.93-3.06,4.87-10.62.53-24.58-9.43-30.74-9.62-6-24-3.64-31.49,5-1.6,1.87-2.26,3.5-1.26,6.14A51.58,51.58,0,0,1,828.07,200.19Z"/><path class="cls-1" d="M810.15,199.63c.45,15.37-4,29.91-9.52,44.11-1.31,3.35-2.68,6.68-4,10l.95.62c5.91-7.35,12.92-14.08,17.51-22.17,8-14.21,11.81-29.86,9.26-46.38-1.05-6.76-2-14-9.05-17.58-1.91-1-5.69-1.07-6.87.13-1.51,1.54-1.9,4.88-1.63,7.32C807.68,183.71,809.92,191.63,810.15,199.63Z"/><path class="cls-1" d="M273.66,389.38c-12.65-21.71-15.1-44.51-8.85-68.47,1.43-5.5-3.18-14.4-8.76-15.72-2.08-.5-5.94.44-6.79,2-2.62,4.71-5.55,9.92-5.9,15.09-.9,13.53,2.83,26.39,8.53,38.64A80.66,80.66,0,0,0,273.66,389.38Z"/><path class="cls-1" d="M855.33,1007.16c-4.85-1.84-9.92-3.14-14.7-5.11-10.16-4.2-17.66-12-25.54-19.86-.18.58-.29.74-.25.86,4.42,15.44,6.43,30.91.77,46.55a4.56,4.56,0,0,0,.79,3.3c6.2,9.87,21.31,13.56,31.92,7.87,10.44-5.59,15.63-19.89,10.89-30.6C858.62,1008.83,856.81,1007.73,855.33,1007.16Z"/><path class="cls-1" d="M864.31,990.9c-14.66-2.82-27.1-10-37.85-19.78-9-8.19-16.89-17.7-25.43-26.81,3.66,10.27,6,21.1,12.58,30.12,10.12,13.85,22.68,24.55,39.79,28.78,4.54,1.12,9.32,1.58,13.19-1.67,1.52-1.28,3.19-4.11,2.73-5.59C868.67,993.89,866.31,991.29,864.31,990.9Z"/><path class="cls-1" d="M871.54,942.17c-8.16,1.1-16.47,2.11-24.65,1.8-17.68-.66-33.37-7.15-47.94-19.42a22.14,22.14,0,0,0,1,2.57q21.3,30,57.31,37.75c8.72,1.88,17.32,2,25.34-2.89,3.09-1.87,5.42-4.29,5.09-8.07C887.14,947.05,878.33,941.25,871.54,942.17Z"/><path class="cls-1" d="M874.63,969.07c-10.86,1.26-21.06-.91-31-4.56A98.1,98.1,0,0,1,800,933.09c-.08.65-.24,1-.13,1.19,13.78,22,30.58,40.75,55.41,50.56a31.35,31.35,0,0,0,12.49,2.34c3.6-.14,7.42-1.78,10.57-3.69a6,6,0,0,0,2.06-8.53C879,972.58,876.35,968.87,874.63,969.07Z"/><path class="cls-1" d="M926.41,808.77c-.37.72-.51.88-.48,1a13.11,13.11,0,0,0,.85,1.62c13.85,21.29,15.9,44.3,9.84,68.43A14.34,14.34,0,0,0,942.81,896c3.43,2.3,7.06,2,8.94-1.09,2.92-4.88,6.48-10.37,6.66-15.72.86-25.27-8-47.11-25.86-65.16C930.69,812.12,928.52,810.55,926.41,808.77Z"/><path class="cls-1" d="M918.14,805.71c-4.37-5-13.1-8.34-20.44-7.94a82.7,82.7,0,0,1,23.9,51.65c1.95,21.58-3,41.43-18.27,57.33-20.57,21.42-46,25.29-73.75,17.92-15.16-4-27.92-12.31-39.23-24.36.43,9.48,1.9,12.74,8.23,19.1,23,23.09,60.77,28.59,91.72,12.66,27.5-14.16,42.35-37.37,45.67-67.9C938.35,842.25,932.82,822.52,918.14,805.71Z"/><path class="cls-1" d="M782.67,982.85c1.1-13.09-.51-25.9-6.18-38.08,0,1.22,0,2.44,0,3.66,1.2,24.2-7.49,44.66-23.62,62.28-4.5,4.92-5.31,10.53-2.26,16.36,1.86,3.57,5.08,5.34,8.31,3.18,4.71-3.14,9.75-6.67,12.83-11.26C779,1008.22,781.61,995.62,782.67,982.85Z"/><path class="cls-1" d="M663.85,1034.87c-18.37-5.91-33.64-16.2-44.65-32.22-3.33-4.84-5.89-10.21-8.79-15.32,0,0-.23.15-.24.25a7.51,7.51,0,0,0,.05,1.34c4.1,26.26,17.28,46.75,39,61.92,5.23,3.64,11.06,4.56,17,4.22a8.13,8.13,0,0,0,5.87-4C674.62,1045.43,669.83,1036.79,663.85,1034.87Z"/><path class="cls-1" d="M772.84,944.56c-1.33-10-4-19.16-13.73-24.62.11.64.2,1.21.33,1.77,5.4,23.27,1.79,45.13-10.85,65.32-16.74,26.72-45.77,39.2-74.74,31.21-32-8.84-50.7-31-60-62.94-1.33,4.93-4.07,10-3.64,14.77a61.92,61.92,0,0,0,5.63,19.71c15.41,33.78,54.74,52.15,92.38,43.35C749.8,1023.4,777.8,982.23,772.84,944.56Z"/><path class="cls-1" d="M815.29,1000.87c-1.91-20.53-12.61-36.19-27.14-51.16,1.33,3.5,2.33,6,3.24,8.55,8.22,23,13.33,46.16,4.8,70.4-.76,2.14,1.15,6.07,3,7.95,1.11,1.1,5.26.65,6.89-.6a20.14,20.14,0,0,0,6.26-8.08C815.82,1019.27,816.16,1010.2,815.29,1000.87Z"/><path class="cls-1" d="M968.73,843.56c-8.59-12.69-20-22.6-32.4-31.52,17.29,19.65,26.73,42.11,25.41,68.54-.28,5.66,4.17,6.77,7.53,8.45a6.37,6.37,0,0,0,9-3.18c1.71-4.09,3.39-8.78,3-13C980.43,861.83,974.77,852.47,968.73,843.56Z"/><path class="cls-1" d="M793.46,976.26c-3-10-6.6-19.89-9.92-29.83l-1.43.71c7.31,27.72,5.76,54.22-10.75,78.68-.24.36-.55,1-.41,1.24,1.68,3,2.83,6.82,5.38,8.69,1.87,1.36,6,1,8.43-.08,5.82-2.61,8.78-7.93,10.13-14A89.07,89.07,0,0,0,793.46,976.26Z"/><path class="cls-1" d="M1030.39,825.68a6.24,6.24,0,0,0-4.79-.7c-9,2.78-18.16,4.38-27.61,2.73-6.44-1.13-12.86-2.41-19.58-3.68a16.5,16.5,0,0,0,1.21,1.51c11.1,10.76,19.92,22.84,22.82,38.49.22,1.16,1.76,2.41,3,3,10.69,5.12,24.88.72,31-9.51S1039.93,832.69,1030.39,825.68Z"/><path class="cls-1" d="M1059.85,640.83c-13.16-11.48-28.69-18-45.59-21.55-7.68-1.59-15.45-2.71-23.19-4l-.28,1.12A90.84,90.84,0,0,1,1028,633.61c11.1,8.62,20,18.87,25.72,32.46l4.75.7c7.1,1,10.73-2.37,10.49-9.56S1064.84,645.18,1059.85,640.83Z"/><path class="cls-1" d="M997.86,621.7c-5-1.55-10.26-2.18-16.42-3.44,1,1.43,1.08,1.76,1.28,1.85,24.63,10.71,39.54,29.75,47.18,55,1.73,5.7,10,10.15,15.47,7.85,1.88-.79,4.48-3.08,4.43-4.62-.19-5.84.25-12.53-2.39-17.33C1036.47,641.23,1019.38,628.43,997.86,621.7Z"/><path class="cls-1" d="M1076.05,630.89c-6-5.5-12.38-11.13-19.55-14.89-19.62-10.26-40.29-9.7-61.08-3.61,6.06,1.08,12,1.93,17.79,3.22,21,4.64,40.37,12.29,55,29.12,1.56,1.79,5.75,2.31,8.37,1.76,1.49-.31,3.33-4.11,3.11-6.14C1079.37,637.05,1078.33,633,1076.05,630.89Z"/><path class="cls-1" d="M1084.37,581.4a7,7,0,0,0-5.27,2c-6.68,7.2-14.3,13-23.53,16.4-5.83,2.17-11.78,4-18.06,6.12,2,.52,3.63.92,5.23,1.36,13,3.64,25.16,9,34.26,19.42,2.62,3,5.28,3.19,8.52,2.52,11-2.26,19.78-13.22,19.5-24.24C1104.73,593.41,1095.76,583,1084.37,581.4Z"/><path class="cls-1" d="M1024.4,781.13c-24.85,16.46-51,18.7-78.57,11a18.79,18.79,0,0,0,1.93,1.14c17.31,7.73,35.06,13.84,54.32,13.52,8.56-.14,17.29-.36,24.83-5.3,4-2.65,7.51-6.23,7.42-11.45s-4.74-6.64-8.6-8.45A7,7,0,0,0,1024.4,781.13Z"/><path class="cls-1" d="M1025.07,806.54c-13.82,4.71-27.93,4.88-41.8,1.85-12.76-2.8-25.12-7.41-37.65-11.22l-.58.54c9.48,6.68,18.35,14.57,28.59,19.76,15.55,7.87,32.47,10.35,49.51,4.51,3.59-1.23,6.74-4.47,9.34-7.44,1-1.2.93-5.19-.16-6.08C1030.53,807,1027.12,805.85,1025.07,806.54Z"/><path class="cls-1" d="M649.2,1054.79c-19-12.28-31.88-29.27-38.91-50.71-1.43-4.33-2.43-8.8-3.62-13.21l-1.34.17c1.75,10.69,3.2,21.45,5.34,32.07a90.42,90.42,0,0,0,18.17,38.69c4,5,8.57,9.27,15.31,10.09,9,1.09,13.25-3.52,10.78-12.22C654.36,1057.66,651.33,1056.17,649.2,1054.79Z"/><path class="cls-1" d="M983.89,834.77C972.26,821,957.2,813.33,940.1,809.06c8.23,8,16.72,15.3,24.19,23.58C974.58,844,982,857.09,985.07,872.51c.5,2.49,3.84,5.12,6.48,6.2,1.28.52,4.94-2,5.79-3.85a19.18,19.18,0,0,0,1.62-10.1C997.23,853.21,991.34,843.63,983.89,834.77Z"/><path class="cls-1" d="M939.92,785.2c1.37.62,2.7,1.33,4.11,1.86,23,8.62,45.5,7.69,67.9-2.34a29.13,29.13,0,0,0,14.43-14.12,10.39,10.39,0,0,0,0-8.46c-2.92-5.23-14.29-6.49-18.64-2.36C988.66,777.81,966.36,786.72,939.92,785.2Z"/><path class="cls-1" d="M976.63,621.43c-7.46-2.7-14.64-2.69-21.88,1.15,1,.42,2,.9,3,1.21,17.1,5.31,31.28,15,41.87,29.36,17.39,23.6,22.84,49.15,9.19,76.35C994.33,758.28,960.3,772,931.46,769c-5.45-.56-10.83-1.73-16.42-2.65,7.31,9.41,9.11,10.9,15.41,12.66a69.77,69.77,0,0,0,36.81.1c42.66-11,71.75-55.06,60-100.23C1020.07,651.2,1004,631.37,976.63,621.43Z"/><path class="cls-1" d="M560,1060.68a90.3,90.3,0,0,0,20.91-41.33c2.07-9.48,3.58-19.08,5.34-28.63l-1.24-.24c-.43,1.6-.82,3.21-1.29,4.8-7.71,26.36-22.31,47-48.18,58.45a3.53,3.53,0,0,0-1.45,1c-3.84,5.39,0,13.84,6.58,14.53C548.78,1070.12,554.89,1066.47,560,1060.68Z"/><path class="cls-1" d="M254.4,845.92c.4-16.65,6-31.72,15.64-45.36-21.24,17.1-33.47,39.11-34.5,66.55-.19,5.13,2.4,10.6,4.6,15.51,1.76,3.92,5.7,4.35,9.4,2.08,5.56-3.4,7.67-9.45,6.72-16A135.6,135.6,0,0,1,254.4,845.92Z"/><path class="cls-1" d="M388,919.9c9.35-6.71,14.22-15.2,14.77-26.68-.85.76-1.64,1.43-2.38,2.16Q376.1,919.17,342.11,920c-31.53.74-57.86-16.25-67.63-44.14-7.36-21-5.83-41.86,4.12-61.62,4.55-9,11.08-17.09,16.33-25-7,.31-10.45,1.45-15.51,6.93a86.2,86.2,0,0,0-11.07,14.05c-22.66,38.26-9,88.71,29.94,111.69C326.76,938.67,363.39,937.59,388,919.9Z"/><path class="cls-1" d="M265,799.25c-14.73,8.91-27.66,19.79-37.91,33.55-6,8-10.87,16.67-13.28,26.52-1.42,5.78-.87,11.31,2.5,16.28,2.18,3.22,5.47,4.84,9.15,2.91,2.7-1.41,6.36-2,6.76-6.35.76-8.48.82-17.2,3-25.32A94.53,94.53,0,0,1,265,799.25Z"/><path class="cls-1" d="M352.06,951c15.6-5.77,28.84-14.64,38.62-28.38-22.06,14.71-45.87,17.88-71.23,11.68-6.21-1.52-13.38,1.51-15.42,7.49-.76,2.2.06,6.67,1.64,7.6,4.87,2.86,10.32,5.78,15.79,6.37C331.88,956.92,342.14,954.69,352.06,951Z"/><path class="cls-1" d="M233.6,820.09c7.54-7.15,15.42-14,23.81-21.49-7.31,2.68-14,4.74-20.43,7.57-20.73,9.16-34.3,24.72-39.73,46.8-.86,3.47.46,7.77,1.73,11.35.56,1.59,4,3.64,5.26,3.18a10.81,10.81,0,0,0,5.47-5.28c1.61-3.41,1.92-7.39,3.31-10.92A85.91,85.91,0,0,1,233.6,820.09Z"/><path class="cls-1" d="M332.5,977.55c25.47-7.92,42.76-25.92,57.2-47.43-.44.4-.88.79-1.3,1.2-20.12,19.94-43.84,30.32-72.59,27.38a3.19,3.19,0,0,0-1.74.26,9.86,9.86,0,0,0-.23,17.12C319.83,979.7,326.15,979.52,332.5,977.55Z"/><path class="cls-1" d="M182.56,768.15c12.46,8.49,27,11.43,41.86,12.14a71.24,71.24,0,0,0,32.06-5.68c-26.6,1.14-48.62-8.57-67.26-26.92-3.68-3.62-13.21-3.25-16.48.77-1.23,1.51-2.15,4.89-1.3,6.16C174.68,759.48,177.91,765,182.56,768.15Z"/><path class="cls-1" d="M339,995.76c28.11-9.36,43.61-30,50.75-58.14l-1.41,1.73c-16.72,20.64-35.42,38.27-63,43.25-2.36.43-5,4.22-5.71,6.92-.43,1.59,2.25,4.78,4.27,6.09C328.66,998.72,334,997.41,339,995.76Z"/><path class="cls-1" d="M250.26,771.11c13.62,0,26-2.86,33.15-16.09-.9.2-2.06.41-3.2.71-16.53,4.39-32.85,3.43-48.92-2.07C181.91,736.78,165.7,683.09,197.6,642c11.36-14.63,26.13-24.36,45.21-29.91-6.7-1.7-11.89-5-17.89-2.77-6.16,2.28-12.57,4.27-18.19,7.55-28.67,16.74-43.47,50.43-37.78,85C175.23,740,211.69,771.14,250.26,771.11Z"/><path class="cls-1" d="M172.1,810.11c8.42,3.71,17.43,4.15,26.58,3.35,21.07-1.86,37.82-12.09,52.78-27.12-5.4,2.07-10.16,4.11-15.06,5.76-21.4,7.19-42.91,11.19-65,2.46-1.85-.73-5.42.5-6.92,2.05-1.19,1.24-1.39,5-.35,6.49A20.77,20.77,0,0,0,172.1,810.11Z"/><path class="cls-1" d="M181.35,794.27c8.78.91,17.72,1.65,26.49,1,16.84-1.21,32.31-7.43,47.22-15.62a4.92,4.92,0,0,0-1.33,0c-27.29,7.56-53,4.41-77-11.06-.49-.31-1.27-.85-1.56-.67-3.37,2-7.29,3.48-9.8,6.26-2.66,2.94-1.46,6.89.63,10.26A20,20,0,0,0,181.35,794.27Z"/><path class="cls-1" d="M219,812.57c-1.72.4-2.3.51-2.87.67-14.7,4.2-29.4,5.77-44.29.69-1.46-.49-3.89.36-5.28,1.39-9.3,6.9-12.23,20.84-6.73,31,5.43,10,18.91,15.25,29.75,11.12,1.72-.65,3.3-2.83,4-4.66,1.79-4.36,2.81-9,4.57-13.41C202.44,828.91,210.43,821.19,219,812.57Z"/><path class="cls-1" d="M411.61,1015.71a88.33,88.33,0,0,1-8.67-51.38c.91-6.89,2.8-13.66,4.51-21.71-11,23.35-18.74,46.08-14.77,71.29,1.15,7.33,4.06,13.5,10.73,17.31a7.92,7.92,0,0,0,10.39-1.7c3.54-4.26,3.53-6.28.08-10.37A17.07,17.07,0,0,1,411.61,1015.71Z"/><path class="cls-1" d="M576.74,983.1c4.6-9.65,6.62-19.38.56-29.38-.18.1-.38.14-.41.24q-.52,1.5-1,3c-5.2,17.47-14.94,32-29.54,42.78-23.73,17.57-49.65,23.34-76.66,8.9s-38.57-39-39.56-68.69c-.29-8.73,1.76-17.55,2.7-25.94-6.79,4.06-9.8,8-12.1,16.56a71.19,71.19,0,0,0,.33,38.6,82.72,82.72,0,0,0,95.05,59C543.42,1023.19,564.48,1008.83,576.74,983.1Z"/><path class="cls-1" d="M416.44,963.5c-1.46-8.9-1.11-18.1-1.55-26.74a19.92,19.92,0,0,0-1.38,2.36c-9.15,19.45-10.15,39.63-4.72,60.12,2.73,10.3,6.82,20.06,16.94,25.76,3.44,2,6.85,3,10.34.77,5.82-3.75,6.86-14.8,2.09-19.94C426.94,993.76,419.09,979.78,416.44,963.5Z"/><path class="cls-1" d="M568.31,1021.56c8.22-12.12,13.49-25.3,13-40.26-.27.51-.57,1-.8,1.53-10.28,23.37-28.29,38-52.19,45.75-6.87,2.22-10.12,6.92-11.06,13.59-.82,5.84,2,9.18,7.92,9.19,6.15,0,12-1,17.46-4.49A88.49,88.49,0,0,0,568.31,1021.56Z"/><path class="cls-1" d="M588.65,998.07c-1,5.58-1.88,10.87-3,16.09-4.6,21.24-12.58,40.6-29.94,55-1.8,1.5-2.49,5.83-1.79,8.33.45,1.65,4.37,3.43,6.59,3.25,3.15-.24,7-1.44,9-3.65,5.5-6.07,11.13-12.37,15-19.5C594.76,1038.72,594.33,1018.67,588.65,998.07Z"/><path class="cls-1" d="M200,617.14c3.85-2.71,8.07-4.89,12.12-7.32-26.18,4.84-46.53,18.38-60.88,41-3.44,5.41-3.9,11.19-3.87,17.15,0,3.33,1.71,5.9,5.33,6.51,6,1,12.81-3.53,14.43-9.44C172.56,645.25,183.15,629,200,617.14Z"/><path class="cls-1" d="M595.19,1038.19c-.67,2-1,3-1.3,4-3.77,13.61-9.18,26.38-20.15,35.86-2.77,2.4-3.34,4.79-2.71,8a25.06,25.06,0,0,0,24.64,20c11.55-.2,22.07-9.51,23.68-21.15a4.52,4.52,0,0,0-1-3.58C605,1070.45,599.1,1055.61,595.19,1038.19Z"/><path class="cls-1" d="M370.13,1007.29c.43-10,2.12-19.95,3.27-29.74-.12.12-.79.71-1.42,1.34-10.57,10.38-22.28,18.69-37.31,21.38-1.43.26-3.06,2-3.75,3.42-5,10.51-.75,24.54,9.21,30.76s24.54,3.86,31.66-5.27c1-1.33,1.13-3.8.89-5.65C372,1018.09,369.89,1012.65,370.13,1007.29Z"/><path class="cls-1" d="M391.66,975.33c2.73-10.29,6.77-20.22,10.22-30.31l-.6-.58c-6.09,7.45-13.3,14.27-18,22.51-7.87,13.75-11.65,29-9.61,45.07.88,7,1.65,14.36,8.53,18.44,1.88,1.12,6,1.62,6.91.53,1.73-2,3.19-5.75,2.46-8C386.46,1007,387.49,991.07,391.66,975.33Z"/><path class="cls-1" d="M610.68,1035.06c-3.78-12.2-5.83-24.93-8.49-36.71-2.45,12.59-6.52,26-3.51,40.09,3.06,14.27,7.93,27.8,19.19,37.79,3,2.67,7.29,4.33,11.26,5.27,1.73.42,5.45-1.76,6-3.44a8.43,8.43,0,0,0-2.11-7.17C622,1061.05,614.92,1048.75,610.68,1035.06Z"/><path class="cls-1" d="M414.93,936.71c.37-.26.15-.19,0,0Z"/><path d="M1108.32,604.35c-.32-13.07-9.6-23-24.52-26.88-.49-4.1-.24-8.23-1.6-11.73-1.71-4.43-6.1-4.91-10.83-3.87,1.57-6.12,3-11.85-.53-17.28-3.84-5.92-10-4.91-15.86-4.55.94-6.5,2.46-12.88-3.39-17.1-5.65-4.08-11.58-1.26-17.58,1.12,4-25.5-2.34-48-17.51-68.48,6.37-.63,12.14-1.27,14.77-7.15S1030,438,1027,433.26c5.25-2.35,10.55-4.08,11.58-10.49,1-6.17-3.11-10.16-6.5-14.76,4.69-1.51,8.26-4.25,7.37-8.95-.75-4-3.3-7.59-5.18-11.61,11.81-11.35,15-23.89,8.79-35.93a26.52,26.52,0,0,0-12.43-11.86c-7.73-3.73-15.63-3.45-22.8-1.16-2.48-3.47-4.06-7.5-7-9.29-2.67-1.62-6.82-.8-10.83-1.1-1.37-4.08-2.82-9.36-8.58-11.62s-10.14,1.35-14.7,4.19c-2.36-5.48-4.1-11.18-10.68-12-6.24-.8-9.71,4-13.54,7.9-10.7-25.85-27.81-41.86-52.81-51.84,4.6-3.45,9.61-6.7,9.49-13.25-.14-7.13-6.47-8.85-11.58-11.8,3.69-4.52,7.77-9.42,4.46-14.67-2.68-4.28-7.71-7.09-11.79-10.63,5.92-8.16.12-13.93-10.18-16.85,5-15.7,1-29.36-10.84-36.38-12-7.11-26-4.19-37.19,7.74-9.22-7.33-13.14-7.28-19.2.41-4-3.62-8-7.22-14.06-6.39-6.49.89-8.13,6.61-10.79,11.48-5.18-4.17-10.13-8.41-16.56-5.2-6.11,3-6.54,9.62-7.49,15.94a87.1,87.1,0,0,0-32.26-17.19A90.61,90.61,0,0,0,685,165.59c2.66-5.61,5.09-11.07,1.79-16.57-3.46-5.78-9.8-4.42-15.24-4.48-.63-16.24-3.6-18.92-18.51-17.16-.2-11.7-4.84-14.68-18-11.59-4.2-15.64-12.77-24.77-25.88-25.35-17-.75-26.29,9.31-30.11,23.93-4.39.56-8.33.42-11.78,1.66-4.36,1.56-4.46,6-4.16,10.25-5.76-1.83-11.15-3.29-16.41-.08-6,3.65-4.59,9.73-4.38,15.5-6.53.25-13.28-2.24-18.29,3.12-5.31,5.68-2.77,11.92-.33,18.42-26-3.23-48.85,3.67-69,20.21-1.39-17.45-7.46-20.59-22.81-12-2.27-4.83-4.17-11.06-10.43-10.89-4.93.13-9.79,2.89-14.79,4.51-3.8-9.33-11.44-9.71-20.79,0-12.33-11.33-25-14.35-36.07-7.43a35.92,35.92,0,0,0-11.07,11.85c-4.56,7.63-3.77,16.11-.87,24.29-10.75,3.83-12.67,7.76-8.73,17.36-13.73,5.07-15.47,9.77-8.33,22.5-15.15,9.54-15.59,16-1.6,27.88-24.76,9.25-41.73,26.41-51.8,50.86-3.26-5.65-6.63-10.73-13.18-11.09-7.33-.4-9.39,6.13-12.46,11.48-4.49-3.8-9.41-7.84-14.65-4.63-4.32,2.65-7.18,7.71-10.71,11.72-5.33-4.6-12.75-3.69-17,9.71-17.43-4.43-30-.72-36.75,11-5.18,9-6.9,23.4,7.37,36.93-7.26,9.35-7.18,13.09.45,19.09-3.7,4.11-7.7,8.06-6.58,14.41s6.87,8,11.85,10.72c-3.32,5.07-8.07,9.72-4.61,16,3.13,5.71,9.27,6.1,15.53,6.67-17.58,21-23.45,44.8-19.7,71.35-5.71-2.41-11.1-5.13-16.61-1.48s-4.34,9.85-4.2,15.36c-15.69-.48-19.28,3.43-17.2,17.69l-11.86,3.44c.27,5.54.5,10.34.73,15.14-16.38,4-25.57,13.53-26.17,27.13-.58,13.25,8.09,23.34,24.26,28.71.48,4.13-.14,8.66,1.7,11.67,1.7,2.77,6.06,3.9,9.57,5.94-2.72,15.18.88,19.78,16.84,20,.49,5.71-2,12.37,3.92,16.57,5.74,4.07,11.37,1,17.14-1.44-3.34,25.11,3.27,47.25,18.58,67.12-6.49.62-12.71,1-15.39,7.38-2.62,6.18,1.89,10.9,5,15.92-5.72,2.41-11.13,4.57-12.48,11.06-1.3,6.26,2.5,10.67,5.91,15.18-9.42,4.45-9.62,9.9-.93,20.14-12,10.56-15.39,24-9.17,36.09,6.39,12.47,19.33,17,35.8,13,2.36,3.26,4,7.29,6.92,9,2.73,1.62,6.91.81,11,1.11,1.29,4,3,9.13,8.69,11.39,6,2.36,10.08-1.76,14.68-4.4,2.54,5.74,4.53,11.81,11.78,11.8,6.49,0,9.87-5.13,13.46-10,9.36,24.93,26.41,41.93,50.84,52-5,3.73-10.17,7-10,13.78.19,7,6.45,8.91,11.11,12-10.65,12.72-4.75,20.75,8.7,25.11-2.94,3.58-6,7.69-2.44,11.86,2.7,3.19,6.84,5.16,10.53,7.82-4.8,14.5-1.12,27.73,10.23,35.14,11.77,7.68,24.84,5.29,38-6.93,9,7.56,13.82,7.29,19-1.06,12.32,10.11,16.45,9.52,25.3-3.75,5,3.82,10.4,7.36,16.77,3.73,5.93-3.38,7-9.8,7.93-16.47,21.46,17.37,45.39,23.38,72,19.06-6.42,18-4.44,21.53,12.84,23.19,1,17.13,2.55,18.45,20.13,17.38-.87,10.41,4.12,13.73,16.8,11.19,5.4,17.7,15,26.48,28.61,26.21,13.33-.26,23.34-9.37,27.64-25.16,11.51,1.49,13.78.15,16.68-9.91,5.12,1.08,10.26,2.16,15-1.44,5.13-3.91,3.76-9.58,3.68-15.22,6.29,1.11,12.53,2.09,16.2-3.88,3.35-5.46.63-11.1-1.66-16.76,27.15,4.63,50.87-2.1,72.09-18.94,1,6,1.18,12.12,7.14,15s10.73-1.11,15.64-4.39c2.25,5.32,4.23,10.54,10.53,11.53,6.14,1,10.2-3.1,14.46-6.54,5.34,9.38,10.45,9.58,20.28,1.06,12.89,12.32,25,15.59,36.51,8.6,4.61-2.8,8.62-7.42,11.45-12.09,4.53-7.45,3.75-15.83,1-23.86,11.3-5.21,13-8.28,9.69-15.44,4.18-3.64,9-6.4,11.7-10.55,3.33-5.17-.92-10-3.86-14.41,14.86-7.69,15.21-14.17,1.56-27.52,24.62-9,41.77-25.72,52.09-49.74,3.81,5.56,7.14,11.3,14.75,10.5s8.89-8,12.36-13.06c4.7,3.11,8.79,7.34,15.12,5,6.05-2.29,7.34-8,9.69-13.3,3.62,3.39,7.81,4.81,11.4,1.64,3-2.67,4.81-6.7,7.29-10.35,15.23,4.37,27.89.71,35.1-10.57,3.46-5.41,4.44-11.36,3.88-17.65-.76-8.42-5.16-14.87-10.65-19.68,1.73-3.92,4.4-7.35,4.4-10.79,0-3.12-2.88-6.24-4.73-9.8,2.95-3.19,6.42-7.23,5.55-13.33-.94-6.6-6.93-7.87-11.37-10.74,10.51-14.64,3.42-22.39-12.65-24.29,16.49-20.42,22.35-43.62,18.55-69.54,5.73,2.25,11.21,4.53,16.73,1.29,5.8-3.42,5.08-9.55,5.15-15.39,5.66-.1,11.46,1.77,15.75-3.32,4.16-4.93,2.4-10.61,1.95-16.12,10.39.45,13.43-4.46,10.78-16.84C1100.43,628,1108.67,618.69,1108.32,604.35Zm-31.21-38.89c3.57.76,4.05,5,3,8.13-1.19,3.36-2.88,7-5.4,9.35-17.1,16.25-37.31,22.77-60.73,18.4-5.22-1-10.44-2-15.65-3,17.63-2.93,35-5.93,50.27-15.58,6.79-4.3,12.51-10.26,19.14-14.86C1070.25,566.1,1074.23,564.85,1077.11,565.46Zm-24.36-18.61c2.89-4.54,6.44-4.09,10.09-3.7,4.08.44,6.36,3.49,6.72,7.63.68,7.85-2.83,13.93-8.45,19-13.13,11.79-28.68,18.76-45.91,21.66-11.11,1.87-22.4,2.6-33.62,3.83,0-.6-.06-1.21-.1-1.81a94.46,94.46,0,0,0,54.69-25.88A109.18,109.18,0,0,0,1052.75,546.85Zm-5.41-22.36c3.45.89,5.05,3.46,5,6.84-.08,6.64-1.09,12.9-5.18,18.65-15.13,21.25-35.45,34.26-60.92,39.38a43.54,43.54,0,0,1-5.24.47c6.84-4.05,14.43-7.7,21.08-12.63,14.89-11,24.31-26.07,29.66-43.73C1033.55,527.47,1041.3,522.93,1047.34,524.49Zm-17.42-32.77c8.21,38.07-11.35,77.69-45.67,92.18a55.36,55.36,0,0,1-16.31,4.51c-4.79.43-9.77-1.28-14.67-2,0-.56,0-1.12,0-1.68,13.1-2.77,25.1-8,35.41-16.48,20-16.4,31.61-37,30.25-63.51-1.13-21.73-11.86-38.47-29.15-50.92-20.79-15-44-19.49-69-13.93-.68.16-1.37.27-2.22.43,6-9.72,14.51-13.93,25.6-14.77C984.34,422.46,1021.61,453.17,1029.92,491.72ZM941.21,600c0,188.44-152.77,341.21-341.21,341.21S258.79,788.44,258.79,600,411.56,258.79,600,258.79,941.21,411.56,941.21,600Zm86.21-159.64c2.86,5.08,1.3,8.89-4.25,10.75-5.13,1.71-9.51,1.31-13.73-3.05C992.5,430.53,974,423,946.3,421.51c13.58-4.63,27.45-5.24,41.54-2.92a93.37,93.37,0,0,1,26.9,8.92C1020.58,430.44,1024.38,435,1027.42,440.36Zm6.27-24.26c1.12,2.48,1.78,6.64.46,8.39-2,2.65-5.89,3.89-9,5.66-.24.13-.86-.22-1.22-.46-24.66-17.17-51.57-19-79.84-12,11.64-6.24,24.14-9.65,36.88-12.41a88.16,88.16,0,0,1,36.95.21C1024.52,406.88,1030.72,409.52,1033.69,416.1Zm1-20.89c1.29,1.37,1.56,5.79.42,6.87-1.93,1.84-5.89,3.63-8,2.84-24.28-8.95-47.67-4.12-71,3.76-2.26.77-4.51,1.58-7.87,2.75,22.07-21.76,46.62-31.61,76.34-23.42C1028.38,389.05,1031.91,392.22,1034.7,395.21Zm-24.24-53.82c11.12-4.09,24.45,1.37,29.75,11.84a24.78,24.78,0,0,1-7.87,31c-1.18.81-3.21,1.43-4.43,1-15.08-5.47-30.09-4-45.14,0-.54.15-1.07.34-2.11.67,4.29-4.56,8.25-8.58,12-12.79,7-7.81,11.3-17,13.83-27.11A7.57,7.57,0,0,1,1010.46,341.39Zm-17.72-8.74c2.78-2.94,5.68-2.43,8.17.77,3.11,4,3.23,8.68,1.91,13.17C996.73,367.32,983.93,382.4,964,391c-7,3-14.32,5.27-21.64,7.93,9.07-8.11,18.39-15.65,26.74-24.13A82.8,82.8,0,0,0,989.94,339C990.58,336.8,991.23,334.24,992.74,332.65Zm-26,11.21a54.54,54.54,0,0,0,1.49-15.95c-.5-6,3.86-6.73,7.29-8.29,3.8-1.74,6.88.34,8.89,3.62,3.45,5.61,4.06,11.92,1.32,17.64-4.47,9.33-8.85,19-15.13,27.09-9.43,12.12-21.44,21.84-34.66,29.87-.6.37-1.26.63-1.89.94A99,99,0,0,0,966.75,343.86Zm-12.09-31.77c2.25.17,5.1,2.27,6.31,4.31a28.73,28.73,0,0,1,3.76,18.87c-2.86,22.9-12.91,41.86-29.68,57.45a15.25,15.25,0,0,1-1.28,1,93.18,93.18,0,0,0,12.45-31.78A89.08,89.08,0,0,0,944.85,325C943.56,319.56,949.17,311.67,954.66,312.09Zm-13.74,11.72c7.28,26.28,3.26,50.71-14.21,72.37-6,7.43-13.25,12.09-23.19,12.09,3.11-3.85,6.57-7.49,9.29-11.61,17.12-26,21.52-53.46,7.27-81.87-11.53-23-31.85-33.87-57-35.59s-47,6.6-65.27,24.21c-.43.41-.93.75-1.51,1.21a31,31,0,0,1,10.89-22.19c17.58-15.6,38.22-20.9,61-18.85A82.85,82.85,0,0,1,940.92,323.81ZM892.27,246c4.42,2.63,5,6.42,1.73,10.45-3.91,4.8-8.5,7-15.24,5.57-24.37-5.31-47.23-1.7-67.83,13.08-.58.41-1.2.76-1.8,1.14,7.57-11.77,18.07-20,30.44-25.91,11.45-5.47,23.41-8.86,36.24-9.23C882,241,887.25,243.06,892.27,246Zm-6.6-23.83c2,1.51,4.15,5,3.77,7.09-.57,3.18-3.29,6-5.17,8.89-.15.23-.85.18-1.29.15-29.06-1.9-52.76,9.33-72.76,29.65a9.12,9.12,0,0,1-1,.8c14.5-21.61,31.7-39.94,57.12-48.35C872.93,218.23,879.77,217.79,885.67,222.2ZM875,203.27c1.78.92,4,4,3.58,5.51-.59,2.48-2.82,6.05-4.89,6.45-28.15,5.47-46.89,24-63.74,45.19a10.86,10.86,0,0,1-1.47,1.18c5.16-18.52,12.92-34.69,28.18-46.55,8.88-6.9,18.29-12.38,29.61-13.54A16.45,16.45,0,0,1,875,203.27Zm-48.65-34.09c7.45-8.65,21.87-11,31.49-5,10,6.16,14.3,20.12,9.43,30.74-.57,1.24-1.78,2.84-2.93,3.06-16.39,3.2-29.06,12.49-40.36,24.56,1.42-7.66,3.12-14.95,4.06-22.34a51.58,51.58,0,0,0-3-24.87C824.12,172.68,824.78,171.05,826.38,169.18Zm-18-.8c1.18-1.2,5-1.09,6.87-.13,7.08,3.55,8,10.82,9.05,17.58,2.55,16.52-1.21,32.17-9.26,46.38-4.59,8.09-11.6,14.82-17.51,22.17l-.95-.62c1.34-3.34,2.71-6.67,4-10,5.51-14.2,10-28.74,9.52-44.11-.23-8-2.47-15.92-3.37-23.93C806.51,173.26,806.9,169.92,808.41,168.38Zm-23.3.15c2.79-3,6.16-3.2,9.63-1.34,5.82,3.12,9,8.24,10.32,14.51a86.44,86.44,0,0,1-2.3,45c-3.22,10.16-7.16,20.08-10.78,30.11l-1.73-.53c6.06-18,6.23-36.27,1.68-54.42-1.91-7.64-5.55-14.88-8.84-22.11C781.43,176.09,781.62,172.26,785.11,168.53Zm-22.61,4.06c2.14-1,5.82-.61,8,.59a28.92,28.92,0,0,1,13,14.32c10.16,23.64,10.94,47.42,2.24,71.57-.55,1.53-1.36,3-2.05,4.45,3.75-28.36-4.54-52.3-23.72-72.81C756.16,186.68,757.59,174.92,762.5,172.59Zm16.22,58.3a72.19,72.19,0,0,1-.16,35.94c-1.86,7.36-5.27,13.28-12.34,17.65,6.28-21.93,4.52-42.76-5.68-62.54S735.1,188.6,712.94,184c-22.93-4.71-43.08,2.08-61,16.29a81.34,81.34,0,0,0-28.62,43.93,19.69,19.69,0,0,1-.89,2.22c-5.29-10.6-5.29-20.75-.37-31.26,11.94-25.49,32.47-39.9,59.31-45.51C725.05,160.57,767.74,187.66,778.72,230.89ZM679.88,148.3c1.8.25,4,2.4,4.78,4.21,2,4.94-2.67,13.48-7.9,14.82-24,6.17-42.75,19.32-55.12,41.07a3,3,0,0,1-.65.56l-1-.42c3.09-7.57,5.53-15.49,9.39-22.64,7.86-14.52,18.76-26.43,33.21-34.86C668,147.84,674,147.49,679.88,148.3ZM656.8,130.43c8.91-1.09,12.59,2.69,11.11,11.67-.14.9-.26,1.81-.41,2.87-13.47,5.87-24.1,15.3-33,26.86s-14.66,24.65-18.1,38.88c2.19-25.76,7.66-50.44,25.23-70.8C645.67,135.19,650.21,131.23,656.8,130.43Zm-16.7-12.25c3.26-1.17,7.16-.62,9.19,3.17,1.5,2.78-.32,7.62-3.42,10-10.86,8.48-17.7,20-22.74,32.36A142.05,142.05,0,0,0,613,208.58c-8.73-31.49-6.87-59.9,16.29-83.89A28.75,28.75,0,0,1,640.1,118.18ZM583,112.91c2.4-11.44,13.85-19.91,25.87-19.18,11.12.68,21.51,10.89,22.36,22.12a4.3,4.3,0,0,1-1,3.23c-12.27,10.08-18.77,23.6-23.18,38.4-.13.41-.44.77-.06.12-3.9-8.54-7.69-17.85-12.38-26.68-2.24-4.22-5.92-7.83-9.49-11.13A6.5,6.5,0,0,1,583,112.91Zm-16,8.14c.88-3.66,5.08-3.88,8.18-2.87a22.93,22.93,0,0,1,8.65,4.87c13.4,12.9,19.6,29.29,19.84,47.44.12,9.13-2.89,18.3-4.67,28.53-2.54-10.72-4.47-20.28-7.09-29.64a90.07,90.07,0,0,0-22.89-39.25C567.17,128.19,566.38,123.82,567.05,121.05Zm-21.62,12.21c1.15-3.64,3.73-5.3,7.61-5.44,7.49-.28,12.85,3.51,17.44,8.77a92.37,92.37,0,0,1,19.68,38c3.2,12.22,5.6,24.52,4.9,37.25-.08,1.45-.19,2.9-.28,4.21-2.59-8.58-4.57-17.38-7.88-25.66-7.7-19.32-19.9-35.15-38.16-45.81C546.13,143.11,544.28,136.86,545.43,133.26Zm-20.86,17.79c.62-4.41,4-6.39,10-6.52,10.44-.24,18.08,5.66,25,12,16.7,15.28,26.57,34.48,30.18,57a83,83,0,0,0-23.08-31A88.75,88.75,0,0,0,532.2,165C527,163.58,523.67,157.45,524.57,151.05ZM500.4,166.61C534.53,163,562,175,580.7,204.11c4.67,7.26,7,16.28,9.12,24.8.92,3.71-1.35,8.23-2.29,13-3.9-8.25-6.74-16.09-11-23-14.34-23-35-37-62.3-38.92-23.28-1.67-42.35,7.94-56.44,26.27-17.28,22.48-21.95,47.79-14.34,75.22.25.89.52,1.77.76,2.66,0,.11-.08.26-.12.36-12.72-7.05-16.2-19.06-16.84-32.32C425.19,210.54,458.9,171,500.4,166.61Zm-59.5,3.73a7.71,7.71,0,0,1,6.63,1c4.54,3.59,4.71,14.1.72,18.36-14.56,15.53-23.23,33.67-24.34,55.12-.21,4,0,7.94,0,13.15a80.82,80.82,0,0,1-6.7-33.26c.18-15,3.16-29.47,10.49-42.86C430.72,176.3,435.43,172.77,440.9,170.34Zm-25.39-5.51c2.35-1,6.35-1.23,8.05.13,2.51,2,3.67,5.72,5.29,8.77.16.3-.46,1-.79,1.54-14.91,22.91-17,47.73-11,73.76.3,1.3.65,2.58,1,3.87l-1.31.46c-2.52-6.66-5.22-13.26-7.53-20-6.1-17.71-8.48-35.78-4.25-54.3C406.41,172.84,409.42,167.4,415.51,164.83Zm-27.22,4a13.06,13.06,0,0,1,5.46-5.82c2.12-1,6.17-1.32,7.38,0,1.9,2,3.66,6.14,2.83,8.42-6.65,18.42-5.49,36.74-.16,55,2.58,8.89,5.77,17.6,8.5,25.85C397,237,384.7,219.5,383.87,196.16,383.54,186.73,384,177.41,388.29,168.81Zm-37.18-8.32c9.88-5.66,23.6-3.19,30.86,5.77,1,1.24,1.86,3.45,1.47,4.85-5.15,18.72-3,28.42.66,44.83C375.93,210.4,367.2,204,358,198.43c-3.8-2.29-8.73-2.66-13-4.29-1.72-.67-3.78-2.08-4.42-3.66C336.2,179.73,341.09,166.23,351.11,160.49ZM334.34,199.2a18.29,18.29,0,0,1,10.08-1.57c18.24,3.31,32.08,14,41.85,29,6.13,9.4,9.4,20.66,14,31.09l-1.05.26c-6.86-7.6-13.45-15.48-20.66-22.74-11.85-11.93-25.71-20.55-42.38-24.4-2.26-.52-4.86-3.47-5.5-5.8C330.21,203.47,332.48,200,334.34,199.2Zm-13.69,27.15c-1.68-3.32-.61-6.65,2.6-8.85,5-3.45,10.56-3.79,16.29-2.33,10.12,2.59,19,7.81,27.14,14.07a132.11,132.11,0,0,1,31.6,35.55c-10.86-11.93-23.49-21.29-38.59-27.26-10.8-4.26-21.79-6.65-33.54-5.66C324.43,232,321.8,228.63,320.65,226.35ZM313,249.24c-1.43-4.45,1.08-7.88,6.68-11,9.64-5.4,19.5-3.45,29.05-.87,19.67,5.3,35.86,16.27,48.53,32.3.81,1,1.43,2.18,2.14,3.28-22.16-15.77-46.16-19.58-72.08-13.82C322.1,260.29,315,255.3,313,249.24Zm-1.74,19.48c28.68-14.71,64.51-10.64,87,8.61,7.37,6.3,11.52,13.61,11.77,22.56-6.13-4.58-12.18-10.17-19.16-14.13-25.27-14.34-51.49-16.84-77.69-2.89-20,10.65-30.52,28.44-33.53,50.54C276,360,284.14,383,301.85,402.94c-5.61.52-13.77-2.29-17.28-6.07-14.76-15.85-21-35-19.53-56.2C267.22,308.47,282.11,283.68,311.26,268.72Zm-67.9,53.52c.35-5.17,3.28-10.38,5.9-15.09.85-1.52,4.71-2.46,6.79-2,5.58,1.32,10.19,10.22,8.76,15.72-6.25,24-3.8,46.76,8.85,68.47a80.66,80.66,0,0,1-21.77-28.5C246.19,348.63,242.46,335.77,243.36,322.24ZM224,315c1.56-2.14,5.1-4.44,7.36-4.11,3.15.45,6,3.29,8.87,5.18.22.15.16.83.12,1.26-2.22,28.29,8.29,51.71,27.43,71.85a6.31,6.31,0,0,1,.68,1.12l-.81.82c-4-3.25-8.09-6.38-12-9.76-14.48-12.68-26.6-27.08-32.85-45.7C220.5,328.56,219.36,321.4,224,315Zm-19,10.41c.77-2,4.65-4.54,6.08-4,2.6,1,5.88,3.77,6.34,6.28,2.82,15.26,9.92,28.34,19.95,39.75,7.45,8.48,15.93,16.07,23.85,23.95-28.12-6.1-52.24-28.08-57.54-55A20.73,20.73,0,0,1,205.08,325.38Zm-39.27,16.54c6.15-10,20-14.28,30.75-9.35,1.46.68,3.28,2.23,3.52,3.62,2.73,15.54,11.37,27.58,22.21,38.38.53.53,1,1.1,2.13,2.3-12.84-3.73-24.68-6.95-37.15-4.77-3.61.64-7.13,1.86-10.75,2.32-1.82.23-4.28-.05-5.61-1.13C162,366,159.78,351.69,165.81,341.92Zm3.56,49c-1.11-1.05-1-5,.12-6.48,2.16-2.74,5.11-5.66,8.3-6.63,21-6.34,40.57-2.51,58.43,9.77,6.52,4.48,12.27,10.1,18.72,15.48-11.69-3.78-22.41-7.85-33.45-10.66-14.87-3.77-29.89-4.21-44.85.54C174.54,393.62,171,392.5,169.37,390.94Zm2.86,25.31c-5.7-3.09-6.71-7.51-3-13,4.45-6.59,11.29-8.63,18.6-9.56,24.27-3.09,46.29,4.23,67.64,14.71-27.32-7.49-53.22-4.86-77.81,10.41C175.81,418,174,417.2,172.23,416.25Zm9.05,24.16c-7.86-1.34-9.61-6.13-5.52-12.89,5.56-9.2,14.82-12.71,24.12-15.54,17.81-5.42,35.89-5.79,53.83-.07,2.28.73,4.47,1.74,6.69,2.62-25.49-2-47.42,5.62-66.12,22.47C190.2,440.67,186,441.21,181.28,440.41Zm59.34-21.71c10.43-1.56,21-1,30.8,3.18,4.25,1.8,7.58,5.79,11.33,8.78l-.69,1.33a82.44,82.44,0,0,0-53.62,4.16c-47.5,20.16-59.73,74.5-25.59,113.24a87.25,87.25,0,0,0,44.57,27.3c-7.07,2.25-13.58,6-21.77,3.45-29.26-9.21-46.33-29.74-53.78-58.49C159.34,473.22,191,426.1,240.62,418.7Zm-85.19,97.53c6.15-1.14,12,3.27,13.91,9.3,7.6,24.63,22,43.56,45.91,54.4a12,12,0,0,1,1.9,1.46,76.8,76.8,0,0,1-28-8.79c-15.49-8.22-28.56-19.33-36.64-35.08-2.41-4.71-2.45-10.9-2.52-16.42C149.94,519.43,153.28,516.62,155.43,516.23ZM131.9,540.12c.32-4,2.28-6.65,6.26-7.42,4.93-1,8,.75,10,4.45,11,20.07,27.37,34,48.52,42.43,4.81,1.91,9.84,3.23,15.91,5.19-16.16-.66-30.45-4.2-44.29-9.3A82.9,82.9,0,0,1,138.9,557C134.19,552.38,131.36,547,131.9,540.12Zm-7.37,11.72c2.09-.59,5.81.12,7.06,1.68,16.48,20.52,39.49,28,64,32.7,2.85.54,5.72,1,8.57,1.57.24.05.44.35,1.1.91-9.66,1.55-18.82,3.58-28.09,4.28-5.17.39-10.64-1-15.77-2.33-14.16-3.75-27.23-9.77-36.39-21.73-2.4-3.15-3.48-7.63-4.1-11.67C120.62,555.57,122.84,552.32,124.53,551.84Zm-17,63c-9-5.19-14-15.78-12-25.33,2.2-10.5,11.6-19.1,22-19.89,1.46-.11,3.58.36,4.42,1.38,9.83,11.76,22.75,18.31,37.12,22.53a13.29,13.29,0,0,1,1.95,1.18c-14.29,3.38-27.06,8.15-37.22,18.2C117.11,619.55,115.77,619.66,107.48,614.86Zm15.18,19c-1.93-1.25-3.38-5.3-2.91-7.68a18.52,18.52,0,0,1,5.16-9.39c16.17-15.33,35.26-22,57.58-18.4,5.86,1,11.72,1.88,17.58,2.82l0,.76c-6.88,1.16-13.78,2.25-20.64,3.5a90.12,90.12,0,0,0-39,17.46,57.7,57.7,0,0,0-8.88,8.59C128.92,634.53,125.44,635.62,122.66,633.82ZM147,652.08c-2.71,4.39-6,4.18-9.65,3.92-3.92-.27-7.13-2.72-7.06-6.57a35.37,35.37,0,0,1,2.78-14c1.63-3.55,5.1-6.47,8.26-9.06,15.1-12.33,33-17.72,52-20,6-.73,12.15-.88,18.23-1.29-18.66,4.19-35,12.53-48.36,26A117.43,117.43,0,0,0,147,652.08Zm5.73,22.37c-3.62-.61-5.31-3.18-5.33-6.51,0-6,.43-11.74,3.87-17.15,14.35-22.59,34.7-36.13,60.88-41-4,2.43-8.27,4.61-12.12,7.32C183.15,629,172.56,645.25,167.14,665,165.52,670.92,158.7,675.45,152.71,674.45ZM169,701.87c-5.69-34.57,9.11-68.26,37.78-85,5.62-3.28,12-5.27,18.19-7.55,6-2.22,11.19,1.07,17.89,2.77C223.73,617.64,209,627.37,197.6,642c-31.9,41.09-15.69,94.78,33.69,111.66,16.07,5.5,32.39,6.46,48.92,2.07,1.14-.3,2.3-.51,3.2-.71-7.15,13.23-19.53,16.08-33.15,16.09C211.69,771.14,175.23,740,169,701.87Zm2.49,52.75c-.85-1.27.07-4.65,1.3-6.16,3.27-4,12.8-4.39,16.48-.77,18.64,18.35,40.66,28.06,67.26,26.92a71.24,71.24,0,0,1-32.06,5.68c-14.88-.71-29.4-3.65-41.86-12.14C177.91,765,174.68,759.48,171.44,754.62ZM166,784.48c-2.09-3.37-3.29-7.32-.63-10.26,2.51-2.78,6.43-4.3,9.8-6.26.29-.18,1.07.36,1.56.67,24,15.47,49.72,18.62,77,11.06a4.92,4.92,0,0,1,1.33,0c-14.91,8.19-30.38,14.41-47.22,15.62-8.77.63-17.71-.11-26.49-1A20,20,0,0,1,166,784.48Zm-1.88,18.62c-1-1.46-.84-5.25.35-6.49,1.5-1.55,5.07-2.78,6.92-2.05,22.11,8.73,43.62,4.73,65-2.46,4.9-1.65,9.66-3.69,15.06-5.76-15,15-31.71,25.26-52.78,27.12-9.15.8-18.16.36-26.58-3.35A20.77,20.77,0,0,1,164.11,803.1Zm25.48,54.38c-10.84,4.13-24.32-1.07-29.75-11.12-5.5-10.2-2.57-24.14,6.73-31,1.39-1,3.82-1.88,5.28-1.39,14.89,5.08,29.59,3.51,44.29-.69.57-.16,1.15-.27,2.87-.67-8.58,8.62-16.57,16.34-20.8,26.84-1.76,4.37-2.78,9.05-4.57,13.41C192.89,854.65,191.31,856.83,189.59,857.48Zm20.12,4.74a10.81,10.81,0,0,1-5.47,5.28c-1.3.46-4.7-1.59-5.26-3.18-1.27-3.58-2.59-7.88-1.73-11.35,5.43-22.08,19-37.64,39.73-46.8,6.39-2.83,13.12-4.89,20.43-7.57-8.39,7.54-16.27,14.34-23.81,21.49A85.91,85.91,0,0,0,213,851.3C211.63,854.83,211.32,858.81,209.71,862.22Zm22.51,9.94c-.4,4.32-4.06,4.94-6.76,6.35-3.68,1.93-7,.31-9.15-2.91-3.37-5-3.92-10.5-2.5-16.28,2.41-9.85,7.33-18.52,13.28-26.52C237.34,819,250.27,808.16,265,799.25a94.53,94.53,0,0,0-29.78,47.59C233,855,233,863.68,232.22,872.16Zm17.32,12.54c-3.7,2.27-7.64,1.84-9.4-2.08-2.2-4.91-4.79-10.38-4.6-15.51,1-27.44,13.26-49.45,34.5-66.55-9.69,13.64-15.24,28.71-15.64,45.36a135.6,135.6,0,0,0,1.86,22.81C257.21,875.25,255.1,881.3,249.54,884.7Zm48.75,37.18c-39-23-52.6-73.43-29.94-111.69a86.2,86.2,0,0,1,11.07-14.05c5.06-5.48,8.5-6.62,15.51-6.93-5.25,7.93-11.78,16-16.33,25-10,19.76-11.48,40.61-4.12,61.62,9.77,27.89,36.1,44.88,67.63,44.14q34-.78,58.29-24.61c.74-.73,1.53-1.4,2.38-2.16-.55,11.48-5.42,20-14.77,26.68C363.39,937.59,326.76,938.67,298.29,921.88Zm7.38,27.53c-1.58-.93-2.4-5.4-1.64-7.6,2-6,9.21-9,15.42-7.49,25.36,6.2,49.17,3,71.23-11.68-9.78,13.74-23,22.61-38.62,28.38-9.92,3.67-20.18,5.9-30.6,4.76C316,955.19,310.54,952.27,305.67,949.41Zm8.17,26.67a9.86,9.86,0,0,1,.23-17.12,3.19,3.19,0,0,1,1.74-.26c28.75,2.94,52.47-7.44,72.59-27.38.42-.41.86-.8,1.3-1.2-14.44,21.51-31.73,39.51-57.2,47.43C326.15,979.52,319.83,979.7,313.84,976.08Zm10,19.53c-2-1.31-4.7-4.5-4.27-6.09.72-2.7,3.35-6.49,5.71-6.92,27.59-5,46.29-22.61,63-43.25l1.41-1.73c-7.14,28.13-22.64,48.78-50.75,58.14C334,997.41,328.66,998.72,323.86,995.61Zm47.93,33.57c-7.12,9.13-21.78,11.44-31.66,5.27s-14.25-20.25-9.21-30.76c.69-1.44,2.32-3.16,3.75-3.42,15-2.69,26.74-11,37.31-21.38.63-.63,1.3-1.22,1.42-1.34-1.15,9.79-2.84,19.74-3.27,29.74-.24,5.36,1.84,10.8,2.55,16.24C372.92,1025.38,372.83,1027.85,371.79,1029.18Zm17.3,1.81c-.94,1.09-5,.59-6.91-.53-6.88-4.08-7.65-11.47-8.53-18.44-2-16.09,1.74-31.32,9.61-45.07,4.72-8.24,11.93-15.06,18-22.51l.6.58c-3.45,10.09-7.49,20-10.22,30.31-4.17,15.74-5.2,31.65-.11,47.61C392.28,1025.24,390.82,1029,389.09,1031Zm24.71-1.47a7.92,7.92,0,0,1-10.39,1.7c-6.67-3.81-9.58-10-10.73-17.31-4-25.21,3.79-47.94,14.77-71.29-1.71,8-3.6,14.82-4.51,21.71a88.33,88.33,0,0,0,8.67,51.38,17.07,17.07,0,0,0,2.27,3.44C417.33,1023.24,417.34,1025.26,413.8,1029.52Zm22.27-3.75c-3.49,2.24-6.9,1.18-10.34-.77-10.12-5.7-14.21-15.46-16.94-25.76-5.43-20.49-4.43-40.67,4.72-60.12a19.92,19.92,0,0,1,1.38-2.36v0l0,0c.15-.19.37-.26,0,0l0,0h0c.44,8.64.09,17.84,1.55,26.74,2.65,16.28,10.5,30.26,21.72,42.33C442.93,1011,441.89,1022,436.07,1025.77Zm80.05,2.46a82.72,82.72,0,0,1-95.05-59,71.19,71.19,0,0,1-.33-38.6c2.3-8.57,5.31-12.5,12.1-16.56-.94,8.39-3,17.21-2.7,25.94,1,29.73,12.66,54.3,39.56,68.69s52.93,8.67,76.66-8.9C561,989,570.7,974.46,575.9,957q.47-1.53,1-3c0-.1.23-.14.41-.24,6.06,10,4,19.73-.56,29.38C564.48,1008.83,543.42,1023.19,516.12,1028.23Zm9,23.13c-5.93,0-8.74-3.35-7.92-9.19.94-6.67,4.19-11.37,11.06-13.59,23.9-7.75,41.91-22.38,52.19-45.75.23-.53.53-1,.8-1.53.5,15-4.77,28.14-13,40.26a88.49,88.49,0,0,1-25.68,25.31C537.13,1050.4,531.32,1051.38,525.17,1051.36Zm15.52,17.9c-6.58-.69-10.42-9.14-6.58-14.53a3.53,3.53,0,0,1,1.45-1c25.87-11.4,40.47-32.09,48.18-58.45.47-1.59.86-3.2,1.29-4.8l1.24.24c-1.76,9.55-3.27,19.15-5.34,28.63A90.3,90.3,0,0,1,560,1060.68C554.89,1066.47,548.78,1070.12,540.69,1069.26Zm19.8,11.51c-2.22.18-6.14-1.6-6.59-3.25-.7-2.5,0-6.83,1.79-8.33,17.36-14.43,25.34-33.79,29.94-55,1.14-5.22,2-10.51,3-16.09,5.68,20.6,6.11,40.65-4.13,59.55-3.86,7.13-9.49,13.43-15,19.5C567.53,1079.33,563.64,1080.53,560.49,1080.77Zm58.86,4.14c-1.61,11.64-12.13,20.95-23.68,21.15A25.06,25.06,0,0,1,571,1086c-.63-3.22-.06-5.61,2.71-8,11-9.48,16.38-22.25,20.15-35.86.26-1,.63-1.92,1.3-4,3.91,17.42,9.84,32.26,23.14,43.14A4.52,4.52,0,0,1,619.35,1084.91Zm15.73-6.85c-.5,1.68-4.22,3.86-6,3.44-4-.94-8.25-2.6-11.26-5.27-11.26-10-16.13-23.52-19.19-37.79-3-14.07,1.06-27.5,3.51-40.09,2.66,11.78,4.71,24.51,8.49,36.71,4.24,13.69,11.36,26,22.29,35.83A8.43,8.43,0,0,1,635.08,1078.06Zm9.07-6.17c-6.74-.82-11.32-5.08-15.31-10.09a90.42,90.42,0,0,1-18.17-38.69c-2.14-10.62-3.59-21.38-5.34-32.07l1.34-.17c1.19,4.41,2.19,8.88,3.62,13.21,7,21.44,19.9,38.43,38.91,50.71,2.13,1.38,5.16,2.87,5.73,4.88C657.4,1068.37,653.1,1073,644.15,1071.89Zm28-20.84a8.13,8.13,0,0,1-5.87,4c-6,.34-11.8-.58-17-4.22-21.75-15.17-34.93-35.66-39-61.92a7.51,7.51,0,0,1-.05-1.34c0-.1.19-.2.24-.25,2.9,5.11,5.46,10.48,8.79,15.32,11,16,26.28,26.31,44.65,32.22C669.83,1036.79,674.62,1045.43,672.15,1051.05Zm36-17.92c-37.64,8.8-77-9.57-92.38-43.35a61.92,61.92,0,0,1-5.63-19.71c-.43-4.78,2.31-9.84,3.64-14.77,9.33,31.89,28,54.1,60,62.94,29,8,58-4.49,74.74-31.21,12.64-20.19,16.25-42,10.85-65.32-.13-.56-.22-1.13-.33-1.77,9.76,5.46,12.4,14.57,13.73,24.62C777.8,982.23,749.8,1023.4,708.19,1033.13Zm50.74-2.88c-3.23,2.16-6.45.39-8.31-3.18-3-5.83-2.24-11.44,2.26-16.36,16.13-17.62,24.82-38.08,23.62-62.28-.06-1.22,0-2.44,0-3.66,5.67,12.18,7.28,25,6.18,38.08-1.06,12.77-3.69,25.37-10.91,36.14C768.68,1023.58,763.64,1027.11,758.93,1030.25Zm25.83,5.42c-2.44,1.09-6.56,1.44-8.43.08-2.55-1.87-3.7-5.67-5.38-8.69-.14-.26.17-.88.41-1.24,16.51-24.46,18.06-51,10.75-78.68l1.43-.71c3.32,9.94,6.92,19.79,9.92,29.83a89.07,89.07,0,0,1,1.43,45.41C793.54,1027.74,790.58,1033.06,784.76,1035.67Zm27.62-7.74a20.14,20.14,0,0,1-6.26,8.08c-1.63,1.25-5.78,1.7-6.89.6-1.89-1.88-3.8-5.81-3-7.95,8.53-24.24,3.42-47.39-4.8-70.4-.91-2.54-1.91-5-3.24-8.55,14.53,15,25.23,30.63,27.14,51.16C816.16,1010.2,815.82,1019.27,812.38,1027.93Zm35.94,12.84c-10.61,5.69-25.72,2-31.92-7.87a4.56,4.56,0,0,1-.79-3.3c5.66-15.64,3.65-31.11-.77-46.55,0-.12.07-.28.25-.86,7.88,7.89,15.38,15.66,25.54,19.86,4.78,2,9.85,3.27,14.7,5.11,1.48.57,3.29,1.67,3.88,3C864,1020.88,858.76,1035.18,848.32,1040.77Zm18.27-39.23c-3.87,3.25-8.65,2.79-13.19,1.67-17.11-4.23-29.67-14.93-39.79-28.78-6.59-9-8.92-19.85-12.58-30.12,8.54,9.11,16.39,18.62,25.43,26.81,10.75,9.74,23.19,17,37.85,19.78,2,.39,4.36,3,5,5.05C869.78,997.43,868.11,1000.26,866.59,1001.54ZM880.43,975a6,6,0,0,1-2.06,8.53c-3.15,1.91-7,3.55-10.57,3.69a31.35,31.35,0,0,1-12.49-2.34c-24.83-9.81-41.63-28.57-55.41-50.56-.11-.18.05-.54.13-1.19a98.1,98.1,0,0,0,43.55,31.42c10,3.65,20.19,5.82,31,4.56C876.35,968.87,879,972.58,880.43,975Zm7.3-21.05c.33,3.78-2,6.2-5.09,8.07-8,4.85-16.62,4.77-25.34,2.89Q821.36,957.1,800,927.12a22.14,22.14,0,0,1-1-2.57c14.57,12.27,30.26,18.76,47.94,19.42,8.18.31,16.49-.7,24.65-1.8C878.33,941.25,887.14,947.05,887.73,953.91Zm2.57-21.84c-30.95,15.93-68.74,10.43-91.72-12.66-6.33-6.36-7.8-9.62-8.23-19.1,11.31,12.05,24.07,20.34,39.23,24.36,27.75,7.37,53.18,3.5,73.75-17.92,15.27-15.9,20.22-35.75,18.27-57.33a82.7,82.7,0,0,0-23.9-51.65c7.34-.4,16.07,2.93,20.44,7.94,14.68,16.81,20.21,36.54,17.83,58.46C932.65,894.7,917.8,917.91,890.3,932.07Zm68.11-52.92c-.18,5.35-3.74,10.84-6.66,15.72-1.88,3.14-5.51,3.39-8.94,1.09a14.34,14.34,0,0,1-6.19-16.19c6.06-24.13,4-47.14-9.84-68.43a13.11,13.11,0,0,1-.85-1.62c0-.07.11-.23.48-1,2.11,1.78,4.28,3.35,6.14,5.22C950.39,832,959.27,853.88,958.41,879.15Zm19.87,6.7a6.37,6.37,0,0,1-9,3.18c-3.36-1.68-7.81-2.79-7.53-8.45,1.32-26.43-8.12-48.89-25.41-68.54,12.39,8.92,23.81,18.83,32.4,31.52,6,8.91,11.7,18.27,12.59,29.25C981.67,877.07,980,881.76,978.28,885.85Zm19.06-11c-.85,1.89-4.51,4.37-5.79,3.85-2.64-1.08-6-3.71-6.48-6.2-3-15.42-10.49-28.48-20.78-39.87-7.47-8.28-16-15.63-24.19-23.58,17.1,4.27,32.16,11.9,43.79,25.71,7.45,8.86,13.34,18.44,15.07,30A19.18,19.18,0,0,1,997.34,874.86Zm39.12-17.34c-6.16,10.23-20.35,14.63-31,9.51-1.22-.59-2.76-1.84-3-3-2.9-15.65-11.72-27.73-22.82-38.49a16.5,16.5,0,0,1-1.21-1.51c6.72,1.27,13.14,2.55,19.58,3.68,9.45,1.65,18.57,0,27.61-2.73a6.24,6.24,0,0,1,4.79.7C1039.93,832.69,1042.62,847.31,1036.46,857.52Zm-4.14-49.06c1.09.89,1.21,4.88.16,6.08-2.6,3-5.75,6.21-9.34,7.44-17,5.84-34,3.36-49.51-4.51-10.24-5.19-19.11-13.08-28.59-19.76l.58-.54c12.53,3.81,24.89,8.42,37.65,11.22,13.87,3,28,2.86,41.8-1.85C1027.12,805.85,1030.53,807,1032.32,808.46Zm2-18.41c.09,5.22-3.37,8.8-7.42,11.45-7.54,4.94-16.27,5.16-24.83,5.3-19.26.32-37-5.79-54.32-13.52a18.79,18.79,0,0,1-1.93-1.14c27.62,7.69,53.72,5.45,78.57-11a7,7,0,0,1,1.33.47C1029.59,783.41,1034.23,784.79,1034.33,790.05Zm-8-27.91a10.39,10.39,0,0,1,0,8.46,29.13,29.13,0,0,1-14.43,14.12c-22.4,10-44.95,11-67.9,2.34-1.41-.53-2.74-1.24-4.11-1.86,26.44,1.52,48.74-7.39,67.77-25.42C1012,755.65,1023.41,756.91,1026.33,762.14Zm-59.07,17a69.77,69.77,0,0,1-36.81-.1c-6.3-1.76-8.1-3.25-15.41-12.66,5.59.92,11,2.09,16.42,2.65,28.84,3,62.87-10.72,77.31-39.5,13.65-27.2,8.2-52.75-9.19-76.35-10.59-14.36-24.77-24-41.87-29.36-1-.31-1.94-.79-3-1.21,7.24-3.84,14.42-3.85,21.88-1.15,27.38,9.94,43.44,29.77,50.64,57.45C1039,724.05,1009.92,768.1,967.26,779.11ZM1045.37,683c-5.47,2.3-13.74-2.15-15.47-7.85-7.64-25.27-22.55-44.31-47.18-55-.2-.09-.3-.42-1.28-1.85,6.16,1.26,11.43,1.89,16.42,3.44,21.52,6.73,38.61,19.53,49.55,39.33,2.64,4.8,2.2,11.49,2.39,17.33C1049.85,679.9,1047.25,682.19,1045.37,683Zm13.05-16.21-4.75-.7c-5.73-13.59-14.62-23.84-25.72-32.46a90.84,90.84,0,0,0-37.16-17.26l.28-1.12c7.74,1.34,15.51,2.46,23.19,4,16.9,3.51,32.43,10.07,45.59,21.55,5,4.35,8.83,9.34,9.06,16.38S1065.52,667.77,1058.42,666.77Zm18.19-20.28c-2.62.55-6.81,0-8.37-1.76-14.66-16.83-34-24.48-55-29.12-5.82-1.29-11.73-2.14-17.79-3.22,20.79-6.09,41.46-6.65,61.08,3.61,7.17,3.76,13.5,9.39,19.55,14.89,2.28,2.08,3.32,6.16,3.67,9.46C1079.94,642.38,1078.1,646.18,1076.61,646.49Zm8.91-17.27c-3.24.67-5.9.47-8.52-2.52-9.1-10.4-21.22-15.78-34.26-19.42-1.6-.44-3.22-.84-5.23-1.36,6.28-2.12,12.23-3.95,18.06-6.12,9.23-3.44,16.85-9.2,23.53-16.4a7,7,0,0,1,5.27-2c11.39,1.57,20.36,12,20.65,23.58C1105.3,616,1096.51,627,1085.52,629.22Z"/><path class="cls-1" d="M414.93,936.71l0,0v0h0Z"/></svg>